<svg xmlns="http://www.w3.org/2000/svg" xmlns:xlink="http://www.w3.org/1999/xlink" width="108" height="108" viewBox="0 0 108 108">
  <defs>
    <filter id="Trazado_904820" x="0" y="0" width="108" height="108" filterUnits="userSpaceOnUse">
      <feOffset dy="3" input="SourceAlpha"/>
      <feGaussianBlur stdDeviation="3" result="blur"/>
      <feFlood flood-opacity="0.161"/>
      <feComposite operator="in" in2="blur"/>
      <feComposite in="SourceGraphic"/>
    </filter>
  </defs>
  <g id="Grupo_1236380" data-name="Grupo 1236380" transform="translate(-200 -319)">
    <g id="Grupo_1226412" data-name="Grupo 1226412" transform="translate(209 325)">
      <g id="Grupo_1211530" data-name="Grupo 1211530" transform="translate(0 0)">
        <g id="Grupo_1173585" data-name="Grupo 1173585" transform="translate(0 0)">
          <g id="Grupo_1173428" data-name="Grupo 1173428">
            <g id="Grupo_1171958" data-name="Grupo 1171958">
              <g id="Grupo_1167341" data-name="Grupo 1167341">
                <g id="Grupo_1166792" data-name="Grupo 1166792">
                  <g transform="matrix(1, 0, 0, 1, -9, -6)" filter="url(#Trazado_904820)">
                    <g id="Trazado_904820-2" data-name="Trazado 904820" transform="translate(9 6)" fill="#fceefb">
                      <path d="M 44.99999618530273 88.50003814697266 C 39.12687301635742 88.50003814697266 33.43022155761719 87.35011291503906 28.06829643249512 85.08219909667969 C 22.88852119445801 82.89134979248047 18.23629570007324 79.75462341308594 14.24084663391113 75.75917053222656 C 10.24540901184082 71.76372528076172 7.108683586120605 67.11149597167969 4.917821407318115 61.93172454833984 C 2.649921178817749 56.56979751586914 1.499996185302734 50.87314605712891 1.499996185302734 45.00002288818359 C 1.499996185302734 39.12689971923828 2.649921178817749 33.43024826049805 4.917821407318115 28.06832313537598 C 7.108683586120605 22.88854789733887 10.24540901184082 18.2363224029541 14.24084663391113 14.24087333679199 C 18.23629570007324 10.24543571472168 22.88852119445801 7.108710289001465 28.06829643249512 4.917848110198975 C 33.43022155761719 2.649947881698608 39.12687301635742 1.500022888183594 44.99999618530273 1.500022888183594 C 50.87311935424805 1.500022888183594 56.56977081298828 2.649947881698608 61.93169784545898 4.917848110198975 C 67.11147308349609 7.108710289001465 71.76369476318359 10.24543571472168 75.75914764404297 14.24087333679199 C 79.75458526611328 18.2363224029541 82.89131164550781 22.88854789733887 85.08216857910156 28.06832313537598 C 87.35007476806641 33.43024826049805 88.5 39.12689971923828 88.5 45.00002288818359 C 88.5 50.87314605712891 87.35007476806641 56.56979751586914 85.08216857910156 61.93172454833984 C 82.89131164550781 67.11149597167969 79.75458526611328 71.76372528076172 75.75914764404297 75.75917053222656 C 71.76369476318359 79.75462341308594 67.11147308349609 82.89134979248047 61.93169784545898 85.08219909667969 C 56.56977081298828 87.35011291503906 50.87311935424805 88.50003814697266 44.99999618530273 88.50003814697266 Z" stroke="none"/>
                      <path d="M 44.99999618530273 3.000007629394531 C 39.32870864868164 3.000007629394531 33.82865142822266 4.110069274902344 28.65262603759766 6.299354553222656 C 23.65165710449219 8.414581298828125 19.15968322753906 11.44335174560547 15.301513671875 15.30153656005859 C 11.44333648681641 19.15970611572266 8.414566040039062 23.65166473388672 6.299339294433594 28.65265274047852 C 4.110054016113281 33.82867813110352 2.999992370605469 39.3287353515625 2.999992370605469 45.00002288818359 C 2.999992370605469 50.67131042480469 4.110054016113281 56.17135238647461 6.299339294433594 61.34739685058594 C 8.414566040039062 66.34836578369141 11.44333648681641 70.84032440185547 15.301513671875 74.69850921630859 C 19.15968322753906 78.55667877197266 23.65165710449219 81.58544921875 28.65262603759766 83.70068359375 C 33.82865142822266 85.88996887207031 39.32870864868164 87.00002288818359 44.99999618530273 87.00002288818359 C 50.67128372192383 87.00002288818359 56.17134094238281 85.88996887207031 61.34736633300781 83.70068359375 C 66.34834289550781 81.58544921875 70.84030914306641 78.55667877197266 74.69847869873047 74.69850921630859 C 78.55665588378906 70.84032440185547 81.58542633056641 66.34836578369141 83.70065307617188 61.34739685058594 C 85.88993835449219 56.17135238647461 87 50.67131042480469 87 45.00002288818359 C 87 39.3287353515625 85.88993835449219 33.82867813110352 83.70065307617188 28.65265274047852 C 81.58542633056641 23.65166473388672 78.55665588378906 19.15970611572266 74.69847869873047 15.30153656005859 C 70.84030914306641 11.44335174560547 66.34834289550781 8.414581298828125 61.34736633300781 6.299354553222656 C 56.17134094238281 4.110069274902344 50.67128372192383 3.000007629394531 44.99999618530273 3.000007629394531 M 44.99999618530273 7.62939453125e-06 C 69.85281372070312 7.62939453125e-06 90 20.14720916748047 90 45.00002288818359 C 90 69.85282135009766 69.85281372070312 90.00002288818359 44.99999618530273 90.00002288818359 C 20.14717864990234 90.00002288818359 -7.62939453125e-06 69.85282135009766 -7.62939453125e-06 45.00002288818359 C -7.62939453125e-06 20.14720916748047 20.14717864990234 7.62939453125e-06 44.99999618530273 7.62939453125e-06 Z" stroke="none" fill="#e761e1"/>
                    </g>
                  </g>
                </g>
              </g>
            </g>
          </g>
        </g>
      </g>
    </g>
    <g id="ingeniero-de-software_5_" data-name="ingeniero-de-software (5)" transform="translate(228 325.13)">
      <g id="Grupo_1236379" data-name="Grupo 1236379" transform="translate(0 13.87)">
        <g id="Grupo_1236345" data-name="Grupo 1236345" transform="translate(9.868 0.886)">
          <path id="Trazado_1225688" data-name="Trazado 1225688" d="M102.9,27.418c-3.966,1.039-5.777,4.147-5.045,8.648l.718,4.416h26.34l.641-4.416c1.932-13.357-18.942-17.712-22.655-8.648Z" transform="translate(-97.695 -22.639)" fill="#554e56" fill-rule="evenodd"/>
        </g>
        <g id="Grupo_1236346" data-name="Grupo 1236346" transform="translate(6.598 18.728)">
          <path id="Trazado_1225689" data-name="Trazado 1225689" d="M68.838,199.286c-5.281,0-4.381,7.454,1.18,7.037a7.085,7.085,0,0,0-.546-7.037Z" transform="translate(-65.325 -199.286)" fill="#f6a96c" fill-rule="evenodd"/>
        </g>
        <g id="Grupo_1236347" data-name="Grupo 1236347" transform="translate(35.301 18.728)">
          <path id="Trazado_1225690" data-name="Trazado 1225690" d="M351.283,199.286c-2.037,2.28-2.479,4.675-.546,7.037,5.561.417,6.461-7.037,1.18-7.037Z" transform="translate(-349.499 -199.286)" fill="#f6a96c" fill-rule="evenodd"/>
        </g>
        <g id="Grupo_1236348" data-name="Grupo 1236348" transform="translate(18.366 0.885)">
          <path id="Trazado_1225691" data-name="Trazado 1225691" d="M181.836,23.871c7-.508,15.775,4.147,15,12.721-.02.219-.047.444-.078.669l-.465,3.215h4.259l.641-4.416c1.595-11.029-12.356-15.92-19.36-12.189Z" transform="translate(-181.836 -22.634)" fill="#433f43" fill-rule="evenodd"/>
        </g>
        <g id="Grupo_1236349" data-name="Grupo 1236349" transform="translate(10.745 14.671)">
          <path id="Trazado_1225692" data-name="Trazado 1225692" d="M119.512,159.125l-7.3.013c-3.2,0-3.885.4-5.831,4.043v3.986a9.533,9.533,0,0,0,.546,3.051,14.8,14.8,0,0,0,2.1,3.942l10.322,2.768,10.724-2.768a14.8,14.8,0,0,0,2.1-3.942,9.532,9.532,0,0,0,.546-3.051v-3.986c-1.946-3.639-2.708-4.04-5.908-4.043Z" transform="translate(-106.381 -159.125)" fill="#fed2a4" fill-rule="evenodd"/>
        </g>
        <g id="Grupo_1236350" data-name="Grupo 1236350" transform="translate(28.581 14.681)">
          <path id="Trazado_1225693" data-name="Trazado 1225693" d="M282.965,159.225c6.36.017,6.964,6.243,5.318,11.079-.334.979-.809,2.634-1.4,3.945-.091.2-.186.394-.28.575l2.03-.525.192-.05a14.8,14.8,0,0,0,2.1-3.942,9.533,9.533,0,0,0,.546-3.051v-3.986c-1.946-3.639-2.708-4.04-5.908-4.043Z" transform="translate(-282.965 -159.225)" fill="#ffbd86" fill-rule="evenodd"/>
        </g>
        <g id="Grupo_1236351" data-name="Grupo 1236351" transform="translate(8.982 0)">
          <path id="Trazado_1225694" data-name="Trazado 1225694" d="M117.032,33.483a.885.885,0,0,1-.78-.468c-1.857-3.473-2.368-3.573-5.129-3.575l-7.3-.013-7.3.013c-2.786,0-3.213.136-5.052,3.575a.884.884,0,0,1-1.653-.275L89.1,28.324h0c-.782-4.811,1.138-8.26,5.277-9.527a8.477,8.477,0,0,1,5.6-4.416,15.748,15.748,0,0,1,8.327.105,15.374,15.374,0,0,1,7.715,4.714,11.257,11.257,0,0,1,2.527,9.109l-.641,4.417a.884.884,0,0,1-.723.744A.874.874,0,0,1,117.032,33.483ZM90.847,28.04l.325,2c1.36-1.984,2.545-2.366,5.35-2.369l7.3-.013,7.3.013c2.8,0,4.035.4,5.389,2.33l.282-1.946c.968-6.689-4.22-10.571-8.956-11.862-4.693-1.28-10.323-.428-12,3.677a.885.885,0,0,1-.594.52c-4.471,1.172-4.858,4.807-4.4,7.65Z" transform="translate(-88.929 -13.87)"/>
        </g>
        <g id="Grupo_1236352" data-name="Grupo 1236352" transform="translate(20.881 20.191)">
          <path id="Trazado_1225695" data-name="Trazado 1225695" d="M207.616,216.07a.885.885,0,0,1-.384-1.682,5.522,5.522,0,0,1,5.067,0,.885.885,0,1,1-.767,1.594,3.757,3.757,0,0,0-3.532,0A.881.881,0,0,1,207.616,216.07Z" transform="translate(-206.731 -213.773)"/>
        </g>
        <g id="Grupo_1236353" data-name="Grupo 1236353" transform="translate(35.655 17.843)">
          <path id="Trazado_1225696" data-name="Trazado 1225696" d="M354.326,199.35q-.25,0-.506-.019a.884.884,0,0,1,.132-1.764,3.331,3.331,0,0,0,3.268-1.421,2.69,2.69,0,0,0,.2-2.7,2.479,2.479,0,0,0-2.357-1.153h-.634a.884.884,0,0,1,0-1.769h.634a4.192,4.192,0,0,1,3.91,2.076,4.477,4.477,0,0,1-.27,4.5A5.035,5.035,0,0,1,354.326,199.35Z" transform="translate(-353.002 -190.528)"/>
        </g>
        <g id="Grupo_1236354" data-name="Grupo 1236354" transform="translate(5.718 17.843)">
          <path id="Trazado_1225697" data-name="Trazado 1225697" d="M61.741,199.35a5.033,5.033,0,0,1-4.379-2.243,4.478,4.478,0,0,1-.27-4.5A4.191,4.191,0,0,1,61,190.528h.634a.884.884,0,1,1,0,1.769H61a2.477,2.477,0,0,0-2.355,1.153,2.691,2.691,0,0,0,.2,2.7,3.33,3.33,0,0,0,3.267,1.42.884.884,0,1,1,.132,1.764Q61.99,199.35,61.741,199.35Z" transform="translate(-56.607 -190.528)"/>
        </g>
        <g id="Grupo_1236355" data-name="Grupo 1236355" transform="translate(9.86 17.843)">
          <path id="Trazado_1225698" data-name="Trazado 1225698" d="M122.2,203.277a.885.885,0,0,1-.712-1.408,11.562,11.562,0,0,0,2.476-6.469v-3.986a.884.884,0,0,1,1.769,0V195.4a13.151,13.151,0,0,1-2.819,7.516A.883.883,0,0,1,122.2,203.277Zm-21.044,0a.883.883,0,0,1-.714-.361,13.153,13.153,0,0,1-2.819-7.516v-3.986a.884.884,0,0,1,1.769,0V195.4a11.564,11.564,0,0,0,2.476,6.469.885.885,0,0,1-.712,1.408Z" transform="translate(-97.624 -190.529)"/>
        </g>
        <g id="Grupo_1236356" data-name="Grupo 1236356" transform="translate(26.065 18.728)">
          <path id="Trazado_1225699" data-name="Trazado 1225699" d="M259.963,199.286a1.907,1.907,0,0,0-1.905,1.9v2.069a1.907,1.907,0,0,0,1.905,1.9h1.754a1.907,1.907,0,0,0,1.905-1.9v-2.069a1.907,1.907,0,0,0-1.905-1.9Z" transform="translate(-258.058 -199.286)" fill="#99e6fc" fill-rule="evenodd"/>
        </g>
        <g id="Grupo_1236357" data-name="Grupo 1236357" transform="translate(16.201 18.728)">
          <path id="Trazado_1225700" data-name="Trazado 1225700" d="M162.306,199.286a1.907,1.907,0,0,0-1.905,1.9v2.069a1.907,1.907,0,0,0,1.905,1.9h1.754a1.907,1.907,0,0,0,1.905-1.9v-2.069a1.907,1.907,0,0,0-1.905-1.9Z" transform="translate(-160.401 -199.286)" fill="#99e6fc" fill-rule="evenodd"/>
        </g>
        <g id="Grupo_1236358" data-name="Grupo 1236358" transform="translate(0.884 40.87)">
          <path id="Trazado_1225701" data-name="Trazado 1225701" d="M14.169,419.386c-4.529,1.591-5.412,5.136-5.412,8.826v5.419a.705.705,0,0,0,.7.7h7.351l3.51-6.915-3.642-8.91Z" transform="translate(-8.757 -418.505)" fill="#99e6fc" fill-rule="evenodd"/>
        </g>
        <g id="Grupo_1236359" data-name="Grupo 1236359" transform="translate(34.856 40.87)">
          <path id="Trazado_1225702" data-name="Trazado 1225702" d="M349.264,418.505,345.1,427.65l4.037,6.68h7.348a.705.705,0,0,0,.7-.7v-5.419c0-3.69-.884-7.235-5.412-8.826Z" transform="translate(-345.099 -418.505)" fill="#99e6fc" fill-rule="evenodd"/>
        </g>
        <g id="Grupo_1236360" data-name="Grupo 1236360" transform="translate(8.809 29.706)">
          <path id="Trazado_1225703" data-name="Trazado 1225703" d="M112.846,307.979H89a1.793,1.793,0,0,0-1.787,1.786v20.356h30.212V309.765a1.793,1.793,0,0,0-1.787-1.786Z" transform="translate(-87.217 -307.979)" fill="#7a6d79" fill-rule="evenodd"/>
        </g>
        <g id="Grupo_1236361" data-name="Grupo 1236361" transform="translate(6.283 51.848)">
          <path id="Trazado_1225704" data-name="Trazado 1225704" d="M94.948,527.2H63.073a.866.866,0,0,0-.863.861v1.335a2.661,2.661,0,0,0,2.657,2.65H94.819a2.661,2.661,0,0,0,2.657-2.65v-1.335a.867.867,0,0,0-.867-.861Z" transform="translate(-62.21 -527.198)" fill="#554e56" fill-rule="evenodd"/>
        </g>
        <g id="Grupo_1236362" data-name="Grupo 1236362" transform="translate(33.828 29.706)">
          <path id="Trazado_1225705" data-name="Trazado 1225705" d="M336.7,319.144v10.979h3.406V309.767a1.793,1.793,0,0,0-1.787-1.786h-3.406a1.793,1.793,0,0,1,1.787,1.786v9.377Z" transform="translate(-334.915 -307.981)" fill="#685e68" fill-rule="evenodd"/>
        </g>
        <g id="Grupo_1236363" data-name="Grupo 1236363" transform="translate(35.487 51.848)">
          <path id="Trazado_1225706" data-name="Trazado 1225706" d="M354.876,527.2h-1.74a.866.866,0,0,1,.863.861v1.335a2.661,2.661,0,0,1-2.657,2.65h3.406a2.661,2.661,0,0,0,2.657-2.65v-1.335a.867.867,0,0,0-.867-.861Z" transform="translate(-351.342 -527.198)" fill="#433f43" fill-rule="evenodd"/>
        </g>
        <g id="Grupo_1236364" data-name="Grupo 1236364" transform="translate(39.021 40.87)">
          <path id="Trazado_1225707" data-name="Trazado 1225707" d="M386.332,418.505v2.745c3.814,1.715,5.058,3.125,5.058,6.175v6.905h2.162a.705.705,0,0,0,.7-.7v-5.419c0-3.69-.884-7.235-5.412-8.826Z" transform="translate(-386.332 -418.505)" fill="#62dbfb" fill-rule="evenodd"/>
        </g>
        <g id="Grupo_1236365" data-name="Grupo 1236365" transform="translate(16.583 33.124)">
          <path id="Trazado_1225708" data-name="Trazado 1225708" d="M169.724,343.423a6.291,6.291,0,0,0-2.563,1.48l-.9-.521a.579.579,0,0,0-.789.212l-1.214,2.1a.573.573,0,0,0,.212.784l.9.518a6.427,6.427,0,0,0,0,2.953l-.9.518a.573.573,0,0,0-.212.784l1.214,2.1a.581.581,0,0,0,.789.208l.9-.518a6.283,6.283,0,0,0,2.563,1.477v1.036a.575.575,0,0,0,.573.575h2.431a.575.575,0,0,0,.573-.575v-1.036a6.284,6.284,0,0,0,2.563-1.477l.9.518a.578.578,0,0,0,.786-.208l1.214-2.1a.573.573,0,0,0-.213-.784l-.9-.518a6.427,6.427,0,0,0,0-2.953l.9-.518a.573.573,0,0,0,.213-.784l-1.214-2.1a.576.576,0,0,0-.786-.212l-.9.521a6.29,6.29,0,0,0-2.563-1.48v-1.036a.572.572,0,0,0-.573-.572H170.3a.572.572,0,0,0-.573.572v1.036Zm1.791,3.327a2.721,2.721,0,1,1-2.731,2.721,2.726,2.726,0,0,1,2.731-2.721Z" transform="translate(-164.181 -341.815)" fill="#e5e1e5" fill-rule="evenodd"/>
        </g>
        <g id="Grupo_1236366" data-name="Grupo 1236366" transform="translate(20.301 37.173)">
          <path id="Trazado_1225709" data-name="Trazado 1225709" d="M204.606,389.119a3.606,3.606,0,1,1,3.613-3.606A3.615,3.615,0,0,1,204.606,389.119Zm0-5.442a1.837,1.837,0,1,0,1.844,1.837A1.844,1.844,0,0,0,204.606,383.677Z" transform="translate(-200.99 -381.908)"/>
        </g>
        <g id="Grupo_1236367" data-name="Grupo 1236367" transform="translate(15.698 32.239)">
          <path id="Trazado_1225710" data-name="Trazado 1225710" d="M164.848,350.136h-2.431a1.46,1.46,0,0,1-1.458-1.46v-.407a7.229,7.229,0,0,1-1.781-1.026l-.357.205a1.468,1.468,0,0,1-1.995-.53l-1.215-2.1a1.457,1.457,0,0,1,.539-1.994l.352-.2a7.273,7.273,0,0,1,0-2.047l-.355-.205a1.457,1.457,0,0,1-.535-1.994l1.213-2.1a1.464,1.464,0,0,1,1.994-.537l.36.209a7.237,7.237,0,0,1,1.78-1.028v-.407a1.459,1.459,0,0,1,1.458-1.456h2.431a1.459,1.459,0,0,1,1.458,1.456v.407a7.235,7.235,0,0,1,1.78,1.029l.36-.208a1.461,1.461,0,0,1,1.995.537l1.213,2.1a1.457,1.457,0,0,1-.539,1.994l-.352.2a7.277,7.277,0,0,1,0,2.047l.355.205a1.457,1.457,0,0,1,.535,1.994l-1.213,2.1a1.463,1.463,0,0,1-1.995.531l-.357-.2a7.226,7.226,0,0,1-1.782,1.027v.407A1.46,1.46,0,0,1,164.848,350.136Zm-2.12-1.769h1.809v-.727a.885.885,0,0,1,.636-.849,5.431,5.431,0,0,0,2.2-1.269.884.884,0,0,1,1.049-.126l.639.366.9-1.56-.629-.364a.885.885,0,0,1-.419-.968,5.543,5.543,0,0,0,0-2.549.885.885,0,0,1,.419-.968l.63-.364-.9-1.562-.636.367a.884.884,0,0,1-1.051-.125,5.435,5.435,0,0,0-2.2-1.273.884.884,0,0,1-.635-.849v-.723h-1.809v.723a.884.884,0,0,1-.635.849,5.433,5.433,0,0,0-2.2,1.273.884.884,0,0,1-1.053.124l-.634-.367-.9,1.563.63.364a.885.885,0,0,1,.419.968,5.541,5.541,0,0,0,0,2.549.885.885,0,0,1-.419.968l-.629.363.9,1.561.637-.366a.884.884,0,0,1,1.05.126,5.429,5.429,0,0,0,2.2,1.269.885.885,0,0,1,.636.849v.727Zm6.6-2.454h0Zm.909-1.556h0Zm-13.2,0h0Zm13.089-.424h0Zm-12.981,0h0Zm12.981-4.668h0Zm-12.979,0h0Zm13.09-.424h0Zm-13.2,0h0Zm12.3-1.561h0Zm-.423-.111h0Zm-10.55,0v0Z" transform="translate(-155.415 -333.057)"/>
        </g>
        <g id="Grupo_1236368" data-name="Grupo 1236368" transform="translate(7.925 28.822)">
          <path id="Trazado_1225711" data-name="Trazado 1225711" d="M109.555,323.133H79.343a.884.884,0,0,1-.884-.884V301.892a2.674,2.674,0,0,1,2.672-2.67H91.949a.884.884,0,0,1,0,1.769H81.131a.914.914,0,0,0-.9.9v19.471h28.443V301.892a.9.9,0,0,0-.9-.9H96.07a.884.884,0,1,1,0-1.769h11.7a2.674,2.674,0,0,1,2.672,2.67v20.356A.884.884,0,0,1,109.555,323.133Z" transform="translate(-78.459 -299.222)"/>
        </g>
        <g id="Grupo_1236369" data-name="Grupo 1236369" transform="translate(5.399 50.964)">
          <path id="Trazado_1225712" data-name="Trazado 1225712" d="M86.947,525.06a.884.884,0,1,1,0-1.769,1.771,1.771,0,0,0,1.773-1.766v-1.312h-33.5v1.312a1.771,1.771,0,0,0,1.773,1.766.884.884,0,1,1,0,1.769,3.542,3.542,0,0,1-3.542-3.535V520.19a1.749,1.749,0,0,1,1.748-1.745H88.737a1.75,1.75,0,0,1,1.751,1.745v1.335A3.542,3.542,0,0,1,86.947,525.06Z" transform="translate(-53.453 -518.444)"/>
        </g>
        <g id="Grupo_1236370" data-name="Grupo 1236370" transform="translate(15.317 17.843)">
          <path id="Trazado_1225713" data-name="Trazado 1225713" d="M156.187,198.166h-1.754a2.791,2.791,0,0,1-2.79-2.785v-2.069a2.791,2.791,0,0,1,2.79-2.785h1.754a2.791,2.791,0,0,1,2.79,2.785v2.069A2.791,2.791,0,0,1,156.187,198.166Zm-1.754-5.869a1.02,1.02,0,0,0-1.021,1.016v2.069a1.019,1.019,0,0,0,1.021,1.016h1.754a1.02,1.02,0,0,0,1.021-1.016v-2.069a1.02,1.02,0,0,0-1.021-1.016Z" transform="translate(-151.644 -190.528)"/>
        </g>
        <g id="Grupo_1236371" data-name="Grupo 1236371" transform="translate(25.18 17.843)">
          <path id="Trazado_1225714" data-name="Trazado 1225714" d="M253.844,198.166h-1.754a2.791,2.791,0,0,1-2.79-2.785v-2.069a2.791,2.791,0,0,1,2.79-2.785h1.754a2.791,2.791,0,0,1,2.79,2.785v2.069A2.79,2.79,0,0,1,253.844,198.166Zm-1.754-5.869a1.02,1.02,0,0,0-1.021,1.016v2.069a1.019,1.019,0,0,0,1.021,1.016h1.754a1.02,1.02,0,0,0,1.021-1.016v-2.069a1.02,1.02,0,0,0-1.021-1.016Z" transform="translate(-249.301 -190.528)"/>
        </g>
        <g id="Grupo_1236372" data-name="Grupo 1236372" transform="translate(0 39.985)">
          <path id="Trazado_1225715" data-name="Trazado 1225715" d="M46.241,427.341H1.589A1.589,1.589,0,0,1,0,425.757v-5.419c0-3.242.622-7.77,6-9.66l2.513-.881a.884.884,0,0,1,.586,1.669l-2.512.881c-3.379,1.187-4.821,3.577-4.821,7.991v5.234H46.061v-5.234c0-4.414-1.442-6.8-4.821-7.991l-2.512-.881a.884.884,0,0,1,.586-1.669l2.512.881c5.382,1.891,6,6.419,6,9.66v5.419A1.588,1.588,0,0,1,46.241,427.341Z" transform="translate(0 -409.746)"/>
        </g>
        <g id="Grupo_1236373" data-name="Grupo 1236373" transform="translate(34.58 26.164)">
          <path id="Trazado_1225716" data-name="Trazado 1225716" d="M365.541,278.09a11.159,11.159,0,0,1-15.981,14.995l-3.106-.145-4.094-.192,1.571-3.777,1.194-2.866a11.171,11.171,0,0,1,20.416-8.015Z" transform="translate(-342.36 -272.913)" fill="#e5e1e5" fill-rule="evenodd"/>
        </g>
        <g id="Grupo_1236374" data-name="Grupo 1236374" transform="translate(46.767 26.164)">
          <path id="Trazado_1225717" data-name="Trazado 1225717" d="M471.2,278.127a11.148,11.148,0,0,1-7.874,17,11.145,11.145,0,1,0-.3-22.1,11.153,11.153,0,0,1,8.178,5.106Z" transform="translate(-463.021 -272.913)" fill="#d7d0d6" fill-rule="evenodd"/>
        </g>
        <g id="Grupo_1236375" data-name="Grupo 1236375" transform="translate(33.695 25.285)">
          <path id="Trazado_1225718" data-name="Trazado 1225718" d="M348.229,288.268a12.048,12.048,0,0,1-6.84-2.136l-6.943-.325a.885.885,0,0,1-.775-1.223l2.666-6.4a12.057,12.057,0,1,1,21.514,5.3.884.884,0,1,1-1.41-1.069,10.274,10.274,0,1,0-18.319-4.3.884.884,0,0,1-.053.5l-2.281,5.478,5.94.277a.885.885,0,0,1,.476.166,10.267,10.267,0,0,0,11.538.35.884.884,0,1,1,.945,1.5A12.074,12.074,0,0,1,348.229,288.268Z" transform="translate(-333.603 -264.21)"/>
        </g>
        <g id="Grupo_1236376" data-name="Grupo 1236376" transform="translate(40.952 33.864)">
          <path id="Trazado_1225719" data-name="Trazado 1225719" d="M408.065,356.738a.884.884,0,0,1-.766-.44l-1.726-2.973a.884.884,0,0,1,.008-.9l1.726-2.856a.884.884,0,1,1,1.514.915l-1.455,2.407,1.463,2.52a.885.885,0,0,1-.764,1.329Z" transform="translate(-405.453 -349.14)"/>
        </g>
        <g id="Grupo_1236377" data-name="Grupo 1236377" transform="translate(46.095 33.554)">
          <path id="Trazado_1225720" data-name="Trazado 1225720" d="M457.25,354.29a.885.885,0,0,1-.821-1.213L459,346.633a.885.885,0,1,1,1.643.656l-2.573,6.444A.885.885,0,0,1,457.25,354.29Z" transform="translate(-456.365 -346.077)"/>
        </g>
        <g id="Grupo_1236378" data-name="Grupo 1236378" transform="translate(52.354 33.864)">
          <path id="Trazado_1225721" data-name="Trazado 1225721" d="M519.217,356.737a.885.885,0,0,1-.764-1.329l1.463-2.52-1.455-2.407a.884.884,0,1,1,1.514-.915l1.727,2.856a.885.885,0,0,1,.008.9l-1.727,2.973A.884.884,0,0,1,519.217,356.737Z" transform="translate(-518.333 -349.139)"/>
        </g>
      </g>
    </g>
  </g>
</svg>
