<svg xmlns="http://www.w3.org/2000/svg" xmlns:xlink="http://www.w3.org/1999/xlink" width="113" height="113" viewBox="0 0 113 113">
  <defs>
    <filter id="Trazado_982547" x="0" y="0" width="113" height="113" filterUnits="userSpaceOnUse">
      <feOffset dy="3" input="SourceAlpha"/>
      <feGaussianBlur stdDeviation="3" result="blur"/>
      <feFlood flood-opacity="0.161"/>
      <feComposite operator="in" in2="blur"/>
      <feComposite in="SourceGraphic"/>
    </filter>
  </defs>
  <g id="Grupo_1236392" data-name="Grupo 1236392" transform="translate(-1165 -1384.175)">
    <g id="Grupo_1223812" data-name="Grupo 1223812" transform="translate(1174 1390.175)">
      <g id="Grupo_1211533" data-name="Grupo 1211533" transform="translate(0)">
        <g id="Grupo_1210969" data-name="Grupo 1210969" transform="translate(0 0)">
          <g id="Grupo_1210937" data-name="Grupo 1210937">
            <g id="Grupo_1174742" data-name="Grupo 1174742">
              <g id="Grupo_1163948" data-name="Grupo 1163948">
                <g id="Grupo_1158168" data-name="Grupo 1158168">
                  <g id="Grupo_1152576" data-name="Grupo 1152576">
                    <g id="Grupo_1148633" data-name="Grupo 1148633">
                      <g id="Grupo_1148525" data-name="Grupo 1148525">
                        <g transform="matrix(1, 0, 0, 1, -9, -6)" filter="url(#Trazado_982547)">
                          <g id="Trazado_982547-2" data-name="Trazado 982547" transform="translate(9 6)" fill="#fbe7b2">
                            <path d="M 47.5 93.5 C 41.28937149047852 93.5 35.26533508300781 92.28397369384766 29.59518623352051 89.88570404052734 C 24.11771965026855 87.56893157958984 19.19813346862793 84.25196075439453 14.97309303283691 80.02691650390625 C 10.74804019927979 75.80186462402344 7.431066513061523 70.88229370117188 5.114293098449707 65.40481567382812 C 2.716026782989502 59.73468017578125 1.5 53.71062850952148 1.5 47.5 C 1.5 41.28937149047852 2.716026782989502 35.26533508300781 5.114293098449707 29.59518623352051 C 7.431066513061523 24.11771965026855 10.74804019927979 19.19813346862793 14.97309303283691 14.97309303283691 C 19.19813346862793 10.74804019927979 24.11771965026855 7.431066513061523 29.59518623352051 5.114293098449707 C 35.26533508300781 2.716026782989502 41.28937149047852 1.5 47.5 1.5 C 53.71062850952148 1.5 59.73468017578125 2.716026782989502 65.40481567382812 5.114293098449707 C 70.88229370117188 7.431066513061523 75.80186462402344 10.74804019927979 80.02691650390625 14.97309303283691 C 84.25196075439453 19.19813346862793 87.56893157958984 24.11771965026855 89.88570404052734 29.59518623352051 C 92.28397369384766 35.26533508300781 93.5 41.28937149047852 93.5 47.5 C 93.5 53.71062850952148 92.28397369384766 59.73468017578125 89.88570404052734 65.40481567382812 C 87.56893157958984 70.88229370117188 84.25196075439453 75.80186462402344 80.02691650390625 80.02691650390625 C 75.80186462402344 84.25196075439453 70.88229370117188 87.56893157958984 65.40481567382812 89.88570404052734 C 59.73468017578125 92.28397369384766 53.71062850952148 93.5 47.5 93.5 Z" stroke="none"/>
                            <path d="M 47.5 3 C 41.49121475219727 3 35.66376876831055 4.176155090332031 30.17950439453125 6.495796203613281 C 24.88084411621094 8.736953735351562 20.12152099609375 11.94598388671875 16.03375244140625 16.03375244140625 C 11.94598388671875 20.12152099609375 8.736953735351562 24.88084411621094 6.495796203613281 30.17950439453125 C 4.176155090332031 35.66376876831055 3 41.49121475219727 3 47.5 C 3 53.50878524780273 4.176155090332031 59.33623123168945 6.495796203613281 64.82049560546875 C 8.736953735351562 70.11915588378906 11.94598388671875 74.87847900390625 16.03375244140625 78.96624755859375 C 20.12152099609375 83.05401611328125 24.88084411621094 86.26304626464844 30.17950439453125 88.50419616699219 C 35.66376876831055 90.82384490966797 41.49121475219727 92 47.5 92 C 53.50878524780273 92 59.33623123168945 90.82384490966797 64.82049560546875 88.50419616699219 C 70.11915588378906 86.26304626464844 74.87847900390625 83.05401611328125 78.96624755859375 78.96624755859375 C 83.05401611328125 74.87847900390625 86.26304626464844 70.11915588378906 88.50419616699219 64.82049560546875 C 90.82384490966797 59.33623123168945 92 53.50878524780273 92 47.5 C 92 41.49121475219727 90.82384490966797 35.66376876831055 88.50419616699219 30.17950439453125 C 86.26304626464844 24.88084411621094 83.05401611328125 20.12152099609375 78.96624755859375 16.03375244140625 C 74.87847900390625 11.94598388671875 70.11915588378906 8.736953735351562 64.82049560546875 6.495796203613281 C 59.33623123168945 4.176155090332031 53.50878524780273 3 47.5 3 M 47.5 0 C 73.7335205078125 0 95 21.2664794921875 95 47.5 C 95 73.7335205078125 73.7335205078125 95 47.5 95 C 21.2664794921875 95 0 73.7335205078125 0 47.5 C 0 21.2664794921875 21.2664794921875 0 47.5 0 Z" stroke="none" fill="#f5b104"/>
                          </g>
                        </g>
                      </g>
                    </g>
                  </g>
                </g>
              </g>
            </g>
          </g>
        </g>
      </g>
    </g>
    <g id="wireframe_1_" data-name="wireframe (1)" transform="translate(1193.32 1409.495)">
      <rect id="Rectángulo_423848" data-name="Rectángulo 423848" width="44.117" height="25.367" transform="translate(6.121 8.107)" fill="#80cbc4"/>
      <rect id="Rectángulo_423849" data-name="Rectángulo 423849" width="44.117" height="7.279" transform="translate(6.121 0.827)" fill="#b0bec5"/>
      <rect id="Rectángulo_423850" data-name="Rectángulo 423850" width="30.882" height="15.441" transform="translate(12.739 11.415)" fill="#fdd835"/>
      <rect id="Rectángulo_423851" data-name="Rectángulo 423851" width="30.882" height="2.206" transform="translate(12.739 24.651)" fill="#fbc02d"/>
      <circle id="Elipse_12790" data-name="Elipse 12790" cx="2.206" cy="2.206" r="2.206" transform="translate(16.048 14.724)" fill="#ed593b"/>
      <path id="Trazado_1225791" data-name="Trazado 1225791" d="M178.764,137.769l-6.612,7.08-4.859-4.763-9.485,9.375h26.25v-7.169Z" transform="translate(-140.437 -122.604)" fill="#9ccc65"/>
      <path id="Trazado_1225792" data-name="Trazado 1225792" d="M169.9,192l2.247-2.406-1.576-1.545-3.69,3.95H160.04l-2.232,2.206h26.25V192Z" transform="translate(-140.437 -167.349)" fill="#7cb342"/>
      <path id="Trazado_1225793" data-name="Trazado 1225793" d="M147.991,144.883a2.2,2.2,0,0,1-1.908-1.1,2.206,2.206,0,1,0,3.817,0A2.2,2.2,0,0,1,147.991,144.883Z" transform="translate(-129.737 -127.953)" fill="#e23423"/>
      <rect id="Rectángulo_423852" data-name="Rectángulo 423852" width="15.441" height="9.926" transform="translate(0.827 45.606)" fill="#ce93d8"/>
      <rect id="Rectángulo_423853" data-name="Rectángulo 423853" width="15.441" height="3.309" transform="translate(0.827 42.297)" fill="#80d8ff"/>
      <rect id="Rectángulo_423854" data-name="Rectángulo 423854" width="15.441" height="9.926" transform="translate(20.459 45.606)" fill="#ce93d8"/>
      <g id="Grupo_1236389" data-name="Grupo 1236389" transform="translate(20.459 42.297)">
        <rect id="Rectángulo_423855" data-name="Rectángulo 423855" width="15.441" height="3.309" fill="#80d8ff"/>
        <rect id="Rectángulo_423856" data-name="Rectángulo 423856" width="15.441" height="3.309" transform="translate(19.632)" fill="#80d8ff"/>
      </g>
      <rect id="Rectángulo_423857" data-name="Rectángulo 423857" width="15.441" height="9.926" transform="translate(40.092 45.606)" fill="#ce93d8"/>
      <g id="Grupo_1236390" data-name="Grupo 1236390" transform="translate(0.827 45.606)">
        <rect id="Rectángulo_423858" data-name="Rectángulo 423858" width="15.441" height="2.206" fill="#ba68c8"/>
        <rect id="Rectángulo_423859" data-name="Rectángulo 423859" width="15.441" height="2.206" transform="translate(19.632)" fill="#ba68c8"/>
        <rect id="Rectángulo_423860" data-name="Rectángulo 423860" width="15.441" height="2.206" transform="translate(39.264)" fill="#ba68c8"/>
      </g>
      <rect id="Rectángulo_423861" data-name="Rectángulo 423861" width="44.117" height="2.206" transform="translate(6.121 8.107)" fill="#26a69a"/>
      <rect id="Rectángulo_423862" data-name="Rectángulo 423862" width="44.117" height="2.206" transform="translate(6.121 5.901)" fill="#90a4ae"/>
      <rect id="Rectángulo_423863" data-name="Rectángulo 423863" width="1.654" height="1.654" transform="translate(45.827 3.64)"/>
      <rect id="Rectángulo_423864" data-name="Rectángulo 423864" width="23.162" height="1.654" transform="translate(21.011 3.64)"/>
      <path id="Trazado_1225794" data-name="Trazado 1225794" d="M108.211,113.283h32.536v-17.1H108.211Zm7.473-1.654,7.474-7.387,3.7,3.628-3.511,3.759Zm23.409,0H125.612l9.079-9.721,4.4,3.76ZM109.865,97.842h29.228v5.65l-4.531-3.871-6.574,7.039-4.835-4.74-9.823,9.709h-3.465V97.842Z" transform="translate(-96.299 -85.6)"/>
      <path id="Trazado_1225795" data-name="Trazado 1225795" d="M144.336,129.279a3.033,3.033,0,1,0-3.033,3.033A3.036,3.036,0,0,0,144.336,129.279Zm-4.412,0a1.379,1.379,0,1,1,1.379,1.379A1.38,1.38,0,0,1,139.924,129.279Z" transform="translate(-123.05 -112.349)"/>
      <path id="Trazado_1225796" data-name="Trazado 1225796" d="M48.639,41.47V37.059H29.007V34.3H51.066V0H5.294V34.3H27.353v2.757H7.721V41.47H0V56.36H17.1V41.47H9.375V38.713H27.353V41.47H19.632V56.36h17.1V41.47H29.007V38.713H46.985V41.47H39.264V56.36h17.1V41.47Zm-33.2,13.235H1.654V46.433H15.441Zm0-11.581v1.654H1.654V43.125ZM6.948,1.654H49.411V7.279H6.948ZM35.073,54.706H21.287V46.433H35.073v8.272Zm0-11.581v1.654H21.287V43.125ZM6.948,32.647V8.934H49.411V32.647H6.948ZM54.706,54.706H40.919V46.433H54.706Zm0-9.926H40.919V43.125H54.706Z"/>
      <g id="Grupo_1236391" data-name="Grupo 1236391" transform="translate(3.585 3.64)">
        <path id="Trazado_1225797" data-name="Trazado 1225797" d="M87.677,34.719H86.023V33.065h1.654Zm-3.309,0H82.714V33.065h1.654Zm-3.309,0H79.4V33.065h1.654Z" transform="translate(-74.249 -33.065)" fill="#fff"/>
        <path id="Trazado_1225798" data-name="Trazado 1225798" d="M193.491,268.175h-6.066v-1.654h6.066Zm-7.721,0h-1.654v-1.654h1.654v1.654Zm-3.309,0h-6.618v-1.654h6.618Z" transform="translate(-160.072 -240.823)" fill="#fff"/>
        <path id="Trazado_1225799" data-name="Trazado 1225799" d="M270.533,127.9h-2.206v-1.654h2.206Zm-3.86,0h-1.654v-1.654h1.654Z" transform="translate(-239.43 -115.99)" fill="#fff"/>
        <path id="Trazado_1225800" data-name="Trazado 1225800" d="M40.285,468.566H38.63v-1.654h1.654v1.654Zm-3.309,0H32.564v-1.654h4.412Z" transform="translate(-32.564 -419.155)" fill="#fff"/>
        <path id="Trazado_1225801" data-name="Trazado 1225801" d="M42.49,438.508H39.733v-1.654H42.49Zm-4.412,0H32.564v-1.654h5.515v1.654Z" transform="translate(-32.564 -392.406)" fill="#fff"/>
        <path id="Trazado_1225802" data-name="Trazado 1225802" d="M218.633,468.566h-1.654v-1.654h1.654Zm-3.309,0h-4.412v-1.654h4.412Z" transform="translate(-191.28 -419.155)" fill="#fff"/>
        <path id="Trazado_1225803" data-name="Trazado 1225803" d="M220.838,438.508h-2.757v-1.654h2.757Zm-4.412,0h-5.515v-1.654h5.515Z" transform="translate(-191.28 -392.406)" fill="#fff"/>
        <path id="Trazado_1225804" data-name="Trazado 1225804" d="M396.981,468.566h-1.654v-1.654h1.654Zm-3.309,0H389.26v-1.654h4.412v1.654Z" transform="translate(-349.996 -419.155)" fill="#fff"/>
        <path id="Trazado_1225805" data-name="Trazado 1225805" d="M399.186,438.508h-2.757v-1.654h2.757Zm-4.412,0H389.26v-1.654h5.515Z" transform="translate(-349.996 -392.406)" fill="#fff"/>
      </g>
    </g>
  </g>
</svg>
