<svg xmlns="http://www.w3.org/2000/svg" xmlns:xlink="http://www.w3.org/1999/xlink" width="113" height="113" viewBox="0 0 113 113">
  <defs>
    <filter id="Trazado_982547" x="0" y="0" width="113" height="113" filterUnits="userSpaceOnUse">
      <feOffset dy="3" input="SourceAlpha"/>
      <feGaussianBlur stdDeviation="3" result="blur"/>
      <feFlood flood-opacity="0.161"/>
      <feComposite operator="in" in2="blur"/>
      <feComposite in="SourceGraphic"/>
    </filter>
  </defs>
  <g id="Grupo_1236618" data-name="Grupo 1236618" transform="translate(-7704 -7346.45)">
    <g id="Grupo_1236146" data-name="Grupo 1236146" transform="translate(6907 4553.332)">
      <g id="Grupo_1235105" data-name="Grupo 1235105" transform="translate(3.131 2004.79)">
        <g id="Grupo_1223793" data-name="Grupo 1223793" transform="translate(0.869 -700.672)">
          <g id="Grupo_1208028" data-name="Grupo 1208028" transform="translate(-0.49 -4138.425)">
            <g id="Grupo_1177675" data-name="Grupo 1177675" transform="translate(-4493 3707.152)">
              <g id="Grupo_1176928" data-name="Grupo 1176928" transform="translate(5295.49 1926.273)">
                <g id="Grupo_1172322" data-name="Grupo 1172322" transform="translate(0 0)">
                  <g id="Grupo_1164700" data-name="Grupo 1164700">
                    <g id="Grupo_1160931" data-name="Grupo 1160931">
                      <g id="Grupo_1160749" data-name="Grupo 1160749">
                        <g id="Grupo_1158891" data-name="Grupo 1158891">
                          <g id="Grupo_1157406" data-name="Grupo 1157406">
                            <g id="Grupo_1155793" data-name="Grupo 1155793">
                              <g id="Grupo_1154704" data-name="Grupo 1154704">
                                <g id="Grupo_1150790" data-name="Grupo 1150790">
                                  <g id="Grupo_1154214" data-name="Grupo 1154214">
                                    <g id="Grupo_1152583" data-name="Grupo 1152583">
                                      <g id="Grupo_1146973" data-name="Grupo 1146973">
                                        <g id="Grupo_1146954" data-name="Grupo 1146954">
                                          <g transform="matrix(1, 0, 0, 1, -9, -6)" filter="url(#Trazado_982547)">
                                            <g id="Trazado_982547-2" data-name="Trazado 982547" transform="translate(9 6)" fill="#e1daf7">
                                              <path d="M 47.5000114440918 93.49987030029297 C 41.28938293457031 93.49987030029297 35.26534652709961 92.28384399414062 29.5951976776123 89.88558959960938 C 24.11773109436035 87.56881713867188 19.19814491271973 84.25183868408203 14.97310447692871 80.02680206298828 C 10.74805164337158 75.80176544189453 7.43107795715332 70.88218688964844 5.114304542541504 65.40472412109375 C 2.716038227081299 59.73458862304688 1.500011444091797 53.71054840087891 1.500011444091797 47.49993515014648 C 1.500011444091797 41.28932189941406 2.716038227081299 35.26528167724609 5.114304542541504 29.59514808654785 C 7.43107795715332 24.1176815032959 10.74805164337158 19.1981086730957 14.97310447692871 14.97306823730469 C 19.19814491271973 10.74802875518799 24.11773109436035 7.431055068969727 29.5951976776123 5.11428165435791 C 35.26534652709961 2.716028451919556 41.28938293457031 1.500001788139343 47.5000114440918 1.500001788139343 C 53.71063995361328 1.500001788139343 59.73467636108398 2.716028451919556 65.40482330322266 5.11428165435791 C 70.88229370117188 7.431055068969727 75.8018798828125 10.74802875518799 80.02691650390625 14.97306823730469 C 84.25196838378906 19.1981086730957 87.56894683837891 24.1176815032959 89.88571929931641 29.59514808654785 C 92.28398132324219 35.26528167724609 93.50001525878906 41.28932189941406 93.50001525878906 47.49993515014648 C 93.50001525878906 53.71054840087891 92.28398132324219 59.73458862304688 89.88571929931641 65.40472412109375 C 87.56894683837891 70.88218688964844 84.25196838378906 75.80176544189453 80.02691650390625 80.02680206298828 C 75.8018798828125 84.25183868408203 70.88229370117188 87.56881713867188 65.40482330322266 89.88558959960938 C 59.73467636108398 92.28384399414062 53.71063995361328 93.49987030029297 47.5000114440918 93.49987030029297 Z" stroke="none"/>
                                              <path d="M 47.5000114440918 3 C 41.49122619628906 3 35.66378021240234 4.1761474609375 30.17951965332031 6.495796203613281 C 24.880859375 8.7369384765625 20.12153625488281 11.94596862792969 16.03376770019531 16.03373718261719 C 11.94598388671875 20.12149047851562 8.736968994140625 24.88081359863281 6.495811462402344 30.17947387695312 C 4.176162719726562 35.66371917724609 3.000007629394531 41.49116516113281 3.000007629394531 47.49993515014648 C 3.000007629394531 53.50870513916016 4.176162719726562 59.33615112304688 6.495811462402344 64.82039642333984 C 8.736968994140625 70.11905670166016 11.94598388671875 74.87837982177734 16.03376770019531 78.96613311767578 C 20.12153625488281 83.05390167236328 24.880859375 86.26293182373047 30.17951965332031 88.50407409667969 C 35.66378021240234 90.82372283935547 41.49122619628906 91.99987030029297 47.5000114440918 91.99987030029297 C 53.50879669189453 91.99987030029297 59.33624267578125 90.82372283935547 64.82050323486328 88.50407409667969 C 70.11916351318359 86.26293182373047 74.87848663330078 83.05390167236328 78.96625518798828 78.96613311767578 C 83.05403900146484 74.87837982177734 86.2630615234375 70.11905670166016 88.50421142578125 64.82039642333984 C 90.82386016845703 59.33615112304688 92.00001525878906 53.50870513916016 92.00001525878906 47.49993515014648 C 92.00001525878906 41.49116516113281 90.82386016845703 35.66371917724609 88.50421142578125 30.17947387695312 C 86.2630615234375 24.88081359863281 83.05403900146484 20.12149047851562 78.96625518798828 16.03373718261719 C 74.87848663330078 11.94596862792969 70.11916351318359 8.7369384765625 64.82050323486328 6.495796203613281 C 59.33624267578125 4.1761474609375 53.50879669189453 3 47.5000114440918 3 M 47.5000114440918 0 C 73.73353576660156 0 95.00001525878906 21.26644134521484 95.00001525878906 47.49993515014648 C 95.00001525878906 73.73342895507812 73.73353576660156 94.99987030029297 47.5000114440918 94.99987030029297 C 21.26648712158203 94.99987030029297 7.62939453125e-06 73.73342895507812 7.62939453125e-06 47.49993515014648 C 7.62939453125e-06 21.26644134521484 21.26648712158203 0 47.5000114440918 0 Z" stroke="none" fill="#6c4dd8"/>
                                            </g>
                                          </g>
                                        </g>
                                      </g>
                                    </g>
                                  </g>
                                </g>
                              </g>
                            </g>
                          </g>
                        </g>
                      </g>
                    </g>
                  </g>
                </g>
              </g>
            </g>
          </g>
        </g>
      </g>
    </g>
    <g id="identificar_1_" data-name="identificar (1)" transform="translate(7732 7370)">
      <g id="Grupo_1236615" data-name="Grupo 1236615">
        <g id="Grupo_1236604" data-name="Grupo 1236604">
          <path id="Trazado_1226276" data-name="Trazado 1226276" d="M49,5v6.14A14.6,14.6,0,0,0,47,11,14,14,0,0,0,33,25a14.6,14.6,0,0,0,.14,2H20l-.68,2.73a1.676,1.676,0,0,1-2.81.78L13,27H5a4,4,0,0,1-4-4V5A4,4,0,0,1,5,1H45A4,4,0,0,1,49,5Z" fill="#e6e9ed"/>
        </g>
        <g id="Grupo_1236605" data-name="Grupo 1236605">
          <circle id="Elipse_12822" data-name="Elipse 12822" cx="2" cy="2" r="2" transform="translate(23 19)" fill="#ff826e"/>
        </g>
        <g id="Grupo_1236606" data-name="Grupo 1236606">
          <path id="Trazado_1226277" data-name="Trazado 1226277" d="M33,43V53a2.006,2.006,0,0,1-2,2H1V41H31A2.006,2.006,0,0,1,33,43Z" fill="#ff826e"/>
        </g>
        <g id="Grupo_1236607" data-name="Grupo 1236607">
          <path id="Trazado_1226278" data-name="Trazado 1226278" d="M51,57v2a2.006,2.006,0,0,1-2,2H45a2.006,2.006,0,0,1-2-2V43h4a2.006,2.006,0,0,0,2,2,2.015,2.015,0,0,0-2,2,2.006,2.006,0,0,0,2,2,2.015,2.015,0,0,0-2,2,2.006,2.006,0,0,0,2,2,2.015,2.015,0,0,0-2,2,2.006,2.006,0,0,0,2,2Z" fill="#969faa"/>
        </g>
        <g id="Grupo_1236608" data-name="Grupo 1236608">
          <path id="Trazado_1226279" data-name="Trazado 1226279" d="M53,45a2.006,2.006,0,0,1,2,2,2.015,2.015,0,0,1-2,2H49a2.006,2.006,0,0,1-2-2,2.015,2.015,0,0,1,2-2Z" fill="#f0d0b4"/>
        </g>
        <g id="Grupo_1236609" data-name="Grupo 1236609">
          <path id="Trazado_1226280" data-name="Trazado 1226280" d="M53,49a2.006,2.006,0,0,1,2,2,2.015,2.015,0,0,1-2,2H49a2.006,2.006,0,0,1-2-2,2.015,2.015,0,0,1,2-2Z" fill="#f0d0b4"/>
        </g>
        <g id="Grupo_1236610" data-name="Grupo 1236610">
          <path id="Trazado_1226281" data-name="Trazado 1226281" d="M53,53a2.006,2.006,0,0,1,2,2,2.015,2.015,0,0,1-2,2H49a2.006,2.006,0,0,1-2-2,2.015,2.015,0,0,1,2-2Z" fill="#f0d0b4"/>
        </g>
        <g id="Grupo_1236611" data-name="Grupo 1236611">
          <path id="Trazado_1226282" data-name="Trazado 1226282" d="M53,41a2.006,2.006,0,0,1,2,2,2.015,2.015,0,0,1-2,2H49a2.006,2.006,0,0,1-2-2h2a2.993,2.993,0,0,0,2.12-.88l.7-1.12H53Z" fill="#f0d0b4"/>
        </g>
        <g id="Grupo_1236612" data-name="Grupo 1236612">
          <path id="Trazado_1226283" data-name="Trazado 1226283" d="M43,43V57H40.1a5.976,5.976,0,0,1-3.74-1.31L33,53V43l3.36-2.69A5.976,5.976,0,0,1,40.1,39H51a1,1,0,0,1,1,1,2.772,2.772,0,0,1-.18,1l-.7,1.12A2.993,2.993,0,0,1,49,43H43Z" fill="#f0d0b4"/>
        </g>
        <g id="Grupo_1236613" data-name="Grupo 1236613">
          <path id="Trazado_1226284" data-name="Trazado 1226284" d="M49,11.14A14,14,0,1,1,33.14,27,14.6,14.6,0,0,1,33,25,14,14,0,0,1,47,11,14.6,14.6,0,0,1,49,11.14Z" fill="#fcd770"/>
        </g>
        <g id="Grupo_1236614" data-name="Grupo 1236614">
          <circle id="Elipse_12823" data-name="Elipse 12823" cx="10" cy="10" r="10" transform="translate(37 15)" fill="#69d6f4"/>
        </g>
      </g>
      <g id="Grupo_1236616" data-name="Grupo 1236616">
        <path id="Trazado_1226285" data-name="Trazado 1226285" d="M62,25A15.026,15.026,0,0,0,50,10.3V5a5.006,5.006,0,0,0-5-5H5A5.006,5.006,0,0,0,0,5V23a5.006,5.006,0,0,0,5,5h7.586L15.8,31.218a2.674,2.674,0,0,0,4.484-1.243L20.781,28H32.3a15.038,15.038,0,0,0,7.315,10.042,7.014,7.014,0,0,0-3.885,1.492L33.49,41.328A3,3,0,0,0,31,40H0V56H31a3,3,0,0,0,2.489-1.328l2.243,1.794A7.026,7.026,0,0,0,40.1,58H42v1a3,3,0,0,0,3,3h4a3,3,0,0,0,3-3V58h1a2.987,2.987,0,0,0,2.22-5,2.954,2.954,0,0,0,0-4,2.954,2.954,0,0,0,0-4A2.987,2.987,0,0,0,53,40a1.989,1.989,0,0,0-.342-1.117A15.015,15.015,0,0,0,62,25ZM19.219,26l-.873,3.49a.7.7,0,0,1-1.13.313l-3.8-3.8H5a3,3,0,0,1-3-3V5A3,3,0,0,1,5,2H45a3,3,0,0,1,3,3v5.051c-.332-.022-.662-.051-1-.051A15.017,15.017,0,0,0,32,25c0,.338.029.668.051,1ZM32,53a1,1,0,0,1-1,1H2V42H31a1,1,0,0,1,1,1Zm18,6a1,1,0,0,1-1,1H45a1,1,0,0,1-1-1V44h2.184a2.972,2.972,0,0,0,.6,1,2.954,2.954,0,0,0,0,4,2.954,2.954,0,0,0,0,4A2.987,2.987,0,0,0,49,58h1Zm4-12a1,1,0,0,1-1,1H49a1,1,0,0,1,0-2h4A1,1,0,0,1,54,47Zm0,4a1,1,0,0,1-1,1H49a1,1,0,0,1,0-2h4A1,1,0,0,1,54,51Zm-1,5H49a1,1,0,0,1,0-2h4a1,1,0,0,1,0,2Zm0-14a1,1,0,0,1,0,2H49a3.987,3.987,0,0,0,3.444-2Zm-2-2a2,2,0,0,1-2,2H42.465l-.3.445A5.724,5.724,0,0,1,37.4,45H37v2h.4A7.709,7.709,0,0,0,42,45.467V56H40.1a5.021,5.021,0,0,1-3.124-1.1L34,52.519V43.481L36.981,41.1A5.018,5.018,0,0,1,40.1,40Zm-4-2A13,13,0,1,1,60,25,13.015,13.015,0,0,1,47,38Z"/>
        <path id="Trazado_1226286" data-name="Trazado 1226286" d="M47,14A11,11,0,1,0,58,25,11.013,11.013,0,0,0,47,14Zm0,20a9,9,0,1,1,9-9A9.01,9.01,0,0,1,47,34Z"/>
        <path id="Trazado_1226287" data-name="Trazado 1226287" d="M25.292,4h-.584A4.713,4.713,0,0,0,20,8.708V9h2V8.708A2.711,2.711,0,0,1,24.708,6h.584A2.709,2.709,0,0,1,26.5,11.131L24,12.382V16h2V13.618l1.4-.7A4.709,4.709,0,0,0,25.292,4Z"/>
        <path id="Trazado_1226288" data-name="Trazado 1226288" d="M25,18a3,3,0,1,0,3,3A3,3,0,0,0,25,18Zm0,4a1,1,0,1,1,1-1A1,1,0,0,1,25,22Z"/>
        <circle id="Elipse_12824" data-name="Elipse 12824" cx="1" cy="1" r="1" transform="translate(46 30)"/>
        <path id="Trazado_1226289" data-name="Trazado 1226289" d="M47,18a4,4,0,0,0-4,4h2a2,2,0,0,1,4,0v.4a2,2,0,0,1-.891,1.664L46,25.465V28h2V26.535l1.219-.813A3.992,3.992,0,0,0,51,22.4V22A4,4,0,0,0,47,18Z"/>
        <path id="Trazado_1226290" data-name="Trazado 1226290" d="M11,34h2v2H11Z"/>
        <path id="Trazado_1226291" data-name="Trazado 1226291" d="M15,34h2v2H15Z"/>
        <path id="Trazado_1226292" data-name="Trazado 1226292" d="M23,34h2v2H23Z"/>
        <path id="Trazado_1226293" data-name="Trazado 1226293" d="M19,34h2v2H19Z"/>
      </g>
    </g>
  </g>
</svg>
