<svg xmlns="http://www.w3.org/2000/svg" xmlns:xlink="http://www.w3.org/1999/xlink" width="113" height="113" viewBox="0 0 113 113">
  <defs>
    <filter id="Trazado_982547" x="0" y="0" width="113" height="113" filterUnits="userSpaceOnUse">
      <feOffset dy="3" input="SourceAlpha"/>
      <feGaussianBlur stdDeviation="3" result="blur"/>
      <feFlood flood-opacity="0.161"/>
      <feComposite operator="in" in2="blur"/>
      <feComposite in="SourceGraphic"/>
    </filter>
  </defs>
  <g id="Grupo_1236634" data-name="Grupo 1236634" transform="translate(-7704 -7728.45)">
    <g id="Grupo_1236148" data-name="Grupo 1236148" transform="translate(6907 4935.332)">
      <g id="Grupo_1235105" data-name="Grupo 1235105" transform="translate(3.131 2004.79)">
        <g id="Grupo_1223793" data-name="Grupo 1223793" transform="translate(0.869 -700.672)">
          <g id="Grupo_1208028" data-name="Grupo 1208028" transform="translate(-0.49 -4138.425)">
            <g id="Grupo_1177675" data-name="Grupo 1177675" transform="translate(-4493 3707.152)">
              <g id="Grupo_1176928" data-name="Grupo 1176928" transform="translate(5295.49 1926.273)">
                <g id="Grupo_1172322" data-name="Grupo 1172322" transform="translate(0 0)">
                  <g id="Grupo_1164700" data-name="Grupo 1164700">
                    <g id="Grupo_1160931" data-name="Grupo 1160931">
                      <g id="Grupo_1160749" data-name="Grupo 1160749">
                        <g id="Grupo_1158891" data-name="Grupo 1158891">
                          <g id="Grupo_1157406" data-name="Grupo 1157406">
                            <g id="Grupo_1155793" data-name="Grupo 1155793">
                              <g id="Grupo_1154704" data-name="Grupo 1154704">
                                <g id="Grupo_1150790" data-name="Grupo 1150790">
                                  <g id="Grupo_1154214" data-name="Grupo 1154214">
                                    <g id="Grupo_1152583" data-name="Grupo 1152583">
                                      <g id="Grupo_1146973" data-name="Grupo 1146973">
                                        <g id="Grupo_1146954" data-name="Grupo 1146954">
                                          <g transform="matrix(1, 0, 0, 1, -9, -6)" filter="url(#Trazado_982547)">
                                            <g id="Trazado_982547-2" data-name="Trazado 982547" transform="translate(9 6)" fill="#e1daf7">
                                              <path d="M 47.5000114440918 93.49987030029297 C 41.28938293457031 93.49987030029297 35.26534652709961 92.28384399414062 29.5951976776123 89.88558959960938 C 24.11773109436035 87.56881713867188 19.19814491271973 84.25183868408203 14.97310447692871 80.02680206298828 C 10.74805164337158 75.80176544189453 7.43107795715332 70.88218688964844 5.114304542541504 65.40472412109375 C 2.716038227081299 59.73458862304688 1.500011444091797 53.71054840087891 1.500011444091797 47.49993515014648 C 1.500011444091797 41.28932189941406 2.716038227081299 35.26528167724609 5.114304542541504 29.59514808654785 C 7.43107795715332 24.1176815032959 10.74805164337158 19.1981086730957 14.97310447692871 14.97306823730469 C 19.19814491271973 10.74802875518799 24.11773109436035 7.431055068969727 29.5951976776123 5.11428165435791 C 35.26534652709961 2.716028451919556 41.28938293457031 1.500001788139343 47.5000114440918 1.500001788139343 C 53.71063995361328 1.500001788139343 59.73467636108398 2.716028451919556 65.40482330322266 5.11428165435791 C 70.88229370117188 7.431055068969727 75.8018798828125 10.74802875518799 80.02691650390625 14.97306823730469 C 84.25196838378906 19.1981086730957 87.56894683837891 24.1176815032959 89.88571929931641 29.59514808654785 C 92.28398132324219 35.26528167724609 93.50001525878906 41.28932189941406 93.50001525878906 47.49993515014648 C 93.50001525878906 53.71054840087891 92.28398132324219 59.73458862304688 89.88571929931641 65.40472412109375 C 87.56894683837891 70.88218688964844 84.25196838378906 75.80176544189453 80.02691650390625 80.02680206298828 C 75.8018798828125 84.25183868408203 70.88229370117188 87.56881713867188 65.40482330322266 89.88558959960938 C 59.73467636108398 92.28384399414062 53.71063995361328 93.49987030029297 47.5000114440918 93.49987030029297 Z" stroke="none"/>
                                              <path d="M 47.5000114440918 3 C 41.49122619628906 3 35.66378021240234 4.1761474609375 30.17951965332031 6.495796203613281 C 24.880859375 8.7369384765625 20.12153625488281 11.94596862792969 16.03376770019531 16.03373718261719 C 11.94598388671875 20.12149047851562 8.736968994140625 24.88081359863281 6.495811462402344 30.17947387695312 C 4.176162719726562 35.66371917724609 3.000007629394531 41.49116516113281 3.000007629394531 47.49993515014648 C 3.000007629394531 53.50870513916016 4.176162719726562 59.33615112304688 6.495811462402344 64.82039642333984 C 8.736968994140625 70.11905670166016 11.94598388671875 74.87837982177734 16.03376770019531 78.96613311767578 C 20.12153625488281 83.05390167236328 24.880859375 86.26293182373047 30.17951965332031 88.50407409667969 C 35.66378021240234 90.82372283935547 41.49122619628906 91.99987030029297 47.5000114440918 91.99987030029297 C 53.50879669189453 91.99987030029297 59.33624267578125 90.82372283935547 64.82050323486328 88.50407409667969 C 70.11916351318359 86.26293182373047 74.87848663330078 83.05390167236328 78.96625518798828 78.96613311767578 C 83.05403900146484 74.87837982177734 86.2630615234375 70.11905670166016 88.50421142578125 64.82039642333984 C 90.82386016845703 59.33615112304688 92.00001525878906 53.50870513916016 92.00001525878906 47.49993515014648 C 92.00001525878906 41.49116516113281 90.82386016845703 35.66371917724609 88.50421142578125 30.17947387695312 C 86.2630615234375 24.88081359863281 83.05403900146484 20.12149047851562 78.96625518798828 16.03373718261719 C 74.87848663330078 11.94596862792969 70.11916351318359 8.7369384765625 64.82050323486328 6.495796203613281 C 59.33624267578125 4.1761474609375 53.50879669189453 3 47.5000114440918 3 M 47.5000114440918 0 C 73.73353576660156 0 95.00001525878906 21.26644134521484 95.00001525878906 47.49993515014648 C 95.00001525878906 73.73342895507812 73.73353576660156 94.99987030029297 47.5000114440918 94.99987030029297 C 21.26648712158203 94.99987030029297 7.62939453125e-06 73.73342895507812 7.62939453125e-06 47.49993515014648 C 7.62939453125e-06 21.26644134521484 21.26648712158203 0 47.5000114440918 0 Z" stroke="none" fill="#6c4dd8"/>
                                            </g>
                                          </g>
                                        </g>
                                      </g>
                                    </g>
                                  </g>
                                </g>
                              </g>
                            </g>
                          </g>
                        </g>
                      </g>
                    </g>
                  </g>
                </g>
              </g>
            </g>
          </g>
        </g>
      </g>
    </g>
    <g id="FILLED_OUTLINE" transform="translate(7715.737 7737.186)">
      <path id="Trazado_1226316" data-name="Trazado 1226316" d="M116.105,24V71.94l-7.67,7.67H72V24Z" transform="translate(-49.29 -7.041)" fill="#ccdcc2"/>
      <ellipse id="Elipse_12827" data-name="Elipse 12827" cx="9" cy="9.5" rx="9" ry="9.5" transform="translate(33.828 46.83)" fill="#008cb7"/>
      <path id="Trazado_1226317" data-name="Trazado 1226317" d="M383.67,424,376,431.67V424Z" transform="translate(-316.855 -359.101)" fill="#9cbd8a"/>
      <path id="Trazado_1226318" data-name="Trazado 1226318" d="M35.1,159.244,38,162.407l.794-4.214-11.031-38.73a1.918,1.918,0,0,0-3.689,1.051Z" transform="translate(-7.042 -89.838)" fill="#f9b89b"/>
      <path id="Trazado_1226319" data-name="Trazado 1226319" d="M200,56h13.423v1.918H200Z" transform="translate(-161.949 -35.206)" fill="#abc79b"/>
      <g id="Grupo_1236633" data-name="Grupo 1236633" transform="translate(28.463 24.629)">
        <path id="Trazado_1226320" data-name="Trazado 1226320" d="M120,224h32.6v1.918H120Z" transform="translate(-120 -207.7)" fill="#8bb276"/>
        <path id="Trazado_1226321" data-name="Trazado 1226321" d="M144,147.506V136h3.835v11.506" transform="translate(-141.124 -130.247)" fill="#8bb276"/>
        <path id="Trazado_1226322" data-name="Trazado 1226322" d="M208,133.423V120h3.835v13.423" transform="translate(-197.453 -116.165)" fill="#8bb276"/>
        <path id="Trazado_1226323" data-name="Trazado 1226323" d="M272,119.341V104h3.835v15.341" transform="translate(-253.783 -102.082)" fill="#8bb276"/>
        <path id="Trazado_1226324" data-name="Trazado 1226324" d="M336,88h3.835v17.259H336Z" transform="translate(-310.112 -88)" fill="#8bb276"/>
      </g>
      <path id="Trazado_1226325" data-name="Trazado 1226325" d="M359.341,207.341h-5.753l-4.794,4.794v-4.794h-2.876A1.918,1.918,0,0,1,344,205.423V193.918A1.918,1.918,0,0,1,345.918,192h13.423a1.918,1.918,0,0,1,1.918,1.918v11.506A1.918,1.918,0,0,1,359.341,207.341Z" transform="translate(-288.691 -154.906)" fill="#008cb7"/>
      <path id="Trazado_1226326" data-name="Trazado 1226326" d="M0,0H11.181V1.918H0Z" transform="matrix(0.515, -0.857, 0.857, 0.515, 60.247, 49.1)" fill="#62b8d3"/>
      <path id="Trazado_1226327" data-name="Trazado 1226327" d="M392,216h1.918v1.918H392Z" transform="translate(-330.938 -176.03)" fill="#62b8d3"/>
      <path id="Trazado_1226328" data-name="Trazado 1226328" d="M424,280h1.918v1.918H424Z" transform="translate(-359.102 -232.359)" fill="#62b8d3"/>
      <path id="Trazado_1226329" data-name="Trazado 1226329" d="M240,352h13.423v.329a13.094,13.094,0,0,1-3.835,9.259Z" transform="translate(-197.155 -295.73)" fill="#00779c"/>
      <path id="Trazado_1226330" data-name="Trazado 1226330" d="M27.762,119.463a1.918,1.918,0,0,0-3.689,1.051l.788,2.766,3.689-1.051Z" transform="translate(-7.043 -89.837)" fill="#e88977"/>
      <path id="Trazado_1226331" data-name="Trazado 1226331" d="M181.689,278.526a9.568,9.568,0,0,0-1.675.933l4.281,7.706-6.234,6.234a9.647,9.647,0,0,0,1.356,1.356l6.745-6.745a.959.959,0,0,0,.16-1.144Z" transform="translate(-142.64 -231.062)" fill="#00779c"/>
      <path id="Trazado_1226332" data-name="Trazado 1226332" d="M200,56h13.423v1.918H200Z" transform="translate(-161.949 -35.206)"/>
      <path id="Trazado_1226333" data-name="Trazado 1226333" d="M143.97,111.341h-.959V96.959a.959.959,0,0,0-.959-.959h-3.835a.959.959,0,0,0-.959.959v14.382h-1.918V98.876a.959.959,0,0,0-.959-.959h-3.835a.959.959,0,0,0-.959.959v12.464H127.67V100.794a.959.959,0,0,0-.959-.959h-3.835a.959.959,0,0,0-.959.959v10.547H120v1.918h23.97Zm-18.217,0h-1.918v-9.588h1.918Zm7.67,0h-1.918V99.835h1.918Zm7.67,0h-1.918V97.918h1.918Z" transform="translate(-91.537 -70.412)"/>
      <path id="Trazado_1226334" data-name="Trazado 1226334" d="M329.918,81.918h1.918v8.629h1.918V80.959a.959.959,0,0,0-.959-.959h-3.835a.959.959,0,0,0-.959.959v9.588h1.918Z" transform="translate(-274.608 -56.33)"/>
      <path id="Trazado_1226335" data-name="Trazado 1226335" d="M70.65,36.135H67.774V16.959A.959.959,0,0,0,66.815,16H22.71a.959.959,0,0,0-.959.959V29.748l-.11-.385a2.876,2.876,0,1,0-5.533,1.576l5.642,19.81V72.57a.959.959,0,0,0,.959.959H59.145a.959.959,0,0,0,.678-.281l7.67-7.67a.959.959,0,0,0,.281-.678V53.393H70.65a2.88,2.88,0,0,0,2.876-2.876V39.011a2.88,2.88,0,0,0-2.876-2.876Zm-52.7-5.721a.959.959,0,1,1,1.844-.525l.525,1.844-1.844.525Zm5.716,41.2V57.483L27.14,69.669a.959.959,0,0,0,.215.385l1.425,1.557Zm6.7-1.1-1.447-1.582L19,34.1l1.844-.525L30.766,68.4ZM60.1,70.255v-4.4h4.4Zm5.753-6.314H59.145a.959.959,0,0,0-.959.959v6.712H32.113l.58-3.078a.958.958,0,0,0-.02-.44l-9-31.612V17.918H65.856V36.135H57.227a2.88,2.88,0,0,0-2.876,2.876V50.517a2.88,2.88,0,0,0,2.876,2.876h1.918v3.835a.959.959,0,0,0,1.637.678l4.513-4.513h.562Zm5.753-13.423a.96.96,0,0,1-.959.959H64.9a.959.959,0,0,0-.678.281l-3.157,3.157V52.435a.959.959,0,0,0-.959-.959H57.227a.96.96,0,0,1-.959-.959V39.011a.96.96,0,0,1,.959-.959H70.65a.96.96,0,0,1,.959.959Z" transform="translate(0 0)"/>
      <path id="Trazado_1226336" data-name="Trazado 1226336" d="M0,0H11.181V1.918H0Z" transform="matrix(0.515, -0.857, 0.857, 0.515, 60.247, 49.1)"/>
      <path id="Trazado_1226337" data-name="Trazado 1226337" d="M392,216h1.918v1.918H392Z" transform="translate(-330.938 -176.03)"/>
      <path id="Trazado_1226338" data-name="Trazado 1226338" d="M424,280h1.918v1.918H424Z" transform="translate(-359.102 -232.359)"/>
      <path id="Trazado_1226339" data-name="Trazado 1226339" d="M176.009,273.628h-2.92a10.544,10.544,0,1,0-3.753,9.065l2.16,2.16a.959.959,0,0,0,1.356,0,13.961,13.961,0,0,0,4.116-9.937v-.329a.959.959,0,0,0-.959-.959Zm-13.423-7.67a8.641,8.641,0,0,1,8.575,7.67H163.15l-3.89-7A8.581,8.581,0,0,1,162.585,265.958Zm-8.629,8.629a8.622,8.622,0,0,1,3.629-7.026l3.811,6.86-5.549,5.549A8.586,8.586,0,0,1,153.956,274.587Zm8.629,8.629a8.585,8.585,0,0,1-5.382-1.891l5.382-5.382,5.385,5.385A8.553,8.553,0,0,1,162.585,283.216Zm9.562-.423-7.247-7.247h10.134A12.031,12.031,0,0,1,172.147,282.793Z" transform="translate(-119.741 -218.317)"/>
    </g>
  </g>
</svg>
