<svg xmlns="http://www.w3.org/2000/svg" xmlns:xlink="http://www.w3.org/1999/xlink" width="108" height="108" viewBox="0 0 108 108">
  <defs>
    <filter id="Trazado_904820" x="0" y="0" width="108" height="108" filterUnits="userSpaceOnUse">
      <feOffset dy="3" input="SourceAlpha"/>
      <feGaussianBlur stdDeviation="3" result="blur"/>
      <feFlood flood-opacity="0.161"/>
      <feComposite operator="in" in2="blur"/>
      <feComposite in="SourceGraphic"/>
    </filter>
  </defs>
  <g id="Grupo_1236524" data-name="Grupo 1236524" transform="translate(-196 -762)">
    <g id="Grupo_1226543" data-name="Grupo 1226543" transform="translate(0 258)">
      <g id="Grupo_1211686" data-name="Grupo 1211686" transform="translate(205 510)">
        <g id="Grupo_1173585" data-name="Grupo 1173585" transform="translate(0 0)">
          <g id="Grupo_1173428" data-name="Grupo 1173428">
            <g id="Grupo_1171958" data-name="Grupo 1171958">
              <g id="Grupo_1167341" data-name="Grupo 1167341">
                <g id="Grupo_1166792" data-name="Grupo 1166792">
                  <g transform="matrix(1, 0, 0, 1, -9, -6)" filter="url(#Trazado_904820)">
                    <g id="Trazado_904820-2" data-name="Trazado 904820" transform="translate(9 6)" fill="#fdf6e4">
                      <path d="M 44.99999618530273 88.50003814697266 C 39.12687301635742 88.50003814697266 33.43022155761719 87.35011291503906 28.06829643249512 85.08219909667969 C 22.88852119445801 82.89134979248047 18.23629570007324 79.75462341308594 14.24084663391113 75.75917053222656 C 10.24540901184082 71.76372528076172 7.108683586120605 67.11149597167969 4.917821407318115 61.93172454833984 C 2.649921178817749 56.56979751586914 1.499996185302734 50.87314605712891 1.499996185302734 45.00002288818359 C 1.499996185302734 39.12689971923828 2.649921178817749 33.43024826049805 4.917821407318115 28.06832313537598 C 7.108683586120605 22.88854789733887 10.24540901184082 18.2363224029541 14.24084663391113 14.24087333679199 C 18.23629570007324 10.24543571472168 22.88852119445801 7.108710289001465 28.06829643249512 4.917848110198975 C 33.43022155761719 2.649947881698608 39.12687301635742 1.500022888183594 44.99999618530273 1.500022888183594 C 50.87311935424805 1.500022888183594 56.56977081298828 2.649947881698608 61.93169784545898 4.917848110198975 C 67.11147308349609 7.108710289001465 71.76369476318359 10.24543571472168 75.75914764404297 14.24087333679199 C 79.75458526611328 18.2363224029541 82.89131164550781 22.88854789733887 85.08216857910156 28.06832313537598 C 87.35007476806641 33.43024826049805 88.5 39.12689971923828 88.5 45.00002288818359 C 88.5 50.87314605712891 87.35007476806641 56.56979751586914 85.08216857910156 61.93172454833984 C 82.89131164550781 67.11149597167969 79.75458526611328 71.76372528076172 75.75914764404297 75.75917053222656 C 71.76369476318359 79.75462341308594 67.11147308349609 82.89134979248047 61.93169784545898 85.08219909667969 C 56.56977081298828 87.35011291503906 50.87311935424805 88.50003814697266 44.99999618530273 88.50003814697266 Z" stroke="none"/>
                      <path d="M 44.99999618530273 3.000007629394531 C 39.32870864868164 3.000007629394531 33.82865142822266 4.110069274902344 28.65262603759766 6.299354553222656 C 23.65165710449219 8.414581298828125 19.15968322753906 11.44335174560547 15.301513671875 15.30153656005859 C 11.44333648681641 19.15970611572266 8.414566040039062 23.65166473388672 6.299339294433594 28.65265274047852 C 4.110054016113281 33.82867813110352 2.999992370605469 39.3287353515625 2.999992370605469 45.00002288818359 C 2.999992370605469 50.67131042480469 4.110054016113281 56.17135238647461 6.299339294433594 61.34739685058594 C 8.414566040039062 66.34836578369141 11.44333648681641 70.84032440185547 15.301513671875 74.69850921630859 C 19.15968322753906 78.55667877197266 23.65165710449219 81.58544921875 28.65262603759766 83.70068359375 C 33.82865142822266 85.88996887207031 39.32870864868164 87.00002288818359 44.99999618530273 87.00002288818359 C 50.67128372192383 87.00002288818359 56.17134094238281 85.88996887207031 61.34736633300781 83.70068359375 C 66.34834289550781 81.58544921875 70.84030914306641 78.55667877197266 74.69847869873047 74.69850921630859 C 78.55665588378906 70.84032440185547 81.58542633056641 66.34836578369141 83.70065307617188 61.34739685058594 C 85.88993835449219 56.17135238647461 87 50.67131042480469 87 45.00002288818359 C 87 39.3287353515625 85.88993835449219 33.82867813110352 83.70065307617188 28.65265274047852 C 81.58542633056641 23.65166473388672 78.55665588378906 19.15970611572266 74.69847869873047 15.30153656005859 C 70.84030914306641 11.44335174560547 66.34834289550781 8.414581298828125 61.34736633300781 6.299354553222656 C 56.17134094238281 4.110069274902344 50.67128372192383 3.000007629394531 44.99999618530273 3.000007629394531 M 44.99999618530273 7.62939453125e-06 C 69.85281372070312 7.62939453125e-06 90 20.14720916748047 90 45.00002288818359 C 90 69.85282135009766 69.85281372070312 90.00002288818359 44.99999618530273 90.00002288818359 C 20.14717864990234 90.00002288818359 -7.62939453125e-06 69.85282135009766 -7.62939453125e-06 45.00002288818359 C -7.62939453125e-06 20.14720916748047 20.14717864990234 7.62939453125e-06 44.99999618530273 7.62939453125e-06 Z" stroke="none" fill="#f5b104"/>
                    </g>
                  </g>
                </g>
              </g>
            </g>
          </g>
        </g>
      </g>
    </g>
    <g id="Page-1" transform="translate(222.863 785.905)">
      <g id="_085---Design-Software" data-name="085---Design-Software">
        <g id="Icons_copy" transform="translate(0.905 0.905)">
          <path id="Shape" d="M40.328,55.809a1.815,1.815,0,0,1-1.809,1.809H16.809a1.809,1.809,0,1,1,0-3.618h21.71A1.823,1.823,0,0,1,40.328,55.809Z" transform="translate(-1.431 -5.153)" fill="#9e9e9e"/>
          <path id="Shape-2" data-name="Shape" d="M41.989,54.534A1.768,1.768,0,0,0,40.714,54H38a1.809,1.809,0,0,1,0,3.618h2.714a1.815,1.815,0,0,0,1.809-1.809,1.768,1.768,0,0,0-.534-1.275Z" transform="translate(-3.626 -5.153)" fill="#707070"/>
          <path id="Shape-3" data-name="Shape" d="M52.465,8.809V39.565H0V8.809A1.815,1.815,0,0,1,1.809,7H50.656A1.815,1.815,0,0,1,52.465,8.809Z" transform="translate(0 -0.668)" fill="#00bcd4"/>
          <path id="Shape-4" data-name="Shape" d="M55.714,7H53a1.815,1.815,0,0,1,1.809,1.809V39.565h2.714V8.809A1.815,1.815,0,0,0,55.714,7Z" transform="translate(-5.058 -0.668)" fill="#00838f"/>
          <path id="Shape-5" data-name="Shape" d="M52.465,43v2.714a1.815,1.815,0,0,1-1.809,1.809H1.809A1.815,1.815,0,0,1,0,45.714V43Z" transform="translate(0 -4.103)" fill="#9e9e9e"/>
          <path id="Shape-6" data-name="Shape" d="M54.809,43v2.714A1.815,1.815,0,0,1,53,47.523h2.714a1.815,1.815,0,0,0,1.809-1.809V43Z" transform="translate(-5.058 -4.103)" fill="#707070"/>
          <path id="Shape-7" data-name="Shape" d="M37.9,53.427H18C20.714,51.618,20.714,48,20.714,48H35.187S35.187,51.618,37.9,53.427Z" transform="translate(-1.718 -4.58)" fill="#707070"/>
          <path id="Shape-8" data-name="Shape" d="M49.229,8V34.233a1.815,1.815,0,0,1-1.809,1.809H5.809A1.815,1.815,0,0,1,4,34.233V8Z" transform="translate(-0.382 -0.763)" fill="#f5f5f5"/>
          <path id="Shape-9" data-name="Shape" d="M50.809,8V34.233A1.815,1.815,0,0,1,49,36.042h2.714a1.815,1.815,0,0,0,1.809-1.809V8Z" transform="translate(-4.676 -0.763)" fill="#cfd8dc"/>
          <path id="Shape-10" data-name="Shape" d="M49.229,1.809V7.237H4V1.809A1.815,1.815,0,0,1,5.809,0H47.42A1.815,1.815,0,0,1,49.229,1.809Z" transform="translate(-0.382)" fill="#9e9e9e"/>
          <path id="Shape-11" data-name="Shape" d="M51.714,0H49a1.815,1.815,0,0,1,1.809,1.809V7.237h2.714V1.809A1.815,1.815,0,0,0,51.714,0Z" transform="translate(-4.676)" fill="#707070"/>
          <path id="Shape-12" data-name="Shape" d="M32.935,33.171H12.745a.9.9,0,0,1-.76-1.393l10.1-15.532a.9.9,0,0,1,1.52,0l2.144,3.3,6.965,10.71.986,1.52a.9.9,0,0,1-.76,1.393Z" transform="translate(-1.13 -1.511)" fill="#60a917"/>
          <path id="Shape-13" data-name="Shape" d="M34.712,31.778l-.986-1.52-6.965-10.71-2.144-3.3a.9.9,0,0,0-1.52,0l-.6.919,1.547,2.383,6.965,10.71L32,31.778a.9.9,0,0,1-.76,1.393h2.714a.9.9,0,0,0,.76-1.393Z" transform="translate(-2.147 -1.511)" fill="#549414"/>
          <path id="Shape-14" data-name="Shape" d="M45.112,21.044a9.046,9.046,0,0,1-9.046,9.046,9.241,9.241,0,0,1-1.891-.2L27.21,19.18a9.046,9.046,0,0,1,17.9,1.863Z" transform="translate(-2.597 -1.143)" fill="#ffdc00"/>
          <path id="Shape-15" data-name="Shape" d="M36.855,12a9.124,9.124,0,0,0-1.37.11A9.034,9.034,0,0,1,35.5,29.978,9.04,9.04,0,1,0,36.855,12Z" transform="translate(-3.386 -1.145)" fill="#fec108"/>
        </g>
        <g id="Icons">
          <path id="Shape-16" data-name="Shape" d="M51.561,6.332h-.9V2.714A2.714,2.714,0,0,0,47.942,0H6.332A2.714,2.714,0,0,0,3.618,2.714V6.332h-.9A2.714,2.714,0,0,0,0,9.046V42.515a2.714,2.714,0,0,0,2.714,2.714h16.27a5.83,5.83,0,0,1-2.068,3.7h-.633a2.63,2.63,0,0,0,0,5.259h21.71a2.63,2.63,0,0,0,0-5.259h-.633a5.83,5.83,0,0,1-2.068-3.7h16.27a2.714,2.714,0,0,0,2.714-2.714V9.046A2.714,2.714,0,0,0,51.561,6.332ZM5.427,9.046h43.42V34.374a.9.9,0,0,1-.9.9H6.332a.9.9,0,0,1-.9-.9Zm0-6.332a.9.9,0,0,1,.9-.9h41.61a.9.9,0,0,1,.9.9V7.237H5.427ZM38.98,51.561a.989.989,0,0,1-.988.989H16.282a.989.989,0,1,1,0-1.977h21.71A.989.989,0,0,1,38.98,51.561Zm-3.9-2.63H19.2a8.263,8.263,0,0,0,1.444-3.7h12.99A8.263,8.263,0,0,0,35.076,48.931ZM51.561,43.42H2.714a.9.9,0,0,1-.9-.9V40.706H5.427a.9.9,0,1,0,0-1.809H1.809V9.046a.9.9,0,0,1,.9-.9h.9V34.374a2.714,2.714,0,0,0,2.714,2.714h41.61a2.714,2.714,0,0,0,2.714-2.714V8.141h.9a.9.9,0,0,1,.9.9V38.9H9.046a.9.9,0,1,0,0,1.809h43.42v1.809A.9.9,0,0,1,51.561,43.42Z"/>
          <circle id="Oval" cx="0.905" cy="0.905" r="0.905" transform="translate(45.229 3.618)"/>
          <circle id="Oval-2" data-name="Oval" cx="0.905" cy="0.905" r="0.905" transform="translate(41.61 3.618)"/>
          <circle id="Oval-3" data-name="Oval" cx="0.905" cy="0.905" r="0.905" transform="translate(37.992 3.618)"/>
          <path id="Shape-17" data-name="Shape" d="M10.714,4H8.9a.9.9,0,1,0,0,1.809h1.809a.9.9,0,1,0,0-1.809Z" transform="translate(-0.763 -0.382)"/>
          <path id="Shape-18" data-name="Shape" d="M13.652,34.614H33.837a1.8,1.8,0,0,0,1.552-2.72c.038,0,.077.006.115.006a9.95,9.95,0,1,0-9.127-13.892l-1.115-1.719a1.809,1.809,0,0,0-3.034,0L12.135,31.819a1.809,1.809,0,0,0,1.517,2.8ZM35.5,13.809a8.141,8.141,0,1,1,0,16.282,8.358,8.358,0,0,1-1.357-.124L27.621,19.927A8.186,8.186,0,0,1,35.5,13.809ZM23.744,17.278l2.143,3.3.006.009,7.943,12.221H13.652Z" transform="translate(-1.13 -1.145)"/>
        </g>
      </g>
    </g>
  </g>
</svg>
