<svg xmlns="http://www.w3.org/2000/svg" width="74" height="94" viewBox="0 0 74 94">
  <g id="Grupo_1236526" data-name="Grupo 1236526" transform="translate(-1322 -4228)">
    <rect id="Rectángulo_423953" data-name="Rectángulo 423953" width="51" height="94" transform="translate(1345 4228)" fill="#efecfa"/>
    <g id="experiencia-del-usuario_1_" data-name="experiencia-del-usuario (1)" transform="translate(1308.001 4235)">
      <g id="Grupo_1236525" data-name="Grupo 1236525" transform="translate(15.456 1.489)">
        <path id="Trazado_1226048" data-name="Trazado 1226048" d="M252.8,10.3a10.092,10.092,0,1,0,1.638,0H252.8Z" transform="translate(-211.795 -10.3)" fill="#ffee80" fill-rule="evenodd"/>
        <path id="Trazado_1226049" data-name="Trazado 1226049" d="M30.345,10.3a6.29,6.29,0,0,0-6.272,6.276V68.105H51.741c-.9-2.327.213-5.2,3.464-5.084l5.171.184c4.172.147,2.481-.795-.573-3.851L44.977,44.522a3.231,3.231,0,1,1,4.561-4.563l8.978,8.979a3.231,3.231,0,1,1,4.561-4.563l1.928,1.934a3.222,3.222,0,0,1,3.7-5.227V29.951a10.244,10.244,0,0,1-2.809.393A10.037,10.037,0,0,1,65.075,10.3H30.345Z" transform="translate(-24.073 -10.3)" fill="#e5fafe" fill-rule="evenodd"/>
        <path id="Trazado_1226050" data-name="Trazado 1226050" d="M24.073,410.105v7.021a6.293,6.293,0,0,0,6.272,6.276H62.43a6.3,6.3,0,0,0,6.272-6.276V414.6l-13.216-1.655a4.472,4.472,0,0,1-3.746-2.843H24.073Z" transform="translate(-24.073 -352.3)" fill="#00ccf2" fill-rule="evenodd"/>
        <path id="Trazado_1226051" data-name="Trazado 1226051" d="M180.254,208.468a3.231,3.231,0,1,0-4.561,4.563l-8.978-8.979a3.231,3.231,0,1,0-4.561,4.563l14.825,14.833c3.054,3.056,4.745,4,.573,3.851l-5.171-.184c-3.251-.115-4.36,2.757-3.464,5.084a4.473,4.473,0,0,0,3.746,2.843l13.216,1.655,5.764.721c2.845.36,5.134-.365,6.248-1.479l8.176-8.181c3.218-3.22,3.026-8.685-.651-12.363l-12.159-12.167a3.231,3.231,0,1,0-4.561,4.563l-1.941-1.942a4.034,4.034,0,0,0-.876-.676,3.222,3.222,0,0,0-3.7,5.227Z" transform="translate(-141.25 -174.394)" fill="#ffd0c7" fill-rule="evenodd"/>
      </g>
      <path id="Trazado_1226052" data-name="Trazado 1226052" d="M152.09,448.928a1.457,1.457,0,1,0,0-2.913h-7.2a1.457,1.457,0,0,0,0,2.913Z" transform="translate(-110.719 -381.529)"/>
      <path id="Trazado_1226053" data-name="Trazado 1226053" d="M83.988,48.776a11.131,11.131,0,0,0-3.336-7.314l-.581-.582a1.457,1.457,0,1,0-2.06,2.059l.581.582c3.07,3.072,3.356,7.6.651,10.3l-8.176,8.181c-.751.752-2.6,1.372-5.036,1.063L47.05,60.692a3.02,3.02,0,0,1-2.761-3.2,1.914,1.914,0,0,1,2.246-1.821l5.171.184c1.46.052,3.279.116,3.857-1.252a2.3,2.3,0,0,0-.606-2.351c-.362-.427-.862-.907-1.494-1.515-.375-.36-.8-.768-1.248-1.217L37.39,34.682a1.97,1.97,0,0,1-.672-1.451,1.854,1.854,0,0,1,1.725-1.725,1.96,1.96,0,0,1,1.447.672l14.69,14.7a1.457,1.457,0,1,0,2.06-2.059l-5.648-5.651q-.031-.035-.064-.069a1.965,1.965,0,0,1-.671-1.447,1.855,1.855,0,0,1,1.725-1.726,1.961,1.961,0,0,1,1.447.669l1.83,1.833.111.113.054.051,3.716,3.721A1.457,1.457,0,0,0,61.2,40.253L57.351,36.4a1.916,1.916,0,0,1-.593-1.369A1.854,1.854,0,0,1,58.483,33.3a1.679,1.679,0,0,1,.9.246l.007,0a2.7,2.7,0,0,1,.536.423L61.858,35.9l.013.013.006.006L63.7,37.748a1.457,1.457,0,1,0,2.06-2.059L63.924,33.85a1.713,1.713,0,0,1-.119-2.6,1.741,1.741,0,0,1,2.627.1l2.407,2.409A1.457,1.457,0,0,0,70.9,31.7l-2.407-2.409a4.67,4.67,0,0,0-6.747-.1c-.071.071-.138.144-.2.219V22.173A11.485,11.485,0,0,0,57.276,0c-.278,0-.554.013-.827.033H21.728A7.739,7.739,0,0,0,14,7.765V66.316a7.739,7.739,0,0,0,7.729,7.732H27.25a1.456,1.456,0,1,0,0-2.913H21.728a4.823,4.823,0,0,1-4.816-4.819V60.751h25.3a5.9,5.9,0,0,0,4.475,2.832l11.94,1.495v1.239a4.823,4.823,0,0,1-4.815,4.819H40.225a1.457,1.457,0,1,0,0,2.913H53.813a7.739,7.739,0,0,0,7.729-7.732v-.874l4.125.516a12.738,12.738,0,0,0,1.6.1,8.337,8.337,0,0,0,5.86-2L81.3,55.884a9.294,9.294,0,0,0,2.685-7.108ZM65.912,11.493a8.636,8.636,0,1,1-8.635-8.58A8.62,8.62,0,0,1,65.912,11.493Zm-49,46.345V7.765a4.823,4.823,0,0,1,4.816-4.819H49.566a11.478,11.478,0,0,0,7.71,20.044,11.659,11.659,0,0,0,1.352-.081v7.483c-.08,0-.158,0-.233,0a4.664,4.664,0,0,0-3.157,1.389,4.848,4.848,0,0,0-1.118,1.739,4.545,4.545,0,0,0-2.229-.509A4.666,4.666,0,0,0,48.735,34.4a4.806,4.806,0,0,0-1.015,1.486l-5.769-5.772a4.721,4.721,0,0,0-4.622-1.373,4.842,4.842,0,0,0-3.37,3.369,4.725,4.725,0,0,0,1.371,4.627L50.154,51.574c.469.47.906.889,1.29,1.258l.1.1-4.908-.175a4.827,4.827,0,0,0-5.253,4.5,5.635,5.635,0,0,0-.015.584H16.912Z"/>
      <path id="Trazado_1226054" data-name="Trazado 1226054" d="M102.762,151.565a1.456,1.456,0,1,0,2.06-2.059l-3.079-3.081a1.457,1.457,0,1,0-2.06,2.059Z" transform="translate(-72.931 -124.89)"/>
      <path id="Trazado_1226055" data-name="Trazado 1226055" d="M161.964,128.423a1.457,1.457,0,0,0,1.457-1.457v-4.359a1.457,1.457,0,1,0-2.913,0v4.359A1.457,1.457,0,0,0,161.964,128.423Z" transform="translate(-125.325 -103.635)"/>
      <path id="Trazado_1226056" data-name="Trazado 1226056" d="M81.719,208.74a1.457,1.457,0,0,0-1.457-1.457H75.911a1.457,1.457,0,1,0,0,2.913h4.352A1.457,1.457,0,0,0,81.719,208.74Z" transform="translate(-51.714 -177.313)"/>
      <path id="Trazado_1226057" data-name="Trazado 1226057" d="M103.67,246.781l-3.079,3.081a1.456,1.456,0,1,0,2.06,2.059l3.079-3.081a1.456,1.456,0,1,0-2.06-2.059Z" transform="translate(-73.708 -210.735)"/>
      <path id="Trazado_1226058" data-name="Trazado 1226058" d="M201.011,152.9a1.452,1.452,0,0,0,1.03-.426l3.083-3.08a1.457,1.457,0,1,0-2.059-2.061l-3.083,3.081a1.457,1.457,0,0,0,1.03,2.487Z" transform="translate(-158.727 -125.665)"/>
      <path id="Trazado_1226059" data-name="Trazado 1226059" d="M276.9,55.157a1.456,1.456,0,0,0-2.156,1.959l2.669,2.937a1.456,1.456,0,0,0,2.018.133l5.687-4.805a1.457,1.457,0,0,0-1.88-2.225l-4.613,3.9Z" transform="translate(-222.723 -45.176)"/>
      <path id="Trazado_1226060" data-name="Trazado 1226060" d="M422.343,250.384a1.456,1.456,0,1,0,2.275-1.82l-.016-.021a1.456,1.456,0,1,0-2.275,1.82Z" transform="translate(-349.017 -212.14)"/>
      <path id="Trazado_1226061" data-name="Trazado 1226061" d="M141.831,492H141.8a1.457,1.457,0,0,0,0,2.913h.029a1.457,1.457,0,0,0,0-2.913Z" transform="translate(-108.079 -420.865)"/>
    </g>
  </g>
</svg>
