<svg xmlns="http://www.w3.org/2000/svg" xmlns:xlink="http://www.w3.org/1999/xlink" width="108" height="108" viewBox="0 0 108 108">
  <defs>
    <filter id="Trazado_904820" x="0" y="0" width="108" height="108" filterUnits="userSpaceOnUse">
      <feOffset dy="3" input="SourceAlpha"/>
      <feGaussianBlur stdDeviation="3" result="blur"/>
      <feFlood flood-opacity="0.161"/>
      <feComposite operator="in" in2="blur"/>
      <feComposite in="SourceGraphic"/>
    </filter>
  </defs>
  <g id="Grupo_1236589" data-name="Grupo 1236589" transform="translate(-196 -4837)">
    <g id="Grupo_1236237" data-name="Grupo 1236237" transform="translate(205 4843)">
      <g id="Grupo_1211686" data-name="Grupo 1211686" transform="translate(0 0)">
        <g id="Grupo_1173585" data-name="Grupo 1173585" transform="translate(0 0)">
          <g id="Grupo_1173428" data-name="Grupo 1173428">
            <g id="Grupo_1171958" data-name="Grupo 1171958">
              <g id="Grupo_1167341" data-name="Grupo 1167341">
                <g id="Grupo_1166792" data-name="Grupo 1166792">
                  <g transform="matrix(1, 0, 0, 1, -9, -6)" filter="url(#Trazado_904820)">
                    <g id="Trazado_904820-2" data-name="Trazado 904820" transform="translate(9 6)" fill="#fdf6e4">
                      <path d="M 44.99999618530273 88.50000762939453 C 39.12687301635742 88.50000762939453 33.43022155761719 87.35008239746094 28.06829643249512 85.08216857910156 C 22.88852119445801 82.89131927490234 18.23629570007324 79.75459289550781 14.24084663391113 75.75914764404297 C 10.24540901184082 71.76369476318359 7.108683586120605 67.11147308349609 4.917821407318115 61.93170928955078 C 2.649921178817749 56.56977081298828 1.499996185302734 50.87313079833984 1.499996185302734 45.00000762939453 C 1.499996185302734 39.12688446044922 2.649921178817749 33.43024444580078 4.917821407318115 28.06830787658691 C 7.108683586120605 22.88854598999023 10.24540901184082 18.23632049560547 14.24084663391113 14.24087047576904 C 18.23629570007324 10.24542045593262 22.88852119445801 7.108707427978516 28.06829643249512 4.917845249176025 C 33.43022155761719 2.649945020675659 39.12687301635742 1.500020146369934 44.99999618530273 1.500020146369934 C 50.87311935424805 1.500020146369934 56.56977081298828 2.649945020675659 61.93169784545898 4.917845249176025 C 67.11147308349609 7.108707427978516 71.76369476318359 10.24542045593262 75.75914764404297 14.24087047576904 C 79.75458526611328 18.23632049560547 82.89131164550781 22.88854598999023 85.08216857910156 28.06830787658691 C 87.35007476806641 33.43024444580078 88.5 39.12688446044922 88.5 45.00000762939453 C 88.5 50.87313079833984 87.35007476806641 56.56977081298828 85.08216857910156 61.93170928955078 C 82.89131164550781 67.11147308349609 79.75458526611328 71.76369476318359 75.75914764404297 75.75914764404297 C 71.76369476318359 79.75459289550781 67.11147308349609 82.89131927490234 61.93169784545898 85.08216857910156 C 56.56977081298828 87.35008239746094 50.87311935424805 88.50000762939453 44.99999618530273 88.50000762939453 Z" stroke="none"/>
                      <path d="M 44.99999618530273 3.000007629394531 C 39.32870864868164 3.000007629394531 33.82865142822266 4.110061645507812 28.65262603759766 6.299346923828125 C 23.65165710449219 8.414581298828125 19.15968322753906 11.44335174560547 15.301513671875 15.30152130126953 C 11.44333648681641 19.15970611572266 8.414566040039062 23.65166473388672 6.299339294433594 28.65263748168945 C 4.110054016113281 33.82867813110352 2.999992370605469 39.32872009277344 2.999992370605469 45.00000762939453 C 2.999992370605469 50.67129516601562 4.110054016113281 56.17133712768555 6.299339294433594 61.34738159179688 C 8.414566040039062 66.34835052490234 11.44333648681641 70.84030914306641 15.301513671875 74.69847869873047 C 19.15968322753906 78.55664825439453 23.65165710449219 81.58541870117188 28.65262603759766 83.70065307617188 C 33.82865142822266 85.88993835449219 39.32870864868164 86.99999237060547 44.99999618530273 86.99999237060547 C 50.67128372192383 86.99999237060547 56.17134094238281 85.88993835449219 61.34736633300781 83.70065307617188 C 66.34834289550781 81.58541870117188 70.84030914306641 78.55664825439453 74.69847869873047 74.69847869873047 C 78.55665588378906 70.84030914306641 81.58542633056641 66.34835052490234 83.70065307617188 61.34738159179688 C 85.88993835449219 56.17133712768555 87 50.67129516601562 87 45.00000762939453 C 87 39.32872009277344 85.88993835449219 33.82867813110352 83.70065307617188 28.65263748168945 C 81.58542633056641 23.65166473388672 78.55665588378906 19.15970611572266 74.69847869873047 15.30152130126953 C 70.84030914306641 11.44335174560547 66.34834289550781 8.414581298828125 61.34736633300781 6.299346923828125 C 56.17134094238281 4.110061645507812 50.67128372192383 3.000007629394531 44.99999618530273 3.000007629394531 M 44.99999618530273 7.62939453125e-06 C 69.85281372070312 7.62939453125e-06 90 20.14720916748047 90 45.00000762939453 C 90 69.85280609130859 69.85281372070312 89.99999237060547 44.99999618530273 89.99999237060547 C 20.14717864990234 89.99999237060547 -7.62939453125e-06 69.85280609130859 -7.62939453125e-06 45.00000762939453 C -7.62939453125e-06 20.14720916748047 20.14717864990234 7.62939453125e-06 44.99999618530273 7.62939453125e-06 Z" stroke="none" fill="#f5b104"/>
                    </g>
                  </g>
                </g>
              </g>
            </g>
          </g>
        </g>
      </g>
    </g>
    <g id="ingeniero-de-datos_1_" data-name="ingeniero-de-datos (1)" transform="translate(223.467 4861.467)">
      <g id="Grupo_1236572" data-name="Grupo 1236572">
        <path id="Trazado_1226149" data-name="Trazado 1226149" d="M26.988,24.564a.268.268,0,0,1,.108-.195,8.29,8.29,0,0,0,1.693-1.69.268.268,0,0,1,.195-.108l2.1-.157a.486.486,0,0,0,.433-.358l.9-3.338a.486.486,0,0,0-.195-.527L30.483,17a.269.269,0,0,1-.114-.191,8.228,8.228,0,0,0-.615-2.311.268.268,0,0,1,0-.223l.915-1.9a.486.486,0,0,0-.094-.554L28.137,9.372a.486.486,0,0,0-.554-.1l-1.9.911a.268.268,0,0,1-.223,0,8.229,8.229,0,0,0-2.31-.62.268.268,0,0,1-.191-.115L21.769,7.712a.486.486,0,0,0-.527-.2l-3.34.891a.486.486,0,0,0-.359.432l-.162,2.1a.269.269,0,0,1-.108.195,8.29,8.29,0,0,0-1.693,1.69.268.268,0,0,1-.195.108l-2.1.157a.486.486,0,0,0-.433.358l-.9,3.338a.486.486,0,0,0,.195.527l1.742,1.192A.269.269,0,0,1,14,18.7a8.228,8.228,0,0,0,.615,2.311.268.268,0,0,1,0,.223l-.915,1.9a.486.486,0,0,0,.094.554l2.442,2.447a.486.486,0,0,0,.554.1l1.9-.911a.268.268,0,0,1,.223,0,8.228,8.228,0,0,0,2.31.62.268.268,0,0,1,.191.115L22.6,27.8a.486.486,0,0,0,.527.2l3.34-.891a.486.486,0,0,0,.359-.432Zm-7.714-3.906a4.112,4.112,0,1,1,5.815.006,4.112,4.112,0,0,1-5.815-.006Z" transform="translate(-10.696 -6.723)" fill="#6fd7a3"/>
        <g id="Grupo_1236557" data-name="Grupo 1236557" transform="translate(9.992 0.777)">
          <path id="Trazado_1226150" data-name="Trazado 1226150" d="M114.2,186.885h24.1a8.1,8.1,0,0,1,8.1,8.1,9.856,9.856,0,0,1-9.856,9.856H115.956a9.856,9.856,0,0,1-9.856-9.856A8.1,8.1,0,0,1,114.2,186.885Z" transform="translate(-105.095 -168.293)" fill="#7a6d79"/>
          <g id="Grupo_1236556" data-name="Grupo 1236556">
            <g id="Grupo_1236555" data-name="Grupo 1236555">
              <g id="Grupo_1236554" data-name="Grupo 1236554">
                <g id="Grupo_1236553" data-name="Grupo 1236553">
                  <g id="Grupo_1236552" data-name="Grupo 1236552">
                    <g id="Grupo_1236551" data-name="Grupo 1236551">
                      <path id="Trazado_1226151" data-name="Trazado 1226151" d="M171.41,288.947a13.485,13.485,0,1,1,26.97.129v.83a1.918,1.918,0,0,1-1.918,1.918H173.328a1.918,1.918,0,0,1-1.918-1.918Z" transform="translate(-163.636 -247.693)" fill="#f9f7f8"/>
                      <ellipse id="Elipse_12816" data-name="Elipse 12816" cx="5.315" cy="4.811" rx="5.315" ry="4.811" transform="translate(15.944 28.977)" fill="#ffdab3"/>
                      <g id="Grupo_1236550" data-name="Grupo 1236550">
                        <g id="Grupo_1236548" data-name="Grupo 1236548" transform="translate(0 16.719)">
                          <ellipse id="Elipse_12817" data-name="Elipse 12817" cx="2.911" cy="2.91" rx="2.911" ry="2.91" fill="#ffdab3"/>
                          <ellipse id="Elipse_12818" data-name="Elipse 12818" cx="2.911" cy="2.91" rx="2.911" ry="2.91" transform="translate(36.476)" fill="#ffdab3"/>
                        </g>
                        <ellipse id="Elipse_12819" data-name="Elipse 12819" cx="17.133" cy="15.507" rx="17.133" ry="15.507" transform="translate(4.016 4.122)" fill="#ffdab3"/>
                        <path id="Trazado_1226152" data-name="Trazado 1226152" d="M284.472,48.237a16.362,16.362,0,0,1,11.039,15.407c0,7.929-6.575,14.467-15.06,15.394a19.092,19.092,0,0,0,2.073.113c9.462,0,17.133-6.943,17.133-15.507C299.657,55.676,293.017,49.113,284.472,48.237Z" transform="translate(-261.375 -44.015)" fill="#ffc998"/>
                        <path id="Trazado_1226153" data-name="Trazado 1226153" d="M266.2,239.817a.957.957,0,0,1,.927,1.207,4.484,4.484,0,0,1-8.634,0,.957.957,0,0,1,.927-1.207Z" transform="translate(-241.664 -215.738)" fill="#f9f7f8"/>
                        <g id="Grupo_1236549" data-name="Grupo 1236549" transform="translate(2.564)">
                          <path id="Trazado_1226154" data-name="Trazado 1226154" d="M479.595,168.1c-.006-.036-.013-.07-.019-.106,0,.035,0,.069,0,.1Z" transform="translate(-442.425 -151.36)" fill="#f9f7f8"/>
                          <path id="Trazado_1226155" data-name="Trazado 1226155" d="M121.139,168.02l.015,0c0-.038,0-.076,0-.113C121.153,167.943,121.145,167.981,121.139,168.02Z" transform="translate(-121.139 -151.28)" fill="#f9f7f8"/>
                          <path id="Trazado_1226156" data-name="Trazado 1226156" d="M158.422,24.135c-.435-9.256-8.58-16.635-18.565-16.635s-18.124,7.374-18.565,16.625c0,.038,0,.076,0,.113l.022,0a2.877,2.877,0,0,1,1.655.315c1.622.646,2.361.008,3.282-1.522a5.251,5.251,0,0,1,4.5-2.538h7.585a10.617,10.617,0,0,0,8.194-3.866,1.439,1.439,0,0,1,2.268.071c1.617,2.221,2.233,8.579,7.956,7.855a7.164,7.164,0,0,1,1.655-.315l.022,0c0-.035,0-.069,0-.1Z" transform="translate(-121.272 -7.5)" fill="#7a6d79"/>
                        </g>
                      </g>
                    </g>
                  </g>
                </g>
              </g>
            </g>
          </g>
        </g>
        <g id="Grupo_1236571" data-name="Grupo 1236571">
          <g id="Grupo_1236558" data-name="Grupo 1236558" transform="translate(0.777 26.591)">
            <path id="Trazado_1226157" data-name="Trazado 1226157" d="M7.5,416.621c0,1.963,4.579,3.554,10.226,3.554s10.226-1.591,10.226-3.554v-6.2H7.5Z" transform="translate(-7.5 -394.477)" fill="#7a6d79"/>
            <path id="Trazado_1226158" data-name="Trazado 1226158" d="M94.32,410.423v6.2c0,1.716-3.5,3.148-8.153,3.481.669.048,1.363.073,2.073.073,5.648,0,10.226-1.591,10.226-3.554v-6.2H94.32Z" transform="translate(-78.014 -394.476)" fill="#685e68"/>
            <path id="Trazado_1226159" data-name="Trazado 1226159" d="M7.5,356.2c0,1.963,4.579,3.554,10.226,3.554s10.226-1.591,10.226-3.554v-6.27H7.5Z" transform="translate(-7.5 -340.249)" fill="#f9f7f8"/>
            <path id="Trazado_1226160" data-name="Trazado 1226160" d="M164.834,349.927v9.128c2.515-.647,4.146-1.686,4.146-2.857v-6.27Z" transform="translate(-148.527 -340.25)" fill="#dedbee"/>
            <path id="Trazado_1226161" data-name="Trazado 1226161" d="M7.5,297.045c0,1.963,4.579,3.554,10.226,3.554s10.226-1.591,10.226-3.554v-6.2H7.5Z" transform="translate(-7.5 -287.294)" fill="#7a6d79"/>
            <path id="Trazado_1226162" data-name="Trazado 1226162" d="M164.834,290.848V299.9c2.515-.647,4.146-1.686,4.146-2.857v-6.2Z" transform="translate(-148.527 -287.294)" fill="#685e68"/>
            <ellipse id="Elipse_12820" data-name="Elipse 12820" cx="10.226" cy="3.554" rx="10.226" ry="3.554" fill="#c8effe"/>
          </g>
          <g id="Grupo_1236562" data-name="Grupo 1236562">
            <g id="Grupo_1236559" data-name="Grupo 1236559">
              <path id="Trazado_1226163" data-name="Trazado 1226163" fill="#fff"/>
            </g>
            <g id="Grupo_1236560" data-name="Grupo 1236560">
              <path id="Trazado_1226164" data-name="Trazado 1226164" fill="#fff"/>
            </g>
            <g id="Grupo_1236561" data-name="Grupo 1236561">
              <path id="Trazado_1226165" data-name="Trazado 1226165" fill="#fff"/>
            </g>
          </g>
          <g id="Grupo_1236566" data-name="Grupo 1236566">
            <g id="Grupo_1236563" data-name="Grupo 1236563">
              <path id="Trazado_1226166" data-name="Trazado 1226166" fill="#fff"/>
            </g>
            <g id="Grupo_1236564" data-name="Grupo 1236564">
              <path id="Trazado_1226167" data-name="Trazado 1226167" fill="#fff"/>
            </g>
            <g id="Grupo_1236565" data-name="Grupo 1236565">
              <path id="Trazado_1226168" data-name="Trazado 1226168" fill="#fff"/>
            </g>
          </g>
          <g id="Grupo_1236570" data-name="Grupo 1236570">
            <g id="Grupo_1236567" data-name="Grupo 1236567">
              <path id="Trazado_1226169" data-name="Trazado 1226169" fill="#fff"/>
            </g>
            <g id="Grupo_1236568" data-name="Grupo 1236568">
              <path id="Trazado_1226170" data-name="Trazado 1226170" fill="#fff"/>
            </g>
            <g id="Grupo_1236569" data-name="Grupo 1236569">
              <path id="Trazado_1226171" data-name="Trazado 1226171" fill="#fff"/>
            </g>
          </g>
        </g>
      </g>
      <g id="Grupo_1236588" data-name="Grupo 1236588">
        <g id="Grupo_1236586" data-name="Grupo 1236586">
          <g id="Grupo_1236585" data-name="Grupo 1236585">
            <g id="Grupo_1236576" data-name="Grupo 1236576">
              <g id="Grupo_1236573" data-name="Grupo 1236573">
                <path id="Trazado_1226172" data-name="Trazado 1226172" fill="#fff"/>
              </g>
              <g id="Grupo_1236574" data-name="Grupo 1236574">
                <path id="Trazado_1226173" data-name="Trazado 1226173" fill="#fff"/>
              </g>
              <g id="Grupo_1236575" data-name="Grupo 1236575">
                <path id="Trazado_1226174" data-name="Trazado 1226174" fill="#fff"/>
              </g>
            </g>
            <g id="Grupo_1236580" data-name="Grupo 1236580">
              <g id="Grupo_1236577" data-name="Grupo 1236577">
                <path id="Trazado_1226175" data-name="Trazado 1226175" fill="#fff"/>
              </g>
              <g id="Grupo_1236578" data-name="Grupo 1236578">
                <path id="Trazado_1226176" data-name="Trazado 1226176" fill="#fff"/>
              </g>
              <g id="Grupo_1236579" data-name="Grupo 1236579">
                <path id="Trazado_1226177" data-name="Trazado 1226177" fill="#fff"/>
              </g>
            </g>
            <g id="Grupo_1236584" data-name="Grupo 1236584">
              <g id="Grupo_1236581" data-name="Grupo 1236581">
                <path id="Trazado_1226178" data-name="Trazado 1226178" fill="#fff"/>
              </g>
              <g id="Grupo_1236582" data-name="Grupo 1236582">
                <path id="Trazado_1226179" data-name="Trazado 1226179" fill="#fff"/>
              </g>
              <g id="Grupo_1236583" data-name="Grupo 1236583">
                <path id="Trazado_1226180" data-name="Trazado 1226180" fill="#fff"/>
              </g>
            </g>
          </g>
        </g>
        <g id="Grupo_1236587" data-name="Grupo 1236587" transform="translate(0 0)">
          <path id="Trazado_1226181" data-name="Trazado 1226181" d="M53.066,20.406a3.694,3.694,0,0,0-2.615-3.528,17.167,17.167,0,0,0-1.919-6.69,18.332,18.332,0,0,0-4.653-5.7.777.777,0,1,0-.987,1.2A16.129,16.129,0,0,1,48.886,16.81q-.472.137-.951.247a4.2,4.2,0,0,1-3.925-1.324,12.948,12.948,0,0,1-2.084-3.763,12.624,12.624,0,0,0-1.222-2.455,2.247,2.247,0,0,0-3.5-.107,9.8,9.8,0,0,1-7.594,3.583H22.029a6.057,6.057,0,0,0-5.166,2.914c-.8,1.329-1.182,1.642-2.276,1.22a3.707,3.707,0,0,0-1.187-.374c.818-8.926,9.067-15.2,17.741-15.2A18.708,18.708,0,0,1,40.444,4a.777.777,0,1,0,.774-1.348,20.408,20.408,0,0,0-21.694.979L17.991,2.1a1.265,1.265,0,0,0-1.44-.247l-1.695.812a9,9,0,0,0-2.081-.559L11.716.552a1.265,1.265,0,0,0-1.37-.509L7.006.934a1.265,1.265,0,0,0-.934,1.124L5.927,3.934A9.056,9.056,0,0,0,4.4,5.455L2.527,5.6A1.265,1.265,0,0,0,1.4,6.527L.5,9.865a1.265,1.265,0,0,0,.506,1.371L2.562,12.3a9,9,0,0,0,.554,2.082L2.3,16.074a1.265,1.265,0,0,0,.244,1.441l2.442,2.447a1.308,1.308,0,0,0,1.44.247l1.7-.812a9.011,9.011,0,0,0,1.149.372A3.742,3.742,0,0,0,11.1,23.619a8.753,8.753,0,0,0-.724,2.2A23.028,23.028,0,0,0,3.517,26.9C.61,27.908,0,29.221,0,30.145v18.59c0,.924.61,2.237,3.517,3.247A23.676,23.676,0,0,0,11,53.066a28.763,28.763,0,0,0,3.621-.223.777.777,0,1,0-.2-1.542,27.184,27.184,0,0,1-3.424.21,22.1,22.1,0,0,1-6.976-1C2.2,49.88,1.555,49.159,1.555,48.735v-3.87a9.076,9.076,0,0,0,1.963.92A23.673,23.673,0,0,0,11,46.87a23.672,23.672,0,0,0,7.486-1.084,9.076,9.076,0,0,0,1.963-.92v3.87c0,.751-1.582,1.542-3.149,1.992a.777.777,0,0,0-.532.962.823.823,0,0,0,.962.532c2.756-.792,4.274-2.031,4.274-3.486V45.686h20.81a2.7,2.7,0,0,0,2.7-2.7,16.3,16.3,0,0,0-.748-5.427,10.7,10.7,0,0,0,4.979-3.471,10.52,10.52,0,0,0,2.317-6.627,8.873,8.873,0,0,0-.877-3.847,3.689,3.689,0,0,0,1.882-3.213Zm-1.555,0a2.168,2.168,0,0,1-2.607,2.08,14.939,14.939,0,0,0,.012-4.072A2.042,2.042,0,0,1,51.512,20.406ZM15.364,18.854c1.335,0,2.2-1.105,2.831-2.146a4.5,4.5,0,0,1,3.834-2.161h7.585A11.355,11.355,0,0,0,38.408,10.4a.661.661,0,0,1,1.04.034,11.768,11.768,0,0,1,1.044,2.139,14.1,14.1,0,0,0,2.374,4.216,5.648,5.648,0,0,0,4.514,1.872,13.464,13.464,0,0,1,.115,1.748c0,8.122-7.337,14.73-16.355,14.73a17.641,17.641,0,0,1-9.133-2.512V30.145c0-.924-.61-2.237-3.517-3.247a17.252,17.252,0,0,0-2.352-.619,13.528,13.528,0,0,1-1.258-7.466,3.055,3.055,0,0,0,.484.04ZM35.387,36.227a4.8,4.8,0,0,1-8.242.058,19.762,19.762,0,0,0,8.242-.058Zm-33.832.042v-3.8a9.076,9.076,0,0,0,1.963.92A23.672,23.672,0,0,0,11,34.476a23.672,23.672,0,0,0,7.486-1.084,9.076,9.076,0,0,0,1.963-.92v3.87c0,.424-.648,1.144-2.473,1.779a22.105,22.105,0,0,1-6.976,1,22.1,22.1,0,0,1-6.976-1c-1.825-.634-2.473-1.355-2.473-1.779ZM12.227,14.281a3.367,3.367,0,0,1-4.073-3.254,3.312,3.312,0,0,1,.979-2.357,3.358,3.358,0,0,1,5.155.553A17.381,17.381,0,0,0,12.227,14.281Zm-3.7,3.6a1.045,1.045,0,0,0-.867.016l-1.715.822L3.79,16.563l.825-1.713a1.045,1.045,0,0,0,.018-.867,7.447,7.447,0,0,1-.557-2.093,1.046,1.046,0,0,0-.448-.744L2.058,10.07l.791-2.94,1.9-.142a1.046,1.046,0,0,0,.759-.418A7.515,7.515,0,0,1,7.041,5.039a1.045,1.045,0,0,0,.419-.759l.146-1.9L10.547,1.6,11.62,3.172a1.045,1.045,0,0,0,.743.449,7.448,7.448,0,0,1,2.092.561,1.046,1.046,0,0,0,.868-.016l1.715-.822,1.245,1.248c-.176.147-.351.3-.522.45A18.69,18.69,0,0,0,15.2,7.855a4.932,4.932,0,0,0-7.169-.284A4.858,4.858,0,0,0,6.6,11.026,4.944,4.944,0,0,0,11.932,15.9q-.065.486-.1.977a3.7,3.7,0,0,0-1.962,1.436,7.459,7.459,0,0,1-1.344-.435Zm4.144.407a2.121,2.121,0,0,1,.708.041,14.993,14.993,0,0,0,0,4.158,2.167,2.167,0,0,1-2.606-2.08,2.135,2.135,0,0,1,1.9-2.119Zm.235,5.806a3.7,3.7,0,0,0,.767-.083A14.959,14.959,0,0,0,14.314,26c-.759-.087-1.548-.145-2.355-.17A7.217,7.217,0,0,1,12.6,24.08C12.7,24.088,12.8,24.093,12.9,24.093ZM4.028,28.366a22.1,22.1,0,0,1,6.976-1,22.106,22.106,0,0,1,6.976,1c1.825.634,2.473,1.355,2.473,1.779s-.648,1.144-2.473,1.779a22.105,22.105,0,0,1-6.976,1,22.1,22.1,0,0,1-6.976-1c-1.825-.634-2.473-1.355-2.473-1.779S2.2,29,4.028,28.366ZM17.98,44.317a22.105,22.105,0,0,1-6.976,1,22.1,22.1,0,0,1-6.976-1c-1.825-.634-2.473-1.355-2.473-1.779v-3.87a9.076,9.076,0,0,0,1.963.92A23.672,23.672,0,0,0,11,40.673a23.672,23.672,0,0,0,7.486-1.084,9.076,9.076,0,0,0,1.963-.92v3.87C20.453,42.963,19.805,43.683,17.98,44.317Zm25.979-1.326a1.142,1.142,0,0,1-1.141,1.14H22.007V34.418a18.64,18.64,0,0,0,3.3,1.392,6.017,6.017,0,0,0,5.94,4.343,5.993,5.993,0,0,0,5.96-4.426,18.615,18.615,0,0,0,3.817-1.75A13.589,13.589,0,0,1,43.959,42.991Zm6.548-15.525a9.046,9.046,0,0,1-6.317,8.65,14.428,14.428,0,0,0-1.861-3,16.2,16.2,0,0,0,6.279-9.1,3.557,3.557,0,0,0,1.07.07,7.314,7.314,0,0,1,.829,3.386Z" transform="translate(0 0)"/>
          <path id="Trazado_1226182" data-name="Trazado 1226182" d="M256.1,238.351a5.275,5.275,0,0,0,5.066-3.841,1.749,1.749,0,0,0-1.676-2.194h-6.78a1.749,1.749,0,0,0-1.676,2.194A5.275,5.275,0,0,0,256.1,238.351Zm-3.539-4.406a.184.184,0,0,1,.149-.074h6.78a.18.18,0,0,1,.178.221,3.706,3.706,0,0,1-7.137,0A.163.163,0,0,1,252.563,233.945Z" transform="translate(-224.961 -208.238)"/>
          <path id="Trazado_1226183" data-name="Trazado 1226183" d="M23.393,337.607a.777.777,0,1,0,.42-1.015A.782.782,0,0,0,23.393,337.607Z" transform="translate(-20.916 -301.654)"/>
          <path id="Trazado_1226184" data-name="Trazado 1226184" d="M48.149,344.707a.777.777,0,1,0,.408-1.009A.782.782,0,0,0,48.149,344.707Z" transform="translate(-43.107 -308.018)"/>
          <path id="Trazado_1226185" data-name="Trazado 1226185" d="M72.913,348.719a.777.777,0,1,0,.421-1.016A.786.786,0,0,0,72.913,348.719Z" transform="translate(-65.307 -311.614)"/>
          <path id="Trazado_1226186" data-name="Trazado 1226186" d="M24.828,395.459a.777.777,0,1,0-.468,1.033A.787.787,0,0,0,24.828,395.459Z" transform="translate(-20.915 -354.044)"/>
          <path id="Trazado_1226187" data-name="Trazado 1226187" d="M49.583,402.551a.777.777,0,1,0-.445,1.024A.785.785,0,0,0,49.583,402.551Z" transform="translate(-43.105 -360.399)"/>
          <path id="Trazado_1226188" data-name="Trazado 1226188" d="M74.336,406.571a.777.777,0,1,0-.421,1.014.785.785,0,0,0,.421-1.014Z" transform="translate(-65.293 -364.003)"/>
          <path id="Trazado_1226189" data-name="Trazado 1226189" d="M24.776,455.628a.777.777,0,1,0-.216,1.078A.786.786,0,0,0,24.776,455.628Z" transform="translate(-20.935 -408.097)"/>
          <path id="Trazado_1226190" data-name="Trazado 1226190" d="M49.521,462.727A.778.778,0,1,0,49.3,463.8.786.786,0,0,0,49.521,462.727Z" transform="translate(-43.114 -414.46)"/>
          <path id="Trazado_1226191" data-name="Trazado 1226191" d="M74.271,466.745a.778.778,0,1,0-.216,1.078A.786.786,0,0,0,74.271,466.745Z" transform="translate(-65.299 -418.062)"/>
        </g>
      </g>
    </g>
  </g>
</svg>
