<svg xmlns="http://www.w3.org/2000/svg" xmlns:xlink="http://www.w3.org/1999/xlink" width="400" height="383" viewBox="0 0 400 383">
  <defs>
    <clipPath id="clip-path">
      <rect id="Rectángulo_423941" data-name="Rectángulo 423941" width="400" height="383" transform="translate(180 4570)" fill="#fff" stroke="#707070" stroke-width="1"/>
    </clipPath>
    <clipPath id="clip-path-2">
      <rect id="Rectángulo_423950" data-name="Rectángulo 423950" width="513" height="513" transform="translate(0 0)" fill="none"/>
    </clipPath>
    <clipPath id="clip-path-3">
      <rect id="Rectángulo_423944" data-name="Rectángulo 423944" width="264.989" height="14.052" fill="none"/>
    </clipPath>
    <clipPath id="clip-path-4">
      <rect id="Rectángulo_423945" data-name="Rectángulo 423945" width="229.274" height="7.215" fill="none"/>
    </clipPath>
  </defs>
  <g id="Enmascarar_grupo_1208502" data-name="Enmascarar grupo 1208502" transform="translate(-180 -4570)" clip-path="url(#clip-path)">
    <g id="Grupo_1236501" data-name="Grupo 1236501" transform="translate(109 4505.039)">
      <g id="Grupo_1236500" data-name="Grupo 1236500" transform="translate(0 -0.039)" clip-path="url(#clip-path-2)">
        <g id="Grupo_1236496" data-name="Grupo 1236496" transform="translate(125.923 398.08)" opacity="0.06">
          <g id="Grupo_1236495" data-name="Grupo 1236495">
            <g id="Grupo_1236494" data-name="Grupo 1236494" clip-path="url(#clip-path-3)">
              <path id="Trazado_1225982" data-name="Trazado 1225982" d="M1113.532,3101c73.175,0,132.494,3.146,132.494,7.026s-59.32,7.026-132.494,7.026-132.494-3.146-132.494-7.026,59.32-7.026,132.494-7.026" transform="translate(-981.038 -3101.005)" fill-rule="evenodd"/>
            </g>
          </g>
        </g>
        <g id="Grupo_1236499" data-name="Grupo 1236499" transform="translate(143.199 342.829)" opacity="0.06">
          <g id="Grupo_1236498" data-name="Grupo 1236498">
            <g id="Grupo_1236497" data-name="Grupo 1236497" clip-path="url(#clip-path-4)">
              <path id="Trazado_1225983" data-name="Trazado 1225983" d="M1230.266,2670.564c63.313,0,114.637,1.615,114.637,3.607s-51.325,3.607-114.637,3.607-114.637-1.615-114.637-3.607,51.325-3.607,114.637-3.607" transform="translate(-1115.629 -2670.563)" fill-rule="evenodd"/>
            </g>
          </g>
        </g>
        <path id="Trazado_1225984" data-name="Trazado 1225984" d="M1309.986,1288.314a18.523,18.523,0,0,0-18.521-18.523H1093.128a18.524,18.524,0,0,0-18.527,18.523v186.658a18.519,18.519,0,0,0,18.527,18.523h198.338a18.517,18.517,0,0,0,18.521-18.523Z" transform="translate(-936.668 -1106.761)" fill="#b4a3f9" fill-rule="evenodd"/>
        <path id="Trazado_1225985" data-name="Trazado 1225985" d="M1339.929,1337.271c0-.661-.893-1.267-1.076-1.819-1.017-3.047-3.692-4.718-5.753-7.369-2.659-3.428-7.287.148-10.914-1.329-1-.4.5-8.006-.78-8.006h-187.22c-4.956,0-2.389,6.584-5.715,9.755-3.455,3.3-12.179,3.684-12.577,8.635-.011.109-.027.241-.027.357,0,.086-.059.148-.059.233,0,.109-.1.218-.1.318,0,40.03-.043,132.083-.043,171.607a18.523,18.523,0,0,0,18.523,18.523h187.22a18.523,18.523,0,0,0,18.523-18.523Z" transform="translate(-972.459 -1149.434)" fill="#f2eaf5" fill-rule="evenodd"/>
        <path id="Trazado_1225986" data-name="Trazado 1225986" d="M1340.206,1338.5a19.9,19.9,0,0,0-19.9-19.9H1135.84a19.9,19.9,0,0,0-19.9,19.9c0,.892,52.39.125,106.706.271,57.718.155,117.561,1.158,117.561-.271" transform="translate(-972.7 -1149.304)" fill="#3d2f74" fill-rule="evenodd"/>
        <path id="Trazado_1225987" data-name="Trazado 1225987" d="M1242.452,1367.168a4.246,4.246,0,1,1-4.246,4.246,4.246,4.246,0,0,1,4.246-4.246" transform="translate(-1079.273 -1191.639)" fill="#f2eaf5" fill-rule="evenodd"/>
        <path id="Trazado_1225988" data-name="Trazado 1225988" d="M1367.929,1367.168a4.246,4.246,0,1,1-4.246,4.246,4.246,4.246,0,0,1,4.246-4.246" transform="translate(-1188.644 -1191.639)" fill="#f2eaf5" fill-rule="evenodd"/>
        <path id="Trazado_1225989" data-name="Trazado 1225989" d="M1489.355,1367.168a4.246,4.246,0,1,1-4.246,4.246,4.246,4.246,0,0,1,4.246-4.246" transform="translate(-1294.485 -1191.639)" fill="#f2eaf5" fill-rule="evenodd"/>
        <path id="Trazado_1225990" data-name="Trazado 1225990" d="M1838.274,2089.581a7.433,7.433,0,1,0-14.867,0v80.462a7.433,7.433,0,0,0,14.867,0Z" transform="translate(-1589.359 -1814.847)" fill="#ffbddf" fill-rule="evenodd"/>
        <path id="Trazado_1225991" data-name="Trazado 1225991" d="M1869.028,2129.453a2.312,2.312,0,0,0-2.31-2.309h0a2.309,2.309,0,0,0-2.308,2.309v78a2.308,2.308,0,0,0,2.308,2.309h0a2.312,2.312,0,0,0,2.31-2.309Z" transform="translate(-1625.098 -1854.067)" fill="#fff" fill-rule="evenodd"/>
        <rect id="Rectángulo_423946" data-name="Rectángulo 423946" width="91.325" height="157.826" transform="translate(262.056 204.505)" fill="#fff"/>
        <rect id="Rectángulo_423947" data-name="Rectángulo 423947" width="91.325" height="11.04" transform="translate(262.056 204.505)" fill="#9181d4"/>
        <path id="Trazado_1225992" data-name="Trazado 1225992" d="M2104.069,1751.161a5.314,5.314,0,1,1-5.315,5.315,5.315,5.315,0,0,1,5.315-5.315" transform="translate(-1829.363 -1526.344)" fill="#fe9f78" fill-rule="evenodd"/>
        <path id="Trazado_1225993" data-name="Trazado 1225993" d="M2104.069,2065.628a5.315,5.315,0,1,1-5.315,5.314,5.315,5.315,0,0,1,5.315-5.314" transform="translate(-1829.363 -1800.447)" fill="#ffd509" fill-rule="evenodd"/>
        <path id="Trazado_1225994" data-name="Trazado 1225994" d="M2104.069,2371.984a5.315,5.315,0,1,1-5.315,5.315,5.315,5.315,0,0,1,5.315-5.315" transform="translate(-1829.363 -2067.479)" fill="#a7d481" fill-rule="evenodd"/>
        <path id="Trazado_1225995" data-name="Trazado 1225995" d="M2104.069,1904.32a5.315,5.315,0,1,1-5.315,5.314,5.315,5.315,0,0,1,5.315-5.314" transform="translate(-1829.363 -1659.844)" fill="#9181d4" fill-rule="evenodd"/>
        <path id="Trazado_1225996" data-name="Trazado 1225996" d="M2104.069,2218.789a5.315,5.315,0,1,1-5.315,5.315,5.315,5.315,0,0,1,5.315-5.315" transform="translate(-1829.363 -1933.948)" fill="#84d9e9" fill-rule="evenodd"/>
        <path id="Trazado_1225997" data-name="Trazado 1225997" d="M2104.069,2525.145a5.315,5.315,0,1,1-5.315,5.315,5.315,5.315,0,0,1,5.315-5.315" transform="translate(-1829.363 -2200.981)" fill="#fe8e78" fill-rule="evenodd"/>
        <path id="Trazado_1225998" data-name="Trazado 1225998" d="M2280.279,1783.1a1.1,1.1,0,0,0-1.107-1.107h-55.914a1.113,1.113,0,0,0-1.107,1.107h0a1.113,1.113,0,0,0,1.107,1.107h55.914a1.1,1.1,0,0,0,1.107-1.107Z" transform="translate(-1936.922 -1553.214)" fill="#ffc145" fill-rule="evenodd"/>
        <path id="Trazado_1225999" data-name="Trazado 1225999" d="M2280.279,1936.5a1.1,1.1,0,0,0-1.107-1.107h-55.914a1.114,1.114,0,0,0-1.107,1.107h0a1.113,1.113,0,0,0,1.107,1.107h55.914a1.1,1.1,0,0,0,1.107-1.107Z" transform="translate(-1936.922 -1686.931)" fill="#ff90c4" fill-rule="evenodd"/>
        <path id="Trazado_1226000" data-name="Trazado 1226000" d="M2236.387,2098.635a1.108,1.108,0,0,0-1.107-1.107h-11.955a1.109,1.109,0,0,0-1.109,1.107h0a1.109,1.109,0,0,0,1.109,1.107h11.955a1.108,1.108,0,0,0,1.107-1.107Z" transform="translate(-1936.978 -1828.252)" fill="#ffd285" fill-rule="evenodd"/>
        <path id="Trazado_1226001" data-name="Trazado 1226001" d="M2361.994,2099.4a1.108,1.108,0,0,0-1.107-1.107h-11.955a1.109,1.109,0,0,0-1.108,1.107h0a1.108,1.108,0,0,0,1.108,1.107h11.955a1.107,1.107,0,0,0,1.107-1.107Z" transform="translate(-2046.463 -1828.918)" fill="#fe9f78" fill-rule="evenodd"/>
        <path id="Trazado_1226002" data-name="Trazado 1226002" d="M2280.279,2252.23a1.1,1.1,0,0,0-1.107-1.107h-55.914a1.113,1.113,0,0,0-1.107,1.107h0a1.113,1.113,0,0,0,1.107,1.107h55.914a1.112,1.112,0,0,0,.785-.324,1.124,1.124,0,0,0,.322-.783Z" transform="translate(-1936.922 -1962.132)" fill="#adcf6a" fill-rule="evenodd"/>
        <path id="Trazado_1226003" data-name="Trazado 1226003" d="M2280.279,2404.165a1.1,1.1,0,0,0-1.107-1.107h-55.914a1.114,1.114,0,0,0-1.107,1.107h0a1.113,1.113,0,0,0,1.107,1.107h55.914a1.1,1.1,0,0,0,1.107-1.107Z" transform="translate(-1936.922 -2094.565)" fill="#fe9f78" fill-rule="evenodd"/>
        <path id="Trazado_1226004" data-name="Trazado 1226004" d="M2252.895,2562.021a1.108,1.108,0,0,0-1.106-1.107h-28.464a1.108,1.108,0,0,0-1.109,1.107h0a1.108,1.108,0,0,0,1.109,1.107h28.464a1.107,1.107,0,0,0,1.106-1.107Z" transform="translate(-1936.978 -2232.159)" fill="#ff90c4" fill-rule="evenodd"/>
        <path id="Trazado_1226005" data-name="Trazado 1226005" d="M2490.229,2561.262a1.107,1.107,0,0,0-1.108-1.107h-14.9a1.11,1.11,0,0,0-1.108,1.107h0a1.11,1.11,0,0,0,1.108,1.107h14.9a1.107,1.107,0,0,0,1.108-1.107Z" transform="translate(-2155.672 -2231.497)" fill="#ffd509" fill-rule="evenodd"/>
        <path id="Trazado_1226006" data-name="Trazado 1226006" d="M1287.107,1607a6.05,6.05,0,0,0-6.049-6.053h-79.112A6.049,6.049,0,0,0,1195.9,1607V1642.1a6.049,6.049,0,0,0,6.049,6.052h79.112a6.049,6.049,0,0,0,6.049-6.052Z" transform="translate(-1042.394 -1395.413)" fill="#fff" fill-rule="evenodd"/>
        <path id="Trazado_1226007" data-name="Trazado 1226007" d="M1335.492,1690.12a1.2,1.2,0,0,0-1.2-1.206H1262.2a1.21,1.21,0,0,0-1.209,1.206h0a1.211,1.211,0,0,0,1.209,1.206h72.085a1.2,1.2,0,0,0,1.2-1.206Z" transform="translate(-1099.137 -1472.087)" fill="#ffc571" fill-rule="evenodd"/>
        <path id="Trazado_1226008" data-name="Trazado 1226008" d="M1335.492,1777.908a1.2,1.2,0,0,0-1.2-1.206H1262.2a1.21,1.21,0,0,0-1.209,1.206h0a1.21,1.21,0,0,0,1.209,1.206h72.085a1.2,1.2,0,0,0,1.2-1.206Z" transform="translate(-1099.137 -1548.606)" fill="#ff90c4" fill-rule="evenodd"/>
        <path id="Trazado_1226009" data-name="Trazado 1226009" d="M1335.492,1863.094a1.2,1.2,0,0,0-1.2-1.206H1262.2a1.21,1.21,0,0,0-1.209,1.206h0a1.211,1.211,0,0,0,1.209,1.206h72.085a1.2,1.2,0,0,0,1.2-1.206Z" transform="translate(-1099.137 -1622.858)" fill="#fe9f78" fill-rule="evenodd"/>
        <rect id="Rectángulo_423948" data-name="Rectángulo 423948" width="132.57" height="98.1" transform="translate(88.014 265.43)" fill="#3d2f74"/>
        <rect id="Rectángulo_423949" data-name="Rectángulo 423949" width="78.019" height="59.954" transform="translate(383.81 212.149)" fill="#00dcfd"/>
        <path id="Trazado_1226010" data-name="Trazado 1226010" d="M796.147,2265.567l18.77-28.532,15.866,25.107a1.439,1.439,0,0,0,2.48-.076l29.434-53.533,18.934,31.114a1.44,1.44,0,0,0,2.5-.06l14.082-25.851a1.441,1.441,0,1,0-2.53-1.38l-12.884,23.652-18.928-31.1a1.443,1.443,0,0,0-2.5.055l-29.456,53.575L816.166,2233.6a1.447,1.447,0,0,0-2.429-.023l-20,30.4a1.443,1.443,0,0,0,2.412,1.586" transform="translate(-691.649 -1921.243)" fill="#fff" fill-rule="evenodd"/>
        <path id="Trazado_1226011" data-name="Trazado 1226011" d="M923.754,2417.458a5.155,5.155,0,1,1-5.155,5.155,5.155,5.155,0,0,1,5.155-5.155" transform="translate(-800.69 -2107.116)" fill="#ffc145" fill-rule="evenodd"/>
        <path id="Trazado_1226012" data-name="Trazado 1226012" d="M1300.668,2189.883a5.155,5.155,0,1,1-5.155,5.155,5.155,5.155,0,0,1,5.155-5.155" transform="translate(-1129.224 -1908.753)" fill="#fe8e78" fill-rule="evenodd"/>
        <path id="Trazado_1226013" data-name="Trazado 1226013" d="M705.239,1724.166a14.632,14.632,0,1,1-14.631,14.633,14.639,14.639,0,0,1,14.631-14.633m0,7.317a7.316,7.316,0,1,1-7.315,7.317,7.316,7.316,0,0,1,7.315-7.317" transform="translate(-601.963 -1502.814)" fill="#fe8e78" fill-rule="evenodd"/>
        <path id="Trazado_1226014" data-name="Trazado 1226014" d="M695.438,1712.929A16.075,16.075,0,1,0,711.513,1729a16.085,16.085,0,0,0-16.075-16.075m0,2.886A13.19,13.19,0,1,1,682.25,1729a13.2,13.2,0,0,1,13.188-13.189m0,4.431A8.758,8.758,0,1,0,704.2,1729a8.763,8.763,0,0,0-8.759-8.759m0,2.885a5.874,5.874,0,1,1-5.872,5.874,5.874,5.874,0,0,1,5.872-5.874" transform="translate(-592.163 -1493.019)" fill="#00dcfd" fill-rule="evenodd"/>
        <path id="Trazado_1226015" data-name="Trazado 1226015" d="M900.747,2270.354c.328,0,.661-.016.988-.038a.481.481,0,1,0-.068-.959q-.466.031-.932.035a.481.481,0,0,0,.011.962m-5.948-.822q.474.129.949.24a.481.481,0,0,0,.22-.937q-.466-.107-.915-.232a.481.481,0,1,0-.254.928m11.867-.374c.085-.036.164-.072.249-.11.22-.1.435-.205.649-.315a.481.481,0,1,0-.44-.854c-.2.1-.4.2-.6.293-.079.035-.152.069-.232.1a.481.481,0,1,0,.378.884m-17.442-1.769q.432.214.881.419a.476.476,0,0,0,.633-.237.481.481,0,0,0-.232-.638c-.288-.132-.576-.269-.859-.407a.48.48,0,1,0-.424.862m22.373-1.722q.339-.358.661-.737a.481.481,0,1,0-.734-.62c-.2.239-.407.47-.621.7a.48.48,0,1,0,.695.662m-27.5-1.324c.265.186.531.369.8.549a.48.48,0,0,0,.666-.133.475.475,0,0,0-.13-.666c-.265-.177-.525-.355-.785-.537a.481.481,0,1,0-.554.788m-4.62-3.745c.237.22.474.437.717.652a.481.481,0,0,0,.638-.719c-.237-.211-.474-.424-.706-.639a.48.48,0,1,0-.649.706m35.5.094q.212-.441.407-.893a.48.48,0,1,0-.881-.381c-.124.289-.26.574-.4.855a.483.483,0,0,0,.87.418m-103.637-2.537q-.111-.464-.22-.93a.479.479,0,0,0-.576-.361.488.488,0,0,0-.362.577c.073.314.147.628.226.941a.48.48,0,1,0,.932-.227m64-1.822q.322.365.644.725a.48.48,0,1,0,.712-.645c-.209-.236-.424-.474-.633-.713a.48.48,0,1,0-.723.633m41.549-1.319c.068-.319.13-.64.181-.962a.479.479,0,1,0-.943-.163c-.057.31-.113.619-.181.927a.482.482,0,0,0,.943.2m-106.715-2.593c-.051-.314-.1-.629-.147-.944a.479.479,0,1,0-.949.14c.045.319.1.638.147.957a.484.484,0,0,0,.553.4.478.478,0,0,0,.4-.552m61.443-.7c.192.258.39.514.587.77a.478.478,0,0,0,.672.088.486.486,0,0,0,.091-.674c-.2-.253-.39-.507-.582-.762a.481.481,0,0,0-.768.578m45.837-2.67c-.005-.327-.017-.654-.039-.98a.481.481,0,0,0-.96.057c.023.312.034.627.04.942a.48.48,0,1,0,.96-.019m-49.276-2.137c.187.265.367.529.548.793a.481.481,0,1,0,.791-.549l-.542-.789a.482.482,0,0,0-.8.544m-58.659-.3q-.025-.475-.051-.952a.477.477,0,0,0-.5-.459.483.483,0,0,0-.463.5q.026.485.051.969a.481.481,0,1,0,.96-.059m107.06-3.5c-.09-.318-.192-.63-.3-.94a.481.481,0,0,0-.909.316q.152.44.288.893a.477.477,0,0,0,.593.327.483.483,0,0,0,.328-.6m-51.694-1.09c.175.267.356.533.531.8a.482.482,0,0,0,.8-.534c-.181-.266-.356-.533-.537-.8a.48.48,0,1,0-.8.534m-55.382-1.239c.023-.317.045-.633.067-.949a.479.479,0,1,0-.954-.079c-.028.323-.051.646-.073.97a.484.484,0,0,0,.452.508.477.477,0,0,0,.509-.451m52.084-3.63.542.79a.48.48,0,1,0,.791-.544c-.181-.265-.362-.529-.548-.794a.479.479,0,1,0-.785.549m-51.327-2.136q.093-.465.2-.928a.481.481,0,0,0-.938-.218c-.073.316-.141.633-.209.951a.482.482,0,0,0,.943.195m47.882-2.612q.288.379.576.762a.48.48,0,0,0,.768-.577c-.192-.258-.39-.514-.582-.77a.485.485,0,0,0-.678-.09.48.48,0,0,0-.085.675M811.9,2229.46c.119-.294.237-.583.367-.867a.48.48,0,1,0-.876-.393c-.135.3-.265.6-.384.9a.476.476,0,0,0,.265.626.484.484,0,0,0,.627-.268m42.515-1.554c.215.236.424.473.632.713a.483.483,0,0,0,.729-.634c-.215-.243-.429-.485-.649-.724a.48.48,0,1,0-.712.645m-39.725-3.476c.186-.253.378-.5.57-.744a.48.48,0,1,0-.745-.6c-.2.254-.407.513-.6.778a.481.481,0,1,0,.774.571m35.59-.634c.237.21.469.422.706.637a.48.48,0,0,0,.65-.708c-.237-.219-.48-.436-.723-.65a.48.48,0,1,0-.633.721m-4.62-3.534c.265.174.525.351.785.53a.481.481,0,1,0,.548-.791c-.266-.184-.537-.365-.808-.543a.483.483,0,0,0-.666.139.476.476,0,0,0,.141.666m-26.971.054c.249-.193.5-.38.757-.56a.482.482,0,0,0-.559-.785c-.265.189-.525.385-.785.586a.48.48,0,0,0,.587.759m21.859-2.762c.294.115.582.237.87.365a.481.481,0,1,0,.39-.88c-.3-.132-.6-.259-.9-.378a.481.481,0,1,0-.356.894m-16.883-.1c.288-.118.582-.229.875-.334a.481.481,0,1,0-.322-.906c-.305.11-.616.226-.915.349a.481.481,0,1,0,.362.892m11.314-1.366q.466.063.932.147a.481.481,0,1,0,.169-.947c-.322-.058-.65-.108-.972-.153a.481.481,0,1,0-.13.953m-5.75-.059c.311-.037.621-.067.938-.092a.481.481,0,0,0-.073-.959c-.328.025-.655.057-.977.1a.481.481,0,1,0,.113.955" transform="translate(-704.735 -1930.622)" fill="#fff" fill-rule="evenodd"/>
        <path id="Trazado_1226016" data-name="Trazado 1226016" d="M1092.757,1073.122q1.322.051,2.626.038a1.282,1.282,0,1,0-.028-2.564c-.825.008-1.661,0-2.5-.036a1.282,1.282,0,1,0-.1,2.563m-15.776-2.451c.836.227,1.683.439,2.53.638a1.282,1.282,0,1,0,.582-2.5q-1.229-.286-2.44-.615a1.282,1.282,0,1,0-.672,2.475m31.71.569c.853-.245,1.689-.512,2.514-.8a1.282,1.282,0,0,0-.847-2.421q-1.169.41-2.372.758a1.282,1.282,0,1,0,.706,2.464m-46.56-6.387q1.152.6,2.333,1.163a1.282,1.282,0,0,0,1.1-2.315q-1.136-.543-2.254-1.124a1.282,1.282,0,1,0-1.18,2.276m61.008-.655c.712-.518,1.406-1.054,2.09-1.609a1.282,1.282,0,0,0-1.621-1.987q-.966.787-1.977,1.521a1.283,1.283,0,0,0,1.508,2.075m-74.372-8q1.025.8,2.067,1.576a1.282,1.282,0,1,0,1.525-2.061c-.678-.5-1.344-1.012-2.011-1.533a1.282,1.282,0,1,0-1.581,2.018m85.551-3.54q.745-1.088,1.423-2.218a1.283,1.283,0,1,0-2.2-1.323c-.429.712-.875,1.413-1.344,2.1a1.281,1.281,0,1,0,2.118,1.443m-97.248-7.209q.89.946,1.8,1.869a1.281,1.281,0,1,0,1.824-1.8c-.593-.6-1.175-1.21-1.757-1.827a1.283,1.283,0,0,0-1.87,1.758m103.947-7.387q.339-1.266.621-2.558a1.283,1.283,0,0,0-2.508-.539q-.263,1.225-.593,2.426a1.284,1.284,0,0,0,2.479.671m-114-4.9c.5.711,1.005,1.413,1.514,2.106a1.281,1.281,0,1,0,2.062-1.521q-.745-1.016-1.48-2.058a1.281,1.281,0,1,0-2.1,1.473M1142.7,1022.1q-.068-1.3-.2-2.62a1.28,1.28,0,1,0-2.548.26c.085.834.147,1.666.192,2.493a1.281,1.281,0,1,0,2.559-.133m-123.966-2.45c.412.761.83,1.516,1.248,2.264a1.283,1.283,0,0,0,2.237-1.256q-.619-1.1-1.232-2.227a1.281,1.281,0,0,0-2.254,1.219m-6.908-14.219q.517,1.185,1.051,2.357a1.283,1.283,0,0,0,2.338-1.057q-.525-1.159-1.039-2.329a1.283,1.283,0,0,0-2.35,1.03m-5.886-14.642c.3.806.6,1.61.9,2.411a1.283,1.283,0,0,0,2.4-.909q-.458-1.192-.9-2.392a1.283,1.283,0,0,0-2.406.89m-5.134-14.9q.4,1.224.8,2.445a1.282,1.282,0,1,0,2.434-.8c-.265-.81-.531-1.62-.791-2.431a1.282,1.282,0,1,0-2.44.788m-4.609-15.052c.237.821.48,1.643.723,2.465a1.281,1.281,0,1,0,2.457-.728c-.237-.819-.48-1.638-.717-2.456a1.283,1.283,0,0,0-2.463.719m-4.276-15.134c.226.821.452,1.646.683,2.473a1.281,1.281,0,1,0,2.468-.685q-.339-1.24-.678-2.47a1.283,1.283,0,1,0-2.474.681m-4.14-15.153c.22.819.446,1.643.672,2.472a1.282,1.282,0,1,0,2.474-.676c-.226-.83-.452-1.655-.672-2.475a1.283,1.283,0,0,0-2.474.678m-191.927-3.2q.161-1.263.339-2.515a1.281,1.281,0,1,0-2.536-.367c-.124.852-.242,1.708-.344,2.568a1.28,1.28,0,1,0,2.542.313m187.7-11.914c.232.822.469,1.643.7,2.463a1.282,1.282,0,0,0,2.468-.7c-.232-.822-.469-1.646-.706-2.471a1.281,1.281,0,1,0-2.463.705M798.753,912.1c.215-.821.435-1.636.666-2.447a1.283,1.283,0,0,0-2.468-.7q-.356,1.244-.678,2.5a1.281,1.281,0,1,0,2.48.646m180.173-11.6q.415,1.205.813,2.415a1.282,1.282,0,0,0,2.434-.8c-.271-.817-.542-1.632-.825-2.445a1.281,1.281,0,1,0-2.423.834m-175.253-3.118c.322-.783.655-1.561.994-2.332a1.281,1.281,0,1,0-2.344-1.032q-.525,1.184-1.017,2.386a1.28,1.28,0,1,0,2.367.978m169.429-11.3q.542,1.141,1.068,2.3a1.282,1.282,0,0,0,2.338-1.055q-.534-1.183-1.1-2.352a1.281,1.281,0,1,0-2.31,1.109M810.58,883.491q.644-1.094,1.31-2.169a1.283,1.283,0,1,0-2.18-1.352q-.678,1.1-1.339,2.22a1.282,1.282,0,1,0,2.209,1.3m154.664-10.708c.492.678.977,1.365,1.446,2.059a1.283,1.283,0,1,0,2.124-1.441q-.729-1.078-1.5-2.132a1.281,1.281,0,1,0-2.068,1.514m-145.864-2.062q.8-.99,1.61-1.958a1.283,1.283,0,0,0-1.966-1.651q-.83.99-1.643,2.005a1.282,1.282,0,1,0,2,1.6m135.708-9.649c.593.6,1.18,1.2,1.768,1.817a1.283,1.283,0,0,0,1.858-1.768q-.9-.945-1.807-1.858a1.283,1.283,0,0,0-1.819,1.809m-125.152-1.706q.932-.862,1.875-1.7a1.281,1.281,0,1,0-1.694-1.922c-.649.572-1.288,1.152-1.926,1.742a1.283,1.283,0,1,0,1.745,1.88m113.442-8.45q1.008.749,2.011,1.533a1.283,1.283,0,1,0,1.581-2.02q-1.025-.8-2.067-1.574a1.282,1.282,0,0,0-1.525,2.06m-101.315-1.2c.7-.474,1.407-.938,2.113-1.392a1.281,1.281,0,1,0-1.378-2.159q-1.093.7-2.169,1.428a1.281,1.281,0,1,0,1.435,2.123m88.166-6.958q1.118.569,2.237,1.175a1.282,1.282,0,1,0,1.226-2.253c-.768-.416-1.531-.819-2.3-1.209a1.282,1.282,0,1,0-1.158,2.287m-74.694-.682q1.144-.534,2.3-1.036a1.282,1.282,0,1,0-1.016-2.354q-1.187.516-2.373,1.064a1.283,1.283,0,1,0,1.085,2.326m60.342-5.034q1.2.356,2.406.751a1.282,1.282,0,1,0,.8-2.436c-.83-.271-1.655-.53-2.486-.774a1.282,1.282,0,1,0-.723,2.459m-45.82-.3c.813-.222,1.633-.432,2.452-.631a1.282,1.282,0,0,0-.6-2.492c-.842.2-1.683.421-2.519.649a1.282,1.282,0,0,0,.672,2.474m30.66-2.662q1.254.124,2.508.287a1.282,1.282,0,1,0,.333-2.543c-.864-.112-1.729-.211-2.587-.3a1.282,1.282,0,0,0-.254,2.552m-15.443-.074c.836-.074,1.678-.135,2.519-.184a1.282,1.282,0,0,0-.152-2.56q-1.3.075-2.593.19a1.282,1.282,0,0,0,.226,2.554" transform="translate(-691.472 -724.525)" fill="#00dcfd" fill-rule="evenodd"/>
        <path id="Trazado_1226017" data-name="Trazado 1226017" d="M1341.116,441.9a11.6,11.6,0,1,0,11.6,11.6h-11.6Z" transform="translate(-1009.356 -333.132)" fill="#00dcfd" fill-rule="evenodd"/>
        <path id="Trazado_1226018" data-name="Trazado 1226018" d="M3376.462,2864.123a11.6,11.6,0,1,0,11.6,11.6h-11.6Z" transform="translate(-2932.961 -2496.449)" fill="#00dcfd" fill-rule="evenodd"/>
        <path id="Trazado_1226019" data-name="Trazado 1226019" d="M3153.957,1731.5a20.178,20.178,0,1,1-20.175,20.179,20.186,20.186,0,0,1,20.175-20.179m0,10.089a10.089,10.089,0,1,1-10.088,10.089,10.088,10.088,0,0,1,10.088-10.089" transform="translate(-2731.538 -1509.208)" fill="#fe8e78" fill-rule="evenodd"/>
      </g>
    </g>
    <rect id="Rectángulo_423951" data-name="Rectángulo 423951" width="463" height="463" transform="translate(97 4484)" fill="none"/>
  </g>
</svg>
