<svg xmlns="http://www.w3.org/2000/svg" xmlns:xlink="http://www.w3.org/1999/xlink" width="108" height="108" viewBox="0 0 108 108">
  <defs>
    <filter id="Trazado_904820" x="0" y="0" width="108" height="108" filterUnits="userSpaceOnUse">
      <feOffset dy="3" input="SourceAlpha"/>
      <feGaussianBlur stdDeviation="3" result="blur"/>
      <feFlood flood-opacity="0.161"/>
      <feComposite operator="in" in2="blur"/>
      <feComposite in="SourceGraphic"/>
    </filter>
  </defs>
  <g id="Grupo_1236491" data-name="Grupo 1236491" transform="translate(-196 -2740.322)">
    <g id="Grupo_1226450" data-name="Grupo 1226450" transform="translate(0 2236.322)">
      <g id="Grupo_1211686" data-name="Grupo 1211686" transform="translate(205 510)">
        <g id="Grupo_1173585" data-name="Grupo 1173585" transform="translate(0 0)">
          <g id="Grupo_1173428" data-name="Grupo 1173428">
            <g id="Grupo_1171958" data-name="Grupo 1171958">
              <g id="Grupo_1167341" data-name="Grupo 1167341">
                <g id="Grupo_1166792" data-name="Grupo 1166792">
                  <g transform="matrix(1, 0, 0, 1, -9, -6)" filter="url(#Trazado_904820)">
                    <g id="Trazado_904820-2" data-name="Trazado 904820" transform="translate(9 6)" fill="#fceefb">
                      <path d="M 44.99999618530273 88.50003814697266 C 39.12687301635742 88.50003814697266 33.43022155761719 87.35011291503906 28.06829643249512 85.08219909667969 C 22.88852119445801 82.89134979248047 18.23629570007324 79.75462341308594 14.24084663391113 75.75917053222656 C 10.24540901184082 71.76372528076172 7.108683586120605 67.11149597167969 4.917821407318115 61.93172454833984 C 2.649921178817749 56.56979751586914 1.499996185302734 50.87314605712891 1.499996185302734 45.00002288818359 C 1.499996185302734 39.12689971923828 2.649921178817749 33.43024826049805 4.917821407318115 28.06832313537598 C 7.108683586120605 22.88854789733887 10.24540901184082 18.2363224029541 14.24084663391113 14.24087333679199 C 18.23629570007324 10.24543571472168 22.88852119445801 7.108710289001465 28.06829643249512 4.917848110198975 C 33.43022155761719 2.649947881698608 39.12687301635742 1.500022888183594 44.99999618530273 1.500022888183594 C 50.87311935424805 1.500022888183594 56.56977081298828 2.649947881698608 61.93169784545898 4.917848110198975 C 67.11147308349609 7.108710289001465 71.76369476318359 10.24543571472168 75.75914764404297 14.24087333679199 C 79.75458526611328 18.2363224029541 82.89131164550781 22.88854789733887 85.08216857910156 28.06832313537598 C 87.35007476806641 33.43024826049805 88.5 39.12689971923828 88.5 45.00002288818359 C 88.5 50.87314605712891 87.35007476806641 56.56979751586914 85.08216857910156 61.93172454833984 C 82.89131164550781 67.11149597167969 79.75458526611328 71.76372528076172 75.75914764404297 75.75917053222656 C 71.76369476318359 79.75462341308594 67.11147308349609 82.89134979248047 61.93169784545898 85.08219909667969 C 56.56977081298828 87.35011291503906 50.87311935424805 88.50003814697266 44.99999618530273 88.50003814697266 Z" stroke="none"/>
                      <path d="M 44.99999618530273 3.000007629394531 C 39.32870864868164 3.000007629394531 33.82865142822266 4.110069274902344 28.65262603759766 6.299354553222656 C 23.65165710449219 8.414581298828125 19.15968322753906 11.44335174560547 15.301513671875 15.30153656005859 C 11.44333648681641 19.15970611572266 8.414566040039062 23.65166473388672 6.299339294433594 28.65265274047852 C 4.110054016113281 33.82867813110352 2.999992370605469 39.3287353515625 2.999992370605469 45.00002288818359 C 2.999992370605469 50.67131042480469 4.110054016113281 56.17135238647461 6.299339294433594 61.34739685058594 C 8.414566040039062 66.34836578369141 11.44333648681641 70.84032440185547 15.301513671875 74.69850921630859 C 19.15968322753906 78.55667877197266 23.65165710449219 81.58544921875 28.65262603759766 83.70068359375 C 33.82865142822266 85.88996887207031 39.32870864868164 87.00002288818359 44.99999618530273 87.00002288818359 C 50.67128372192383 87.00002288818359 56.17134094238281 85.88996887207031 61.34736633300781 83.70068359375 C 66.34834289550781 81.58544921875 70.84030914306641 78.55667877197266 74.69847869873047 74.69850921630859 C 78.55665588378906 70.84032440185547 81.58542633056641 66.34836578369141 83.70065307617188 61.34739685058594 C 85.88993835449219 56.17135238647461 87 50.67131042480469 87 45.00002288818359 C 87 39.3287353515625 85.88993835449219 33.82867813110352 83.70065307617188 28.65265274047852 C 81.58542633056641 23.65166473388672 78.55665588378906 19.15970611572266 74.69847869873047 15.30153656005859 C 70.84030914306641 11.44335174560547 66.34834289550781 8.414581298828125 61.34736633300781 6.299354553222656 C 56.17134094238281 4.110069274902344 50.67128372192383 3.000007629394531 44.99999618530273 3.000007629394531 M 44.99999618530273 7.62939453125e-06 C 69.85281372070312 7.62939453125e-06 90 20.14720916748047 90 45.00002288818359 C 90 69.85282135009766 69.85281372070312 90.00002288818359 44.99999618530273 90.00002288818359 C 20.14717864990234 90.00002288818359 -7.62939453125e-06 69.85282135009766 -7.62939453125e-06 45.00002288818359 C -7.62939453125e-06 20.14720916748047 20.14717864990234 7.62939453125e-06 44.99999618530273 7.62939453125e-06 Z" stroke="none" fill="#e761e1"/>
                    </g>
                  </g>
                </g>
              </g>
            </g>
          </g>
        </g>
      </g>
    </g>
    <g id="ui_1_" data-name="ui (1)" transform="translate(220.843 2762.665)">
      <path id="Trazado_1225947" data-name="Trazado 1225947" d="M145.336,8H124.321a3.821,3.821,0,0,0-3.821,3.821v1.91h28.657v-1.91A3.821,3.821,0,0,0,145.336,8Zm0,0" transform="translate(-105.671 -7.045)" fill="#126099"/>
      <path id="Trazado_1225948" data-name="Trazado 1225948" d="M120.5,411.821a3.821,3.821,0,0,0,3.821,3.821h21.015a3.821,3.821,0,0,0,3.821-3.821V408H120.5Zm0,0" transform="translate(-105.671 -359.283)" fill="#126099"/>
      <path id="Trazado_1225949" data-name="Trazado 1225949" d="M120.5,56h28.657V98.031H120.5Zm0,0" transform="translate(-105.671 -49.313)" fill="#4398d1"/>
      <path id="Trazado_1225950" data-name="Trazado 1225950" d="M135.784,124.9A12.861,12.861,0,0,0,120.5,112.23v25.331a12.946,12.946,0,0,0,2.388.23c.161,0,.318-.018.478-.024V139.7h2.866v-2.364a12.889,12.889,0,0,0,9.552-12.442Zm0,0" transform="translate(-105.671 -98.626)" fill="#3e8cc7"/>
      <path id="Trazado_1225951" data-name="Trazado 1225951" d="M120.5,180.657v1.91h28.657V152Zm0,0" transform="translate(-105.671 -133.85)" fill="#3e8cc7"/>
      <path id="Trazado_1225952" data-name="Trazado 1225952" d="M232.5,432h1.91v1.91H232.5Zm0,0" transform="translate(-204.298 -380.417)" fill="#3181bd"/>
      <path id="Trazado_1225953" data-name="Trazado 1225953" d="M79.426,123.462a11.423,11.423,0,1,1-3.346-8.117A11.463,11.463,0,0,1,79.426,123.462Zm0,0" transform="translate(-49.313 -98.626)" fill="#126099"/>
      <path id="Trazado_1225954" data-name="Trazado 1225954" d="M128.142,163.821A3.821,3.821,0,1,1,124.321,160,3.821,3.821,0,0,1,128.142,163.821Zm0,0" transform="translate(-105.671 -140.895)" fill="#fec9a3"/>
      <path id="Trazado_1225955" data-name="Trazado 1225955" d="M312.5,182.328l15.65-13.808a2.079,2.079,0,0,1,2.935,2.935L317.276,187.1Zm0,0" transform="translate(-274.745 -147.94)" fill="#e3584b"/>
      <path id="Trazado_1225956" data-name="Trazado 1225956" d="M256.142,288a5.732,5.732,0,0,0-5.731,5.731v1.685a3.456,3.456,0,0,1-1.911,3.091h6.687a5.732,5.732,0,0,0,5.731-5.731Zm0,0" transform="translate(-218.387 -253.611)" fill="#87ced9"/>
      <path id="Trazado_1225957" data-name="Trazado 1225957" d="M8.5,368H29.515v7.642H8.5Zm0,0" transform="translate(-7.045 -324.059)" fill="#87ced9"/>
      <path id="Trazado_1225958" data-name="Trazado 1225958" d="M32.5,392h4.776v1.91H32.5Zm0,0" transform="translate(-28.179 -345.193)" fill="#5eb3d1"/>
      <path id="Trazado_1225959" data-name="Trazado 1225959" d="M88.5,392h8.6v1.91H88.5Zm0,0" transform="translate(-77.492 -345.193)" fill="#5eb3d1"/>
      <path id="Trazado_1225960" data-name="Trazado 1225960" d="M8.5,40h9.552v7.642H8.5Zm0,0" transform="translate(-7.045 -35.224)" fill="#87ced9"/>
      <path id="Trazado_1225961" data-name="Trazado 1225961" d="M32.5,64h3.821v1.91H32.5Zm0,0" transform="translate(-28.179 -56.358)" fill="#5eb3d1"/>
      <path id="Trazado_1225962" data-name="Trazado 1225962" d="M110.231,224a5.732,5.732,0,0,0-5.731,5.731v2.282a11.443,11.443,0,0,0,11.463,0v-2.282A5.732,5.732,0,0,0,110.231,224Zm0,0" transform="translate(-91.582 -197.253)" fill="#e3584b"/>
      <path id="Trazado_1225963" data-name="Trazado 1225963" d="M55.068,94.329H52.153A12.42,12.42,0,0,0,40.739,82.914V80h-1.91v2.914A12.42,12.42,0,0,0,27.414,94.329H24.5v1.91h2.917a12.363,12.363,0,0,0,11.412,11.419v2.91h1.91v-2.91A12.363,12.363,0,0,0,52.151,96.239h2.917Zm-8.279,8.788a10.46,10.46,0,0,1-6.05,2.631v-1.867h-1.91v1.867a10.479,10.479,0,0,1-9.5-9.509h1.86v-1.91H29.325a10.518,10.518,0,0,1,9.5-9.5v1.862h1.91V84.825a10.518,10.518,0,0,1,9.5,9.5H48.381v1.91h1.86a10.513,10.513,0,0,1-3.452,6.883Zm0,0" transform="translate(-21.134 -70.447)" fill="#e3584b"/>
      <path id="Trazado_1225964" data-name="Trazado 1225964" d="M264.5,56h11.463V67.463H264.5Zm0,0" transform="translate(-232.477 -49.313)" fill="#3e8cc7"/>
      <path id="Trazado_1225965" data-name="Trazado 1225965" d="M280.5,40h21.015V51.463H280.5Zm0,0" transform="translate(-246.566 -35.224)" fill="#87ced9"/>
      <g id="Grupo_1236490" data-name="Grupo 1236490" transform="translate(36.799 7.642)">
        <path id="Trazado_1225966" data-name="Trazado 1225966" d="M304.5,64h3.821v1.91H304.5Zm0,0" transform="translate(-304.5 -64)" fill="#5eb3d1"/>
        <path id="Trazado_1225967" data-name="Trazado 1225967" d="M352.5,64h9.552v1.91H352.5Zm0,0" transform="translate(-346.769 -64)" fill="#5eb3d1"/>
        <path id="Trazado_1225968" data-name="Trazado 1225968" d="M304.5,96h15.284v1.91H304.5Zm0,0" transform="translate(-304.5 -92.179)" fill="#5eb3d1"/>
      </g>
      <path id="Trazado_1225969" data-name="Trazado 1225969" d="M147.773,368h-1.91v3.821H128.669v1.91h17.194V376.6A2.866,2.866,0,0,1,143,379.463H121.982a2.876,2.876,0,0,1-2.484-1.433l-1.654.955a4.8,4.8,0,0,0,4.138,2.388H143a4.782,4.782,0,0,0,4.776-4.776Zm0,0" transform="translate(-103.332 -324.059)"/>
      <path id="Trazado_1225970" data-name="Trazado 1225970" d="M232.5,432h1.91v1.91H232.5Zm0,0" transform="translate(-204.298 -380.417)"/>
      <path id="Trazado_1225971" data-name="Trazado 1225971" d="M55.068,25.792v-1.91H52.153A12.42,12.42,0,0,0,40.739,12.467V9.552h-1.91v2.914a12.415,12.415,0,0,0-1.91.3V7.642H52.2V5.731H36.918V4.776A2.866,2.866,0,0,1,39.784,1.91H60.8a2.864,2.864,0,0,1,1.9.716l1.264-1.433A4.77,4.77,0,0,0,60.8,0H39.784a4.782,4.782,0,0,0-4.776,4.776v8.6a12.435,12.435,0,0,0-7.593,10.508H24.5v1.91h2.917A12.363,12.363,0,0,0,38.828,37.211v2.91h1.91v-2.91A12.363,12.363,0,0,0,52.151,25.792ZM38.828,33.434V35.3a10.468,10.468,0,0,1-3.821-1.1V32.478a4.776,4.776,0,1,1,9.552,0V34.2A10.478,10.478,0,0,1,40.739,35.3V33.434Zm-1.91-10.508a2.866,2.866,0,1,1,2.866,2.866A2.866,2.866,0,0,1,36.918,22.926Zm9.871,9.744c-.1.1-.213.172-.318.26v-.451a6.687,6.687,0,0,0-3.61-5.93,4.776,4.776,0,1,0-6.154,0,6.687,6.687,0,0,0-3.61,5.93v.456c-.106-.087-.216-.168-.318-.26a10.513,10.513,0,0,1-3.452-6.883h1.86v-1.91H29.325a10.518,10.518,0,0,1,9.5-9.5v1.862h1.91V14.377a10.518,10.518,0,0,1,9.5,9.5H48.381v1.91h1.86a10.513,10.513,0,0,1-3.452,6.883Zm0,0" transform="translate(-21.134 0)"/>
      <path id="Trazado_1225972" data-name="Trazado 1225972" d="M294.471,45.373a.955.955,0,0,0,.955-.955V32.955a.955.955,0,0,0-.955-.955H273.455a.955.955,0,0,0-.955.955V44.418a.955.955,0,0,0,.955.955ZM274.41,33.91h19.1v9.552h-19.1Zm0,0" transform="translate(-239.522 -28.179)"/>
      <path id="Trazado_1225973" data-name="Trazado 1225973" d="M304.5,64h3.821v1.91H304.5Zm0,0" transform="translate(-267.701 -56.358)"/>
      <path id="Trazado_1225974" data-name="Trazado 1225974" d="M352.5,64h9.552v1.91H352.5Zm0,0" transform="translate(-309.969 -56.358)"/>
      <path id="Trazado_1225975" data-name="Trazado 1225975" d="M304.5,96h15.284v1.91H304.5Zm0,0" transform="translate(-267.701 -84.537)"/>
      <path id="Trazado_1225976" data-name="Trazado 1225976" d="M266.117,160a3.028,3.028,0,0,0-2.006.764l-8.333,7.346V160h-1.91v9.552h.276l-5.434,4.8a6.687,6.687,0,0,0-6.3,6.668V182.7a2.484,2.484,0,0,1-1.382,2.236.955.955,0,0,0,.427,1.81h6.687a6.687,6.687,0,0,0,6.668-6.3l13.589-15.4A3.035,3.035,0,0,0,266.117,160Zm-17.981,24.836h-4.369a4.407,4.407,0,0,0,.548-2.136v-1.685a4.783,4.783,0,0,1,4.394-4.761l4.188,4.188A4.782,4.782,0,0,1,248.136,184.836Zm18.824-21.058-13.136,14.888-3.339-3.338,14.887-13.137a1.124,1.124,0,0,1,1.587,1.587Zm0,0" transform="translate(-211.336 -140.895)"/>
      <path id="Trazado_1225977" data-name="Trazado 1225977" d="M1.455,334.329H22.471a.955.955,0,0,0,.955-.955v-7.642a.955.955,0,0,0-.955-.955H15.784V320h-1.91v4.776H1.455a.955.955,0,0,0-.955.955v7.642A.955.955,0,0,0,1.455,334.329Zm.955-7.642h19.1v5.731H2.41Zm0,0" transform="translate(0 -281.79)"/>
      <path id="Trazado_1225978" data-name="Trazado 1225978" d="M32.5,392h4.776v1.91H32.5Zm0,0" transform="translate(-28.179 -345.193)"/>
      <path id="Trazado_1225979" data-name="Trazado 1225979" d="M88.5,392h8.6v1.91H88.5Zm0,0" transform="translate(-77.492 -345.193)"/>
      <path id="Trazado_1225980" data-name="Trazado 1225980" d="M1.455,41.552h9.552a.955.955,0,0,0,.955-.955V32.955A.955.955,0,0,0,11.008,32H1.455a.955.955,0,0,0-.955.955V40.6A.955.955,0,0,0,1.455,41.552ZM2.41,33.91h7.642v5.731H2.41Zm0,0" transform="translate(0 -28.179)"/>
      <path id="Trazado_1225981" data-name="Trazado 1225981" d="M32.5,64h3.821v1.91H32.5Zm0,0" transform="translate(-28.179 -56.358)"/>
    </g>
  </g>
</svg>
