<svg xmlns="http://www.w3.org/2000/svg" xmlns:xlink="http://www.w3.org/1999/xlink" width="113" height="113" viewBox="0 0 113 113">
  <defs>
    <filter id="Trazado_982547" x="0" y="0" width="113" height="113" filterUnits="userSpaceOnUse">
      <feOffset dy="3" input="SourceAlpha"/>
      <feGaussianBlur stdDeviation="3" result="blur"/>
      <feFlood flood-opacity="0.161"/>
      <feComposite operator="in" in2="blur"/>
      <feComposite in="SourceGraphic"/>
    </filter>
  </defs>
  <g id="Grupo_1236724" data-name="Grupo 1236724" transform="translate(-8308.51 -3260.364)">
    <g id="Grupo_1236228" data-name="Grupo 1236228" transform="translate(8317.51 3266.364)">
      <g id="Grupo_1235107" data-name="Grupo 1235107" transform="translate(0)">
        <g id="Grupo_1223796" data-name="Grupo 1223796">
          <g id="Grupo_1208038" data-name="Grupo 1208038">
            <g id="Grupo_1202104" data-name="Grupo 1202104">
              <g id="Grupo_1201923" data-name="Grupo 1201923" transform="translate(0 0)">
                <g id="Grupo_1176928" data-name="Grupo 1176928" transform="translate(0)">
                  <g id="Grupo_1172322" data-name="Grupo 1172322">
                    <g id="Grupo_1164700" data-name="Grupo 1164700">
                      <g id="Grupo_1160931" data-name="Grupo 1160931">
                        <g id="Grupo_1160749" data-name="Grupo 1160749">
                          <g id="Grupo_1158891" data-name="Grupo 1158891">
                            <g id="Grupo_1157406" data-name="Grupo 1157406">
                              <g id="Grupo_1155793" data-name="Grupo 1155793">
                                <g id="Grupo_1154704" data-name="Grupo 1154704">
                                  <g id="Grupo_1150790" data-name="Grupo 1150790">
                                    <g id="Grupo_1154214" data-name="Grupo 1154214" transform="translate(0)">
                                      <g id="Grupo_1152583" data-name="Grupo 1152583">
                                        <g id="Grupo_1146973" data-name="Grupo 1146973">
                                          <g id="Grupo_1146954" data-name="Grupo 1146954">
                                            <g transform="matrix(1, 0, 0, 1, -9, -6)" filter="url(#Trazado_982547)">
                                              <g id="Trazado_982547-2" data-name="Trazado 982547" transform="translate(9 6)" fill="#e1daf7">
                                                <path d="M 47.50000762939453 93.49986267089844 C 41.28937911987305 93.49986267089844 35.26534271240234 92.28383636474609 29.59519386291504 89.88558197021484 C 24.11772727966309 87.56880950927734 19.19814109802246 84.25183868408203 14.97310066223145 80.02679443359375 C 10.74804782867432 75.8017578125 7.431074142456055 70.88218688964844 5.114300727844238 65.40471649169922 C 2.716034412384033 59.73458480834961 1.500007629394531 53.71054458618164 1.500007629394531 47.49993133544922 C 1.500007629394531 41.2893180847168 2.716034412384033 35.26527786254883 5.114300727844238 29.59514427185059 C 7.431074142456055 24.11767768859863 10.74804782867432 19.19810485839844 14.97310066223145 14.97306442260742 C 19.19814109802246 10.74802494049072 24.11772727966309 7.431051254272461 29.59519386291504 5.114277839660645 C 35.26534271240234 2.71602463722229 41.28937911987305 1.499997973442078 47.50000762939453 1.499997973442078 C 53.71063613891602 1.499997973442078 59.73467254638672 2.71602463722229 65.40482330322266 5.114277839660645 C 70.88228607177734 7.431051254272461 75.80187225341797 10.74802494049072 80.02691650390625 14.97306442260742 C 84.25196838378906 19.19810485839844 87.56893920898438 24.11767768859863 89.88571166992188 29.59514427185059 C 92.28398132324219 35.26527786254883 93.50000762939453 41.2893180847168 93.50000762939453 47.49993133544922 C 93.50000762939453 53.71054458618164 92.28398132324219 59.73458480834961 89.88571166992188 65.40471649169922 C 87.56893920898438 70.88218688964844 84.25196838378906 75.8017578125 80.02691650390625 80.02679443359375 C 75.80187225341797 84.25183868408203 70.88228607177734 87.56880950927734 65.40482330322266 89.88558197021484 C 59.73467254638672 92.28383636474609 53.71063613891602 93.49986267089844 47.50000762939453 93.49986267089844 Z" stroke="none"/>
                                                <path d="M 47.50000762939453 2.999992370605469 C 41.4912223815918 2.999992370605469 35.66377639770508 4.1761474609375 30.17951202392578 6.495796203613281 C 24.88085174560547 8.736930847167969 20.12152862548828 11.94596099853516 16.03376007080078 16.03372955322266 C 11.94597625732422 20.12148284912109 8.736961364746094 24.88080596923828 6.495803833007812 30.17946624755859 C 4.176162719726562 35.66371536254883 3.000007629394531 41.49116134643555 3.000007629394531 47.49993133544922 C 3.000007629394531 53.50870132446289 4.176162719726562 59.33614730834961 6.495803833007812 64.82038879394531 C 8.736961364746094 70.11905670166016 11.94597625732422 74.87836456298828 16.03376007080078 78.96613311767578 C 20.12152862548828 83.05390167236328 24.88085174560547 86.26291656494141 30.17951202392578 88.50406646728516 C 35.66377639770508 90.82369995117188 41.4912223815918 91.99985504150391 47.50000762939453 91.99985504150391 C 53.50879287719727 91.99985504150391 59.33623886108398 90.82369995117188 64.82049560546875 88.50406646728516 C 70.11916351318359 86.26291656494141 74.87848663330078 83.05390167236328 78.96625518798828 78.96613311767578 C 83.05403900146484 74.87836456298828 86.26305389404297 70.11905670166016 88.50421142578125 64.82038879394531 C 90.8238525390625 59.33614730834961 92.00000762939453 53.50870132446289 92.00000762939453 47.49993133544922 C 92.00000762939453 41.49116134643555 90.8238525390625 35.66371536254883 88.50421142578125 30.17946624755859 C 86.26305389404297 24.88080596923828 83.05403900146484 20.12148284912109 78.96625518798828 16.03372955322266 C 74.87848663330078 11.94596099853516 70.11916351318359 8.736930847167969 64.82049560546875 6.495796203613281 C 59.33623886108398 4.1761474609375 53.50879287719727 2.999992370605469 47.50000762939453 2.999992370605469 M 47.50000762939453 -7.62939453125e-06 C 73.73352813720703 -7.62939453125e-06 95.00000762939453 21.26644134521484 95.00000762939453 47.49993133544922 C 95.00000762939453 73.73342132568359 73.73352813720703 94.99985504150391 47.50000762939453 94.99985504150391 C 21.26648712158203 94.99985504150391 7.62939453125e-06 73.73342132568359 7.62939453125e-06 47.49993133544922 C 7.62939453125e-06 21.26644134521484 21.26648712158203 -7.62939453125e-06 47.50000762939453 -7.62939453125e-06 Z" stroke="none" fill="#6c4dd8"/>
                                              </g>
                                            </g>
                                          </g>
                                        </g>
                                      </g>
                                    </g>
                                  </g>
                                </g>
                              </g>
                            </g>
                          </g>
                        </g>
                      </g>
                    </g>
                  </g>
                </g>
              </g>
            </g>
          </g>
        </g>
      </g>
    </g>
    <g id="jerarquia" transform="translate(8336.511 3272.649)">
      <path id="Trazado_1226533" data-name="Trazado 1226533" d="M33.782,195.654l-6.18,2.353a2.11,2.11,0,0,0-1.359,1.972V204.6H39.289V199.45A4.062,4.062,0,0,0,33.782,195.654Z" transform="translate(-23.42 -163.336)" fill="#a64c31"/>
      <path id="Trazado_1226534" data-name="Trazado 1226534" d="M94.836,195.654l-.176.067a4.049,4.049,0,0,1,2.453,3.729V204.6h3.23V199.45A4.062,4.062,0,0,0,94.836,195.654Z" transform="translate(-84.474 -163.336)" fill="#8a3e25"/>
      <path id="Trazado_1226535" data-name="Trazado 1226535" d="M22.705,249.517c-.042,0-.083,0-.123,0v-1.78a2.953,2.953,0,0,0-2.953-2.953h-7.14a2.953,2.953,0,0,0-2.953,2.953v1.783a1.5,1.5,0,0,0-.214,0,1.719,1.719,0,0,0-1.794,1.942c.093,1.259,1.061,2.7,2.122,2.628a6.5,6.5,0,0,0,6.388,5.292h.04a6.5,6.5,0,0,0,6.388-5.289c1.025-.014,1.941-1.408,2.032-2.631A1.719,1.719,0,0,0,22.705,249.517Z" transform="translate(-6.713 -207.416)" fill="#ffcbbe"/>
      <path id="Trazado_1226536" data-name="Trazado 1226536" d="M59.055,249.517c-.042,0-.083,0-.123,0v-1.771a2.962,2.962,0,0,0-2.962-2.962h-.038a2.947,2.947,0,0,1,.529,1.689v5.114a6.525,6.525,0,0,1-8.207,6.3,6.523,6.523,0,0,0,10.559-3.8c1.026-.011,1.945-1.406,2.035-2.631A1.719,1.719,0,0,0,59.055,249.517Z" transform="translate(-43.063 -207.416)" fill="#fdad9d"/>
      <path id="Trazado_1226537" data-name="Trazado 1226537" d="M61.427,325.776a.362.362,0,0,0-.337.492,2.951,2.951,0,0,0,5.5,0,.362.362,0,0,0-.337-.492Z" transform="translate(-54.495 -279.696)" fill="#fff"/>
      <path id="Trazado_1226538" data-name="Trazado 1226538" d="M183.963,106.647a3.2,3.2,0,0,0-3.565-3.131,1.574,1.574,0,0,1-1.283-.441,3.2,3.2,0,0,0-4.477,0,1.574,1.574,0,0,1-1.283.441,3.2,3.2,0,0,0-3.565,3.131,1.513,1.513,0,0,1-.547,1.127,3.2,3.2,0,0,0,3.849,5.109h7.57a3.2,3.2,0,0,0,3.849-5.109A1.512,1.512,0,0,1,183.963,106.647Z" transform="translate(-150.009 -80.148)" fill="#586b76"/>
      <path id="Trazado_1226539" data-name="Trazado 1226539" d="M281.814,118.666a1.512,1.512,0,0,1-.547-1.126,3.2,3.2,0,0,0-3.566-3.131,1.576,1.576,0,0,1-.564-.039,3.539,3.539,0,0,1,1.108,2.056,3.617,3.617,0,0,1,.043.5,1.68,1.68,0,0,0,.607,1.251,3.554,3.554,0,0,1-.54,5.821,3.2,3.2,0,0,0,3.458-5.334Z" transform="translate(-247.314 -91.04)" fill="#465961"/>
      <path id="Trazado_1226540" data-name="Trazado 1226540" d="M185.3,159.364c-.043,0-.085,0-.126,0a4.842,4.842,0,0,0-4.84-4.733h-3.361a4.842,4.842,0,0,0-4.84,4.737,1.489,1.489,0,0,0-.217,0,1.719,1.719,0,0,0-1.794,1.942c.093,1.259,1.061,2.7,2.122,2.628a6.5,6.5,0,0,0,6.388,5.292h.04a6.5,6.5,0,0,0,6.388-5.289c1.025-.014,1.941-1.408,2.032-2.631A1.719,1.719,0,0,0,185.3,159.364Z" transform="translate(-151.806 -126.965)" fill="#ffcbbe"/>
      <path id="Trazado_1226541" data-name="Trazado 1226541" d="M221.843,160.123c-.043,0-.085,0-.126,0a4.858,4.858,0,0,0-3.916-4.642A4.843,4.843,0,0,1,219.318,159v3.218a6.522,6.522,0,0,1-8.251,6.29A6.522,6.522,0,0,0,221.6,164.7c1.026-.011,1.945-1.406,2.035-2.631A1.719,1.719,0,0,0,221.843,160.123Z" transform="translate(-188.354 -127.724)" fill="#fdad9d"/>
      <path id="Trazado_1226542" data-name="Trazado 1226542" d="M371.5,38.417V27.33a7.456,7.456,0,0,0-14.911,0V38.416a1.167,1.167,0,0,0,1.167,1.167h12.578A1.167,1.167,0,0,0,371.5,38.417Z" transform="translate(-318.211 -6.713)" fill="#a64c31"/>
      <path id="Trazado_1226543" data-name="Trazado 1226543" d="M422.215,27.33V39.583h.991a1.167,1.167,0,0,0,1.167-1.167V27.33a7.454,7.454,0,0,0-8.535-7.377,7.456,7.456,0,0,1,6.377,7.377Z" transform="translate(-371.088 -6.713)" fill="#8a3e25"/>
      <path id="Trazado_1226544" data-name="Trazado 1226544" d="M361.647,71.852c-.042,0-.083,0-.123,0v-1.78a2.953,2.953,0,0,0-2.953-2.953h-7.14a2.953,2.953,0,0,0-2.953,2.953v1.783a1.5,1.5,0,0,0-.214,0,1.719,1.719,0,0,0-1.794,1.942c.093,1.259,1.061,2.7,2.122,2.628a6.5,6.5,0,0,0,6.388,5.292h.04a6.5,6.5,0,0,0,6.388-5.289c1.025-.014,1.941-1.408,2.032-2.631a1.719,1.719,0,0,0-1.793-1.942Z" transform="translate(-309.179 -48.871)" fill="#ffcbbe"/>
      <path id="Trazado_1226545" data-name="Trazado 1226545" d="M409.092,147.38a.532.532,0,0,0-.629.09l-.129.129a.529.529,0,0,1-.748,0l-.129-.129a.532.532,0,0,0-.629-.09,2.4,2.4,0,0,0-1,1.016.2.2,0,0,0,0,.182,2.392,2.392,0,0,0,4.259,0,.2.2,0,0,0,0-.182A2.4,2.4,0,0,0,409.092,147.38Z" transform="translate(-362.139 -120.441)"/>
      <path id="Trazado_1226546" data-name="Trazado 1226546" d="M398,71.852c-.042,0-.083,0-.123,0V70.077a2.962,2.962,0,0,0-2.962-2.962h-.037A2.947,2.947,0,0,1,395.4,68.8v5.114a6.525,6.525,0,0,1-8.207,6.3,6.523,6.523,0,0,0,10.559-3.8c1.026-.011,1.945-1.406,2.035-2.631A1.719,1.719,0,0,0,398,71.852Z" transform="translate(-345.53 -48.871)" fill="#fdad9d"/>
      <path id="Trazado_1226547" data-name="Trazado 1226547" d="M391.359,19.874a7.419,7.419,0,0,0-3.963,1.142,5.994,5.994,0,0,0-.2,1.521c0,3.8,3.58,6.889,8,6.889a9.014,9.014,0,0,0,3.62-.747V27.33A7.456,7.456,0,0,0,391.359,19.874Z" transform="translate(-345.53 -6.713)" fill="#a64c31"/>
      <path id="Trazado_1226548" data-name="Trazado 1226548" d="M405.782,28.168a7.421,7.421,0,0,1,1.547,4.545v.642a1.034,1.034,0,0,1-.7.979,9.1,9.1,0,0,1-2.915.474,8.909,8.909,0,0,1-4.316-1.091,8.38,8.38,0,0,0,6.685,3.109,9.014,9.014,0,0,0,3.62-.747V34.731A7.454,7.454,0,0,0,405.782,28.168Z" transform="translate(-356.414 -14.115)" fill="#8a3e25"/>
      <path id="Trazado_1226549" data-name="Trazado 1226549" d="M357.049,226.6H341.69a1.141,1.141,0,0,0-1.141,1.141v10.126H358.19V227.736A1.141,1.141,0,0,0,357.049,226.6Z" transform="translate(-303.901 -191.188)" fill="#b6c1cc"/>
      <path id="Trazado_1226550" data-name="Trazado 1226550" d="M211.9,315.105H177.762a1.141,1.141,0,0,0-1.141,1.141v9.9H211.9Z" transform="translate(-157.615 -270.173)" fill="#9cabb8"/>
      <path id="Trazado_1226551" data-name="Trazado 1226551" d="M61.083,403.616H8.754a1.141,1.141,0,0,0-1.141,1.141V412a1.141,1.141,0,0,0,1.141,1.141H59.942A1.141,1.141,0,0,0,61.083,412Z" transform="translate(-6.794 -349.159)" fill="#8c9ba6"/>
      <path id="Trazado_1226552" data-name="Trazado 1226552" d="M459.618,226.6h-4.127v11.267h5.272V227.739A1.144,1.144,0,0,0,459.618,226.6Z" transform="translate(-406.474 -191.188)" fill="#9cabb8"/>
      <path id="Trazado_1226553" data-name="Trazado 1226553" d="M455.492,315.105h5.272v11.043h-5.272Z" transform="translate(-406.475 -270.173)" fill="#8c9ba6"/>
      <path id="Trazado_1226554" data-name="Trazado 1226554" d="M55.812,403.615v3.207a1.144,1.144,0,0,1-1.144,1.144H7.613V412a1.144,1.144,0,0,0,1.144,1.144H59.939A1.144,1.144,0,0,0,61.083,412v-8.381Z" transform="translate(-6.794 -349.158)" fill="#7c8b96"/>
      <path id="Trazado_1226555" data-name="Trazado 1226555" d="M2.279,204.047a7.333,7.333,0,0,0,14.143-.032,3.857,3.857,0,0,0,2.171-3.26,2.442,2.442,0,0,0-1.915-2.71v-5.279a4.871,4.871,0,0,0-6.6-4.552l-6.18,2.353a2.935,2.935,0,0,0-1.88,2.728v4.729a2.449,2.449,0,0,0-2.005,2.731,3.8,3.8,0,0,0,2.27,3.292Zm.39-4.486a.7.7,0,0,1,.1,0,.81.81,0,0,0,.866-.808v-1.774a2.155,2.155,0,0,1,2.153-2.152.81.81,0,1,0,0-1.619,3.75,3.75,0,0,0-2.153.677v-.589a1.307,1.307,0,0,1,.837-1.215l6.18-2.353a3.252,3.252,0,0,1,4.409,3.039v1.118a3.75,3.75,0,0,0-2.152-.677H9.67a.81.81,0,1,0,0,1.619h3.237a2.155,2.155,0,0,1,2.152,2.151v1.772a.81.81,0,0,0,.239.574.8.8,0,0,0,.575.236c.019,0,.039,0,.06,0,1.119.082,1.065.8,1.045,1.076-.07.945-.767,1.875-1.236,1.88a.81.81,0,0,0-.787.657,5.713,5.713,0,0,1-11.22,0,.811.811,0,0,0-.851-.656c-.463.03-1.192-.935-1.262-1.88-.02-.272-.073-.994,1.046-1.076Z" transform="translate(0 -156.652)"/>
      <circle id="Elipse_12830" data-name="Elipse 12830" cx="0.876" cy="0.876" r="0.876" transform="translate(5.702 42.324)"/>
      <circle id="Elipse_12831" data-name="Elipse 12831" cx="0.876" cy="0.876" r="0.876" transform="translate(11.237 42.324)"/>
      <path id="Trazado_1226556" data-name="Trazado 1226556" d="M53.75,318.762a1.169,1.169,0,0,0-.125,1.085,3.761,3.761,0,0,0,7.011,0,1.171,1.171,0,0,0-1.092-1.595H54.716A1.171,1.171,0,0,0,53.75,318.762Zm5.015,1.109a2.147,2.147,0,0,1-3.269,0Z" transform="translate(-47.783 -272.981)"/>
      <path id="Trazado_1226557" data-name="Trazado 1226557" d="M161.381,105.917a2.561,2.561,0,0,0-.577,1.919,3.8,3.8,0,0,0,2.27,3.292,7.333,7.333,0,0,0,14.144-.032,3.857,3.857,0,0,0,2.171-3.261,2.591,2.591,0,0,0-.506-1.833,4,4,0,0,0-.563-5.562.709.709,0,0,1-.258-.519A4.012,4.012,0,0,0,173.594,96a.768.768,0,0,1-.626-.215,4.013,4.013,0,0,0-5.608,0,.768.768,0,0,1-.626.215,4.01,4.01,0,0,0-4.466,3.922.709.709,0,0,1-.258.52,4,4,0,0,0-.629,5.475Zm16.393,1.8c-.07.945-.767,1.876-1.236,1.881a.81.81,0,0,0-.787.657,5.713,5.713,0,0,1-11.22,0,.81.81,0,0,0-.795-.658l-.056,0c-.465.03-1.192-.935-1.262-1.88-.02-.272-.073-.993,1.046-1.076a.663.663,0,0,1,.1,0,.81.81,0,0,0,.868-.788,4.072,4.072,0,0,1,4.045-3.947h3.33a4.023,4.023,0,0,1,4.045,3.944.81.81,0,0,0,.809.789h.006c.02,0,.04,0,.06,0h0C177.847,106.724,177.793,107.445,177.774,107.717Zm-14.722-6.036a2.317,2.317,0,0,0,.836-1.734,2.464,2.464,0,0,1,.029-.339,2.394,2.394,0,0,1,2.635-2,2.383,2.383,0,0,0,1.94-.666,2.393,2.393,0,0,1,3.345,0,2.382,2.382,0,0,0,1.94.666,2.39,2.39,0,0,1,2.665,2.339,2.317,2.317,0,0,0,.836,1.733,2.386,2.386,0,0,1,.219,3.453c-.029-.008-.057-.017-.086-.024a5.668,5.668,0,0,0-5.6-4.823h-3.33a5.668,5.668,0,0,0-5.6,4.8l-.065.016a2.381,2.381,0,0,1,.241-3.425Z" transform="translate(-143.298 -73.435)"/>
      <circle id="Elipse_12832" data-name="Elipse 12832" cx="0.876" cy="0.876" r="0.876" transform="translate(23.199 32.622)"/>
      <circle id="Elipse_12833" data-name="Elipse 12833" cx="0.876" cy="0.876" r="0.876" transform="translate(28.735 32.622)"/>
      <path id="Trazado_1226558" data-name="Trazado 1226558" d="M229.294,236.519a1.57,1.57,0,0,1-2.324,0,.81.81,0,1,0-1.2,1.09,3.19,3.19,0,0,0,4.719,0,.81.81,0,0,0-1.2-1.09Z" transform="translate(-201.288 -199.808)"/>
      <path id="Trazado_1226559" data-name="Trazado 1226559" d="M340.032,27.484V31.7a1.979,1.979,0,0,0,1.977,1.977h12.578a1.979,1.979,0,0,0,1.977-1.977V27.427c0-.019,0-.038,0-.056a4.339,4.339,0,0,0,.977-2.388,2.461,2.461,0,0,0-.975-2.28V20.616a8.275,8.275,0,0,0-8.265-8.265,7.627,7.627,0,0,0-4.46,1.312,8.264,8.264,0,0,0-3.806,6.953v2.015a2.448,2.448,0,0,0-1.08,2.352A4.288,4.288,0,0,0,340.032,27.484Zm1.13-3.611a1.851,1.851,0,0,1,.451-.084.7.7,0,0,1,.1,0,.81.81,0,0,0,.865-.808V21.207a2.164,2.164,0,0,1,1.6-2.08,8.758,8.758,0,0,0,6.34,4.263.876.876,0,1,0,1.2.123c.136.005.273.009.411.009a10.026,10.026,0,0,0,1.953-.19.8.8,0,0,0,.731.456l.06,0c1.119.082,1.066.8,1.046,1.076-.07.945-.767,1.876-1.236,1.88a.81.81,0,0,0-.787.657,5.713,5.713,0,0,1-11.219,0,.809.809,0,0,0-.851-.656c-.465.028-1.192-.935-1.262-1.88a.853.853,0,0,1,.516-.962.838.838,0,0,0,.08-.03Zm.489,7.83V29.434a7.332,7.332,0,0,0,2.081,2.626h-1.724A.358.358,0,0,1,341.652,31.7Zm12.935.357h-1.738a7.332,7.332,0,0,0,2.1-2.657v2.3A.358.358,0,0,1,354.586,32.06Zm.357-11.444v.8a8.211,8.211,0,0,1-2.81.485c-3.963,0-7.188-2.727-7.188-6.079a5.155,5.155,0,0,1,.1-1,6.642,6.642,0,0,1,9.9,5.792ZM343.338,16.2a6.766,6.766,0,0,0,.233,1.419,3.786,3.786,0,0,0-1.63,1.059A6.644,6.644,0,0,1,343.338,16.2Z" transform="translate(-302.469)"/>
      <circle id="Elipse_12834" data-name="Elipse 12834" cx="0.876" cy="0.876" r="0.876" transform="translate(42.178 23.205)"/>
      <path id="Trazado_1226560" data-name="Trazado 1226560" d="M55.179,221.026a1.956,1.956,0,0,0-1.954-1.954H37.873a1.956,1.956,0,0,0-1.954,1.954V228.6H20.232a1.956,1.956,0,0,0-1.954,1.954v7.571H2.044A1.956,1.956,0,0,0,.09,240.076v7.236a1.956,1.956,0,0,0,1.954,1.954H53.225a1.956,1.956,0,0,0,1.954-1.954ZM53.56,247.312a.335.335,0,0,1-.335.335H2.044a.335.335,0,0,1-.335-.335v-7.236a.335.335,0,0,1,.335-.335H22.357a.81.81,0,1,0,0-1.619H19.9v-7.571a.335.335,0,0,1,.335-.335H45.549a.81.81,0,1,0,0-1.619H37.538v-7.571a.335.335,0,0,1,.335-.335H53.225a.335.335,0,0,1,.335.335V228.6H49.209a.81.81,0,1,0,0,1.619H53.56v7.906h-27.5a.81.81,0,1,0,0,1.619h27.5v7.571Z" transform="translate(-0.081 -184.475)"/>
    </g>
  </g>
</svg>
