<svg xmlns="http://www.w3.org/2000/svg" xmlns:xlink="http://www.w3.org/1999/xlink" width="113" height="113" viewBox="0 0 113 113">
  <defs>
    <filter id="Trazado_982547" x="0" y="0" width="113" height="113" filterUnits="userSpaceOnUse">
      <feOffset dy="3" input="SourceAlpha"/>
      <feGaussianBlur stdDeviation="3" result="blur"/>
      <feFlood flood-opacity="0.161"/>
      <feComposite operator="in" in2="blur"/>
      <feComposite in="SourceGraphic"/>
    </filter>
  </defs>
  <g id="Grupo_1237000" data-name="Grupo 1237000" transform="translate(-10296 -7323.956)">
    <g id="Grupo_1236235" data-name="Grupo 1236235" transform="translate(9499 4530.837)">
      <g id="Grupo_1235105" data-name="Grupo 1235105" transform="translate(3.131 2004.79)">
        <g id="Grupo_1223793" data-name="Grupo 1223793" transform="translate(0.869 -700.672)">
          <g id="Grupo_1208028" data-name="Grupo 1208028" transform="translate(-0.49 -4138.425)">
            <g id="Grupo_1177675" data-name="Grupo 1177675" transform="translate(-4493 3707.152)">
              <g id="Grupo_1176928" data-name="Grupo 1176928" transform="translate(5295.49 1926.273)">
                <g id="Grupo_1172322" data-name="Grupo 1172322" transform="translate(0 0)">
                  <g id="Grupo_1164700" data-name="Grupo 1164700">
                    <g id="Grupo_1160931" data-name="Grupo 1160931">
                      <g id="Grupo_1160749" data-name="Grupo 1160749">
                        <g id="Grupo_1158891" data-name="Grupo 1158891">
                          <g id="Grupo_1157406" data-name="Grupo 1157406">
                            <g id="Grupo_1155793" data-name="Grupo 1155793">
                              <g id="Grupo_1154704" data-name="Grupo 1154704">
                                <g id="Grupo_1150790" data-name="Grupo 1150790">
                                  <g id="Grupo_1154214" data-name="Grupo 1154214">
                                    <g id="Grupo_1152583" data-name="Grupo 1152583">
                                      <g id="Grupo_1146973" data-name="Grupo 1146973">
                                        <g id="Grupo_1146954" data-name="Grupo 1146954">
                                          <g transform="matrix(1, 0, 0, 1, -9, -6)" filter="url(#Trazado_982547)">
                                            <g id="Trazado_982547-2" data-name="Trazado 982547" transform="translate(9 6)" fill="#e1daf7">
                                              <path d="M 47.5000114440918 93.49987030029297 C 41.28938293457031 93.49987030029297 35.26534652709961 92.28384399414062 29.5951976776123 89.88558959960938 C 24.11773109436035 87.56881713867188 19.19814491271973 84.25183868408203 14.97310447692871 80.02680206298828 C 10.74805164337158 75.80176544189453 7.43107795715332 70.88218688964844 5.114304542541504 65.40472412109375 C 2.716038227081299 59.73458862304688 1.500011444091797 53.71054840087891 1.500011444091797 47.49993515014648 C 1.500011444091797 41.28932189941406 2.716038227081299 35.26528167724609 5.114304542541504 29.59514808654785 C 7.43107795715332 24.1176815032959 10.74805164337158 19.1981086730957 14.97310447692871 14.97306823730469 C 19.19814491271973 10.74802875518799 24.11773109436035 7.431055068969727 29.5951976776123 5.11428165435791 C 35.26534652709961 2.716028451919556 41.28938293457031 1.500001788139343 47.5000114440918 1.500001788139343 C 53.71063995361328 1.500001788139343 59.73467636108398 2.716028451919556 65.40482330322266 5.11428165435791 C 70.88229370117188 7.431055068969727 75.8018798828125 10.74802875518799 80.02691650390625 14.97306823730469 C 84.25196838378906 19.1981086730957 87.56894683837891 24.1176815032959 89.88571929931641 29.59514808654785 C 92.28398132324219 35.26528167724609 93.50001525878906 41.28932189941406 93.50001525878906 47.49993515014648 C 93.50001525878906 53.71054840087891 92.28398132324219 59.73458862304688 89.88571929931641 65.40472412109375 C 87.56894683837891 70.88218688964844 84.25196838378906 75.80176544189453 80.02691650390625 80.02680206298828 C 75.8018798828125 84.25183868408203 70.88229370117188 87.56881713867188 65.40482330322266 89.88558959960938 C 59.73467636108398 92.28384399414062 53.71063995361328 93.49987030029297 47.5000114440918 93.49987030029297 Z" stroke="none"/>
                                              <path d="M 47.5000114440918 3 C 41.49122619628906 3 35.66378021240234 4.1761474609375 30.17951965332031 6.495796203613281 C 24.880859375 8.7369384765625 20.12153625488281 11.94596862792969 16.03376770019531 16.03373718261719 C 11.94598388671875 20.12149047851562 8.736968994140625 24.88081359863281 6.495811462402344 30.17947387695312 C 4.176162719726562 35.66371917724609 3.000007629394531 41.49116516113281 3.000007629394531 47.49993515014648 C 3.000007629394531 53.50870513916016 4.176162719726562 59.33615112304688 6.495811462402344 64.82039642333984 C 8.736968994140625 70.11905670166016 11.94598388671875 74.87837982177734 16.03376770019531 78.96613311767578 C 20.12153625488281 83.05390167236328 24.880859375 86.26293182373047 30.17951965332031 88.50407409667969 C 35.66378021240234 90.82372283935547 41.49122619628906 91.99987030029297 47.5000114440918 91.99987030029297 C 53.50879669189453 91.99987030029297 59.33624267578125 90.82372283935547 64.82050323486328 88.50407409667969 C 70.11916351318359 86.26293182373047 74.87848663330078 83.05390167236328 78.96625518798828 78.96613311767578 C 83.05403900146484 74.87837982177734 86.2630615234375 70.11905670166016 88.50421142578125 64.82039642333984 C 90.82386016845703 59.33615112304688 92.00001525878906 53.50870513916016 92.00001525878906 47.49993515014648 C 92.00001525878906 41.49116516113281 90.82386016845703 35.66371917724609 88.50421142578125 30.17947387695312 C 86.2630615234375 24.88081359863281 83.05403900146484 20.12149047851562 78.96625518798828 16.03373718261719 C 74.87848663330078 11.94596862792969 70.11916351318359 8.7369384765625 64.82050323486328 6.495796203613281 C 59.33624267578125 4.1761474609375 53.50879669189453 3 47.5000114440918 3 M 47.5000114440918 0 C 73.73353576660156 0 95.00001525878906 21.26644134521484 95.00001525878906 47.49993515014648 C 95.00001525878906 73.73342895507812 73.73353576660156 94.99987030029297 47.5000114440918 94.99987030029297 C 21.26648712158203 94.99987030029297 7.62939453125e-06 73.73342895507812 7.62939453125e-06 47.49993515014648 C 7.62939453125e-06 21.26644134521484 21.26648712158203 0 47.5000114440918 0 Z" stroke="none" fill="#6c4dd8"/>
                                            </g>
                                          </g>
                                        </g>
                                      </g>
                                    </g>
                                  </g>
                                </g>
                              </g>
                            </g>
                          </g>
                        </g>
                      </g>
                    </g>
                  </g>
                </g>
              </g>
            </g>
          </g>
        </g>
      </g>
    </g>
    <g id="mision-cumplida_3_" data-name="mision-cumplida (3)" transform="translate(10313.668 7338.031)">
      <g id="Grupo_1236999" data-name="Grupo 1236999" transform="translate(9.203 9.106)">
        <g id="Grupo_1236997" data-name="Grupo 1236997" transform="translate(0 0)">
          <path id="Trazado_1227194" data-name="Trazado 1227194" d="M48.033,20.219A21.731,21.731,0,0,1,54.4,22.857l4.135-1.836L63.4,25.894l-1.836,4.133a21.729,21.729,0,0,1,2.638,6.365l4.218,1.624v6.892l-4.219,1.624A21.731,21.731,0,0,1,61.568,52.9L63.4,57.03,58.531,61.9,54.4,60.067a21.725,21.725,0,0,1-6.365,2.638l-1.624,4.218H39.517L37.893,62.7a21.732,21.732,0,0,1-6.363-2.638L27.4,61.9,22.522,57.03,24.358,52.9a21.731,21.731,0,0,1-2.638-6.365L17.5,44.908V38.016l4.219-1.624a21.729,21.729,0,0,1,2.638-6.364l-1.836-4.134L27.4,21.021l4.135,1.836a21.734,21.734,0,0,1,6.363-2.638L39.518,16h6.892Z" transform="translate(-17.501 -16)" fill="#ffe177" fill-rule="evenodd"/>
          <path id="Trazado_1227195" data-name="Trazado 1227195" d="M95.557,60.067,91.422,61.9l-.637-.637,3.877-1.722q.441.272.895.522Zm16.5-39.847a21.73,21.73,0,0,1,6.363,2.638l-1.175.522a28.664,28.664,0,0,0-7.258-3.16L108.365,16h2.07Zm6.364,39.848a21.726,21.726,0,0,1-6.365,2.638l-1.624,4.218h-2.07l1.624-4.218a28.653,28.653,0,0,0,7.259-3.16ZM90.785,21.658l.637-.637,4.135,1.836q-.453.25-.895.522Zm30.339,0,1.433-.637,4.873,4.873-1.836,4.133a21.728,21.728,0,0,1,2.638,6.365l4.218,1.624v6.892l-4.219,1.624a21.73,21.73,0,0,1-2.638,6.363l1.836,4.135L122.557,61.9l-1.433-.637,4.237-4.237L123.524,52.9a21.731,21.731,0,0,0,2.638-6.363l4.219-1.624V38.016l-4.218-1.624a21.729,21.729,0,0,0-2.639-6.365l1.836-4.133Z" transform="translate(-81.527 -16)" fill="#ffd064" fill-rule="evenodd"/>
          <circle id="Elipse_12902" data-name="Elipse 12902" cx="13.501" cy="13.501" r="13.501" transform="translate(9.22 15.417) rotate(-13.3)" fill="#eceff1"/>
          <path id="Trazado_1227196" data-name="Trazado 1227196" d="M125.684,110.68a13.5,13.5,0,0,0,0,27q.542,0,1.074-.042a13.5,13.5,0,0,1,0-26.918Q126.227,110.681,125.684,110.68Z" transform="translate(-100.222 -98.719)" fill="#d1d1d6" fill-rule="evenodd"/>
        </g>
        <g id="Grupo_1236998" data-name="Grupo 1236998" transform="translate(25.103 25.518)">
          <circle id="Elipse_12903" data-name="Elipse 12903" cx="15.842" cy="15.842" r="15.842" transform="translate(0 3.435)" fill="#fe646f"/>
          <path id="Trazado_1227197" data-name="Trazado 1227197" d="M337.247,245.192a15.842,15.842,0,1,1,0,31.684c-.212,0-.422-.005-.632-.014a15.841,15.841,0,0,0,0-31.657C336.825,245.2,337.035,245.192,337.247,245.192Z" transform="translate(-321.404 -241.757)" fill="#fd4755" fill-rule="evenodd"/>
          <circle id="Elipse_12904" data-name="Elipse 12904" cx="10.18" cy="10.18" r="10.18" transform="translate(5.662 9.097)" fill="#eceff1"/>
          <path id="Trazado_1227198" data-name="Trazado 1227198" d="M271.209,290.011c.212,0,.423.007.632.02a10.18,10.18,0,0,0,0,20.32c-.209.013-.419.02-.632.02a10.18,10.18,0,1,1,0-20.361Z" transform="translate(-255.367 -280.914)" fill="#d1d1d6" fill-rule="evenodd"/>
          <circle id="Elipse_12905" data-name="Elipse 12905" cx="4.518" cy="4.518" r="4.518" transform="translate(9.957 16.825) rotate(-22.514)" fill="#fe646f"/>
          <path id="Trazado_1227199" data-name="Trazado 1227199" d="M310.366,334.829a4.548,4.548,0,0,1,.632.044,4.519,4.519,0,0,0,0,8.948,4.518,4.518,0,1,1-.632-8.993Z" transform="translate(-294.524 -320.07)" fill="#fd4755" fill-rule="evenodd"/>
          <path id="Trazado_1227200" data-name="Trazado 1227200" d="M412.64,224.047l-5.662,5.662a.369.369,0,0,1-.348.1l-4.441-.957a.372.372,0,0,1-.291-.291l-.957-4.441a.369.369,0,0,1,.1-.348l5.662-5.662a.379.379,0,0,1,.638.188l.854,3.963a.372.372,0,0,0,.291.291l3.963.854a.379.379,0,0,1,.188.638Z" transform="translate(-377.596 -218.001)" fill="#e3a76f" fill-rule="evenodd"/>
          <path id="Trazado_1227201" data-name="Trazado 1227201" d="M418.867,261.241,413.2,266.9a.369.369,0,0,1-.348.1l-4.441-.957a.372.372,0,0,1-.291-.291l-.066-.306,4.418.952a.369.369,0,0,0,.348-.1l5.662-5.662a.4.4,0,0,0,.054-.067l.138.03a.379.379,0,0,1,.188.638Z" transform="translate(-383.823 -255.195)" fill="#c48958" fill-rule="evenodd"/>
        </g>
      </g>
      <path id="Trazado_1227202" data-name="Trazado 1227202" d="M67.625,40.762l-2.532-.545-4.6,4.6,2.53.545ZM38.155,8.109a1.011,1.011,0,0,1,.709.62L40.3,12.459a22.693,22.693,0,0,1,5.677,2.354l3.655-1.624a1.011,1.011,0,0,1,1.125.209l4.873,4.873a1.011,1.011,0,0,1,.209,1.125L54.216,23.05a22.688,22.688,0,0,1,2.354,5.68L60.3,30.165a1.012,1.012,0,0,1,.647.943V32.65a1.011,1.011,0,1,1-2.021,0V31.8l-3.57-1.375a1.007,1.007,0,0,1-.62-.709,20.673,20.673,0,0,0-2.517-6.069,1.012,1.012,0,0,1-.063-.94l1.555-3.5-3.892-3.892-3.5,1.554a1.011,1.011,0,0,1-.94-.063,20.668,20.668,0,0,0-6.067-2.515,1.007,1.007,0,0,1-.709-.62L37.226,10.1h-5.5l-1.375,3.572a1.013,1.013,0,0,1-.709.62,20.673,20.673,0,0,0-6.067,2.515,1.011,1.011,0,0,1-.94.063l-3.5-1.554L15.239,19.21l1.555,3.5a1.014,1.014,0,0,1-.063.94,20.651,20.651,0,0,0-2.515,6.068,1.014,1.014,0,0,1-.62.709L10.024,31.8v5.5l3.571,1.374a1.012,1.012,0,0,1,.62.709,20.662,20.662,0,0,0,2.516,6.069,1.013,1.013,0,0,1,.063.94l-1.555,3.5,3.892,3.892,3.5-1.555a1.011,1.011,0,0,1,.94.063,20.673,20.673,0,0,0,6.067,2.515,1.011,1.011,0,0,1,.709.62l1.419,3.684a1.011,1.011,0,0,1-.464,1.909h-.274a1.009,1.009,0,0,1-.943-.648l-1.436-3.73A22.672,22.672,0,0,1,22.973,54.3l-3.656,1.623a1.008,1.008,0,0,1-1.124-.209l-4.874-4.873a1.011,1.011,0,0,1-.208-1.125l1.624-3.654a22.653,22.653,0,0,1-2.355-5.679L8.649,38.943A1.009,1.009,0,0,1,8,38V31.108a1.009,1.009,0,0,1,.646-.943l3.729-1.436a22.654,22.654,0,0,1,2.355-5.678L13.11,19.4a1.01,1.01,0,0,1,.208-1.125L18.192,13.4a1.009,1.009,0,0,1,1.124-.209l3.656,1.624a22.677,22.677,0,0,1,5.677-2.354l1.436-3.729a1.009,1.009,0,0,1,.709-.62h7.36ZM64.788,53.888A14.825,14.825,0,1,1,56.407,40.53a1.042,1.042,0,0,0,.021.213l.936,4.344-.225.225a11.195,11.195,0,1,0,1.426,1.432l.229-.228,4.343.936a.992.992,0,0,0,.2.022,14.86,14.86,0,0,1,1.455,6.413ZM55.7,46.749a9.184,9.184,0,1,0,1.425,1.433l-2.6,2.6a5.539,5.539,0,1,1-1.423-1.436Zm-2.644,5.5L50.69,54.62a1.011,1.011,0,0,1-1.43-1.429l2.38-2.38a3.508,3.508,0,1,0,1.419,1.44Zm5.461-11.4,4.6-4.6.546,2.531-4.6,4.6Zm11.845.024-5.379,5.379a16.851,16.851,0,1,1-7.352-7.375L63,33.516a1.011,1.011,0,0,1,1.7.5l.661,3.069.315-.315a1.011,1.011,0,0,1,1.43,1.429l-.315.315,3.069.661a1.01,1.01,0,0,1,.5,1.7ZM33.8,39.7l7.3-9.028A1.011,1.011,0,1,0,39.53,29.4l-6.6,8.154-3.587-3.587A1.01,1.01,0,1,0,27.918,35.4L32.3,39.783a1.013,1.013,0,0,0,.715.3h.054A1.012,1.012,0,0,0,33.8,39.7Zm-2.24,7a12.492,12.492,0,1,1,15.4-12.333,1.01,1.01,0,0,0,1.01,1h.015a1.009,1.009,0,0,0,1-1.025,14.512,14.512,0,1,0-25.851,9.268,14.584,14.584,0,0,0,7.959,5.06,1,1,0,0,0,.235.028,1.011,1.011,0,0,0,.234-1.994Z" fill="#242222" fill-rule="evenodd"/>
    </g>
  </g>
</svg>
