<svg xmlns="http://www.w3.org/2000/svg" xmlns:xlink="http://www.w3.org/1999/xlink" width="113" height="113" viewBox="0 0 113 113">
  <defs>
    <filter id="Trazado_982547" x="0" y="0" width="113" height="113" filterUnits="userSpaceOnUse">
      <feOffset dy="3" input="SourceAlpha"/>
      <feGaussianBlur stdDeviation="3" result="blur"/>
      <feFlood flood-opacity="0.161"/>
      <feComposite operator="in" in2="blur"/>
      <feComposite in="SourceGraphic"/>
    </filter>
  </defs>
  <g id="Grupo_1237018" data-name="Grupo 1237018" transform="translate(-10613 -7324.478)">
    <g id="Grupo_1236236" data-name="Grupo 1236236" transform="translate(9501 4531.359)">
      <g id="Grupo_1235107" data-name="Grupo 1235107" transform="translate(-0.869 2004.79)">
        <g id="Grupo_1223796" data-name="Grupo 1223796" transform="translate(0.869 -700.672)">
          <g id="Grupo_1208038" data-name="Grupo 1208038" transform="translate(0 -4138.425)">
            <g id="Grupo_1202104" data-name="Grupo 1202104" transform="translate(0 -1149.226)">
              <g id="Grupo_1201923" data-name="Grupo 1201923" transform="translate(-4174.49 4856.378)">
                <g id="Grupo_1176928" data-name="Grupo 1176928" transform="translate(5295.49 1926.273)">
                  <g id="Grupo_1172322" data-name="Grupo 1172322" transform="translate(0 0)">
                    <g id="Grupo_1164700" data-name="Grupo 1164700">
                      <g id="Grupo_1160931" data-name="Grupo 1160931">
                        <g id="Grupo_1160749" data-name="Grupo 1160749">
                          <g id="Grupo_1158891" data-name="Grupo 1158891">
                            <g id="Grupo_1157406" data-name="Grupo 1157406">
                              <g id="Grupo_1155793" data-name="Grupo 1155793">
                                <g id="Grupo_1154704" data-name="Grupo 1154704">
                                  <g id="Grupo_1150790" data-name="Grupo 1150790">
                                    <g id="Grupo_1154214" data-name="Grupo 1154214">
                                      <g id="Grupo_1152583" data-name="Grupo 1152583">
                                        <g id="Grupo_1146973" data-name="Grupo 1146973">
                                          <g id="Grupo_1146954" data-name="Grupo 1146954">
                                            <g transform="matrix(1, 0, 0, 1, -9, -6)" filter="url(#Trazado_982547)">
                                              <g id="Trazado_982547-2" data-name="Trazado 982547" transform="translate(9 6)" fill="#e1daf7">
                                                <path d="M 47.5000114440918 93.49987030029297 C 41.28938293457031 93.49987030029297 35.26534652709961 92.28384399414062 29.5951976776123 89.88558959960938 C 24.11773109436035 87.56881713867188 19.19814491271973 84.25183868408203 14.97310447692871 80.02680206298828 C 10.74805164337158 75.80176544189453 7.43107795715332 70.88218688964844 5.114304542541504 65.40472412109375 C 2.716038227081299 59.73458862304688 1.500011444091797 53.71054840087891 1.500011444091797 47.49993515014648 C 1.500011444091797 41.28932189941406 2.716038227081299 35.26528167724609 5.114304542541504 29.59514808654785 C 7.43107795715332 24.1176815032959 10.74805164337158 19.1981086730957 14.97310447692871 14.97306823730469 C 19.19814491271973 10.74802875518799 24.11773109436035 7.431055068969727 29.5951976776123 5.11428165435791 C 35.26534652709961 2.716028451919556 41.28938293457031 1.500001788139343 47.5000114440918 1.500001788139343 C 53.71063995361328 1.500001788139343 59.73467636108398 2.716028451919556 65.40482330322266 5.11428165435791 C 70.88229370117188 7.431055068969727 75.8018798828125 10.74802875518799 80.02691650390625 14.97306823730469 C 84.25196838378906 19.1981086730957 87.56894683837891 24.1176815032959 89.88571929931641 29.59514808654785 C 92.28398132324219 35.26528167724609 93.50001525878906 41.28932189941406 93.50001525878906 47.49993515014648 C 93.50001525878906 53.71054840087891 92.28398132324219 59.73458862304688 89.88571929931641 65.40472412109375 C 87.56894683837891 70.88218688964844 84.25196838378906 75.80176544189453 80.02691650390625 80.02680206298828 C 75.8018798828125 84.25183868408203 70.88229370117188 87.56881713867188 65.40482330322266 89.88558959960938 C 59.73467636108398 92.28384399414062 53.71063995361328 93.49987030029297 47.5000114440918 93.49987030029297 Z" stroke="none"/>
                                                <path d="M 47.5000114440918 3 C 41.49122619628906 3 35.66378021240234 4.1761474609375 30.17951965332031 6.495796203613281 C 24.880859375 8.7369384765625 20.12153625488281 11.94596862792969 16.03376770019531 16.03373718261719 C 11.94598388671875 20.12149047851562 8.736968994140625 24.88081359863281 6.495811462402344 30.17947387695312 C 4.176162719726562 35.66371917724609 3.000007629394531 41.49116516113281 3.000007629394531 47.49993515014648 C 3.000007629394531 53.50870513916016 4.176162719726562 59.33615112304688 6.495811462402344 64.82039642333984 C 8.736968994140625 70.11905670166016 11.94598388671875 74.87837982177734 16.03376770019531 78.96613311767578 C 20.12153625488281 83.05390167236328 24.880859375 86.26293182373047 30.17951965332031 88.50407409667969 C 35.66378021240234 90.82372283935547 41.49122619628906 91.99987030029297 47.5000114440918 91.99987030029297 C 53.50879669189453 91.99987030029297 59.33624267578125 90.82372283935547 64.82050323486328 88.50407409667969 C 70.11916351318359 86.26293182373047 74.87848663330078 83.05390167236328 78.96625518798828 78.96613311767578 C 83.05403900146484 74.87837982177734 86.2630615234375 70.11905670166016 88.50421142578125 64.82039642333984 C 90.82386016845703 59.33615112304688 92.00001525878906 53.50870513916016 92.00001525878906 47.49993515014648 C 92.00001525878906 41.49116516113281 90.82386016845703 35.66371917724609 88.50421142578125 30.17947387695312 C 86.2630615234375 24.88081359863281 83.05403900146484 20.12149047851562 78.96625518798828 16.03373718261719 C 74.87848663330078 11.94596862792969 70.11916351318359 8.7369384765625 64.82050323486328 6.495796203613281 C 59.33624267578125 4.1761474609375 53.50879669189453 3 47.5000114440918 3 M 47.5000114440918 0 C 73.73353576660156 0 95.00001525878906 21.26644134521484 95.00001525878906 47.49993515014648 C 95.00001525878906 73.73342895507812 73.73353576660156 94.99987030029297 47.5000114440918 94.99987030029297 C 21.26648712158203 94.99987030029297 7.62939453125e-06 73.73342895507812 7.62939453125e-06 47.49993515014648 C 7.62939453125e-06 21.26644134521484 21.26648712158203 0 47.5000114440918 0 Z" stroke="none" fill="#6c4dd8"/>
                                              </g>
                                            </g>
                                          </g>
                                        </g>
                                      </g>
                                    </g>
                                  </g>
                                </g>
                              </g>
                            </g>
                          </g>
                        </g>
                      </g>
                    </g>
                  </g>
                </g>
              </g>
            </g>
          </g>
        </g>
      </g>
    </g>
    <g id="desarrollando" transform="translate(10640 7349.521)">
      <g id="Grupo_1237016" data-name="Grupo 1237016" transform="translate(1.935 1.878)">
        <g id="Grupo_1237001" data-name="Grupo 1237001" transform="translate(44.903 0)">
          <path id="Trazado_1227203" data-name="Trazado 1227203" d="M54.677,2l4.677,7.484H57.484v15.9H51.871V9.484H50Z" transform="translate(-50 -2)" fill="#b4dd7f"/>
        </g>
        <g id="Grupo_1237002" data-name="Grupo 1237002" transform="translate(1.871 33.677)">
          <path id="Trazado_1227204" data-name="Trazado 1227204" d="M8.677,38l4.677,7.484H11.484v15.9H5.871v-15.9H4Z" transform="translate(-4 -38)" fill="#b4dd7f"/>
        </g>
        <g id="Grupo_1237003" data-name="Grupo 1237003" transform="translate(34.126 28.588)">
          <path id="Trazado_1227205" data-name="Trazado 1227205" d="M48.536,36.04a16.923,16.923,0,0,0,1.553-3.209,3.692,3.692,0,0,0,.43.215,3.6,3.6,0,0,0,3.48-.4l.112-.084,3.976,3.976L58,36.648a3.624,3.624,0,0,0-.4,3.48,3.618,3.618,0,0,0,2.741,2.18l.14.019v5.613l-.14.028A3.6,3.6,0,0,0,58,53.618l.084.112L54.112,57.7,54,57.622a3.624,3.624,0,0,0-3.48-.4,3.618,3.618,0,0,0-2.18,2.741l-.019.14H42.708l-.028-.15a3.588,3.588,0,0,0-2.17-2.732A3.7,3.7,0,0,0,38.48,57,7.494,7.494,0,0,0,39.9,52.617a9.356,9.356,0,1,0,8.513-16.38h-.009c.047-.065.094-.131.131-.2Z" transform="translate(-38.48 -32.56)" fill="#ffc729"/>
        </g>
        <g id="Grupo_1237004" data-name="Grupo 1237004">
          <path id="Trazado_1227206" data-name="Trazado 1227206" d="M11.982,20.335l-.627,4.621c0,.122,0,.253.009.374h-.009a1.8,1.8,0,0,0-1.123-1.665c-.009,0-.009-.009-.019-.009a1.8,1.8,0,0,0-1.965.384l-.7.7L3.581,20.775l.7-.7a1.8,1.8,0,0,0,.384-1.965c0-.009-.009-.009-.009-.019a1.8,1.8,0,0,0-1.665-1.123H2V11.355h.992a1.8,1.8,0,0,0,1.665-1.123c0-.009.009-.009.009-.019a1.8,1.8,0,0,0-.384-1.965l-.7-.7L7.547,3.581l.7.7a1.8,1.8,0,0,0,1.965.384c.009,0,.009-.009.019-.009a1.8,1.8,0,0,0,1.123-1.665V2h5.613v.992A1.8,1.8,0,0,0,18.09,4.657c.009,0,.009.009.019.009a1.8,1.8,0,0,0,1.965-.384l.7-.7,3.966,3.966-.7.7a17.123,17.123,0,0,0-4.6,2.049v-.009a6.547,6.547,0,1,0-7.456,10.047Z" transform="translate(-2 -2)" fill="#ffc729"/>
        </g>
        <g id="Grupo_1237005" data-name="Grupo 1237005" transform="translate(5.613 5.613)">
          <path id="Trazado_1227207" data-name="Trazado 1227207" d="M19.825,10.675v.009A17.078,17.078,0,0,0,16.9,13a2.809,2.809,0,1,0-3.143,4.238,16.772,16.772,0,0,0-1.385,3.48,6.547,6.547,0,1,1,7.456-10.047Z" transform="translate(-8 -8)" fill="#fcd770"/>
        </g>
        <g id="Grupo_1237006" data-name="Grupo 1237006" transform="translate(33.677 32.265)">
          <path id="Trazado_1227208" data-name="Trazado 1227208" d="M39.871,45.386a5.613,5.613,0,1,0,5.809-5.613l-.009-.009a16.791,16.791,0,0,0,2.7-3.274h.009a9.356,9.356,0,1,1-8.513,16.38v-.935A.938.938,0,0,0,38.935,51H38V47.257h.935a.938.938,0,0,0,.935-.935Z" transform="translate(-38 -36.49)" fill="#fcd770"/>
        </g>
        <g id="Grupo_1237007" data-name="Grupo 1237007" transform="translate(20.581 46.774)">
          <path id="Trazado_1227209" data-name="Trazado 1227209" d="M38.968,52.935v.935a7.494,7.494,0,0,1-1.422,4.387,7.871,7.871,0,0,1-.767.907A7.488,7.488,0,0,1,24,53.871v-.935A.938.938,0,0,1,24.935,52h13.1A.938.938,0,0,1,38.968,52.935Z" transform="translate(-24 -52)" fill="#aab2bd"/>
        </g>
        <g id="Grupo_1237008" data-name="Grupo 1237008" transform="translate(22.452 43.032)">
          <path id="Trazado_1227210" data-name="Trazado 1227210" d="M37.226,48v3.742H26V48H37.226Z" transform="translate(-26 -48)" fill="#ccd1d9"/>
        </g>
        <g id="Grupo_1237009" data-name="Grupo 1237009" transform="translate(9.355 5.613)">
          <path id="Trazado_1227211" data-name="Trazado 1227211" d="M38.194,43.548v.935a.938.938,0,0,1-.935.935H32.581V36.065H28.839v9.355H24.161a.938.938,0,0,1-.935-.935V34.194H19.484V39.6a17.293,17.293,0,0,1-7.475-13.883C12,25.6,12,25.465,12,25.344l.627-4.621a16.773,16.773,0,0,1,1.385-3.48A17.3,17.3,0,0,1,17.08,13.08L17.155,13a17.509,17.509,0,0,1,7.531-4.369A17.4,17.4,0,0,1,29.344,8h2.732A17.337,17.337,0,0,1,48.381,31.247a16.923,16.923,0,0,1-1.553,3.209c-.037.065-.084.131-.131.2a16.791,16.791,0,0,1-2.7,3.274A15.328,15.328,0,0,1,41.935,39.6V26.71H38.194V43.548Z" transform="translate(-12 -8)" fill="#ffeaa7"/>
        </g>
        <g id="Grupo_1237010" data-name="Grupo 1237010" transform="translate(33.677 13.097)">
          <path id="Trazado_1227212" data-name="Trazado 1227212" d="M41.742,16A3.744,3.744,0,1,1,38,19.742,3.741,3.741,0,0,1,41.742,16Z" transform="translate(-38 -16)" fill="#ff826e"/>
        </g>
        <g id="Grupo_1237011" data-name="Grupo 1237011" transform="translate(24.323 22.452)">
          <path id="Trazado_1227213" data-name="Trazado 1227213" d="M34.389,27.095A3.744,3.744,0,1,1,31.742,26,3.765,3.765,0,0,1,34.389,27.095Z" transform="translate(-28 -26)" fill="#ff826e"/>
        </g>
        <g id="Grupo_1237012" data-name="Grupo 1237012" transform="translate(16.839 24.323)">
          <circle id="Elipse_12906" data-name="Elipse 12906" cx="1.871" cy="1.871" r="1.871" fill="#ff826e"/>
        </g>
        <g id="Grupo_1237013" data-name="Grupo 1237013" transform="translate(35.548 24.323)">
          <path id="Trazado_1227214" data-name="Trazado 1227214" d="M43.742,40.891V40.9a16.822,16.822,0,0,1-2.1,1.244L40,42.968V28h3.742Z" transform="translate(-40 -28)" fill="#e6e9ed"/>
        </g>
        <g id="Grupo_1237014" data-name="Grupo 1237014" transform="translate(26.194 33.677)">
          <path id="Trazado_1227215" data-name="Trazado 1227215" d="M30,38h3.742v9.355H30Z" transform="translate(-30 -38)" fill="#e6e9ed"/>
        </g>
        <g id="Grupo_1237015" data-name="Grupo 1237015" transform="translate(16.839 31.806)">
          <path id="Trazado_1227216" data-name="Trazado 1227216" d="M23.742,36v7.484L22.1,42.661A16.822,16.822,0,0,1,20,41.416V36Z" transform="translate(-20 -36)" fill="#e6e9ed"/>
        </g>
      </g>
      <g id="Grupo_1237017" data-name="Grupo 1237017" transform="translate(1 0.113)">
        <circle id="Elipse_12907" data-name="Elipse 12907" cx="0.935" cy="0.935" r="0.935" transform="translate(28.065 27.023)"/>
        <path id="Trazado_1227217" data-name="Trazado 1227217" d="M31.161,33.71a4.67,4.67,0,0,0,3.9-7.253l2.881-2.881a4.691,4.691,0,1,0-1.323-1.323l-2.881,2.881A4.669,4.669,0,0,0,26.578,28.1H24.441a2.806,2.806,0,1,0,0,1.871h2.138a4.686,4.686,0,0,0,4.583,3.742Zm9.355-16.839a2.806,2.806,0,1,1-2.806,2.806A2.81,2.81,0,0,1,40.516,16.871Zm-9.355,9.355a2.806,2.806,0,1,1-2.806,2.806A2.81,2.81,0,0,1,31.161,26.226Zm-9.355,3.742a.935.935,0,1,1,.935-.935A.936.936,0,0,1,21.806,29.968Z" transform="translate(-2.161 -1.073)"/>
        <circle id="Elipse_12908" data-name="Elipse 12908" cx="0.935" cy="0.935" r="0.935" transform="translate(37.419 17.668)"/>
        <path id="Trazado_1227218" data-name="Trazado 1227218" d="M2.195,46.3H4.819V62.2H12.3V46.3h2.624L8.561,36.113Zm8.237-1.871v15.9H6.69v-15.9H5.572l2.989-4.783,2.989,4.783Z" transform="translate(-1.077 -2.436)"/>
        <path id="Trazado_1227219" data-name="Trazado 1227219" d="M58.079,39.287A2.672,2.672,0,0,1,56.344,35.1l.543-.76L51.8,29.25l-.761.544a2.64,2.64,0,0,1-2.191.4,18.286,18.286,0,0,0,.747-3.991h5.665V10.3h2.624L51.516.113,45.15,10.3h2.624v6.533A18.284,18.284,0,0,0,31.365,6.556h-2.73a18.327,18.327,0,0,0-3.2.3L20.713,2.133,19.348,3.5a.874.874,0,0,1-.968.172.859.859,0,0,1-.541-.8V.943H10.355v1.93A.893.893,0,0,1,8.847,3.5L7.482,2.133,2.19,7.424,3.554,8.79a.873.873,0,0,1,.173.968.862.862,0,0,1-.8.54H1v7.484H2.93a.872.872,0,0,1,.806.565.862.862,0,0,1-.183.944L2.19,20.655l5.291,5.291,1.365-1.364a.874.874,0,0,1,.968-.172.859.859,0,0,1,.541.8h.013A18.172,18.172,0,0,0,20.46,41.186l1.121.56v2.228a1.873,1.873,0,0,0,1.871,1.871v1.871a1.873,1.873,0,0,0-1.871,1.871v.935A8.413,8.413,0,0,0,36.552,55.8a2.682,2.682,0,0,1,1.185.2,2.643,2.643,0,0,1,1.606,2.023l.155.926h7.2l.151-.921a2.673,2.673,0,0,1,4.189-1.734l.761.543,5.09-5.09-.542-.758a2.672,2.672,0,0,1,1.728-4.19L59,46.639v-7.2Zm-21.53,8.43V45.846a1.842,1.842,0,0,0,.59-.1,6.546,6.546,0,1,0,8.033-8.916,18.215,18.215,0,0,0,1.207-1.541,8.418,8.418,0,1,1-7.959,14.75v-.446A1.873,1.873,0,0,0,36.548,47.717ZM40.29,38.6a16.652,16.652,0,0,1-1.587.916l-.284.142V27.136H40.29Zm-1.871,3.15,1.121-.56a18.451,18.451,0,0,0,4.074-2.775,4.668,4.668,0,1,1-5.195,4.628Zm13.1-38.1,2.989,4.783H53.387v15.9H49.645V8.427H48.527ZM7.524,23.258l-.042.042L4.836,20.653l.041-.041a2.764,2.764,0,0,0-1.948-4.7H2.871V12.169H2.93a2.764,2.764,0,0,0,1.948-4.7l-.041-.042L7.482,4.778l.042.041a2.764,2.764,0,0,0,4.7-1.947V2.814h3.742v.059a2.765,2.765,0,0,0,4.7,1.949l.042-.042,2.578,2.578a18.145,18.145,0,0,0-3.7,1.612,7.475,7.475,0,1,0-8.764,11.783,17.912,17.912,0,0,0-.335,1.915,2.729,2.729,0,0,0-2.972.59Zm5.425-7.76A1.858,1.858,0,0,1,14.1,12.169a1.851,1.851,0,0,1,1.068.353A18.332,18.332,0,0,0,12.949,15.5Zm3.564-4.308a3.734,3.734,0,1,0-4.45,5.978,18.277,18.277,0,0,0-.711,1.762,5.606,5.606,0,1,1,6.633-8.921,18.437,18.437,0,0,0-1.472,1.182ZM21.3,39.513A16.737,16.737,0,0,1,19.71,38.6V34.62h1.871v5.035Zm-3.458-6.764v4.443a16.408,16.408,0,0,1,10.8-28.765h2.73a16.408,16.408,0,0,1,10.8,28.765V25.265H36.548v18.71H32.806V34.62H27.194v9.355H23.452V32.749Zm13.1,11.226H29.065V36.491h1.871Zm-5.613,1.871h9.355v1.871H25.323ZM30,57.072a6.556,6.556,0,0,1-6.548-6.548v-.935h13.1v.935A6.556,6.556,0,0,1,30,57.072ZM57.129,45.1a4.545,4.545,0,0,0-2.651,6.4L51.561,54.42a4.545,4.545,0,0,0-6.4,2.651H41.036a4.447,4.447,0,0,0-3.39-3.046,8.354,8.354,0,0,0,.616-1.9A10.188,10.188,0,0,0,43.1,53.33a10.287,10.287,0,0,0,4.274-19.646,18,18,0,0,0,.831-1.709,4.508,4.508,0,0,0,3.359-.315l2.916,2.916a4.545,4.545,0,0,0,2.652,6.4Z" transform="translate(-1 -0.113)"/>
      </g>
    </g>
  </g>
</svg>
