<svg xmlns="http://www.w3.org/2000/svg" xmlns:xlink="http://www.w3.org/1999/xlink" width="113" height="113" viewBox="0 0 113 113">
  <defs>
    <filter id="Trazado_982547" x="0" y="0" width="113" height="113" filterUnits="userSpaceOnUse">
      <feOffset dy="3" input="SourceAlpha"/>
      <feGaussianBlur stdDeviation="3" result="blur"/>
      <feFlood flood-opacity="0.161"/>
      <feComposite operator="in" in2="blur"/>
      <feComposite in="SourceGraphic"/>
    </filter>
  </defs>
  <g id="Grupo_1236698" data-name="Grupo 1236698" transform="translate(-690 -3257.364)">
    <g id="Grupo_1236226" data-name="Grupo 1236226" transform="translate(699 3263.364)">
      <g id="Grupo_1235107" data-name="Grupo 1235107" transform="translate(0)">
        <g id="Grupo_1223796" data-name="Grupo 1223796">
          <g id="Grupo_1208038" data-name="Grupo 1208038">
            <g id="Grupo_1202104" data-name="Grupo 1202104">
              <g id="Grupo_1201923" data-name="Grupo 1201923" transform="translate(0 0)">
                <g id="Grupo_1176928" data-name="Grupo 1176928" transform="translate(0)">
                  <g id="Grupo_1172322" data-name="Grupo 1172322">
                    <g id="Grupo_1164700" data-name="Grupo 1164700">
                      <g id="Grupo_1160931" data-name="Grupo 1160931">
                        <g id="Grupo_1160749" data-name="Grupo 1160749">
                          <g id="Grupo_1158891" data-name="Grupo 1158891">
                            <g id="Grupo_1157406" data-name="Grupo 1157406">
                              <g id="Grupo_1155793" data-name="Grupo 1155793">
                                <g id="Grupo_1154704" data-name="Grupo 1154704">
                                  <g id="Grupo_1150790" data-name="Grupo 1150790">
                                    <g id="Grupo_1154214" data-name="Grupo 1154214" transform="translate(0)">
                                      <g id="Grupo_1152583" data-name="Grupo 1152583">
                                        <g id="Grupo_1146973" data-name="Grupo 1146973">
                                          <g id="Grupo_1146954" data-name="Grupo 1146954">
                                            <g transform="matrix(1, 0, 0, 1, -9, -6)" filter="url(#Trazado_982547)">
                                              <g id="Trazado_982547-2" data-name="Trazado 982547" transform="translate(9 6)" fill="#e1daf7">
                                                <path d="M 47.50000762939453 93.49986267089844 C 41.28937911987305 93.49986267089844 35.26534271240234 92.28383636474609 29.59519386291504 89.88558197021484 C 24.11772727966309 87.56880950927734 19.19814109802246 84.25183868408203 14.97310066223145 80.02679443359375 C 10.74804782867432 75.8017578125 7.431074142456055 70.88218688964844 5.114300727844238 65.40471649169922 C 2.716034412384033 59.73458480834961 1.500007629394531 53.71054458618164 1.500007629394531 47.49993133544922 C 1.500007629394531 41.2893180847168 2.716034412384033 35.26527786254883 5.114300727844238 29.59514427185059 C 7.431074142456055 24.11767768859863 10.74804782867432 19.19810485839844 14.97310066223145 14.97306442260742 C 19.19814109802246 10.74802494049072 24.11772727966309 7.431051254272461 29.59519386291504 5.114277839660645 C 35.26534271240234 2.71602463722229 41.28937911987305 1.499997973442078 47.50000762939453 1.499997973442078 C 53.71063613891602 1.499997973442078 59.73467254638672 2.71602463722229 65.40482330322266 5.114277839660645 C 70.88228607177734 7.431051254272461 75.80187225341797 10.74802494049072 80.02691650390625 14.97306442260742 C 84.25196838378906 19.19810485839844 87.56893920898438 24.11767768859863 89.88571166992188 29.59514427185059 C 92.28398132324219 35.26527786254883 93.50000762939453 41.2893180847168 93.50000762939453 47.49993133544922 C 93.50000762939453 53.71054458618164 92.28398132324219 59.73458480834961 89.88571166992188 65.40471649169922 C 87.56893920898438 70.88218688964844 84.25196838378906 75.8017578125 80.02691650390625 80.02679443359375 C 75.80187225341797 84.25183868408203 70.88228607177734 87.56880950927734 65.40482330322266 89.88558197021484 C 59.73467254638672 92.28383636474609 53.71063613891602 93.49986267089844 47.50000762939453 93.49986267089844 Z" stroke="none"/>
                                                <path d="M 47.50000762939453 2.999992370605469 C 41.4912223815918 2.999992370605469 35.66377639770508 4.1761474609375 30.17951202392578 6.495796203613281 C 24.88085174560547 8.736930847167969 20.12152862548828 11.94596099853516 16.03376007080078 16.03372955322266 C 11.94597625732422 20.12148284912109 8.736961364746094 24.88080596923828 6.495803833007812 30.17946624755859 C 4.176162719726562 35.66371536254883 3.000007629394531 41.49116134643555 3.000007629394531 47.49993133544922 C 3.000007629394531 53.50870132446289 4.176162719726562 59.33614730834961 6.495803833007812 64.82038879394531 C 8.736961364746094 70.11905670166016 11.94597625732422 74.87836456298828 16.03376007080078 78.96613311767578 C 20.12152862548828 83.05390167236328 24.88085174560547 86.26291656494141 30.17951202392578 88.50406646728516 C 35.66377639770508 90.82369995117188 41.4912223815918 91.99985504150391 47.50000762939453 91.99985504150391 C 53.50879287719727 91.99985504150391 59.33623886108398 90.82369995117188 64.82049560546875 88.50406646728516 C 70.11916351318359 86.26291656494141 74.87848663330078 83.05390167236328 78.96625518798828 78.96613311767578 C 83.05403900146484 74.87836456298828 86.26305389404297 70.11905670166016 88.50421142578125 64.82038879394531 C 90.8238525390625 59.33614730834961 92.00000762939453 53.50870132446289 92.00000762939453 47.49993133544922 C 92.00000762939453 41.49116134643555 90.8238525390625 35.66371536254883 88.50421142578125 30.17946624755859 C 86.26305389404297 24.88080596923828 83.05403900146484 20.12148284912109 78.96625518798828 16.03372955322266 C 74.87848663330078 11.94596099853516 70.11916351318359 8.736930847167969 64.82049560546875 6.495796203613281 C 59.33623886108398 4.1761474609375 53.50879287719727 2.999992370605469 47.50000762939453 2.999992370605469 M 47.50000762939453 -7.62939453125e-06 C 73.73352813720703 -7.62939453125e-06 95.00000762939453 21.26644134521484 95.00000762939453 47.49993133544922 C 95.00000762939453 73.73342132568359 73.73352813720703 94.99985504150391 47.50000762939453 94.99985504150391 C 21.26648712158203 94.99985504150391 7.62939453125e-06 73.73342132568359 7.62939453125e-06 47.49993133544922 C 7.62939453125e-06 21.26644134521484 21.26648712158203 -7.62939453125e-06 47.50000762939453 -7.62939453125e-06 Z" stroke="none" fill="#6c4dd8"/>
                                              </g>
                                            </g>
                                          </g>
                                        </g>
                                      </g>
                                    </g>
                                  </g>
                                </g>
                              </g>
                            </g>
                          </g>
                        </g>
                      </g>
                    </g>
                  </g>
                </g>
              </g>
            </g>
          </g>
        </g>
      </g>
    </g>
    <g id="proceso-de-trabajo_2_" data-name="proceso-de-trabajo (2)" transform="translate(713.297 3277.661)">
      <g id="Grupo_1236696" data-name="Grupo 1236696" transform="translate(1.037 1.038)">
        <path id="Trazado_1226499" data-name="Trazado 1226499" d="M59.506,10.659h0a29.51,29.51,0,0,0-29.358,26.53l7.79-.365A21.865,21.865,0,0,1,59.506,18.343l-.035.012v2.983L67,15.253,59.471,8v2.671" transform="translate(-27.275 -8)" fill="#ffe27a"/>
        <path id="Trazado_1226500" data-name="Trazado 1226500" d="M109.96,75.077l5.672-4.583A21.835,21.835,0,0,0,88.161,90.576l.266-.012a21.865,21.865,0,0,1,21.568-18.481l-.035.012Z" transform="translate(-77.764 -61.739)" fill="#f9cf58"/>
        <path id="Trazado_1226501" data-name="Trazado 1226501" d="M172.134,156.277l-2.468-.371a11.513,11.513,0,0,0-1.815-4.379l1.483-2.008a.883.883,0,0,0-.086-1.149l-1.277-1.277a.883.883,0,0,0-1.149-.086l-2.008,1.483a11.513,11.513,0,0,0-4.379-1.815l-.371-2.468a.883.883,0,0,0-.873-.752h-1.806a.883.883,0,0,0-.873.752l-.371,2.468a11.512,11.512,0,0,0-4.379,1.815l-2.008-1.483a.883.883,0,0,0-1.149.086l-1.277,1.277a.883.883,0,0,0-.086,1.149l1.483,2.008a11.513,11.513,0,0,0-1.815,4.379l-2.468.371a.883.883,0,0,0-.752.873v1.806a.883.883,0,0,0,.752.873l2.468.371a11.514,11.514,0,0,0,1.815,4.379l-1.483,2.008a.883.883,0,0,0,.086,1.149l1.277,1.277a.883.883,0,0,0,1.149.086l2.008-1.483a11.513,11.513,0,0,0,4.379,1.815l.371,2.468a.883.883,0,0,0,.873.752h1.806a.883.883,0,0,0,.873-.752l.371-2.468a11.512,11.512,0,0,0,4.379-1.815l2.008,1.483a.883.883,0,0,0,1.149-.086l1.277-1.277a.883.883,0,0,0,.086-1.149l-1.483-2.008a11.514,11.514,0,0,0,1.815-4.379l2.468-.371a.883.883,0,0,0,.752-.873V157.15a.883.883,0,0,0-.752-.873ZM158.288,163.9a5.843,5.843,0,1,1,5.843-5.843A5.843,5.843,0,0,1,158.288,163.9Z" transform="translate(-126.093 -125.887)" fill="#ff4755"/>
        <path id="Trazado_1226502" data-name="Trazado 1226502" d="M10.689,205.231c0,.01,0,.02,0,.03A29.51,29.51,0,0,0,37.22,234.62l-.457-7.805a21.827,21.827,0,0,1-18.389-21.553c0-.01,0-.02,0-.03h2.964L15.253,197.7,8,205.231h2.671" transform="translate(-8 -173.096)" fill="#8bcaff"/>
        <path id="Trazado_1226503" data-name="Trazado 1226503" d="M205.231,297.335h.06a21.827,21.827,0,0,0,21.552-18.383l7.812-.531a29.51,29.51,0,0,1-29.364,26.6h-.06v2.66l-7.531-7.253,7.531-6.085v2.983Z" transform="translate(-173.096 -243.347)" fill="#98db7c"/>
        <path id="Trazado_1226504" data-name="Trazado 1226504" d="M222.87,266.167a5.866,5.866,0,0,0-.117-1.167,5.844,5.844,0,0,1-11.451,0,5.843,5.843,0,1,0,11.568,1.167Z" transform="translate(-184.832 -231.667)" fill="#fc2b3a"/>
        <path id="Trazado_1226505" data-name="Trazado 1226505" d="M216.988,302.686a29.642,29.642,0,0,1-5.848-.581l5.788,5.574v-2.66h.06a29.509,29.509,0,0,0,29.364-26.6l-.4.417A29.515,29.515,0,0,1,216.988,302.686Z" transform="translate(-184.793 -243.348)" fill="#82d361"/>
        <path id="Trazado_1226506" data-name="Trazado 1226506" d="M52.391,282.389a29.521,29.521,0,0,1-23.568-26.621h-.09c0,.01,0,.02,0,.03a29.51,29.51,0,0,0,26.531,29.358Z" transform="translate(-26.044 -223.632)" fill="#6cc4ff"/>
        <path id="Trazado_1226507" data-name="Trazado 1226507" d="M305.261,59c0-.01,0-.02,0-.03a29.509,29.509,0,0,0-26.6-29.364l4.622,4.451L279.138,37.4a21.827,21.827,0,0,1,18.439,21.561c0,.01,0,.02,0,.03h-3.024l6.085,7.531L307.89,59Z" transform="translate(-243.559 -26.8)" fill="#ffba57"/>
        <g id="Grupo_1236695" data-name="Grupo 1236695" transform="translate(35.579 8.755)">
          <path id="Trazado_1226508" data-name="Trazado 1226508" d="M284.605,75.5l-2.289,1.85a21.829,21.829,0,0,1,18.408,20.4q.031-.583.031-1.173A21.83,21.83,0,0,0,284.605,75.5Z" transform="translate(-282.316 -75.501)" fill="#ffac3e"/>
        </g>
      </g>
      <g id="Grupo_1236697" data-name="Grupo 1236697" transform="translate(0 0)">
        <path id="Trazado_1226509" data-name="Trazado 1226509" d="M210.4,203.347a6.833,6.833,0,0,0-6.415,9.175.975.975,0,1,0,1.831-.67,4.88,4.88,0,1,1,2.07,2.507.975.975,0,0,0-1.006,1.67,6.829,6.829,0,1,0,3.52-12.682Z" transform="translate(-177.168 -176.973)"/>
        <path id="Trazado_1226510" data-name="Trazado 1226510" d="M165.561,148.571l-1.807-.272a12.416,12.416,0,0,0-1.445-3.486l1.087-1.471a1.848,1.848,0,0,0-.181-2.42l-1.28-1.28a1.848,1.848,0,0,0-2.419-.181l-1.471,1.086a12.411,12.411,0,0,0-3.486-1.445l-.272-1.807a1.848,1.848,0,0,0-1.839-1.583h-1.81A1.848,1.848,0,0,0,148.8,137.3l-.272,1.807a12.412,12.412,0,0,0-3.486,1.445l-1.471-1.086a1.848,1.848,0,0,0-2.419.181l-1.279,1.28a1.848,1.848,0,0,0-.181,2.42l1.086,1.471a12.4,12.4,0,0,0-1.445,3.486l-1.807.272a1.848,1.848,0,0,0-1.583,1.839v1.81a1.848,1.848,0,0,0,1.583,1.839l1.807.272a12.413,12.413,0,0,0,1.445,3.486l-1.086,1.471a1.848,1.848,0,0,0,.181,2.42l1.28,1.28a1.848,1.848,0,0,0,2.419.181l1.471-1.086a12.41,12.41,0,0,0,3.486,1.445l.272,1.807a1.848,1.848,0,0,0,1.839,1.583h1.81a1.848,1.848,0,0,0,1.839-1.583l.272-1.807a12.41,12.41,0,0,0,3.486-1.445l1.471,1.087a1.848,1.848,0,0,0,2.419-.181l1.28-1.28a1.849,1.849,0,0,0,.181-2.42l-1.086-1.471a12.407,12.407,0,0,0,1.445-3.486l1.807-.272a1.848,1.848,0,0,0,1.583-1.839v-1.81a1.848,1.848,0,0,0-1.583-1.839Zm-.367,3.571-2.4.36a.974.974,0,0,0-.813.784,10.509,10.509,0,0,1-1.665,4.018.974.974,0,0,0,.021,1.129l1.44,1.949-1.17,1.17-1.949-1.44a.975.975,0,0,0-1.129-.021,10.508,10.508,0,0,1-4.017,1.665.975.975,0,0,0-.784.813l-.36,2.4h-1.655l-.36-2.4a.974.974,0,0,0-.784-.813,10.509,10.509,0,0,1-4.017-1.665.974.974,0,0,0-1.129.021l-1.949,1.44-1.17-1.17,1.44-1.949a.975.975,0,0,0,.021-1.129,10.507,10.507,0,0,1-1.665-4.017.974.974,0,0,0-.813-.784l-2.4-.36v-1.655l2.4-.36a.974.974,0,0,0,.813-.784,10.508,10.508,0,0,1,1.665-4.017.974.974,0,0,0-.021-1.129l-1.44-1.949,1.17-1.17,1.949,1.44a.975.975,0,0,0,1.129.021,10.511,10.511,0,0,1,4.017-1.665.974.974,0,0,0,.784-.813l.36-2.4h1.655l.36,2.4a.975.975,0,0,0,.784.813,10.506,10.506,0,0,1,4.017,1.665.975.975,0,0,0,1.129-.021l1.949-1.44,1.17,1.17-1.44,1.949a.975.975,0,0,0-.021,1.129,10.508,10.508,0,0,1,1.665,4.018.974.974,0,0,0,.813.784l2.4.36Z" transform="translate(-118.311 -118.111)"/>
        <path id="Trazado_1226511" data-name="Trazado 1226511" d="M66.328,32.852a.975.975,0,0,0-.9-.593H63.758A30.54,30.54,0,0,0,36.584,2.847L33.908.27a.981.981,0,0,0-1.651.7v1.7a30.323,30.323,0,0,0-16.6,5.549.975.975,0,1,0,1.123,1.593A28.405,28.405,0,0,1,33.232,4.611a.975.975,0,0,0,.975-.975V3.264l5.1,4.912-5.1,4.121v-.96a.975.975,0,0,0-.975-.975A22.848,22.848,0,0,0,11.086,27.6L9,25.014a.981.981,0,0,0-1.46-.063L5.248,27.327a28.555,28.555,0,0,1,8.6-15.138.975.975,0,0,0-1.322-1.432A30.479,30.479,0,0,0,2.884,29.783L.27,32.5a.981.981,0,0,0,.7,1.651H2.706a30.542,30.542,0,0,0,27.107,29.4L32.5,66.136a.981.981,0,0,0,1.651-.7v-1.7a30.3,30.3,0,0,0,16.872-5.7.975.975,0,0,0-1.137-1.584A28.393,28.393,0,0,1,33.22,61.795h-.049a.975.975,0,0,0-.975.975v.373L27.1,58.23l5.1-4.121v.959a.975.975,0,0,0,.968.975h.066A22.848,22.848,0,0,0,55.362,38.863l2.043,2.529a.981.981,0,0,0,1.46.063L61.231,39A28.572,28.572,0,0,1,52.8,54.051a.975.975,0,1,0,1.334,1.421,30.5,30.5,0,0,0,9.456-18.919l2.546-2.644a.974.974,0,0,0,.195-1.057ZM25.013,57.408a.981.981,0,0,0-.063,1.46l2.409,2.32A28.6,28.6,0,0,1,4.641,33.207v-.033a.975.975,0,0,0-.975-.975h-.4l4.911-5.1L12.3,32.2h-.93a.972.972,0,0,0-.975.971V33.2A22.848,22.848,0,0,0,27.577,55.336Zm21.849-8.372a20.881,20.881,0,0,1-12.716,5.039V52.069a.981.981,0,0,0-1.587-.758l-3.038,2.454a20.9,20.9,0,0,1-17.16-19.617h1.975a.981.981,0,0,0,.758-1.587l-2.434-3.013a20.9,20.9,0,0,1,19.6-17.213v2a.981.981,0,0,0,1.587.758l3.049-2.464A20.9,20.9,0,0,1,54.1,32.258H52.067a.981.981,0,0,0-.758,1.587l2.483,3.074a20.9,20.9,0,0,1-6.93,12.116Zm11.366-9.727-4.121-5.1h.99a.972.972,0,0,0,.975-.971V33.2A22.848,22.848,0,0,0,38.841,11.058L41.391,9a.981.981,0,0,0,.063-1.46L39.03,5.2a28.6,28.6,0,0,1,22.793,28v.033a.975.975,0,0,0,.975.975h.343Z" transform="translate(0 0)"/>
      </g>
    </g>
  </g>
</svg>
