<svg xmlns="http://www.w3.org/2000/svg" xmlns:xlink="http://www.w3.org/1999/xlink" width="113" height="113" viewBox="0 0 113 113">
  <defs>
    <filter id="Trazado_982547" x="0" y="0" width="113" height="113" filterUnits="userSpaceOnUse">
      <feOffset dy="3" input="SourceAlpha"/>
      <feGaussianBlur stdDeviation="3" result="blur"/>
      <feFlood flood-opacity="0.161"/>
      <feComposite operator="in" in2="blur"/>
      <feComposite in="SourceGraphic"/>
    </filter>
  </defs>
  <g id="Grupo_1236723" data-name="Grupo 1236723" transform="translate(-7993.51 -3260.365)">
    <g id="Grupo_1236227" data-name="Grupo 1236227" transform="translate(8002.51 3266.365)">
      <g id="Grupo_1235105" data-name="Grupo 1235105" transform="translate(0)">
        <g id="Grupo_1223793" data-name="Grupo 1223793">
          <g id="Grupo_1208028" data-name="Grupo 1208028">
            <g id="Grupo_1177675" data-name="Grupo 1177675" transform="translate(0 0)">
              <g id="Grupo_1176928" data-name="Grupo 1176928" transform="translate(0)">
                <g id="Grupo_1172322" data-name="Grupo 1172322">
                  <g id="Grupo_1164700" data-name="Grupo 1164700">
                    <g id="Grupo_1160931" data-name="Grupo 1160931">
                      <g id="Grupo_1160749" data-name="Grupo 1160749">
                        <g id="Grupo_1158891" data-name="Grupo 1158891">
                          <g id="Grupo_1157406" data-name="Grupo 1157406">
                            <g id="Grupo_1155793" data-name="Grupo 1155793">
                              <g id="Grupo_1154704" data-name="Grupo 1154704">
                                <g id="Grupo_1150790" data-name="Grupo 1150790">
                                  <g id="Grupo_1154214" data-name="Grupo 1154214" transform="translate(0)">
                                    <g id="Grupo_1152583" data-name="Grupo 1152583">
                                      <g id="Grupo_1146973" data-name="Grupo 1146973">
                                        <g id="Grupo_1146954" data-name="Grupo 1146954">
                                          <g transform="matrix(1, 0, 0, 1, -9, -6)" filter="url(#Trazado_982547)">
                                            <g id="Trazado_982547-2" data-name="Trazado 982547" transform="translate(9 6)" fill="#e1daf7">
                                              <path d="M 47.50000762939453 93.49986267089844 C 41.28937911987305 93.49986267089844 35.26534271240234 92.28383636474609 29.59519386291504 89.88558197021484 C 24.11772727966309 87.56880950927734 19.19814109802246 84.25183868408203 14.97310066223145 80.02679443359375 C 10.74804782867432 75.8017578125 7.431074142456055 70.88218688964844 5.114300727844238 65.40471649169922 C 2.716034412384033 59.73458480834961 1.500007629394531 53.71054458618164 1.500007629394531 47.49993133544922 C 1.500007629394531 41.2893180847168 2.716034412384033 35.26527786254883 5.114300727844238 29.59514427185059 C 7.431074142456055 24.11767768859863 10.74804782867432 19.19810485839844 14.97310066223145 14.97306442260742 C 19.19814109802246 10.74802494049072 24.11772727966309 7.431051254272461 29.59519386291504 5.114277839660645 C 35.26534271240234 2.71602463722229 41.28937911987305 1.499997973442078 47.50000762939453 1.499997973442078 C 53.71063613891602 1.499997973442078 59.73467254638672 2.71602463722229 65.40482330322266 5.114277839660645 C 70.88228607177734 7.431051254272461 75.80187225341797 10.74802494049072 80.02691650390625 14.97306442260742 C 84.25196838378906 19.19810485839844 87.56893920898438 24.11767768859863 89.88571166992188 29.59514427185059 C 92.28398132324219 35.26527786254883 93.50000762939453 41.2893180847168 93.50000762939453 47.49993133544922 C 93.50000762939453 53.71054458618164 92.28398132324219 59.73458480834961 89.88571166992188 65.40471649169922 C 87.56893920898438 70.88218688964844 84.25196838378906 75.8017578125 80.02691650390625 80.02679443359375 C 75.80187225341797 84.25183868408203 70.88228607177734 87.56880950927734 65.40482330322266 89.88558197021484 C 59.73467254638672 92.28383636474609 53.71063613891602 93.49986267089844 47.50000762939453 93.49986267089844 Z" stroke="none"/>
                                              <path d="M 47.50000762939453 2.999992370605469 C 41.4912223815918 2.999992370605469 35.66377639770508 4.1761474609375 30.17951202392578 6.495796203613281 C 24.88085174560547 8.736930847167969 20.12152862548828 11.94596099853516 16.03376007080078 16.03372955322266 C 11.94597625732422 20.12148284912109 8.736961364746094 24.88080596923828 6.495803833007812 30.17946624755859 C 4.176162719726562 35.66371536254883 3.000007629394531 41.49116134643555 3.000007629394531 47.49993133544922 C 3.000007629394531 53.50870132446289 4.176162719726562 59.33614730834961 6.495803833007812 64.82038879394531 C 8.736961364746094 70.11905670166016 11.94597625732422 74.87836456298828 16.03376007080078 78.96613311767578 C 20.12152862548828 83.05390167236328 24.88085174560547 86.26291656494141 30.17951202392578 88.50406646728516 C 35.66377639770508 90.82369995117188 41.4912223815918 91.99985504150391 47.50000762939453 91.99985504150391 C 53.50879287719727 91.99985504150391 59.33623886108398 90.82369995117188 64.82049560546875 88.50406646728516 C 70.11916351318359 86.26291656494141 74.87848663330078 83.05390167236328 78.96625518798828 78.96613311767578 C 83.05403900146484 74.87836456298828 86.26305389404297 70.11905670166016 88.50421142578125 64.82038879394531 C 90.8238525390625 59.33614730834961 92.00000762939453 53.50870132446289 92.00000762939453 47.49993133544922 C 92.00000762939453 41.49116134643555 90.8238525390625 35.66371536254883 88.50421142578125 30.17946624755859 C 86.26305389404297 24.88080596923828 83.05403900146484 20.12148284912109 78.96625518798828 16.03372955322266 C 74.87848663330078 11.94596099853516 70.11916351318359 8.736930847167969 64.82049560546875 6.495796203613281 C 59.33623886108398 4.1761474609375 53.50879287719727 2.999992370605469 47.50000762939453 2.999992370605469 M 47.50000762939453 -7.62939453125e-06 C 73.73352813720703 -7.62939453125e-06 95.00000762939453 21.26644134521484 95.00000762939453 47.49993133544922 C 95.00000762939453 73.73342132568359 73.73352813720703 94.99985504150391 47.50000762939453 94.99985504150391 C 21.26648712158203 94.99985504150391 7.62939453125e-06 73.73342132568359 7.62939453125e-06 47.49993133544922 C 7.62939453125e-06 21.26644134521484 21.26648712158203 -7.62939453125e-06 47.50000762939453 -7.62939453125e-06 Z" stroke="none" fill="#6c4dd8"/>
                                            </g>
                                          </g>
                                        </g>
                                      </g>
                                    </g>
                                  </g>
                                </g>
                              </g>
                            </g>
                          </g>
                        </g>
                      </g>
                    </g>
                  </g>
                </g>
              </g>
            </g>
          </g>
        </g>
      </g>
    </g>
    <g id="apoyo-tecnico_2_" data-name="apoyo-tecnico (2)" transform="translate(8024.463 3285.215)">
      <g id="Grupo_1236720" data-name="Grupo 1236720" transform="translate(0.831 1.144)">
        <g id="Grupo_1236719" data-name="Grupo 1236719">
          <g id="Grupo_1236711" data-name="Grupo 1236711">
            <g id="Grupo_1236699" data-name="Grupo 1236699" transform="translate(36.265)">
              <path id="Trazado_1226512" data-name="Trazado 1226512" d="M351.133,7.812H337.153a2.417,2.417,0,0,0-2.417,2.417v6.992a2.417,2.417,0,0,0,2.417,2.417,1.412,1.412,0,0,1,1.412,1.412v4.324a.541.541,0,0,0,1.005.278l3.195-5.328a1.412,1.412,0,0,1,1.211-.686h7.157a2.417,2.417,0,0,0,2.417-2.417V10.229A2.417,2.417,0,0,0,351.133,7.812Z" transform="translate(-334.736 -7.812)" fill="#b3e59f"/>
              <path id="Trazado_1226513" data-name="Trazado 1226513" d="M370.526,7.812h-7.24a2.417,2.417,0,0,1,2.417,2.417v6.992a2.417,2.417,0,0,1-2.417,2.417h-6.739a1.412,1.412,0,0,1,1.412,1.412v4.324a.541.541,0,0,0,1.005.278l3.2-5.328a1.412,1.412,0,0,1,1.211-.686h7.157a2.417,2.417,0,0,0,2.417-2.417V10.229a2.417,2.417,0,0,0-2.417-2.417Z" transform="translate(-354.13 -7.812)" fill="#95d6a4"/>
            </g>
            <g id="Grupo_1236710" data-name="Grupo 1236710" transform="translate(0 24.796)">
              <g id="Grupo_1236709" data-name="Grupo 1236709">
                <g id="Grupo_1236708" data-name="Grupo 1236708">
                  <g id="Grupo_1236703" data-name="Grupo 1236703" transform="translate(14.824)">
                    <g id="Grupo_1236702" data-name="Grupo 1236702">
                      <g id="Grupo_1236701" data-name="Grupo 1236701">
                        <g id="Grupo_1236700" data-name="Grupo 1236700">
                          <path id="Trazado_1226514" data-name="Trazado 1226514" d="M154.44,240.576a2.42,2.42,0,0,1-1.963-2.377v-6.648h-9.253V238.2a2.426,2.426,0,0,1-1.963,2.377S155.066,240.7,154.44,240.576Z" transform="translate(-141.261 -231.551)" fill="#ffddce"/>
                        </g>
                      </g>
                    </g>
                  </g>
                  <g id="Grupo_1236707" data-name="Grupo 1236707" transform="translate(0.665 9.462)">
                    <g id="Grupo_1236706" data-name="Grupo 1236706">
                      <g id="Grupo_1236705" data-name="Grupo 1236705">
                        <g id="Grupo_1236704" data-name="Grupo 1236704">
                          <path id="Trazado_1226515" data-name="Trazado 1226515" d="M43.4,316.986c-.659-.127-18.31,0-18.31,0A14.3,14.3,0,0,0,13.5,331.023v4.714a1.936,1.936,0,0,0,1.936,1.936H53.062A1.936,1.936,0,0,0,55,335.737v-4.714A14.294,14.294,0,0,0,43.4,316.986Z" transform="translate(-13.501 -316.93)" fill="#ffd064"/>
                        </g>
                      </g>
                    </g>
                  </g>
                  <path id="Trazado_1226516" data-name="Trazado 1226516" d="M74.947,329.91H41.186l-.9-16.5a2.551,2.551,0,0,1,2.548-2.69H73.3a2.551,2.551,0,0,1,2.548,2.69Z" transform="translate(-36.653 -301.948)" fill="#eaf2ff"/>
                  <path id="Trazado_1226517" data-name="Trazado 1226517" d="M280.043,310.722H272.8a2.551,2.551,0,0,1,2.548,2.69l-.9,16.5h7.24l.9-16.5A2.551,2.551,0,0,0,280.043,310.722Z" transform="translate(-243.401 -301.948)" fill="#dbe8f9"/>
                  <path id="Trazado_1226518" data-name="Trazado 1226518" d="M48.54,471.934H9.287a1.787,1.787,0,0,0,0,3.575H48.54a1.787,1.787,0,0,0,0-3.575Z" transform="translate(-7.5 -445.294)" fill="#9bc4f9"/>
                  <path id="Trazado_1226519" data-name="Trazado 1226519" d="M319.306,471.934H313.8v1.787a1.787,1.787,0,0,1-1.787,1.787h7.293a1.787,1.787,0,0,0,0-3.575Z" transform="translate(-278.266 -445.294)" fill="#7fb2f9"/>
                </g>
              </g>
              <path id="Trazado_1226520" data-name="Trazado 1226520" d="M162.279,377.008a5.922,5.922,0,0,1,1.529-3.961l.022-.024a5.07,5.07,0,0,0-1.28-7.788.436.436,0,0,0-.653.377v3.771a1.145,1.145,0,0,1-1.145,1.145h-1.407a1.145,1.145,0,0,1-1.145-1.145v-3.771a.436.436,0,0,0-.653-.377,5.07,5.07,0,0,0-1.28,7.788l.022.024a5.923,5.923,0,0,1,1.529,3.961Z" transform="translate(-138.635 -350.368)" fill="#7fb2f9"/>
            </g>
          </g>
          <g id="Grupo_1236718" data-name="Grupo 1236718" transform="translate(8.675 3.118)">
            <g id="Grupo_1236717" data-name="Grupo 1236717">
              <g id="Grupo_1236716" data-name="Grupo 1236716">
                <g id="Grupo_1236715" data-name="Grupo 1236715">
                  <path id="Trazado_1226521" data-name="Trazado 1226521" d="M119.475,61.065l-.618,0-.01-2.492a9.07,9.07,0,0,0-18.138.077l.007,1.757,0,.735-.618,0a1.652,1.652,0,0,0-1.634,1.668l.008,1.841a1.651,1.651,0,0,0,1.648,1.654l.621,0a8.584,8.584,0,0,0,2.887,6.3,9.2,9.2,0,0,0,12.412-.053,8.586,8.586,0,0,0,2.834-6.32l.621,0a1.652,1.652,0,0,0,1.634-1.668l-.008-1.841A1.651,1.651,0,0,0,119.475,61.065Z" transform="translate(-97.06 -48.18)" fill="#ffddce"/>
                  <path id="Trazado_1226522" data-name="Trazado 1226522" d="M191.69,66.311a1.651,1.651,0,0,0-1.648-1.654l-.618,0-.01-2.492a8.813,8.813,0,0,0-6.293-8.423,8.709,8.709,0,0,1,1.2,4.433l.029,11.645a8.586,8.586,0,0,1-2.834,6.32,9.7,9.7,0,0,1-3.69,2.061,9.115,9.115,0,0,0,8.78-2.061,8.586,8.586,0,0,0,2.834-6.32l.621,0a1.652,1.652,0,0,0,1.634-1.668Z" transform="translate(-167.627 -51.771)" fill="#ffcbbe"/>
                  <g id="Grupo_1236714" data-name="Grupo 1236714" transform="translate(0 11.384)">
                    <g id="Grupo_1236712" data-name="Grupo 1236712" transform="translate(21.81)">
                      <path id="Trazado_1226523" data-name="Trazado 1226523" d="M282.575,138.669v6.852h1.82a1.848,1.848,0,0,0,1.848-1.848v-3.157a1.848,1.848,0,0,0-1.848-1.848Z" transform="translate(-282.575 -138.669)" fill="#9bc4f9"/>
                    </g>
                    <g id="Grupo_1236713" data-name="Grupo 1236713">
                      <path id="Trazado_1226524" data-name="Trazado 1226524" d="M89.445,138.669v6.852h-1.82a1.848,1.848,0,0,1-1.848-1.848v-3.157a1.848,1.848,0,0,1,1.848-1.848Z" transform="translate(-85.778 -138.669)" fill="#9bc4f9"/>
                    </g>
                  </g>
                  <path id="Trazado_1226525" data-name="Trazado 1226525" d="M119.1,39.643h-.093a.934.934,0,0,1-.934-.934,2.766,2.766,0,0,0-2.766-2.766h-8.8a7.093,7.093,0,0,0-7.093,7.093v4.688a1.618,1.618,0,0,0,1.086,1.528l1.747.608a.939.939,0,0,0,1.247-.888l0-3.305a2.894,2.894,0,0,1,2.863-2.923h.035a4.593,4.593,0,0,1,1.426.221,8.1,8.1,0,0,0,2.511.416h.63a8.1,8.1,0,0,0,2.511-.416,4.6,4.6,0,0,1,1.426-.221h.035a2.894,2.894,0,0,1,2.863,2.923l0,3.306a.939.939,0,0,0,1.248.888l1.747-.608a1.618,1.618,0,0,0,1.086-1.528V42.408A2.766,2.766,0,0,0,119.1,39.643Z" transform="translate(-97.905 -35.943)" fill="#756e78"/>
                  <path id="Trazado_1226526" data-name="Trazado 1226526" d="M218.476,39.643h-.093a.934.934,0,0,1-.934-.934,2.766,2.766,0,0,0-2.766-2.766h-3.51a8.645,8.645,0,0,1,2.8,6.406v.4c.1-.006.2-.01.294-.009h.035a2.894,2.894,0,0,1,2.863,2.923l0,3.306a.939.939,0,0,0,1.248.888l1.747-.608a1.618,1.618,0,0,0,1.086-1.528V42.408a2.766,2.766,0,0,0-2.766-2.766Z" transform="translate(-197.276 -35.943)" fill="#665e66"/>
                  <path id="Trazado_1226527" data-name="Trazado 1226527" d="M229.025,222.952h-2.086a1.441,1.441,0,1,1,0-2.882h2.086a1.441,1.441,0,1,1,0,2.882Z" transform="translate(-210.014 -199.664)" fill="#db636e"/>
                </g>
              </g>
            </g>
          </g>
        </g>
      </g>
      <g id="Grupo_1236722" data-name="Grupo 1236722" transform="translate(0 0.313)">
        <g id="Grupo_1236721" data-name="Grupo 1236721">
          <path id="Trazado_1226528" data-name="Trazado 1226528" d="M406.062,37.252h-7.252a.831.831,0,1,0,0,1.662h7.252a.831.831,0,0,0,0-1.662Z" transform="translate(-353.873 -33.158)"/>
          <path id="Trazado_1226529" data-name="Trazado 1226529" d="M361.647,38.914h.884a.831.831,0,0,0,0-1.662h-.884a.831.831,0,1,0,0,1.662Z" transform="translate(-320.829 -33.158)"/>
          <path id="Trazado_1226530" data-name="Trazado 1226530" d="M361.647,74.146h11.371a.831.831,0,1,0,0-1.662H361.647a.831.831,0,1,0,0,1.662Z" transform="translate(-320.829 -64.486)"/>
          <path id="Trazado_1226531" data-name="Trazado 1226531" d="M43.824,74.506A15.181,15.181,0,0,0,40.7,65.3l.154-2.838a3.38,3.38,0,0,0-3.378-3.566h-9.1a1.586,1.586,0,0,1-.672-1.3V55.277a9.417,9.417,0,0,0,3.129-3.191H32.44a3.378,3.378,0,0,0,3.375-3.375V42.5a2.677,2.677,0,0,0-1.511-2.41V35.738a3.6,3.6,0,0,0-3.6-3.6h-.093a.1.1,0,0,1-.1-.1,3.6,3.6,0,0,0-3.6-3.6h-8.8a7.933,7.933,0,0,0-7.924,7.924v3.729A2.678,2.678,0,0,0,8.675,42.5v3.157a2.682,2.682,0,0,0,2.679,2.679h1.073a9.334,9.334,0,0,0,3.106,5.986,11.4,11.4,0,0,0,1.255.942V57.6a1.587,1.587,0,0,1-.675,1.3h-9.1a3.38,3.38,0,0,0-3.378,3.566L3.793,65.3A15.181,15.181,0,0,0,.665,74.506v3.131A2.617,2.617,0,0,0,2.618,82H41.871a2.616,2.616,0,0,0,1.953-4.359Zm-1.662,0v2.27a2.63,2.63,0,0,0-.291-.017h-1.8l.469-8.643A13.506,13.506,0,0,1,42.162,74.506ZM34.067,42.1a1.011,1.011,0,0,1,.085.406v3.157a1.018,1.018,0,0,1-1.016,1.016h-.988V43.544l.512-.178A2.449,2.449,0,0,0,34.067,42.1Zm-5.549,9.63H26.432a.61.61,0,1,1,0-1.22h2.086a.61.61,0,1,1,0,1.22Zm3.922-1.3H31.6a9.783,9.783,0,0,0,.481-2.084h1.055a2.664,2.664,0,0,0,1.016-.2v.573A1.714,1.714,0,0,1,32.44,50.424ZM11.849,36.366A6.269,6.269,0,0,1,18.111,30.1h8.8a1.937,1.937,0,0,1,1.935,1.935A1.767,1.767,0,0,0,30.613,33.8h.093a1.937,1.937,0,0,1,1.934,1.935v5.315a.788.788,0,0,1-.528.743l-1.747.608a.107.107,0,0,1-.143-.1l0-3.3c.01-2.411-2.247-4.513-5.41-3.5a8.835,8.835,0,0,1-5.144,0c-3.13-1.006-5.42,1.059-5.41,3.494l0,3.306a.107.107,0,0,1-.143.1L12.377,41.8a.787.787,0,0,1-.528-.743V36.366Zm-1.511,9.3V42.5a1.012,1.012,0,0,1,.085-.406,2.449,2.449,0,0,0,1.407,1.268l.512.178v3.133h-.989a1.017,1.017,0,0,1-1.016-1.016ZM14.02,47.38c-.028-1.093-.011-2.253-.015-3.315.051,0,.1.007.154.007A1.77,1.77,0,0,0,15.929,42.3l0-3.308c-.006-1.35,1.2-2.561,3.239-1.907a10.464,10.464,0,0,0,6.161,0c1.938-.623,3.245.473,3.239,1.91l0,3.305a1.77,1.77,0,0,0,1.924,1.765v3.382a8.2,8.2,0,0,1-.343,2.086,2.264,2.264,0,0,0-1.624-.687H26.432a2.272,2.272,0,1,0,0,4.544h1.056a8.506,8.506,0,0,1-5.2,1.855A8.15,8.15,0,0,1,14.02,47.38ZM18.449,57.6V56.144a10.131,10.131,0,0,0,3.837.765H22.3a10.142,10.142,0,0,0,3.736-.758V57.6a3.243,3.243,0,0,0,.27,1.3H18.179a3.235,3.235,0,0,0,.271-1.295ZM3.946,68.116l.131,2.418a.831.831,0,0,0,1.66-.09L5.3,62.369a1.719,1.719,0,0,1,1.718-1.813H37.473a1.719,1.719,0,0,1,1.718,1.813l-.781,14.39H25.376a5.1,5.1,0,0,1,1.245-2.574l.024-.027a5.906,5.906,0,0,0-1.489-9.064,1.267,1.267,0,0,0-1.894,1.1v3.771a.314.314,0,0,1-.314.313H21.541a.314.314,0,0,1-.314-.313V66.195a1.267,1.267,0,0,0-1.894-1.1,5.905,5.905,0,0,0-1.487,9.067l.021.024a5.1,5.1,0,0,1,1.245,2.574H6.079L5.946,74.3a.831.831,0,1,0-1.66.09l.128,2.367h-1.8a2.657,2.657,0,0,0-.291.017v-2.27a13.508,13.508,0,0,1,1.618-6.39Zm16.847,8.643A6.758,6.758,0,0,0,19.1,73.073l-.02-.022a4.239,4.239,0,0,1,.482-6.107v3.022a1.978,1.978,0,0,0,1.976,1.976h1.407a1.978,1.978,0,0,0,1.976-1.976V66.944a4.24,4.24,0,0,1,.48,6.109l-.018.02A6.758,6.758,0,0,0,23.7,76.759Zm21.078,3.574H2.618a.956.956,0,1,1,0-1.912H41.871a.956.956,0,1,1,0,1.912Z" transform="translate(0 -25.324)"/>
          <path id="Trazado_1226532" data-name="Trazado 1226532" d="M346.88,6a.831.831,0,0,0,.831-.831V3.561A3.252,3.252,0,0,0,344.463.313H330.483a3.252,3.252,0,0,0-3.248,3.248v6.992a3.252,3.252,0,0,0,3.248,3.248.581.581,0,0,1,.58.58v4.324a1.372,1.372,0,0,0,2.549.706l3.2-5.328a.584.584,0,0,1,.5-.282h7.157a3.252,3.252,0,0,0,3.249-3.248v-1.5a.831.831,0,0,0-1.662,0v1.5a1.588,1.588,0,0,1-1.586,1.586h-7.157a2.254,2.254,0,0,0-1.924,1.089l-2.656,4.43V14.382a2.245,2.245,0,0,0-2.243-2.243,1.588,1.588,0,0,1-1.586-1.586V3.561a1.588,1.588,0,0,1,1.586-1.586h13.98a1.588,1.588,0,0,1,1.586,1.586V5.17A.831.831,0,0,0,346.88,6Z" transform="translate(-290.97 -0.313)"/>
        </g>
      </g>
    </g>
  </g>
</svg>
