<svg xmlns="http://www.w3.org/2000/svg" xmlns:xlink="http://www.w3.org/1999/xlink" width="113" height="113" viewBox="0 0 113 113">
  <defs>
    <filter id="Trazado_982547" x="0" y="0" width="113" height="113" filterUnits="userSpaceOnUse">
      <feOffset dy="3" input="SourceAlpha"/>
      <feGaussianBlur stdDeviation="3" result="blur"/>
      <feFlood flood-opacity="0.161"/>
      <feComposite operator="in" in2="blur"/>
      <feComposite in="SourceGraphic"/>
    </filter>
  </defs>
  <g id="Grupo_1236728" data-name="Grupo 1236728" transform="translate(-8308.52 -3620.059)">
    <g id="Grupo_1236229" data-name="Grupo 1236229" transform="translate(8317.52 3626.059)">
      <g id="Grupo_1235105" data-name="Grupo 1235105" transform="translate(0)">
        <g id="Grupo_1223793" data-name="Grupo 1223793">
          <g id="Grupo_1208028" data-name="Grupo 1208028">
            <g id="Grupo_1177675" data-name="Grupo 1177675" transform="translate(0 0)">
              <g id="Grupo_1176928" data-name="Grupo 1176928" transform="translate(0)">
                <g id="Grupo_1172322" data-name="Grupo 1172322">
                  <g id="Grupo_1164700" data-name="Grupo 1164700">
                    <g id="Grupo_1160931" data-name="Grupo 1160931">
                      <g id="Grupo_1160749" data-name="Grupo 1160749">
                        <g id="Grupo_1158891" data-name="Grupo 1158891">
                          <g id="Grupo_1157406" data-name="Grupo 1157406">
                            <g id="Grupo_1155793" data-name="Grupo 1155793">
                              <g id="Grupo_1154704" data-name="Grupo 1154704">
                                <g id="Grupo_1150790" data-name="Grupo 1150790">
                                  <g id="Grupo_1154214" data-name="Grupo 1154214" transform="translate(0)">
                                    <g id="Grupo_1152583" data-name="Grupo 1152583">
                                      <g id="Grupo_1146973" data-name="Grupo 1146973">
                                        <g id="Grupo_1146954" data-name="Grupo 1146954">
                                          <g transform="matrix(1, 0, 0, 1, -9, -6)" filter="url(#Trazado_982547)">
                                            <g id="Trazado_982547-2" data-name="Trazado 982547" transform="translate(9 6)" fill="#e1daf7">
                                              <path d="M 47.50000762939453 93.49986267089844 C 41.28937911987305 93.49986267089844 35.26534271240234 92.28383636474609 29.59519386291504 89.88558197021484 C 24.11772727966309 87.56880950927734 19.19814109802246 84.25183868408203 14.97310066223145 80.02679443359375 C 10.74804782867432 75.8017578125 7.431074142456055 70.88218688964844 5.114300727844238 65.40471649169922 C 2.716034412384033 59.73458480834961 1.500007629394531 53.71054458618164 1.500007629394531 47.49993133544922 C 1.500007629394531 41.2893180847168 2.716034412384033 35.26527786254883 5.114300727844238 29.59514427185059 C 7.431074142456055 24.11767768859863 10.74804782867432 19.19810485839844 14.97310066223145 14.97306442260742 C 19.19814109802246 10.74802494049072 24.11772727966309 7.431051254272461 29.59519386291504 5.114277839660645 C 35.26534271240234 2.71602463722229 41.28937911987305 1.499997973442078 47.50000762939453 1.499997973442078 C 53.71063613891602 1.499997973442078 59.73467254638672 2.71602463722229 65.40482330322266 5.114277839660645 C 70.88228607177734 7.431051254272461 75.80187225341797 10.74802494049072 80.02691650390625 14.97306442260742 C 84.25196838378906 19.19810485839844 87.56893920898438 24.11767768859863 89.88571166992188 29.59514427185059 C 92.28398132324219 35.26527786254883 93.50000762939453 41.2893180847168 93.50000762939453 47.49993133544922 C 93.50000762939453 53.71054458618164 92.28398132324219 59.73458480834961 89.88571166992188 65.40471649169922 C 87.56893920898438 70.88218688964844 84.25196838378906 75.8017578125 80.02691650390625 80.02679443359375 C 75.80187225341797 84.25183868408203 70.88228607177734 87.56880950927734 65.40482330322266 89.88558197021484 C 59.73467254638672 92.28383636474609 53.71063613891602 93.49986267089844 47.50000762939453 93.49986267089844 Z" stroke="none"/>
                                              <path d="M 47.50000762939453 2.999992370605469 C 41.4912223815918 2.999992370605469 35.66377639770508 4.1761474609375 30.17951202392578 6.495796203613281 C 24.88085174560547 8.736930847167969 20.12152862548828 11.94596099853516 16.03376007080078 16.03372955322266 C 11.94597625732422 20.12148284912109 8.736961364746094 24.88080596923828 6.495803833007812 30.17946624755859 C 4.176162719726562 35.66371536254883 3.000007629394531 41.49116134643555 3.000007629394531 47.49993133544922 C 3.000007629394531 53.50870132446289 4.176162719726562 59.33614730834961 6.495803833007812 64.82038879394531 C 8.736961364746094 70.11905670166016 11.94597625732422 74.87836456298828 16.03376007080078 78.96613311767578 C 20.12152862548828 83.05390167236328 24.88085174560547 86.26291656494141 30.17951202392578 88.50406646728516 C 35.66377639770508 90.82369995117188 41.4912223815918 91.99985504150391 47.50000762939453 91.99985504150391 C 53.50879287719727 91.99985504150391 59.33623886108398 90.82369995117188 64.82049560546875 88.50406646728516 C 70.11916351318359 86.26291656494141 74.87848663330078 83.05390167236328 78.96625518798828 78.96613311767578 C 83.05403900146484 74.87836456298828 86.26305389404297 70.11905670166016 88.50421142578125 64.82038879394531 C 90.8238525390625 59.33614730834961 92.00000762939453 53.50870132446289 92.00000762939453 47.49993133544922 C 92.00000762939453 41.49116134643555 90.8238525390625 35.66371536254883 88.50421142578125 30.17946624755859 C 86.26305389404297 24.88080596923828 83.05403900146484 20.12148284912109 78.96625518798828 16.03372955322266 C 74.87848663330078 11.94596099853516 70.11916351318359 8.736930847167969 64.82049560546875 6.495796203613281 C 59.33623886108398 4.1761474609375 53.50879287719727 2.999992370605469 47.50000762939453 2.999992370605469 M 47.50000762939453 -7.62939453125e-06 C 73.73352813720703 -7.62939453125e-06 95.00000762939453 21.26644134521484 95.00000762939453 47.49993133544922 C 95.00000762939453 73.73342132568359 73.73352813720703 94.99985504150391 47.50000762939453 94.99985504150391 C 21.26648712158203 94.99985504150391 7.62939453125e-06 73.73342132568359 7.62939453125e-06 47.49993133544922 C 7.62939453125e-06 21.26644134521484 21.26648712158203 -7.62939453125e-06 47.50000762939453 -7.62939453125e-06 Z" stroke="none" fill="#6c4dd8"/>
                                            </g>
                                          </g>
                                        </g>
                                      </g>
                                    </g>
                                  </g>
                                </g>
                              </g>
                            </g>
                          </g>
                        </g>
                      </g>
                    </g>
                  </g>
                </g>
              </g>
            </g>
          </g>
        </g>
      </g>
    </g>
    <g id="retroalimentacion-360" transform="translate(8335.104 3643.648)">
      <g id="Grupo_1236726" data-name="Grupo 1236726" transform="translate(0.981 0.876)">
        <path id="Trazado_1226561" data-name="Trazado 1226561" d="M218.555,295.968a2.731,2.731,0,0,1-2.143-2.666v-4.07h-7.286v4.07a2.731,2.731,0,0,1-2.143,2.666l.477,3.038c-.721.159,4.94,5.429,8,4.6C218.312,302.836,218.555,295.968,218.555,295.968Z" transform="translate(-183.776 -256.316)" fill="#bb5d4c"/>
        <path id="Trazado_1226562" data-name="Trazado 1226562" d="M129,350.445a11.64,11.64,0,0,0-3.892-1.645l-8.768-1.936c-.61-.135-3.294,5.574-5.81,5.571-2.642,0-5.12-5.713-5.761-5.571L96,348.8a17.284,17.284,0,0,0-4.755,1.991l3.467,7.566,10.96,4.138,13.459-.071,10.532-8.669.428-2.783Z" transform="translate(-81.561 -307.213)" fill="#bbf49b"/>
        <path id="Trazado_1226563" data-name="Trazado 1226563" d="M175.335,334.984,169.826,330a.35.35,0,0,1-.066-.438l1.368-2.312a2.077,2.077,0,0,1,3.44-.2l5.283,6.957-2.986,1.24A1.452,1.452,0,0,1,175.335,334.984Z" transform="translate(-150.858 -288.992)" fill="#9be69d"/>
        <path id="Trazado_1226564" data-name="Trazado 1226564" d="M261.02,334.984,266.528,330a.35.35,0,0,0,.066-.438l-1.368-2.312a2.077,2.077,0,0,0-3.44-.2l-5.283,6.957,2.986,1.24A1.452,1.452,0,0,0,261.02,334.984Z" transform="translate(-227.509 -288.992)" fill="#9be69d"/>
        <g id="Grupo_1236725" data-name="Grupo 1236725" transform="translate(0.497 11.701)">
          <path id="Trazado_1226565" data-name="Trazado 1226565" d="M31.322,126.017a26.483,26.483,0,0,0-.211,3.8l2.5,2.15,1.821-3.013a22.334,22.334,0,0,1,.174-2.4,21.993,21.993,0,0,1,7.743-14.145l-3.282-2.877A26.3,26.3,0,0,0,31.322,126.017Z" transform="translate(-28.944 -109.314)" fill="#afe6f2"/>
          <path id="Trazado_1226566" data-name="Trazado 1226566" d="M394.48,123.77l-1.791-.023a.38.38,0,0,1-.37-.322,26.374,26.374,0,0,0-8.829-15.78L380.758,111a22.066,22.066,0,0,1,7.129,12.223.381.381,0,0,1-.377.459l-1.775-.022a.38.38,0,0,0-.315.6l2.893,4.059.821,3.093,2.48-.381,1.054-3.471,2.124-3.2A.38.38,0,0,0,394.48,123.77Z" transform="translate(-337.744 -107.646)" fill="#afe6f2"/>
          <path id="Trazado_1226567" data-name="Trazado 1226567" d="M67.5,257.663a26.376,26.376,0,0,1-52.345,4.657.38.38,0,0,0-.369-.316l-1.814-.022a.38.38,0,0,1-.313-.59l4.178-6.3a.381.381,0,0,1,.627-.011l4.568,6.407a.38.38,0,0,1-.315.6l-1.735-.021a.382.382,0,0,0-.376.466A22.05,22.05,0,0,0,63,260.471q.133-1.045.166-2.079l1.673,2.348a.381.381,0,0,0,.627-.01Z" transform="translate(-12.597 -237.716)" fill="#9adbef"/>
        </g>
        <path id="Trazado_1226568" data-name="Trazado 1226568" d="M162.7,43.521c0,4.248-4.228,5.6-7.336,8.032l-12.832.345-2.753-2.663a30.854,30.854,0,0,1,.22-3.571,13.64,13.64,0,0,1,13.38-13.886,12.92,12.92,0,0,1,3.793.566C160.731,34.175,162.7,40.169,162.7,43.521Z" transform="translate(-124.39 -28.941)" fill="#90809e"/>
        <path id="Trazado_1226569" data-name="Trazado 1226569" d="M284.811,49.942a32.494,32.494,0,0,1,.305,3.658l-2.225,1.975-9.474.256a13.265,13.265,0,0,0,1.808-19.209A13.832,13.832,0,0,1,284.811,49.942Z" transform="translate(-242.447 -33.22)" fill="#7f688c"/>
        <path id="Trazado_1226570" data-name="Trazado 1226570" d="M157.528,184.158H137.921a4.576,4.576,0,0,1-4.576-4.576v-1.156a2.155,2.155,0,0,1,2.155-2.155h24.45a2.155,2.155,0,0,1,2.155,2.155v1.156a4.576,4.576,0,0,1-4.576,4.576Z" transform="translate(-118.741 -156.552)" fill="#bb5d4c"/>
        <path id="Trazado_1226571" data-name="Trazado 1226571" d="M195.007,157.373l-2.161,1.683a5.687,5.687,0,0,1-6.988,0l-2.161-1.683a8.345,8.345,0,0,1-3.218-6.584V142.6a3.27,3.27,0,0,1,4.307-3.1l2.007.671a8.066,8.066,0,0,0,5.117,0l2.007-.671a3.27,3.27,0,0,1,4.307,3.1v8.189A8.345,8.345,0,0,1,195.007,157.373Z" transform="translate(-160.368 -123.926)" fill="#c96d59"/>
        <path id="Trazado_1226572" data-name="Trazado 1226572" d="M346.175,16.89A9.249,9.249,0,0,1,361.2,9.528c1.683,2.191,2.9,4.317,2.9,7.237a8.743,8.743,0,0,1-9.487,8.93.345.345,0,0,0-.146.021l-4.182,1.8a.622.622,0,0,1-.843-.582l-.319-3.35a.351.351,0,0,0-.1-.248c-.055-.055-.259-.173-.312-.229a9.2,9.2,0,0,1-2.54-6.216Z" transform="translate(-306.703 -7.5)" fill="#f3f7fe"/>
        <path id="Trazado_1226573" data-name="Trazado 1226573" d="M383.884,32.076a9.253,9.253,0,0,1-9.827,9.224.345.345,0,0,0-.146.021l-4.875,1.851a.622.622,0,0,1-.844-.581v-3.74a.354.354,0,0,0-.1-.248c-.055-.055-.109-.11-.162-.166A10.011,10.011,0,0,0,380.414,24.86,9.218,9.218,0,0,1,383.884,32.076Z" transform="translate(-325.915 -22.832)" fill="#e8edf9"/>
        <path id="Trazado_1226574" data-name="Trazado 1226574" d="M26.063,16.809a11.828,11.828,0,0,0-1.136-5.677A9.239,9.239,0,0,0,8.344,16.744a9.115,9.115,0,0,0,1.9,5.608,10.5,10.5,0,0,0,8.02,3.232.345.345,0,0,1,.146.021l4.419,1.883a.622.622,0,0,0,.843-.582l.025-3.522a.351.351,0,0,1,.1-.248,8.729,8.729,0,0,0,2.263-6.328Z" transform="translate(-8.344 -7.5)" fill="#f3f7fe"/>
        <path id="Trazado_1226575" data-name="Trazado 1226575" d="M41.2,44.348a9.207,9.207,0,0,1-2.7,6.382.354.354,0,0,0-.1.248v3.74a.622.622,0,0,1-.844.581L32.68,53.447a.344.344,0,0,0-.146-.021,9.22,9.22,0,0,1-7.927-3.616A10.011,10.011,0,0,0,39.29,38.59,9.19,9.19,0,0,1,41.2,44.348Z" transform="translate(-22.707 -34.958)" fill="#e8edf9"/>
        <path id="Trazado_1226576" data-name="Trazado 1226576" d="M380.56,61.527l-2.489-2.486a1.5,1.5,0,0,1,0-2.124h0a1.5,1.5,0,0,1,2.123,0l1.18,1.178a.35.35,0,0,0,.5,0l4.191-4.2a1.5,1.5,0,1,1,2.127,2.12l-5.5,5.512A1.5,1.5,0,0,1,380.56,61.527Z" transform="translate(-334.485 -48.083)" fill="#bbf49b"/>
        <path id="Trazado_1226577" data-name="Trazado 1226577" d="M54.376,55.5a1.69,1.69,0,0,1-2.321-.088l-1.729-1.728a.351.351,0,0,0-.5,0L48.1,55.414a1.69,1.69,0,0,1-2.32.089,1.657,1.657,0,0,1-.059-2.4l1.762-1.761a.35.35,0,0,0,0-.5L45.756,49.12a1.687,1.687,0,0,1-.088-2.32,1.659,1.659,0,0,1,2.4-.057L49.831,48.5a.351.351,0,0,0,.5,0l1.729-1.728a1.69,1.69,0,0,1,2.321-.088,1.656,1.656,0,0,1,.057,2.4l-1.762,1.761a.35.35,0,0,0,0,.5L54.434,53.1A1.656,1.656,0,0,1,54.376,55.5Z" transform="translate(-40.927 -41.729)" fill="#fc90a8"/>
      </g>
      <g id="Grupo_1236727" data-name="Grupo 1236727" transform="translate(0.007 0)">
        <path id="Trazado_1226578" data-name="Trazado 1226578" d="M59.711,27.829a.876.876,0,0,0-.76-.441l-2.1,0A27.074,27.074,0,0,0,53.962,19.3a10.133,10.133,0,0,0,5.865-9.176A10.123,10.123,0,0,0,49.459,0a10.156,10.156,0,0,0-9.442,7.174,13.931,13.931,0,0,0-20.2,0A10.047,10.047,0,0,0,19.129,5.5a.876.876,0,1,0-1.556.807,8.328,8.328,0,0,1-1.445,9.656A1.489,1.489,0,0,0,15.7,17v3.262l-4.477-1.7a1.487,1.487,0,0,0-.623-.094A8.35,8.35,0,0,1,4.383,16.2a8.357,8.357,0,0,1-.1-12.06,8.349,8.349,0,0,1,10.9-.679.876.876,0,0,0,1.061-1.395,10.1,10.1,0,0,0-13.183.821A10.109,10.109,0,0,0,3.179,17.47a10.172,10.172,0,0,0,2.848,1.9,27.17,27.17,0,0,0-3.18,10.01,27.736,27.736,0,0,0-.183,3.282c0,.009,0,.018,0,.027L.342,36.647a.876.876,0,0,0,.755,1.32l2.118,0a27.228,27.228,0,0,0,.848,3.172.876.876,0,0,0,1.663-.554A25.42,25.42,0,0,1,4.8,36.942a.876.876,0,0,0-.862-.725l-1.315,0,3.624-6.174L9.809,36.22l-1.459,0h0a.876.876,0,0,0-.857,1.058A22.939,22.939,0,0,0,27.361,55.329a23.288,23.288,0,0,0,2.646.151,22.822,22.822,0,0,0,10.906-2.77.876.876,0,1,0-.835-1.541,21.078,21.078,0,0,1-9.223,2.541V47.264L32.633,48a2.338,2.338,0,0,0,2.457-.424l5.552-5.026,3.719.821a10.73,10.73,0,0,1,3.091,1.207,21.345,21.345,0,0,1-4.1,4.4.876.876,0,1,0,1.1,1.362,22.885,22.885,0,0,0,8.138-13.614l.437.759a.876.876,0,0,0,.756.439h0a.877.877,0,0,0,.756-.433l.754-1.285A25.584,25.584,0,0,1,7.261,44.229a.876.876,0,0,0-1.557.8,27.262,27.262,0,0,0,21.16,14.608,27.776,27.776,0,0,0,3.154.18A27.386,27.386,0,0,0,57.152,35.585a27.768,27.768,0,0,0,.181-2.835l2.373-4.043a.876.876,0,0,0,.005-.878ZM49.5,1.755a8.371,8.371,0,0,1,8.574,8.369A8.235,8.235,0,0,1,55.451,16.2a8.354,8.354,0,0,1-6.216,2.277,1.485,1.485,0,0,0-.623.094l-4.477,1.7V17a1.489,1.489,0,0,0-.429-1.045A8.364,8.364,0,0,1,49.5,1.755ZM39.677,21.5h2.417a1.337,1.337,0,0,1,.851.3l0,0a1.342,1.342,0,0,1,.489,1.036V23.8a3.843,3.843,0,0,1-3.761,3.838V21.5ZM20.257,10.28q.007-.455-.028-.91a12.211,12.211,0,0,1,19.376,0c-.022.3-.034.6-.029.908a10.071,10.071,0,0,0,2.806,6.832v2.647c-.1-.009-.191-.014-.289-.014H39.677a4.154,4.154,0,0,0-5.467-4.1l-2.009.672c-.129.043-.261.083-.391.119a.876.876,0,0,0,.461,1.691c.163-.044.326-.094.486-.147l2.009-.672a2.4,2.4,0,0,1,3.158,2.273v8.2a7.433,7.433,0,0,1-2.884,5.9l-2.164,1.685a4.812,4.812,0,0,1-5.92,0l-2.164-1.685a7.433,7.433,0,0,1-2.884-5.9v-8.2A2.4,2.4,0,0,1,25.067,17.3l2.01.672c.212.071.428.134.643.189a.876.876,0,0,0,.43-1.7c-.173-.044-.347-.095-.517-.152l-2.009-.672a4.154,4.154,0,0,0-5.467,4.1H17.74c-.1,0-.194.005-.289.014V17.111A10.069,10.069,0,0,0,20.257,10.28ZM29.98,44.5l-3.429-4.515a3.588,3.588,0,0,0,.658-2.077v-.365a6.555,6.555,0,0,0,5.542-.058v.423a3.588,3.588,0,0,0,.658,2.077ZM28.6,45.578l-1.941.806a.58.58,0,0,1-.609-.1l-5.2-4.7L22,39.63a1.2,1.2,0,0,1,1.992-.114ZM16.4,22.841a1.342,1.342,0,0,1,.489-1.036l0,0a1.338,1.338,0,0,1,.851-.3h2.417V27.64A3.843,3.843,0,0,1,16.4,23.8v-.961ZM6.261,27.422h0a.876.876,0,0,0-.756.433l-.886,1.51a25.418,25.418,0,0,1,3.1-9.419,9.936,9.936,0,0,0,2.84.284,23.1,23.1,0,0,0-3.187,8.233l-.347-.6a.876.876,0,0,0-.756-.439Zm5.064,10.553h0a.876.876,0,0,0,.759-1.314L8.813,30.979c.022-.3.05-.607.085-.909a21.331,21.331,0,0,1,3.351-9.24l2.573.977a3.083,3.083,0,0,0-.178,1.033V23.8a5.6,5.6,0,0,0,5.592,5.592H20.3a9.165,9.165,0,0,0,3.419,5.664l1.74,1.355v1.5a1.858,1.858,0,0,1-.078.533,2.955,2.955,0,0,0-4.887.294l-1.2,2.026-4.072.9A12.482,12.482,0,0,0,11.57,43.1a21.169,21.169,0,0,1-2.111-5.126Zm1.182,6.607A10.732,10.732,0,0,1,15.6,43.374l3.719-.821,5.552,5.026A2.338,2.338,0,0,0,27.327,48l1.777-.738v6.444q-.77-.033-1.543-.12a21.2,21.2,0,0,1-15.053-9.007Zm21.407,1.7a.58.58,0,0,1-.608.1l-1.941-.806,4.6-6.063a1.2,1.2,0,0,1,1.993.115l1.151,1.945ZM51.1,34.89A21.233,21.233,0,0,1,48.394,43.1a12.479,12.479,0,0,0-3.655-1.438l-4.073-.9-1.2-2.026a2.955,2.955,0,0,0-4.887-.294,1.858,1.858,0,0,1-.078-.533v-1.6l1.614-1.257a9.166,9.166,0,0,0,3.419-5.664H39.6A5.6,5.6,0,0,0,45.19,23.8v-.961a3.083,3.083,0,0,0-.178-1.033l2.73-1.036a21,21,0,0,1,2.884,6.608h-1.9a.876.876,0,0,0-.759,1.314l3.2,5.56c-.019.217-.039.431-.063.637Zm2.7.422-3.559-6.18h1.476a.876.876,0,0,0,.86-1.042,22.794,22.794,0,0,0-3.094-7.853,9.956,9.956,0,0,0,2.812-.335,25.368,25.368,0,0,1,2.959,8.5.876.876,0,0,0,.864.738l1.305,0Z" transform="translate(-0.007 0)"/>
        <path id="Trazado_1226579" data-name="Trazado 1226579" d="M227.607,249.143a.876.876,0,0,0,.327,1.2,5.879,5.879,0,0,0,5.8,0,.876.876,0,1,0-.868-1.522,4.119,4.119,0,0,1-4.062,0A.876.876,0,0,0,227.607,249.143Z" transform="translate(-200.914 -219.644)"/>
        <path id="Trazado_1226580" data-name="Trazado 1226580" d="M49.135,41.2A2.537,2.537,0,0,0,44.8,39.409L43.412,40.8l-1.393-1.392A2.536,2.536,0,1,0,38.432,43l1.392,1.391-1.392,1.391a2.536,2.536,0,1,0,3.587,3.587l1.393-1.392L44.8,49.365a2.536,2.536,0,1,0,3.587-3.587L47,44.387,48.392,43A2.519,2.519,0,0,0,49.135,41.2Zm-1.982.554-2.012,2.011a.876.876,0,0,0,0,1.24l2.012,2.011a.784.784,0,1,1-1.11,1.108l-2.012-2.011a.876.876,0,0,0-1.239,0l-2.012,2.011a.784.784,0,0,1-1.339-.554.777.777,0,0,1,.23-.554l2.012-2.011a.876.876,0,0,0,0-1.24l-2.012-2.011a.784.784,0,0,1,1.11-1.107l2.012,2.011a.876.876,0,0,0,1.239,0l2.012-2.011a.784.784,0,1,1,1.109,1.108Z" transform="translate(-33.286 -34.15)"/>
        <path id="Trazado_1226581" data-name="Trazado 1226581" d="M373.51,55.6a2.383,2.383,0,0,0,3.366,0l5.511-5.52a2.379,2.379,0,0,0-1.685-4.06h0a2.364,2.364,0,0,0-1.683.7l-3.824,3.835-.809-.808a2.38,2.38,0,1,0-3.365,3.367Zm-1.253-4.616a.628.628,0,0,1,.887,0l1.43,1.428a.877.877,0,0,0,.619.256h0a.876.876,0,0,0,.62-.258l4.444-4.456a.624.624,0,0,1,.444-.184h0a.627.627,0,0,1,.444,1.07l-5.51,5.52a.629.629,0,0,1-.888,0l-2.492-2.489a.627.627,0,0,1,0-.888Z" transform="translate(-327.055 -40.638)"/>
      </g>
    </g>
  </g>
</svg>
