<svg xmlns="http://www.w3.org/2000/svg" xmlns:xlink="http://www.w3.org/1999/xlink" width="295" height="284" viewBox="0 0 295 284">
  <defs>
    <clipPath id="clip-path">
      <rect id="Rectángulo_423955" data-name="Rectángulo 423955" width="295" height="284" transform="translate(1125 6895)" fill="#fff" stroke="#707070" stroke-width="1"/>
    </clipPath>
    <clipPath id="clip-path-2">
      <rect id="Rectángulo_423962" data-name="Rectángulo 423962" width="324" height="324" transform="translate(0 0.295)"/>
    </clipPath>
    <clipPath id="clip-path-3">
      <path id="Trazado_1226399" data-name="Trazado 1226399" d="M180.728,149.648a18.324,18.324,0,1,1-22.585-12.706A18.325,18.325,0,0,1,180.728,149.648Z" transform="translate(-144.754 -136.259)"/>
    </clipPath>
    <clipPath id="clip-path-4">
      <path id="Trazado_1226401" data-name="Trazado 1226401" d="M167.041,189.719s4.706,14.452,12.336,12.316,3.986-16.778,3.986-16.778A18.679,18.679,0,0,1,167.041,189.719Z" transform="translate(-167.041 -185.257)"/>
    </clipPath>
    <clipPath id="clip-path-5">
      <rect id="Rectángulo_423963" data-name="Rectángulo 423963" width="333" height="345" transform="translate(0 0.295)"/>
    </clipPath>
    <clipPath id="clip-path-6">
      <path id="Trazado_1226416" data-name="Trazado 1226416" d="M410.236,210.1s-2.357-5.839-7.446-4.264a2.572,2.572,0,0,0-1.411,3.857,5.958,5.958,0,0,0,2.646,2.328C407.187,213.413,410.236,210.1,410.236,210.1Z" transform="translate(-400.97 -205.564)"/>
    </clipPath>
    <clipPath id="clip-path-7">
      <rect id="Rectángulo_423964" data-name="Rectángulo 423964" width="324" height="330" transform="translate(0 0.295)"/>
    </clipPath>
    <clipPath id="clip-path-8">
      <path id="Trazado_1226438" data-name="Trazado 1226438" d="M98.683,188.918s.936,3.755,2.106,9.547c0,0-5.026,1.578-7.44-.133-1.116-.791-1.671-2.533-2.242-5.145C91.108,193.187,92.3,189.3,98.683,188.918Z" transform="translate(-91.107 -188.918)"/>
    </clipPath>
    <clipPath id="clip-path-9">
      <path id="Trazado_1226436" data-name="Trazado 1226436" d="M104.218,194.086s-6.8-5.339-11.036,2.186a7.27,7.27,0,0,0,5.992,2.612C102.913,198.563,104.218,194.086,104.218,194.086Z" transform="translate(-93.182 -192.249)"/>
    </clipPath>
    <clipPath id="clip-path-10">
      <rect id="Rectángulo_423965" data-name="Rectángulo 423965" width="324" height="344" transform="translate(0 0.295)"/>
    </clipPath>
  </defs>
  <g id="Enmascarar_grupo_1208504" data-name="Enmascarar grupo 1208504" transform="translate(-1125 -6895)" clip-path="url(#clip-path)">
    <g id="Grupo_1236692" data-name="Grupo 1236692" transform="translate(-6518 242)">
      <g id="Grupo_1236640" data-name="Grupo 1236640" transform="translate(7680.707 6675.062)">
        <path id="Trazado_1226381" data-name="Trazado 1226381" d="M380.519,60.111l8.372-39.5,30.121,27.02Z" transform="translate(-182.424 -20.601)" fill="#e761e1"/>
        <g id="Grupo_1236638" data-name="Grupo 1236638" transform="translate(85.445 0.075)">
          <path id="Trazado_1226382" data-name="Trazado 1226382" d="M252.792,26.1l-1.74,1.8,3.81,4.324,7.551-7.86-1.489-1.982-5.894,6.2Z" transform="translate(-222.373 -21.296)" fill="#e761e1"/>
          <g id="Grupo_1236637" data-name="Grupo 1236637" transform="translate(15.508 1.363)">
            <rect id="Rectángulo_423957" data-name="Rectángulo 423957" width="2.268" height="11.19" transform="translate(0 1.604) rotate(-45)" fill="#e761e1"/>
            <rect id="Rectángulo_423958" data-name="Rectángulo 423958" width="2.268" height="11.19" transform="translate(1.608 9.519) rotate(-135)" fill="#e761e1"/>
          </g>
          <path id="Trazado_1226383" data-name="Trazado 1226383" d="M212.957,32.956a6.122,6.122,0,1,1,6.122-6.123A6.129,6.129,0,0,1,212.957,32.956Zm0-10.3a4.177,4.177,0,1,0,4.176,4.176A4.181,4.181,0,0,0,212.957,22.657Z" transform="translate(-206.835 -20.711)" fill="#e761e1"/>
        </g>
        <g id="Grupo_1236639" data-name="Grupo 1236639" transform="translate(76.793 30.114)">
          <rect id="Rectángulo_423959" data-name="Rectángulo 423959" width="72.387" height="2.895" fill="#e761e1"/>
          <rect id="Rectángulo_423960" data-name="Rectángulo 423960" width="46.906" height="2.895" transform="translate(36.853 5.251)" fill="#e761e1"/>
        </g>
        <rect id="Rectángulo_423961" data-name="Rectángulo 423961" width="11.478" height="11.478" transform="translate(239.801 0) rotate(22.315)" fill="#e761e1"/>
        <circle id="Elipse_12828" data-name="Elipse 12828" cx="15.143" cy="15.143" r="15.143" transform="translate(15.955 253.654)" fill="#e761e1" stroke="#e761e1" stroke-width="1"/>
        <circle id="Elipse_12829" data-name="Elipse 12829" cx="6.382" cy="6.382" r="6.382" transform="translate(0 276.871)" fill="none" stroke="#e761e1" stroke-miterlimit="10" stroke-width="3"/>
      </g>
      <g id="Grupo_1236642" data-name="Grupo 1236642" transform="translate(7664.661 6725.344)">
        <path id="Trazado_1226384" data-name="Trazado 1226384" d="M303.165,278.42H56.522a6.165,6.165,0,0,1-6.165-6.165V104.284a6.165,6.165,0,0,1,6.165-6.165H303.166a6.165,6.165,0,0,1,6.165,6.165V272.255A6.166,6.166,0,0,1,303.165,278.42Z" transform="translate(-50.357 -98.119)" fill="#e2cebf"/>
        <path id="Trazado_1226385" data-name="Trazado 1226385" d="M309.33,116.825V278.047a6.947,6.947,0,0,1-6.947,6.947H57.3a6.947,6.947,0,0,1-6.947-6.947V116.825Z" transform="translate(-50.357 -104.692)" fill="#f4f4f4"/>
        <line id="Línea_3848" data-name="Línea 3848" x1="258.973" transform="translate(0 12.133)" fill="none" stroke="#1e1a35" stroke-linecap="round" stroke-linejoin="round" stroke-miterlimit="10" stroke-width="0.75"/>
        <g id="Grupo_1236641" data-name="Grupo 1236641" transform="translate(225.614 2.696)">
          <path id="Trazado_1226386" data-name="Trazado 1226386" d="M405.214,105.778a3.5,3.5,0,1,1-3.5-3.5A3.5,3.5,0,0,1,405.214,105.778Z" transform="translate(-398.21 -102.276)" fill="#e95d33"/>
          <path id="Trazado_1226387" data-name="Trazado 1226387" d="M420.124,105.778a3.5,3.5,0,1,1-3.5-3.5A3.5,3.5,0,0,1,420.124,105.778Z" transform="translate(-403.45 -102.276)" fill="#f4c762"/>
          <path id="Trazado_1226388" data-name="Trazado 1226388" d="M436.321,105.778a3.5,3.5,0,1,1-3.5-3.5A3.5,3.5,0,0,1,436.321,105.778Z" transform="translate(-409.141 -102.276)" fill="#229380"/>
          <path id="Trazado_1226389" data-name="Trazado 1226389" d="M432.819,109.279a3.5,3.5,0,0,1,0-7" transform="translate(-409.141 -102.276)" fill="none" stroke="#1e1a35" stroke-linecap="round" stroke-linejoin="round" stroke-miterlimit="10" stroke-width="0.75"/>
          <path id="Trazado_1226390" data-name="Trazado 1226390" d="M398.211,105.778a3.5,3.5,0,1,1,7,0" transform="translate(-398.21 -102.276)" fill="none" stroke="#1e1a35" stroke-linecap="round" stroke-linejoin="round" stroke-miterlimit="10" stroke-width="0.75"/>
          <path id="Trazado_1226391" data-name="Trazado 1226391" d="M416.623,109.279a3.5,3.5,0,1,1,3.5-3.5" transform="translate(-403.45 -102.276)" fill="none" stroke="#1e1a35" stroke-linecap="round" stroke-linejoin="round" stroke-miterlimit="10" stroke-width="0.75"/>
        </g>
        <path id="Trazado_1226392" data-name="Trazado 1226392" d="M50.357,187.5V105.066A6.947,6.947,0,0,1,57.3,98.119H172.117" transform="translate(-50.357 -98.119)" fill="none" stroke="#1e1a35" stroke-linecap="round" stroke-linejoin="round" stroke-miterlimit="10" stroke-width="0.75"/>
        <line id="Línea_3849" data-name="Línea 3849" x1="169.033" transform="translate(6.947 180.301)" fill="none" stroke="#1e1a35" stroke-linecap="round" stroke-linejoin="round" stroke-miterlimit="10" stroke-width="0.75"/>
        <line id="Línea_3850" data-name="Línea 3850" y2="134.574" transform="translate(258.973 38.781)" fill="none" stroke="#1e1a35" stroke-linecap="round" stroke-linejoin="round" stroke-miterlimit="10" stroke-width="0.75"/>
      </g>
      <g id="Grupo_1236686" data-name="Grupo 1236686" transform="translate(7632 6661.705)">
        <g id="Grupo_1236652" data-name="Grupo 1236652" clip-path="url(#clip-path-2)">
          <path id="Trazado_1226393" data-name="Trazado 1226393" d="M184.6,186.505H133.9a5.372,5.372,0,0,1-5.372-5.372V137.28a5.372,5.372,0,0,1,5.372-5.372h50.7a5.372,5.372,0,0,1,5.372,5.372v43.853A5.372,5.372,0,0,1,184.6,186.505Z" transform="translate(-45.167 -46.354)" fill="none" stroke="#1e1a35" stroke-linecap="round" stroke-linejoin="round" stroke-miterlimit="10" stroke-width="0.75"/>
          <g id="Grupo_1236643" data-name="Grupo 1236643" transform="translate(92.148 174.173)">
            <path id="Trazado_1226394" data-name="Trazado 1226394" d="M266.638,308.3,146.784,293.408a5.372,5.372,0,0,1-4.669-5.993l1.76-14.165a5.372,5.372,0,0,1,5.993-4.669L269.722,283.47a5.372,5.372,0,0,1,4.669,5.993l-1.76,14.164A5.372,5.372,0,0,1,266.638,308.3Z" transform="translate(-142.074 -268.54)" fill="none" stroke="#1e1a35" stroke-linecap="round" stroke-linejoin="round" stroke-miterlimit="10" stroke-width="0.75"/>
            <line id="Línea_3851" data-name="Línea 3851" x2="86.654" y2="10.764" transform="translate(12.275 7.496)" fill="none" stroke="#1e1a35" stroke-linecap="round" stroke-linejoin="round" stroke-miterlimit="10" stroke-width="0.75"/>
            <line id="Línea_3852" data-name="Línea 3852" x2="86.212" y2="10.71" transform="translate(11.422 14.361)" fill="none" stroke="#1e1a35" stroke-linecap="round" stroke-linejoin="round" stroke-miterlimit="10" stroke-width="0.75"/>
            <line id="Línea_3853" data-name="Línea 3853" x2="45.116" y2="5.604" transform="translate(43.605 22.843)" fill="none" stroke="#1e1a35" stroke-linecap="round" stroke-linejoin="round" stroke-miterlimit="10" stroke-width="0.75"/>
          </g>
          <path id="Trazado_1226395" data-name="Trazado 1226395" d="M309.726,210.177H248.478a5.372,5.372,0,0,1-5.372-5.372V150.111a5.372,5.372,0,0,1,5.372-5.372h61.248a5.372,5.372,0,0,1,5.372,5.372V204.8A5.372,5.372,0,0,1,309.726,210.177Z" transform="translate(-85.43 -50.863)" fill="none" stroke="#1e1a35" stroke-linecap="round" stroke-linejoin="round" stroke-miterlimit="10" stroke-width="0.75"/>
          <g id="Grupo_1236648" data-name="Grupo 1236648" transform="translate(93.885 88.376)">
            <path id="Trazado_1226396" data-name="Trazado 1226396" d="M180.728,149.648a18.324,18.324,0,1,1-22.585-12.706A18.325,18.325,0,0,1,180.728,149.648Z" transform="translate(-144.753 -136.259)" fill="#f4c762"/>
            <path id="Trazado_1226397" data-name="Trazado 1226397" d="M167.041,189.719s4.706,14.452,12.336,12.316,3.986-16.778,3.986-16.778A18.679,18.679,0,0,1,167.041,189.719Z" transform="translate(-152.585 -153.477)" fill="#229380"/>
            <g id="Grupo_1236645" data-name="Grupo 1236645" transform="translate(0.001)">
              <g id="Grupo_1236644" data-name="Grupo 1236644" clip-path="url(#clip-path-3)">
                <path id="Trazado_1226398" data-name="Trazado 1226398" d="M181.642,176.824s-13.269-3.781-9.161-13.545,8.033,6.619-.941,9.132-14.308-11.8-6.262-6.807c7.178,4.456-.08,15.824-.08,15.824" transform="translate(-150.578 -144.673)" fill="none" stroke="#f4f4f4" stroke-linecap="round" stroke-linejoin="round" stroke-miterlimit="10" stroke-width="4"/>
              </g>
            </g>
            <g id="Grupo_1236647" data-name="Grupo 1236647" transform="translate(14.456 31.78)">
              <g id="Grupo_1236646" data-name="Grupo 1236646" clip-path="url(#clip-path-4)">
                <path id="Trazado_1226400" data-name="Trazado 1226400" d="M170.147,199.921s8.342,2.542,16.232-4.77" transform="translate(-168.132 -188.734)" fill="none" stroke="#f4f4f4" stroke-linecap="round" stroke-linejoin="round" stroke-miterlimit="10" stroke-width="4"/>
              </g>
            </g>
            <path id="Trazado_1226402" data-name="Trazado 1226402" d="M188.5,140.888a18.326,18.326,0,0,1,5.2,25.5" transform="translate(-160.126 -137.885)" fill="none" stroke="#1e1a35" stroke-linecap="round" stroke-linejoin="round" stroke-miterlimit="10" stroke-width="0.75"/>
            <path id="Trazado_1226403" data-name="Trazado 1226403" d="M155.19,171.5a18.324,18.324,0,0,1,2.952-34.184" transform="translate(-144.753 -136.629)" fill="none" stroke="#1e1a35" stroke-linecap="round" stroke-linejoin="round" stroke-miterlimit="10" stroke-width="0.75"/>
          </g>
          <g id="Grupo_1236651" data-name="Grupo 1236651" transform="translate(169.169 101.735)">
            <g id="Grupo_1236649" data-name="Grupo 1236649" transform="translate(0 0.001)">
              <path id="Trazado_1226404" data-name="Trazado 1226404" d="M309.841,187.444c-.961-.015-1.923.008-2.884-.013a.6.6,0,0,0-.686.479c-.455,1.21-.968,2.4-1.487,3.583a.505.505,0,0,0,.1.686c.724.691,1.415,1.419,2.134,2.117l-8.536,9.017c-.333-.378-.643-.751-.977-1.1-.441-.464-.907-.905-1.349-1.369a.45.45,0,0,0-.59-.1q-1.881.8-3.779,1.554a.416.416,0,0,0-.322.451c.011,1.017-.01,2.035.014,3.052l-12.319-.031c.023-.988-.006-1.978.005-2.968,0-.3-.106-.418-.392-.529-1.219-.47-2.428-.971-3.626-1.492a.53.53,0,0,0-.721.11c-.681.717-1.4,1.4-2.091,2.105l-8.719-8.676c.716-.722,1.43-1.446,2.156-2.159a.453.453,0,0,0,.1-.61c-.531-1.209-1.038-2.43-1.509-3.663a.585.585,0,0,0-.659-.459c-.961.023-1.923,0-2.884.012V175.154c.961.014,1.923-.012,2.884.015a.587.587,0,0,0,.66-.457c.486-1.242,1.007-2.472,1.539-3.7a.413.413,0,0,0-.121-.542c-.8-.789-1.6-1.585-2.4-2.382l8.7-8.7c.27.261.558.536.841.817.533.53,1.067,1.058,1.591,1.6a.41.41,0,0,0,.547.073c1.224-.531,2.453-1.053,3.7-1.534a.536.536,0,0,0,.414-.6c-.019-.961,0-1.923-.025-2.884l12.337.025c-.025.975,0,1.951-.019,2.926-.005.3.108.42.391.531,1.243.486,2.475,1,3.7,1.533a.46.46,0,0,0,.614-.1c.709-.729,1.439-1.438,2.151-2.164l9,8.515c-.3.263-.613.514-.9.791-.531.514-1.042,1.046-1.57,1.562a.436.436,0,0,0-.1.579c.531,1.21,1.046,2.427,1.521,3.659a.579.579,0,0,0,.653.46c.961-.025,1.923,0,2.884-.015ZM296.224,181.3a10.9,10.9,0,1,0-11.056,10.915A10.9,10.9,0,0,0,296.224,181.3Z" transform="translate(-260.826 -156.856)" fill="#e761e1"/>
            </g>
            <g id="Grupo_1236650" data-name="Grupo 1236650" transform="translate(0.002)">
              <path id="Trazado_1226405" data-name="Trazado 1226405" d="M279.182,159.739c-.019-.961,0-1.923-.025-2.884l12.337.025c-.025.975,0,1.951-.019,2.926-.005.3.108.42.391.531,1.243.486,2.475,1,3.7,1.533a.46.46,0,0,0,.614-.1c.709-.729,1.439-1.438,2.151-2.164m-37.5,15.552c.961.014,1.923-.012,2.884.015a.587.587,0,0,0,.66-.457c.486-1.242,1.007-2.472,1.539-3.7a.413.413,0,0,0-.121-.542c-.8-.789-1.6-1.585-2.4-2.382m15.39,34.182c-1.219-.47-2.428-.971-3.626-1.492a.53.53,0,0,0-.721.11c-.681.717-1.4,1.4-2.091,2.105l-8.719-8.676c.716-.722,1.43-1.446,2.156-2.158m40.494-17.455a.579.579,0,0,0,.653.46c.961-.025,1.923,0,2.884-.015l.036,12.291c-.961-.015-1.923.008-2.884-.013a.6.6,0,0,0-.686.479c-.455,1.21-.968,2.4-1.487,3.583a.505.505,0,0,0,.1.686c.724.691,1.415,1.419,2.134,2.117l-8.536,9.017c-.333-.378-.643-.751-.977-1.1-.441-.464-.907-.905-1.349-1.369a.45.45,0,0,0-.59-.1m-10.16-30.341a10.906,10.906,0,0,0-.242,21.81" transform="translate(-260.829 -156.855)" fill="none" stroke="#1e1a35" stroke-linecap="round" stroke-linejoin="round" stroke-miterlimit="10" stroke-width="0.75"/>
            </g>
          </g>
        </g>
        <g id="Grupo_1236665" data-name="Grupo 1236665" clip-path="url(#clip-path-5)">
          <g id="Grupo_1236653" data-name="Grupo 1236653" transform="translate(292.237 176.356)">
            <path id="Trazado_1226406" data-name="Trazado 1226406" d="M454.228,297.422s21.424,31.161,38.722,64.369c3.141,6.029,10.6,8.738,16.629,5.6a8.989,8.989,0,0,0,4.181-4.208s-9.865-39.858-26.387-77.675a22.648,22.648,0,0,0-28.644-12.169c-.077.029.077-.03,0,0C443.534,279.146,454.228,297.422,454.228,297.422Z" transform="translate(-450.572 -271.907)" fill="#c46341"/>
            <line id="Línea_3854" data-name="Línea 3854" x1="12.541" y1="22.264" transform="translate(24.843 58.222)" fill="#b55757"/>
          </g>
          <g id="Grupo_1236655" data-name="Grupo 1236655" transform="translate(272.34 231.321)">
            <g id="Grupo_1236654" data-name="Grupo 1236654">
              <path id="Trazado_1226407" data-name="Trazado 1226407" d="M518.976,499.368,473.887,356.651s-19.721,10.613-53.992,6.391l17.7,158.6L471.1,511.478l-4.469-96.241,11.808,95.541Z" transform="translate(-419.895 -356.651)" fill="#229380"/>
              <line id="Línea_3855" data-name="Línea 3855" x2="3.455" y2="72.178" transform="translate(46.05 44.242)" fill="none" stroke="#1e1a35" stroke-linecap="round" stroke-linejoin="round" stroke-miterlimit="10" stroke-width="0.75"/>
              <path id="Trazado_1226408" data-name="Trazado 1226408" d="M431.232,377.725s5.259,15.755-5.146,28.7" transform="translate(-422.071 -364.057)" fill="none" stroke="#1e1a35" stroke-linecap="round" stroke-linejoin="round" stroke-miterlimit="10" stroke-width="0.75"/>
              <line id="Línea_3856" data-name="Línea 3856" x2="31.277" y2="130.36" transform="translate(10.27 27.114)" fill="none" stroke="#1e1a35" stroke-linecap="round" stroke-linejoin="round" stroke-miterlimit="10" stroke-width="0.75"/>
            </g>
          </g>
          <g id="Grupo_1236661" data-name="Grupo 1236661" transform="translate(253.638 107.282)">
            <path id="Trazado_1226409" data-name="Trazado 1226409" d="M430.984,221.781c2.714-19.823,8.6-30.555-5.01-35.259l-9.052-2.912s-10.006-3.241-17.566,8.044c-1.634,2.44-.989,5.135-5.057,6.981-5.407,2.454.475,5.83.3,6.934-1.184,7.394-.92,15.65,11.93,17.67l2.441.392.009,8.236s-1.677,8.971,10.815,7.416a26.849,26.849,0,0,0,12.624-4.7Z" transform="translate(-391.393 -171.653)" fill="#c46341"/>
            <path id="Trazado_1226410" data-name="Trazado 1226410" d="M404.3,198.329a1.659,1.659,0,0,0,1.624,1.7c-.029,0,0-.007.011-.01a.27.27,0,0,1,.054-.006,1.26,1.26,0,0,1,.128-.008c.089-.006.187,0,.283,0a5.531,5.531,0,0,1,.6.062,5.727,5.727,0,0,1,1.208.328,6.069,6.069,0,0,1,1.151.593,7.337,7.337,0,0,1,1.054.837l.054.049a.919.919,0,0,0,1.31-.069.949.949,0,0,0,.087-1.15,9.519,9.519,0,0,0-1.055-1.372s-3.074-3.318-3.761-1.848C407.052,197.437,404.494,195.8,404.3,198.329Z" transform="translate(-395.714 -176.48)" fill="#1e1a35"/>
            <path id="Trazado_1226411" data-name="Trazado 1226411" d="M431.117,213.486s1.976-.714,2.563.13c.95,1.368-.086,3.663-1.5,5.069" transform="translate(-405.136 -182.204)" fill="none" stroke="#1e1a35" stroke-linecap="round" stroke-linejoin="round" stroke-miterlimit="10" stroke-width="0.75"/>
            <path id="Trazado_1226412" data-name="Trazado 1226412" d="M428.556,216.153s1.586,1.859-.2,2.362.4,1.388.4,1.388" transform="translate(-403.918 -183.24)" fill="none" stroke="#1e1a35" stroke-linecap="round" stroke-linejoin="round" stroke-miterlimit="10" stroke-width="0.75"/>
            <path id="Trazado_1226413" data-name="Trazado 1226413" d="M421.1,208.8a2.44,2.44,0,0,1,.376-4.043c2.755-1.6,4.606-5.249,3.229-8.325-2.2-4.926-5.812-1.566-5.812-1.566s-2.543,2.666-3.631,1.049a4.676,4.676,0,0,0-1.768-5.741c-4.06-3.075-.741-8.476-.741-8.476-5.866-3.334-10.091,2.539-10.091,2.539s-4.621.2-3.422-5.643c.828-4.03,5.182-3.246,5.182-3.246s-2-6.524,3.7-9.062c7.139-3.176,12.737,2.947,17.477,7.993,9.5,10.108,12.975,6.49,15.762,14.9,2.674,8.065-3.986,24.017-7.911,26.365s-7.874-1.769-7.874-1.769a29.782,29.782,0,0,0-4.4-4.912Z" transform="translate(-393.866 -165.408)" fill="#1e1a35"/>
            <g id="Grupo_1236660" data-name="Grupo 1236660" transform="translate(6.428 25.252)">
              <path id="Trazado_1226414" data-name="Trazado 1226414" d="M410.244,210.1s-2.343-5.8-7.4-4.279a2.6,2.6,0,0,0-1.431,3.91,5.955,5.955,0,0,0,2.62,2.288C407.195,213.413,410.244,210.1,410.244,210.1Z" transform="translate(-400.978 -204.771)" fill="#fff"/>
              <g id="Grupo_1236658" data-name="Grupo 1236658" transform="translate(0 0.793)">
                <g id="Grupo_1236657" data-name="Grupo 1236657">
                  <g id="Grupo_1236656" data-name="Grupo 1236656" clip-path="url(#clip-path-6)">
                    <path id="Trazado_1226415" data-name="Trazado 1226415" d="M400.576,206.957a3.484,3.484,0,0,0,1.854,4.495,3.343,3.343,0,0,0,4.291-2.1,3.484,3.484,0,0,0-1.854-4.495A3.342,3.342,0,0,0,400.576,206.957Z" transform="translate(-400.75 -205.24)" fill="#1e1a35"/>
                  </g>
                </g>
              </g>
              <g id="Grupo_1236659" data-name="Grupo 1236659" transform="translate(0.052)">
                <path id="Trazado_1226417" data-name="Trazado 1226417" d="M401.052,207.409a3.817,3.817,0,0,1,.615-1.6A3.362,3.362,0,0,1,403,204.676a3.856,3.856,0,0,1,1.715-.333,6.04,6.04,0,0,1,1.678.27,5.1,5.1,0,0,1,2.672,2.037,15.79,15.79,0,0,1,.863,1.373,6.99,6.99,0,0,1,.652,1.464.085.085,0,0,1-.056.106.087.087,0,0,1-.083-.019c-.8-.748-1.275-1.706-1.961-2.464a5.157,5.157,0,0,0-2.351-1.663,4.293,4.293,0,0,0-2.818-.054,3.169,3.169,0,0,0-1.783,2.1l-.007.023a.243.243,0,0,1-.473-.1Z" transform="translate(-401.049 -204.342)" fill="#1e1a35"/>
              </g>
              <path id="Trazado_1226418" data-name="Trazado 1226418" d="M415.257,212.555" transform="translate(-405.991 -207.228)" fill="none" stroke="#300606" stroke-linecap="round" stroke-linejoin="round" stroke-miterlimit="10" stroke-width="0.75"/>
            </g>
            <path id="Trazado_1226419" data-name="Trazado 1226419" d="M394.264,214.673S396,213.362,400.4,217c4.258.1,9.322,4.756,12.862-7.916l2.825,1.129s-3.422,9.011-3,11.641c0,0,6.3,10.742-3.33,12.417s-16.413,8.993-18.264,3.652S394.264,214.673,394.264,214.673Z" transform="translate(-391.059 -180.755)" fill="#1e1a35"/>
            <path id="Trazado_1226420" data-name="Trazado 1226420" d="M398.8,225.927s3.133,1.874,5.064-.423" transform="translate(-393.781 -186.526)" fill="none" stroke="#f4f4f4" stroke-linecap="round" stroke-linejoin="round" stroke-miterlimit="10" stroke-width="0.75"/>
          </g>
          <g id="Grupo_1236663" data-name="Grupo 1236663" transform="translate(193.573 121.005)">
            <path id="Trazado_1226421" data-name="Trazado 1226421" d="M388.332,271.019c8.714-6.91,17.23-21.487,7.065-26h0c-7.594-3.289-58.335-2.6-58.335-2.6L323.58,207.587s-2.561-5.9-13.319,4.079c0,0,4.9,44.591,15.875,50.011,0,0,23.6,8.845,33.277,10.4C359.412,272.08,381.163,276.7,388.332,271.019Z" transform="translate(-302.602 -193.344)" fill="#c46341"/>
            <g id="Grupo_1236662" data-name="Grupo 1236662">
              <path id="Trazado_1226422" data-name="Trazado 1226422" d="M320.4,201.05s2.527-6.2.228-8.788-5.137-.015-6.575-1.551-4.7-6.194-8.143-3.115a2.356,2.356,0,0,0-.785,1.977,2.509,2.509,0,0,0-2.652,3.989s-1.271-1.3-2.274-.155-1.669,2.653-.555,3.843a2.155,2.155,0,0,0-.529,3.463c1.762,2.2,12.506,8.557,12.506,8.557S317.247,209.235,320.4,201.05Z" transform="translate(-298.452 -186.565)" fill="#c46341"/>
              <line id="Línea_3857" data-name="Línea 3857" x2="4.237" y2="5.13" transform="translate(6.676 3.007)" fill="none" stroke="#1e1a35" stroke-linecap="round" stroke-linejoin="round" stroke-miterlimit="10" stroke-width="0.75"/>
              <line id="Línea_3858" data-name="Línea 3858" x2="4.237" y2="5.13" transform="translate(3.407 6.296)" fill="none" stroke="#1e1a35" stroke-linecap="round" stroke-linejoin="round" stroke-miterlimit="10" stroke-width="0.75"/>
              <line id="Línea_3859" data-name="Línea 3859" x2="3.139" y2="3.956" transform="translate(1.195 10.684)" fill="none" stroke="#1e1a35" stroke-linecap="round" stroke-linejoin="round" stroke-miterlimit="10" stroke-width="0.75"/>
            </g>
          </g>
          <g id="Grupo_1236664" data-name="Grupo 1236664" transform="translate(241.981 169.449)">
            <path id="Trazado_1226423" data-name="Trazado 1226423" d="M460.112,324.659l-9.9-26.3-2.881,6.754,22.529-7.9L456.179,272.7c-5.668-10.7-19.347-11.223-24.684-11.182l-54.308-.26s-7.19,19.124-2.526,34.656l22.572,1.346,6.046,47.009S437.036,339.183,460.112,324.659Z" transform="translate(-373.087 -261.257)" fill="#f4c762"/>
            <line id="Línea_3860" data-name="Línea 3860" x1="9.75" y1="25.704" transform="translate(71.183 21.509)" fill="none" stroke="#1e1a35" stroke-linecap="round" stroke-linejoin="round" stroke-miterlimit="10" stroke-width="0.75"/>
            <line id="Línea_3861" data-name="Línea 3861" x2="27.378" y2="1.729" transform="translate(4.577 34.715)" fill="none" stroke="#1e1a35" stroke-linecap="round" stroke-linejoin="round" stroke-miterlimit="10" stroke-width="0.75"/>
            <path id="Trazado_1226424" data-name="Trazado 1226424" d="M377.287,261.258s-3.855,10.207-3.913,18.358" transform="translate(-373.188 -261.257)" fill="none" stroke="#1e1a35" stroke-linecap="round" stroke-linejoin="round" stroke-miterlimit="10" stroke-width="0.75"/>
            <line id="Línea_3862" data-name="Línea 3862" x2="10.668" y2="19.109" transform="translate(83.091 11.442)" fill="none" stroke="#1e1a35" stroke-linecap="round" stroke-linejoin="round" stroke-miterlimit="10" stroke-width="0.75"/>
            <path id="Trazado_1226425" data-name="Trazado 1226425" d="M424.116,377.927s31.886-4.3,53.928-18.917" transform="translate(-391.019 -295.608)" fill="none" stroke="#4f2649" stroke-linecap="round" stroke-linejoin="round" stroke-miterlimit="10" stroke-width="0.75"/>
            <line id="Línea_3863" data-name="Línea 3863" y1="5.081" x2="14.491" transform="translate(78.792 37.174)" fill="none" stroke="#1e1a35" stroke-linecap="round" stroke-linejoin="round" stroke-miterlimit="10" stroke-width="0.75"/>
            <line id="Línea_3864" data-name="Línea 3864" x2="31.392" y2="0.307" transform="translate(20.376 0.027)" fill="none" stroke="#1e1a35" stroke-linecap="round" stroke-linejoin="round" stroke-miterlimit="10" stroke-width="0.75"/>
            <path id="Trazado_1226426" data-name="Trazado 1226426" d="M416.007,317.073l-4.192,11.367-1.5-11.674Z" transform="translate(-386.169 -280.763)" fill="#1e1a35"/>
          </g>
        </g>
        <g id="Grupo_1236679" data-name="Grupo 1236679" clip-path="url(#clip-path-7)">
          <path id="Trazado_1226427" data-name="Trazado 1226427" d="M2.48,275.688s-15.287,28.927-14.7,38.6,31.2-11.974,36.968-34.687S9.348,261.582,2.48,275.688Z" transform="translate(4.299 -92.715)" fill="#e2a68f"/>
          <g id="Grupo_1236667" data-name="Grupo 1236667" transform="translate(24.144 114.538)">
            <path id="Trazado_1226428" data-name="Trazado 1226428" d="M40.639,254.506c-8.145-7.572-.479-22.515,10.009-26.213.079-.028-.078.027,0,0,7.828-2.683,43.347,1.728,43.347,1.728l16.175-33.67s3.015-5.678,12.958,5.112c0,0-8.386,44.069-19.75,48.611,0,0-24.219,6.965-33.99,7.76C69.387,257.833,47.34,260.736,40.639,254.506Z" transform="translate(-37.225 -183.014)" fill="#e2a68f"/>
            <g id="Grupo_1236666" data-name="Grupo 1236666" transform="translate(71.175)">
              <path id="Trazado_1226429" data-name="Trazado 1226429" d="M147.743,190.1s-2.033-6.378.462-8.779,5.122.388,6.677-1.031,5.171-5.806,8.362-2.466a2.356,2.356,0,0,1,.627,2.033,2.509,2.509,0,0,1,2.331,4.185s1.369-1.2,2.279.023,1.456,2.776.252,3.875a2.156,2.156,0,0,1,.256,3.495c-1.93,2.053-13.139,7.55-13.139,7.55S150.247,198.506,147.743,190.1Z" transform="translate(-146.963 -176.596)" fill="#e2a68f"/>
              <line id="Línea_3865" data-name="Línea 3865" x1="4.626" y2="4.781" transform="translate(12.283 3.26)" fill="none" stroke="#1e1a35" stroke-linecap="round" stroke-linejoin="round" stroke-miterlimit="10" stroke-width="0.75"/>
              <line id="Línea_3866" data-name="Línea 3866" x1="4.626" y2="4.781" transform="translate(15.284 6.795)" fill="none" stroke="#1e1a35" stroke-linecap="round" stroke-linejoin="round" stroke-miterlimit="10" stroke-width="0.75"/>
              <line id="Línea_3867" data-name="Línea 3867" x1="3.44" y2="3.698" transform="translate(18.332 11.343)" fill="none" stroke="#1e1a35" stroke-linecap="round" stroke-linejoin="round" stroke-miterlimit="10" stroke-width="0.75"/>
            </g>
            <path id="Trazado_1226430" data-name="Trazado 1226430" d="M146.958,187.179s-.472-4.778,3.246-5.146,3.118,1.512,5.242-.588" transform="translate(-75.779 -178.3)" fill="none" stroke="#1e1a35" stroke-linecap="round" stroke-linejoin="round" stroke-miterlimit="10" stroke-width="0.75"/>
          </g>
          <g id="Grupo_1236676" data-name="Grupo 1236676" transform="translate(10.375 100.773)">
            <g id="Grupo_1236674" data-name="Grupo 1236674" transform="translate(21.242 7.505)">
              <path id="Trazado_1226431" data-name="Trazado 1226431" d="M53.74,221.649s2.843,3.284,10.883,2.062c7.5-1.141,10.348-5.014,10.348-5.014l1.441-10.647c15.431-.105,13.391-8.252,11.855-15.2-.125-.566,3.067-.779,2.912-3.067-.088-1.3-1.186-1.577-3.205-3.07-1.141-.843-2.173-3.469-2.377-4.219a57.334,57.334,0,0,0-2.341-7.184s-3.54-10.237-16.008-8.068a38.744,38.744,0,0,0-12.72,5.078c-7.539,5.082-8.255,16.928,1.155,31.223Z" transform="translate(-48.747 -166.944)" fill="#e2a68f"/>
              <path id="Trazado_1226432" data-name="Trazado 1226432" d="M106.971,214.438c-2.529.549-5.456-3.419-5.456-3.419,4.6-1.224,5.619.3,5.619.3a2.26,2.26,0,0,1,.487,1.575C107.668,214.366,106.971,214.438,106.971,214.438Z" transform="translate(-67.29 -182.265)" fill="#e95d33"/>
              <path id="Trazado_1226433" data-name="Trazado 1226433" d="M92.709,187.49a5.578,5.578,0,0,1,.954-2.009,4.872,4.872,0,0,1,1.454-1.3,4.472,4.472,0,0,1,1.741-.506,6.393,6.393,0,0,1,.9.018c.3.053.6.118.9.2a1.461,1.461,0,0,1,.844,1.481c-.027.645-.4,1.078-.863,1.012l-.073-.011a9.181,9.181,0,0,0-1.421-.161,4.155,4.155,0,0,0-1.35.174,3.782,3.782,0,0,0-1.24.648,4.96,4.96,0,0,0-1.047,1.118l-.051.073c-.158.227-.435.2-.619-.05A.863.863,0,0,1,92.709,187.49Z" transform="translate(-64.188 -172.82)" fill="#1e1a35"/>
              <g id="Grupo_1236673" data-name="Grupo 1236673" transform="translate(27.474 14.252)">
                <g id="Grupo_1236672" data-name="Grupo 1236672" clip-path="url(#clip-path-8)">
                  <path id="Trazado_1226434" data-name="Trazado 1226434" d="M104.218,194.086s-6.8-5.339-11.036,2.186a7.27,7.27,0,0,0,5.992,2.612C102.913,198.563,104.218,194.086,104.218,194.086Z" transform="translate(-91.836 -190.088)" fill="#fff"/>
                  <g id="Grupo_1236670" data-name="Grupo 1236670" transform="translate(1.346 2.16)">
                    <g id="Grupo_1236669" data-name="Grupo 1236669">
                      <g id="Grupo_1236668" data-name="Grupo 1236668" clip-path="url(#clip-path-9)">
                        <path id="Trazado_1226435" data-name="Trazado 1226435" d="M104.732,194.833a3.584,3.584,0,1,1-4.011-3.1A3.585,3.585,0,0,1,104.732,194.833Z" transform="translate(-94.732 -192.057)" fill="#1e1a35"/>
                      </g>
                    </g>
                  </g>
                  <g id="Grupo_1236671" data-name="Grupo 1236671" transform="translate(-0.203 0.768)">
                    <path id="Trazado_1226437" data-name="Trazado 1226437" d="M103.23,193.42a14.241,14.241,0,0,1-1.6-.364c-.53-.052-1.01-.207-1.494-.246a7.982,7.982,0,0,0-2.651.071,6.2,6.2,0,0,0-2.282,1.034,13.04,13.04,0,0,0-2.057,1.869l-.32.353a.737.737,0,0,1-1.221-.2,13.878,13.878,0,0,1-.8-2.19.263.263,0,0,1,.391-.289,13.884,13.884,0,0,1,1.86,1.407l-1.541.155a6.849,6.849,0,0,1,.779-1.714,7.5,7.5,0,0,1,1.192-1.463,6.386,6.386,0,0,1,3.534-1.692,6.723,6.723,0,0,1,3.757.625,9.016,9.016,0,0,1,1.516.965,10.932,10.932,0,0,1,1.208,1.272.254.254,0,0,1-.239.411Z" transform="translate(-90.794 -190.103)" fill="#1e1a35"/>
                  </g>
                </g>
              </g>
              <path id="Trazado_1226439" data-name="Trazado 1226439" d="M111.042,204.465s-.652-.381-1.076.48" transform="translate(-70.26 -180.1)" fill="none" stroke="#1e1a35" stroke-linecap="round" stroke-linejoin="round" stroke-miterlimit="10" stroke-width="0.75"/>
              <path id="Trazado_1226440" data-name="Trazado 1226440" d="M107.77,205.324c-2.194-.517-.913-2.583-.913-2.583" transform="translate(-69.037 -179.523)" fill="none" stroke="#1e1a35" stroke-linecap="round" stroke-linejoin="round" stroke-miterlimit="10" stroke-width="0.75"/>
              <path id="Trazado_1226441" data-name="Trazado 1226441" d="M86.948,232.234c-5.674-.876-7.191-4.052-7.191-4.052a20.611,20.611,0,0,0,7.552,1.389Z" transform="translate(-59.644 -188.464)" fill="#1e1a35"/>
              <path id="Trazado_1226442" data-name="Trazado 1226442" d="M101.784,211.428s1.464,1.233,5.934,1.944" transform="translate(-67.385 -182.576)" fill="none" stroke="#1e1a35" stroke-linecap="round" stroke-linejoin="round" stroke-miterlimit="10" stroke-width="0.75"/>
            </g>
            <path id="Trazado_1226443" data-name="Trazado 1226443" d="M58.485,178.446s.944.691.248,2.651c-2.334,6.577-6.131.762-6.131.762s-4.416-3.331-5.619,2.62c-.951,4.7,1.445,9.99,5.863,8.406,0,0,.606.752.457,4.056a28.666,28.666,0,0,1-1.338,7.152,4.4,4.4,0,0,1-2.822,2.245c-21.108,5.507-37.67-5.671-31.064-11.266,0,0-5.9-3.244,2.17-11.561,4.627-4.769,8.317-5.661,10.118-11.738,3.481-11.747,20.116-13.427,20.116-13.427,7.738-5.5,19.139-2.6,20.765,2.441s-1.632,6.792-1.632,6.792-3.543-1.784-6.793,3.01A6.689,6.689,0,0,1,58.485,178.446Z" transform="translate(-15.996 -155.373)" fill="#1e1a35"/>
            <g id="Grupo_1236675" data-name="Grupo 1236675" transform="translate(30.822 25.441)">
              <path id="Trazado_1226444" data-name="Trazado 1226444" d="M69.332,195.647a4.413,4.413,0,0,0-1.69-.939s-4-1.322-4.035,5.631c-.04,7.39,4.8,6.692,4.8,6.692A4.048,4.048,0,0,0,71,205.762Z" transform="translate(-63.55 -194.602)" fill="#e2a68f"/>
              <path id="Trazado_1226445" data-name="Trazado 1226445" d="M71.93,207.072s-1.383-.621-1.168-1.751,1.205-.968,1.042-2.12" transform="translate(-66.056 -197.621)" fill="none" stroke="#160c02" stroke-linecap="round" stroke-linejoin="round" stroke-miterlimit="10" stroke-width="0.75"/>
              <path id="Trazado_1226446" data-name="Trazado 1226446" d="M68.668,197.836s-2.23-.594-1.988,3.374" transform="translate(-64.623 -195.725)" fill="none" stroke="#160c02" stroke-linecap="round" stroke-linejoin="round" stroke-miterlimit="10" stroke-width="0.75"/>
              <path id="Trazado_1226447" data-name="Trazado 1226447" d="M69.3,195.644s-2.448-2.316-4.507-.054-1.616,9.529,1.258,10.915a4.31,4.31,0,0,0,4.919-.747" transform="translate(-63.518 -194.598)" fill="none" stroke="#160c02" stroke-linecap="round" stroke-linejoin="round" stroke-miterlimit="10" stroke-width="0.75"/>
            </g>
          </g>
          <g id="Grupo_1236677" data-name="Grupo 1236677" transform="translate(6.78 157.515)">
            <path id="Trazado_1226448" data-name="Trazado 1226448" d="M24.387,245.993c2.86-2.6,6.958-3.361,10.813-3.081l32.43,2.258s4.037,22.251-.062,33.256l-10.472,4.5-3.43,16.212S31.115,295.574,15.12,284l5.971-13.625-10.638-2.055S14.254,255.2,24.387,245.993Z" transform="translate(-10.453 -242.858)" fill="#f1b9c8"/>
            <line id="Línea_3868" data-name="Línea 3868" y1="23.763" x2="8.851" transform="translate(8.944 7.615)" fill="none" stroke="#1e1a35" stroke-linecap="round" stroke-linejoin="round" stroke-miterlimit="10" stroke-width="0.75"/>
            <line id="Línea_3869" data-name="Línea 3869" x1="10.401" y2="4.45" transform="translate(44.589 36.502)" fill="none" stroke="#1e1a35" stroke-linecap="round" stroke-linejoin="round" stroke-miterlimit="10" stroke-width="0.75"/>
            <path id="Trazado_1226449" data-name="Trazado 1226449" d="M98.608,246.423s2.133,10.083,1.744,17.95" transform="translate(-41.431 -244.111)" fill="none" stroke="#1e1a35" stroke-linecap="round" stroke-linejoin="round" stroke-miterlimit="10" stroke-width="0.75"/>
          </g>
          <path id="Trazado_1226450" data-name="Trazado 1226450" d="M100.482,285.16l6.014-1.335-5.454-7.134S100.96,281.426,100.482,285.16Z" transform="translate(-35.31 -97.232)" fill="#1e1a35"/>
          <g id="Grupo_1236678" data-name="Grupo 1236678" transform="translate(-42.273 198.654)">
            <path id="Trazado_1226451" data-name="Trazado 1226451" d="M27.089,321.432s13.539,24.186-48.843,116.591c0,0-28,4.525-43.422-20.239,0,0,23.489-90.158,53.72-111.5C-11.456,306.285,14.118,309.8,27.089,321.432Z" transform="translate(65.176 -306.285)" fill="#5b74c6"/>
            <path id="Trazado_1226452" data-name="Trazado 1226452" d="M-38.423,451.288s35.492-78.664,41.8-94.867" transform="translate(55.775 -323.903)" fill="none" stroke="#1e1a35" stroke-linecap="round" stroke-linejoin="round" stroke-miterlimit="10" stroke-width="0.75"/>
            <path id="Trazado_1226453" data-name="Trazado 1226453" d="M11.976,310.692s27.455,7.144,43.332,17.939" transform="translate(38.064 -307.834)" fill="none" stroke="#1e1a35" stroke-linecap="round" stroke-linejoin="round" stroke-miterlimit="10" stroke-width="0.75"/>
          </g>
        </g>
        <g id="Grupo_1236684" data-name="Grupo 1236684" clip-path="url(#clip-path-10)">
          <g id="Grupo_1236680" data-name="Grupo 1236680" transform="translate(129.16 191.827)">
            <path id="Trazado_1226454" data-name="Trazado 1226454" d="M215.03,385.7l2.771-14.377,22.446,3.307-2.985,15.527Z" transform="translate(-204.723 -322.314)" fill="#e2a68f"/>
            <path id="Trazado_1226455" data-name="Trazado 1226455" d="M232.752,298.79s-8.968-8.1-13.673,2.185c0,0-8.648-1.255-9.956,9.654,0,0-11.449,1.4-8.181,12.12,0,0-6.311,10.606,4.681,14.49,0,0-3.094,7.9,9.777,10.474a13.24,13.24,0,0,0,16.368,3.017s12.276,1.644,10.988-7.886c0,0,9.568-2.366,8.176-10.056,0,0,5.768-6.783-1.614-13.925,0,0,4.077-8.334-4.956-12.683C244.363,306.18,245.1,296.361,232.752,298.79Z" transform="translate(-199.139 -295.76)" fill="#1e1a35"/>
          </g>
          <path id="Trazado_1226456" data-name="Trazado 1226456" d="M167.563,488.424s-15.8,27.6-20.071,47.761c0,0,24.931,40.163,79.011,20.164,0,0,6.96-32.819-5.618-60.361Z" transform="translate(-51.83 -171.637)" fill="#1e1a35"/>
          <g id="Grupo_1236681" data-name="Grupo 1236681" transform="translate(102.055 167.744)">
            <path id="Trazado_1226457" data-name="Trazado 1226457" d="M171.184,281.079s7-1.873,7.733-5.551-3.347-4.443-2.962-6.69,2.271-8.107-2.638-9.064a2.552,2.552,0,0,0-2.219.616,2.716,2.716,0,0,0-5.176.32s.293-1.948-1.354-2.064-3.382.294-3.679,2.034a2.334,2.334,0,0,0-3.335,1.809c-.745,2.958.795,16.39.795,16.39S162.056,283.709,171.184,281.079Z" transform="translate(-157.349 -258.628)" fill="#e2a68f"/>
            <line id="Línea_3870" data-name="Línea 3870" x1="1.655" y2="7.011" transform="translate(12.093 1.761)" fill="none" stroke="#1e1a35" stroke-linecap="round" stroke-linejoin="round" stroke-miterlimit="10" stroke-width="0.75"/>
            <line id="Línea_3871" data-name="Línea 3871" x1="1.655" y2="7.012" transform="translate(7.117 1.091)" fill="none" stroke="#1e1a35" stroke-linecap="round" stroke-linejoin="round" stroke-miterlimit="10" stroke-width="0.75"/>
            <line id="Línea_3872" data-name="Línea 3872" x1="1.361" y2="5.296" transform="translate(2.178 2.052)" fill="none" stroke="#1e1a35" stroke-linecap="round" stroke-linejoin="round" stroke-miterlimit="10" stroke-width="0.75"/>
          </g>
          <g id="Grupo_1236682" data-name="Grupo 1236682" transform="translate(196.579 181.074)">
            <path id="Trazado_1226458" data-name="Trazado 1226458" d="M309.822,300.928s-6.606-2.982-6.733-6.729,4.021-3.843,4.005-6.122-.93-8.368,4.07-8.518a2.551,2.551,0,0,1,2.09.966,2.716,2.716,0,0,1,5.056,1.154s.027-1.97,1.669-1.818,3.29.838,3.3,2.6a2.334,2.334,0,0,1,3,2.325c.256,3.04-3.436,16.046-3.436,16.046S318.4,305,309.822,300.928Z" transform="translate(-303.087 -279.181)" fill="#e2a68f"/>
            <line id="Línea_3873" data-name="Línea 3873" x2="0.499" y2="7.187" transform="translate(10.168 1.343)" fill="none" stroke="#1e1a35" stroke-linecap="round" stroke-linejoin="round" stroke-miterlimit="10" stroke-width="0.75"/>
            <path id="Trazado_1226459" data-name="Trazado 1226459" d="M327.021,288.227l-.461-6.177s-.057-2.434,2.639-1.657,2.332,2.442,2.332,2.442l.486,5.447" transform="translate(-311.335 -279.553)" fill="none" stroke="#1e1a35" stroke-linecap="round" stroke-linejoin="round" stroke-miterlimit="10" stroke-width="0.75"/>
            <path id="Trazado_1226460" data-name="Trazado 1226460" d="M337.518,290.955s1.584-5.969-.926-6.609" transform="translate(-314.861 -280.996)" fill="none" stroke="#1e1a35" stroke-linecap="round" stroke-linejoin="round" stroke-miterlimit="10" stroke-width="0.75"/>
          </g>
          <g id="Grupo_1236683" data-name="Grupo 1236683" transform="translate(83.1 186.473)">
            <path id="Trazado_1226461" data-name="Trazado 1226461" d="M197.089,353.587l-13.607-1.945s-40.294-6.252-14.189-61.791c-14.92-5.15-25.5-.216-25.5-.216-3.969,11.619-43.967,52.781,21.756,93.038,0,0-4.879,19.458-7.995,32.316,0,0,9.006,10.128,28.9,12.972s31.378-4.355,31.378-4.355c.612-13.216,1.38-33.262,1.38-33.262,74.369-20.23,47.507-70.95,46.952-83.216,0,0-8.773-7.7-24.539-6.937,9.5,60.629-30.933,55.34-30.933,55.34Z" transform="translate(-128.123 -287.505)" fill="#e95d33"/>
            <path id="Trazado_1226462" data-name="Trazado 1226462" d="M175.682,291.122s-14.611,14.089-20.359,3.461c0,0-1.062,7.856-9.019,3.683" transform="translate(-134.512 -288.776)" fill="none" stroke="#1e1a35" stroke-linecap="round" stroke-linejoin="round" stroke-miterlimit="10" stroke-width="0.75"/>
            <path id="Trazado_1226463" data-name="Trazado 1226463" d="M303.128,307.066s1.4,14.364,15.36,6.515c0,0,5.571,9.477,9.763,4.118" transform="translate(-189.621 -294.379)" fill="none" stroke="#1e1a35" stroke-linecap="round" stroke-linejoin="round" stroke-miterlimit="10" stroke-width="0.75"/>
            <line id="Línea_3874" data-name="Línea 3874" y1="21.063" x2="5.14" transform="translate(34.729 84.916)" fill="none" stroke="#1e1a35" stroke-linecap="round" stroke-linejoin="round" stroke-miterlimit="10" stroke-width="0.75"/>
            <line id="Línea_3875" data-name="Línea 3875" y1="12.779" transform="translate(90.787 97.862)" fill="none" stroke="#1e1a35" stroke-linecap="round" stroke-linejoin="round" stroke-miterlimit="10" stroke-width="0.75"/>
          </g>
        </g>
        <g id="Grupo_1236685" data-name="Grupo 1236685" clip-path="url(#clip-path-2)">
          <path id="Trazado_1226464" data-name="Trazado 1226464" d="M400.7,144.4H383.749a1.982,1.982,0,0,1-1.982-1.981v-.449a1.982,1.982,0,0,1,1.982-1.982H400.7a1.982,1.982,0,0,1,1.982,1.982v.449A1.983,1.983,0,0,1,400.7,144.4Z" transform="translate(-134.156 -49.193)" fill="#e761e1"/>
          <path id="Trazado_1226465" data-name="Trazado 1226465" d="M395.629,157.681h-11.88a1.982,1.982,0,0,1-1.982-1.982v-.449a1.982,1.982,0,0,1,1.982-1.982h11.88a1.982,1.982,0,0,1,1.982,1.982v.449A1.983,1.983,0,0,1,395.629,157.681Z" transform="translate(-134.156 -53.859)" fill="#e761e1"/>
          <path id="Trazado_1226466" data-name="Trazado 1226466" d="M363.108,139.247l-1.74,1.8,3.81,4.324,7.551-7.86-1.489-1.981-5.894,6.2Z" transform="translate(-126.988 -47.625)" fill="#e761e1"/>
          <path id="Trazado_1226467" data-name="Trazado 1226467" d="M363.108,152.133l-1.74,1.8,3.81,4.324,7.551-7.86-1.489-1.981-5.894,6.2Z" transform="translate(-126.988 -52.153)" fill="#e761e1"/>
          <rect id="Rectángulo_423966" data-name="Rectángulo 423966" width="23.201" height="2.895" transform="translate(234.188 227.02)" fill="#e761e1"/>
          <rect id="Rectángulo_423967" data-name="Rectángulo 423967" width="15.034" height="2.895" transform="translate(245.999 232.271)" fill="#e761e1"/>
          <rect id="Rectángulo_423968" data-name="Rectángulo 423968" width="15.034" height="2.895" transform="translate(245.999 222.238)" fill="#e761e1"/>
          <rect id="Rectángulo_423969" data-name="Rectángulo 423969" width="23.201" height="2.895" transform="translate(124.125 153.966)" fill="#e761e1"/>
          <rect id="Rectángulo_423970" data-name="Rectángulo 423970" width="15.034" height="2.895" transform="translate(135.936 149.184)" fill="#e761e1"/>
        </g>
      </g>
      <g id="Grupo_1236691" data-name="Grupo 1236691" transform="translate(7663.8 6698.159)">
        <g id="Grupo_1236688" data-name="Grupo 1236688" transform="translate(149.362 214.363)">
          <path id="Trazado_1226468" data-name="Trazado 1226468" d="M336.831,441.965H287.5a8.179,8.179,0,0,1-8.179-8.179V419.857a8.179,8.179,0,0,1,8.179-8.179h49.335a8.179,8.179,0,0,1,8.179,8.179v13.928A8.179,8.179,0,0,1,336.831,441.965Z" transform="translate(-279.317 -395.485)" fill="#f4f4f4"/>
          <path id="Trazado_1226469" data-name="Trazado 1226469" d="M336.831,446.4H287.5a8.179,8.179,0,0,1-8.179-8.179V424.289" transform="translate(-279.317 -399.916)" fill="none" stroke="#1e1a35" stroke-linecap="round" stroke-linejoin="round" stroke-miterlimit="10" stroke-width="0.75"/>
          <path id="Trazado_1226470" data-name="Trazado 1226470" d="M367.993,411.679a8.179,8.179,0,0,1,8.179,8.179v13.928" transform="translate(-310.479 -395.485)" fill="none" stroke="#1e1a35" stroke-linecap="round" stroke-linejoin="round" stroke-miterlimit="10" stroke-width="0.75"/>
          <g id="Grupo_1236687" data-name="Grupo 1236687" transform="translate(8.556 25.407)">
            <path id="Trazado_1226471" data-name="Trazado 1226471" d="M338.966,429.768H294.451a1.942,1.942,0,0,1-1.942-1.942h0a1.942,1.942,0,0,1,1.942-1.942h44.515a1.942,1.942,0,0,1,1.942,1.942h0A1.942,1.942,0,0,1,338.966,429.768Z" transform="translate(-292.509 -425.884)" fill="none" stroke="#1e1a35" stroke-linecap="round" stroke-linejoin="round" stroke-miterlimit="10" stroke-width="0.75"/>
            <path id="Trazado_1226472" data-name="Trazado 1226472" d="M324.343,442.112H294.452a1.942,1.942,0,0,1-1.942-1.942h0a1.942,1.942,0,0,1,1.942-1.942h29.892a1.942,1.942,0,0,1,1.942,1.942h0A1.942,1.942,0,0,1,324.343,442.112Z" transform="translate(-292.509 -430.222)" fill="none" stroke="#1e1a35" stroke-linecap="round" stroke-linejoin="round" stroke-miterlimit="10" stroke-width="0.75"/>
          </g>
          <path id="Trazado_1226473" data-name="Trazado 1226473" d="M308.892,402.905l-17.2-15.8a1.466,1.466,0,0,0-2.4,1.479l4.054,14.322h15.549Z" transform="translate(-282.8 -386.711)" fill="#f4f4f4"/>
          <path id="Trazado_1226474" data-name="Trazado 1226474" d="M308.892,402.905l-17.2-15.8a1.466,1.466,0,0,0-2.4,1.479l1.259,4.449" transform="translate(-282.8 -386.711)" fill="none" stroke="#1e1a35" stroke-linecap="round" stroke-linejoin="round" stroke-miterlimit="10" stroke-width="0.75"/>
        </g>
        <g id="Grupo_1236690" data-name="Grupo 1236690">
          <path id="Trazado_1226475" data-name="Trazado 1226475" d="M57.209,56.3H89.1a8.179,8.179,0,0,1,8.179,8.179v25.25A8.179,8.179,0,0,1,89.1,97.907H57.209a8.179,8.179,0,0,1-8.179-8.179V64.477A8.179,8.179,0,0,1,57.209,56.3Z" transform="translate(-49.03 -56.238)" fill="#f4f4f4"/>
          <path id="Trazado_1226476" data-name="Trazado 1226476" d="M68.794,56.2H95.129a9.1,9.1,0,0,1,9.1,9.1V80.8" transform="translate(-55.975 -56.205)" fill="none" stroke="#1e1a35" stroke-linecap="round" stroke-linejoin="round" stroke-miterlimit="10" stroke-width="0.75"/>
          <path id="Trazado_1226477" data-name="Trazado 1226477" d="M49.03,82.532V98.026a9.1,9.1,0,0,0,9.1,9.1h3.72" transform="translate(-49.03 -65.457)" fill="none" stroke="#1e1a35" stroke-linecap="round" stroke-linejoin="round" stroke-miterlimit="10" stroke-width="0.75"/>
          <g id="Grupo_1236689" data-name="Grupo 1236689" transform="translate(9.023 7.976)">
            <path id="Trazado_1226478" data-name="Trazado 1226478" d="M91.409,87.564H64.884a1.942,1.942,0,0,1-1.942-1.942v-.437a1.942,1.942,0,0,1,1.942-1.942H91.409a1.942,1.942,0,0,1,1.942,1.942v.437A1.942,1.942,0,0,1,91.409,87.564Z" transform="translate(-62.942 -73.683)" fill="none" stroke="#1e1a35" stroke-linecap="round" stroke-linejoin="round" stroke-miterlimit="10" stroke-width="0.75"/>
            <path id="Trazado_1226479" data-name="Trazado 1226479" d="M91.409,72.823H64.884a1.942,1.942,0,0,1-1.942-1.942v-.436A1.942,1.942,0,0,1,64.884,68.5H91.409a1.942,1.942,0,0,1,1.942,1.942v.436A1.942,1.942,0,0,1,91.409,72.823Z" transform="translate(-62.942 -68.503)" fill="none" stroke="#1e1a35" stroke-linecap="round" stroke-linejoin="round" stroke-miterlimit="10" stroke-width="0.75"/>
            <path id="Trazado_1226480" data-name="Trazado 1226480" d="M82.221,102.306H64.884a1.942,1.942,0,0,1-1.942-1.942v-.437a1.942,1.942,0,0,1,1.942-1.942H82.221a1.942,1.942,0,0,1,1.942,1.942v.437A1.942,1.942,0,0,1,82.221,102.306Z" transform="translate(-62.942 -78.863)" fill="none" stroke="#1e1a35" stroke-linecap="round" stroke-linejoin="round" stroke-miterlimit="10" stroke-width="0.75"/>
          </g>
          <path id="Trazado_1226481" data-name="Trazado 1226481" d="M87.427,120.45,68.292,138.027a1.631,1.631,0,0,1-2.673-1.645l4.51-15.932Z" transform="translate(-54.836 -78.781)" fill="#f4f4f4"/>
          <path id="Trazado_1226482" data-name="Trazado 1226482" d="M67.02,129.647l-1.4,4.949a1.631,1.631,0,0,0,2.673,1.645l19.135-17.577h6.562s4.525.242,7.007-3.3" transform="translate(-54.836 -76.995)" fill="none" stroke="#1e1a35" stroke-linecap="round" stroke-linejoin="round" stroke-miterlimit="10" stroke-width="0.75"/>
          <line id="Línea_3876" data-name="Línea 3876" x1="2.474" y2="8.74" transform="translate(12.819 41.669)" fill="none" stroke="#1e1a35" stroke-linecap="round" stroke-linejoin="round" stroke-miterlimit="10" stroke-width="0.75"/>
        </g>
      </g>
    </g>
  </g>
</svg>
