<svg xmlns="http://www.w3.org/2000/svg" xmlns:xlink="http://www.w3.org/1999/xlink" width="113" height="113" viewBox="0 0 113 113">
  <defs>
    <filter id="Trazado_982547" x="0" y="0" width="113" height="113" filterUnits="userSpaceOnUse">
      <feOffset dy="3" input="SourceAlpha"/>
      <feGaussianBlur stdDeviation="3" result="blur"/>
      <feFlood flood-opacity="0.161"/>
      <feComposite operator="in" in2="blur"/>
      <feComposite in="SourceGraphic"/>
    </filter>
  </defs>
  <g id="Grupo_1236602" data-name="Grupo 1236602" transform="translate(-797 -7344.392)">
    <g id="Grupo_1236144" data-name="Grupo 1236144" transform="translate(806 7350.392)">
      <g id="Grupo_1235105" data-name="Grupo 1235105" transform="translate(0 0)">
        <g id="Grupo_1223793" data-name="Grupo 1223793" transform="translate(0 0)">
          <g id="Grupo_1208028" data-name="Grupo 1208028">
            <g id="Grupo_1177675" data-name="Grupo 1177675" transform="translate(0 0)">
              <g id="Grupo_1176928" data-name="Grupo 1176928">
                <g id="Grupo_1172322" data-name="Grupo 1172322">
                  <g id="Grupo_1164700" data-name="Grupo 1164700">
                    <g id="Grupo_1160931" data-name="Grupo 1160931">
                      <g id="Grupo_1160749" data-name="Grupo 1160749">
                        <g id="Grupo_1158891" data-name="Grupo 1158891">
                          <g id="Grupo_1157406" data-name="Grupo 1157406">
                            <g id="Grupo_1155793" data-name="Grupo 1155793">
                              <g id="Grupo_1154704" data-name="Grupo 1154704">
                                <g id="Grupo_1150790" data-name="Grupo 1150790">
                                  <g id="Grupo_1154214" data-name="Grupo 1154214">
                                    <g id="Grupo_1152583" data-name="Grupo 1152583">
                                      <g id="Grupo_1146973" data-name="Grupo 1146973">
                                        <g id="Grupo_1146954" data-name="Grupo 1146954">
                                          <g transform="matrix(1, 0, 0, 1, -9, -6)" filter="url(#Trazado_982547)">
                                            <g id="Trazado_982547-2" data-name="Trazado 982547" transform="translate(9 6)" fill="#e1daf7">
                                              <path d="M 47.5000114440918 93.49987030029297 C 41.28938293457031 93.49987030029297 35.26534652709961 92.28384399414062 29.5951976776123 89.88558959960938 C 24.11773109436035 87.56881713867188 19.19814491271973 84.25183868408203 14.97310447692871 80.02680206298828 C 10.74805164337158 75.80176544189453 7.43107795715332 70.88218688964844 5.114304542541504 65.40472412109375 C 2.716038227081299 59.73458862304688 1.500011444091797 53.71054840087891 1.500011444091797 47.49993515014648 C 1.500011444091797 41.28932189941406 2.716038227081299 35.26528167724609 5.114304542541504 29.59514808654785 C 7.43107795715332 24.1176815032959 10.74805164337158 19.1981086730957 14.97310447692871 14.97306823730469 C 19.19814491271973 10.74802875518799 24.11773109436035 7.431055068969727 29.5951976776123 5.11428165435791 C 35.26534652709961 2.716028451919556 41.28938293457031 1.500001788139343 47.5000114440918 1.500001788139343 C 53.71063995361328 1.500001788139343 59.73467636108398 2.716028451919556 65.40482330322266 5.11428165435791 C 70.88229370117188 7.431055068969727 75.8018798828125 10.74802875518799 80.02691650390625 14.97306823730469 C 84.25196838378906 19.1981086730957 87.56894683837891 24.1176815032959 89.88571929931641 29.59514808654785 C 92.28398132324219 35.26528167724609 93.50001525878906 41.28932189941406 93.50001525878906 47.49993515014648 C 93.50001525878906 53.71054840087891 92.28398132324219 59.73458862304688 89.88571929931641 65.40472412109375 C 87.56894683837891 70.88218688964844 84.25196838378906 75.80176544189453 80.02691650390625 80.02680206298828 C 75.8018798828125 84.25183868408203 70.88229370117188 87.56881713867188 65.40482330322266 89.88558959960938 C 59.73467636108398 92.28384399414062 53.71063995361328 93.49987030029297 47.5000114440918 93.49987030029297 Z" stroke="none"/>
                                              <path d="M 47.5000114440918 3 C 41.49122619628906 3 35.66378021240234 4.1761474609375 30.17951965332031 6.495796203613281 C 24.880859375 8.7369384765625 20.12153625488281 11.94596862792969 16.03376770019531 16.03373718261719 C 11.94598388671875 20.12149047851562 8.736968994140625 24.88081359863281 6.495811462402344 30.17947387695312 C 4.176162719726562 35.66371917724609 3.000007629394531 41.49116516113281 3.000007629394531 47.49993515014648 C 3.000007629394531 53.50870513916016 4.176162719726562 59.33615112304688 6.495811462402344 64.82039642333984 C 8.736968994140625 70.11905670166016 11.94598388671875 74.87837982177734 16.03376770019531 78.96613311767578 C 20.12153625488281 83.05390167236328 24.880859375 86.26293182373047 30.17951965332031 88.50407409667969 C 35.66378021240234 90.82372283935547 41.49122619628906 91.99987030029297 47.5000114440918 91.99987030029297 C 53.50879669189453 91.99987030029297 59.33624267578125 90.82372283935547 64.82050323486328 88.50407409667969 C 70.11916351318359 86.26293182373047 74.87848663330078 83.05390167236328 78.96625518798828 78.96613311767578 C 83.05403900146484 74.87837982177734 86.2630615234375 70.11905670166016 88.50421142578125 64.82039642333984 C 90.82386016845703 59.33615112304688 92.00001525878906 53.50870513916016 92.00001525878906 47.49993515014648 C 92.00001525878906 41.49116516113281 90.82386016845703 35.66371917724609 88.50421142578125 30.17947387695312 C 86.2630615234375 24.88081359863281 83.05403900146484 20.12149047851562 78.96625518798828 16.03373718261719 C 74.87848663330078 11.94596862792969 70.11916351318359 8.7369384765625 64.82050323486328 6.495796203613281 C 59.33624267578125 4.1761474609375 53.50879669189453 3 47.5000114440918 3 M 47.5000114440918 0 C 73.73353576660156 0 95.00001525878906 21.26644134521484 95.00001525878906 47.49993515014648 C 95.00001525878906 73.73342895507812 73.73353576660156 94.99987030029297 47.5000114440918 94.99987030029297 C 21.26648712158203 94.99987030029297 7.62939453125e-06 73.73342895507812 7.62939453125e-06 47.49993515014648 C 7.62939453125e-06 21.26644134521484 21.26648712158203 0 47.5000114440918 0 Z" stroke="none" fill="#6c4dd8"/>
                                            </g>
                                          </g>
                                        </g>
                                      </g>
                                    </g>
                                  </g>
                                </g>
                              </g>
                            </g>
                          </g>
                        </g>
                      </g>
                    </g>
                  </g>
                </g>
              </g>
            </g>
          </g>
        </g>
      </g>
    </g>
    <g id="plataforma-digital" transform="translate(808.454 7352.846)">
      <path id="Trazado_1226192" data-name="Trazado 1226192" d="M219.618,393.682H208L210.9,384h5.809Z" transform="translate(-168.763 -323.463)" fill="#476c99"/>
      <path id="Trazado_1226193" data-name="Trazado 1226193" d="M78.34,138.855H25.815A1.815,1.815,0,0,1,24,137.039V105.815A1.815,1.815,0,0,1,25.815,104H78.34a1.815,1.815,0,0,1,1.815,1.815v31.224A1.815,1.815,0,0,1,78.34,138.855Z" transform="translate(-7.032 -77.35)" fill="#77d0e8"/>
      <path id="Trazado_1226194" data-name="Trazado 1226194" d="M189.3,459.873H168v-.453a3.42,3.42,0,0,1,3.42-3.42h14.46a3.42,3.42,0,0,1,3.42,3.42Z" transform="translate(-133.604 -386.75)" fill="#283e57"/>
      <path id="Trazado_1226195" data-name="Trazado 1226195" d="M78.34,363.873H25.815A1.815,1.815,0,0,1,24,362.057V360H80.155v2.057A1.815,1.815,0,0,1,78.34,363.873Z" transform="translate(-7.032 -302.368)" fill="#6498d8"/>
      <path id="Trazado_1226196" data-name="Trazado 1226196" d="M424,360h3.873v3.873H424Z" transform="translate(-358.622 -302.368)" fill="#446893"/>
      <path id="Trazado_1226197" data-name="Trazado 1226197" d="M392,360h3.873v3.873H392Z" transform="translate(-330.495 -302.368)" fill="#ffda7d"/>
      <path id="Trazado_1226198" data-name="Trazado 1226198" d="M344,360h5.809v3.873H344Z" transform="translate(-288.304 -302.368)" fill="#ef7086"/>
      <path id="Trazado_1226199" data-name="Trazado 1226199" d="M103.8,60.791h-47.2A.605.605,0,0,1,56,60.186V24.605A.605.605,0,0,1,56.605,24h47.2a.605.605,0,0,1,.605.605V60.186A.605.605,0,0,1,103.8,60.791Z" transform="translate(-35.159 -7.032)" fill="#ffda7d"/>
      <path id="Trazado_1226200" data-name="Trazado 1226200" d="M104.409,29.809H56v-5.2A.605.605,0,0,1,56.605,24h47.2a.605.605,0,0,1,.605.605Z" transform="translate(-35.159 -7.032)" fill="#6498d8"/>
      <path id="Trazado_1226201" data-name="Trazado 1226201" d="M67.618,29.809H56v-5.2A.605.605,0,0,1,56.605,24H67.618Z" transform="translate(-35.159 -7.032)" fill="#466b97"/>
      <g id="Grupo_1236590" data-name="Grupo 1236590" transform="translate(22.779 18.905)">
        <path id="Trazado_1226202" data-name="Trazado 1226202" d="M72.984,41.936a.968.968,0,1,1,0-1.936h0a.968.968,0,0,1,0,1.936Z" transform="translate(-72.015 -40)" fill="#ef7086"/>
      </g>
      <g id="Grupo_1236591" data-name="Grupo 1236591" transform="translate(25.684 18.905)">
        <path id="Trazado_1226203" data-name="Trazado 1226203" d="M96.984,41.936a.968.968,0,1,1,0-1.936h0a.968.968,0,0,1,0,1.936Z" transform="translate(-96.015 -40)" fill="#ef7086"/>
      </g>
      <g id="Grupo_1236592" data-name="Grupo 1236592" transform="translate(28.588 18.905)">
        <path id="Trazado_1226204" data-name="Trazado 1226204" d="M120.984,41.936a.968.968,0,0,1,0-1.936h0a.968.968,0,0,1,0,1.936Z" transform="translate(-120.015 -40)" fill="#ef7086"/>
      </g>
      <g id="Grupo_1236593" data-name="Grupo 1236593" transform="translate(35.364 18.905)">
        <path id="Trazado_1226205" data-name="Trazado 1226205" d="M178.9,41.936h-1.936a.968.968,0,0,1,0-1.936H178.9a.968.968,0,0,1,0,1.936Z" transform="translate(-176 -40)" fill="#283e57"/>
      </g>
      <g id="Grupo_1236594" data-name="Grupo 1236594" transform="translate(41.173 18.905)">
        <path id="Trazado_1226206" data-name="Trazado 1226206" d="M234.65,41.936h-9.682a.968.968,0,0,1,0-1.936h9.682a.968.968,0,0,1,0,1.936Z" transform="translate(-224 -40)" fill="#283e57"/>
      </g>
      <path id="Trazado_1226207" data-name="Trazado 1226207" d="M160,104h23.237v3.873H160Z" transform="translate(-126.573 -77.35)" fill="#6498d8"/>
      <path id="Trazado_1226208" data-name="Trazado 1226208" d="M88,168h17.427v5.809H88Z" transform="translate(-63.286 -133.604)" fill="#446893"/>
      <path id="Trazado_1226209" data-name="Trazado 1226209" d="M264,248h19.364v5.809H264Z" transform="translate(-217.986 -203.923)" fill="#446893"/>
      <g id="Grupo_1236595" data-name="Grupo 1236595" transform="translate(50.855 33.427)">
        <path id="Trazado_1226210" data-name="Trazado 1226210" d="M318.523,161.936H304.968a.968.968,0,0,1,0-1.936h13.555a.968.968,0,0,1,0,1.936Z" transform="translate(-304 -160)" fill="#ef7086"/>
      </g>
      <g id="Grupo_1236596" data-name="Grupo 1236596" transform="translate(45.046 36.332)">
        <path id="Trazado_1226211" data-name="Trazado 1226211" d="M276.332,185.936H256.968a.968.968,0,0,1,0-1.936h19.364a.968.968,0,0,1,0,1.936Z" transform="translate(-256 -184)" fill="#ef7086"/>
      </g>
      <g id="Grupo_1236597" data-name="Grupo 1236597" transform="translate(45.046 39.237)">
        <path id="Trazado_1226212" data-name="Trazado 1226212" d="M276.332,209.936H256.968a.968.968,0,0,1,0-1.936h19.364a.968.968,0,0,1,0,1.936Z" transform="translate(-256 -208)" fill="#ef7086"/>
      </g>
      <path id="Trazado_1226213" data-name="Trazado 1226213" d="M81.427,282.65v-3.873H79.209a6.74,6.74,0,0,0-.533-1.288l1.568-1.568-2.738-2.738-1.568,1.568a6.735,6.735,0,0,0-1.288-.532V272H70.777v2.219a6.739,6.739,0,0,0-1.288.532l-1.568-1.568-2.738,2.738,1.568,1.568a6.736,6.736,0,0,0-.533,1.288H64v3.873h2.219a6.739,6.739,0,0,0,.533,1.288l-1.568,1.568,2.738,2.738,1.568-1.568a6.74,6.74,0,0,0,1.288.533v2.219H74.65v-2.219a6.743,6.743,0,0,0,1.288-.533l1.568,1.568,2.738-2.738-1.568-1.568a6.735,6.735,0,0,0,.533-1.288Z" transform="translate(-42.191 -225.018)" fill="#283e57"/>
      <circle id="Elipse_12821" data-name="Elipse 12821" cx="3.692" cy="3.692" r="3.692" transform="translate(27.075 51.995)" fill="#ffda7d"/>
      <g id="Grupo_1236598" data-name="Grupo 1236598" transform="translate(23.746 43.109)">
        <path id="Trazado_1226214" data-name="Trazado 1226214" d="M98.4,241.936H80.968a.968.968,0,1,1,0-1.936H98.4a.968.968,0,1,1,0,1.936Z" transform="translate(-80 -240)" fill="#ef7086"/>
      </g>
      <g id="Grupo_1236599" data-name="Grupo 1236599" transform="translate(37.3 46.014)">
        <path id="Trazado_1226215" data-name="Trazado 1226215" d="M196.841,265.936h-3.873a.968.968,0,1,1,0-1.936h3.873a.968.968,0,1,1,0,1.936Z" transform="translate(-192 -264)" fill="#ef7086"/>
      </g>
      <g id="Grupo_1236600" data-name="Grupo 1236600" transform="translate(40.205 48.918)">
        <path id="Trazado_1226216" data-name="Trazado 1226216" d="M217.936,289.936h-.968a.968.968,0,0,1,0-1.936h.968a.968.968,0,0,1,0,1.936Z" transform="translate(-216 -288)" fill="#ef7086"/>
      </g>
      <g id="Grupo_1236601" data-name="Grupo 1236601" transform="translate(16 16)">
        <path id="Trazado_1226217" data-name="Trazado 1226217" d="M71.308,25.682H70.219V17.573A1.575,1.575,0,0,0,68.645,16h-47.2a1.575,1.575,0,0,0-1.573,1.573v8.109H18.784A2.787,2.787,0,0,0,16,28.465V59.69a2.787,2.787,0,0,0,2.784,2.784h4.824l1.438,1.438a.968.968,0,0,0,1.369,0L27.5,62.827l.119.049v1.533a.968.968,0,0,0,.968.968h3.873a.968.968,0,0,0,.968-.968V62.877l.119-.049,1.084,1.084a.968.968,0,0,0,1.369,0l1.438-1.438h3.111l-1.743,5.809h-.991a4.393,4.393,0,0,0-4.388,4.388v.453a.968.968,0,0,0,.968.968H55.7a.968.968,0,0,0,.968-.968V72.67a4.393,4.393,0,0,0-4.388-4.388h-.991l-1.743-5.809H71.308a2.787,2.787,0,0,0,2.784-2.784V28.465A2.787,2.787,0,0,0,71.308,25.682Zm-37.88-7.746H68.282v3.873H33.427Zm-11.618,0h9.682v3.873H21.809Zm0,5.809H68.282V52.791H37.7q-.024-.06-.049-.119l1.084-1.084a.968.968,0,0,0,0-1.369L36,47.48a.968.968,0,0,0-1.369,0l-1.084,1.084-.119-.049V46.982a.968.968,0,0,0-.968-.968H28.587a.968.968,0,0,0-.968.968v1.533l-.119.049-1.084-1.084a.968.968,0,0,0-1.369,0l-2.739,2.738a.968.968,0,0,0,0,1.369l1.084,1.084q-.025.06-.049.119H21.809Zm-3.873,4.72a.848.848,0,0,1,.847-.847h1.089V53.154a1.572,1.572,0,0,0,.968,1.449v2.061h-2.9ZM22.307,59.8a.968.968,0,0,0-.284.685c0,.016,0,.032,0,.049H18.784a.848.848,0,0,1-.847-.847V58.6h5.405l.049.12Zm14.711-3.139a.968.968,0,0,0-.928.692,5.787,5.787,0,0,1-.456,1.1A.968.968,0,0,0,35.8,59.6l.884.884-1.369,1.369-.883-.883a.968.968,0,0,0-1.146-.167,5.78,5.78,0,0,1-1.1.456.968.968,0,0,0-.692.928v1.251H29.555v-1.25a.968.968,0,0,0-.692-.928,5.777,5.777,0,0,1-1.1-.456.968.968,0,0,0-1.146.167l-.883.883-1.369-1.369.884-.884a.968.968,0,0,0,.167-1.146,5.794,5.794,0,0,1-.456-1.1.968.968,0,0,0-.928-.692h-1.25V54.728h1.25a.968.968,0,0,0,.928-.692,5.784,5.784,0,0,1,.456-1.1.968.968,0,0,0-.167-1.146l-.884-.884,1.369-1.369.883.883a.968.968,0,0,0,1.146.167,5.781,5.781,0,0,1,1.1-.456.968.968,0,0,0,.692-.928V47.95h1.936V49.2a.968.968,0,0,0,.692.928,5.777,5.777,0,0,1,1.1.456.968.968,0,0,0,1.146-.167l.883-.883L36.684,50.9l-.884.884a.968.968,0,0,0-.167,1.146,5.792,5.792,0,0,1,.456,1.1.968.968,0,0,0,.927.692h1.251v1.936h-1.25ZM52.276,70.219a2.456,2.456,0,0,1,2.4,1.936H35.418a2.456,2.456,0,0,1,2.4-1.936ZM40.828,68.282l1.743-5.809H47.52l1.743,5.809Zm13.9-7.745H39.019c0-.016,0-.032,0-.049a.968.968,0,0,0-.284-.685L37.655,58.72q.025-.06.049-.12H54.728Zm5.809,0H56.664V58.6h3.873Zm3.873,0H62.473V58.6h1.936Zm3.873,0H66.346V58.6h1.936Zm3.873-.847a.848.848,0,0,1-.847.847H70.219V58.6h1.936Zm0-3.026H40.2V54.728H68.645a1.575,1.575,0,0,0,1.573-1.573V27.618h1.089a.848.848,0,0,1,.847.847Z" transform="translate(-16 -16)"/>
        <path id="Trazado_1226218" data-name="Trazado 1226218" d="M72.984,40h0a.968.968,0,1,0,.969.968A.968.968,0,0,0,72.983,40Z" transform="translate(-65.236 -37.095)"/>
        <path id="Trazado_1226219" data-name="Trazado 1226219" d="M96.984,40h0a.968.968,0,1,0,.969.968A.968.968,0,0,0,96.983,40Z" transform="translate(-86.331 -37.095)"/>
        <path id="Trazado_1226220" data-name="Trazado 1226220" d="M120.984,40h0a.968.968,0,1,0,.969.968A.968.968,0,0,0,120.983,40Z" transform="translate(-107.427 -37.095)"/>
        <path id="Trazado_1226221" data-name="Trazado 1226221" d="M178.9,40h-1.936a.968.968,0,0,0,0,1.936H178.9a.968.968,0,0,0,0-1.936Z" transform="translate(-156.636 -37.095)"/>
        <path id="Trazado_1226222" data-name="Trazado 1226222" d="M234.65,40h-9.682a.968.968,0,0,0,0,1.936h9.682a.968.968,0,0,0,0-1.936Z" transform="translate(-198.827 -37.095)"/>
        <path id="Trazado_1226223" data-name="Trazado 1226223" d="M152.968,101.809H176.2a.968.968,0,0,0,.968-.968V96.968A.968.968,0,0,0,176.2,96H152.968a.968.968,0,0,0-.968.968v3.873A.968.968,0,0,0,152.968,101.809Zm.968-3.873h21.3v1.936h-21.3Z" transform="translate(-135.541 -86.318)"/>
        <path id="Trazado_1226224" data-name="Trazado 1226224" d="M80.968,167.745H98.4a.968.968,0,0,0,.968-.968v-5.809A.968.968,0,0,0,98.4,160H80.968a.968.968,0,0,0-.968.968v5.809A.968.968,0,0,0,80.968,167.745Zm.968-5.809H97.427v3.873H81.936Z" transform="translate(-72.254 -142.573)"/>
        <path id="Trazado_1226225" data-name="Trazado 1226225" d="M276.332,240H256.968a.968.968,0,0,0-.968.968v5.809a.968.968,0,0,0,.968.968h19.364a.968.968,0,0,0,.968-.968v-5.809A.968.968,0,0,0,276.332,240Zm-.968,5.809H257.936v-3.873h17.427Z" transform="translate(-226.954 -212.891)"/>
        <path id="Trazado_1226226" data-name="Trazado 1226226" d="M304,160.968a.968.968,0,0,0,.968.968h13.555a.968.968,0,0,0,0-1.936H304.968A.968.968,0,0,0,304,160.968Z" transform="translate(-269.145 -142.573)"/>
        <path id="Trazado_1226227" data-name="Trazado 1226227" d="M276.332,184H256.968a.968.968,0,0,0,0,1.936h19.364a.968.968,0,0,0,0-1.936Z" transform="translate(-226.954 -163.668)"/>
        <path id="Trazado_1226228" data-name="Trazado 1226228" d="M276.332,208H256.968a.968.968,0,0,0,0,1.936h19.364a.968.968,0,0,0,0-1.936Z" transform="translate(-226.954 -184.763)"/>
        <path id="Trazado_1226229" data-name="Trazado 1226229" d="M100.841,304a4.841,4.841,0,1,0,4.841,4.841A4.846,4.846,0,0,0,100.841,304Zm0,7.746a2.9,2.9,0,1,1,2.9-2.9A2.908,2.908,0,0,1,100.841,311.746Z" transform="translate(-86.318 -269.145)"/>
        <path id="Trazado_1226230" data-name="Trazado 1226230" d="M80.968,241.936H98.4a.968.968,0,1,0,0-1.936H80.968a.968.968,0,1,0,0,1.936Z" transform="translate(-72.254 -212.891)"/>
        <path id="Trazado_1226231" data-name="Trazado 1226231" d="M196.841,264h-3.873a.968.968,0,1,0,0,1.936h3.873a.968.968,0,1,0,0-1.936Z" transform="translate(-170.7 -233.986)"/>
        <path id="Trazado_1226232" data-name="Trazado 1226232" d="M217.936,288h-.968a.968.968,0,0,0,0,1.936h.968a.968.968,0,0,0,0-1.936Z" transform="translate(-191.795 -255.082)"/>
      </g>
    </g>
  </g>
</svg>
