<svg xmlns="http://www.w3.org/2000/svg" xmlns:xlink="http://www.w3.org/1999/xlink" width="113" height="113" viewBox="0 0 113 113">
  <defs>
    <filter id="Trazado_982547" x="0" y="0" width="113" height="113" filterUnits="userSpaceOnUse">
      <feOffset dy="3" input="SourceAlpha"/>
      <feGaussianBlur stdDeviation="3" result="blur"/>
      <feFlood flood-opacity="0.161"/>
      <feComposite operator="in" in2="blur"/>
      <feComposite in="SourceGraphic"/>
    </filter>
  </defs>
  <g id="Grupo_1236603" data-name="Grupo 1236603" transform="translate(-1112 -7344.391)">
    <g id="Grupo_1236145" data-name="Grupo 1236145" transform="translate(1121 7350.391)">
      <g id="Grupo_1235107" data-name="Grupo 1235107" transform="translate(0 0)">
        <g id="Grupo_1223796" data-name="Grupo 1223796" transform="translate(0 0)">
          <g id="Grupo_1208038" data-name="Grupo 1208038">
            <g id="Grupo_1202104" data-name="Grupo 1202104">
              <g id="Grupo_1201923" data-name="Grupo 1201923" transform="translate(0 0)">
                <g id="Grupo_1176928" data-name="Grupo 1176928">
                  <g id="Grupo_1172322" data-name="Grupo 1172322">
                    <g id="Grupo_1164700" data-name="Grupo 1164700">
                      <g id="Grupo_1160931" data-name="Grupo 1160931">
                        <g id="Grupo_1160749" data-name="Grupo 1160749">
                          <g id="Grupo_1158891" data-name="Grupo 1158891">
                            <g id="Grupo_1157406" data-name="Grupo 1157406">
                              <g id="Grupo_1155793" data-name="Grupo 1155793">
                                <g id="Grupo_1154704" data-name="Grupo 1154704">
                                  <g id="Grupo_1150790" data-name="Grupo 1150790">
                                    <g id="Grupo_1154214" data-name="Grupo 1154214">
                                      <g id="Grupo_1152583" data-name="Grupo 1152583">
                                        <g id="Grupo_1146973" data-name="Grupo 1146973">
                                          <g id="Grupo_1146954" data-name="Grupo 1146954">
                                            <g transform="matrix(1, 0, 0, 1, -9, -6)" filter="url(#Trazado_982547)">
                                              <g id="Trazado_982547-2" data-name="Trazado 982547" transform="translate(9 6)" fill="#e1daf7">
                                                <path d="M 47.5000114440918 93.49987030029297 C 41.28938293457031 93.49987030029297 35.26534652709961 92.28384399414062 29.5951976776123 89.88558959960938 C 24.11773109436035 87.56881713867188 19.19814491271973 84.25183868408203 14.97310447692871 80.02680206298828 C 10.74805164337158 75.80176544189453 7.43107795715332 70.88218688964844 5.114304542541504 65.40472412109375 C 2.716038227081299 59.73458862304688 1.500011444091797 53.71054840087891 1.500011444091797 47.49993515014648 C 1.500011444091797 41.28932189941406 2.716038227081299 35.26528167724609 5.114304542541504 29.59514808654785 C 7.43107795715332 24.1176815032959 10.74805164337158 19.1981086730957 14.97310447692871 14.97306823730469 C 19.19814491271973 10.74802875518799 24.11773109436035 7.431055068969727 29.5951976776123 5.11428165435791 C 35.26534652709961 2.716028451919556 41.28938293457031 1.500001788139343 47.5000114440918 1.500001788139343 C 53.71063995361328 1.500001788139343 59.73467636108398 2.716028451919556 65.40482330322266 5.11428165435791 C 70.88229370117188 7.431055068969727 75.8018798828125 10.74802875518799 80.02691650390625 14.97306823730469 C 84.25196838378906 19.1981086730957 87.56894683837891 24.1176815032959 89.88571929931641 29.59514808654785 C 92.28398132324219 35.26528167724609 93.50001525878906 41.28932189941406 93.50001525878906 47.49993515014648 C 93.50001525878906 53.71054840087891 92.28398132324219 59.73458862304688 89.88571929931641 65.40472412109375 C 87.56894683837891 70.88218688964844 84.25196838378906 75.80176544189453 80.02691650390625 80.02680206298828 C 75.8018798828125 84.25183868408203 70.88229370117188 87.56881713867188 65.40482330322266 89.88558959960938 C 59.73467636108398 92.28384399414062 53.71063995361328 93.49987030029297 47.5000114440918 93.49987030029297 Z" stroke="none"/>
                                                <path d="M 47.5000114440918 3 C 41.49122619628906 3 35.66378021240234 4.1761474609375 30.17951965332031 6.495796203613281 C 24.880859375 8.7369384765625 20.12153625488281 11.94596862792969 16.03376770019531 16.03373718261719 C 11.94598388671875 20.12149047851562 8.736968994140625 24.88081359863281 6.495811462402344 30.17947387695312 C 4.176162719726562 35.66371917724609 3.000007629394531 41.49116516113281 3.000007629394531 47.49993515014648 C 3.000007629394531 53.50870513916016 4.176162719726562 59.33615112304688 6.495811462402344 64.82039642333984 C 8.736968994140625 70.11905670166016 11.94598388671875 74.87837982177734 16.03376770019531 78.96613311767578 C 20.12153625488281 83.05390167236328 24.880859375 86.26293182373047 30.17951965332031 88.50407409667969 C 35.66378021240234 90.82372283935547 41.49122619628906 91.99987030029297 47.5000114440918 91.99987030029297 C 53.50879669189453 91.99987030029297 59.33624267578125 90.82372283935547 64.82050323486328 88.50407409667969 C 70.11916351318359 86.26293182373047 74.87848663330078 83.05390167236328 78.96625518798828 78.96613311767578 C 83.05403900146484 74.87837982177734 86.2630615234375 70.11905670166016 88.50421142578125 64.82039642333984 C 90.82386016845703 59.33615112304688 92.00001525878906 53.50870513916016 92.00001525878906 47.49993515014648 C 92.00001525878906 41.49116516113281 90.82386016845703 35.66371917724609 88.50421142578125 30.17947387695312 C 86.2630615234375 24.88081359863281 83.05403900146484 20.12149047851562 78.96625518798828 16.03373718261719 C 74.87848663330078 11.94596862792969 70.11916351318359 8.7369384765625 64.82050323486328 6.495796203613281 C 59.33624267578125 4.1761474609375 53.50879669189453 3 47.5000114440918 3 M 47.5000114440918 0 C 73.73353576660156 0 95.00001525878906 21.26644134521484 95.00001525878906 47.49993515014648 C 95.00001525878906 73.73342895507812 73.73353576660156 94.99987030029297 47.5000114440918 94.99987030029297 C 21.26648712158203 94.99987030029297 7.62939453125e-06 73.73342895507812 7.62939453125e-06 47.49993515014648 C 7.62939453125e-06 21.26644134521484 21.26648712158203 0 47.5000114440918 0 Z" stroke="none" fill="#6c4dd8"/>
                                              </g>
                                            </g>
                                          </g>
                                        </g>
                                      </g>
                                    </g>
                                  </g>
                                </g>
                              </g>
                            </g>
                          </g>
                        </g>
                      </g>
                    </g>
                  </g>
                </g>
              </g>
            </g>
          </g>
        </g>
      </g>
    </g>
    <g id="wireframe_2_" data-name="wireframe (2)" transform="translate(1142.01 7371.401)">
      <path id="Trazado_1226233" data-name="Trazado 1226233" d="M56.288,58.929H10.139a2.64,2.64,0,0,1-2.64-2.64V10.14a2.64,2.64,0,0,1,2.64-2.64H56.288a2.64,2.64,0,0,1,2.64,2.64V56.289A2.64,2.64,0,0,1,56.288,58.929Zm0,0" transform="translate(-6.723 -6.724)" fill="#e7e7e7"/>
      <path id="Trazado_1226234" data-name="Trazado 1226234" d="M458.057,10.143V56.292a2.64,2.64,0,0,1-2.64,2.64H452.7a2.64,2.64,0,0,0,2.64-2.64V10.143A2.64,2.64,0,0,0,452.7,7.5h2.721a2.64,2.64,0,0,1,2.64,2.639Zm0,0" transform="translate(-405.851 -6.727)" fill="#cecece"/>
      <path id="Trazado_1226235" data-name="Trazado 1226235" d="M329.718,151.708H320.3a2.784,2.784,0,0,1-2.784-2.784v-8.175a2.784,2.784,0,0,1,2.784-2.784h9.422a2.784,2.784,0,0,1,2.784,2.784v8.175a2.784,2.784,0,0,1-2.784,2.784Zm0,0" transform="translate(-284.656 -123.688)" fill="#64dcfc"/>
      <path id="Trazado_1226236" data-name="Trazado 1226236" d="M329.718,338.431H320.3a2.784,2.784,0,0,1-2.784-2.784v-8.175a2.784,2.784,0,0,1,2.784-2.784h9.422a2.784,2.784,0,0,1,2.784,2.784v8.175A2.784,2.784,0,0,1,329.718,338.431Zm0,0" transform="translate(-284.656 -291.089)" fill="#64dcfc"/>
      <path id="Trazado_1226237" data-name="Trazado 1226237" d="M415.3,140.753v8.175a2.785,2.785,0,0,1-2.784,2.784h-2.65a2.785,2.785,0,0,0,2.785-2.784v-8.175a2.784,2.784,0,0,0-2.785-2.784h2.65A2.784,2.784,0,0,1,415.3,140.753Zm0,0" transform="translate(-367.455 -123.692)" fill="#00d1fc"/>
      <path id="Trazado_1226238" data-name="Trazado 1226238" d="M415.3,327.476v8.175a2.785,2.785,0,0,1-2.784,2.784h-2.65a2.785,2.785,0,0,0,2.785-2.784v-8.175a2.784,2.784,0,0,0-2.785-2.784h2.65A2.784,2.784,0,0,1,415.3,327.476Zm0,0" transform="translate(-367.455 -291.093)" fill="#00d1fc"/>
      <path id="Trazado_1226239" data-name="Trazado 1226239" d="M58.929,16.507H7.5V10.14A2.64,2.64,0,0,1,10.14,7.5H56.289a2.64,2.64,0,0,1,2.64,2.64Zm0,0" transform="translate(-6.724 -6.724)" fill="#acacac"/>
      <path id="Trazado_1226240" data-name="Trazado 1226240" d="M458.057,10.143V16.51h-2.721V10.143A2.64,2.64,0,0,0,452.7,7.5h2.721A2.64,2.64,0,0,1,458.057,10.143Zm0,0" transform="translate(-405.851 -6.727)" fill="#9c9c9c"/>
      <path id="Trazado_1226241" data-name="Trazado 1226241" d="M43.261,37.8a1.5,1.5,0,1,1-1.5-1.5A1.5,1.5,0,0,1,43.261,37.8Zm0,0" transform="translate(-36.092 -32.537)" fill="#ff6b81"/>
      <path id="Trazado_1226242" data-name="Trazado 1226242" d="M99.308,37.8a1.5,1.5,0,1,1-1.5-1.5A1.5,1.5,0,0,1,99.308,37.8Zm0,0" transform="translate(-86.339 -32.537)" fill="#ffd86e"/>
      <path id="Trazado_1226243" data-name="Trazado 1226243" d="M155.355,37.8a1.5,1.5,0,1,1-1.5-1.5A1.5,1.5,0,0,1,155.355,37.8Zm0,0" transform="translate(-136.587 -32.537)" fill="#80e0dc"/>
      <path id="Trazado_1226244" data-name="Trazado 1226244" d="M47.3,37.8a1.5,1.5,0,0,1-2.537,1.086,1.5,1.5,0,0,0,1-2.587H45.8a1.5,1.5,0,0,1,1.5,1.5Zm0,0" transform="translate(-40.13 -32.544)" fill="#ff435f"/>
      <path id="Trazado_1226245" data-name="Trazado 1226245" d="M103.339,37.8a1.5,1.5,0,0,1-2.538,1.086,1.5,1.5,0,0,0,1-2.587h.034A1.5,1.5,0,0,1,103.339,37.8Zm0,0" transform="translate(-90.37 -32.544)" fill="#ffb509"/>
      <path id="Trazado_1226246" data-name="Trazado 1226246" d="M159.389,37.8a1.5,1.5,0,0,1-2.538,1.086,1.5,1.5,0,0,0,1-2.587h.035a1.5,1.5,0,0,1,1.5,1.5Zm0,0" transform="translate(-140.621 -32.544)" fill="#00a8b0"/>
      <path id="Trazado_1226247" data-name="Trazado 1226247" d="M.776,10.559A.776.776,0,0,1,0,9.783V3.416A3.42,3.42,0,0,1,3.416,0H19.8a.776.776,0,0,1,0,1.553H3.416A1.866,1.866,0,0,0,1.553,3.416V9.783a.776.776,0,0,1-.776.776Zm0,0" transform="translate(0)"/>
      <path id="Trazado_1226248" data-name="Trazado 1226248" d="M61.867,171.026H43.042a2.784,2.784,0,0,1-2.784-2.784v-27.5a2.784,2.784,0,0,1,2.784-2.785H61.867a2.784,2.784,0,0,1,2.784,2.785v27.5A2.784,2.784,0,0,1,61.867,171.026Zm0,0" transform="translate(-36.092 -123.685)" fill="#ffd86e"/>
      <path id="Trazado_1226249" data-name="Trazado 1226249" d="M227.562,140.753v27.5a2.784,2.784,0,0,1-2.784,2.784h-2.055a2.782,2.782,0,0,0,2.034-2.68v-27.5a2.784,2.784,0,0,0-2.784-2.784l2.806-.1a2.783,2.783,0,0,1,2.784,2.784Zm0,0" transform="translate(-199.003 -123.693)" fill="#ffb509"/>
      <path id="Trazado_1226250" data-name="Trazado 1226250" d="M32.754,31.071a2.278,2.278,0,1,0,2.278-2.278A2.28,2.28,0,0,0,32.754,31.071Zm3,0a.726.726,0,1,1-.726-.726A.726.726,0,0,1,35.758,31.071Zm0,0" transform="translate(-29.365 -25.814)"/>
      <path id="Trazado_1226251" data-name="Trazado 1226251" d="M88.8,31.071a2.278,2.278,0,1,0,2.278-2.278A2.28,2.28,0,0,0,88.8,31.071Zm3,0a.726.726,0,1,1-.726-.726A.726.726,0,0,1,91.808,31.071Zm0,0" transform="translate(-79.615 -25.814)"/>
      <path id="Trazado_1226252" data-name="Trazado 1226252" d="M144.852,31.071a2.278,2.278,0,1,0,2.278-2.278A2.28,2.28,0,0,0,144.852,31.071Zm3,0a.726.726,0,1,1-.726-.726A.726.726,0,0,1,147.855,31.071Zm0,0" transform="translate(-129.863 -25.814)"/>
      <path id="Trazado_1226253" data-name="Trazado 1226253" d="M49.565,0H24.7a.776.776,0,0,0,0,1.553H49.565a1.866,1.866,0,0,1,1.864,1.863v5.59H1.552V3.416A1.866,1.866,0,0,1,3.416,1.553H19.8A.776.776,0,0,0,19.8,0H3.416A3.42,3.42,0,0,0,0,3.416V49.565a3.42,3.42,0,0,0,3.416,3.416H49.565a3.42,3.42,0,0,0,3.416-3.416V3.416A3.42,3.42,0,0,0,49.565,0Zm1.863,49.565a1.866,1.866,0,0,1-1.863,1.863H3.416a1.866,1.866,0,0,1-1.863-1.863V10.559H51.428Zm0,0"/>
      <path id="Trazado_1226254" data-name="Trazado 1226254" d="M33.53,146.833a.776.776,0,0,0,.776-.777v-1.137a2,2,0,0,1,.328-1.1.776.776,0,1,0-1.3-.852,3.548,3.548,0,0,0-.583,1.953v1.137a.776.776,0,0,0,.776.776Zm0,0" transform="translate(-29.365 -127.858)"/>
      <path id="Trazado_1226255" data-name="Trazado 1226255" d="M56,451.2a3.574,3.574,0,0,0,.57.045h2.305a.776.776,0,1,0,0-1.552H56.572a2.036,2.036,0,0,1-.323-.026A.776.776,0,1,0,56,451.2Zm0,0" transform="translate(-49.622 -403.127)"/>
      <path id="Trazado_1226256" data-name="Trazado 1226256" d="M60.412,132.014H63.16a.776.776,0,0,0,0-1.553H60.406a.776.776,0,0,0,.006,1.553Zm0,0" transform="translate(-53.462 -116.961)"/>
      <path id="Trazado_1226257" data-name="Trazado 1226257" d="M109.323,451.556h2.754a.776.776,0,0,0,0-1.552h-2.754a.776.776,0,1,0,0,1.552Zm0,0" transform="translate(-97.315 -403.438)"/>
      <path id="Trazado_1226258" data-name="Trazado 1226258" d="M113.6,132.014h2.753a.776.776,0,0,0,0-1.553H113.6a.776.776,0,1,0,0,1.553Zm0,0" transform="translate(-101.146 -116.961)"/>
      <path id="Trazado_1226259" data-name="Trazado 1226259" d="M33.53,199.274a.776.776,0,0,0,.776-.776v-2.753a.776.776,0,0,0-1.553,0V198.5A.776.776,0,0,0,33.53,199.274Zm0,0" transform="translate(-29.365 -174.793)"/>
      <path id="Trazado_1226260" data-name="Trazado 1226260" d="M33.774,412.1a.777.777,0,0,0,.708-1.095,1.986,1.986,0,0,1-.175-.821v-1.579a.776.776,0,0,0-1.553,0v1.579a3.531,3.531,0,0,0,.311,1.457A.776.776,0,0,0,33.774,412.1Zm0,0" transform="translate(-29.365 -365.63)"/>
      <path id="Trazado_1226261" data-name="Trazado 1226261" d="M162.539,451.556h2.753a.776.776,0,1,0,0-1.552h-2.753a.776.776,0,1,0,0,1.552Zm0,0" transform="translate(-145.023 -403.438)"/>
      <path id="Trazado_1226262" data-name="Trazado 1226262" d="M33.53,252.489a.776.776,0,0,0,.776-.776V248.96a.776.776,0,0,0-1.553,0v2.753A.776.776,0,0,0,33.53,252.489Zm0,0" transform="translate(-29.365 -222.502)"/>
      <path id="Trazado_1226263" data-name="Trazado 1226263" d="M33.53,358.92a.776.776,0,0,0,.776-.776V355.39a.776.776,0,1,0-1.553,0v2.754A.776.776,0,0,0,33.53,358.92Zm0,0" transform="translate(-29.365 -317.919)"/>
      <path id="Trazado_1226264" data-name="Trazado 1226264" d="M33.53,305.7a.776.776,0,0,0,.776-.776v-2.753a.776.776,0,1,0-1.553,0v2.753A.776.776,0,0,0,33.53,305.7Zm0,0" transform="translate(-29.365 -270.21)"/>
      <path id="Trazado_1226265" data-name="Trazado 1226265" d="M269.269,252.4a.776.776,0,0,0-.777.776v2.754a.776.776,0,1,0,1.553,0v-2.754A.776.776,0,0,0,269.269,252.4Zm0,0" transform="translate(-240.709 -226.28)"/>
      <path id="Trazado_1226266" data-name="Trazado 1226266" d="M269.269,199.184a.776.776,0,0,0-.777.776v2.754a.776.776,0,0,0,1.553,0V199.96A.776.776,0,0,0,269.269,199.184Zm0,0" transform="translate(-240.709 -178.573)"/>
      <path id="Trazado_1226267" data-name="Trazado 1226267" d="M269.269,305.617a.776.776,0,0,0-.777.776v2.754a.776.776,0,0,0,1.553,0v-2.754A.776.776,0,0,0,269.269,305.617Zm0,0" transform="translate(-240.709 -273.992)"/>
      <path id="Trazado_1226268" data-name="Trazado 1226268" d="M266.367,148.226V149.8a.776.776,0,0,0,1.553,0v-1.574a3.529,3.529,0,0,0-.314-1.464.776.776,0,1,0-1.415.639A2,2,0,0,1,266.367,148.226Zm0,0" transform="translate(-238.584 -131.166)"/>
      <path id="Trazado_1226269" data-name="Trazado 1226269" d="M269.269,358.832a.776.776,0,0,0-.777.776v2.754a.776.776,0,0,0,1.553,0v-2.754A.776.776,0,0,0,269.269,358.832Zm0,0" transform="translate(-240.709 -321.701)"/>
      <path id="Trazado_1226270" data-name="Trazado 1226270" d="M220.03,132.014h2.311a2.034,2.034,0,0,1,.318.025.8.8,0,0,0,.123.01.776.776,0,0,0,.121-1.543,3.575,3.575,0,0,0-.562-.044H220.03a.776.776,0,0,0,0,1.553Zm0,0" transform="translate(-196.566 -116.961)"/>
      <path id="Trazado_1226271" data-name="Trazado 1226271" d="M166.815,132.014h2.754a.776.776,0,0,0,0-1.553h-2.754a.776.776,0,0,0,0,1.553Zm0,0" transform="translate(-148.858 -116.961)"/>
      <path id="Trazado_1226272" data-name="Trazado 1226272" d="M215.753,451.556h2.765a.776.776,0,0,0,0-1.552h-2.765a.776.776,0,1,0,0,1.552Zm0,0" transform="translate(-192.731 -403.438)"/>
      <path id="Trazado_1226273" data-name="Trazado 1226273" d="M264.476,416.137a.775.775,0,0,0,1.074-.225,3.548,3.548,0,0,0,.578-1.946v-1.143a.776.776,0,1,0-1.552,0v1.143a2,2,0,0,1-.326,1.1A.776.776,0,0,0,264.476,416.137Zm0,0" transform="translate(-236.793 -369.409)"/>
      <path id="Trazado_1226274" data-name="Trazado 1226274" d="M310.935,144.614a.778.778,0,0,0,.156.134,3.549,3.549,0,0,0,2.48,1.009H315.7a.776.776,0,0,0,0-1.553h-2.132a1.993,1.993,0,0,1-.809-.171l5.508-4.875,5.517,4.882a2,2,0,0,1-.794.164h-2.649a.776.776,0,0,0,0,1.553h2.649a3.549,3.549,0,0,0,2.56-1.09.726.726,0,0,0,.053-.053l.009-.012a3.547,3.547,0,0,0,.938-2.405v-8.175a3.565,3.565,0,0,0-3.56-3.561h-9.422a3.55,3.55,0,0,0-2.58,1.11.766.766,0,0,0-.057.058c-.008.008-.014.017-.021.026a3.546,3.546,0,0,0-.9,2.366V142.2a3.545,3.545,0,0,0,.825,2.277A.784.784,0,0,0,310.935,144.614ZM325,134.021V142.2a1.986,1.986,0,0,1-.137.724l-5.422-4.8,5.429-4.805A1.994,1.994,0,0,1,325,134.021Zm-11.43-2.008h9.422a2,2,0,0,1,.812.173l-5.534,4.9-5.526-4.891A2,2,0,0,1,313.572,132.013Zm-2.008,2.008a1.993,1.993,0,0,1,.124-.69l5.412,4.79-5.4,4.783a2,2,0,0,1-.131-.709Zm0,0" transform="translate(-277.932 -116.961)"/>
      <path id="Trazado_1226275" data-name="Trazado 1226275" d="M310.944,331.324a.688.688,0,0,0,.054.054,3.549,3.549,0,0,0,2.571,1.1h9.422a3.55,3.55,0,0,0,2.572-1.1.735.735,0,0,0,.053-.054l.009-.012a3.547,3.547,0,0,0,.926-2.393v-8.175a3.545,3.545,0,0,0-.926-2.393l-.009-.012a.784.784,0,0,0-.057-.058,3.55,3.55,0,0,0-2.567-1.1h-9.422a3.551,3.551,0,0,0-2.568,1.1c-.02.018-.039.038-.057.058l-.009.012a3.547,3.547,0,0,0-.926,2.393v8.175a3.547,3.547,0,0,0,.926,2.393Zm12.047-.4h-9.422a2,2,0,0,1-.81-.173l5.521-4.887,5.522,4.887A2,2,0,0,1,322.991,330.928ZM325,320.744v8.175a1.992,1.992,0,0,1-.131.707l-5.417-4.794,5.417-4.794A1.991,1.991,0,0,1,325,320.744Zm-11.43-2.008h9.422a2,2,0,0,1,.81.172L318.28,323.8l-5.521-4.887A2,2,0,0,1,313.569,318.736Zm-2.008,2.008a1.994,1.994,0,0,1,.131-.707l5.417,4.794-5.417,4.794a1.992,1.992,0,0,1-.131-.707Zm0,0" transform="translate(-277.929 -284.362)"/>
    </g>
  </g>
</svg>
