<svg xmlns="http://www.w3.org/2000/svg" xmlns:xlink="http://www.w3.org/1999/xlink" width="113" height="113" viewBox="0 0 113 113">
  <defs>
    <filter id="Trazado_982547" x="0" y="0" width="113" height="113" filterUnits="userSpaceOnUse">
      <feOffset dy="3" input="SourceAlpha"/>
      <feGaussianBlur stdDeviation="3" result="blur"/>
      <feFlood flood-opacity="0.161"/>
      <feComposite operator="in" in2="blur"/>
      <feComposite in="SourceGraphic"/>
    </filter>
  </defs>
  <g id="Grupo_1236617" data-name="Grupo 1236617" transform="translate(-7704 -7346.45)">
    <g id="Grupo_1236146" data-name="Grupo 1236146" transform="translate(6907 4553.332)">
      <g id="Grupo_1235105" data-name="Grupo 1235105" transform="translate(3.131 2004.79)">
        <g id="Grupo_1223793" data-name="Grupo 1223793" transform="translate(0.869 -700.672)">
          <g id="Grupo_1208028" data-name="Grupo 1208028" transform="translate(-0.49 -4138.425)">
            <g id="Grupo_1177675" data-name="Grupo 1177675" transform="translate(-4493 3707.152)">
              <g id="Grupo_1176928" data-name="Grupo 1176928" transform="translate(5295.49 1926.273)">
                <g id="Grupo_1172322" data-name="Grupo 1172322" transform="translate(0 0)">
                  <g id="Grupo_1164700" data-name="Grupo 1164700">
                    <g id="Grupo_1160931" data-name="Grupo 1160931">
                      <g id="Grupo_1160749" data-name="Grupo 1160749">
                        <g id="Grupo_1158891" data-name="Grupo 1158891">
                          <g id="Grupo_1157406" data-name="Grupo 1157406">
                            <g id="Grupo_1155793" data-name="Grupo 1155793">
                              <g id="Grupo_1154704" data-name="Grupo 1154704">
                                <g id="Grupo_1150790" data-name="Grupo 1150790">
                                  <g id="Grupo_1154214" data-name="Grupo 1154214">
                                    <g id="Grupo_1152583" data-name="Grupo 1152583">
                                      <g id="Grupo_1146973" data-name="Grupo 1146973">
                                        <g id="Grupo_1146954" data-name="Grupo 1146954">
                                          <g transform="matrix(1, 0, 0, 1, -9, -6)" filter="url(#Trazado_982547)">
                                            <g id="Trazado_982547-2" data-name="Trazado 982547" transform="translate(9 6)" fill="#e1daf7">
                                              <path d="M 47.5000114440918 93.49987030029297 C 41.28938293457031 93.49987030029297 35.26534652709961 92.28384399414062 29.5951976776123 89.88558959960938 C 24.11773109436035 87.56881713867188 19.19814491271973 84.25183868408203 14.97310447692871 80.02680206298828 C 10.74805164337158 75.80176544189453 7.43107795715332 70.88218688964844 5.114304542541504 65.40472412109375 C 2.716038227081299 59.73458862304688 1.500011444091797 53.71054840087891 1.500011444091797 47.49993515014648 C 1.500011444091797 41.28932189941406 2.716038227081299 35.26528167724609 5.114304542541504 29.59514808654785 C 7.43107795715332 24.1176815032959 10.74805164337158 19.1981086730957 14.97310447692871 14.97306823730469 C 19.19814491271973 10.74802875518799 24.11773109436035 7.431055068969727 29.5951976776123 5.11428165435791 C 35.26534652709961 2.716028451919556 41.28938293457031 1.500001788139343 47.5000114440918 1.500001788139343 C 53.71063995361328 1.500001788139343 59.73467636108398 2.716028451919556 65.40482330322266 5.11428165435791 C 70.88229370117188 7.431055068969727 75.8018798828125 10.74802875518799 80.02691650390625 14.97306823730469 C 84.25196838378906 19.1981086730957 87.56894683837891 24.1176815032959 89.88571929931641 29.59514808654785 C 92.28398132324219 35.26528167724609 93.50001525878906 41.28932189941406 93.50001525878906 47.49993515014648 C 93.50001525878906 53.71054840087891 92.28398132324219 59.73458862304688 89.88571929931641 65.40472412109375 C 87.56894683837891 70.88218688964844 84.25196838378906 75.80176544189453 80.02691650390625 80.02680206298828 C 75.8018798828125 84.25183868408203 70.88229370117188 87.56881713867188 65.40482330322266 89.88558959960938 C 59.73467636108398 92.28384399414062 53.71063995361328 93.49987030029297 47.5000114440918 93.49987030029297 Z" stroke="none"/>
                                              <path d="M 47.5000114440918 3 C 41.49122619628906 3 35.66378021240234 4.1761474609375 30.17951965332031 6.495796203613281 C 24.880859375 8.7369384765625 20.12153625488281 11.94596862792969 16.03376770019531 16.03373718261719 C 11.94598388671875 20.12149047851562 8.736968994140625 24.88081359863281 6.495811462402344 30.17947387695312 C 4.176162719726562 35.66371917724609 3.000007629394531 41.49116516113281 3.000007629394531 47.49993515014648 C 3.000007629394531 53.50870513916016 4.176162719726562 59.33615112304688 6.495811462402344 64.82039642333984 C 8.736968994140625 70.11905670166016 11.94598388671875 74.87837982177734 16.03376770019531 78.96613311767578 C 20.12153625488281 83.05390167236328 24.880859375 86.26293182373047 30.17951965332031 88.50407409667969 C 35.66378021240234 90.82372283935547 41.49122619628906 91.99987030029297 47.5000114440918 91.99987030029297 C 53.50879669189453 91.99987030029297 59.33624267578125 90.82372283935547 64.82050323486328 88.50407409667969 C 70.11916351318359 86.26293182373047 74.87848663330078 83.05390167236328 78.96625518798828 78.96613311767578 C 83.05403900146484 74.87837982177734 86.2630615234375 70.11905670166016 88.50421142578125 64.82039642333984 C 90.82386016845703 59.33615112304688 92.00001525878906 53.50870513916016 92.00001525878906 47.49993515014648 C 92.00001525878906 41.49116516113281 90.82386016845703 35.66371917724609 88.50421142578125 30.17947387695312 C 86.2630615234375 24.88081359863281 83.05403900146484 20.12149047851562 78.96625518798828 16.03373718261719 C 74.87848663330078 11.94596862792969 70.11916351318359 8.7369384765625 64.82050323486328 6.495796203613281 C 59.33624267578125 4.1761474609375 53.50879669189453 3 47.5000114440918 3 M 47.5000114440918 0 C 73.73353576660156 0 95.00001525878906 21.26644134521484 95.00001525878906 47.49993515014648 C 95.00001525878906 73.73342895507812 73.73353576660156 94.99987030029297 47.5000114440918 94.99987030029297 C 21.26648712158203 94.99987030029297 7.62939453125e-06 73.73342895507812 7.62939453125e-06 47.49993515014648 C 7.62939453125e-06 21.26644134521484 21.26648712158203 0 47.5000114440918 0 Z" stroke="none" fill="#6c4dd8"/>
                                            </g>
                                          </g>
                                        </g>
                                      </g>
                                    </g>
                                  </g>
                                </g>
                              </g>
                            </g>
                          </g>
                        </g>
                      </g>
                    </g>
                  </g>
                </g>
              </g>
            </g>
          </g>
        </g>
      </g>
    </g>
    <g id="registro-en-linea" transform="translate(7729 7368)">
      <g id="Grupo_1236631" data-name="Grupo 1236631">
        <g id="Grupo_1236619" data-name="Grupo 1236619">
          <path id="Trazado_1226294" data-name="Trazado 1226294" d="M12,2H42a4,4,0,0,1,4,4V16.19a5.935,5.935,0,0,0-2.76,1.57L42,19V11a1,1,0,0,0-1-1H13a1,1,0,0,0-1,1V41a1,1,0,0,0,1,1h.47a29.609,29.609,0,0,1-1.96,4.98A1.854,1.854,0,0,1,8,46.15V6a4,4,0,0,1,4-4Z" fill="#969faa"/>
        </g>
        <g id="Grupo_1236620" data-name="Grupo 1236620">
          <path id="Trazado_1226295" data-name="Trazado 1226295" d="M20,49.67c0-.45-.02-.89-.05-1.33L19.46,42H41a1,1,0,0,0,1-1V35l4-4V50a4,4,0,0,1-4,4H19.44A17.089,17.089,0,0,0,20,49.67Z" fill="#969faa"/>
        </g>
        <g id="Grupo_1236621" data-name="Grupo 1236621">
          <path id="Trazado_1226296" data-name="Trazado 1226296" d="M41,10H13a1,1,0,0,0-1,1V41a1,1,0,0,0,1,1H41a1,1,0,0,0,1-1V11A1,1,0,0,0,41,10Z" fill="#69d6f4"/>
        </g>
        <g id="Grupo_1236622" data-name="Grupo 1236622">
          <path id="Trazado_1226297" data-name="Trazado 1226297" d="M32,47a3,3,0,0,1-3,3H25a3,3,0,0,1-3-3,1,1,0,0,1,1-1h8A1,1,0,0,1,32,47Z" fill="#e6e9ed"/>
        </g>
        <g id="Grupo_1236623" data-name="Grupo 1236623">
          <path id="Trazado_1226298" data-name="Trazado 1226298" d="M16,14H38v4H16Z" fill="#ef7385"/>
        </g>
        <g id="Grupo_1236624" data-name="Grupo 1236624">
          <path id="Trazado_1226299" data-name="Trazado 1226299" d="M6,58H18v4H6Z" fill="#ef7385"/>
        </g>
        <g id="Grupo_1236625" data-name="Grupo 1236625">
          <path id="Trazado_1226300" data-name="Trazado 1226300" d="M41,36l-4.7,1.88a1.677,1.677,0,0,1-2.18-2.18L36,31Z" fill="#cf9e76"/>
        </g>
        <g id="Grupo_1236626" data-name="Grupo 1236626">
          <path id="Trazado_1226301" data-name="Trazado 1226301" d="M62,13.54a3.536,3.536,0,0,1-1.04,2.5l-3.39,3.39L51,26l-3.09-2.47a6.939,6.939,0,0,0-3.04-1.4L51,16l4.96-4.96A3.54,3.54,0,0,1,62,13.54Z" fill="#b4dd7f"/>
        </g>
        <g id="Grupo_1236627" data-name="Grupo 1236627">
          <path id="Trazado_1226302" data-name="Trazado 1226302" d="M41.28,25.72a6.943,6.943,0,0,0,.96,1.02l5.01,3.01L46,31l-4,4-1,1-5-5,3.1-3.1Z" fill="#b4dd7f"/>
        </g>
        <g id="Grupo_1236628" data-name="Grupo 1236628">
          <path id="Trazado_1226303" data-name="Trazado 1226303" d="M41.75,22.75a2.49,2.49,0,0,0-.75,1.8,2.556,2.556,0,0,0,.28,1.17L39.1,27.9a2.866,2.866,0,0,1-1.5-.99,2.8,2.8,0,0,1-.6-1.74,2.831,2.831,0,0,1,.83-2L42,19l1.24-1.24A5.935,5.935,0,0,1,46,16.19,5.69,5.69,0,0,1,47.49,16H51l-6.13,6.13A6.424,6.424,0,0,0,43.55,22a2.49,2.49,0,0,0-1.8.75Z" fill="#f0d0b4"/>
        </g>
        <g id="Grupo_1236629" data-name="Grupo 1236629">
          <path id="Trazado_1226304" data-name="Trazado 1226304" d="M42.24,26.74a6.943,6.943,0,0,1-.96-1.02A2.556,2.556,0,0,1,41,24.55,2.561,2.561,0,0,1,43.55,22a6.424,6.424,0,0,1,1.32.13,6.939,6.939,0,0,1,3.04,1.4L51,26l6.57-6.57L61,22h1v8H61l-4.6,1.53a9.068,9.068,0,0,1-7.56-.83l-1.59-.95Z" fill="#f0d0b4"/>
        </g>
        <g id="Grupo_1236630" data-name="Grupo 1236630">
          <path id="Trazado_1226305" data-name="Trazado 1226305" d="M19.95,48.34c.03.44.05.88.05,1.33A17.089,17.089,0,0,1,19.44,54a17.712,17.712,0,0,1-.68,2.1L18,58H6L4.7,54.74a17.27,17.27,0,0,1-1.01-3.59L2.14,41.82A10.209,10.209,0,0,1,2,40.17a10.067,10.067,0,0,1,2.95-7.12L8,30V46.15a1.854,1.854,0,0,0,3.51.83A29.609,29.609,0,0,0,13.47,42l.34-1.23.75-2.99A2.332,2.332,0,0,1,16.83,36a2.347,2.347,0,0,1,2.34,2.16L19.46,42Z" fill="#f0d0b4"/>
        </g>
      </g>
      <g id="Grupo_1236632" data-name="Grupo 1236632">
        <path id="Trazado_1226306" data-name="Trazado 1226306" d="M31,45H23a2,2,0,0,0-2,2,4,4,0,0,0,4,4h4a4,4,0,0,0,4-4A2,2,0,0,0,31,45Zm-2,4H25a2,2,0,0,1-2-2h8A2,2,0,0,1,29,49Z"/>
        <circle id="Elipse_12825" data-name="Elipse 12825" cx="1" cy="1" r="1" transform="translate(41 5)"/>
        <circle id="Elipse_12826" data-name="Elipse 12826" cx="1" cy="1" r="1" transform="translate(37 5)"/>
        <path id="Trazado_1226307" data-name="Trazado 1226307" d="M23,5h8V7H23Z"/>
        <path id="Trazado_1226308" data-name="Trazado 1226308" d="M59.093,19.32l2.578-2.578a4.535,4.535,0,0,0-6.414-6.414L50.586,15h-3.1c-.163,0-.324.013-.485.024V6a5.006,5.006,0,0,0-5-5H12A5.006,5.006,0,0,0,7,6V29.586L4.24,32.347A10.983,10.983,0,0,0,1,40.167a11.2,11.2,0,0,0,.15,1.818l1.556,9.332a18.284,18.284,0,0,0,1.061,3.792L5,58.193V63H19V58.193l.69-1.725c.193-.483.357-.974.508-1.468H42a5.006,5.006,0,0,0,5-5V31.414l.4-.405.918.551a10.1,10.1,0,0,0,8.4.92L61.162,31H63V21H61.333Zm-2.422-7.578a2.536,2.536,0,1,1,3.586,3.586L50.926,24.66l-2.391-1.913a7.934,7.934,0,0,0-1.792-1.076ZM48.586,17,44.52,21.066A7.983,7.983,0,0,0,43.554,21a3.547,3.547,0,0,0-3.433,4.466L38.87,26.717a1.817,1.817,0,0,1-.334-2.839l5.414-5.414A4.966,4.966,0,0,1,47.485,17ZM9,6a3,3,0,0,1,3-3H42a3,3,0,0,1,3,3v9.459a6.929,6.929,0,0,0-2,1.169V11a2,2,0,0,0-2-2H13a2,2,0,0,0-2,2V41a2,2,0,0,0,1.157,1.807,29.237,29.237,0,0,1-1.539,3.72A.854.854,0,0,1,9,46.146Zm8,55H7V59H17Zm.833-5.274L17.323,57H6.677L5.623,54.366a16.364,16.364,0,0,1-.945-3.377L3.122,41.657A9.311,9.311,0,0,1,3,40.167a9,9,0,0,1,2.654-6.406L7,32.414V46.145a2.854,2.854,0,0,0,5.407,1.277,31.379,31.379,0,0,0,2.37-6.406l.75-3a1.343,1.343,0,0,1,2.643.223l.783,10.172q.047.624.047,1.252a16.263,16.263,0,0,1-1.167,6.061ZM16.83,35a3.34,3.34,0,0,0-3.244,2.533L13,39.877V11H41v7.586l-3.878,3.878a3.811,3.811,0,0,0,.317,5.683l-2.292,2.292-1.956,4.889a2.678,2.678,0,0,0,3.48,3.481L41,37.077V41H20.388l-.224-2.912A3.359,3.359,0,0,0,16.83,35Zm19.535-2.221,2.855,2.855-3.291,1.317A.69.69,0,0,1,35,36.323a.661.661,0,0,1,.049-.252ZM45,50a3,3,0,0,1-3,3H20.689A18.28,18.28,0,0,0,21,49.665q0-.7-.054-1.4l-.4-5.26H41a2,2,0,0,0,2-2V35.414l2-2ZM41,34.586,37.414,31l3.791-3.79a3.464,3.464,0,0,0,.521.392l3.912,2.347ZM61,29h-.162l-4.752,1.584a8.168,8.168,0,0,1-6.733-.739l-6.6-3.958a1.554,1.554,0,0,1,.8-2.887,5.989,5.989,0,0,1,3.731,1.31L50.649,27H56V25H53.414l4.251-4.251,3,2.251H61Z"/>
        <path id="Trazado_1226309" data-name="Trazado 1226309" d="M39,13H15v6H39Zm-2,4H17V15H37Z"/>
        <path id="Trazado_1226310" data-name="Trazado 1226310" d="M21,21H34v2H21Z"/>
        <path id="Trazado_1226311" data-name="Trazado 1226311" d="M32,25h2v2H32Z"/>
        <path id="Trazado_1226312" data-name="Trazado 1226312" d="M21,25h9v2H21Z"/>
        <path id="Trazado_1226313" data-name="Trazado 1226313" d="M21,29H34v2H21Z"/>
        <path id="Trazado_1226314" data-name="Trazado 1226314" d="M21,33H32v2H21Z"/>
        <path id="Trazado_1226315" data-name="Trazado 1226315" d="M21,37H32v2H21Z"/>
      </g>
    </g>
  </g>
</svg>
