<svg xmlns="http://www.w3.org/2000/svg" xmlns:xlink="http://www.w3.org/1999/xlink" width="108" height="108" viewBox="0 0 108 108">
  <defs>
    <filter id="Trazado_904820" x="0" y="0" width="108" height="108" filterUnits="userSpaceOnUse">
      <feOffset dy="3" input="SourceAlpha"/>
      <feGaussianBlur stdDeviation="3" result="blur"/>
      <feFlood flood-opacity="0.161"/>
      <feComposite operator="in" in2="blur"/>
      <feComposite in="SourceGraphic"/>
    </filter>
  </defs>
  <g id="Grupo_1236742" data-name="Grupo 1236742" transform="translate(-197.999 -4629.604)">
    <g id="Grupo_1226214" data-name="Grupo 1226214" transform="translate(0 472.885)">
      <g id="Grupo_1226182" data-name="Grupo 1226182" transform="translate(0 -2795.927)">
        <g id="Grupo_1225798" data-name="Grupo 1225798" transform="translate(206.999 6958.646)">
          <g id="Grupo_1225716" data-name="Grupo 1225716" transform="translate(0 0)">
            <g id="Grupo_1211534" data-name="Grupo 1211534">
              <g id="Grupo_1173585" data-name="Grupo 1173585" transform="translate(0 0)">
                <g id="Grupo_1173428" data-name="Grupo 1173428">
                  <g id="Grupo_1171958" data-name="Grupo 1171958">
                    <g id="Grupo_1167341" data-name="Grupo 1167341">
                      <g id="Grupo_1166792" data-name="Grupo 1166792">
                        <g transform="matrix(1, 0, 0, 1, -9, -6)" filter="url(#Trazado_904820)">
                          <g id="Trazado_904820-2" data-name="Trazado 904820" transform="translate(9 6)" fill="#ebfefd">
                            <path d="M 44.99999618530273 88.50003814697266 C 39.12687301635742 88.50003814697266 33.43022155761719 87.35011291503906 28.06829643249512 85.08219909667969 C 22.88852119445801 82.89134979248047 18.23629570007324 79.75462341308594 14.24084663391113 75.75917053222656 C 10.24540901184082 71.76372528076172 7.108683586120605 67.11149597167969 4.917821407318115 61.93172454833984 C 2.649921178817749 56.56979751586914 1.499996185302734 50.87314605712891 1.499996185302734 45.00002288818359 C 1.499996185302734 39.12689971923828 2.649921178817749 33.43024826049805 4.917821407318115 28.06832313537598 C 7.108683586120605 22.88854789733887 10.24540901184082 18.2363224029541 14.24084663391113 14.24087333679199 C 18.23629570007324 10.24543571472168 22.88852119445801 7.108710289001465 28.06829643249512 4.917848110198975 C 33.43022155761719 2.649947881698608 39.12687301635742 1.500022888183594 44.99999618530273 1.500022888183594 C 50.87311935424805 1.500022888183594 56.56977081298828 2.649947881698608 61.93169784545898 4.917848110198975 C 67.11147308349609 7.108710289001465 71.76369476318359 10.24543571472168 75.75914764404297 14.24087333679199 C 79.75458526611328 18.2363224029541 82.89131164550781 22.88854789733887 85.08216857910156 28.06832313537598 C 87.35007476806641 33.43024826049805 88.5 39.12689971923828 88.5 45.00002288818359 C 88.5 50.87314605712891 87.35007476806641 56.56979751586914 85.08216857910156 61.93172454833984 C 82.89131164550781 67.11149597167969 79.75458526611328 71.76372528076172 75.75914764404297 75.75917053222656 C 71.76369476318359 79.75462341308594 67.11147308349609 82.89134979248047 61.93169784545898 85.08219909667969 C 56.56977081298828 87.35011291503906 50.87311935424805 88.50003814697266 44.99999618530273 88.50003814697266 Z" stroke="none"/>
                            <path d="M 44.99999618530273 3.000007629394531 C 39.32870864868164 3.000007629394531 33.82865142822266 4.110069274902344 28.65262603759766 6.299354553222656 C 23.65165710449219 8.414581298828125 19.15968322753906 11.44335174560547 15.301513671875 15.30153656005859 C 11.44333648681641 19.15970611572266 8.414566040039062 23.65166473388672 6.299339294433594 28.65265274047852 C 4.110054016113281 33.82867813110352 2.999992370605469 39.3287353515625 2.999992370605469 45.00002288818359 C 2.999992370605469 50.67131042480469 4.110054016113281 56.17135238647461 6.299339294433594 61.34739685058594 C 8.414566040039062 66.34836578369141 11.44333648681641 70.84032440185547 15.301513671875 74.69850921630859 C 19.15968322753906 78.55667877197266 23.65165710449219 81.58544921875 28.65262603759766 83.70068359375 C 33.82865142822266 85.88996887207031 39.32870864868164 87.00002288818359 44.99999618530273 87.00002288818359 C 50.67128372192383 87.00002288818359 56.17134094238281 85.88996887207031 61.34736633300781 83.70068359375 C 66.34834289550781 81.58544921875 70.84030914306641 78.55667877197266 74.69847869873047 74.69850921630859 C 78.55665588378906 70.84032440185547 81.58542633056641 66.34836578369141 83.70065307617188 61.34739685058594 C 85.88993835449219 56.17135238647461 87 50.67131042480469 87 45.00002288818359 C 87 39.3287353515625 85.88993835449219 33.82867813110352 83.70065307617188 28.65265274047852 C 81.58542633056641 23.65166473388672 78.55665588378906 19.15970611572266 74.69847869873047 15.30153656005859 C 70.84030914306641 11.44335174560547 66.34834289550781 8.414581298828125 61.34736633300781 6.299354553222656 C 56.17134094238281 4.110069274902344 50.67128372192383 3.000007629394531 44.99999618530273 3.000007629394531 M 44.99999618530273 7.62939453125e-06 C 69.85281372070312 7.62939453125e-06 90 20.14720916748047 90 45.00002288818359 C 90 69.85282135009766 69.85281372070312 90.00002288818359 44.99999618530273 90.00002288818359 C 20.14717864990234 90.00002288818359 -7.62939453125e-06 69.85282135009766 -7.62939453125e-06 45.00002288818359 C -7.62939453125e-06 20.14720916748047 20.14717864990234 7.62939453125e-06 44.99999618530273 7.62939453125e-06 Z" stroke="none" fill="#268985"/>
                          </g>
                        </g>
                      </g>
                    </g>
                  </g>
                </g>
              </g>
            </g>
          </g>
        </g>
      </g>
    </g>
    <g id="usuario" transform="translate(204.162 4653.612)">
      <g id="Grupo_1236740" data-name="Grupo 1236740" transform="translate(24.093 0.791)">
        <path id="Trazado_1226819" data-name="Trazado 1226819" d="M145.12,7.5h6.244a.738.738,0,0,1,.522.216l3.059,3.059-9.294.927a.738.738,0,0,1-.522-.216Z" transform="translate(-133.067 -7.5)" fill="#d7ecfe"/>
        <path id="Trazado_1226820" data-name="Trazado 1226820" d="M62.783,56.625H31.54a.738.738,0,0,1-.738-.738V8.238A.738.738,0,0,1,31.54,7.5H42.855l3.059,3.059a.738.738,0,0,0,.522.216H62.045a.738.738,0,0,1,.738.738V56.625Z" transform="translate(-30.802 -7.5)" fill="#f0fcff"/>
        <g id="Grupo_1236731" data-name="Grupo 1236731" transform="translate(30.03 3.275)">
          <path id="Trazado_1226821" data-name="Trazado 1226821" d="M318.787,38.562h-3.163a.738.738,0,0,1,.738.738V84.412h3.163V39.3a.738.738,0,0,0-.738-.738Z" transform="translate(-315.624 -38.562)" fill="#d7ecfe"/>
        </g>
        <g id="Grupo_1236735" data-name="Grupo 1236735" transform="translate(3.549 9.364)">
          <path id="Trazado_1226822" data-name="Trazado 1226822" d="M89.414,191.843H88.52a3.463,3.463,0,0,1-3.463-3.463v-8.564h7.82v8.564A3.463,3.463,0,0,1,89.414,191.843Z" transform="translate(-82.886 -171.012)" fill="#808b95"/>
          <path id="Trazado_1226823" data-name="Trazado 1226823" d="M151.149,179.816v8.564a3.463,3.463,0,0,1-3.463,3.463h5.3a3.463,3.463,0,0,0,3.463-3.463v-8.564Z" transform="translate(-138.912 -171.012)" fill="#5e6b75"/>
          <path id="Trazado_1226824" data-name="Trazado 1226824" d="M65.2,291.627a.738.738,0,0,1-.738-.738v-2.326a3.753,3.753,0,0,1,3.251-3.719h7.951a3.753,3.753,0,0,1,3.251,3.719v2.326a.738.738,0,0,1-.738.738Z" transform="translate(-64.464 -264.965)" fill="#fd8087"/>
          <path id="Trazado_1226825" data-name="Trazado 1226825" d="M187.609,284.843h-3.854c1.862.251,2.48,1.841,2.48,3.719v2.326a.738.738,0,0,1-.738.738h4.624a.738.738,0,0,0,.738-.738v-2.326A3.753,3.753,0,0,0,187.609,284.843Z" transform="translate(-171.178 -264.965)" fill="#fe646f"/>
          <path id="Trazado_1226826" data-name="Trazado 1226826" d="M103.912,275.929l-2.616.94v6.784h11.945v-6.784l-2.646-.94Z" transform="translate(-97.413 -256.991)" fill="#ffc344"/>
          <path id="Trazado_1226827" data-name="Trazado 1226827" d="M126.107,225.86v5.279a4.934,4.934,0,0,0,1.76,1.039A3.927,3.927,0,0,0,130.509,231v-4.04h-1.5A4.5,4.5,0,0,1,126.107,225.86Z" transform="translate(-119.608 -212.201)" fill="#ffdacc"/>
          <g id="Grupo_1236732" data-name="Grupo 1236732" transform="translate(8.259 13.659)">
            <path id="Trazado_1226828" data-name="Trazado 1226828" d="M144.819,226.963h-.258v4.176a4.936,4.936,0,0,1-1.76,1.039,4.95,4.95,0,0,0,4.923-1.039V225.86A4.5,4.5,0,0,1,144.819,226.963Z" transform="translate(-142.801 -225.86)" fill="#fcccb9"/>
          </g>
          <g id="Grupo_1236734" data-name="Grupo 1236734" transform="translate(1.694)">
            <path id="Trazado_1226829" data-name="Trazado 1226829" d="M110.185,128.877v8.231c0,2.6-4.279,3.591-4.66,3.491a4.706,4.706,0,0,1-3.511-4.551v-.358l-.882-1.87.882-1.87V129.36a1.924,1.924,0,0,1,1.923-1.923h4.807A1.44,1.44,0,0,1,110.185,128.877Z" transform="translate(-98.96 -124.155)" fill="#ffece4"/>
            <path id="Trazado_1226830" data-name="Trazado 1226830" d="M148.035,127.436h-3.163a1.441,1.441,0,0,1,1.441,1.441v7.171A4.706,4.706,0,0,1,142.8,140.6a4.713,4.713,0,0,0,1.193.153h.778a4.7,4.7,0,0,0,4.7-4.7v-.358l.688-1.87-.688-1.87v-3.072A1.441,1.441,0,0,0,148.035,127.436Z" transform="translate(-136.235 -124.155)" fill="#ffdacc"/>
            <path id="Trazado_1226831" data-name="Trazado 1226831" d="M175.2,106.809A4.192,4.192,0,0,1,179.39,111v2.953h-2.58c0-1.347-.2-3.573-3.479-3.573v-3.573H175.2Z" transform="translate(-163.546 -105.702)" fill="#5e6b75"/>
            <path id="Trazado_1226832" data-name="Trazado 1226832" d="M89.042,102.741A1.286,1.286,0,0,0,87.61,104v1.121H85.03v-3.309a5.5,5.5,0,0,1,5.5-5.5h2.7a3.22,3.22,0,1,1-.009,6.439Z" transform="translate(-84.556 -96.313)" fill="#808b95"/>
            <g id="Grupo_1236733" data-name="Grupo 1236733" transform="translate(0 7.794)">
              <path id="Trazado_1226833" data-name="Trazado 1226833" d="M206.1,170.238h1.463a1.591,1.591,0,0,1,1.591,1.591v.558a1.591,1.591,0,0,1-1.591,1.591H206.1Z" transform="translate(-192.864 -170.238)" fill="#fcccb9"/>
              <path id="Trazado_1226834" data-name="Trazado 1226834" d="M83.584,170.238H82.121a1.591,1.591,0,0,0-1.591,1.591v.558a1.591,1.591,0,0,0,1.591,1.591h1.463Z" transform="translate(-80.53 -170.238)" fill="#fcccb9"/>
            </g>
          </g>
        </g>
        <g id="Grupo_1236736" data-name="Grupo 1236736" transform="translate(26.791 13.1)">
          <path id="Trazado_1226835" data-name="Trazado 1226835" d="M302.909,141.574H285.638a.738.738,0,0,1-.738-.738v-8.349a.738.738,0,0,1,.738-.738h17.271a.738.738,0,0,1,.738.738v8.349A.738.738,0,0,1,302.909,141.574Z" transform="translate(-284.9 -131.749)" fill="#9dcffd"/>
        </g>
        <g id="Grupo_1236737" data-name="Grupo 1236737" transform="translate(26.791 26.2)">
          <path id="Trazado_1226836" data-name="Trazado 1226836" d="M302.458,265.823h-16.82a.738.738,0,0,1-.738-.738v-8.349a.738.738,0,0,1,.738-.738h16.82a.738.738,0,0,1,.738.738v8.349A.738.738,0,0,1,302.458,265.823Z" transform="translate(-284.9 -255.998)" fill="#9dcffd"/>
        </g>
        <path id="Trazado_1226837" data-name="Trazado 1226837" d="M447.367,131.749H444.2a.738.738,0,0,1,.738.738v8.349a.738.738,0,0,1-.738.738h3.163a.738.738,0,0,0,.738-.738v-8.349A.738.738,0,0,0,447.367,131.749Z" transform="translate(-400.617 -118.649)" fill="#84c4f4"/>
        <path id="Trazado_1226838" data-name="Trazado 1226838" d="M447.367,256H444.2a.738.738,0,0,1,.738.738v8.349a.738.738,0,0,1-.738.738h3.163a.738.738,0,0,0,.738-.738v-8.349A.738.738,0,0,0,447.367,256Z" transform="translate(-400.617 -229.798)" fill="#84c4f4"/>
        <g id="Grupo_1236738" data-name="Grupo 1236738" transform="translate(13.405 40.938)">
          <path id="Trazado_1226839" data-name="Trazado 1226839" d="M188.886,405.6H158.68a.738.738,0,0,1-.738-.738v-8.349a.738.738,0,0,1,.738-.738h30.206a.738.738,0,0,1,.738.738v8.349A.738.738,0,0,1,188.886,405.6Z" transform="translate(-157.942 -395.778)" fill="#9dcffd"/>
        </g>
        <path id="Trazado_1226840" data-name="Trazado 1226840" d="M447.367,395.778H444.2a.738.738,0,0,1,.738.738v8.349a.738.738,0,0,1-.738.738h3.163a.738.738,0,0,0,.738-.738v-8.349A.738.738,0,0,0,447.367,395.778Z" transform="translate(-400.617 -354.84)" fill="#84c4f4"/>
        <g id="Grupo_1236739" data-name="Grupo 1236739" transform="translate(3.274 39.296)">
          <path id="Trazado_1226841" data-name="Trazado 1226841" d="M72.867,388.266c0,6.152-5.536,6.484-6.043,6.359a6.553,6.553,0,0,1,0-12.718C67.331,381.782,72.867,382.148,72.867,388.266Z" transform="translate(-61.855 -381.712)" fill="#abdc94"/>
          <path id="Trazado_1226842" data-name="Trazado 1226842" d="M108.988,380.4a6.553,6.553,0,0,1,0,12.718,6.552,6.552,0,1,0,0-12.718Z" transform="translate(-104.019 -380.206)" fill="#8ccf75"/>
          <path id="Trazado_1226843" data-name="Trazado 1226843" d="M103.148,420.216l-.759,1.538-1.7.247,1.228,1.2.347.022a1.545,1.545,0,0,0,1.64-1.466Z" transform="translate(-96.597 -415.998)" fill="#ffe177"/>
          <path id="Trazado_1226844" data-name="Trazado 1226844" d="M113.564,434.991l-1.7-.247,0-.007a2.689,2.689,0,0,1-1.985,1.455l-.289,1.685,1.518-.8,1.518.8-.29-1.69Z" transform="translate(-104.557 -428.988)" fill="#ffce71"/>
        </g>
      </g>
      <g id="Grupo_1236741" data-name="Grupo 1236741" transform="translate(23.302 0)">
        <path id="Trazado_1226845" data-name="Trazado 1226845" d="M57.752,31.067a.791.791,0,1,0,.793.79A.792.792,0,0,0,57.752,31.067Z" transform="translate(-53.414 -27.791)"/>
        <path id="Trazado_1226846" data-name="Trazado 1226846" d="M89.854,32.645a.791.791,0,1,0-.791-.791A.792.792,0,0,0,89.854,32.645Z" transform="translate(-82.13 -27.788)"/>
        <path id="Trazado_1226847" data-name="Trazado 1226847" d="M121.954,32.645a.791.791,0,1,0-.791-.791A.793.793,0,0,0,121.954,32.645Z" transform="translate(-110.845 -27.788)"/>
        <path id="Trazado_1226848" data-name="Trazado 1226848" d="M56.964,113.2v2.326a1.531,1.531,0,0,0,1.529,1.529H76.7a1.531,1.531,0,0,0,1.529-1.529V113.2a4.564,4.564,0,0,0-2.685-4.145,4.23,4.23,0,0,0,.543-2.084v-6.036a2.368,2.368,0,0,0,.447-1.388,2.978,2.978,0,0,0-.45-1.95V94.9A4.989,4.989,0,0,0,71.1,89.919h-.216a4,4,0,0,0-2.764-1.107h-2.7A6.293,6.293,0,0,0,59.132,95.1v2.465a2.964,2.964,0,0,0-.474,1.983,2.37,2.37,0,0,0,.477,1.429v6a4.266,4.266,0,0,0,.54,2.072,4.564,4.564,0,0,0-2.711,4.157ZM70.953,95.662q.069-.069.135-.141A2.227,2.227,0,0,1,71.9,97.4v4.1a3.918,3.918,0,0,1-3.913,3.913h-.778a3.918,3.918,0,0,1-3.913-3.913v-4.21a.457.457,0,0,1,.158-.34c.229-.2.007-.1,4.659-.112h.011A3.983,3.983,0,0,0,70.953,95.662Zm2.925,13.028h-.159l-1.991-.707v-2.468a5.484,5.484,0,0,0,1.734-3.586A7.756,7.756,0,0,0,74.5,101.9v5.069A2.652,2.652,0,0,1,73.879,108.69Zm-8.834-.515v-1.628a6.7,6.7,0,0,0,2.94.443,5.465,5.465,0,0,0,2.162-.443v1.628a4.133,4.133,0,0,1-5.1,0Zm9.907-9.187v.558a.8.8,0,0,1-.8.8h-.673V98.188h.673A.8.8,0,0,1,74.952,98.988Zm-13.24,1.358H61.04a.8.8,0,0,1-.8-.8v-.558a.8.8,0,0,1,.8-.8h.673Zm-1,1.56a8.391,8.391,0,0,0,1.012.022,5.484,5.484,0,0,0,1.734,3.586v2.47l-1.963.705h-.158a2.643,2.643,0,0,1-.625-1.719Zm1.712,8.131,1.665-.6a5.721,5.721,0,0,0,2.711,1.137V112.4a.791.791,0,0,0,1.582,0v-1.827a5.722,5.722,0,0,0,2.712-1.138l1.694.6v5.435H62.429ZM76.646,113.2v2.274H74.374v-5.155A2.974,2.974,0,0,1,76.646,113.2ZM74.5,94.9v1.73a8.343,8.343,0,0,0-1.093-.026A3.479,3.479,0,0,0,71.9,94.162a4.032,4.032,0,0,0,.04-2.556A3.407,3.407,0,0,1,74.5,94.9Zm-9.083-4.508h2.7a2.4,2.4,0,0,1,1.915.936,2.428,2.428,0,0,1-1.915,3.922h-.007l-4.139-.011a2.089,2.089,0,0,0-2.146,1.366,9.389,9.389,0,0,0-1.117.022V95.1A4.71,4.71,0,0,1,65.418,90.394ZM58.546,113.2a2.974,2.974,0,0,1,2.3-2.888v5.162h-2.3Z" transform="translate(-53.415 -79.448)"/>
        <path id="Trazado_1226849" data-name="Trazado 1226849" d="M70.843,24.507a1.531,1.531,0,0,0,1.529-1.529V14.629A1.531,1.531,0,0,0,70.843,13.1H58.815V4.8a1.531,1.531,0,0,0-1.529-1.529H46.3L43.471.448A1.519,1.519,0,0,0,42.39,0H24.831A1.531,1.531,0,0,0,23.3,1.529v8.843a.791.791,0,0,0,1.582,0V1.582H35.818l2.827,2.827a1.519,1.519,0,0,0,1.081.448H57.233V13.1H51.622a1.531,1.531,0,0,0-1.529,1.529v8.349a1.531,1.531,0,0,0,1.529,1.529h5.612V26.2H51.622a1.531,1.531,0,0,0-1.529,1.529v8.349a1.531,1.531,0,0,0,1.529,1.529h5.612v3.331h-18.7a7.333,7.333,0,0,0-8.724-.384.791.791,0,0,0,.885,1.311,5.76,5.76,0,1,1-1.981,2.3.791.791,0,0,0-1.427-.682,7.347,7.347,0,0,0-.282,5.646H24.884V13.693a.791.791,0,1,0-1.582,0V49.178a1.531,1.531,0,0,0,1.529,1.529h2.976a7.335,7.335,0,0,0,10.729,1.638H70.843a1.531,1.531,0,0,0,1.529-1.529V42.467a1.531,1.531,0,0,0-1.529-1.529H58.815V37.607H70.843a1.531,1.531,0,0,0,1.529-1.529V33.927a.791.791,0,1,0-1.582,0v2.1H51.674V27.782H70.79v2.7a.791.791,0,1,0,1.582,0V27.729A1.531,1.531,0,0,0,70.843,26.2H58.815V24.507H70.843ZM38.055,1.582h4.314l1.693,1.693H39.748ZM70.79,50.763h-30.8a7.326,7.326,0,0,0,0-8.244h30.8ZM51.674,14.682H70.79v8.244H51.674Z" transform="translate(-23.302 0)"/>
        <path id="Trazado_1226850" data-name="Trazado 1226850" d="M330.445,155.312H318.18a.791.791,0,0,0,0,1.582h12.265a.791.791,0,1,0,0-1.582Z" transform="translate(-286.382 -138.937)"/>
        <path id="Trazado_1226851" data-name="Trazado 1226851" d="M328.471,186.374H318.18a.791.791,0,0,0,0,1.582h10.292a.791.791,0,1,0,0-1.582Z" transform="translate(-286.382 -166.724)"/>
        <path id="Trazado_1226852" data-name="Trazado 1226852" d="M331.235,280.352a.791.791,0,0,0-.791-.791H318.18a.791.791,0,0,0,0,1.582h12.265A.791.791,0,0,0,331.235,280.352Z" transform="translate(-286.382 -250.086)"/>
        <path id="Trazado_1226853" data-name="Trazado 1226853" d="M318.18,310.623a.791.791,0,0,0,0,1.582h10.292a.791.791,0,1,0,0-1.582Z" transform="translate(-286.382 -277.873)"/>
        <path id="Trazado_1226854" data-name="Trazado 1226854" d="M218.091,420.921h22.818a.791.791,0,1,0,0-1.581H218.091a.791.791,0,1,0,0,1.581Z" transform="translate(-196.846 -375.127)"/>
        <path id="Trazado_1226855" data-name="Trazado 1226855" d="M218.091,451.985h20.844a.791.791,0,1,0,0-1.582H218.091a.791.791,0,0,0,0,1.582Z" transform="translate(-196.846 -402.915)"/>
        <path id="Trazado_1226856" data-name="Trazado 1226856" d="M99.006,414.514l-1.286-.187-.575-1.165a.791.791,0,0,0-1.418,0l-.575,1.165-1.286.187a.791.791,0,0,0-.438,1.349l.93.907-.22,1.281a.791.791,0,0,0,1.147.834l1.15-.6,1.15.6a.791.791,0,0,0,1.147-.834l-.22-1.281.93-.907A.791.791,0,0,0,99.006,414.514Zm-1.894,1.413a.79.79,0,0,0-.227.7l.019.111-.1-.052a.791.791,0,0,0-.736,0l-.1.052.019-.111a.791.791,0,0,0-.227-.7l-.081-.079.112-.016a.791.791,0,0,0,.6-.433l.05-.1.05.1a.791.791,0,0,0,.6.433l.112.016Z" transform="translate(-85.82 -369.207)"/>
      </g>
    </g>
  </g>
</svg>
