<svg xmlns="http://www.w3.org/2000/svg" xmlns:xlink="http://www.w3.org/1999/xlink" width="108" height="108" viewBox="0 0 108 108">
  <defs>
    <filter id="Trazado_904820" x="0" y="0" width="108" height="108" filterUnits="userSpaceOnUse">
      <feOffset dy="3" input="SourceAlpha"/>
      <feGaussianBlur stdDeviation="3" result="blur"/>
      <feFlood flood-opacity="0.161"/>
      <feComposite operator="in" in2="blur"/>
      <feComposite in="SourceGraphic"/>
    </filter>
  </defs>
  <g id="Grupo_1236523" data-name="Grupo 1236523" transform="translate(-171 -6276.82)">
    <g id="Grupo_1226541" data-name="Grupo 1226541" transform="translate(-26.999 -675.825)">
      <g id="Grupo_1225798" data-name="Grupo 1225798" transform="translate(206.999 6958.646)">
        <g id="Grupo_1225716" data-name="Grupo 1225716" transform="translate(0 0)">
          <g id="Grupo_1211534" data-name="Grupo 1211534">
            <g id="Grupo_1173585" data-name="Grupo 1173585" transform="translate(0 0)">
              <g id="Grupo_1173428" data-name="Grupo 1173428">
                <g id="Grupo_1171958" data-name="Grupo 1171958">
                  <g id="Grupo_1167341" data-name="Grupo 1167341">
                    <g id="Grupo_1166792" data-name="Grupo 1166792">
                      <g transform="matrix(1, 0, 0, 1, -9, -6)" filter="url(#Trazado_904820)">
                        <g id="Trazado_904820-2" data-name="Trazado 904820" transform="translate(9 6)" fill="#efecfa">
                          <path d="M 44.99999618530273 88.50003814697266 C 39.12687301635742 88.50003814697266 33.43022155761719 87.35011291503906 28.06829643249512 85.08219909667969 C 22.88852119445801 82.89134979248047 18.23629570007324 79.75462341308594 14.24084663391113 75.75917053222656 C 10.24540901184082 71.76372528076172 7.108683586120605 67.11149597167969 4.917821407318115 61.93172454833984 C 2.649921178817749 56.56979751586914 1.499996185302734 50.87314605712891 1.499996185302734 45.00002288818359 C 1.499996185302734 39.12689971923828 2.649921178817749 33.43024826049805 4.917821407318115 28.06832313537598 C 7.108683586120605 22.88854789733887 10.24540901184082 18.2363224029541 14.24084663391113 14.24087333679199 C 18.23629570007324 10.24543571472168 22.88852119445801 7.108710289001465 28.06829643249512 4.917848110198975 C 33.43022155761719 2.649947881698608 39.12687301635742 1.500022888183594 44.99999618530273 1.500022888183594 C 50.87311935424805 1.500022888183594 56.56977081298828 2.649947881698608 61.93169784545898 4.917848110198975 C 67.11147308349609 7.108710289001465 71.76369476318359 10.24543571472168 75.75914764404297 14.24087333679199 C 79.75458526611328 18.2363224029541 82.89131164550781 22.88854789733887 85.08216857910156 28.06832313537598 C 87.35007476806641 33.43024826049805 88.5 39.12689971923828 88.5 45.00002288818359 C 88.5 50.87314605712891 87.35007476806641 56.56979751586914 85.08216857910156 61.93172454833984 C 82.89131164550781 67.11149597167969 79.75458526611328 71.76372528076172 75.75914764404297 75.75917053222656 C 71.76369476318359 79.75462341308594 67.11147308349609 82.89134979248047 61.93169784545898 85.08219909667969 C 56.56977081298828 87.35011291503906 50.87311935424805 88.50003814697266 44.99999618530273 88.50003814697266 Z" stroke="none"/>
                          <path d="M 44.99999618530273 3.000007629394531 C 39.32870864868164 3.000007629394531 33.82865142822266 4.110069274902344 28.65262603759766 6.299354553222656 C 23.65165710449219 8.414581298828125 19.15968322753906 11.44335174560547 15.301513671875 15.30153656005859 C 11.44333648681641 19.15970611572266 8.414566040039062 23.65166473388672 6.299339294433594 28.65265274047852 C 4.110054016113281 33.82867813110352 2.999992370605469 39.3287353515625 2.999992370605469 45.00002288818359 C 2.999992370605469 50.67131042480469 4.110054016113281 56.17135238647461 6.299339294433594 61.34739685058594 C 8.414566040039062 66.34836578369141 11.44333648681641 70.84032440185547 15.301513671875 74.69850921630859 C 19.15968322753906 78.55667877197266 23.65165710449219 81.58544921875 28.65262603759766 83.70068359375 C 33.82865142822266 85.88996887207031 39.32870864868164 87.00002288818359 44.99999618530273 87.00002288818359 C 50.67128372192383 87.00002288818359 56.17134094238281 85.88996887207031 61.34736633300781 83.70068359375 C 66.34834289550781 81.58544921875 70.84030914306641 78.55667877197266 74.69847869873047 74.69850921630859 C 78.55665588378906 70.84032440185547 81.58542633056641 66.34836578369141 83.70065307617188 61.34739685058594 C 85.88993835449219 56.17135238647461 87 50.67131042480469 87 45.00002288818359 C 87 39.3287353515625 85.88993835449219 33.82867813110352 83.70065307617188 28.65265274047852 C 81.58542633056641 23.65166473388672 78.55665588378906 19.15970611572266 74.69847869873047 15.30153656005859 C 70.84030914306641 11.44335174560547 66.34834289550781 8.414581298828125 61.34736633300781 6.299354553222656 C 56.17134094238281 4.110069274902344 50.67128372192383 3.000007629394531 44.99999618530273 3.000007629394531 M 44.99999618530273 7.62939453125e-06 C 69.85281372070312 7.62939453125e-06 90 20.14720916748047 90 45.00002288818359 C 90 69.85282135009766 69.85281372070312 90.00002288818359 44.99999618530273 90.00002288818359 C 20.14717864990234 90.00002288818359 -7.62939453125e-06 69.85282135009766 -7.62939453125e-06 45.00002288818359 C -7.62939453125e-06 20.14720916748047 20.14717864990234 7.62939453125e-06 44.99999618530273 7.62939453125e-06 Z" stroke="none" fill="#6c4dd8"/>
                        </g>
                      </g>
                    </g>
                  </g>
                </g>
              </g>
            </g>
          </g>
        </g>
      </g>
    </g>
    <g id="Layer_1" transform="translate(194.815 6293.681)">
      <g id="Grupo_1236522" data-name="Grupo 1236522" transform="translate(2.17 8.639)">
        <g id="Grupo_1236521" data-name="Grupo 1236521" transform="translate(0.556 0.557)">
          <g id="Grupo_1236508" data-name="Grupo 1236508">
            <g id="Grupo_1236502" data-name="Grupo 1236502" transform="translate(0 7.129)">
              <path id="Trazado_1226020" data-name="Trazado 1226020" d="M59.585,43.163V86.956a1.113,1.113,0,0,1-1.113,1.113H5.78a1.113,1.113,0,0,1-1.113-1.113V43.163Z" transform="translate(-4.667 -43.163)" fill="#72c1e8"/>
            </g>
            <g id="Grupo_1236503" data-name="Grupo 1236503">
              <path id="Trazado_1226021" data-name="Trazado 1226021" d="M59.585,12.254V18.27H4.667V12.254A1.113,1.113,0,0,1,5.78,11.141H58.472A1.113,1.113,0,0,1,59.585,12.254Z" transform="translate(-4.667 -11.141)" fill="#878787"/>
            </g>
            <g id="Grupo_1236504" data-name="Grupo 1236504" transform="translate(2.885 2.199)">
              <circle id="Elipse_12808" data-name="Elipse 12808" cx="1.365" cy="1.365" r="1.365" fill="#fc5d3d"/>
            </g>
            <g id="Grupo_1236505" data-name="Grupo 1236505" transform="translate(8.149 2.199)">
              <circle id="Elipse_12809" data-name="Elipse 12809" cx="1.365" cy="1.365" r="1.365" fill="#f0c020"/>
            </g>
            <g id="Grupo_1236506" data-name="Grupo 1236506" transform="translate(13.414 2.199)">
              <circle id="Elipse_12810" data-name="Elipse 12810" cx="1.365" cy="1.365" r="1.365" fill="#13bf6d"/>
            </g>
            <g id="Grupo_1236507" data-name="Grupo 1236507" transform="translate(2.328 9.62)">
              <path id="Trazado_1226022" data-name="Trazado 1226022" d="M65.487,95.039H20.46a.557.557,0,1,1,0-1.113H64.931V54.907a.557.557,0,0,1,1.113,0V94.483A.556.556,0,0,1,65.487,95.039Zm-47.254,0H15.681a.557.557,0,1,1,0-1.113h2.553a.557.557,0,1,1,0,1.113Z" transform="translate(-15.124 -54.35)" fill="#c5e5fe"/>
            </g>
          </g>
          <g id="Grupo_1236515" data-name="Grupo 1236515" transform="translate(18.219 28.797)">
            <g id="Grupo_1236509" data-name="Grupo 1236509" transform="translate(2.587 6.804)">
              <path id="Trazado_1226023" data-name="Trazado 1226023" d="M98.116,171.046V176.6a6.48,6.48,0,0,0,.1,1.159,6.653,6.653,0,0,0,13.1,0,6.581,6.581,0,0,0,.1-1.159v-5.552Z" transform="translate(-98.116 -171.046)" fill="#ffb69f"/>
            </g>
            <g id="Grupo_1236510" data-name="Grupo 1236510" transform="translate(2.587)">
              <path id="Trazado_1226024" data-name="Trazado 1226024" d="M111.763,141.311l-1.2-.825a2.284,2.284,0,0,1-2.243,1.858h-7.178a3.021,3.021,0,0,0-3.02,3.02v1.925h13.307l.832-.843a3.364,3.364,0,0,0-.493-5.136Z" transform="translate(-98.117 -140.486)" fill="#7c7b7a"/>
            </g>
            <g id="Grupo_1236511" data-name="Grupo 1236511" transform="translate(2.587 6.804)">
              <path id="Trazado_1226025" data-name="Trazado 1226025" d="M98.116,171.045v3.766l2.672-3.767Z" transform="translate(-98.116 -171.045)" fill="#afafaf"/>
            </g>
            <g id="Grupo_1236512" data-name="Grupo 1236512" transform="translate(13.222 6.804)">
              <path id="Trazado_1226026" data-name="Trazado 1226026" d="M145.882,171.045l2.672,3.767v-3.766Z" transform="translate(-145.882 -171.045)" fill="#afafaf"/>
            </g>
            <g id="Grupo_1236513" data-name="Grupo 1236513" transform="translate(0 9.686)">
              <path id="Trazado_1226027" data-name="Trazado 1226027" d="M89.084,186.661a6.481,6.481,0,0,0,.1,1.159h-.774a1.915,1.915,0,1,1,0-3.829h.672Z" transform="translate(-86.497 -183.991)" fill="#ffb69f"/>
            </g>
            <g id="Grupo_1236514" data-name="Grupo 1236514" transform="translate(15.791 9.686)">
              <path id="Trazado_1226028" data-name="Trazado 1226028" d="M160.114,185.908a1.913,1.913,0,0,1-1.915,1.915h-.774a6.582,6.582,0,0,0,.1-1.159v-2.67h.672A1.914,1.914,0,0,1,160.114,185.908Z" transform="translate(-157.425 -183.993)" fill="#ffb69f"/>
            </g>
          </g>
          <g id="Grupo_1236520" data-name="Grupo 1236520" transform="translate(7.046 10.898)">
            <g id="Grupo_1236516" data-name="Grupo 1236516" transform="translate(0 0)">
              <path id="Trazado_1226029" data-name="Trazado 1226029" d="M36.316,61.2V73.56a1.113,1.113,0,0,0,1.113,1.113h17.5l1.795,2.594,1.795-2.595h17.5a1.113,1.113,0,0,0,1.113-1.113V61.2a1.113,1.113,0,0,0-1.113-1.113h-38.6A1.114,1.114,0,0,0,36.316,61.2Z" transform="translate(-36.316 -60.09)" fill="#efefef"/>
            </g>
            <g id="Grupo_1236517" data-name="Grupo 1236517" transform="translate(28.425 3.234)">
              <path id="Trazado_1226030" data-name="Trazado 1226030" d="M171.948,77.224l-2.056-.514-1.1-1.779a.668.668,0,0,0-1.135,0l-1.1,1.779-2.056.514a.668.668,0,0,0-.343,1.085l1.366,1.579-.165,2.122a.668.668,0,0,0,.927.667l1.942-.825,1.942.825a.668.668,0,0,0,.927-.667l-.165-2.122,1.366-1.579A.667.667,0,0,0,171.948,77.224Z" transform="translate(-163.988 -74.614)" fill="#f0c020"/>
            </g>
            <g id="Grupo_1236518" data-name="Grupo 1236518" transform="translate(16.18 3.234)">
              <path id="Trazado_1226031" data-name="Trazado 1226031" d="M116.948,77.224l-2.056-.514-1.1-1.779a.668.668,0,0,0-1.135,0l-1.1,1.779-2.056.514a.668.668,0,0,0-.343,1.085l1.366,1.579-.165,2.122a.668.668,0,0,0,.927.667l1.942-.825,1.942.825a.668.668,0,0,0,.927-.667l-.165-2.122,1.366-1.579A.667.667,0,0,0,116.948,77.224Z" transform="translate(-108.988 -74.614)" fill="#f0c020"/>
            </g>
            <g id="Grupo_1236519" data-name="Grupo 1236519" transform="translate(3.935 3.234)">
              <path id="Trazado_1226032" data-name="Trazado 1226032" d="M61.948,77.224l-2.056-.514-1.1-1.779a.668.668,0,0,0-1.135,0l-1.1,1.779-2.056.514a.668.668,0,0,0-.343,1.085l1.366,1.579-.165,2.122a.668.668,0,0,0,.927.667l1.942-.825,1.942.825a.668.668,0,0,0,.927-.667l-.165-2.122,1.366-1.579A.668.668,0,0,0,61.948,77.224Z" transform="translate(-53.988 -74.614)" fill="#f0c020"/>
            </g>
          </g>
        </g>
        <path id="Trazado_1226033" data-name="Trazado 1226033" d="M2.727,177.551A.555.555,0,1,0,2.17,177,.558.558,0,0,0,2.727,177.551Z" transform="translate(-2.17 -139.081)"/>
        <path id="Trazado_1226034" data-name="Trazado 1226034" d="M2.17,60.118a1.672,1.672,0,0,0,1.67,1.67H56.53a1.672,1.672,0,0,0,1.67-1.67V10.309a1.672,1.672,0,0,0-1.67-1.67H36.149a.557.557,0,0,0,0,1.113H56.53a.558.558,0,0,1,.557.557v5.459H3.283V10.309a.558.558,0,0,1,.557-.557H31.7a.557.557,0,0,0,0-1.113H3.84a1.672,1.672,0,0,0-1.67,1.67V44.326a.557.557,0,1,0,1.113,0V16.881h53.8V60.118a.558.558,0,0,1-.557.557H3.84a.558.558,0,0,1-.557-.557V48.779a.557.557,0,0,0-1.113,0Z" transform="translate(-2.17 -8.639)"/>
        <circle id="Elipse_12811" data-name="Elipse 12811" cx="0.557" cy="0.557" r="0.557" transform="translate(31.196 0)"/>
        <path id="Trazado_1226035" data-name="Trazado 1226035" d="M15.12,20.44a1.923,1.923,0,1,0,1.924-1.921A1.927,1.927,0,0,0,15.12,20.44Zm2.732,0a.809.809,0,1,1-.808-.808A.813.813,0,0,1,17.852,20.44Z" transform="translate(-12.237 -16.319)"/>
        <path id="Trazado_1226036" data-name="Trazado 1226036" d="M38.77,20.44a1.921,1.921,0,1,0,1.921-1.921A1.923,1.923,0,0,0,38.77,20.44Zm2.732,0a.809.809,0,1,1-.81-.808A.813.813,0,0,1,41.5,20.44Z" transform="translate(-30.621 -16.319)"/>
        <path id="Trazado_1226037" data-name="Trazado 1226037" d="M62.42,20.44a1.921,1.921,0,1,0,1.921-1.921A1.923,1.923,0,0,0,62.42,20.44Zm2.73,0a.808.808,0,1,1-.808-.808A.81.81,0,0,1,65.15,20.44Z" transform="translate(-49.006 -16.319)"/>
        <path id="Trazado_1226038" data-name="Trazado 1226038" d="M94.079,25.209a.557.557,0,0,0,.557.557H125.9a.557.557,0,1,0,0-1.113H94.636A.557.557,0,0,0,94.079,25.209Z" transform="translate(-73.616 -21.087)"/>
        <path id="Trazado_1226039" data-name="Trazado 1226039" d="M101.674,144.894a3.921,3.921,0,0,0-.574-5.987l-1.2-.824a.557.557,0,0,0-.861.356,1.728,1.728,0,0,1-1.7,1.405H90.16a3.581,3.581,0,0,0-3.577,3.577v4.251h-.116a2.471,2.471,0,0,0,0,4.943h.325a7.2,7.2,0,0,0,7,5.495h0a7.194,7.194,0,0,0,7-5.495h.324a2.471,2.471,0,0,0,0-4.943H101v-2.1ZM99.89,145.9v1.463L98.852,145.9Zm-9.73-4.946h7.178a2.843,2.843,0,0,0,2.527-1.545l.607.415a2.807,2.807,0,0,1,.411,4.285l-.669.678H87.7v-1.369a2.466,2.466,0,0,1,2.464-2.464ZM87.7,145.9h1.038L87.7,147.366Zm-1.229,5.6a1.358,1.358,0,1,1,0-2.716h.116V150.9c0,.2.011.43.025.6h-.141ZM93.79,157h0a6.094,6.094,0,0,1-6.092-6.1V149.29l2.4-3.387h7.388l2.4,3.387V150.9A6.089,6.089,0,0,1,93.79,157Zm7.329-8.211a1.358,1.358,0,1,1,0,2.716h-.141c.014-.165.025-.405.025-.6v-2.114h.116Z" transform="translate(-65.778 -109.187)"/>
        <path id="Trazado_1226040" data-name="Trazado 1226040" d="M121.425,203.124a.566.566,0,0,0-.715.327,1.515,1.515,0,0,1-2.834,0,.566.566,0,0,0-.715-.327.557.557,0,0,0-.329.712s0,0,0,0a2.626,2.626,0,0,0,4.918,0A.559.559,0,0,0,121.425,203.124Z" transform="translate(-91.278 -159.797)"/>
        <path id="Trazado_1226041" data-name="Trazado 1226041" d="M112.15,183.829a.557.557,0,0,0-.557.557v.392a.557.557,0,0,0,1.113,0v-.392A.557.557,0,0,0,112.15,183.829Z" transform="translate(-87.231 -144.825)"/>
        <path id="Trazado_1226042" data-name="Trazado 1226042" d="M139.964,183.829a.557.557,0,0,0-.557.557v.392a.557.557,0,0,0,1.113,0v-.392A.557.557,0,0,0,139.964,183.829Z" transform="translate(-108.852 -144.825)"/>
        <path id="Trazado_1226043" data-name="Trazado 1226043" d="M126.057,188.49a.557.557,0,0,0,.557-.557v-1.787a.557.557,0,0,0-1.113,0v1.787A.557.557,0,0,0,126.057,188.49Z" transform="translate(-98.042 -146.193)"/>
        <path id="Trazado_1226044" data-name="Trazado 1226044" d="M170.137,74.737l-1.837-.461-.984-1.587v0a1.224,1.224,0,0,0-2.079,0l-.984,1.587-1.839.461a1.224,1.224,0,0,0-.628,1.988l1.213,1.4-.147,1.884a1.228,1.228,0,0,0,1.7,1.231l1.723-.732,1.723.732a1.229,1.229,0,0,0,1.7-1.222l-.149-1.892,1.216-1.4A1.223,1.223,0,0,0,170.137,74.737ZM169.923,76l-1.365,1.576a.555.555,0,0,0-.134.407c0,.013.165,2.119.165,2.133a.112.112,0,0,1-.156.1l-1.939-.824a.57.57,0,0,0-.436,0l-1.941.824a.11.11,0,0,1-.156-.1v0l.167-2.13a.555.555,0,0,0-.134-.407L162.627,76a.111.111,0,0,1,.058-.18l2.055-.514a.547.547,0,0,0,.338-.247l1.1-1.779a.11.11,0,0,1,.189,0l1.1,1.779a.561.561,0,0,0,.338.247l2.055.514A.111.111,0,0,1,169.923,76Z" transform="translate(-126.016 -57.978)"/>
        <path id="Trazado_1226045" data-name="Trazado 1226045" d="M116.068,75.925a1.218,1.218,0,0,0-.928-1.189l-1.837-.461-.984-1.587v0a1.225,1.225,0,0,0-1.031-.577h-.018a1.222,1.222,0,0,0-1.031.579l-.984,1.587-1.837.461a1.218,1.218,0,0,0-.928,1.189,1.2,1.2,0,0,0,.3.8l1.213,1.4-.145,1.884a.824.824,0,0,0,0,.1,1.231,1.231,0,0,0,1.222,1.225h0a1.266,1.266,0,0,0,.476-.1l1.723-.732,1.723.732a1.278,1.278,0,0,0,.481.1,1.23,1.23,0,0,0,1.222-1.222c0-.029,0-.062,0-.1l-.149-1.892,1.216-1.4a1.208,1.208,0,0,0,.3-.8ZM114.926,76l-1.365,1.576a.555.555,0,0,0-.134.407l.165,2.122v.011a.116.116,0,0,1-.109.109.106.106,0,0,1-.045-.009l-1.941-.824a.57.57,0,0,0-.436,0l-1.941.824a.112.112,0,0,1-.156-.1l.167-2.133a.555.555,0,0,0-.134-.407L107.63,76a.094.094,0,0,1-.027-.069.108.108,0,0,1,.085-.111l2.055-.514a.562.562,0,0,0,.338-.247l1.1-1.779a.109.109,0,0,1,.187,0,0,0,0,0,1,0,0l1.1,1.777a.547.547,0,0,0,.338.247l2.055.514a.11.11,0,0,1,.085.109A.119.119,0,0,1,114.926,76Z" transform="translate(-83.264 -57.978)"/>
        <path id="Trazado_1226046" data-name="Trazado 1226046" d="M61.068,75.926a1.218,1.218,0,0,0-.928-1.189L58.3,74.276l-.982-1.585a1.223,1.223,0,0,0-1.033-.581H56.27a1.229,1.229,0,0,0-1.033.579l-.984,1.587-1.835.461a1.218,1.218,0,0,0-.928,1.189,1.2,1.2,0,0,0,.3.8L53,78.128l-.145,1.884a.8.8,0,0,0-.007.1,1.234,1.234,0,0,0,1.225,1.225h0a1.246,1.246,0,0,0,.474-.1l1.725-.732L58,81.243a1.258,1.258,0,0,0,.479.1,1.229,1.229,0,0,0,1.222-1.222c0-.031,0-.064,0-.1l-.147-1.892,1.213-1.4A1.221,1.221,0,0,0,61.068,75.926ZM59.926,76l-1.365,1.576a.555.555,0,0,0-.134.407l.165,2.124v.009a.116.116,0,0,1-.109.109.124.124,0,0,1-.047-.009L56.5,79.392a.57.57,0,0,0-.436,0l-1.941.824a.112.112,0,0,1-.156-.1l.167-2.135A.555.555,0,0,0,54,77.576L52.63,76a.094.094,0,0,1-.027-.069.111.111,0,0,1,.085-.111l2.055-.514a.562.562,0,0,0,.338-.247l1.1-1.779a.107.107,0,0,1,.1-.053.1.1,0,0,1,.094.053,0,0,0,0,1,0,0l1.1,1.777a.561.561,0,0,0,.338.247l2.055.514a.11.11,0,0,1,.085.109A.1.1,0,0,1,59.926,76Z" transform="translate(-40.509 -57.979)"/>
        <circle id="Elipse_12812" data-name="Elipse 12812" cx="0.557" cy="0.557" r="0.557" transform="translate(44.766 25.481)"/>
        <path id="Trazado_1226047" data-name="Trazado 1226047" d="M74.2,72.162a.555.555,0,0,0-.427.659.563.563,0,0,0,.661.427,1.675,1.675,0,0,0,1.318-1.632V59.26a1.671,1.671,0,0,0-1.668-1.67H35.49a1.672,1.672,0,0,0-1.67,1.67V71.616a1.672,1.672,0,0,0,1.67,1.67H52.7l1.628,2.356a.561.561,0,0,0,.917,0l1.628-2.356h13a.557.557,0,0,0,0-1.113H56.583a.55.55,0,0,0-.456.24l-1.338,1.933L53.45,72.413a.55.55,0,0,0-.456-.24H35.49a.557.557,0,0,1-.557-.557V59.26a.557.557,0,0,1,.557-.557h38.6a.556.556,0,0,1,.554.557V71.616a.557.557,0,0,1-.439.545Z" transform="translate(-26.773 -46.692)"/>
      </g>
    </g>
  </g>
</svg>
