<svg xmlns="http://www.w3.org/2000/svg" xmlns:xlink="http://www.w3.org/1999/xlink" width="190" height="210" viewBox="0 0 190 210">
  <defs>
    <clipPath id="clip-path">
      <rect id="Rectángulo_423991" data-name="Rectángulo 423991" width="190" height="210" transform="translate(180 5729)" fill="#fff" stroke="#707070" stroke-width="1"/>
    </clipPath>
  </defs>
  <g id="Enmascarar_grupo_1208507" data-name="Enmascarar grupo 1208507" transform="translate(-180 -5729)" clip-path="url(#clip-path)">
    <g id="Grupo_1236807" data-name="Grupo 1236807" transform="translate(-2207.068 5501.859)">
      <g id="Grupo_1236743" data-name="Grupo 1236743" transform="translate(2505.692 362.837)">
        <path id="Trazado_1226857" data-name="Trazado 1226857" d="M2994.98,1040.175H2979.8l-15.81-64.7a7.37,7.37,0,1,1,14.32-3.5Z" transform="translate(-2963.783 -966.356)" fill="#f9c4b8"/>
      </g>
      <path id="Trazado_1226858" data-name="Trazado 1226858" d="M2568.87,1007.463c-6.908-9.3-2.951-22.715-2.951-22.715l9.122,8.786Z" transform="translate(-131.73 -618.563)" fill="#fcd105"/>
      <path id="Trazado_1226859" data-name="Trazado 1226859" d="M2714.819,995.57l-62.779-.135,2.683-74.316,34.744-8.585,30.182,7.914Z" transform="translate(-203.096 -559.495)" fill="#fc9705"/>
      <path id="Trazado_1226860" data-name="Trazado 1226860" d="M2698.47,494.809a38.9,38.9,0,0,1,16.1-13.683c9.86-4.427,18.713-6.64,29.981,1.207s10.542,6.289,14.89,8.652c9.256,5.03,6.64,8.854,9.256,17.506s8.854,4.628,10.262,11.268,1.61,17.707,1.61,17.707-10.463,7.445-18.11,9.86c-6.188,1.954-23.945,6.439-23.945,6.439Z" transform="translate(-241.074 -203.342)" fill="#433fab"/>
      <path id="Trazado_1226861" data-name="Trazado 1226861" d="M2578.529,567.663c-9.658,3.018-10.865,6.037-12.677,13.079s-6.036,7.042-8.853,11.067,2.415,10.463.8,14.488-3.018,2.012-7.244,7.847,4.225,24.951,4.225,24.951,16.7-2.012,29.78-5.03c10.458-2.413,31.389-9.457,31.389-9.457l-17.908-56.542Z" transform="translate(-119.121 -277.403)" fill="#433fab"/>
      <g id="Grupo_1236744" data-name="Grupo 1236744" transform="translate(2477.79 339.026)">
        <path id="Trazado_1226862" data-name="Trazado 1226862" d="M2817.877,862.778a7.376,7.376,0,0,1-7.082-9.427l3.622-12.475a7.37,7.37,0,0,1,14.156,4.11l-3.622,12.476A7.372,7.372,0,0,1,2817.877,862.778Z" transform="translate(-2810.501 -835.557)" fill="#efb4ad"/>
      </g>
      <g id="Grupo_1236745" data-name="Grupo 1236745" transform="translate(2412.611 435.694)">
        <path id="Trazado_1226863" data-name="Trazado 1226863" d="M2593.417,1368.51h-140a.961.961,0,0,1,0-1.923h140a.961.961,0,1,1,0,1.923Z" transform="translate(-2452.453 -1366.588)" fill="#0d0845"/>
      </g>
      <circle id="Elipse_12835" data-name="Elipse 12835" cx="30.585" cy="30.585" r="30.585" transform="translate(2451.563 319.841) rotate(-45)" fill="#efb4ad"/>
      <ellipse id="Elipse_12836" data-name="Elipse 12836" cx="7.646" cy="8.183" rx="7.646" ry="8.183" transform="translate(2455.065 335.637) rotate(-48.953)" fill="#efb4ad"/>
      <ellipse id="Elipse_12837" data-name="Elipse 12837" cx="2.853" cy="4.713" rx="2.853" ry="4.713" transform="translate(2501.657 307.819) rotate(-21.945)" fill="#2c2c2d"/>
      <ellipse id="Elipse_12838" data-name="Elipse 12838" cx="2.777" cy="4.587" rx="2.777" ry="4.587" transform="translate(2486.214 316.222) rotate(-21.945)" fill="#2c2c2d"/>
      <g id="Grupo_1236746" data-name="Grupo 1236746" transform="translate(2498.336 316.11)">
        <path id="Trazado_1226864" data-name="Trazado 1226864" d="M2928.979,720.345a.237.237,0,0,1-.136-.042.24.24,0,0,1-.062-.334c.806-1.172,2.851-4.485,2.644-5.727-.073-.435-.511-.523-1.5-.68a9.75,9.75,0,0,1-6.5-3.493.24.24,0,1,1,.361-.318,9.321,9.321,0,0,0,6.211,3.337c.984.157,1.762.281,1.894,1.075.281,1.686-2.6,5.9-2.722,6.078A.24.24,0,0,1,2928.979,720.345Z" transform="translate(-2923.373 -709.669)" fill="#2c2c2d"/>
      </g>
      <g id="Grupo_1236747" data-name="Grupo 1236747" transform="translate(2494.473 310.094)">
        <path id="Trazado_1226865" data-name="Trazado 1226865" d="M2902.847,680.323l-.7-.395c2.129-3.761,4.8-3.3,4.917-3.282l-.149.787C2906.83,677.419,2904.677,677.089,2902.847,680.323Z" transform="translate(-2902.15 -676.618)" fill="#36334c"/>
      </g>
      <g id="Grupo_1236748" data-name="Grupo 1236748" transform="translate(2464.239 325.474)">
        <path id="Trazado_1226866" data-name="Trazado 1226866" d="M2736.462,763.522a.4.4,0,0,1-.049-.8l12.878-1.61a.4.4,0,0,1,.1.795l-12.878,1.61A.4.4,0,0,1,2736.462,763.522Z" transform="translate(-2736.062 -761.111)" fill="#36334c"/>
      </g>
      <g id="Grupo_1236749" data-name="Grupo 1236749" transform="translate(2460.576 332.689)">
        <path id="Trazado_1226867" data-name="Trazado 1226867" d="M2724.969,806.781a.241.241,0,0,1-.209-.121c-.029-.051-2.967-5.112-5.935-5.419a2.841,2.841,0,0,0-2.464,1.1.24.24,0,1,1-.358-.32,3.292,3.292,0,0,1,2.873-1.258c3.212.333,6.177,5.441,6.3,5.658a.24.24,0,0,1-.208.36Z" transform="translate(-2715.942 -800.745)" fill="#36334c"/>
      </g>
      <g id="Grupo_1236750" data-name="Grupo 1236750" transform="translate(2463.124 334.354)">
        <path id="Trazado_1226868" data-name="Trazado 1226868" d="M2730.18,811.913a.24.24,0,0,1-.183-.4,5.2,5.2,0,0,1,3.108-1.626.24.24,0,0,1,.053.478,4.794,4.794,0,0,0-2.795,1.46A.243.243,0,0,1,2730.18,811.913Z" transform="translate(-2729.94 -809.889)" fill="#36334c"/>
      </g>
      <g id="Grupo_1236751" data-name="Grupo 1236751" transform="translate(2500.215 331.268)">
        <path id="Trazado_1226869" data-name="Trazado 1226869" d="M2936.542,794.453a5.716,5.716,0,0,1-2.721-.658.24.24,0,1,1,.226-.424c2.861,1.526,6.171-.378,6.2-.4a.24.24,0,0,1,.243.414A8.581,8.581,0,0,1,2936.542,794.453Z" transform="translate(-2933.694 -792.94)" fill="#2c2c2d"/>
      </g>
      <g id="Grupo_1236752" data-name="Grupo 1236752" transform="translate(2501.557 334.689)">
        <path id="Trazado_1226870" data-name="Trazado 1226870" d="M2942.934,812.659a3.344,3.344,0,0,1-1.756-.481.24.24,0,0,1,.251-.41,3.047,3.047,0,0,0,2.284.311.24.24,0,0,1,.144.459A3.335,3.335,0,0,1,2942.934,812.659Z" transform="translate(-2941.063 -811.732)" fill="#2c2c2d"/>
      </g>
      <path id="Trazado_1226871" data-name="Trazado 1226871" d="M2730.386,719.513c.853,4.287.363,8.144-1.947,8.823s-4.911-2.258-6.417-6.361c-2.324-6.329-.363-8.144,1.947-8.823S2727.88,706.927,2730.386,719.513Z" transform="translate(-259.486 -394.937)" fill="#433fab"/>
      <path id="Trazado_1226872" data-name="Trazado 1226872" d="M2748.176,552.393a46.824,46.824,0,0,1,10.748,1.965c3.684-2.22,6.155-3.575,6.155-3.575s-6.89-3.807-19.451-3.756c-3.26.013-8.334,2.032-11.218,3.554-4.249,2.243-10.224,6.248-13.6,12.275a26.068,26.068,0,0,0-2.549,19.451,255.926,255.926,0,0,0,26.292-16.634,68.1,68.1,0,0,0,9.814-8.5Z" transform="translate(-256.574 -260.524)" fill="#433fab"/>
      <g id="Grupo_1236753" data-name="Grupo 1236753" transform="translate(2490.914 291.495)">
        <path id="Trazado_1226873" data-name="Trazado 1226873" d="M2891.689,578.059a.238.238,0,0,1-.119-.032c-.024-.014-2.475-1.394-8.8-3.107a.24.24,0,0,1,.126-.464c6.4,1.732,8.811,3.1,8.91,3.154a.24.24,0,0,1-.12.449Z" transform="translate(-2882.596 -574.449)" fill="#433fab"/>
      </g>
      <g id="Grupo_1236754" data-name="Grupo 1236754" transform="translate(2427.261 290.332)">
        <path id="Trazado_1226874" data-name="Trazado 1226874" d="M2540.988,638.569c-.308-.586-7.539-14.4-7.986-18.688-.425-4.08,1.113-5.57,4.482-8.836q.413-.4.865-.841c.6-.582,1.123-1.073,1.587-1.506,2.57-2.394,3.1-2.892,2.369-6.863a28.888,28.888,0,0,0-1.048-3.854c-.8-2.459-1.438-4.4.094-6.955,1.268-2.114,3.506-3.881,5.48-5.44a19.359,19.359,0,0,0,3.385-3.074,4.845,4.845,0,0,0,.687-3.3,8.234,8.234,0,0,1,1.09-5c2.906-4.845,6.565-6.7,11.863-6.017l-.062.477c-5.151-.665-8.556,1.066-11.389,5.788a7.832,7.832,0,0,0-1.021,4.739,5.282,5.282,0,0,1-.78,3.6,19.589,19.589,0,0,1-3.475,3.168c-1.942,1.533-4.143,3.271-5.366,5.31-1.42,2.366-.845,4.125-.05,6.559a29.287,29.287,0,0,1,1.064,3.916c.783,4.23.085,4.881-2.514,7.3-.463.431-.987.92-1.579,1.5q-.453.442-.867.842c-3.352,3.248-4.74,4.593-4.339,8.441.438,4.2,7.858,18.372,7.933,18.514Z" transform="translate(-2532.933 -568.059)" fill="#433fab"/>
      </g>
      <g id="Grupo_1236755" data-name="Grupo 1236755" transform="translate(2526.61 303.615)">
        <path id="Trazado_1226875" data-name="Trazado 1226875" d="M3091.456,671.413l-.48-.013c0-.051.139-5.208.537-12.572.4-7.445-.686-8.846-3.458-10.466a14.992,14.992,0,0,0-2.763-1.22c-2.064-.735-3.847-1.369-6.6-5.86l.41-.251c2.664,4.346,4.291,4.925,6.351,5.658a15.4,15.4,0,0,1,2.844,1.258c3.117,1.822,4.088,3.654,3.7,10.907C3091.594,666.21,3091.456,671.361,3091.456,671.413Z" transform="translate(-3078.691 -641.031)" fill="#433fab"/>
      </g>
      <ellipse id="Elipse_12839" data-name="Elipse 12839" cx="4.494" cy="4.189" rx="4.494" ry="4.189" transform="translate(2486.504 327.051)" fill="#f26375"/>
      <ellipse id="Elipse_12840" data-name="Elipse 12840" cx="3.957" cy="3.689" rx="3.957" ry="3.689" transform="translate(2508.101 314.942)" fill="#f26375"/>
      <g id="Grupo_1236756" data-name="Grupo 1236756" transform="translate(2498.512 297.304)">
        <path id="Trazado_1226876" data-name="Trazado 1226876" d="M2934.6,626.88a10.26,10.26,0,1,1,10.26-10.26A10.272,10.272,0,0,1,2934.6,626.88Zm0-19.719a9.459,9.459,0,1,0,9.459,9.459A9.47,9.47,0,0,0,2934.6,607.161Z" transform="translate(-2924.338 -606.36)" fill="#36334c"/>
      </g>
      <g id="Grupo_1236757" data-name="Grupo 1236757" transform="translate(2475.707 309.578)">
        <path id="Trazado_1226877" data-name="Trazado 1226877" d="M2809.925,695.515a10.864,10.864,0,1,1,10.864-10.864A10.876,10.876,0,0,1,2809.925,695.515Zm0-20.927a10.063,10.063,0,1,0,10.063,10.063A10.074,10.074,0,0,0,2809.925,674.588Z" transform="translate(-2799.061 -673.787)" fill="#36334c"/>
      </g>
      <g id="Grupo_1236758" data-name="Grupo 1236758" transform="translate(2480.696 347.098)">
        <path id="Trazado_1226878" data-name="Trazado 1226878" d="M2840.323,883.5c-2.185,0-9.135-.243-13.744-3.166a.24.24,0,1,1,.257-.406c5.372,3.406,14.061,3.085,14.148,3.082a.24.24,0,0,1,.02.48C2840.991,883.495,2840.748,883.5,2840.323,883.5Z" transform="translate(-2826.468 -879.894)" fill="#2c2c2d"/>
      </g>
      <g id="Grupo_1236759" data-name="Grupo 1236759" transform="translate(2403.744 323.4)">
        <path id="Trazado_1226879" data-name="Trazado 1226879" d="M2411.116,816.235a7.371,7.371,0,0,1-5.909-11.778l38.634-51.78a7.371,7.371,0,0,1,11.815,8.815l-24.535,32.883,16.819-5.645a7.37,7.37,0,1,1,4.69,13.975l-39.17,13.146A7.331,7.331,0,0,1,2411.116,816.235Z" transform="translate(-2403.744 -749.713)" fill="#f9c4b8"/>
      </g>
      <g id="Grupo_1236761" data-name="Grupo 1236761" transform="translate(2458.222 293.974)">
        <g id="Grupo_1236760" data-name="Grupo 1236760" transform="translate(0 5.276)">
          <rect id="Rectángulo_423978" data-name="Rectángulo 423978" width="40.878" height="3.205" transform="translate(0 40.551) rotate(-82.727)" fill="#0d0845"/>
        </g>
        <path id="Trazado_1226880" data-name="Trazado 1226880" d="M2733.024,594.143l-1.368-.211a.97.97,0,0,1-.808-1.1l.608-3.943a.969.969,0,0,1,1.1-.808l1.367.211a.969.969,0,0,1,.808,1.1l-.607,3.943A.969.969,0,0,1,2733.024,594.143Z" transform="translate(-2725.772 -588.067)" fill="#fdfcfb"/>
        <rect id="Rectángulo_423979" data-name="Rectángulo 423979" width="3.625" height="4.494" transform="matrix(0.994, 0.108, -0.108, 0.994, 4.952, 4.722)" fill="#e8edfd"/>
      </g>
      <path id="Trazado_1226881" data-name="Trazado 1226881" d="M2643.558,698.38c0,6.223-9.069,10.2-15.292,10.2s-13.28-2.415-10.061-11.939c3.043-9,6.521-11.8,12.744-11.8S2643.558,692.157,2643.558,698.38Z" transform="translate(-174.762 -373.243)" fill="#f9c4b8"/>
      <g id="Grupo_1236762" data-name="Grupo 1236762" transform="translate(2448.126 309.027)">
        <path id="Trazado_1226882" data-name="Trazado 1226882" d="M2650.516,680.442a2.965,2.965,0,0,1-1.563-5.485c6.239-3.862,15.824-4.187,16.229-4.2a2.964,2.964,0,0,1,.174,5.926c-.081,0-8.408.3-13.283,3.313A2.951,2.951,0,0,1,2650.516,680.442Z" transform="translate(-2647.548 -670.757)" fill="#f9c4b8"/>
      </g>
      <g id="Grupo_1236763" data-name="Grupo 1236763" transform="translate(2453.223 313.319)">
        <path id="Trazado_1226883" data-name="Trazado 1226883" d="M2678.512,702.41a2.965,2.965,0,0,1-.564-5.874l11-2.146a2.964,2.964,0,1,1,1.135,5.819l-11,2.146A2.973,2.973,0,0,1,2678.512,702.41Z" transform="translate(-2675.551 -694.334)" fill="#f9c4b8"/>
      </g>
      <g id="Grupo_1236764" data-name="Grupo 1236764" transform="translate(2456.04 319.087)">
        <path id="Trazado_1226884" data-name="Trazado 1226884" d="M2693.985,734.232a2.965,2.965,0,0,1-.771-5.827l8.451-2.28a2.964,2.964,0,1,1,1.545,5.724l-8.451,2.28A2.975,2.975,0,0,1,2693.985,734.232Z" transform="translate(-2691.022 -726.022)" fill="#f9c4b8"/>
      </g>
      <g id="Grupo_1236765" data-name="Grupo 1236765" transform="translate(2458.186 324.05)">
        <path id="Trazado_1226885" data-name="Trazado 1226885" d="M2705.777,760.827a2.965,2.965,0,0,1-.746-5.833l6.171-1.61a2.964,2.964,0,1,1,1.5,5.736l-6.171,1.61A2.967,2.967,0,0,1,2705.777,760.827Z" transform="translate(-2702.814 -753.287)" fill="#f9c4b8"/>
      </g>
      <g id="Grupo_1236766" data-name="Grupo 1236766" transform="translate(2447.187 301.648)">
        <path id="Trazado_1226886" data-name="Trazado 1226886" d="M2645.359,648.36a2.964,2.964,0,0,1-1.746-5.362,27.85,27.85,0,0,0,8.119-10.927,2.964,2.964,0,0,1,5.492,2.234,33.415,33.415,0,0,1-10.124,13.488A2.954,2.954,0,0,1,2645.359,648.36Z" transform="translate(-2642.392 -630.224)" fill="#f9c4b8"/>
      </g>
      <g id="Grupo_1236767" data-name="Grupo 1236767" transform="translate(2427.106 366.616)">
        <path id="Trazado_1226887" data-name="Trazado 1226887" d="M2532.321,994.438a.237.237,0,0,1-.133-.04.24.24,0,0,1-.067-.333l4.561-6.841a.24.24,0,0,1,.4.267l-4.561,6.841A.239.239,0,0,1,2532.321,994.438Z" transform="translate(-2532.081 -987.116)" fill="#36334c"/>
      </g>
      <path id="Trazado_1226888" data-name="Trazado 1226888" d="M2573.938,976.921c1.4-8.247-.021-15.465-2.951-22.715,0,0,1.7-.614,6.542-1.979l.465-.13c1.739-.487,3.855-1.064,6.408-1.737l.859-.2.468-.107,11.461-2.645,11.359,19.943Z" transform="translate(-136.798 -588.021)" fill="#fc9705"/>
      <path id="Trazado_1226889" data-name="Trazado 1226889" d="M3014.408,982.1l-14.555,7.981,4.292-34.072c2.155,2.309,5.214,10.551,7.432,17.162.051.152.1.3.152.455.668,2.006,1.253,3.842,1.7,5.287.05.157.1.311.144.458C3014.1,981.053,3014.408,982.1,3014.408,982.1Z" transform="translate(-487.594 -595.057)" fill="#fc9705"/>
      <g id="Grupo_1236768" data-name="Grupo 1236768" transform="translate(2513.094 380.568)">
        <path id="Trazado_1226890" data-name="Trazado 1226890" d="M3004.68,1093.616h-.012a.24.24,0,0,1-.228-.252l1.408-29.378a.24.24,0,0,1,.48.023l-1.408,29.378A.242.242,0,0,1,3004.68,1093.616Z" transform="translate(-3004.44 -1063.758)" fill="#2c2c2d"/>
      </g>
      <g id="Grupo_1236769" data-name="Grupo 1236769" transform="translate(2436.898 383.92)">
        <path id="Trazado_1226891" data-name="Trazado 1226891" d="M2586.11,1087.394a.24.24,0,0,1-.062-.472l17.707-4.74a.24.24,0,1,1,.124.464l-17.707,4.74A.2.2,0,0,1,2586.11,1087.394Z" transform="translate(-2585.87 -1082.174)" fill="#2c2c2d"/>
      </g>
      <g id="Grupo_1236770" data-name="Grupo 1236770" transform="translate(2453.667 308.865)">
        <path id="Trazado_1226892" data-name="Trazado 1226892" d="M2678.229,672.7a.24.24,0,0,1-.086-.465,47.089,47.089,0,0,1,7.02-2.024c3.057-.532,3.919-.289,4.007-.259a.24.24,0,0,1-.152.456,10.706,10.706,0,0,0-3.773.277,46.555,46.555,0,0,0-6.931,2A.249.249,0,0,1,2678.229,672.7Z" transform="translate(-2677.989 -669.87)" fill="#36334c"/>
      </g>
      <g id="Grupo_1236771" data-name="Grupo 1236771" transform="translate(2430.732 420.301)">
        <path id="Trazado_1226893" data-name="Trazado 1226893" d="M2597.809,1292.506a1.039,1.039,0,0,1-.741-.309c-2.042-2.067-8.045-7.523-11.25-7.939-5.765-.748-9.489,1.546-13.089,3.764a24,24,0,0,1-6.829,3.279c-.267.065-.535.137-.8.209-3.148.839-7.066,1.883-12.843-4.758a1.041,1.041,0,1,1,1.572-1.367c4.925,5.66,7.747,4.909,10.735,4.113.283-.076.565-.15.844-.219a22.455,22.455,0,0,0,6.234-3.03c3.727-2.3,7.952-4.9,14.449-4.057,4.491.582,11.661,7.728,12.464,8.541a1.042,1.042,0,0,1-.741,1.773Z" transform="translate(-2551.996 -1282.03)" fill="#e8edfd"/>
      </g>
      <rect id="Rectángulo_423980" data-name="Rectángulo 423980" width="48.158" height="2.415" transform="translate(2427.414 433.261)" fill="#fb7682"/>
      <rect id="Rectángulo_423981" data-name="Rectángulo 423981" width="50.27" height="4.158" transform="translate(2428.084 429.101)" fill="#e8edfd"/>
      <g id="Grupo_1236772" data-name="Grupo 1236772" transform="translate(2428.515 430.603)">
        <path id="Trazado_1226894" data-name="Trazado 1226894" d="M2558.638,1339.1h-18.579a.24.24,0,0,1,0-.481h18.579a.24.24,0,0,1,0,.481Z" transform="translate(-2539.819 -1338.62)" fill="#93a5f4"/>
      </g>
      <g id="Grupo_1236773" data-name="Grupo 1236773" transform="translate(2435.357 432.077)">
        <path id="Trazado_1226895" data-name="Trazado 1226895" d="M2595.483,1347.2h-17.841a.24.24,0,1,1,0-.481h17.841a.24.24,0,0,1,0,.481Z" transform="translate(-2577.402 -1346.72)" fill="#93a5f4"/>
      </g>
      <g id="Grupo_1236774" data-name="Grupo 1236774" transform="translate(2478.79 420.301)">
        <path id="Trazado_1226896" data-name="Trazado 1226896" d="M2817.04,1292.437a1.042,1.042,0,0,1-.741-1.773c.8-.806,7.906-7.892,12.4-8.474,6.5-.843,10.722,1.76,14.449,4.057a22.483,22.483,0,0,0,6.234,3.03c.279.069.561.143.844.219,2.988.8,5.81,1.548,10.735-4.113a1.041,1.041,0,1,1,1.571,1.367c-5.777,6.64-9.7,5.6-12.843,4.758-.271-.072-.539-.144-.8-.209a24,24,0,0,1-6.829-3.279c-3.6-2.218-7.323-4.512-13.089-3.764-3.208.416-9.16,5.823-11.182,7.872A1.043,1.043,0,0,1,2817.04,1292.437Z" transform="translate(-2815.999 -1282.028)" fill="#e8edfd"/>
      </g>
      <rect id="Rectángulo_423982" data-name="Rectángulo 423982" width="47.99" height="2.415" transform="translate(2528.894 435.674) rotate(180)" fill="#fb7682"/>
      <rect id="Rectángulo_423983" data-name="Rectángulo 423983" width="49.946" height="4.158" transform="translate(2528.223 433.261) rotate(180)" fill="#e8edfd"/>
      <g id="Grupo_1236775" data-name="Grupo 1236775" transform="translate(2508.733 430.603)">
        <path id="Trazado_1226897" data-name="Trazado 1226897" d="M2999.307,1339.1h-18.579a.24.24,0,1,1,0-.481h18.579a.24.24,0,0,1,0,.481Z" transform="translate(-2980.488 -1338.62)" fill="#93a5f4"/>
      </g>
      <g id="Grupo_1236776" data-name="Grupo 1236776" transform="translate(2502.629 432.077)">
        <path id="Trazado_1226898" data-name="Trazado 1226898" d="M2965.033,1347.2h-17.841a.24.24,0,0,1,0-.481h17.841a.24.24,0,0,1,0,.481Z" transform="translate(-2946.952 -1346.72)" fill="#93a5f4"/>
      </g>
      <path id="Trazado_1226899" data-name="Trazado 1226899" d="M2798.32,1355.631c2.817-4.7,5.332,0,5.332,0v-2.415h-5.332Z" transform="translate(-322.748 -919.956)" fill="#fb7682"/>
      <rect id="Rectángulo_423984" data-name="Rectángulo 423984" width="6.104" height="0.738" transform="translate(2475.203 434.954)" fill="#fb7682"/>
      <path id="Trazado_1226900" data-name="Trazado 1226900" d="M2866.05,1306.919h-.255a3.742,3.742,0,0,0-3.744,3.743v3.379a3.744,3.744,0,0,0,3.744,3.743h50.786v-10.865H2866.05Z" transform="translate(-374.878 -882.087)" fill="#433fab"/>
      <g id="Grupo_1236777" data-name="Grupo 1236777" transform="translate(2540.011 424.84)">
        <path id="Trazado_1226901" data-name="Trazado 1226901" d="M3153.03,1308.418a.721.721,0,0,1,0-1.442l10.229-.016a.721.721,0,1,1,0,1.442l-10.228.016Z" transform="translate(-3152.309 -1306.96)" fill="#433fab"/>
      </g>
      <g id="Grupo_1236778" data-name="Grupo 1236778" transform="translate(2539.843 434.265)">
        <path id="Trazado_1226902" data-name="Trazado 1226902" d="M3162.7,1360.18h-10.6a.721.721,0,1,1,0-1.442h10.6a.721.721,0,1,1,0,1.442Z" transform="translate(-3151.384 -1358.738)" fill="#433fab"/>
      </g>
      <path id="Trazado_1226903" data-name="Trazado 1226903" d="M2902.112,1317.789h-4.5a17.933,17.933,0,0,1-.006-10.865h4.5A13.718,13.718,0,0,0,2902.112,1317.789Z" transform="translate(-403.27 -882.091)" fill="#fcd105"/>
      <path id="Trazado_1226904" data-name="Trazado 1226904" d="M2880.475,1317.789a13.722,13.722,0,0,1-.008-10.865h-1.088a14.725,14.725,0,0,0,.008,10.865Z" transform="translate(-388.204 -882.091)" fill="#fcd105"/>
      <path id="Trazado_1226905" data-name="Trazado 1226905" d="M3094.692,1317.789h-4.5a17.939,17.939,0,0,1-.006-10.865h4.5A13.72,13.72,0,0,0,3094.692,1317.789Z" transform="translate(-560.793 -882.091)" fill="#fcd105"/>
      <path id="Trazado_1226906" data-name="Trazado 1226906" d="M3073.045,1317.789a13.721,13.721,0,0,1-.008-10.865h-1.088a14.723,14.723,0,0,0,.008,10.865Z" transform="translate(-545.72 -882.091)" fill="#fcd105"/>
      <path id="Trazado_1226907" data-name="Trazado 1226907" d="M3163.376,1322.867h-10.019a.956.956,0,0,1-.956-.956v-6.069a.956.956,0,0,1,.956-.956h10.019Z" transform="translate(-612.373 -888.603)" fill="#e8edfd"/>
      <g id="Grupo_1236779" data-name="Grupo 1236779" transform="translate(2542.515 428.187)">
        <path id="Trazado_1226908" data-name="Trazado 1226908" d="M3173.992,1325.831H3166.3a.24.24,0,0,1,0-.481h7.691a.24.24,0,1,1,0,.481Z" transform="translate(-3166.061 -1325.35)" fill="#433fab"/>
      </g>
      <g id="Grupo_1236780" data-name="Grupo 1236780" transform="translate(2546.361 430.155)">
        <path id="Trazado_1226909" data-name="Trazado 1226909" d="M3191.183,1336.641h-3.756a.24.24,0,1,1,0-.48h3.756a.24.24,0,0,1,0,.48Z" transform="translate(-3187.187 -1336.16)" fill="#433fab"/>
      </g>
      <rect id="Rectángulo_423985" data-name="Rectángulo 423985" width="51.713" height="7.847" transform="translate(2493.546 416.326)" fill="#e8edfd"/>
      <g id="Grupo_1236781" data-name="Grupo 1236781" transform="translate(2492.223 414.908)">
        <path id="Trazado_1226910" data-name="Trazado 1226910" d="M2943.864,1262.386h-53.353a.721.721,0,0,1,0-1.442h52.613a5.8,5.8,0,0,0,0-7.1h-52.614a.721.721,0,1,1,0-1.442h53.352l.216.294a7.3,7.3,0,0,1,0,9.4Z" transform="translate(-2889.79 -1252.4)" fill="#36334c"/>
      </g>
      <g id="Grupo_1236782" data-name="Grupo 1236782" transform="translate(2518.817 416.372)">
        <path id="Trazado_1226911" data-name="Trazado 1226911" d="M3036.12,1267.456a.24.24,0,0,1-.24-.24v-6.528a.24.24,0,1,1,.48,0v6.528A.24.24,0,0,1,3036.12,1267.456Z" transform="translate(-3035.88 -1260.447)" fill="#433fab"/>
      </g>
      <g id="Grupo_1236783" data-name="Grupo 1236783" transform="translate(2493.911 417.188)">
        <path id="Trazado_1226912" data-name="Trazado 1226912" d="M2909.363,1265.411H2899.3a.24.24,0,0,1,0-.481h10.061a.24.24,0,1,1,0,.481Z" transform="translate(-2899.062 -1264.93)" fill="#433fab"/>
      </g>
      <g id="Grupo_1236784" data-name="Grupo 1236784" transform="translate(2496.19 418.395)">
        <path id="Trazado_1226913" data-name="Trazado 1226913" d="M2921.618,1272.041h-9.792a.24.24,0,0,1,0-.481h9.792a.24.24,0,1,1,0,.481Z" transform="translate(-2911.585 -1271.56)" fill="#433fab"/>
      </g>
      <path id="Trazado_1226914" data-name="Trazado 1226914" d="M3115.116,1158.377c-.719,5.333-4.477,10.807-8.679,8.84-3.935,2.146-8.022-3.817-8.821-9.04s1.487-11.618,8.821-8.22C3114.575,1146.648,3115.835,1153.043,3115.116,1158.377Z" transform="translate(-567.437 -752.919)" fill="#fb7682"/>
      <path id="Trazado_1226915" data-name="Trazado 1226915" d="M3168.09,1161.779c.479,1.506.067,2.982-.922,3.3s-2.178-.652-2.657-2.158-.067-2.982.922-3.3S3167.612,1160.273,3168.09,1161.779Z" transform="translate(-622.115 -761.554)" fill="#fdfcfb"/>
      <path id="Trazado_1226916" data-name="Trazado 1226916" d="M3180.787,1194.231a.814.814,0,1,1-.8-.939A.88.88,0,0,1,3180.787,1194.231Z" transform="translate(-634.275 -789.144)" fill="#fdfcfb"/>
      <g id="Grupo_1236785" data-name="Grupo 1236785" transform="translate(2538.176 388.805)">
        <path id="Trazado_1226917" data-name="Trazado 1226917" d="M3143.049,1117.964a.721.721,0,0,1-.709-.6c-.375-2.146-.018-6.643,4.013-8.3a.721.721,0,1,1,.549,1.333c-3.979,1.639-3.15,6.671-3.142,6.721a.724.724,0,0,1-.711.845Z" transform="translate(-3142.225 -1109.01)" fill="#36334c"/>
      </g>
      <path id="Trazado_1226918" data-name="Trazado 1226918" d="M3116.085,1097c1.718,1.893,1.271,5.1,1.271,5.1s-3.23.133-4.947-1.76-1.271-5.1-1.271-5.1S3114.367,1095.109,3116.085,1097Z" transform="translate(-578.578 -708.941)" fill="#36334c"/>
      <g id="Grupo_1236786" data-name="Grupo 1236786" transform="translate(2482.964 311.348)">
        <path id="Trazado_1226919" data-name="Trazado 1226919" d="M2839.247,688.485a.24.24,0,0,1-.233-.185c-.009-.036-.816-3.649,2.641-4.777a.24.24,0,1,1,.149.457,3.514,3.514,0,0,0-2.323,4.211.24.24,0,0,1-.179.289A.248.248,0,0,1,2839.247,688.485Z" transform="translate(-2838.926 -683.51)" fill="#2c2c2d"/>
      </g>
      <g id="Grupo_1236787" data-name="Grupo 1236787" transform="translate(2501.556 302.201)">
        <path id="Trazado_1226920" data-name="Trazado 1226920" d="M2941.3,634.3a.24.24,0,0,1-.148-.429c1-.788,3.292-.6,3.389-.587a.24.24,0,1,1-.042.479c-.022,0-2.2-.184-3.05.486A.236.236,0,0,1,2941.3,634.3Z" transform="translate(-2941.059 -633.26)" fill="#2c2c2d"/>
      </g>
      <g id="Grupo_1236789" data-name="Grupo 1236789" transform="translate(2507.135 261.995)">
        <g id="Grupo_1236788" data-name="Grupo 1236788" transform="translate(0 0)">
          <path id="Trazado_1226921" data-name="Trazado 1226921" d="M2675.934,354.157a.939.939,0,0,1-.228-.028,4.128,4.128,0,0,1-3.286-4.482,10.1,10.1,0,0,1,1-2.889c.821-1.762,1.2-2.734.115-3.856a4.906,4.906,0,0,0-6.017-.4c-1.8,1.2-2.239,3.263-1.206,5.672a.932.932,0,0,1-1.714.735,7.066,7.066,0,0,1-.484-4.77,5.664,5.664,0,0,1,2.373-3.19,6.751,6.751,0,0,1,8.391.659c2.024,2.1,1.031,4.227.233,5.939a8.586,8.586,0,0,0-.843,2.353c-.247,1.807,1.676,2.364,1.9,2.422a.932.932,0,0,1-.23,1.836Z" transform="translate(-2663.893 -339.798)" fill="#fd6107"/>
        </g>
        <ellipse id="Elipse_12841" data-name="Elipse 12841" cx="1.356" cy="1.356" rx="1.356" ry="1.356" transform="translate(14.099 14.783) rotate(-22.5)" fill="#fd6107"/>
      </g>
      <g id="Grupo_1236791" data-name="Grupo 1236791" transform="translate(2548.61 262.716)">
        <g id="Grupo_1236790" data-name="Grupo 1236790" transform="translate(1.623 0)">
          <path id="Trazado_1226922" data-name="Trazado 1226922" d="M2956.308,353.926a.676.676,0,0,1,.008-.167,3.013,3.013,0,0,1,3.081-2.639,7.371,7.371,0,0,1,2.158.568c1.328.5,2.056.722,2.813-.129a3.582,3.582,0,0,0-.041-4.4c-.969-1.243-2.5-1.449-4.2-.564a.681.681,0,0,1-.629-1.207,5.158,5.158,0,0,1,3.445-.616,4.135,4.135,0,0,1,2.453,1.55,4.927,4.927,0,0,1-.016,6.143c-1.414,1.589-3.02.984-4.31.5a6.273,6.273,0,0,0-1.759-.483c-1.329-.08-1.628,1.35-1.658,1.513a.681.681,0,0,1-1.349-.066Z" transform="translate(-2956.306 -344.685)" fill="#fd6107"/>
        </g>
        <path id="Trazado_1226923" data-name="Trazado 1226923" d="M2946.361,421.945a.99.99,0,1,1,.912-1.062A.99.99,0,0,1,2946.361,421.945Z" transform="translate(-2945.296 -408.873)" fill="#fd6107"/>
      </g>
      <g id="Grupo_1236793" data-name="Grupo 1236793" transform="translate(2530.679 245.441)">
        <g id="Grupo_1236792" data-name="Grupo 1236792" transform="translate(0 0)">
          <path id="Trazado_1226924" data-name="Trazado 1226924" d="M2827.769,248.53a1.246,1.246,0,0,1-.16-.257c-.745-1.612-1.308-5.171,1.891-7.1a13.351,13.351,0,0,1,3.8-1.364c2.5-.615,3.809-1.032,4.067-3.077.339-2.694-1.713-5.622-4.574-6.528-2.722-.862-5.215.4-6.84,3.459a1.232,1.232,0,0,1-2.177-1.156,9.34,9.34,0,0,1,4.51-4.451,7.487,7.487,0,0,1,5.251-.2c4.007,1.269,6.763,5.3,6.275,9.186-.481,3.82-3.5,4.564-5.922,5.162a11.366,11.366,0,0,0-3.122,1.082c-2.065,1.244-1.046,3.685-.923,3.959a1.232,1.232,0,0,1-2.081,1.285Z" transform="translate(-2823.636 -227.477)" fill="#fd6107"/>
        </g>
        <ellipse id="Elipse_12842" data-name="Elipse 12842" cx="1.792" cy="1.792" rx="1.792" ry="1.792" transform="translate(3.656 26.624) rotate(-60.389)" fill="#fd6107"/>
      </g>
      <g id="Grupo_1236794" data-name="Grupo 1236794" transform="translate(2482.105 389.218)">
        <path id="Trazado_1226925" data-name="Trazado 1226925" d="M2837.468,1117.8a3.259,3.259,0,1,1,3.258-3.259A3.263,3.263,0,0,1,2837.468,1117.8Zm0-6.036a2.778,2.778,0,1,0,2.778,2.778A2.781,2.781,0,0,0,2837.468,1111.76Z" transform="translate(-2834.209 -1111.279)" fill="#e8edfd"/>
      </g>
      <g id="Grupo_1236795" data-name="Grupo 1236795" transform="translate(2496.995 368.09)">
        <path id="Trazado_1226926" data-name="Trazado 1226926" d="M2920.267,1003.745a4.265,4.265,0,1,1,4.265-4.265A4.269,4.269,0,0,1,2920.267,1003.745Zm0-8.048a3.784,3.784,0,1,0,3.784,3.784A3.789,3.789,0,0,0,2920.267,995.7Z" transform="translate(-2916.003 -995.216)" fill="#e8edfd"/>
      </g>
      <g id="Grupo_1236796" data-name="Grupo 1236796" transform="translate(2440.73 362.033)">
        <path id="Trazado_1226927" data-name="Trazado 1226927" d="M2615.12,961.942l-.468.107a3.969,3.969,0,0,1,.04.558,3.783,3.783,0,0,1-7.306,1.378c-.159.043-.312.088-.465.13a4.264,4.264,0,0,0,8.252-1.508A4.065,4.065,0,0,0,2615.12,961.942Z" transform="translate(-2606.921 -961.942)" fill="#e8edfd"/>
      </g>
      <g id="Grupo_1236797" data-name="Grupo 1236797" transform="translate(2454.337 400.488)">
        <path id="Trazado_1226928" data-name="Trazado 1226928" d="M2685.329,1180.51a3.661,3.661,0,1,1,3.661-3.661A3.665,3.665,0,0,1,2685.329,1180.51Zm0-6.843a3.18,3.18,0,1,0,3.18,3.18A3.184,3.184,0,0,0,2685.329,1173.667Z" transform="translate(-2681.668 -1173.188)" fill="#e8edfd"/>
      </g>
      <g id="Grupo_1236798" data-name="Grupo 1236798" transform="translate(2499.409 399.078)">
        <path id="Trazado_1226929" data-name="Trazado 1226929" d="M2934.135,1175.18a4.868,4.868,0,1,1,4.868-4.868A4.874,4.874,0,0,1,2934.135,1175.18Zm0-9.257a4.388,4.388,0,1,0,4.388,4.388A4.393,4.393,0,0,0,2934.135,1165.923Z" transform="translate(-2929.267 -1165.443)" fill="#e8edfd"/>
      </g>
      <g id="Grupo_1236799" data-name="Grupo 1236799" transform="translate(2454.941 362.457)">
        <path id="Trazado_1226930" data-name="Trazado 1226930" d="M2688.248,970.787a3.258,3.258,0,1,1,3.258-3.258A3.262,3.262,0,0,1,2688.248,970.787Zm0-6.036a2.778,2.778,0,1,0,2.778,2.778A2.781,2.781,0,0,0,2688.248,964.751Z" transform="translate(-2684.989 -964.27)" fill="#e8edfd"/>
      </g>
      <g id="Grupo_1236800" data-name="Grupo 1236800" transform="translate(2442.266 373.725)">
        <path id="Trazado_1226931" data-name="Trazado 1226931" d="M2618.011,1031.481a2.655,2.655,0,1,1,2.655-2.655A2.658,2.658,0,0,1,2618.011,1031.481Zm0-4.829a2.174,2.174,0,1,0,2.174,2.174A2.177,2.177,0,0,0,2618.011,1026.651Z" transform="translate(-2615.356 -1026.171)" fill="#e8edfd"/>
      </g>
      <g id="Grupo_1236801" data-name="Grupo 1236801" transform="translate(2462.789 377.75)">
        <path id="Trazado_1226932" data-name="Trazado 1226932" d="M2731.358,1054.8a3.259,3.259,0,1,1,3.259-3.259A3.262,3.262,0,0,1,2731.358,1054.8Zm0-6.036a2.778,2.778,0,1,0,2.778,2.778A2.781,2.781,0,0,0,2731.358,1048.76Z" transform="translate(-2728.099 -1048.279)" fill="#e8edfd"/>
      </g>
      <g id="Grupo_1236802" data-name="Grupo 1236802" transform="translate(2521.745 378.115)">
        <path id="Trazado_1226933" data-name="Trazado 1226933" d="M3056.058,1056.026a2.724,2.724,0,0,1-.836.13,2.778,2.778,0,0,1-.869-5.417c-.051-.151-.1-.3-.152-.455a3.258,3.258,0,0,0,1.021,6.353,3.211,3.211,0,0,0,.981-.152C3056.156,1056.337,3056.109,1056.182,3056.058,1056.026Z" transform="translate(-3051.963 -1050.283)" fill="#e8edfd"/>
      </g>
      <g id="Grupo_1236803" data-name="Grupo 1236803" transform="translate(2472.647 413.365)">
        <path id="Trazado_1226934" data-name="Trazado 1226934" d="M2785.714,1250.848a3.46,3.46,0,1,1,3.46-3.46A3.464,3.464,0,0,1,2785.714,1250.848Zm0-6.439a2.979,2.979,0,1,0,2.979,2.979A2.982,2.982,0,0,0,2785.714,1244.409Z" transform="translate(-2782.254 -1243.928)" fill="#e8edfd"/>
      </g>
      <g id="Grupo_1236804" data-name="Grupo 1236804" transform="translate(2511.886 361.451)">
        <path id="Trazado_1226935" data-name="Trazado 1226935" d="M3000.058,963.249a2.252,2.252,0,1,1,2.252-2.253A2.255,2.255,0,0,1,3000.058,963.249Zm0-4.024A1.772,1.772,0,1,0,3001.83,961,1.774,1.774,0,0,0,3000.058,959.224Z" transform="translate(-2997.806 -958.744)" fill="#e8edfd"/>
      </g>
      <g id="Grupo_1236805" data-name="Grupo 1236805" transform="translate(2503.836 385.395)">
        <path id="Trazado_1226936" data-name="Trazado 1226936" d="M2957.044,1097.2a3.46,3.46,0,1,1,3.46-3.46A3.464,3.464,0,0,1,2957.044,1097.2Zm0-6.439a2.979,2.979,0,1,0,2.979,2.979A2.982,2.982,0,0,0,2957.044,1090.758Z" transform="translate(-2953.584 -1090.277)" fill="#e8edfd"/>
      </g>
      <g id="Grupo_1236806" data-name="Grupo 1236806" transform="translate(2478.684 368.694)">
        <path id="Trazado_1226937" data-name="Trazado 1226937" d="M2818.071,1003.841a2.655,2.655,0,1,1,2.655-2.655A2.658,2.658,0,0,1,2818.071,1003.841Zm0-4.828a2.174,2.174,0,1,0,2.174,2.174A2.177,2.177,0,0,0,2818.071,999.013Z" transform="translate(-2815.416 -998.531)" fill="#e8edfd"/>
      </g>
    </g>
  </g>
</svg>
