<svg xmlns="http://www.w3.org/2000/svg" xmlns:xlink="http://www.w3.org/1999/xlink" width="113" height="113" viewBox="0 0 113 113">
  <defs>
    <filter id="Trazado_982547" x="0" y="0" width="113" height="113" filterUnits="userSpaceOnUse">
      <feOffset dy="3" input="SourceAlpha"/>
      <feGaussianBlur stdDeviation="3" result="blur"/>
      <feFlood flood-opacity="0.161"/>
      <feComposite operator="in" in2="blur"/>
      <feComposite in="SourceGraphic"/>
    </filter>
  </defs>
  <g id="Grupo_1236636" data-name="Grupo 1236636" transform="translate(-8019 -7728.45)">
    <g id="Grupo_1236149" data-name="Grupo 1236149" transform="translate(6907 4935.332)">
      <g id="Grupo_1235107" data-name="Grupo 1235107" transform="translate(-0.869 2004.79)">
        <g id="Grupo_1223796" data-name="Grupo 1223796" transform="translate(0.869 -700.672)">
          <g id="Grupo_1208038" data-name="Grupo 1208038" transform="translate(0 -4138.425)">
            <g id="Grupo_1202104" data-name="Grupo 1202104" transform="translate(0 -1149.226)">
              <g id="Grupo_1201923" data-name="Grupo 1201923" transform="translate(-4174.49 4856.378)">
                <g id="Grupo_1176928" data-name="Grupo 1176928" transform="translate(5295.49 1926.273)">
                  <g id="Grupo_1172322" data-name="Grupo 1172322" transform="translate(0 0)">
                    <g id="Grupo_1164700" data-name="Grupo 1164700">
                      <g id="Grupo_1160931" data-name="Grupo 1160931">
                        <g id="Grupo_1160749" data-name="Grupo 1160749">
                          <g id="Grupo_1158891" data-name="Grupo 1158891">
                            <g id="Grupo_1157406" data-name="Grupo 1157406">
                              <g id="Grupo_1155793" data-name="Grupo 1155793">
                                <g id="Grupo_1154704" data-name="Grupo 1154704">
                                  <g id="Grupo_1150790" data-name="Grupo 1150790">
                                    <g id="Grupo_1154214" data-name="Grupo 1154214">
                                      <g id="Grupo_1152583" data-name="Grupo 1152583">
                                        <g id="Grupo_1146973" data-name="Grupo 1146973">
                                          <g id="Grupo_1146954" data-name="Grupo 1146954">
                                            <g transform="matrix(1, 0, 0, 1, -9, -6)" filter="url(#Trazado_982547)">
                                              <g id="Trazado_982547-2" data-name="Trazado 982547" transform="translate(9 6)" fill="#e1daf7">
                                                <path d="M 47.5000114440918 93.49987030029297 C 41.28938293457031 93.49987030029297 35.26534652709961 92.28384399414062 29.5951976776123 89.88558959960938 C 24.11773109436035 87.56881713867188 19.19814491271973 84.25183868408203 14.97310447692871 80.02680206298828 C 10.74805164337158 75.80176544189453 7.43107795715332 70.88218688964844 5.114304542541504 65.40472412109375 C 2.716038227081299 59.73458862304688 1.500011444091797 53.71054840087891 1.500011444091797 47.49993515014648 C 1.500011444091797 41.28932189941406 2.716038227081299 35.26528167724609 5.114304542541504 29.59514808654785 C 7.43107795715332 24.1176815032959 10.74805164337158 19.1981086730957 14.97310447692871 14.97306823730469 C 19.19814491271973 10.74802875518799 24.11773109436035 7.431055068969727 29.5951976776123 5.11428165435791 C 35.26534652709961 2.716028451919556 41.28938293457031 1.500001788139343 47.5000114440918 1.500001788139343 C 53.71063995361328 1.500001788139343 59.73467636108398 2.716028451919556 65.40482330322266 5.11428165435791 C 70.88229370117188 7.431055068969727 75.8018798828125 10.74802875518799 80.02691650390625 14.97306823730469 C 84.25196838378906 19.1981086730957 87.56894683837891 24.1176815032959 89.88571929931641 29.59514808654785 C 92.28398132324219 35.26528167724609 93.50001525878906 41.28932189941406 93.50001525878906 47.49993515014648 C 93.50001525878906 53.71054840087891 92.28398132324219 59.73458862304688 89.88571929931641 65.40472412109375 C 87.56894683837891 70.88218688964844 84.25196838378906 75.80176544189453 80.02691650390625 80.02680206298828 C 75.8018798828125 84.25183868408203 70.88229370117188 87.56881713867188 65.40482330322266 89.88558959960938 C 59.73467636108398 92.28384399414062 53.71063995361328 93.49987030029297 47.5000114440918 93.49987030029297 Z" stroke="none"/>
                                                <path d="M 47.5000114440918 3 C 41.49122619628906 3 35.66378021240234 4.1761474609375 30.17951965332031 6.495796203613281 C 24.880859375 8.7369384765625 20.12153625488281 11.94596862792969 16.03376770019531 16.03373718261719 C 11.94598388671875 20.12149047851562 8.736968994140625 24.88081359863281 6.495811462402344 30.17947387695312 C 4.176162719726562 35.66371917724609 3.000007629394531 41.49116516113281 3.000007629394531 47.49993515014648 C 3.000007629394531 53.50870513916016 4.176162719726562 59.33615112304688 6.495811462402344 64.82039642333984 C 8.736968994140625 70.11905670166016 11.94598388671875 74.87837982177734 16.03376770019531 78.96613311767578 C 20.12153625488281 83.05390167236328 24.880859375 86.26293182373047 30.17951965332031 88.50407409667969 C 35.66378021240234 90.82372283935547 41.49122619628906 91.99987030029297 47.5000114440918 91.99987030029297 C 53.50879669189453 91.99987030029297 59.33624267578125 90.82372283935547 64.82050323486328 88.50407409667969 C 70.11916351318359 86.26293182373047 74.87848663330078 83.05390167236328 78.96625518798828 78.96613311767578 C 83.05403900146484 74.87837982177734 86.2630615234375 70.11905670166016 88.50421142578125 64.82039642333984 C 90.82386016845703 59.33615112304688 92.00001525878906 53.50870513916016 92.00001525878906 47.49993515014648 C 92.00001525878906 41.49116516113281 90.82386016845703 35.66371917724609 88.50421142578125 30.17947387695312 C 86.2630615234375 24.88081359863281 83.05403900146484 20.12149047851562 78.96625518798828 16.03373718261719 C 74.87848663330078 11.94596862792969 70.11916351318359 8.7369384765625 64.82050323486328 6.495796203613281 C 59.33624267578125 4.1761474609375 53.50879669189453 3 47.5000114440918 3 M 47.5000114440918 0 C 73.73353576660156 0 95.00001525878906 21.26644134521484 95.00001525878906 47.49993515014648 C 95.00001525878906 73.73342895507812 73.73353576660156 94.99987030029297 47.5000114440918 94.99987030029297 C 21.26648712158203 94.99987030029297 7.62939453125e-06 73.73342895507812 7.62939453125e-06 47.49993515014648 C 7.62939453125e-06 21.26644134521484 21.26648712158203 0 47.5000114440918 0 Z" stroke="none" fill="#6c4dd8"/>
                                              </g>
                                            </g>
                                          </g>
                                        </g>
                                      </g>
                                    </g>
                                  </g>
                                </g>
                              </g>
                            </g>
                          </g>
                        </g>
                      </g>
                    </g>
                  </g>
                </g>
              </g>
            </g>
          </g>
        </g>
      </g>
    </g>
    <g id="analisis-de-mercado" transform="translate(8047.207 7753.658)">
      <path id="Trazado_1226340" data-name="Trazado 1226340" d="M11.772,72H58.927A3.773,3.773,0,0,1,62.7,75.772v32.065a3.773,3.773,0,0,1-3.772,3.772H11.772A3.773,3.773,0,0,1,8,107.838V75.772A3.773,3.773,0,0,1,11.772,72Zm0,0" transform="translate(-7.057 -63.513)" fill="#e0e0de"/>
      <path id="Trazado_1226341" data-name="Trazado 1226341" d="M48,72H93.269v39.61H48Zm0,0" transform="translate(-42.341 -63.513)" fill="#60d1e0"/>
      <path id="Trazado_1226342" data-name="Trazado 1226342" d="M188.537,132,156,164.537h32.537Zm0,0" transform="translate(-137.61 -116.439)" fill="#5ac6d4"/>
      <path id="Trazado_1226343" data-name="Trazado 1226343" d="M328,96h1.886v1.886H328Zm0,0" transform="translate(-289.333 -84.683)" fill="#3fb7c7"/>
      <path id="Trazado_1226344" data-name="Trazado 1226344" d="M360,96h1.886v1.886H360Zm0,0" transform="translate(-317.561 -84.683)" fill="#3fb7c7"/>
      <path id="Trazado_1226345" data-name="Trazado 1226345" d="M392,96h1.886v1.886H392Zm0,0" transform="translate(-345.788 -84.683)" fill="#3fb7c7"/>
      <path id="Trazado_1226346" data-name="Trazado 1226346" d="M249.336,160.8,240,170.138l9.337,9.337a13.2,13.2,0,0,0,0-18.673Zm0,0" transform="translate(-211.707 -141.845)" fill="#7eb457"/>
      <path id="Trazado_1226347" data-name="Trazado 1226347" d="M170.137,240l-9.337,9.337a13.2,13.2,0,0,0,18.673,0Zm0,0" transform="translate(-141.844 -211.708)" fill="#f35244"/>
      <path id="Trazado_1226348" data-name="Trazado 1226348" d="M141.2,128A13.2,13.2,0,0,0,128,141.2h13.2l9.337-9.337A13.164,13.164,0,0,0,141.2,128Zm0,0" transform="translate(-112.91 -112.911)" fill="#ffb531"/>
      <path id="Trazado_1226349" data-name="Trazado 1226349" d="M128,240a13.164,13.164,0,0,0,3.867,9.337L141.2,240Zm0,0" transform="translate(-112.91 -211.708)" fill="#348fd9"/>
      <g id="Grupo_1236635" data-name="Grupo 1236635" transform="translate(8.488 16.975)">
        <path id="Trazado_1226350" data-name="Trazado 1226350" d="M368,176h4.715v1.886H368Zm0,0" transform="translate(-333.105 -172.228)" fill="#3fb7c7"/>
        <path id="Trazado_1226351" data-name="Trazado 1226351" d="M72,144h5.659v1.886H72Zm0,0" transform="translate(-72 -144)" fill="#3fb7c7"/>
        <path id="Trazado_1226352" data-name="Trazado 1226352" d="M72,176h4.715v1.886H72Zm0,0" transform="translate(-72 -172.228)" fill="#3fb7c7"/>
        <path id="Trazado_1226353" data-name="Trazado 1226353" d="M72,312h4.715v1.886H72Zm0,0" transform="translate(-72 -292.195)" fill="#3fb7c7"/>
        <path id="Trazado_1226354" data-name="Trazado 1226354" d="M72,344h6.6v1.886H72Zm0,0" transform="translate(-72 -320.423)" fill="#3fb7c7"/>
        <path id="Trazado_1226355" data-name="Trazado 1226355" d="M352,144h6.6v1.886H352Zm0,0" transform="translate(-318.992 -144)" fill="#3fb7c7"/>
        <path id="Trazado_1226356" data-name="Trazado 1226356" d="M368,296h4.715v1.886H368Zm0,0" transform="translate(-333.105 -278.081)" fill="#3fb7c7"/>
        <path id="Trazado_1226357" data-name="Trazado 1226357" d="M352,328h6.6v1.886H352Zm0,0" transform="translate(-318.992 -306.309)" fill="#3fb7c7"/>
      </g>
      <path id="Trazado_1226358" data-name="Trazado 1226358" d="M97.919,19.317H92.26l1.886,7.545-6.6-7.545H82.829A2.829,2.829,0,0,1,80,16.488V10.829A2.829,2.829,0,0,1,82.829,8h15.09a2.829,2.829,0,0,1,2.829,2.829v5.659A2.829,2.829,0,0,1,97.919,19.317Zm0,0" transform="translate(-70.569 -7.058)" fill="#348fd9"/>
      <path id="Trazado_1226359" data-name="Trazado 1226359" d="M104,32h1.886v1.886H104Zm0,0" transform="translate(-91.74 -28.228)" fill="#2a71ad"/>
      <path id="Trazado_1226360" data-name="Trazado 1226360" d="M136,32h11.317v1.886H136Zm0,0" transform="translate(-119.967 -28.228)" fill="#2a71ad"/>
      <path id="Trazado_1226361" data-name="Trazado 1226361" d="M104,64h15.09v1.886H104Zm0,0" transform="translate(-91.74 -56.456)" fill="#2a71ad"/>
      <path id="Trazado_1226362" data-name="Trazado 1226362" d="M236.122,311.559a1.886,1.886,0,0,0-2.2,1.861,1.886,1.886,0,1,0-3.772,0,1.886,1.886,0,1,0-3.772,0v-7.444a1.957,1.957,0,0,0-1.569-1.962,1.886,1.886,0,0,0-2.2,1.861v13.2l-3.932-2.358a1.663,1.663,0,0,0-1.6-.062l-.148.075a1.665,1.665,0,0,0-.222,2.843l5.9,4.218h15.09V313.521a1.957,1.957,0,0,0-1.569-1.962Zm0,0" transform="translate(-190.537 -268.152)" fill="#fec9a3"/>
      <path id="Trazado_1226363" data-name="Trazado 1226363" d="M290.207,368.039a1.984,1.984,0,0,0-.411-.021c-3.184,5.7-8.488,9.786-12.483,12.256h14.463V370A1.957,1.957,0,0,0,290.207,368.039Zm0,0" transform="translate(-244.621 -324.631)" fill="#fec093"/>
      <path id="Trazado_1226364" data-name="Trazado 1226364" d="M298.862,64H280v1.886h16.976V105.5h1.886a4.721,4.721,0,0,0,4.716-4.715V68.715A4.721,4.721,0,0,0,298.862,64Zm2.829,36.781a2.829,2.829,0,0,1-2.829,2.829V65.886a2.829,2.829,0,0,1,2.829,2.829Zm0,0" transform="translate(-246.992 -56.456)"/>
      <path id="Trazado_1226365" data-name="Trazado 1226365" d="M6.6,65.886V64H4.715A4.721,4.721,0,0,0,0,68.715v32.065A4.721,4.721,0,0,0,4.715,105.5H22.634V103.61H6.6ZM1.886,100.781V68.715a2.829,2.829,0,0,1,2.829-2.829V103.61A2.829,2.829,0,0,1,1.886,100.781Zm0,0" transform="translate(0 -56.456)"/>
      <path id="Trazado_1226366" data-name="Trazado 1226366" d="M104,32h1.886v1.886H104Zm0,0" transform="translate(-91.74 -28.228)"/>
      <path id="Trazado_1226367" data-name="Trazado 1226367" d="M136,32h11.317v1.886H136Zm0,0" transform="translate(-119.967 -28.228)"/>
      <path id="Trazado_1226368" data-name="Trazado 1226368" d="M104,64h15.09v1.886H104Zm0,0" transform="translate(-91.74 -56.456)"/>
      <path id="Trazado_1226369" data-name="Trazado 1226369" d="M328,96h1.886v1.886H328Zm0,0" transform="translate(-289.333 -84.683)"/>
      <path id="Trazado_1226370" data-name="Trazado 1226370" d="M360,96h1.886v1.886H360Zm0,0" transform="translate(-317.561 -84.683)"/>
      <path id="Trazado_1226371" data-name="Trazado 1226371" d="M392,96h1.886v1.886H392Zm0,0" transform="translate(-345.788 -84.683)"/>
      <path id="Trazado_1226372" data-name="Trazado 1226372" d="M72,144h5.659v1.886H72Zm0,0" transform="translate(-63.512 -127.025)"/>
      <path id="Trazado_1226373" data-name="Trazado 1226373" d="M72,176h4.715v1.886H72Zm0,0" transform="translate(-63.512 -155.252)"/>
      <path id="Trazado_1226374" data-name="Trazado 1226374" d="M72,312h4.715v1.886H72Zm0,0" transform="translate(-63.512 -275.22)"/>
      <path id="Trazado_1226375" data-name="Trazado 1226375" d="M72,344h6.6v1.886H72Zm0,0" transform="translate(-63.512 -303.447)"/>
      <path id="Trazado_1226376" data-name="Trazado 1226376" d="M352,144h6.6v1.886H352Zm0,0" transform="translate(-310.504 -127.025)"/>
      <path id="Trazado_1226377" data-name="Trazado 1226377" d="M368,176h4.715v1.886H368Zm0,0" transform="translate(-324.617 -155.252)"/>
      <path id="Trazado_1226378" data-name="Trazado 1226378" d="M368,296h4.715v1.886H368Zm0,0" transform="translate(-324.617 -261.106)"/>
      <path id="Trazado_1226379" data-name="Trazado 1226379" d="M352,328h6.6v1.886H352Zm0,0" transform="translate(-310.504 -289.334)"/>
      <path id="Trazado_1226380" data-name="Trazado 1226380" d="M109.253,42.477a2.838,2.838,0,0,0-2.3.635c-.019.015-.037.031-.056.048a2.823,2.823,0,0,0-3.772,0,2.938,2.938,0,0,0-2.829-.561V39.592a14.362,14.362,0,0,0,1.516-1.3l0-.006a14.147,14.147,0,0,0,0-19.994l-.006-.006a14.093,14.093,0,0,0-14.937-3.243L86.411,13.2h4.451A3.773,3.773,0,0,0,94.635,9.43V3.772A3.773,3.773,0,0,0,90.862,0H75.773A3.773,3.773,0,0,0,72,3.772V9.43A3.773,3.773,0,0,0,75.773,13.2H80.06l3.3,3.767A14.121,14.121,0,0,0,81.8,38.289l.006.006A14.121,14.121,0,0,0,94.634,42.15v7.111l-2.5-1.5a2.59,2.59,0,0,0-2.509-.094l-.149.074a2.61,2.61,0,0,0-.349,4.456l5.9,4.216a.942.942,0,0,0,.548.174h15.09a.943.943,0,0,0,.943-.943V45.369a2.909,2.909,0,0,0-2.358-2.892Zm-8.133-6.207-7.98-7.978,7.978-7.978a12.26,12.26,0,0,1,0,15.955ZM80.488,11.317H75.773A1.886,1.886,0,0,1,73.886,9.43V3.772a1.886,1.886,0,0,1,1.886-1.886h15.09a1.886,1.886,0,0,1,1.886,1.886V9.43a1.886,1.886,0,0,1-1.886,1.886H85.2a.943.943,0,0,0-.915,1.172l.938,3.756L81.2,11.639a.943.943,0,0,0-.71-.322Zm2.647,8.307A12.008,12.008,0,0,1,84.6,18.4l1.777,2.031A.943.943,0,0,0,88,19.579l-.672-2.685a12.2,12.2,0,0,1,12.449,2.089l-8.367,8.366H79.581a12.159,12.159,0,0,1,3.555-7.726Zm6.393,9.612L82.494,36.27a12.144,12.144,0,0,1-2.913-7.035Zm2.277,11.317A12.179,12.179,0,0,1,83.828,37.6l7.978-7.979,5.3,5.3a2.823,2.823,0,0,0-2.475,2.793v2.5A12.222,12.222,0,0,1,91.805,40.553ZM109.724,54.7H95.879l-5.659-4.041a.723.723,0,0,1,.094-1.235l.148-.073a.713.713,0,0,1,.693.026l3.932,2.358a.943.943,0,0,0,1.433-.807v-13.2a.943.943,0,1,1,1.886,0v7.545a.943.943,0,1,0,1.886,0,.943.943,0,0,1,1.886,0,.943.943,0,1,0,1.886,0,.943.943,0,0,1,1.886,0,.943.943,0,1,0,1.886,0,.943.943,0,0,1,1.108-.929,1.021,1.021,0,0,1,.778,1.03Zm0,0" transform="translate(-63.512)"/>
    </g>
  </g>
</svg>
