<svg xmlns="http://www.w3.org/2000/svg" xmlns:xlink="http://www.w3.org/1999/xlink" width="295" height="350" viewBox="0 0 295 350">
  <defs>
    <clipPath id="clip-path">
      <rect id="Rectángulo_423972" data-name="Rectángulo 423972" width="295" height="350" transform="translate(1125 719.03)" fill="#fff" stroke="#707070" stroke-width="1"/>
    </clipPath>
    <clipPath id="clip-path-2">
      <rect id="Rectángulo_423975" data-name="Rectángulo 423975" width="423" height="404" transform="translate(-0.002 -0.23)" fill="none"/>
    </clipPath>
  </defs>
  <g id="Grupo_1236730" data-name="Grupo 1236730" transform="translate(-1125 -732)">
    <rect id="Rectángulo_423976" data-name="Rectángulo 423976" width="186" height="350" transform="translate(1180 732)" fill="#fceefb"/>
    <g id="Enmascarar_grupo_1208506" data-name="Enmascarar grupo 1208506" transform="translate(0 12.97)" clip-path="url(#clip-path)">
      <g id="Grupo_1236729" data-name="Grupo 1236729" transform="translate(1047.002 699.26)" clip-path="url(#clip-path-2)">
        <path id="Trazado_1226582" data-name="Trazado 1226582" d="M1530.741,1455.827c-.611-1.812-1-8.9-1.018-13.055q-.024-6.259-.047-12.518a2.39,2.39,0,0,0-1.112-.135,14.536,14.536,0,0,1-7.838.843.433.433,0,0,0-.094,0,.468.468,0,0,0-.7.462c.6,4.523,1.078,9.067,1.27,13.626.1,2.337.122,4.678.041,7.016-.037,1.078-.686,3.791.5,4.5,1.258.757,9.174-.218,9-.745" transform="translate(-1214.405 -1141.273)" fill="#59242e"/>
        <path id="Trazado_1226583" data-name="Trazado 1226583" d="M1301.064,640.776c-.331-1.389.381-3.324-1.24-3.2-3.3.253-9.79-.4-11.141,0-1.327.388-1.74,1.653-2.108,2.887-.544,1.826-1.357,4.617-1.06,6.53.281,1.812,2.13,1.632,3.57,1.791a61.133,61.133,0,0,0,9.476.334c1.347-.073,2.377-.212,2.9-1.765.574-1.717.026-4.822-.392-6.578" transform="translate(-1027.166 -508.534)" fill="#964939"/>
        <path id="Trazado_1226584" data-name="Trazado 1226584" d="M1640.416,776.386c-1.1-1.173-6.22-5.829-7.229-6.981-3.019-3.446-13.443,2.182-11.35,5.931a19.566,19.566,0,0,0,9.385,8.236c5.236,1.911,8.166,3.261,11.874-3.911.143-.276-1.389-1.9-2.679-3.275" transform="translate(-1295.559 -613.05)" fill="#964939"/>
        <path id="Trazado_1226585" data-name="Trazado 1226585" d="M1206.5,584.577c-2.674,0-5.8.088-7.528-.564-5.312-2-11.588-9.946-14.948-12.706-.381-.312-.906.133-.717.486-1.026,1.762-4.247,2.583-5.065,4.451-.337.77,13.5,16.968,19.945,18.728a37.677,37.677,0,0,0,5.284.915c.958-.058,1.616-4.214,2.145-5.354.835-1.8,2.9-5.956.884-5.956" transform="translate(-941.548 -455.636)" fill="#964939"/>
        <path id="Trazado_1226586" data-name="Trazado 1226586" d="M1152.925,507.061l-.054-.394a18.33,18.33,0,0,0-.484-4.746c-.014-.049-.034-.1-.048-.146a18.337,18.337,0,0,0-2.579-5.621c-.72-1.064-1.684-1.1-2.146-.11a17.738,17.738,0,0,0-2.527-3.274c-.557-.528-1.656-1.38-2.2-.366-.553,1.04,1.379,2.9,1.851,3.613.5.757,1.006,1.577,1.464,2.386.3.529.557,1.071.88,1.583a.576.576,0,0,1,.04.671.216.216,0,0,1-.179.08c-.228-.028-.617-1-.741-1.2q-.439-.72-.923-1.411a24.49,24.49,0,0,0-2.073-2.57c-.689-.744-2.88-3.346-4.163-2.256-1.084.921.356,2.118.967,2.729a19.2,19.2,0,0,1,3.058,3.982.041.041,0,0,1-.07.043c-1.055-1.456-2.373-2.555-3.884-2.352a.491.491,0,0,0-.37.312c-.293,1.121,1.031,1.777,1.713,2.509a20.173,20.173,0,0,1,2.185,3.559c-1.354-1.3-3.09-2.185-3.3-.917-.169,1.024,1.549,1.918,2.116,2.493a19.192,19.192,0,0,1,2.639,3.773c.536.908,1.12,1.786,1.741,2.637a25.714,25.714,0,0,0,2.026,2.833c1.289.357,7.016-4.553,6.953-4.633a9.322,9.322,0,0,1-1.9-3.208" transform="translate(-909.944 -392.337)" fill="#964939"/>
        <path id="Trazado_1226587" data-name="Trazado 1226587" d="M1441.854,571.078c-1.6-1.057-1.694-2.44-1.748-4.192-.141-4.521.271-7.76.446-12.279a.535.535,0,0,0-.555-.8,15.6,15.6,0,0,0-5.315,2.546c-1.479,1-2.858,2.719-4.5,3.448a.511.511,0,0,0-.091.036,4.15,4.15,0,0,1-.412.164.514.514,0,0,0,.157,1c.081,2.539.4,7.122-1.725,8.28-2.239,1.22-5.89.82-8.36.806a.516.516,0,0,0-.17.993.509.509,0,0,0,.005.244,40.845,40.845,0,0,0,4.438,10.643c1.527,2.539,3.774,6.423,6.678,7.528,3.128,1.19,6.032-1.813,8.341-3.486l11.623-8.417a.515.515,0,0,0,.2-.317c.143-.224-6.621-4.612-9.016-6.2" transform="translate(-1134.016 -441.734)" fill="#964939"/>
        <path id="Trazado_1226588" data-name="Trazado 1226588" d="M1591.912,689.846a1.274,1.274,0,0,0-.215-1.391c-1.77-1.951-7.264-8.035-8.561-9.827-2.706-3.738-5.724-7.69-9.832-10.541-.181-.126-1.709,6.851-2.46,9.972a43.4,43.4,0,0,0-.948,8.537,24.752,24.752,0,0,1-.668,4.848,7.022,7.022,0,0,0-.273,2.328c.073.954.148,4.147,1.476,4.24.377.031,1.013.7,1.3.908.958.688,1.916,1.376,2.887,2.045,1.342.923,3.609,2.691,5.712,3.315a.366.366,0,0,0,.306-.048,28.128,28.128,0,0,0,6.624-6.238,31.309,31.309,0,0,0,2.5-3.771q.567-1,1.059-2.047c.117-.247.706-1.492,1.089-2.331" transform="translate(-1253.538 -533.001)" fill="#fae7dc"/>
        <path id="Trazado_1226589" data-name="Trazado 1226589" d="M1333.842,1452.792q.409-12.038,1.352-24.044c.056-.714-.636-.945-1.164-.73a.816.816,0,0,0-.884-.294,65.49,65.49,0,0,0-7.416,2.571.869.869,0,0,0-.937.85l-.28,10.813c-.039,1.481-.01,3-.129,4.477-.3,3.718-2.076,5.881-4.838,8.1a.931.931,0,0,0-.277,1.085c-.314.642.153,1.584.952,1.23,1.92-.85,3.713-.2,5.682-.092,2.021.115,3.824.046,5.824.341,2.769.408,2.156-2.067,2.073-4.124a.849.849,0,0,0,.044-.184" transform="translate(-1054.091 -1139.569)" fill="#59242e"/>
        <path id="Trazado_1226590" data-name="Trazado 1226590" d="M1332.1,628.187c-7-.107-13.515.072-18.3.423a.5.5,0,0,0-.434.434c-.621,3.878-.853,12.875,1.267,19.5.243.759.208.7,2.01,1.105,3.544.793,13.375,2.2,13.375,1.953a45.581,45.581,0,0,1,1.287-11.377c.713-3.5,1.115-12.036.8-12.041" transform="translate(-1049.106 -501.116)" fill="#fae7dc"/>
        <path id="Trazado_1226591" data-name="Trazado 1226591" d="M1364.3,1004.316q-.9-9.382-1.834-18.762c-1.181-11.79-4-54.769-5.6-66.445.3-1.009-.574-2.125-.818-2.961.012-.352.019-.7.035-1.055.022-.486-.484-.707-.953-.67-2.376-2.969-8.133-4.452-12.561-4.575-5.061-.141-25.41,2.417-25.473,3.054-1.908,19.576-7.51,38.814-10.456,58.3a405.846,405.846,0,0,0-4.447,52.989.57.57,0,0,0,.469.526,51.225,51.225,0,0,0,12.869,1.685c4.614.021,10.839.094,15.236-1.529.087-8.27,1.182-16.5,1.81-24.749q1.231,6.415,2.573,12.815c.461,2.2,1.7,10.106,2.824,11.324,2.112,2.291,22.2.772,26.707.4,1.532-.127.009-16.262-.382-20.342" transform="translate(-1040.538 -726.051)" fill="#36593f"/>
        <path id="Trazado_1226592" data-name="Trazado 1226592" d="M1461.034,491.848c-.4-3.252-3.485-5.13-6.656-5.082-3.517.054-8.287,2.092-10.039,5.259-1.737,3.139-.835,7.238-.535,10.6.2,2.286-.108,5.423,2.144,6.795,2.374,1.446,5.419.333,7.711-.718,2.174-1,5.42-2.269,5.9-4.9a39.534,39.534,0,0,0,.855-7.409,9.28,9.28,0,0,0,.62-4.539" transform="translate(-1153.214 -388.211)" fill="#964939"/>
        <path id="Trazado_1226593" data-name="Trazado 1226593" d="M1412.495,640.1c-.684-1.8-3.4-3.68-4.916-4.636-2.574-1.622-5.253-3-7.961-4.381a4.034,4.034,0,0,0-1.44-.517c-1.049-.093-2.385,1.142-3.362,1.526a12.821,12.821,0,0,1-4.35.876c-2.667.068-6.717-.39-7.644-3.377a.425.425,0,0,0-.113-.182.481.481,0,0,0-.185-.529c-.184-.3-5.886-.423-7.514-.574a33.056,33.056,0,0,0-11.376,1.333c-.593.156-.59.448-.351.912a50.254,50.254,0,0,1,2.515,5.835c.253.693-.169,2.213-.223,2.964q-.127,1.751-.24,3.5c-.146,2.246.226,4.577-.391,6.742-1.812,6.357-2.97,46.467-1.129,46.983a4.406,4.406,0,0,0,1.349.08c7.292-.263,16.45,2.159,23.47,3.8,3.43.8,6.983,1.675,10.533,1.355a11.159,11.159,0,0,0,4.916-1.538,3.375,3.375,0,0,0,1.708-1.8c.821-2.461.5-5.87.684-8.482q.33-4.714.628-9.43.617-9.629,1.148-19.263a2.575,2.575,0,0,1,.033-.62c1.008-2.909,1.872-5.865,2.775-8.81.911-2.973,2.553-8.823,1.436-11.768" transform="translate(-1088.997 -501.161)" fill="#fae7dc"/>
        <path id="Trazado_1226594" data-name="Trazado 1226594" d="M1678.029,678.739a62.365,62.365,0,0,1-6.886,14.358c-2.058,3.174-4.325,5.829-6.4,8.992-.779,1.188-4.211,6.313-3.653,7.72.244.614,2.675,2.511,8.984,2.139,4.866-.287,14.5-27.312,15.781-34.439a43.722,43.722,0,0,0-7.827,1.23" transform="translate(-1327.076 -540.5)" fill="#964939"/>
        <path id="Trazado_1226595" data-name="Trazado 1226595" d="M1744.45,597.208c-.893-1.74-3.068-.782-4.383.022-.985.328-2.086.22-3.071.62a3.083,3.083,0,0,0-1.531,1.44c-.369.252-.738.5-1.127.732a5.6,5.6,0,0,0-2.085,1.526,4.532,4.532,0,0,0-.3,3.225.726.726,0,0,1,0,.288,8.077,8.077,0,0,0-.243,2.8c.155,1.033.946,1.4,1.891,1.556a1.245,1.245,0,0,0,.271-.012c-.081.005.265,2.537.292,2.767a7.906,7.906,0,0,1-.176,3.072c-.141.676.073.6.535.632a27,27,0,0,0,3.358.183,10.732,10.732,0,0,0,2.844-.756c.211.192.86.171.968-.188,1.492-4.953,1.946-9.989,2.769-15.078a4.641,4.641,0,0,0-.006-2.831" transform="translate(-1383.475 -475.624)" fill="#964939"/>
        <path id="Trazado_1226596" data-name="Trazado 1226596" d="M1496.186,534.111c-.422-.523-1.092-.14-1.39.324a2.163,2.163,0,0,0-.126,2.035.78.78,0,0,0,1.365.262,2.308,2.308,0,0,0,.336-2.281,1.173,1.173,0,0,0-.184-.341" transform="translate(-1194.078 -425.817)" fill="#1a0504"/>
        <path id="Trazado_1226597" data-name="Trazado 1226597" d="M1452.437,534.338c-.422-.523-1.091-.14-1.389.324a2.165,2.165,0,0,0-.126,2.035.779.779,0,0,0,1.363.262,2.308,2.308,0,0,0,.335-2.281,1.177,1.177,0,0,0-.184-.341" transform="translate(-1159.145 -425.998)" fill="#1a0504"/>
        <path id="Trazado_1226598" data-name="Trazado 1226598" d="M1482.989,573.916c-1.194,3.418-4.316,4.662-7.578,5.49a.27.27,0,0,0,.144.52c3.481-.883,6.691-2.25,7.954-5.867.115-.329-.406-.47-.521-.143" transform="translate(-1178.701 -457.656)" fill="#66281b"/>
        <path id="Trazado_1226599" data-name="Trazado 1226599" d="M1466.032,540.033a2.565,2.565,0,0,0-.792,1.777,1.987,1.987,0,0,0,1.178,1.425.27.27,0,0,0,.272-.466c-.406-.23-.9-.547-.918-1.069a2.132,2.132,0,0,1,.641-1.285c.221-.265-.159-.649-.381-.382" transform="translate(-1170.727 -430.675)" fill="#66281b"/>
        <path id="Trazado_1226600" data-name="Trazado 1226600" d="M1491.932,518.008c-.072-.035-.14-.065-.2-.089a3.6,3.6,0,0,0-3.488.454c-.832.667-.771,1.78.322,2.091a4.191,4.191,0,0,0,1.509-.032c.882-.075,2.025.092,2.8-.435,1.028-.7-.19-1.625-.941-1.99" transform="translate(-1188.647 -412.886)" fill="#471b17"/>
        <path id="Trazado_1226601" data-name="Trazado 1226601" d="M1448.489,519.413a2.422,2.422,0,0,0-2.26-1.159,2.854,2.854,0,0,0-1.686.772c-.365.33-1.12,1.06-.843,1.609.221.437.924.461,1.336.387a6.7,6.7,0,0,1,1.137-.205c.377,0,.75.061,1.128.043.754-.037,1.5-.6,1.189-1.446" transform="translate(-1153.483 -413.352)" fill="#471b17"/>
        <path id="Trazado_1226602" data-name="Trazado 1226602" d="M1474.337,550.072a1.577,1.577,0,0,1,.792.143c.312.147.587-.318.272-.466a2.142,2.142,0,0,0-1.064-.217c-.345.02-.348.56,0,.54" transform="translate(-1177.789 -438.33)" fill="#66281b"/>
        <path id="Trazado_1226603" data-name="Trazado 1226603" d="M1439.807,464.626c-1.665-.181-1.425-2.909-2.931-3.839a4.8,4.8,0,0,0-5.048.1c-.389.23-.768.764-1.134.977-1.772,1.033-2.115.517-3.633.361a7.271,7.271,0,0,0-3.5.481c-.847.342-3.275,1.81-3.5,3.053a5.327,5.327,0,0,0-2.648,4.383,4.06,4.06,0,0,0,1.281,3.608,4.631,4.631,0,0,0,1.109.518,8.424,8.424,0,0,0,1.772.5,3.408,3.408,0,0,0,3.181-1.457,10.923,10.923,0,0,0,1.057-2.114,15,15,0,0,1,1.378-2.02,1.082,1.082,0,0,1,.856-.452c1.488-.038,2.773.927,4.283,1.047a5.443,5.443,0,0,0,3.026-.74,1.6,1.6,0,0,1,1.242-.222c1.281.449,1.894,3.151,2.155,4.3a24.769,24.769,0,0,1,.5,5.115.5.5,0,0,0,.84.344,13.009,13.009,0,0,0,3.086-7.594c.184-2.828-.874-6.071-3.375-6.343" transform="translate(-1132.53 -366.93)" fill="#471b17"/>
        <path id="Trazado_1226604" data-name="Trazado 1226604" d="M1522.593,532.4a4.543,4.543,0,0,0-2.307,3.016.47.47,0,0,0-.413.432c-.082.989-.446,4.1,1.59,3.372,1.54-.553,2.267-2.425,2.627-3.878.28-1.126.457-3.7-1.5-2.941" transform="translate(-1214.296 -424.539)" fill="#964939"/>
        <path id="Trazado_1226605" data-name="Trazado 1226605" d="M1467.921,564.437c-1.5.4-3.491,1.334-4.985.615-.4-.194-.758.408-.353.6,1.753.844,3.78-.075,5.523-.545a.35.35,0,0,0-.186-.673" transform="translate(-1168.468 -450.223)" fill="#66281b"/>
        <path id="Trazado_1226606" data-name="Trazado 1226606" d="M1527.969,537.729c-1.4.5-1.865,2.3-2.064,3.611-.052.34.468.486.52.143.164-1.081.5-2.806,1.687-3.234.324-.117.185-.638-.144-.521" transform="translate(-1219.172 -428.893)" fill="#66281b"/>
        <path id="Trazado_1226607" data-name="Trazado 1226607" d="M1739.759,637.058a9.959,9.959,0,0,0,.484,3.342c.107.329.628.188.52-.143a9.521,9.521,0,0,1-.465-3.2.27.27,0,0,0-.539,0" transform="translate(-1389.942 -508.016)" fill="#66281b"/>
        <path id="Trazado_1226608" data-name="Trazado 1226608" d="M1184.446,520.211a14.2,14.2,0,0,1,1.551,5.82,5.709,5.709,0,0,0,.929,3.46c.2.277.672.008.466-.272-1.118-1.519-.7-3.277-.921-5.019a15.969,15.969,0,0,0-1.559-4.262c-.14-.317-.6-.043-.466.272" transform="translate(-946.489 -414.589)" fill="#66281b"/>
        <path id="Trazado_1226609" data-name="Trazado 1226609" d="M1160.214,534.194a5.022,5.022,0,0,1,.772,1.593.27.27,0,0,0,.52-.143,5.451,5.451,0,0,0-.826-1.722c-.2-.279-.67-.01-.466.272" transform="translate(-927.12 -425.773)" fill="#66281b"/>
        <path id="Trazado_1226610" data-name="Trazado 1226610" d="M1675.335,786.95q-1.507,2.693-2.839,5.476c-.149.312.316.586.466.272q1.333-2.783,2.839-5.476c.17-.3-.3-.576-.466-.272" transform="translate(-1336.209 -627.812)" fill="#66281b"/>
        <path id="Trazado_1226611" data-name="Trazado 1226611" d="M1364.423,681.235q1.327,6.763,2.149,13.605c.041.34.581.345.54,0q-.83-6.914-2.169-13.749c-.067-.34-.587-.2-.52.143" transform="translate(-1090.222 -543.231)" fill="#2e0c12"/>
        <path id="Trazado_1226612" data-name="Trazado 1226612" d="M1577.266,745.673a64.885,64.885,0,0,0-4.071,16.159c-.041.344.5.341.54,0a64.35,64.35,0,0,1,4.052-16.016c.127-.323-.395-.463-.521-.143" transform="translate(-1256.936 -594.813)" fill="#2e0c12"/>
        <path id="Trazado_1226613" data-name="Trazado 1226613" d="M1428.42,1025.481c2.051,1.048,3.149,2.01,3.573,4.377a42.038,42.038,0,0,1,.432,5.89c.177,4.991.151,9.991.195,14.985q.166,18.889.332,37.779a.27.27,0,0,0,.54,0q-.178-20.315-.357-40.63c-.044-4.98,0-9.971-.3-14.944a15.066,15.066,0,0,0-.846-5.119c-.641-1.458-1.937-2.109-3.3-2.8-.309-.158-.582.308-.272.466" transform="translate(-1141.222 -817.994)" fill="#2e0c12"/>
        <path id="Trazado_1226614" data-name="Trazado 1226614" d="M1293.415,1535.964a37.984,37.984,0,0,0-.473-6.752.39.39,0,0,0-.268-.332.494.494,0,0,0-.569-.081.134.134,0,0,1-.053.016,9.326,9.326,0,0,0-3.965.754,4.073,4.073,0,0,0-1.163.926,1.944,1.944,0,0,0,.083-1.562c-.4-.8-1.536-.818-2.3-.891a17.645,17.645,0,0,0-4.391.177c-.068.06-.134.123-.2.184a.4.4,0,0,0-.047.043,34.009,34.009,0,0,1-6.425,5.129c-1.98,1.062-3.959,1.907-5.451,3.649a.516.516,0,0,0-.084.151.528.528,0,0,0-.122.189,2.3,2.3,0,0,0-.078.3c-.91.616-.927,3.16-.7,3.423.337.386,1.143.416,1.6.475.815.1,1.634.13,2.453.171a32.925,32.925,0,0,0,7.247-.435c1.795-.307,3.584-.67,5.4-.823,1.8-.152,3.611-.088,5.4-.35,1.486-.217,2.963-.51,4.428-.839a.439.439,0,0,0,.339-.434c0-1.419-.025-2.518-.668-3.093" transform="translate(-1012.501 -1219.661)" fill="#fae7dc"/>
        <path id="Trazado_1226615" data-name="Trazado 1226615" d="M1341.013,1544.122c-.75,2.092-3.422,3.369-5.377,4.036-.327.111-.187.633.143.52,2.166-.738,4.928-2.109,5.755-4.412.117-.328-.4-.468-.521-.143" transform="translate(-1067.091 -1232.394)" fill="#2e0c12"/>
        <path id="Trazado_1226616" data-name="Trazado 1226616" d="M1522.151,1539.314c-.152-1.583-.493-6.794-.867-6.792a1.041,1.041,0,0,0-.527.3.775.775,0,0,1-1.1-.075,4.112,4.112,0,0,0-3.471-1.48c-.744.018-2.225-.047-2.829.5a2.023,2.023,0,0,0-.527,1,1.829,1.829,0,0,0-.405-.284.461.461,0,0,0-.641.519c-.481,1.79-.883,3.595-1.228,5.414l-.091.265a18.27,18.27,0,0,0-1,2.3c-.49,1.418-1.511,3.277-.08,4.434,1.9,1.539,3.542,1.558,5.945,1.586,2.247.026,5.414-.229,6.774-2.355a2.544,2.544,0,0,0,.331-.856,16.329,16.329,0,0,0-.281-4.474" transform="translate(-1205.396 -1222.276)" fill="#fae7dc"/>
        <path id="Trazado_1226617" data-name="Trazado 1226617" d="M1525.827,1541.3a25.294,25.294,0,0,0-1.2,5.5c-.037.345.5.342.539,0a24.674,24.674,0,0,1,1.183-5.361c.112-.329-.409-.471-.52-.143" transform="translate(-1218.152 -1230.141)" fill="#2e0c12"/>
        <path id="Trazado_1226618" data-name="Trazado 1226618" d="M1562.052,1543.054a14.721,14.721,0,0,1,.195,4.328c-.035.345.505.343.539,0a15.215,15.215,0,0,0-.214-4.472c-.067-.34-.587-.2-.521.143" transform="translate(-1248.035 -1231.419)" fill="#2e0c12"/>
        <path id="Trazado_1226619" data-name="Trazado 1226619" d="M515.333,486.882a10.268,10.268,0,0,0-3.778-3.279c-4.372-2.2-11.042-1.014-14.8,1.91-2.738,2.132-3.516,5.358-3.95,8.538-.525,3.84-1.159,8.116-3.432,11.414-1.261,1.828-3.1,3.5-3.683,5.679-.639,2.39-.078,4.869-1.147,7.207a11.712,11.712,0,0,0-1.458,4.029c-.12,1.883.777,5.6,3.167,5.834a.468.468,0,0,0,.139-.014,22.468,22.468,0,0,0,2.584-.3,21.669,21.669,0,0,1,3.774-.828c5.166-.541,9.912,5.017,14.911,1.9a9.7,9.7,0,0,0,4.649-7.657c.19-2.543,4.489-1.369,5.571-3.66,1.488-3.152,1.63-11.669,0-15.032-.805-1.661-.589-3.979-.693-5.757-.1-1.763.1-3.534-.081-5.294a10,10,0,0,0-1.774-4.691" transform="translate(-386.446 -384.777)" fill="#964939"/>
        <path id="Trazado_1226620" data-name="Trazado 1226620" d="M559.706,559.916a11.867,11.867,0,0,0,6.114-3.061,14.053,14.053,0,0,0,1.452-1.957c-1.251-.153-2.858-.633-3.308-2.026a10.631,10.631,0,0,1-.121-2.8c-.035-2.136-.032-4.272,0-6.408a.794.794,0,0,0-.137-.462,22.109,22.109,0,0,0-4.254-6.772c-1.272-1.367-3.072-3.21-4.927-1.9-.017.012-.029.026-.044.039a.7.7,0,0,0-.943.756c.38,4.282.77,8.57.846,12.874.052,2.971.288,5.744-1.417,8.382a18.6,18.6,0,0,1-2.87,3.138,18.868,18.868,0,0,0,9.613.193" transform="translate(-439.961 -425.996)" fill="#f59e73"/>
        <path id="Trazado_1226621" data-name="Trazado 1226621" d="M701.951,1370.985c-1.518-2.864.754-26.629.79-27.491.235-5.635-4.107-3.872-8.69-4.422a1.94,1.94,0,0,0-1.47.749q.779,15.866-.021,31.731a.717.717,0,0,0,.021.137c-.048.466-.089.932-.1,1.392a2.077,2.077,0,0,0,1.176,2.255c1.386.631,3.29.366,4.768.35,1.687-.018,3.58.117,5.154-.557a.643.643,0,0,0,.428-.661c.95.111-1.58-2.595-2.051-3.483" transform="translate(-553.656 -1068.798)" fill="#fae7dc"/>
        <path id="Trazado_1226622" data-name="Trazado 1226622" d="M775.654,571.737a1.335,1.335,0,0,0-.094-.284,7.362,7.362,0,0,0-4.9-4.054,1.223,1.223,0,0,0-1.152.3,1.167,1.167,0,0,0-.656.446c-3,3.971-7,10.255-12.278,10.9a102.57,102.57,0,0,1-16.652.372,1.125,1.125,0,0,0-.955.415c-.886-.12-1.857.684-1.268,1.637,1.746,2.824,1.24,7.779,1.455,10.994.051.689,13.871-.458,16.039-.945,2.191-.493,4.879-.833,6.821-2a11.176,11.176,0,0,0,1.571-1.2,79.317,79.317,0,0,0,6.143-6.072,42.765,42.765,0,0,0,6.2-8.96,1.273,1.273,0,0,0-.274-1.554" transform="translate(-589.626 -452.569)" fill="#f59e73"/>
        <path id="Trazado_1226623" data-name="Trazado 1226623" d="M521.59,1377.8c1.5.025,2.957.141,4.016-.994a2.066,2.066,0,0,0,.629-1.72c-1.444-2.619-1.138-6.092-.716-9.039.59-4.116,3.912-17.8,3.571-20.064-.154-1.016-.838-.933-1.782-1.294a.643.643,0,0,0-.778.195,6.576,6.576,0,0,0-7.811.743.684.684,0,0,0-.131.92q-.505,6.866-1.011,13.732c-.249,3.38-.76,6.731-1.3,10.073-.107.661-.448,3.028-.716,4.9a1.472,1.472,0,0,0,.733,1.519,12.332,12.332,0,0,0,5.3,1.031" transform="translate(-412.371 -1072.681)" fill="#fae7dc"/>
        <path id="Trazado_1226624" data-name="Trazado 1226624" d="M666.655,943.785a.992.992,0,0,0-1.261-.774c-1.5-3.767-4.3-7.5-8.826-7.166-4.015.3-6.6,4.737-7.421,8.237-3.144,13.344-.077,26.1,1.015,39.4a124.585,124.585,0,0,1-.136,19.939c-.51,7.168-.793,14.35-1.024,21.532-.082,2.565-.717,8.837-.184,9.856.644,1.233,8.362,2.149,11.384,2.06,2.608-.077,11.424.257,13.35-1.555a.951.951,0,0,0,.219-.948,345.2,345.2,0,0,0-7.115-90.584" transform="translate(-517.958 -746.798)" fill="#cf5f4c"/>
        <path id="Trazado_1226625" data-name="Trazado 1226625" d="M525.867,967.2c-.051-10.375-.755-20.777-1.175-31.143a1.084,1.084,0,0,0-.819-1.029c-4.359-3.678-10.083-7.792-15.967-5.073-5.831,2.694-7.772,8.082-8.336,13.778-.845,8.538-.184,19.71-.445,28.282-.592,19.415-6.942,38.1-7.189,57.545-.013,1.034,12.857,3.509,23.961-.174a2.394,2.394,0,0,0,1.256-1.457c3.965-8.406,8.765-50.629,8.716-60.731" transform="translate(-393.52 -741.411)" fill="#cf5f4c"/>
        <path id="Trazado_1226626" data-name="Trazado 1226626" d="M661.939,998.713c-1.19,2.557-3.138,4.833-3.768,7.629-.553,2.455-.312,5.167-.293,7.672.041,5.479.2,10.987-.2,16.456-.026.347.514.345.54,0,.383-5.141.255-10.318.211-15.469a65.946,65.946,0,0,1,.073-7.248c.342-3.323,2.542-5.836,3.907-8.766.146-.313-.319-.587-.466-.272" transform="translate(-525.867 -796.905)" fill="#2e0c12"/>
        <path id="Trazado_1226627" data-name="Trazado 1226627" d="M530.252,1192.7q.248,7.475-.024,14.949c-.013.347.527.347.54,0q.272-7.474.024-14.949c-.012-.346-.551-.348-.54,0" transform="translate(-424.098 -951.713)" fill="#2e0c12"/>
        <path id="Trazado_1226628" data-name="Trazado 1226628" d="M681.052,1109.346q-2.869,19.239-4.822,38.6c-.035.345.505.343.54,0q1.945-19.281,4.8-38.453c.051-.34-.469-.486-.52-.144" transform="translate(-540.683 -885.204)" fill="#2e0c12"/>
        <path id="Trazado_1226629" data-name="Trazado 1226629" d="M692.288,622.212c-.273-.508-14.044-1.324-16.261-1.357a88.187,88.187,0,0,0-11.924.849c-.416.059,3.584,9.691,5.388,14.059,1.481,3.586,2.8,9.437,5.869,11.944.331.271,2.03,3.148,2.321,2.966,4.651-.2,14.285-6.264,16.263-9.025.823-1.149-.444-16.841-1.656-19.436" transform="translate(-530.977 -495.282)" fill="#fae7dc"/>
        <path id="Trazado_1226630" data-name="Trazado 1226630" d="M558.978,498.637a.958.958,0,0,0-.331-.193c-4.143-1.452-9.9.3-11.505,4.392-.981,2.5.018,5.236,1.725,7.231a18.625,18.625,0,0,1,3.144,5.639,8.843,8.843,0,0,0,1.217,2.681c1.153,1.2,3.6,1.046,5.158,1.157,2.036.145,4.281.05,5.617-1.643,1.408-1.785,1.069-3.417,1.18-5.5.3-5.58.31-11.843-6.2-13.759" transform="translate(-437.295 -397.134)" fill="#f59e73"/>
        <path id="Trazado_1226631" data-name="Trazado 1226631" d="M535.476,712.263c-.078-.563-.154-1.118-.212-1.658-1.322-12.19-1.726-24.734-3.346-36.889-.747-5.637-1.265-11.366-2.255-16.965-1-5.68-2.664-11.217-3.774-16.875-.822-4.19-.575-14.719-7.944-14.783a76.418,76.418,0,0,0-11.844.7,1.137,1.137,0,0,0-.441.844c-.314,2.729-5.061,2.826-7.015,2.726a18.493,18.493,0,0,1-5.225-1.15c-1.288-.455-13.393,3.009-16.853,9.086-1.426,2.5,3.469,8.18,4.062,10.833,1.171,5.238-.036,6.936,1.092,12.161.221,1.025.426,2.055.624,3.086.689,3.589,1.609,27.9,1.5,34.2-.061,3.488.067,6.974.124,10.462.066,4.062-.935,11.869-.843,12.7.2,1.8,1.6,3.414,8.936,3.2a147.437,147.437,0,0,0,20.524-1.778A200.763,200.763,0,0,1,534.62,720.1a.834.834,0,0,0,.786-.566c.78-2.273.4-4.852.069-7.274" transform="translate(-381.041 -498.666)" fill="#fae7dc"/>
        <path id="Trazado_1226632" data-name="Trazado 1226632" d="M423.652,789.553c-3.465-1.353-8.229-6.6-10.544-11.017-.883-1.683-.731-1.8.246-3.555.641-1.151,2.5-5.183,3.11-6.094-.8-1.483-1.624-2.958-2.527-4.387-1.345-2.13-2.842-4.254-4.219-6.424-1.625,2.656-3.308,5.8-4.97,9.1-1.528,3.029-3.245,7.5-3.052,9.469.258,2.637,3.395,6.242,5.586,8.75q1.92,2.2,3.932,4.308c1.3,1.363,6.363,6.355,7.443,6.881a3.352,3.352,0,0,0,3.055-.213c2.162-.995,4.022-6.005,1.941-6.818" transform="translate(-321.449 -604.86)" fill="#f59e73"/>
        <path id="Trazado_1226633" data-name="Trazado 1226633" d="M435.048,665.961c-6.5,4.163-14.923,22.108-15.832,24.522-.418,1.109,3.985,10.554,11.454,14.511,7.865,4.166,14.04-18.281,13.526-27.341-.184-3.249-8.568-12.063-9.148-11.692" transform="translate(-335.429 -531.295)" fill="#fae7dc"/>
        <path id="Trazado_1226634" data-name="Trazado 1226634" d="M597.483,1024.541a146.409,146.409,0,0,1-37.425,7.792c-.344.026-.347.565,0,.539a146.96,146.96,0,0,0,37.569-7.811c.326-.114.186-.635-.143-.52" transform="translate(-447.711 -817.628)" fill="#2e0c12"/>
        <path id="Trazado_1226635" data-name="Trazado 1226635" d="M632.727,785.519a353.842,353.842,0,0,1-9.846,46.877.27.27,0,0,0,.521.144,353.925,353.925,0,0,0,9.845-46.877c.047-.34-.472-.486-.52-.143" transform="translate(-498.076 -626.619)" fill="#2e0c12"/>
        <path id="Trazado_1226636" data-name="Trazado 1226636" d="M532.514,1492.791a3.359,3.359,0,0,0-1.39-3.073c-1.38-.755-2.912-1.153-4.336-1.82-4.426-2.073-5.568-6.107-6.6-6.735-.97-.588-5.115-.664-5.519,1.628-.674-.517-4.233-1.352-4.665-.294-.495,1.21-1.35,7.425-.821,8.125.275.364,1.333.5,1.755.607a16.527,16.527,0,0,0,2.924.557,29.972,29.972,0,0,1,7.431,1.564c4.579,1.372,11.188.841,11.226-.558" transform="translate(-407.155 -1181.988)" fill="#59242e"/>
        <path id="Trazado_1226637" data-name="Trazado 1226637" d="M533.334,1526.106a19.526,19.526,0,0,1-10.167-.291c-1.616-.528-2.806-1.427-4.574-1.562-2.2-.167-4.178.136-6.306-.714-.322-.129-.462.393-.143.52a14.891,14.891,0,0,0,5.686.707c2.182.031,3.627,1.168,5.624,1.675a20.538,20.538,0,0,0,10.024.184.27.27,0,0,0-.143-.52" transform="translate(-409.513 -1216.09)" fill="#2e0c12"/>
        <path id="Trazado_1226638" data-name="Trazado 1226638" d="M537.343,1492.094a19,19,0,0,0,3.626,5.3c.242.25.623-.132.382-.382a18.585,18.585,0,0,1-3.542-5.19c-.145-.315-.61-.041-.466.272" transform="translate(-429.757 -1190.667)" fill="#2e0c12"/>
        <path id="Trazado_1226639" data-name="Trazado 1226639" d="M543.739,1496.657a4.833,4.833,0,0,1,6.452-.279l.136-.5c-2.178,0-3.741,1.176-5.167,2.719-.168.182-.006.553.263.451,2.458-.934,5.077-1.834,7.567-.482q.032-.247.064-.493a10.248,10.248,0,0,0-4.037,2.357c-.271.217.113.6.382.382a9.692,9.692,0,0,1,3.8-2.218.273.273,0,0,0,.065-.493c-2.635-1.43-5.349-.573-7.982.428l.263.451c1.312-1.419,2.756-2.56,4.785-2.561a.272.272,0,0,0,.136-.5,5.336,5.336,0,0,0-7.105.364c-.255.237.127.617.382.382" transform="translate(-434.515 -1193.1)" fill="#2e0c12"/>
        <path id="Trazado_1226640" data-name="Trazado 1226640" d="M542.377,1491.021c1.143-1.115,2.689-3.243,4.513-2.635.33.11.472-.411.143-.52-2.1-.7-3.732,1.5-5.038,2.773-.249.243.133.624.381.381" transform="translate(-433.429 -1187.512)" fill="#2e0c12"/>
        <path id="Trazado_1226641" data-name="Trazado 1226641" d="M563.565,1476.829a19.25,19.25,0,0,1,3.918-1.994c.521-.184,5.322-1.36,4.527.434-.35.79-3.452,1.048-4.134,1.109a18.9,18.9,0,0,1-3.836-.085c-.344-.039-.342.5,0,.54a16.766,16.766,0,0,0,6.142-.3c.713-.187,3.206-.769,2.957-1.868-.265-1.172-2.852-.99-3.667-.887a15.51,15.51,0,0,0-6.18,2.584c-.291.187-.021.654.272.466" transform="translate(-450.401 -1176.31)" fill="#2e0c12"/>
        <path id="Trazado_1226642" data-name="Trazado 1226642" d="M561.427,1468.005c.133-1.438.849-3.6,2.213-4.361q.407-.437,1.035.171a3.23,3.23,0,0,1-.335.85,4.642,4.642,0,0,1-.76,1,11.452,11.452,0,0,1-2.054,1.542c-.291.188-.021.655.272.466a8.364,8.364,0,0,0,3.008-2.733c.325-.586.9-1.96-.048-2.289-.935-.322-2.041,1.077-2.494,1.68a7.115,7.115,0,0,0-1.377,3.677c-.032.346.508.343.539,0" transform="translate(-448.579 -1167.444)" fill="#2e0c12"/>
        <path id="Trazado_1226643" data-name="Trazado 1226643" d="M708.68,1492.078a3.387,3.387,0,0,0-1.353-3.123c-1.38-.784-2.919-1.21-4.344-1.905-4.431-2.163-5.518-6.25-6.553-6.9-.969-.609-5.148-.752-5.594,1.553-.671-.532-4.247-1.431-4.7-.372-.519,1.212-1.482,7.468-.959,8.182.272.372,1.337.527,1.76.64a16.691,16.691,0,0,0,2.941.608,30.251,30.251,0,0,1,7.471,1.7c4.6,1.458,11.272,1.028,11.331-.382" transform="translate(-547.708 -1181.151)" fill="#59242e"/>
        <path id="Trazado_1226644" data-name="Trazado 1226644" d="M709.522,1525.128a17.361,17.361,0,0,1-6.467.19,14.959,14.959,0,0,1-4.179-.817,12.988,12.988,0,0,0-4.193-1.48c-2.221-.2-4.217.069-6.349-.823-.32-.134-.46.388-.143.52a15.023,15.023,0,0,0,5.723.8c2.2.066,3.649,1.241,5.646,1.782a20.776,20.776,0,0,0,10.106.345.27.27,0,0,0-.143-.521" transform="translate(-550.092 -1215.018)" fill="#2e0c12"/>
        <path id="Trazado_1226645" data-name="Trazado 1226645" d="M714.12,1490.887a19.173,19.173,0,0,0,3.573,5.4c.238.254.619-.128.382-.382a18.743,18.743,0,0,1-3.489-5.293c-.14-.317-.6-.043-.466.272" transform="translate(-570.92 -1189.702)" fill="#2e0c12"/>
        <path id="Trazado_1226646" data-name="Trazado 1226646" d="M720.388,1495.828a4.838,4.838,0,0,1,6.461-.215l.191-.46c-2.189-.034-3.794,1.133-5.253,2.662-.175.183,0,.547.262.451,2.5-.9,5.15-1.765,7.641-.361q.032-.246.064-.493a10.271,10.271,0,0,0-4.107,2.313c-.274.213.111.592.382.381a9.842,9.842,0,0,1,3.869-2.175.273.273,0,0,0,.064-.493c-2.633-1.484-5.388-.659-8.057.306l.262.451c1.361-1.427,2.8-2.536,4.872-2.5.216,0,.38-.311.19-.461a5.393,5.393,0,0,0-7.224.215c-.259.233.124.613.382.382" transform="translate(-575.572 -1192.476)" fill="#2e0c12"/>
        <path id="Trazado_1226647" data-name="Trazado 1226647" d="M719.017,1490.138c1.177-1.112,2.755-3.229,4.6-2.581.328.115.469-.406.143-.521-2.1-.737-3.788,1.459-5.123,2.72-.253.239.129.62.382.382" transform="translate(-574.48 -1186.839)" fill="#2e0c12"/>
        <path id="Trazado_1226648" data-name="Trazado 1226648" d="M740.631,1476.37a19.385,19.385,0,0,1,3.985-1.947c.529-.178,5.4-1.284,4.553.518-.368.781-3.6,1.007-4.189,1.051a18.974,18.974,0,0,1-3.868-.147c-.343-.045-.34.5,0,.539a16.914,16.914,0,0,0,6.2-.2c.721-.177,3.245-.724,3.006-1.837-.253-1.181-2.862-1.039-3.685-.948a15.656,15.656,0,0,0-6.273,2.508c-.295.182-.024.649.272.466" transform="translate(-591.791 -1176.018)" fill="#2e0c12"/>
        <path id="Trazado_1226649" data-name="Trazado 1226649" d="M625.409,527.056a2.8,2.8,0,0,0-1.98-.626,1.854,1.854,0,0,0-1.416,1.238.788.788,0,0,0,.888,1,4.236,4.236,0,0,1,1.92-.064c.288.093.662.194.894-.1.425-.537.177-1.06-.306-1.449" transform="translate(-497.374 -419.864)" fill="#964939"/>
        <path id="Trazado_1226650" data-name="Trazado 1226650" d="M584.687,525.228a3.867,3.867,0,0,0-1.936.4,3.591,3.591,0,0,0-1.366,1.07,1.082,1.082,0,0,0,.022,1.122.979.979,0,0,0,1.2.183,4.462,4.462,0,0,1,2.425-.353c.5.053,1.068.179,1.318-.413.462-1.095-.818-1.962-1.659-2.007" transform="translate(-464.832 -418.92)" fill="#964939"/>
        <path id="Trazado_1226651" data-name="Trazado 1226651" d="M538.287,901.2c-1.706.089-4.154-.212-5.736.509-1.5.685-2.131,1.741-4.334,2.493-1.456.5-.365,2.883,1.013,2.174.377-.194.744-.4,1.109-.617a1.132,1.132,0,0,0,1.057.061,39.056,39.056,0,0,1,6.092-2.392c1.28-.365,1.87-2.285.8-2.229" transform="translate(-421.94 -719.146)" fill="#f59e73"/>
        <path id="Trazado_1226652" data-name="Trazado 1226652" d="M738.458,1467.166a6.55,6.55,0,0,1,2.209-4.284c.54-.464,1.171-.278,1.04.435a3.538,3.538,0,0,1-1.039,1.529,11.569,11.569,0,0,1-2.1,1.522c-.294.183-.023.65.272.466a7.825,7.825,0,0,0,3.229-3c.281-.594.694-1.837-.27-2.045-.913-.2-1.912,1.028-2.4,1.641a7.154,7.154,0,0,0-1.486,3.738c-.037.345.5.342.539,0" transform="translate(-589.944 -1166.777)" fill="#2e0c12"/>
        <path id="Trazado_1226653" data-name="Trazado 1226653" d="M506.563,918.311c-1.037-1.189-3.139-3.411-4.637-4.019a15.131,15.131,0,0,0-2.324-.7,9.543,9.543,0,0,1-2.431-.548.73.73,0,0,1,.324-.384,5.14,5.14,0,0,1,2.055-.253,6.078,6.078,0,0,1,4.047,1.747c.686.57,2.512-.1,1.827-.788-1.6-1.617-2.787-2.64-4.621-3.074a15.181,15.181,0,0,0-4.871-.125c-2.017.188-3.992.72-6,.9a7.522,7.522,0,0,1-5.086-1.361s-4.487,6.951-4.321,7.085a22.932,22.932,0,0,0,6.115,3.985c3.012,1.127,5.672,1.177,6.765,1.582a3.4,3.4,0,0,1,1.708,1.4,5.728,5.728,0,0,0,2.38,2.195c.807.264,1.579-.2,1.226-1.113a8.364,8.364,0,0,0-.569-1.015c-.506-.91-1.007-1.825-1.578-2.7a6.42,6.42,0,0,0-.673-.828c-.083-.09-.35-.283-.37-.4-.035-.211.207-.482.407-.44a11.744,11.744,0,0,1,2.454.512,12.165,12.165,0,0,1,3.135,2.226c.828.73,2.959.314,1.658-1.415a21.435,21.435,0,0,0-3.974-3.467,7.018,7.018,0,0,0-2.241-.964.174.174,0,0,1-.108-.062.182.182,0,0,1-.017-.105c.006-.145-.047-.471.182-.428,1.864.352,3.723.609,5.242,1.79a12.019,12.019,0,0,0,2.783,1.821c.74.194,2.246-.2,1.509-1.047" transform="translate(-384.406 -725.939)" fill="#f59e73"/>
        <path id="Trazado_1226654" data-name="Trazado 1226654" d="M557.784,909.188a31,31,0,0,0-4.129.393c-.342.056-.2.576.144.521a29.885,29.885,0,0,1,3.986-.374.27.27,0,0,0,0-.54" transform="translate(-442.648 -725.528)" fill="#c45547"/>
        <path id="Trazado_1226655" data-name="Trazado 1226655" d="M609.139,636.334c-.73,3.545-3.871,5.454-6.793,7.12a.27.27,0,0,0,.272.466c3.045-1.736,6.282-3.758,7.041-7.442.07-.339-.45-.484-.52-.143" transform="translate(-481.581 -507.491)" fill="#2e0c12"/>
        <path id="Trazado_1226656" data-name="Trazado 1226656" d="M904.352,474.6a.806.806,0,0,0-.983-.983c-3.041.745-5.515,3.455-7.237,6.125-.072-.1-.13-.214-.208-.315,1-2.033,1.743-4.418,3.188-6.005.965-1.06,3.2-2.492,2.989-4.124a.812.812,0,0,0-1.2-.69,12.769,12.769,0,0,0-4.462,3.979,24.565,24.565,0,0,0-1.618,2.6c-.248.453-.486.911-.719,1.372-.134.265-.244.827-.644.708-.491-.145-.069-1.011.026-1.35a12.984,12.984,0,0,1,1.455-3.363,7.333,7.333,0,0,0,1.495-4.208.808.808,0,0,0-.946-.779,1.735,1.735,0,0,0-.776.475c-2.183,2.011-3.435,5.139-4.506,7.841-.265.669-.71,2.271-1.008,3.167a.081.081,0,0,1-.156-.026c-.415-3.118-1.227-4.046-2.012-3.841-1.339.35-.842,3.173-.869,4.551-.055,2.831.059,5.675.122,8.509a15.594,15.594,0,0,1-1.063,2.257c-.275.478,5.876,7.674,5.971,7.562a25.6,25.6,0,0,0,2.954-4.513c.78-1.452,3.553-6.746,4.321-8.069a6.081,6.081,0,0,1,1.663-1.86c1.077-.787,2.412-1.055,3.512-1.792a.919.919,0,0,0-.453-1.684,6.727,6.727,0,0,0-4.413,1.392.084.084,0,0,1-.119-.115,23.951,23.951,0,0,1,2.355-2.863c1.188-1.243,2.747-2.3,3.343-3.961" transform="translate(-707.561 -372.871)" fill="#f59e73"/>
        <path id="Trazado_1226657" data-name="Trazado 1226657" d="M906.172,530.445a15.957,15.957,0,0,1,.806,7.664c-.047.34.473.487.52.143a16.5,16.5,0,0,0-.806-7.951c-.116-.325-.638-.185-.52.143" transform="translate(-724.287 -422.829)" fill="#c45547"/>
        <path id="Trazado_1226658" data-name="Trazado 1226658" d="M567.119,571.857c.685,1.364.8,2.7,1.785,3.935a6.237,6.237,0,0,0,1.942,1.7,10.544,10.544,0,0,0,5.643,1.066c.341-.038.345-.578,0-.54a10.115,10.115,0,0,1-5.371-.992c-2.276-1.174-2.516-3.417-3.533-5.443-.156-.31-.622-.037-.466.272" transform="translate(-453.531 -455.833)" fill="#c45547"/>
        <path id="Trazado_1226659" data-name="Trazado 1226659" d="M562.248,501.941a2.729,2.729,0,0,0-.083-1.417c-.388-4.124-2.316-10.3-6.373-11.568-.116-.188-.44.08-.626.128a13.57,13.57,0,0,0-8.432.835c-2.43,1.083-3.753,3.084-4.7,5.524-1.2,3.083.758,5.276.734,8.378-.023,2.945-.968,5.7.615,8.42a.408.408,0,0,0,.218.181c-.006.067-.019.129-.022.2-.027.575.375,3.5.5,2.941.67-2.918,4-4.571,4.977-6.947,1.125-2.737-.842-8.245,1.346-10.643,1.6-1.758,4.277-2.191,5.23-4.573a1.237,1.237,0,0,1,.193-.371c.449-.511,1.779-.152,2.3.1a2.862,2.862,0,0,1,1.5,1.861c.333,1.2,1.306,4.631,1.675,5.912.032.394.05.752.054,1.06.007.487.775.628.877.119.009-.044.006-.077.015-.135" transform="translate(-433.216 -389.789)" fill="#964939"/>
        <path id="Trazado_1226660" data-name="Trazado 1226660" d="M627.562,540.469a.965.965,0,0,0-.768.571,2.578,2.578,0,0,0-.033,1.722c.158.548.681,1.053,1.194.75.792-.467.759-3.077-.394-3.043" transform="translate(-501.077 -431.095)" fill="#1a0504"/>
        <path id="Trazado_1226661" data-name="Trazado 1226661" d="M591.1,540.441a1.079,1.079,0,0,0-.853.576,2.346,2.346,0,0,0-.046,1.722c.172.548.749,1.049,1.319.744.879-.472.857-3.082-.42-3.042" transform="translate(-471.874 -431.073)" fill="#1a0504"/>
        <path id="Trazado_1226662" data-name="Trazado 1226662" d="M620.314,549.538c.4.308.932.693.963,1.251a1.439,1.439,0,0,1-.849,1.309c-.325.115-.185.637.143.52a1.989,1.989,0,0,0,1.23-1.582,2.138,2.138,0,0,0-1.1-1.878c-.271-.21-.656.169-.382.382" transform="translate(-495.959 -437.983)" fill="#c45547"/>
        <path id="Trazado_1226663" data-name="Trazado 1226663" d="M610.319,560.725a1.936,1.936,0,0,1,1.212-.213c.347.014.346-.526,0-.54a2.394,2.394,0,0,0-1.484.287c-.287.193-.017.66.272.466" transform="translate(-487.737 -446.663)" fill="#c45547"/>
        <path id="Trazado_1226664" data-name="Trazado 1226664" d="M555.928,544.126a2.4,2.4,0,0,0-.6-.564.967.967,0,0,0-1.461.368,1.994,1.994,0,0,0,.338,1.922,3.96,3.96,0,0,0,1.156,1.243,4.988,4.988,0,0,0,.567-2.968" transform="translate(-442.874 -433.416)" fill="#f59e73"/>
        <path id="Trazado_1226665" data-name="Trazado 1226665" d="M638.571,588.833a5.481,5.481,0,0,1-.211,5.075.27.27,0,0,0,.466.272,6.056,6.056,0,0,0,.212-5.62c-.146-.315-.611-.041-.466.272" transform="translate(-510.414 -469.387)" fill="#66281b"/>
        <path id="Trazado_1226666" data-name="Trazado 1226666" d="M571.3,491.667c-2.371.553-4.928,1.386-6.364,3.505s-1.474,5.083-1.068,7.524c.057.342.577.2.52-.143-.384-2.309-.338-5.092,1.014-7.108,1.338-2,3.832-2.742,6.041-3.257.338-.079.2-.6-.143-.52" transform="translate(-450.779 -392.119)" fill="#66281b"/>
        <path id="Trazado_1226667" data-name="Trazado 1226667" d="M551.5,592a14.76,14.76,0,0,0-1.975,3.752c-.412,1.809.282,3.188-.984,4.866-.209.277.259.546.466.272a4.987,4.987,0,0,0,1.034-3.271c0-2.155.878-3.536,1.926-5.347A.27.27,0,0,0,551.5,592" transform="translate(-438.679 -472.139)" fill="#66281b"/>
        <path id="Trazado_1226668" data-name="Trazado 1226668" d="M584.653,526.193a9,9,0,0,0-2.2,1.909c-.22.265.16.649.382.382a8.556,8.556,0,0,1,2.091-1.825c.295-.182.024-.649-.272-.466" transform="translate(-465.748 -419.662)" fill="#66281b"/>
        <path id="Trazado_1226669" data-name="Trazado 1226669" d="M610.106,573.215a.555.555,0,0,0-.624-.484h-1.9a3.673,3.673,0,0,0-1.452.175c-.151.07-.239.22-.171.331a3.186,3.186,0,0,0,2.855.787c1.062-.247,1.308-.655,1.29-.811" transform="translate(-484.555 -456.857)" fill="#fff"/>
        <path id="Trazado_1226670" data-name="Trazado 1226670" d="M722.549,688.676a45.875,45.875,0,0,1,1.039,13.412c-.024.347.516.345.54,0a46.4,46.4,0,0,0-1.058-13.555c-.077-.338-.6-.2-.52.143" transform="translate(-577.666 -549.174)" fill="#2e0c12"/>
        <path id="Trazado_1226671" data-name="Trazado 1226671" d="M518.24,749.121a45.055,45.055,0,0,1-5.972,18.149.27.27,0,0,0,.466.272,45.718,45.718,0,0,0,6.046-18.421c.036-.345-.5-.342-.539,0" transform="translate(-409.725 -597.504)" fill="#2e0c12"/>
        <path id="Trazado_1226672" data-name="Trazado 1226672" d="M1006.288,629.017a.423.423,0,0,0-.439-.237,1.834,1.834,0,0,0-1.236.62c.226-.781.468-1.56.7-2.348.234-.8.911-2.157.332-2.917a.4.4,0,0,0-.384-.148,1.351,1.351,0,0,0-.991.618,7.024,7.024,0,0,0,.47-2.361.635.635,0,0,0-.934-.352,8.771,8.771,0,0,0-1.416,2.282,10.456,10.456,0,0,0-.607,1.418c-.09.241-.18.483-.279.721-.069.167-.18.578-.344.658-.363-.32.105-1.319.227-1.657.082-.227.209-.58.052-.794a.576.576,0,0,0-.679-.135c-1.33.653-2.058,2.624-2.529,4.37-.045.014-.08.049-.127.065-1.167.382-1.451,2.3-1.621,3.3a11.9,11.9,0,0,0,.014,4.252,9.747,9.747,0,0,1,.374,4.228.411.411,0,0,0,0,.2,25.178,25.178,0,0,1-1.578,4.8.36.36,0,0,0-.013.059.37.37,0,0,0,.309.582,5.148,5.148,0,0,1,3.482,1.307,16.129,16.129,0,0,0,1.485,1.376.417.417,0,0,0,.413.027c.782-.428.94-1.9,1.18-2.663.418-1.321,1.22-3.165,1.184-4.6a38.9,38.9,0,0,0,1.613-4.813,5.941,5.941,0,0,0,.289-2.273c.209-.986.465-1.959.758-2.942a4.2,4.2,0,0,0,.293-2.646" transform="translate(-795.412 -496.032)" fill="#f59e73"/>
        <path id="Trazado_1226673" data-name="Trazado 1226673" d="M1052.221,677.245a1.345,1.345,0,0,0-1.355-1.664c-1.936-.271-16.349-.3-17.986.414a.248.248,0,0,0-.147.349.292.292,0,0,0-.01.159c.517,2.394.525,4.912,1.529,7.2a7.4,7.4,0,0,0,2.13,2.647c1.354,1.209,1.671,2.04,3.692,2.318a16.609,16.609,0,0,0,5.851.125c1.5-.339,2.269-1.489,3.042-2.631.845-1.249,1.987-1.745,2.361-3.274.442-1.807.656-3.644.923-5.476a.3.3,0,0,0-.029-.172" transform="translate(-825.341 -538.845)" fill="#59242e"/>
        <path id="Trazado_1226674" data-name="Trazado 1226674" d="M968.2,282.252a39.359,39.359,0,0,0-4.288-15.193,38.116,38.116,0,0,0-8.341-10.707c-9.872-8.786-25.028-12.231-37.642-8.01-13.687,4.575-23.986,17.343-26.546,31.3-2.937,16.035,1.8,35.015,16.882,43.844.21.124.419.248.636.364a14.305,14.305,0,0,1,3.316,1.939c.9.9,1.322,2.4,1.907,3.547,1.05,2.048,2.322,4.672,4.542,5.673a10.654,10.654,0,0,0,2.349.619,59.64,59.64,0,0,0,15.217.381,8.656,8.656,0,0,0,3.068-.861c1.337-.811,3.385-3.043,4.215-7.1a2.406,2.406,0,0,1,1.348-1.7c15.87-7.463,24.764-26.6,23.333-44.1" transform="translate(-711.833 -196.39)" fill="#ffc04f"/>
        <path id="Trazado_1226675" data-name="Trazado 1226675" d="M1042.76,700.982c5.018,1.462,10.162,1.81,15.127-.041.322-.12.183-.642-.144-.52-4.882,1.82-9.906,1.478-14.841.041a.27.27,0,0,0-.143.52" transform="translate(-833.218 -558.807)" fill="#2e0c12"/>
        <path id="Trazado_1226676" data-name="Trazado 1226676" d="M1057.793,727.181a15.277,15.277,0,0,0,8.8.163.27.27,0,0,0-.143-.52,14.717,14.717,0,0,1-8.514-.163c-.332-.1-.474.416-.143.52" transform="translate(-845.224 -579.764)" fill="#2e0c12"/>
        <path id="Trazado_1226677" data-name="Trazado 1226677" d="M1011.675,432.418c-.544-10.213-1.494-20.433-2.662-30.592a110.884,110.884,0,0,0-1.929-12.9c-.573-2.417-1.635-5.706-4.08-6.842-2.14-.993-3.744,1.038-4.365,2.865-2.43,7.145-.11,16.367,3.187,22.865,1.391,2.743,3.4,5.341,6.276,6.619,3.193,1.418,6.957,1.175,10.317.611,5.77-.97,8.331-7.867,10.241-12.706a32.562,32.562,0,0,0,2.471-11.628c.018-2.382,0-6.86-2.5-8.187-2.871-1.525-5.275,2.455-6.1,4.57-1.691,4.344-2.2,9.149-2.773,13.744-1.311,10.5-2.008,21.07-3.206,31.585-.039.344.5.342.539,0,.878-7.712,1.495-15.449,2.271-23.172.4-3.931.823-7.863,1.379-11.775a45.19,45.19,0,0,1,2.311-10.239c.709-1.794,2.508-5.1,4.955-4.389,2.056.6,2.338,4,2.491,5.7a28.059,28.059,0,0,1-1.325,10.694,52.41,52.41,0,0,1-3.63,8.529c-1.227,2.386-2.784,5.3-5.431,6.312a18.533,18.533,0,0,1-10.045.438c-3.475-.847-5.881-3.448-7.528-6.5-3.446-6.384-5.253-14.705-3.67-21.858.355-1.607,1.375-4.232,3.5-3.749,2.236.508,3.4,3.807,3.947,5.7a35.264,35.264,0,0,1,.8,3.734c.717,4.157,1.193,8.357,1.647,12.549,1.01,9.312,1.877,18.666,2.375,28.021.018.345.558.348.54,0" transform="translate(-797.333 -304.408)" fill="#fff"/>
        <path id="Trazado_1226678" data-name="Trazado 1226678" d="M1055.832,643.4a.27.27,0,0,1-.268-.244l-.063-.67a44.7,44.7,0,0,0-1.4-8.6c-.253-.847-2.131-1.523-4.674-1.679-3.106-.192-5.8.459-6.267,1.513a72.088,72.088,0,0,0-1.906,7.569c-.141.642-.261,1.188-.348,1.563a.27.27,0,1,1-.525-.121c.086-.374.205-.918.346-1.558a69.966,69.966,0,0,1,1.939-7.67c.661-1.507,3.987-2.006,6.794-1.834,2.237.138,4.766.753,5.158,2.063a45.144,45.144,0,0,1,1.416,8.7l.064.669a.27.27,0,0,1-.243.294h-.026" transform="translate(-831.467 -503.893)" fill="#2e0c12"/>
        <path id="Trazado_1226679" data-name="Trazado 1226679" d="M928.406,165.259a104.16,104.16,0,0,1,6.115,14.3c.149.436.844.249.694-.191a105.41,105.41,0,0,0-6.187-14.475c-.213-.411-.835-.048-.621.363" transform="translate(-742.02 -131.045)" fill="#ffc04f"/>
        <path id="Trazado_1226680" data-name="Trazado 1226680" d="M1151.812,153.98q-3.343,6.023-6.086,12.342c-.182.421.437.787.621.363q2.743-6.319,6.086-12.342c.225-.405-.4-.768-.621-.363" transform="translate(-915.565 -122.331)" fill="#ffc04f"/>
        <path id="Trazado_1226681" data-name="Trazado 1226681" d="M801.636,317.968c3.439,2.477,7.134,4.561,10.616,6.973.381.264.742-.359.363-.621-3.482-2.413-7.177-4.5-10.616-6.973-.376-.271-.736.353-.363.621" transform="translate(-640.699 -252.872)" fill="#ffc04f"/>
        <path id="Trazado_1226682" data-name="Trazado 1226682" d="M1290.069,301.466a80.251,80.251,0,0,1-10.315,7.337.36.36,0,0,0,.363.621,81.363,81.363,0,0,0,10.461-7.45c.355-.3-.156-.8-.508-.509" transform="translate(-1022.479 -240.173)" fill="#ffc04f"/>
        <path id="Trazado_1226683" data-name="Trazado 1226683" d="M1441.056,1679.172c-2.235-3.708-1.505-19.778-1.877-19.777-3.606.009-7.139.947-10.665,1.712-.39.084-.308.67,0,.813.439,5.048,0,15.7.488,15.813,1.3.306,3.02.99,4.335,1.222,2.527.445,4.27.192,6.76.871a.32.32,0,0,0,.363-.146c.245.392.863-.072.6-.508" transform="translate(-1141.195 -1324.59)" fill="#f59e73"/>
        <path id="Trazado_1226684" data-name="Trazado 1226684" d="M1289.576,1671.252a22.351,22.351,0,0,0,4.4-.566,6.074,6.074,0,0,0,2.217-1.3c.089-5.319-.356-10.748-.521-16.055a.332.332,0,0,0-.656-.1c-2.875-1.519-6.78-2.447-9.619-.624a.334.334,0,0,0-.573.281c.028,3.036.232,6.152.04,9.179a8.354,8.354,0,0,1-3.014,5.967,11.047,11.047,0,0,0,7.727,3.222" transform="translate(-1024.289 -1318.363)" fill="#f59e73"/>
        <path id="Trazado_1226685" data-name="Trazado 1226685" d="M1344.547,749.12c-8.593-1.919-8.552-4.241-9.186-10.1-.422-3.9-.493-7.854-.542-11.77a.776.776,0,0,0-.089-.356c.53-.748-.542-1.745-1.233-1.023a42.677,42.677,0,0,1-5.967,4.744c-1.254.913-3.283,1.989-3.187,3.725a.755.755,0,0,0,.363.616c.157,2.7.429,5.432.429,8.134,0,3.714-3.518,5.357-6.583,6.8a.747.747,0,0,0-.16.119c-.667.126-1.056,1.07-.3,1.448a29.519,29.519,0,0,0,26-.289.715.715,0,0,0,.383-.472c.731-.1.967-1.376.072-1.575" transform="translate(-1052.899 -578.943)" fill="#f59e73"/>
        <path id="Trazado_1226686" data-name="Trazado 1226686" d="M1318.09,850.3a.675.675,0,0,0-.641-.094.612.612,0,0,0-.732-.536,68.819,68.819,0,0,1-27.028-1.7.746.746,0,0,0-.451.022.762.762,0,0,0-1.019.513,6.323,6.323,0,0,1-.968,1.993.751.751,0,0,0,.035.836A40.246,40.246,0,0,0,1284,872.1c.32,3.546,1.382,14.922,2.287,18.363.562,2.135,1.356,8.173,3.557,9.185a5.587,5.587,0,0,0,2.3.347c5.031.05,10.085.236,15.086-.1,3.056-.2,7.028.168,9.706-1.621.357.06.337-7.96.4-8.426l.015-.1a.685.685,0,0,0,.11-.764l3.539-24.515c.724-5.016,1.919-10.882-2.916-14.165" transform="translate(-1025.853 -676.624)" fill="#fff"/>
        <path id="Trazado_1226687" data-name="Trazado 1226687" d="M1136.469,602.1c.477-1.973-.338-4.38-.7-6.319a.653.653,0,0,0-.67-.57,6.524,6.524,0,0,0-.252-1.382c-.112-.354-.321-.9-.765-.917a1.007,1.007,0,0,0-.958.866,1.092,1.092,0,0,1-.084.3c-.184.358-.535.068-.733-.115s-.485-.477-.8-.377a1.745,1.745,0,0,0-.973,1.033c-.483,1.2-1.173,7.67-2.2,7.79-1.4.164-1.074-5.4-2.635-4.654-1.261.6-1.157,2.56-1.292,3.71q-.274,2.335-.4,4.684-.065,1.214-.094,2.43c-.1,3.921,4.213,15.07,4.955,14.96a.878.878,0,0,0,.808-.215,8.453,8.453,0,0,0,5.14-4.619.683.683,0,0,0,.6-.943c-.82-2.176-2.971-7.58-3.047-8.087a2.337,2.337,0,0,1,.428-1.411c.135-.289,3.205-4.223,3.675-6.166" transform="translate(-898.171 -472.97)" fill="#eb8b65"/>
        <path id="Trazado_1226688" data-name="Trazado 1226688" d="M1302.429,1088a.807.807,0,0,0-.622-.708.679.679,0,0,0-.759-.8c-5.066.486-10.111,1.227-15.2,1.449a53.118,53.118,0,0,1-7.722-.168c-1.082-.111-2.3-.359-3.418-.586-1.077-.219-2.941-.921-4.024-.647-1.458.369-1.082,2.65-1.223,3.829q-.3,2.516-.4,5.049c-1.889,9.143-4.5,16.563-5.168,25.865-.684,9.557-.856,21.487-.757,31.065.1,9.245,1.926,37.378,2.268,41.826.171,2.225.334,4.45.469,6.677.069,1.14-.134,5.751.458,6.087,2.03,1.154,8.119.07,11.709-.4,1.71-.225,4.623.207,5.85-1.4.412-.54.369-4.2.377-6.181q.07-16.289.818-32.567.022-.489.045-.978a169.332,169.332,0,0,1,3.121-26.644c.485-2.361.414-5.663,2.049-7.452,4.229-4.625,8.667-9.154,11.114-14.927,3.637-8.583,1.973-19.417,1.018-28.384" transform="translate(-1009.322 -867.093)" fill="#cf5f4c"/>
        <path id="Trazado_1226689" data-name="Trazado 1226689" d="M1379.176,1094.967c-.6-4.678-3.474-7.9-4.87-12.439a1.264,1.264,0,0,0-2.443.344,1.16,1.16,0,0,0-1.009.581c-2.268,3.7-4.2,6.717-7.773,9.445a49.519,49.519,0,0,0-6.566,5.556c-3.394,3.686-5.637,8.52-4.35,13.477.778,3,2.719,5.522,4.122,8.254a25.051,25.051,0,0,1,2.887,10.26c.885,8.088,1.23,17.373,1.6,25.5.7,15.161,2.85,29.074,3.059,44.25.014,1.346,1.04,1.794,2.446,2.107,2.854.637,8.968-.266,11.827-.559,2.657-.272,4.81-.437,4.862-2.69.573-33.2,2.92-79.777-3.794-104.083" transform="translate(-1080.144 -863.287)" fill="#cf5f4c"/>
        <path id="Trazado_1226690" data-name="Trazado 1226690" d="M1314.5,1109.114a53.449,53.449,0,0,0,15.092.508c.342-.037.345-.577,0-.539a52.958,52.958,0,0,1-14.948-.489c-.339-.06-.485.46-.143.52" transform="translate(-1050.209 -884.756)" fill="#2e0c12"/>
        <path id="Trazado_1226691" data-name="Trazado 1226691" d="M1331.6,696.459c-.6.4-1.11,1.861-1.485,2.487a25.058,25.058,0,0,1-1.689,2.534c-1.094,1.4-2.878,3.214-4.793,3.1-2.213-.149-6.537.438-7.757-1.752a8.941,8.941,0,0,1,0-3.707c.063-.539.149-1.079.227-1.588.039-.227.07-.438.11-.641a.357.357,0,0,0-.258-.406c-.75-.211-1.494-.422-1.619-1.157-.117-.665.328-1.095.8-1.478.547-.461,1.11-.9,1.682-1.337.32-.25.555-2.706.7-3.237a6.311,6.311,0,0,1,1.462-2.729c1.939-2.025,5.357-2.6,8-2.917a.959.959,0,0,0,.61-.125,8.441,8.441,0,0,1,7.413,6.06c.844,3.269-1.048,5.317-3.4,6.9" transform="translate(-1050.212 -545.307)" fill="#f59e73"/>
        <path id="Trazado_1226692" data-name="Trazado 1226692" d="M1156.967,718.876c-11.558.8-15.5-3.021-18.064-6.077-4.607-5.5-6.317-13.079-8.942-19.371-.927-2.22-4.259.542-5.269,1.344a34.154,34.154,0,0,0-4.48,4,9.027,9.027,0,0,0-1.8,2.562c-.53,1.465.282,3.533.612,5.022.343,1.551.745,3.09,1.187,4.616a96.223,96.223,0,0,0,4.69,12.65q.533,1.183,1.094,2.354c3.536,7.367,15.879,15.192,22.907,15.027.964-.023,4.849-12,5.6-14.984.084-.331,2.517-7.144,2.458-7.14" transform="translate(-893.642 -552.562)" fill="#d1d5e3"/>
        <path id="Trazado_1226693" data-name="Trazado 1226693" d="M1435.042,834.332c-1.039-1.847-2.877-2.881-4.7-3.82-4.151-2.139-9.831-3.779-14.3-5.122-1.275-.536-1.81.3-2.091,1.1-2.508,7.12-2.772,16.351-2.649,23.832.136,8.243.37,16.934,3.771,24.656a35.209,35.209,0,0,0,2.49,4.838,17.386,17.386,0,0,0,1.756,2.326,16.6,16.6,0,0,0,1.861,1.467.573.573,0,0,1,.168.6,4.248,4.248,0,0,0-.114,1.379c.114,4.345-.509,18.337-.2,21.6.313,3.292,6.163-.894,8.137-2.109,3.034-1.868,5.093-5.112,7.291-7.831,1.934-2.392,1.214-6.526,1.139-9.465-.09-3.529-.283-7.055-.516-10.577-.461-6.979-1.1-13.946-1.758-20.909-.321-3.391-1.161-7.169-.874-10.584.268-3.195,2.24-8.431.583-11.376" transform="translate(-1127.645 -658.478)" fill="#d1d5e3"/>
        <path id="Trazado_1226694" data-name="Trazado 1226694" d="M1235.113,908.338a1.9,1.9,0,0,0,1.9-1.838c.1-2.732.206-5.464.329-8.194.389-8.632,1.422-19.943,2.011-28.563.529-7.748,1.1-15.5,1.847-23.229.771-8.017.086-19.134,4.315-26.231.218-.367.43-.507-.266-.507-5.6,0-14.353,1.949-14.927,2.8-1.5,2.23-4.057,7.524-4.286,10.1-.3,3.37-2.2,4.034-1.59,11.339.863,10.405-6.2,54.676-5.077,61.37a3.4,3.4,0,0,0,.846,1.781c1.95,1.735,12.625,1.156,14.9,1.168" transform="translate(-974.298 -654.13)" fill="#d1d5e3"/>
        <path id="Trazado_1226695" data-name="Trazado 1226695" d="M1294.885,977.751a1.424,1.424,0,0,0-1.967-.533,2.829,2.829,0,0,0-1.362,2.727c.073,1.1.9,2.149,2.112,1.65a3,3,0,0,0,1.217-3.844" transform="translate(-1032.033 -779.687)" fill="#59242e"/>
        <path id="Trazado_1226696" data-name="Trazado 1226696" d="M1285.93,1053.062a1.424,1.424,0,0,0-1.967-.533,2.829,2.829,0,0,0-1.363,2.726c.073,1.1.9,2.149,2.112,1.65a3,3,0,0,0,1.217-3.844" transform="translate(-1024.882 -839.825)" fill="#59242e"/>
        <path id="Trazado_1226697" data-name="Trazado 1226697" d="M1430.267,1082.867c-.651.639-1.054,1.34-1.641,2.017a.7.7,0,0,1-.292.2c-.752.27-1.722.445-2.464.667-2.7.591-7.181.737-8.329,3.488a.417.417,0,0,0,.04.373,2.486,2.486,0,0,0,2,.5,24.925,24.925,0,0,0-1.744,2.685c-.324.585-1.156,2.155-.345,2.7.769.519,1.665-1,2-1.457.465-.631.892-1.345,1.35-1.98a4.77,4.77,0,0,1,.653-.725c.181-.165.448-.467.707-.479s.314.153.123.371a8.722,8.722,0,0,0-.776.933,17.432,17.432,0,0,0-1.632,3.136c-.234.6-.55,1.5-.132,2.086.658.931,1.542-.3,1.911-.827.388-.555.679-1.168,1.036-1.741a7.906,7.906,0,0,1,.783-1.049,3.071,3.071,0,0,1,.861-.782c.5-.239.647-.083.4.055a6.5,6.5,0,0,0-1.415,1.421c-.449.581-1.465,1.924-1.127,2.734.306.733,1.015.29,1.408-.087.354-.339.695-.68,1.038-1.009a.873.873,0,0,0,.058.935c.461.569,1.234.084,1.676-.239.972-.711,1.919-1.456,2.929-2.113,1.621-1.054,3.772-1.519,5.059-3.039a9.86,9.86,0,0,0,2.128-3.983c.11-.376-6.315-4.976-6.259-4.8" transform="translate(-1132.326 -864.212)" fill="#f59e73"/>
        <path id="Trazado_1226698" data-name="Trazado 1226698" d="M1506.682,879.072c-3.922-7.174-11.412-21.6-16.625-24.208-.4-.2-7.317,20.4-5.17,23.48,3.208,4.6,12.095,12.781,13.512,15.085.024.038,4.259,7.639,4.985,6.425,4.633-7.756,7.9-12.368,3.3-20.782" transform="translate(-1186.092 -682.148)" fill="#d1d5e3"/>
        <path id="Trazado_1226699" data-name="Trazado 1226699" d="M1484.285,994.844a1.151,1.151,0,0,0-.925,1.005,72.081,72.081,0,0,0-5.218,8.579c-1.131,2.208-4.375,7.38-5.5,9.172-.6.958,9.606,11.065,12.528,8.511,7.188-6.284,12.379-15.8,13.828-22.758.093-.444-10.057-5.554-14.717-4.509" transform="translate(-1176.626 -793.815)" fill="#d1d5e3"/>
        <path id="Trazado_1226700" data-name="Trazado 1226700" d="M1434.543,676.942a2.7,2.7,0,0,0-2.407-1.549,4.563,4.563,0,0,0-5.236,3.968.36.36,0,0,0-.088.2c-.174,2.076.032,5.263,3.156,5.528a3.247,3.247,0,0,0,2.8-1.089c1.092-1.323-.162-2.624.571-3.909.6-1.045,1.627-1.852,1.2-3.15" transform="translate(-1140.011 -538.808)" fill="#964939"/>
        <path id="Trazado_1226701" data-name="Trazado 1226701" d="M1363.038,682.609c-1.8-4.53-9.168-6.141-13.288-5.619-2.14.271-4.908.812-5.867,3.008-.2.457.36.216.689.149a9.425,9.425,0,0,1,5.724.637c1.856,1.044,1.792,2.923,1.5,4.823a4.727,4.727,0,0,0,.126,2.824,6.843,6.843,0,0,0,1.464,1.5c-.18,2.288,1.591,8.037,1.684,7.758,2.3-.415,5.457-1.407,6.442-3.841.569-1.406,2.533-8.709,1.53-11.237" transform="translate(-1073.792 -540.035)" fill="#964939"/>
        <path id="Trazado_1226702" data-name="Trazado 1226702" d="M1385.28,727.645c-1.507-.92-3.106.8-3.295,2.235-.015.114-.03.228-.045.342-.039.291-.077.583-.1.875a2.637,2.637,0,0,0,.634,2.245c1.213,1.166,2.432-1.1,2.843-1.885.571-1.09,1.382-2.948-.033-3.812" transform="translate(-1104.115 -580.355)" fill="#f59e73"/>
        <path id="Trazado_1226703" data-name="Trazado 1226703" d="M1337.536,721.376c-.1-.4-.332-.7-.841-.545-.622.188-.739,1.144-.653,1.69.183,1.163,1.295,1.3,1.5.019a3.28,3.28,0,0,0-.008-1.164" transform="translate(-1067.543 -575.086)" fill="#1a0504"/>
        <path id="Trazado_1226704" data-name="Trazado 1226704" d="M1336.62,707.035c-1.018-.688-2.672-.863-3.515.2a.813.813,0,0,0-.191.615.768.768,0,0,0,.453.546,4.233,4.233,0,0,0,1.337.128c.537.067,1.057.235,1.6.284.525.047,1.047-.127,1-.745a1.4,1.4,0,0,0-.69-1.031" transform="translate(-1065.06 -563.659)" fill="#964939"/>
        <path id="Trazado_1226705" data-name="Trazado 1226705" d="M1324.531,753.169a10.832,10.832,0,0,1-2.252-.016c-.078.508-.164,1.048-.227,1.587a4.521,4.521,0,0,0,1.642-.328,3.207,3.207,0,0,0,1.032-.618c.2-.188.219-.665-.2-.626" transform="translate(-1056.392 -600.93)" fill="#c45547"/>
        <path id="Trazado_1226706" data-name="Trazado 1226706" d="M1388.126,732.816a3.809,3.809,0,0,0-1.375,2.332c-.059.34.461.486.52.143a3.367,3.367,0,0,1,1.236-2.094c.271-.217-.113-.6-.382-.382" transform="translate(-1108.053 -584.639)" fill="#c45547"/>
        <path id="Trazado_1226707" data-name="Trazado 1226707" d="M1359.554,761.76a6.857,6.857,0,0,1-2.141,3.624,11.362,11.362,0,0,1-3.677,1.21.27.27,0,0,0,.143.52c1.341-.35,2.936-.524,4.042-1.428a7.942,7.942,0,0,0,2.153-3.783c.113-.329-.408-.47-.521-.143" transform="translate(-1081.54 -607.654)" fill="#c45547"/>
        <path id="Trazado_1226708" data-name="Trazado 1226708" d="M1459.255,1135.224a19.673,19.673,0,0,0-2.294,2.313c-.222.264.158.648.381.381a19.659,19.659,0,0,1,2.295-2.313c.265-.226-.119-.606-.382-.382" transform="translate(-1164.067 -905.97)" fill="#c45547"/>
        <path id="Trazado_1226709" data-name="Trazado 1226709" d="M1156.938,602.571a18.429,18.429,0,0,1-2.613,10.793.27.27,0,0,0,.466.272,18.936,18.936,0,0,0,2.687-11.065c-.026-.344-.566-.347-.54,0" transform="translate(-922.427 -480.479)" fill="#c45547"/>
        <path id="Trazado_1226710" data-name="Trazado 1226710" d="M1302.183,808.888c-.05-.272-.357-.292-.587-.239a29.338,29.338,0,0,0-6.345,2.005,14.621,14.621,0,0,0-5.3,4.213c-.332.474,1.365.709,2.809,1.709a.31.31,0,0,1-.05.521c-2.325.81-4.382,1.574-3.811,2.545,1.438,2.441,2.929,4.856,4.267,7.354,1.293,2.413,2.547,5.766,3.69,8.033.23.455,1.014-9.923,1.727-14.066a25.523,25.523,0,0,1,3.713-10.363,4.421,4.421,0,0,0-.109-1.712" transform="translate(-1029.839 -645.226)" fill="#59242e"/>
        <path id="Trazado_1226711" data-name="Trazado 1226711" d="M1406.6,807.4c1.343,3.521.808,8.89.562,12.608-.278,4.2.091,15.755.151,15.249a13.822,13.822,0,0,1,3.7-8.114c1.887-2.115,3.9-4.113,5.872-6.149.783-.809-1.037-2.034-3.108-3.367a.31.31,0,0,1,.073-.518c1.638-.634,3.276-.443,3.131-1a14.463,14.463,0,0,0-3.349-5.393,20.768,20.768,0,0,0-3.545-3.529,5.477,5.477,0,0,0-2.052-.969c-.2-.043-1.507-.441-1.629-.168a1.6,1.6,0,0,0,.193,1.355" transform="translate(-1123.681 -643.088)" fill="#59242e"/>
        <path id="Trazado_1226712" data-name="Trazado 1226712" d="M1346.461,1209.124c2.122,2.4,4.583,4.629,5.3,7.868.675,3.045,1.069,6.086,1.96,9.093a.27.27,0,0,0,.52-.143,54.474,54.474,0,0,1-1.324-5.393,38.6,38.6,0,0,0-.932-4.837c-.9-2.755-3.274-4.853-5.144-6.969-.23-.261-.611.122-.381.382" transform="translate(-1075.827 -964.662)" fill="#2e0c12"/>
        <path id="Trazado_1226713" data-name="Trazado 1226713" d="M1413.359,1638.94a51.474,51.474,0,0,0,13.933-.842c.34-.068.2-.588-.144-.52a50.93,50.93,0,0,1-13.789.822c-.346-.026-.345.514,0,.54" transform="translate(-1129.097 -1307.164)" fill="#2e0c12"/>
        <path id="Trazado_1226714" data-name="Trazado 1226714" d="M1236.672,1742.445c0-.224-.228-.292-.4-.273a.4.4,0,0,0-.162-.086,26.519,26.519,0,0,0-3.672-1.112,18.8,18.8,0,0,0-4.417.268l-9.516,1.159c-2.64.322-5.3.585-7.919,1.03-2.784.471-8.389,2.412-8.37,3.165.006.242-.231,2.412.332,2.8a3.087,3.087,0,0,0,1.349.289q.938.117,1.88.2a52.913,52.913,0,0,0,5.37.13,62.6,62.6,0,0,0,8.047-1.17c2.948-.584,5.927-1.465,8.921-1.759,2.721-.267,5.118-.112,7.838-.394,1.244-.129.708-3.253.721-4.248" transform="translate(-960.664 -1389.689)" fill="#fae7dc"/>
        <path id="Trazado_1226715" data-name="Trazado 1226715" d="M1288.274,1644.831a35.729,35.729,0,0,0,14.326-.359c.338-.078.195-.6-.143-.52a34.992,34.992,0,0,1-14.039.359c-.339-.06-.485.46-.143.52" transform="translate(-1029.264 -1312.252)" fill="#2e0c12"/>
        <path id="Trazado_1226716" data-name="Trazado 1226716" d="M1258.25,1703.087a.825.825,0,0,0-.229-.314.868.868,0,0,0-1.362-.39,7.4,7.4,0,0,1-6.324,1.364,9.212,9.212,0,0,1-1.538-.829,9.757,9.757,0,0,0-1.727-.582,10.207,10.207,0,0,0-3.774-.056c-1.5.2-2.764,1.675-3.856,2.61-2.036,1.742-4.085,3.47-6.09,5.249a12.289,12.289,0,0,1-2.293,1.313,9.653,9.653,0,0,1,1.526,5.121,90.142,90.142,0,0,0,12.42-1.952,36.456,36.456,0,0,1,8.135-.732c1.889.044,4.086.144,5.818-.681a1.378,1.378,0,0,0,.761-1.3,31.623,31.623,0,0,0-1.468-8.823" transform="translate(-983.731 -1358.717)" fill="#59242e"/>
        <path id="Trazado_1226717" data-name="Trazado 1226717" d="M1213.484,1747.892a9.321,9.321,0,0,0-5.151-.489c-1.474.722-3.238,1.468-3.946,1.785a3.04,3.04,0,0,0-2.034,2.476c0,.321.126,2.032.426,2.145,3.913,1.479,8.556-.352,13.129-1.95a4.431,4.431,0,0,0-2.425-3.968" transform="translate(-960.809 -1394.763)" fill="#fae7dc"/>
        <path id="Trazado_1226718" data-name="Trazado 1226718" d="M1292.253,1711.336c-.806,3.348-3.424,5.519-6.1,7.44-.28.2-.011.669.272.466,2.8-2.006,5.509-4.272,6.35-7.762.081-.338-.439-.481-.52-.144" transform="translate(-1027.631 -1365.913)" fill="#2e0c12"/>
        <path id="Trazado_1226719" data-name="Trazado 1226719" d="M1250.623,1714.626c2.826.021,5.706,2.091,7.715,3.907l.262-.451a38.347,38.347,0,0,0-6.947-.849,20.384,20.384,0,0,0-6.93,1.452c-.265.094-.251.567.072.53a19.237,19.237,0,0,1,10.594,2.114c.312.149.586-.316.272-.466a19.752,19.752,0,0,0-10.867-2.187q.036.265.072.53a19.992,19.992,0,0,1,6.786-1.432,37.519,37.519,0,0,1,6.8.83c.244.045.479-.255.263-.451-2.134-1.929-5.1-4.042-8.1-4.065a.27.27,0,0,0,0,.539" transform="translate(-994.495 -1368.263)" fill="#2e0c12"/>
        <path id="Trazado_1226720" data-name="Trazado 1226720" d="M1264.342,1690.36a21.4,21.4,0,0,0-5.46-.715,5,5,0,0,0,.776-2.657c-.006-.88-.406-2.838-1.624-2.779-1.15.055-1.674,1.726-1.845,2.608a6.012,6.012,0,0,0-.113,1.362c-2.1-2.22-5.408-5.061-6.261-2.845-.593,1.539.846,3.372,1.973,4.219,1.23.925,3.708,2.557,5.227,1.452a.39.39,0,0,0,.164-.328.358.358,0,0,0,.125.057.39.39,0,0,0,.328,0,.357.357,0,0,0,.467-.061c.067-.071.129-.146.193-.22a20.648,20.648,0,0,1,5.848.685.4.4,0,0,0,.2-.774m-7.416-3.151a5.8,5.8,0,0,1,.207-.879,2.855,2.855,0,0,1,.291-.687q.421-1.046.872-.229c1.119,1.152.493,3.053-.4,4.255-.161.007-.323,0-.484.012-.069-.084-.146-.177-.228-.273a3.511,3.511,0,0,1-.257-2.2m-2.32,2.83a.331.331,0,0,0-.221.142,12.685,12.685,0,0,1-1.791-1.036,4.72,4.72,0,0,1-1.695-1.831,2.3,2.3,0,0,1-.3-.767q.382-1.483,1.222-.789a8.817,8.817,0,0,1,2.949,2.1,14.764,14.764,0,0,1,1.649,1.8c.017.035.029.072.047.107-.619.067-1.239.152-1.86.273" transform="translate(-998.599 -1344.403)" fill="#2e0c12"/>
        <path id="Trazado_1226721" data-name="Trazado 1226721" d="M1217.978,1769.369a37.663,37.663,0,0,1-11.968.33c-.5-.08-.71.693-.2.774a39,39,0,0,0,12.393-.335c.506-.082.28-.849-.223-.768" transform="translate(-963.334 -1412.403)" fill="#2e0c12"/>
        <path id="Trazado_1226722" data-name="Trazado 1226722" d="M1423.7,1749.692l-6.6.567a12.219,12.219,0,0,0-4.355,1.4.644.644,0,0,0-.272.6,5.674,5.674,0,0,0,.78,2.7c.71.969,2.3.767,3.373.838a47.393,47.393,0,0,0,6.744-.037c1.437-.111,4.356-.918,5.415-2.132a5.637,5.637,0,0,0,1.749-4.34c.1-5.269-1.221-5.491-1.354-5.553.271-.418-2.92,5.736-5.484,5.957" transform="translate(-1128.595 -1391.922)" fill="#fae7dc"/>
        <path id="Trazado_1226723" data-name="Trazado 1226723" d="M1333.8,1707.723c-1.113,2.008-4.286,2.639-6.341,1.92-.328-.115-.469.406-.143.52,2.295.8,5.71.07,6.95-2.167.168-.3-.3-.576-.466-.272" transform="translate(-1060.452 -1363.075)" fill="#2e0c12"/>
        <path id="Trazado_1226724" data-name="Trazado 1226724" d="M1418.225,1719.865c1.4-.294,2.729-.926,4.138-1.168a6.109,6.109,0,0,1,3.647.442c1.47.615,3.3,2.124,4.971,2.4a6.573,6.573,0,0,0,.529-2.327c.06-.665-.092-2.626-.076-3.27a33.673,33.673,0,0,0-1.311-6.942.444.444,0,0,0-.036-.065.4.4,0,0,0-.79-.165,1.488,1.488,0,0,1-2.4.706c-.256-.218-.465-.387-.517-.42a7.572,7.572,0,0,0-4.026-1.014,5.214,5.214,0,0,0-3.144,1.009,3.058,3.058,0,0,1-1.293.579c-.123.021-.5-.054-.573.1-.589,1.364-2.339,8.848-2.745,10.554,1.212-.135,2.434-.176,3.629-.427" transform="translate(-1130.292 -1363.439)" fill="#59242e"/>
        <path id="Trazado_1226725" data-name="Trazado 1226725" d="M1420.869,1754.923c-3.268.011-6.372.614-8.7,3.086l-.023.09a6.54,6.54,0,0,0-.507,2.218,2.592,2.592,0,0,0,2.086,2.187c4.586.413,9.873.447,13.83-2.132a2.615,2.615,0,0,0,1.15-1.749c-1.343-3.141-4.9-3.71-7.834-3.7" transform="translate(-1127.917 -1400.873)" fill="#fae7dc"/>
        <path id="Trazado_1226726" data-name="Trazado 1226726" d="M1430.337,1727.734a27.4,27.4,0,0,0-.941,4.529c-.042.344.5.341.54,0a26.552,26.552,0,0,1,.922-4.386.27.27,0,0,0-.52-.143" transform="translate(-1142.108 -1379.01)" fill="#2e0c12"/>
        <path id="Trazado_1226727" data-name="Trazado 1226727" d="M1478.567,1728.361a42.864,42.864,0,0,1,.7,4.746c.031.343.571.346.54,0a44.129,44.129,0,0,0-.721-4.89c-.07-.34-.59-.2-.52.143" transform="translate(-1181.369 -1379.392)" fill="#2e0c12"/>
        <path id="Trazado_1226728" data-name="Trazado 1226728" d="M1426.081,1726.93a12.25,12.25,0,0,1,10.924.286q.068-.251.136-.5c-4.346.289-8.837.5-12.722,2.675a.271.271,0,0,0,.208.493,16.773,16.773,0,0,1,12.99,1.616.27.27,0,0,0,.272-.466,17.338,17.338,0,0,0-13.406-1.67l.208.493c3.8-2.126,8.2-2.318,12.45-2.6.249-.016.39-.371.136-.5a12.826,12.826,0,0,0-11.469-.287c-.315.145-.041.61.272.466" transform="translate(-1138.032 -1377.177)" fill="#2e0c12"/>
        <path id="Trazado_1226729" data-name="Trazado 1226729" d="M1420.517,1701.608a12.921,12.921,0,0,0-4.42-4.83c-.731-.465-3.447-2.2-4.276-1.307-.777.841,1.333,2.45,1.84,2.845a22.521,22.521,0,0,0,6.754,3.529c.33.111.472-.411.144-.52a22.868,22.868,0,0,1-4.661-2.129,18.059,18.059,0,0,1-2.225-1.553c-.482-.4-2.079-1.478-.5-1.657,1.169-.132,3.394,1.716,4.184,2.421a12.614,12.614,0,0,1,2.693,3.473c.165.306.631.033.466-.272" transform="translate(-1127.94 -1353.196)" fill="#2e0c12"/>
        <path id="Trazado_1226730" data-name="Trazado 1226730" d="M1453.975,1697.284c-.335-1.532.529-3.1,1.48-4.262a8.161,8.161,0,0,1,1.507-1.425,7.239,7.239,0,0,1,.672-.434q.924-.752,1.249.631,1.212.8.122,1.575-.282.328-.577.644c-.346.369-.705.723-1.083,1.059a11.806,11.806,0,0,1-2.991,1.955c-.316.144-.042.609.272.466,1.356-.618,8.426-5.587,4.747-7.08-1.46-.592-3.127.929-4.018,1.9-1.234,1.35-2.309,3.24-1.9,5.112.074.339.594.2.52-.143" transform="translate(-1161.251 -1349.253)" fill="#2e0c12"/>
        <path id="Trazado_1226731" data-name="Trazado 1226731" d="M1415.248,1776.029c.115,2.665,2.733,2.861,4.866,2.93,2.961.1,5.87-.047,8.521-1.492.3-.166.033-.632-.272-.466a12.767,12.767,0,0,1-5.851,1.434c-1.935.062-6.6.515-6.725-2.407-.015-.346-.555-.348-.54,0" transform="translate(-1130.812 -1417.518)" fill="#2e0c12"/>
        <path id="Trazado_1226732" data-name="Trazado 1226732" d="M1490.21,992.57c-3.243,1.51-5.338,4.338-7.062,7.378-2.069,3.649-3.946,7.416-5.771,11.192-.15.311.315.585.466.272,1.634-3.382,3.334-6.732,5.129-10.031,1.835-3.371,3.91-6.668,7.509-8.344.315-.146.041-.612-.272-.466" transform="translate(-1180.401 -792.089)" fill="#2e0c12"/>
        <path id="Trazado_1226733" data-name="Trazado 1226733" d="M1510.788,1124.234c1.52.917,3.366,1.787,4.951.519.271-.217-.113-.6-.381-.382-1.366,1.092-3.037.157-4.3-.6a.27.27,0,0,0-.272.466" transform="translate(-1207.001 -896.844)" fill="#2e0c12"/>
        <path id="Trazado_1226734" data-name="Trazado 1226734" d="M1409.477,715.181a14.193,14.193,0,0,1-1.7,3.273c-.754,1.071-1.89,2.628-3.287,2.809-.34.044-.344.584,0,.54,1.4-.183,2.362-1.3,3.208-2.352a14.7,14.7,0,0,0,2.295-4.127c.12-.326-.4-.467-.521-.143" transform="translate(-1122.02 -570.462)" fill="#66281b"/>
        <path id="Trazado_1226735" data-name="Trazado 1226735" d="M1406.27,709.445a18.421,18.421,0,0,1-4.34.977c-.342.034-.346.574,0,.54a19,19,0,0,0,4.483-1c.325-.115.185-.637-.143-.52" transform="translate(-1119.971 -566.014)" fill="#66281b"/>
        <path id="Trazado_1226736" data-name="Trazado 1226736" d="M1427.4,694.366a4.028,4.028,0,0,0,2.051,4.731c.31.154.583-.311.272-.466a3.492,3.492,0,0,1-1.8-4.122.27.27,0,0,0-.521-.143" transform="translate(-1140.386 -553.836)" fill="#66281b"/>
        <path id="Trazado_1226737" data-name="Trazado 1226737" d="M1348.132,998.4a59.922,59.922,0,0,0,6.555,13.794c.187.291.655.021.466-.272a59.354,59.354,0,0,1-6.5-13.665c-.107-.329-.629-.188-.521.143" transform="translate(-1077.206 -796.504)" fill="#2e0c12"/>
        <path id="Trazado_1226738" data-name="Trazado 1226738" d="M1190.043,774.336a64.5,64.5,0,0,0,3.115,10.022c.128.318.65.179.52-.143a64.526,64.526,0,0,1-3.115-10.022c-.076-.339-.6-.2-.52.143" transform="translate(-950.974 -617.576)" fill="#2e0c12"/>
        <path id="Trazado_1226739" data-name="Trazado 1226739" d="M1491.513,969.743a36.216,36.216,0,0,0,5,8.781c.209.271.678,0,.466-.272a35.722,35.722,0,0,1-4.943-8.652c-.127-.319-.649-.18-.521.143" transform="translate(-1191.696 -773.625)" fill="#2e0c12"/>
        <path id="Trazado_1226740" data-name="Trazado 1226740" d="M1233.788,879.454a75.515,75.515,0,0,0,2.9,12.61c.106.329.627.188.52-.143a75.513,75.513,0,0,1-2.9-12.61c-.049-.343-.569-.2-.52.143" transform="translate(-985.908 -701.514)" fill="#2e0c12"/>
        <path id="Trazado_1226741" data-name="Trazado 1226741" d="M1320.632,742.394a2.4,2.4,0,0,1,.73.321c.292.19.563-.277.272-.466a2.859,2.859,0,0,0-.859-.376.27.27,0,0,0-.143.52" transform="translate(-1055.105 -591.915)" fill="#c45547"/>
        <path id="Trazado_1226742" data-name="Trazado 1226742" d="M1012.065,682.152a5.819,5.819,0,0,1,.988,4.345c-.057.34.463.486.52.143a6.37,6.37,0,0,0-1.043-4.761c-.2-.284-.664-.015-.466.272" transform="translate(-808.82 -543.92)" fill="#c45547"/>
        <path id="Trazado_1226743" data-name="Trazado 1226743" d="M787.259,1610.451c-1.873-1.123-4.667-4.76-5.878-6.584-1.2-1.809-.118-15.648-.1-20.343,0-.839-1.047-.906-1.461-.362a68.318,68.318,0,0,1-9.114.536.815.815,0,0,0-1.231.736c.549,6.718,1.49,13.168,1.639,19.9-.2,1.838-.9,6.74-.336,6.747l10.783.129c2.114.025,6.348-.373,5.7-.764" transform="translate(-615.142 -1263.436)" fill="#59242e"/>
        <path id="Trazado_1226744" data-name="Trazado 1226744" d="M756.365,1048.218c.079-.062-.931-.358-.941-.49l-.244-3.245c-.037-.5-.858-.5-.82,0,0,.016,0,.031,0,.047a119.837,119.837,0,0,0-11.509,4.887c-2.873,1.409-6.515,2.533-6.934,5.949a129.051,129.051,0,0,0-.506,13.245q-.127,6.9.023,13.807.3,13.616,1.669,27.184a236.093,236.093,0,0,1,1.319,27.187c-.1,7.455-.759,14.922-.314,22.366.294,4.923-.823,9,.982,9.309,1.321.228,14.92-1.217,17.1-2.865,1.4-1.059,2.862-38.416,3.337-50.5,1.033-26.25-2.179-59.193-3.164-66.879" transform="translate(-587.899 -833.267)" fill="#d1d5e3"/>
        <path id="Trazado_1226745" data-name="Trazado 1226745" d="M688.968,694.133c-1.189.256-4.259.794-5.347.1-.666-.427-.457-9.571-.245-12.837a.732.732,0,0,0-.569-.8,10.194,10.194,0,0,0-5.164-5.166c-2.018-.928-4.719-2.33-6.555-.421a.858.858,0,0,0-.209.362c-.3.18.169.4.259.836a109.879,109.879,0,0,1,2.094,14.436c.329,4.634-1.825,8.142-5.531,10.722-.934.65.848,1.762,1.537.882.063-.081.127-.16.191-.24a.855.855,0,0,0,.643.295,40.4,40.4,0,0,0,12.393-1.918c3.005-.842,5.289-1.868,6.929-4.555l.047-.009c1.119-.241.645-1.926-.473-1.685" transform="translate(-533.663 -537.77)" fill="#f59e73"/>
        <path id="Trazado_1226746" data-name="Trazado 1226746" d="M685.389,652.273a4.326,4.326,0,0,1,.534-.425,1.232,1.232,0,0,0,.528-1.24c-.109-.428-.523-.461-.874-.6a5.422,5.422,0,0,1-1.3-.759c-.2-.158-.433-.273-.52-.513-1.317-3.734-3.561-7.168-8.3-7.57-5.6-.479-10.084,2.794-10.777,7.826a6.926,6.926,0,0,0,1.135,5.143,5.519,5.519,0,0,0,2.2,1.692c.494.205,3.067.359,3.206.538.6.752,1.2,1.512,1.785,2.264.866,1.1,1.655,2.623,3.214,2.948a.24.24,0,0,1,.078,0,.757.757,0,0,0,.615.205c2.209-.128,6.727-.206,8.356-2.12.9-1.051.577-2.084.352-3.639-.078-.521-.182-1.051-.294-1.546-.052-.214-.1-.419-.147-.615a2.746,2.746,0,0,1,0-1.165.884.884,0,0,1,.216-.42" transform="translate(-531.396 -511.465)" fill="#f59e73"/>
        <path id="Trazado_1226747" data-name="Trazado 1226747" d="M670.353,627.83c-.246-.8-1.316-.851-1.107-1.725a3.328,3.328,0,0,0-2.437-4.2c-1.715-.425-3.324.4-4.881.993-2.15.816-4.58.781-6.661,1.718-2.645,1.191-6.4,3.38-5.622,6.633a1.266,1.266,0,0,1,.073.266,5.557,5.557,0,0,0-1.548,4.193c.179,2.43,2.045,3.769,4.276,4.515a.637.637,0,0,1,.421.437,8.48,8.48,0,0,0,2.052,3.976c.943.926,2.587,1.938,3.364.27,1.033-2.217.743-5.354.685-7.764a.654.654,0,0,1,.244-.5c1.2-1.065,1.514-3.385,2.487-4.832a4.013,4.013,0,0,1,3.047-1.46,15.328,15.328,0,0,0,2.743-.653,2.167,2.167,0,0,1,1.34.088c1.051.265,1.782-1.107,1.523-1.955" transform="translate(-518.266 -496.032)" fill="#471b17"/>
        <path id="Trazado_1226748" data-name="Trazado 1226748" d="M692.9,693.913c-.139-.182-.274-.359-.386-.53-.58-.887-1.575-1.95-2.827-1.425-1.627.682-.743,2.792.134,3.707.816.852,3.1,2.143,3.818.5.36-.817-.218-1.572-.739-2.254" transform="translate(-550.704 -551.952)" fill="#f59e73"/>
        <path id="Trazado_1226749" data-name="Trazado 1226749" d="M711.776,727.456a7.691,7.691,0,0,0,2.445,2.129,8.632,8.632,0,0,0,3.165.606c.347.022.345-.517,0-.54a7.337,7.337,0,0,1-3.2-.691,7.96,7.96,0,0,1-2.026-1.886c-.227-.264-.607.119-.382.382" transform="translate(-569.014 -580.034)" fill="#c45547"/>
        <path id="Trazado_1226750" data-name="Trazado 1226750" d="M603.355,1608.44a22.093,22.093,0,0,1-4.852-7.765c1.213-5.261,3.52-11.088,4.814-15.47a.829.829,0,0,0-1.316-.851,8.969,8.969,0,0,1-2.175-1.33c-.949-.568-1.923-1.092-2.9-1.6a9.345,9.345,0,0,0-2.935-1.253c.039-.952-1.5-.975-1.634.023-.026.2-.061.406-.088.61a.828.828,0,0,0-.029.2c-1.8,9.533-5.111,23.21-5.9,26.407-.137.554,1.189,1.416,1.659,1.347,2.648-.39,5.082.4,7.667.8a29.126,29.126,0,0,0,6.787.223.835.835,0,0,0,.712-.5c.759.518.92-.152.193-.839" transform="translate(-468.895 -1260.749)" fill="#59242e"/>
        <path id="Trazado_1226751" data-name="Trazado 1226751" d="M746.887,678.491a1.293,1.293,0,0,0-.559-.808.767.767,0,0,0-1.04.5,1.564,1.564,0,0,0,.192,1.024c.164.335.638.956,1.1.781s.494-.9.308-1.5" transform="translate(-595.808 -540.616)" fill="#1a0504"/>
        <path id="Trazado_1226752" data-name="Trazado 1226752" d="M758.509,708.961a5.426,5.426,0,0,1-1.395.154c-.425-.043-1.1-.188-1.222-.658a.4.4,0,0,1,.113-.41c.606-.478,1.516-.333,2.209-.632.112.5.217,1.025.294,1.547" transform="translate(-604.287 -564.406)" fill="#fff"/>
        <path id="Trazado_1226753" data-name="Trazado 1226753" d="M619.628,1051.37c-4.062.57-7.727,3.537-10.679,6.06a43.615,43.615,0,0,0-5.036,5.07c-.263.312-.555.636-.81.971a.325.325,0,0,0-.238.258c-.009.042-.017.085-.026.128-.285.465-1.351.9-1.2,1.429-2.547,13-1.76,26.317-2.752,39.478a149.512,149.512,0,0,1-2.971,21.248c-1.569,7.063-3.331,14.062-4.515,21.2-1.3,7.846-2.7,16.564-3.121,23.639-.089,1.5,11.621,5.829,16.245,4.855,1.129-.238,5.259-13.735,6.061-17.266,1.521-6.7,3.817-13.237,4.911-20.467,2.383-15.759,4.815-26.322,6.873-40.06.993-6.629,1.825-13.278,2.57-19.935l1.226-2.454c1.3-2.6,3.1-5.287,3.414-8.194a.308.308,0,0,0-.084-.259c.923-6.295-1.219-16.91-9.865-15.7" transform="translate(-470.451 -838.988)" fill="#d1d5e3"/>
        <path id="Trazado_1226754" data-name="Trazado 1226754" d="M735.081,666.283a3.355,3.355,0,0,0-1.929,1.3c-.36.492-.372.993.216,1.316a1.194,1.194,0,0,0,1.223-.116,6.936,6.936,0,0,1,.63-.412c.545-.272,1.81-.172,1.9-.966.117-1.07-1.273-1.287-2.035-1.117" transform="translate(-585.937 -531.52)" fill="#471b17"/>
        <path id="Trazado_1226755" data-name="Trazado 1226755" d="M695.645,698.064a3.863,3.863,0,0,1,1.779,1.33c.2.276.673.008.466-.272a4.5,4.5,0,0,0-2.1-1.578c-.326-.12-.467.4-.143.52" transform="translate(-556.042 -556.509)" fill="#c45547"/>
        <path id="Trazado_1226756" data-name="Trazado 1226756" d="M684.981,1052.6c-.158-1.262-.131-2.292-1.592-3.1-1.608-.892-4.418.786-5.869,1.268q-4.786,1.59-9.546,3.255c-4.491-.188-9.938,2.649-13.911,4.339-2.343,1-7.2,2.045-7.347,5.117a.707.707,0,0,0,.129.445c-.6,3.4-1.025,6.742-.013,10.106a.866.866,0,0,0,.791.594c5.382-.359,16.615-1.914,18.466-3.758.672-.67,2.194-9.466,2.791-13.807l4.2,9.076c.749,1.621.885,3.025,2.614,3.334.96.171,7.2-1.55,8.5-2.269,1.211-.673,4.091-1.537,3.72-2.808-1.181-4.044-2.39-7.491-2.927-11.789" transform="translate(-516.723 -837.368)" fill="#fae7dc"/>
        <path id="Trazado_1226757" data-name="Trazado 1226757" d="M645.229,768.952c.177-.918.372-1.826.589-2.715.911-3.73,1.965-3.5,2.361-7.341.053-.517-5.294-10.585-8.862-10.344a44.9,44.9,0,0,0-14.26,3.824c-1.829.919-1.558,2.586-3.624,3.9-2.522,1.6-5.035,1.183-7.656.247a.365.365,0,0,0-.48-.161.34.34,0,0,0-.408.253c-.177.588-2.034,1.3-2.513,1.576-1.841,1.055-3.7,2.081-5.532,3.151A22.252,22.252,0,0,0,597,768.279c-2.085,3.276-2.942,7.265-3.846,10.977a.428.428,0,0,0,.37.494c.718,1.495,2.975,1.363,4.21,2.455,1.029.911,2.176,3.659,3.207,4.567a.488.488,0,0,1,.165.332c.028.389.059.778.09,1.167a.529.529,0,0,0,.181.321.345.345,0,0,1,.093.188,130.6,130.6,0,0,1,1.479,14.305c.169,2.52.348,5.039.633,7.549a88.733,88.733,0,0,1,.141,11.971c0,.234.037,2.532.049,3.515a.5.5,0,0,0,.485.488c4.35.2,16.061-2.662,20.994-4.5,4.844-1.8,13.172-4.185,17.769-6.66,1.006-.542-.155-7.979.163-10.331a131.4,131.4,0,0,0,1.016-18.469c-.019-2.844-.417-5.834-.171-8.66a89.151,89.151,0,0,1,1.2-9.04" transform="translate(-474.336 -597.252)" fill="#59242e"/>
        <path id="Trazado_1226758" data-name="Trazado 1226758" d="M763,691.188a5.732,5.732,0,0,0-.7.514c-.264.226.119.607.382.382a4.755,4.755,0,0,1,.586-.429c.294-.184.023-.651-.272-.466" transform="translate(-609.344 -551.415)" fill="#c45547"/>
        <path id="Trazado_1226759" data-name="Trazado 1226759" d="M577.508,1113.968a1.777,1.777,0,0,1,.646-1.253,2.29,2.29,0,0,1,.069,1.181,6.264,6.264,0,0,0,.564,3.165c.386.83,1.489.95,1.756.528.539-.85.137-2.861.164-3.821a9.869,9.869,0,0,0-.435-4.014c-1.306-3.118-3.4-6.085-3.473-9.542a82.125,82.125,0,0,1,.993-12.7.543.543,0,0,0-.137-.462.5.5,0,0,0,.006-.05c-.122-1.386-.352-3.37-2.184-3.535a5.4,5.4,0,0,0-3.958,1.564.674.674,0,0,0-1.01.475,144.415,144.415,0,0,0-.868,15.546c.018,4.982.659,9.909.965,14.854.147,2.377.642,4.913,3.112,5.493a.661.661,0,0,0,.111,0,4.7,4.7,0,0,0,1.9.721.62.62,0,0,0,.1,0,3.866,3.866,0,0,0,1.324.271,5.251,5.251,0,0,0,1.669,1.433c.556.294,1.3-.169.99-.795-1.307-2.632-2.516-5.751-2.336-8.7.007-.118.019-.239.036-.359" transform="translate(-455.57 -864.68)" fill="#f59e73"/>
        <path id="Trazado_1226760" data-name="Trazado 1226760" d="M698.716,766.778a15.824,15.824,0,0,0-2.39-2.168.712.712,0,0,0-.979.271c-.663,1.2-1.775,3.26-2.775,3.885-1.856,1.16-5.944-1.428-7.289-2.626-.2-.181-1.68,1.929-2.422,4.477-.357,1.225,7.442,6.6,7.846,5.554a28.308,28.308,0,0,0,1.453-5.277.171.171,0,0,1,.3-.082l1.8,2.073a12.686,12.686,0,0,0,1.856,2.08.647.647,0,0,0,.818-.081c2.555-2.835,1.965-7.928,1.783-8.105" transform="translate(-545.971 -610.002)" fill="#fff"/>
        <path id="Trazado_1226761" data-name="Trazado 1226761" d="M575.653,855.324c-.762-4.282-10.015-9.234-11.108-7.509-2.629,4.982-2.34,6.029-3.534,10.428-1.663,6.126-3.323,12.551-4.746,18.735a160.827,160.827,0,0,0-3.375,26.712c4.694.511,9.488-3.008,13.886-5.045a45.408,45.408,0,0,1,1.035-6.724c1.23-4.372,3.123-8.465,4.16-12.914,1.713-7.344,5.031-16.09,3.68-23.683" transform="translate(-442.195 -676.239)" fill="#59242e"/>
        <path id="Trazado_1226762" data-name="Trazado 1226762" d="M562.4,1088.762c-4.361-.878-8.8.078-13.484.336a.839.839,0,0,0-.482.16.787.787,0,0,0-.529.71c-.166,2.664-.507,9.911.27,9.931,3.558.089,10.105-.76,13.387-2.156,1.162-.494,1.431-6.017,1.72-7.854a1,1,0,0,0-.882-1.127" transform="translate(-438.042 -868.633)" fill="#fff"/>
        <path id="Trazado_1226763" data-name="Trazado 1226763" d="M650.748,923.642q-1.3,6.767-2.995,13.453a11.569,11.569,0,0,1-1.691,4.2Z" transform="translate(-516.595 -737.07)" fill="#59242e"/>
        <path id="Trazado_1226764" data-name="Trazado 1226764" d="M648.922,922.139q-.885,4.567-1.936,9.1c-.653,2.8-1.07,6.047-2.713,8.463-.261.384.362.744.621.363,1.573-2.313,2-5.294,2.628-7.964q1.149-4.863,2.094-9.771c.088-.452-.606-.646-.694-.191" transform="translate(-515.116 -735.663)" fill="#59242e"/>
        <path id="Trazado_1226765" data-name="Trazado 1226765" d="M647.479,900.522a61.535,61.535,0,0,1-4.626,21.45c-.132.321.39.461.52.143a61.966,61.966,0,0,0,4.645-21.594c.012-.347-.528-.347-.539,0" transform="translate(-514.016 -718.4)" fill="#2e0c12"/>
        <path id="Trazado_1226766" data-name="Trazado 1226766" d="M702.66,1039.408c-8.856,7.26-20.332,9.672-31.281,11.892-.34.069-.2.589.143.52,11.057-2.242,22.579-4.7,31.519-12.031.269-.22-.115-.6-.381-.381" transform="translate(-536.656 -829.46)" fill="#2e0c12"/>
        <path id="Trazado_1226767" data-name="Trazado 1226767" d="M754.509,960.714a40.455,40.455,0,0,1-10.94,19.618.27.27,0,0,0,.382.382,40.994,40.994,0,0,0,11.078-19.856c.078-.338-.442-.482-.52-.143" transform="translate(-594.393 -766.519)" fill="#2e0c12"/>
        <path id="Trazado_1226768" data-name="Trazado 1226768" d="M753.84,1173.4c-1.917,2.322-4.383,4.649-5.757,7.356-1.427,2.812-.869,6.616-1.011,9.67a219.75,219.75,0,0,1-2.312,22.614c-.051.34.469.486.52.143,1-6.646,1.781-13.322,2.186-20.033q.155-2.568.243-5.139a25.936,25.936,0,0,1,.361-5.705,12.284,12.284,0,0,1,2.794-4.46q1.677-2.033,3.357-4.065c.219-.266-.16-.65-.382-.382" transform="translate(-595.406 -936.433)" fill="#2e0c12"/>
        <path id="Trazado_1226769" data-name="Trazado 1226769" d="M935.693,550.622c-.216.76-.4,2.393-.968,2.825-1.447,1.093-1.313-1.455-1.315-2.3a16.089,16.089,0,0,1,1.086-5.682c.309-.762,2.34-2.988,1.032-3.487s-2.1,1.009-2.708,1.948c-.342.528-.647,1.074-.936,1.629a21.159,21.159,0,0,1,1.443-4.413c.427-.94-.827-1.063-1.383-.745a1.805,1.805,0,0,0-.567.732,1.77,1.77,0,0,0-1.216.776c-.132.193-.246.4-.362.6a1.344,1.344,0,0,0-1.06.325,7.194,7.194,0,0,0-1.042,1.582c-.956,1.6-2.182,3.322-2.293,5.265a16.489,16.489,0,0,0,.522,4.562,7.62,7.62,0,0,1,.313,3.27c-.265,1.146-3.615,8.576-4.894,11.081a.84.84,0,0,0,.477,1.169.662.662,0,0,0,.472.867c.883.238,1.746-.271,2.584.143a3.521,3.521,0,0,1,1.674,1.9.66.66,0,0,0,1.057.26.62.62,0,0,0,.486-.359c1.406-2.683,3.739-11.176,4.1-12.1,3.231-2.747,5.143-5.428,5.53-10.466.081-1.055-1.73-.424-2.027.623" transform="translate(-736.342 -430.914)" fill="#eb8b65"/>
        <path id="Trazado_1226770" data-name="Trazado 1226770" d="M819.988,663.157c-.5-.015-.5,1.717-.524,2.1-2.015,4.505-4.889,7.264-7.71,11.318-1.578,2.268-5.5,2.331-6.424,2.472-1.062.163-2.125.328-3.184.507-2.164.367-5.985,1.154-8.1,1.724-.188.051,3.329,12.926,4.8,18.8a.751.751,0,0,0,.972.544.7.7,0,0,0,.813-.008c.36-.232.712-.474,1.069-.711.02-.01,4.483-1.6,4.493-1.624.953-2.141,3.342-3.259,7.229-5.686,2.91-1.817,6.184-3.475,8.481-6.071-1.329,1.5,2.133-1.337,5.228-8.8,1.208-2.911,3.5-7.647,3.59-10.835.083-3.12-7.469-3.633-10.723-3.729" transform="translate(-634.755 -529.065)" fill="#59242e"/>
        <path id="Trazado_1226771" data-name="Trazado 1226771" d="M840.661,792.84q-2.284,7.649-4.142,15.412c-.081.338.439.482.521.143q1.858-7.763,4.142-15.412a.27.27,0,0,0-.52-.143" transform="translate(-668.673 -632.47)" fill="#2e0c12"/>
        <path id="Trazado_1226772" data-name="Trazado 1226772" d="M925.829,651.385A23.931,23.931,0,0,0,916.112,645a.69.69,0,0,0-.925.439.877.877,0,0,0-.26.229,17.792,17.792,0,0,0-2.973,5.891.7.7,0,0,0,.2.742.649.649,0,0,0,.384.816,41.329,41.329,0,0,1,9.264,6.005.823.823,0,0,0,.4.179c.283.559,1.063.549,1.536-.121,2.141-3.027,2.464-7.392,2.091-7.8" transform="translate(-728.889 -514.527)" fill="#fae7dc"/>
        <path id="Trazado_1226773" data-name="Trazado 1226773" d="M878.442,733.895l5.16-1.283a.27.27,0,0,0-.143-.52l-5.16,1.283a.27.27,0,0,0,.143.52" transform="translate(-701.889 -584.104)" fill="#2e0c12"/>
        <path id="Trazado_1226774" data-name="Trazado 1226774" d="M964.282,549.432a13.349,13.349,0,0,0-1.184,5.519.27.27,0,0,0,.539,0,12.686,12.686,0,0,1,1.11-5.247c.141-.314-.324-.589-.466-.272" transform="translate(-769.757 -438.141)" fill="#c45547"/>
        <path id="Trazado_1226775" data-name="Trazado 1226775" d="M953.815,554.154a10.773,10.773,0,0,0-1.239,2.678,4.181,4.181,0,0,0-.3,2.717c.107.329.629.188.52-.143-.482-1.475.663-3.769,1.481-4.979.195-.288-.272-.559-.466-.272" transform="translate(-761.015 -441.926)" fill="#c45547"/>
        <path id="Trazado_1226776" data-name="Trazado 1226776" d="M972.134,566.731a5.13,5.13,0,0,0-.391,2.205c.014.346.554.348.54,0a4.769,4.769,0,0,1,.372-2.062c.133-.32-.389-.46-.521-.143" transform="translate(-776.656 -451.923)" fill="#c45547"/>
        <path id="Trazado_1226777" data-name="Trazado 1226777" d="M595.344,1245.139c.107,1.9.306,3.848,1.769,5.217.253.237.636-.144.382-.381-1.359-1.272-1.511-3.08-1.611-4.835-.02-.345-.559-.347-.54,0" transform="translate(-476.094 -993.588)" fill="#c45547"/>
        <path id="Trazado_1226778" data-name="Trazado 1226778" d="M585.23,1243.21a12.57,12.57,0,0,0,1.814,5.615c.18.3.647.025.466-.272a11.94,11.94,0,0,1-1.741-5.343c-.027-.344-.567-.347-.54,0" transform="translate(-468.018 -992.047)" fill="#c45547"/>
        <path id="Trazado_1226779" data-name="Trazado 1226779" d="M603.254,1686.875a2.777,2.777,0,0,0-1.523-1.884,11.28,11.28,0,0,1-4.042-3.2,23.781,23.781,0,0,1-2.111-3.274c-.467-.862-.612-2.135-1.339-2.813a4.018,4.018,0,0,0-2.405-.931,3.6,3.6,0,0,0-3.018,1.929,15.986,15.986,0,0,0-5.562-3.109c-.252-.03-.435.015-.535.212-.01.016-.026.024-.033.042a55.449,55.449,0,0,0-2.726,9.82,5.7,5.7,0,0,0-.223,1.738c.18.376.961.5,1.311.592a23.127,23.127,0,0,0,2.45.463c1.337.195,2.692.239,4.029.433,1,.145,1.929.473,2.907.679,1.529.322,3.081.546,4.629.753q2.594.346,5.2.567a22.505,22.505,0,0,0,2.306.123.73.73,0,0,0,.729-.714,9.942,9.942,0,0,0-.047-1.429" transform="translate(-463.612 -1335.924)" fill="#fae7dc"/>
        <path id="Trazado_1226780" data-name="Trazado 1226780" d="M586.485,1724.709c3.158,1.43,6.669,1.145,9.958,2.068a54.972,54.972,0,0,0,11,1.7c.346.026.345-.513,0-.539a54.49,54.49,0,0,1-10.855-1.681c-3.236-.908-6.726-.608-9.829-2.013-.314-.142-.589.323-.272.466" transform="translate(-468.909 -1376.353)" fill="#2e0c12"/>
        <path id="Trazado_1226781" data-name="Trazado 1226781" d="M625,1690.3a13.15,13.15,0,0,0,4.185,6.582c.263.225.646-.155.381-.382a12.665,12.665,0,0,1-4.046-6.344.27.27,0,0,0-.52.143" transform="translate(-499.771 -1349.003)" fill="#2e0c12"/>
        <path id="Trazado_1226782" data-name="Trazado 1226782" d="M629.844,1695.775c1.288-1.575,3.277-1.653,5.107-1.122a.27.27,0,0,0,.143-.52c-2-.58-4.229-.453-5.632,1.261-.218.267.161.651.382.382" transform="translate(-503.287 -1352.08)" fill="#2e0c12"/>
        <path id="Trazado_1226783" data-name="Trazado 1226783" d="M641.391,1712.808a5.553,5.553,0,0,1,4.951-.593.27.27,0,0,0,.144-.521,6.081,6.081,0,0,0-5.367.647c-.276.2-.007.673.272.466" transform="translate(-512.555 -1366.094)" fill="#2e0c12"/>
        <path id="Trazado_1226784" data-name="Trazado 1226784" d="M792.439,1693.125a2.876,2.876,0,0,0-1.868-1.648,12.025,12.025,0,0,1-4.679-2.586,24.341,24.341,0,0,1-2.691-2.939c-.616-.786-.962-2.026-1.819-2.593a4.382,4.382,0,0,0-2.636-.578,3.707,3.707,0,0,0-2.832,2.339,17.3,17.3,0,0,0-6.241-2.284c-.266.007-.449.077-.522.286-.008.017-.023.027-.028.047a52.947,52.947,0,0,0-1.318,10.106,5.442,5.442,0,0,0,.035,1.752c.244.345,1.073.358,1.45.4a25.342,25.342,0,0,0,2.61.109c1.416,0,2.826-.147,4.242-.146,1.055,0,2.072.194,3.117.258,1.634.1,3.276.1,4.913.085q2.742-.027,5.479-.181c.8-.044,1.616-.084,2.409-.207a.733.733,0,0,0,.645-.811,9.547,9.547,0,0,0-.268-1.407" transform="translate(-613.763 -1343.246)" fill="#fae7dc"/>
        <path id="Trazado_1226785" data-name="Trazado 1226785" d="M774.238,1735.028c3.753,1.027,7.707.2,11.532.743a51.924,51.924,0,0,0,10.689-.009c.345-.022.347-.562,0-.54a55.559,55.559,0,0,1-11.189-.064c-3.619-.488-7.332.323-10.889-.651a.27.27,0,0,0-.144.521" transform="translate(-618.794 -1384.561)" fill="#2e0c12"/>
        <path id="Trazado_1226786" data-name="Trazado 1226786" d="M808.86,1695.505a13.357,13.357,0,0,0,5.354,5.906.27.27,0,0,0,.272-.466,12.878,12.878,0,0,1-5.16-5.712c-.138-.318-.6-.043-.466.272" transform="translate(-646.574 -1353.095)" fill="#2e0c12"/>
        <path id="Trazado_1226787" data-name="Trazado 1226787" d="M815.487,1698.077c1.1-1.778,3.231-2.067,5.149-1.811.343.046.34-.494,0-.539-2.122-.284-4.412.14-5.615,2.078-.184.3.283.567.466.272" transform="translate(-651.48 -1353.539)" fill="#2e0c12"/>
        <path id="Trazado_1226788" data-name="Trazado 1226788" d="M829.729,1713.481a6.012,6.012,0,0,1,5.06-1.27c.344.04.341-.5,0-.539a6.484,6.484,0,0,0-5.442,1.427c-.251.241.131.622.382.382" transform="translate(-662.887 -1366.274)" fill="#2e0c12"/>
        <path id="Trazado_1226789" data-name="Trazado 1226789" d="M667.234,666.413a2.4,2.4,0,0,0,.568,3.187,3.517,3.517,0,0,0,3.292.737.36.36,0,0,0-.191-.694,2.786,2.786,0,0,1-2.321-.346,1.8,1.8,0,0,1-.726-2.522c.273-.374-.351-.734-.621-.363" transform="translate(-533.189 -531.541)" fill="#2e0c12"/>
        <path id="Trazado_1226790" data-name="Trazado 1226790" d="M698.061,644.9c2.677-1.425,5.575-1.071,8.383-.248a.36.36,0,0,0,.191-.694c-3.007-.881-6.084-1.2-8.938.321-.409.218-.046.839.363.621" transform="translate(-557.684 -513.145)" fill="#2e0c12"/>
        <path id="Trazado_1226791" data-name="Trazado 1226791" d="M675.068,705.494c-.261.65-1.552.7-2.116.678-.463-.014-.463.705,0,.719.982.03,2.394-.172,2.81-1.206.173-.429-.523-.616-.694-.191" transform="translate(-537.79 -562.681)" fill="#2e0c12"/>
        <path id="Trazado_1226792" data-name="Trazado 1226792" d="M638.516,1370.42l-1.182,6.106c-.066.339.454.485.52.144l1.182-6.106c.066-.339-.455-.485-.52-.143" transform="translate(-509.62 -1093.68)" fill="#2e0c12"/>
        <path id="Trazado_1226793" data-name="Trazado 1226793" d="M1114.808,638.419a13.035,13.035,0,0,1-1.09,2.179c-.184.3.283.567.466.272a13.8,13.8,0,0,0,1.145-2.308c.125-.324-.4-.464-.521-.143" transform="translate(-889.998 -509.167)" fill="#c45547"/>
        <path id="Trazado_1226794" data-name="Trazado 1226794" d="M915.054,722.943c-1.291-1.545-4-4.055-6.19-4.047-1.391.005-2.216,3.564-2.664,4.6a18.915,18.915,0,0,0-4.093,3.9c-1.835,2.607-1.325,5.641-2.785,8.336-1.45,2.677-4.887,4.291-7.094,6.39a32.9,32.9,0,0,0-4.9,5.89c-2.651,4.077-3.3,8.069-.451,12.255,2.192,3.218,6.142,7.06,10.2,7.608a.8.8,0,0,0,1.2.542c6.315-3.884,5.383-11.376,8.127-17.385,1.757-3.846,5.333-6.743,6.065-11.07.449-2.653.61-5.35.881-8.025.139-1.373-.054-3.424.436-4.724l1.143-3.032a.884.884,0,0,0,.119-1.237" transform="translate(-707.409 -573.574)" fill="#36593f"/>
        <path id="Trazado_1226795" data-name="Trazado 1226795" d="M1018.043,1604.039c-.695-.938-3.843-4.425-4.11-5.286-.443-1.428-.479-19.348-.219-26.556a.7.7,0,0,0-.607-.744.748.748,0,0,0-.687-.168c-3.473.806-5.645.352-9.111,1.02a.677.677,0,0,0-.412.246c-.325.066-1.116-1.824-1.087-1.389.682,10.006,1.984,22.39.933,32.364a.641.641,0,0,0,.219.592.8.8,0,0,0,.173.434c1.152,1.412,1.8,1.342,3.541,1.329,3.356-.025,6.737-.341,10.089-.515.487-.026,1.612-.878,1.28-1.327" transform="translate(-800.668 -1254.082)" fill="#f59e73"/>
        <path id="Trazado_1226796" data-name="Trazado 1226796" d="M833.106,1542.151a.756.756,0,0,0-.685-.964.766.766,0,0,0-.107-.155c-2.015-1.938-6.3-5.788-9.4-5.5-2.371.218-2.444,3.324-2.659,5.306-1.241,11.43-4.051,22.125-7.474,33.08a.7.7,0,0,0-.006.4c-.109.227.4.294.292.521-.282.588-.536,1.286.081,1.357,4.664.542,9.432.836,13.943,2.207.825.251,1.246-.774.768-1.342-1.593-1.891-3.428-3.4-3.041-6.9a34.733,34.733,0,0,1,2.04-8.293q3.516-9.729,6.249-19.717" transform="translate(-649.698 -1225.669)" fill="#f59e73"/>
        <path id="Trazado_1226797" data-name="Trazado 1226797" d="M912.737,827.24c.035-.05.065-.1.1-.153.283-.385-.291-.748-.617-.47a47.717,47.717,0,0,0-10.1-.9.4.4,0,0,0-.8-.023c0,.015,0,.031,0,.046a.414.414,0,0,0,0,.7,68.263,68.263,0,0,1-1.51,14.034.4.4,0,0,0,.385.506,50.332,50.332,0,0,0,10.11-1.605.364.364,0,0,0,.272-.434.374.374,0,0,0,.3-.368c.092-3.692-.366-8.043,1.8-11.242a.425.425,0,0,0,.064-.1" transform="translate(-719.209 -658.55)" fill="#f59e73"/>
        <path id="Trazado_1226798" data-name="Trazado 1226798" d="M1054.047,597.306c.115-.391-.166.309-.062-.086.265-1,1.074-3.658.017-4.574a.861.861,0,0,0-1.262.15c-.319.368-.279,1.146-.354,1.559a8.892,8.892,0,0,1-.884,2.533,32.546,32.546,0,0,0,.562-4.1c.069-.992.472-4.059-.859-4.611-2.012-.834-1.2,6.921-2.566,9.115a26.242,26.242,0,0,0,.283-4.455c-.026-.865-.081-3.836-1.307-4.137-1.012-.249-1.046,1.163-1.088,1.785-.136,2.031-.048,4.085-.367,6.1-.2,1.275-.914,5.923-2.874,4.192-.882-.778-1.227-2.429-2.024-3.3-.382-.415-2.574-1.449-2.388.006.245,1.914,1.592,3.484,2.309,5.249.635,1.564,1.511,4,2.444,4.918a1.45,1.45,0,0,1,.462.887q.422,4.458.45,8.939a.333.333,0,0,0,.159.3c.107.145.315.247,1.01.049a4.028,4.028,0,0,1,4.842,2.275c.242.57.457.694.642.695,0,.028,0,.056,0,.084a.389.389,0,0,0,.776-.04q-.147-3.473-.294-6.947c-.076-1.807-.057-3.6-.23-5.4a2.721,2.721,0,0,1-.019-.43,9.717,9.717,0,0,1,.86-2.484c.322-.849.648-1.7,1-2.534.434-1.046,2.195-4.083,1.866-5.314-.237-.887-.824-1.124-1.105-.423" transform="translate(-830.259 -469.139)" fill="#eb8b65"/>
        <path id="Trazado_1226799" data-name="Trazado 1226799" d="M808.642,1091.7c-.412-11.156-1.186-22.3-2.459-33.394-.855-7.446-1.188-13.968-6.35-19.731a2.988,2.988,0,0,1-.727-1.906c-.066-2.022-.7-5.445-.921-7.462a.842.842,0,0,0-1.55-.361c-3.861.413-7.707.926-11.533,1.592-4.212.733-15.807,3.15-15.636,3.478.523,1,.476,4.871.5,7.048.03,2.8-1.345,4.939-2.505,7.508a110.44,110.44,0,0,0-4.954,14.5c-3.471,11.834-5.322,23.174-8.067,35.19a152.478,152.478,0,0,1-8.394,24.624c-3.454,8.252-6.472,16.56-8.015,25.406-.291,1.666.169,1.295,1.162,1.678,1.315.507,2.689.291,4.262.258a61.985,61.985,0,0,1,10.193.669c6.645.96,10.945,2.331,17.482,3.835a215.644,215.644,0,0,0,23.088,4.2,74.683,74.683,0,0,0,11.414.84,2.446,2.446,0,0,0,2.319-2.363q.141-3.526.28-7.052c.625-16.531,1-33.08.664-49.623q-.091-4.467-.255-8.932" transform="translate(-589.966 -820.757)" fill="#fae7dc"/>
        <path id="Trazado_1226800" data-name="Trazado 1226800" d="M900,755.36c.723-.927,1.426-2.949,1.021-4.035-.236-.633-1.145-.31-2.206-.631a.847.847,0,0,1-.531-.47c-1.428-3.263-3.6-5.991-7.4-6.312a.744.744,0,0,0-.075-.02c-.044,0-.09,0-.135,0l-.061-.006c-.014,0-.023.006-.036.005-4.521-.13-9.945,3.515-10.387,8.3-.337,3.657,2.2,6.067,5.3,6.829a25.67,25.67,0,0,0,2.6,3.119c1.163,1.224,4.571,3.211,5.141,3.067,5.166-1.3,9.379-3.043,7.064-8.7A9.794,9.794,0,0,1,900,755.36" transform="translate(-703.529 -593.53)" fill="#f59e73"/>
        <path id="Trazado_1226801" data-name="Trazado 1226801" d="M1018.289,717.155a14.033,14.033,0,0,0-1.761-5.734.338.338,0,0,0-.219-.189,20.229,20.229,0,0,0-.164-3.63.307.307,0,0,0-.363-.281.35.35,0,0,0-.282-.321,26.066,26.066,0,0,0-5.14-.089,5.488,5.488,0,0,0-2.536.5,1.479,1.479,0,0,0-.581,1.187c-.187,1.236-.238,2.51-.348,3.756a9.513,9.513,0,0,0-2.246,5.88c-.065,3.3.609,6.475-1.318,9.312-.427.628-.869,1.245-1.311,1.863-2.4,3.355-3.532,6.966-8.339,8.413-.192.058,1.549,1.445,1.676,1.524a.376.376,0,0,0,.013.042c2.618,4.738,9.426,13.548,11.535,18.534.193.457,10.719-14.553,10.16-31.988-.074-2.289,1.294-6.452,1.224-8.776" transform="translate(-794.167 -563.938)" fill="#36593f"/>
        <path id="Trazado_1226802" data-name="Trazado 1226802" d="M893.893,869.56c-.683-3.8-1.343-8.7-4.379-11.3-1.224-1.051-2.59-1.028-4.122-.835A58.711,58.711,0,0,0,877.846,859a.444.444,0,0,0-.251-.022,43.674,43.674,0,0,1-9.467,1.288c-2.587-.032-5.286-.937-7.855-.342-5.758,1.335-6.71,7.868-6.337,12.8a85.147,85.147,0,0,0,3.029,15.045c.537,2.036,1.072,4.07,1.636,6.1.484,1.744.713,3.8,1.828,5.279a6.14,6.14,0,0,0,3.04,2.025c5.234,1.718,11.039.368,16.043-1.461a25.676,25.676,0,0,1,12-1.358c8.06,1.025,3.1-24.8,2.406-28.657l-.024-.135" transform="translate(-682.531 -684.108)" fill="#36593f"/>
        <path id="Trazado_1226803" data-name="Trazado 1226803" d="M926.659,858.538c-.073-1.246.293-3.462-1.4-3.648a50.163,50.163,0,0,0-6.877.21.787.787,0,0,0-.149.035c-1.459-.372-2.629-.327-3.133,1.439a26.622,26.622,0,0,0-.764,4.393,2.052,2.052,0,0,0,.737,2.148c1.629,1.1,5.237-.336,6.862-.748,1.894-.48,3.6-1.2,4.1-3.079a.68.68,0,0,0,.63-.749" transform="translate(-730.792 -682.106)" fill="#36593f"/>
        <path id="Trazado_1226804" data-name="Trazado 1226804" d="M828.173,778.238c-2-2.5-4.669-4.558-5.264-7.807a28.236,28.236,0,0,1-.358-3.745,3.521,3.521,0,0,1,.53-2.025A10.24,10.24,0,0,0,824.763,760c.1-1.416-.632-2.613-.626-3.968.011-2.782,1.687-3.819,2.936-5.846,2.989-4.85-1.338-9.465-5.871-10.944-4.409-1.438-9.957,1.313-12.731,5.178-2.812,3.92-2.429,6.794-.456,10.617a3.509,3.509,0,0,1-.839,4.3c-2.091,1.754-4.911,3.06-6.217,5.416-2.216,4,3.47,9.221-.354,12.432-1.435,1.205-3.364,1.647-4.86,2.791a9.36,9.36,0,0,0-2.936,3.648,7,7,0,0,0,1.422,7.787c.839,2.067,3.577,2.8,5.567,3.321a14.984,14.984,0,0,0,8.5.029c3.687-1.243,5.8-4.927,10.111-4.084,2.878.562,5.406,2.2,8.353.908,4-1.751,4.577-6.373,3.295-10.112a10.818,10.818,0,0,0-1.882-3.24" transform="translate(-633.296 -589.512)" fill="#9c593d"/>
        <path id="Trazado_1226805" data-name="Trazado 1226805" d="M843.315,884.907a13.45,13.45,0,0,1,1.012,3.221,3.522,3.522,0,0,1-1.777,3.12.36.36,0,0,0,.363.621,4.281,4.281,0,0,0,2.069-2.928c.275-1.54-.553-2.8-.973-4.225a.36.36,0,0,0-.694.191" transform="translate(-673.359 -705.785)" fill="#63311c"/>
        <path id="Trazado_1226806" data-name="Trazado 1226806" d="M901.795,849.5c-2.947,3.511-5.6,7.357-4.019,12.115,1.3,3.922,9.668,11.331,3.727,14.919a.36.36,0,0,0,.363.621c4.168-2.518,1.843-7.553-.343-10.559-1.768-2.431-3.55-4.934-3.551-8.083,0-3.327,2.311-6.1,4.331-8.5.3-.352-.211-.864-.509-.509" transform="translate(-717.219 -677.766)" fill="#63311c"/>
        <path id="Trazado_1226807" data-name="Trazado 1226807" d="M882.492,819.422c2.36.878,5.289,1.74,7.843,1.456,1.931-.215,3.113-1.717,4.176-3.2.27-.377-.354-.737-.621-.363-1.463,2.043-2.882,3.066-5.522,2.786a23.275,23.275,0,0,1-5.685-1.37c-.435-.162-.622.534-.191.694" transform="translate(-705.196 -652.037)" fill="#63311c"/>
        <path id="Trazado_1226808" data-name="Trazado 1226808" d="M884.566,844.115a22.5,22.5,0,0,0-1.116,12.58c.088.454.782.262.694-.191a21.83,21.83,0,0,1,1.116-12.2c.168-.432-.527-.619-.694-.191" transform="translate(-705.813 -673.372)" fill="#63311c"/>
        <path id="Trazado_1226809" data-name="Trazado 1226809" d="M934.568,760.431a6.328,6.328,0,0,1-2.3,7.929c-.382.258-.022.881.363.621a7.035,7.035,0,0,0,2.631-8.741c-.177-.42-.873-.236-.694.191" transform="translate(-745.008 -606.399)" fill="#63311c"/>
        <path id="Trazado_1226810" data-name="Trazado 1226810" d="M920.8,1087.3a93.009,93.009,0,0,0,20.107-2.942.27.27,0,0,0-.143-.521,92.33,92.33,0,0,1-19.963,2.923c-.346.013-.348.552,0,.54" transform="translate(-735.772 -864.984)" fill="#2e0c12"/>
        <path id="Trazado_1226811" data-name="Trazado 1226811" d="M813.34,1388.428a164.489,164.489,0,0,1-6.591,17c-.142.314.323.589.466.272a165.765,165.765,0,0,0,6.645-17.131c.107-.331-.413-.473-.52-.143" transform="translate(-644.887 -1108.065)" fill="#2e0c12"/>
        <path id="Trazado_1226812" data-name="Trazado 1226812" d="M1046.205,1289.367a206.688,206.688,0,0,1-6.835,46.822.27.27,0,0,0,.52.144,207.345,207.345,0,0,0,6.855-46.966c.01-.347-.529-.347-.54,0" transform="translate(-830.655 -1028.904)" fill="#2e0c12"/>
        <path id="Trazado_1226813" data-name="Trazado 1226813" d="M1050.376,912.283l-4.391,13.723c-.106.331.415.474.52.143l4.391-13.723c.106-.331-.415-.473-.52-.143" transform="translate(-835.933 -727.85)" fill="#2e0c12"/>
        <path id="Trazado_1226814" data-name="Trazado 1226814" d="M947.489,866.6a8.2,8.2,0,0,1,4.547-.477c.339.061.485-.459.143-.52a8.714,8.714,0,0,0-4.834.477c-.319.127-.18.649.143.52" transform="translate(-757.034 -690.611)" fill="#2e0c12"/>
        <path id="Trazado_1226815" data-name="Trazado 1226815" d="M1051.977,772.971l-4.711,7.585c-.184.3.283.567.466.272l4.711-7.585c.184-.3-.283-.567-.466-.273" transform="translate(-836.934 -616.654)" fill="#2e0c12"/>
        <path id="Trazado_1226816" data-name="Trazado 1226816" d="M968.95,851.142a33.31,33.31,0,0,1-4.759.987c-1.624.1-2.8-.82-4.378-.672-.343.032-.346.572,0,.54,1.463-.137,2.431.949,3.84.785,1.818-.212,3.654-.729,5.441-1.119.339-.074.2-.594-.143-.52" transform="translate(-766.927 -679.171)" fill="#2e0c12"/>
        <path id="Trazado_1226817" data-name="Trazado 1226817" d="M828.018,1712.79c-2.59-1.588-5.684-2.514-7.78-4.861-.156-.308-.667-.377-.725.035a5.017,5.017,0,0,1-.2.822c-.957-.479-1.906-.976-2.829-1.52-2.26-1.331-4.352-2.6-7.062-2.689a1.774,1.774,0,0,0-.811.111c-1.042.486-3.451,7.537-2.471,8.707.649.775,2.007.925,2.9,1.005,2.68.241,5.531-.179,8.176.276,3.967.681,11.795,1.477,11.84-.273a1.908,1.908,0,0,0-1.04-1.612" transform="translate(-644.241 -1360.667)" fill="#59242e"/>
        <path id="Trazado_1226818" data-name="Trazado 1226818" d="M1021.712,1719.222c-.431-1.271-2-1.932-3.074-2.534a21.625,21.625,0,0,1-4.049-3.195.382.382,0,0,0-.2-.1.4.4,0,0,0-.707.249,3.153,3.153,0,0,1-.309,1.328c-.45-.167-.9-.327-1.351-.474-.851-.278-1.794-1.113-2.644-1.507a13.412,13.412,0,0,0-2.994-1.032,6.024,6.024,0,0,0-5.711,1.6,2.285,2.285,0,0,0-.392.771c-.24.964-1.44,6.234-.093,6.418a42,42,0,0,0,8.792.091c1.688-.124,3.373-.311,5.067-.346,1.619-.034,3.2.239,4.815.264,1.044.016,3.288-.238,2.847-1.54" transform="translate(-798.876 -1366.446)" fill="#59242e"/>
      </g>
    </g>
  </g>
</svg>
