<svg xmlns="http://www.w3.org/2000/svg" xmlns:xlink="http://www.w3.org/1999/xlink" width="113" height="113" viewBox="0 0 113 113">
  <defs>
    <filter id="Trazado_982547" x="0" y="0" width="113" height="113" filterUnits="userSpaceOnUse">
      <feOffset dy="3" input="SourceAlpha"/>
      <feGaussianBlur stdDeviation="3" result="blur"/>
      <feFlood flood-opacity="0.161"/>
      <feComposite operator="in" in2="blur"/>
      <feComposite in="SourceGraphic"/>
    </filter>
  </defs>
  <g id="Grupo_1236950" data-name="Grupo 1236950" transform="translate(-380.281 -6924.285)">
    <g id="Grupo_1236231" data-name="Grupo 1236231" transform="translate(389.281 6930.285)">
      <g id="Grupo_1235105" data-name="Grupo 1235105" transform="translate(0 0)">
        <g id="Grupo_1223793" data-name="Grupo 1223793" transform="translate(0 0)">
          <g id="Grupo_1208028" data-name="Grupo 1208028">
            <g id="Grupo_1177675" data-name="Grupo 1177675" transform="translate(0 0)">
              <g id="Grupo_1176928" data-name="Grupo 1176928">
                <g id="Grupo_1172322" data-name="Grupo 1172322">
                  <g id="Grupo_1164700" data-name="Grupo 1164700">
                    <g id="Grupo_1160931" data-name="Grupo 1160931">
                      <g id="Grupo_1160749" data-name="Grupo 1160749">
                        <g id="Grupo_1158891" data-name="Grupo 1158891">
                          <g id="Grupo_1157406" data-name="Grupo 1157406">
                            <g id="Grupo_1155793" data-name="Grupo 1155793">
                              <g id="Grupo_1154704" data-name="Grupo 1154704">
                                <g id="Grupo_1150790" data-name="Grupo 1150790">
                                  <g id="Grupo_1154214" data-name="Grupo 1154214">
                                    <g id="Grupo_1152583" data-name="Grupo 1152583">
                                      <g id="Grupo_1146973" data-name="Grupo 1146973">
                                        <g id="Grupo_1146954" data-name="Grupo 1146954">
                                          <g transform="matrix(1, 0, 0, 1, -9, -6)" filter="url(#Trazado_982547)">
                                            <g id="Trazado_982547-2" data-name="Trazado 982547" transform="translate(9 6)" fill="#e1daf7">
                                              <path d="M 47.5000114440918 93.49987030029297 C 41.28938293457031 93.49987030029297 35.26534652709961 92.28384399414062 29.5951976776123 89.88558959960938 C 24.11773109436035 87.56881713867188 19.19814491271973 84.25183868408203 14.97310447692871 80.02680206298828 C 10.74805164337158 75.80176544189453 7.43107795715332 70.88218688964844 5.114304542541504 65.40472412109375 C 2.716038227081299 59.73458862304688 1.500011444091797 53.71054840087891 1.500011444091797 47.49993515014648 C 1.500011444091797 41.28932189941406 2.716038227081299 35.26528167724609 5.114304542541504 29.59514808654785 C 7.43107795715332 24.1176815032959 10.74805164337158 19.1981086730957 14.97310447692871 14.97306823730469 C 19.19814491271973 10.74802875518799 24.11773109436035 7.431055068969727 29.5951976776123 5.11428165435791 C 35.26534652709961 2.716028451919556 41.28938293457031 1.500001788139343 47.5000114440918 1.500001788139343 C 53.71063995361328 1.500001788139343 59.73467636108398 2.716028451919556 65.40482330322266 5.11428165435791 C 70.88229370117188 7.431055068969727 75.8018798828125 10.74802875518799 80.02691650390625 14.97306823730469 C 84.25196838378906 19.1981086730957 87.56894683837891 24.1176815032959 89.88571929931641 29.59514808654785 C 92.28398132324219 35.26528167724609 93.50001525878906 41.28932189941406 93.50001525878906 47.49993515014648 C 93.50001525878906 53.71054840087891 92.28398132324219 59.73458862304688 89.88571929931641 65.40472412109375 C 87.56894683837891 70.88218688964844 84.25196838378906 75.80176544189453 80.02691650390625 80.02680206298828 C 75.8018798828125 84.25183868408203 70.88229370117188 87.56881713867188 65.40482330322266 89.88558959960938 C 59.73467636108398 92.28384399414062 53.71063995361328 93.49987030029297 47.5000114440918 93.49987030029297 Z" stroke="none"/>
                                              <path d="M 47.5000114440918 3 C 41.49122619628906 3 35.66378021240234 4.1761474609375 30.17951965332031 6.495796203613281 C 24.880859375 8.7369384765625 20.12153625488281 11.94596862792969 16.03376770019531 16.03373718261719 C 11.94598388671875 20.12149047851562 8.736968994140625 24.88081359863281 6.495811462402344 30.17947387695312 C 4.176162719726562 35.66371917724609 3.000007629394531 41.49116516113281 3.000007629394531 47.49993515014648 C 3.000007629394531 53.50870513916016 4.176162719726562 59.33615112304688 6.495811462402344 64.82039642333984 C 8.736968994140625 70.11905670166016 11.94598388671875 74.87837982177734 16.03376770019531 78.96613311767578 C 20.12153625488281 83.05390167236328 24.880859375 86.26293182373047 30.17951965332031 88.50407409667969 C 35.66378021240234 90.82372283935547 41.49122619628906 91.99987030029297 47.5000114440918 91.99987030029297 C 53.50879669189453 91.99987030029297 59.33624267578125 90.82372283935547 64.82050323486328 88.50407409667969 C 70.11916351318359 86.26293182373047 74.87848663330078 83.05390167236328 78.96625518798828 78.96613311767578 C 83.05403900146484 74.87837982177734 86.2630615234375 70.11905670166016 88.50421142578125 64.82039642333984 C 90.82386016845703 59.33615112304688 92.00001525878906 53.50870513916016 92.00001525878906 47.49993515014648 C 92.00001525878906 41.49116516113281 90.82386016845703 35.66371917724609 88.50421142578125 30.17947387695312 C 86.2630615234375 24.88081359863281 83.05403900146484 20.12149047851562 78.96625518798828 16.03373718261719 C 74.87848663330078 11.94596862792969 70.11916351318359 8.7369384765625 64.82050323486328 6.495796203613281 C 59.33624267578125 4.1761474609375 53.50879669189453 3 47.5000114440918 3 M 47.5000114440918 0 C 73.73353576660156 0 95.00001525878906 21.26644134521484 95.00001525878906 47.49993515014648 C 95.00001525878906 73.73342895507812 73.73353576660156 94.99987030029297 47.5000114440918 94.99987030029297 C 21.26648712158203 94.99987030029297 7.62939453125e-06 73.73342895507812 7.62939453125e-06 47.49993515014648 C 7.62939453125e-06 21.26644134521484 21.26648712158203 0 47.5000114440918 0 Z" stroke="none" fill="#6c4dd8"/>
                                            </g>
                                          </g>
                                        </g>
                                      </g>
                                    </g>
                                  </g>
                                </g>
                              </g>
                            </g>
                          </g>
                        </g>
                      </g>
                    </g>
                  </g>
                </g>
              </g>
            </g>
          </g>
        </g>
      </g>
    </g>
    <g id="carpeta_4_" data-name="carpeta (4)" transform="translate(394.776 6951.41)">
      <path id="Trazado_1227111" data-name="Trazado 1227111" d="M134.062,251.454h-14.9a1.735,1.735,0,0,1-1.227-.508l-2.2-2.2a2.6,2.6,0,0,0-1.84-.762h-7.6a2.6,2.6,0,0,0-2.6,2.6v22.559a2.6,2.6,0,0,0,2.6,2.6h27.764a2.6,2.6,0,0,0,2.6-2.6V254.057a2.6,2.6,0,0,0-2.6-2.6Z" transform="translate(-78.175 -221.142)" fill="#ffe09f"/>
      <path id="Trazado_1227112" data-name="Trazado 1227112" d="M136.5,273.146h-25.87a4.343,4.343,0,0,1-4.338-4.338V247.984a2.6,2.6,0,0,0-2.6,2.6v22.559a2.6,2.6,0,0,0,2.6,2.6h27.764a2.6,2.6,0,0,0,2.6-2.6H136.5Z" transform="translate(-78.174 -221.143)" fill="#f6d190"/>
      <path id="Trazado_1227113" data-name="Trazado 1227113" d="M140.6,331.156l5.967-17.9a.868.868,0,0,0-.823-1.142h-29.89a2.6,2.6,0,0,0-2.469,1.78l-5.942,17.825a2.6,2.6,0,0,0,2.2,1.218h28.491A2.6,2.6,0,0,0,140.6,331.156Z" transform="translate(-81.52 -278.331)" fill="#ecbd83"/>
      <path id="Trazado_1227114" data-name="Trazado 1227114" d="M31.341,7.5H24.4a.868.868,0,0,0-.868.868V22.25a.868.868,0,0,0,.868.868H34.811a.868.868,0,0,0,.868-.868V11.838Z" transform="translate(-6.688 -6.688)" fill="#eceaec"/>
      <circle id="Elipse_12901" data-name="Elipse 12901" cx="1.735" cy="1.735" r="1.735" transform="translate(40.27 19.9)" fill="#b6b1b7"/>
      <path id="Trazado_1227115" data-name="Trazado 1227115" d="M26.135,17.912V7.5H24.4a.868.868,0,0,0-.868.868V22.25a.868.868,0,0,0,.868.868H34.811a.868.868,0,0,0,.868-.868V20.515H28.738a2.6,2.6,0,0,1-2.6-2.6Z" transform="translate(-6.688 -6.688)" fill="#dad8db"/>
      <path id="Trazado_1227116" data-name="Trazado 1227116" d="M95.677,10.971a.868.868,0,0,0,.868.868h3.471L95.677,7.5Z" transform="translate(-71.025 -6.688)" fill="#dad8db"/>
      <path id="Trazado_1227117" data-name="Trazado 1227117" d="M113.98,437.561a4.343,4.343,0,0,1-4.338-4.338v-.868l-2.2,6.59a2.6,2.6,0,0,0,2.2,1.218h28.491a2.6,2.6,0,0,0,2.469-1.78l.274-.823Z" transform="translate(-81.519 -385.559)" fill="#e2a975"/>
      <path id="Trazado_1227118" data-name="Trazado 1227118" d="M207.7,7.5h-6.941a.868.868,0,0,0-.868.868V22.25a.868.868,0,0,0,.868.868h10.412a.868.868,0,0,0,.868-.868V11.838Z" transform="translate(-163.955 -6.688)" fill="#eceaec"/>
      <path id="Trazado_1227119" data-name="Trazado 1227119" d="M202.49,17.912V7.5h-1.735a.868.868,0,0,0-.868.868V22.25a.868.868,0,0,0,.868.868h10.412a.868.868,0,0,0,.868-.868V20.515h-6.941A2.6,2.6,0,0,1,202.49,17.912Z" transform="translate(-163.955 -6.688)" fill="#dad8db"/>
      <path id="Trazado_1227120" data-name="Trazado 1227120" d="M272.032,10.971a.868.868,0,0,0,.868.868h3.471L272.032,7.5Z" transform="translate(-228.292 -6.688)" fill="#dad8db"/>
      <path id="Trazado_1227121" data-name="Trazado 1227121" d="M384.051,7.5H377.11a.868.868,0,0,0-.868.868V22.25a.868.868,0,0,0,.868.868h10.412a.868.868,0,0,0,.868-.868V11.838Z" transform="translate(-321.222 -6.688)" fill="#eceaec"/>
      <path id="Trazado_1227122" data-name="Trazado 1227122" d="M378.845,17.912V7.5H377.11a.868.868,0,0,0-.868.868V22.25a.868.868,0,0,0,.868.868h10.412a.868.868,0,0,0,.868-.868V20.515h-6.941A2.6,2.6,0,0,1,378.845,17.912Z" transform="translate(-321.222 -6.688)" fill="#dad8db"/>
      <path id="Trazado_1227123" data-name="Trazado 1227123" d="M448.387,10.971a.868.868,0,0,0,.868.868h3.471L448.387,7.5Z" transform="translate(-385.559 -6.688)" fill="#dad8db"/>
      <path id="Trazado_1227124" data-name="Trazado 1227124" d="M319.514,456.919h-6.073a.812.812,0,0,0,0,1.624h6.073a.812.812,0,1,0,0-1.624Z" transform="translate(-264.494 -407.464)"/>
      <path id="Trazado_1227125" data-name="Trazado 1227125" d="M335.546,424.854h-6.073a.812.812,0,1,0,0,1.624h6.073a.812.812,0,1,0,0-1.624Z" transform="translate(-278.791 -378.869)"/>
      <path id="Trazado_1227126" data-name="Trazado 1227126" d="M48.909,73.769h4.338a.812.812,0,0,0,0-1.624H48.909a.812.812,0,0,0,0,1.624Z" transform="translate(-28.594 -64.336)"/>
      <path id="Trazado_1227127" data-name="Trazado 1227127" d="M54.059,105.021a.812.812,0,0,0-.812-.812H48.909a.812.812,0,0,0,0,1.624h4.338A.812.812,0,0,0,54.059,105.021Z" transform="translate(-28.594 -92.93)"/>
      <path id="Trazado_1227128" data-name="Trazado 1227128" d="M225.264,73.769H229.6a.812.812,0,0,0,0-1.624h-4.338a.812.812,0,0,0,0,1.624Z" transform="translate(-185.861 -64.336)"/>
      <path id="Trazado_1227129" data-name="Trazado 1227129" d="M230.413,105.021a.812.812,0,0,0-.812-.812h-4.338a.812.812,0,0,0,0,1.624H229.6A.812.812,0,0,0,230.413,105.021Z" transform="translate(-185.861 -92.93)"/>
      <path id="Trazado_1227130" data-name="Trazado 1227130" d="M67.741,4.576,63.4.238A.811.811,0,0,0,62.829,0H55.887a1.681,1.681,0,0,0-1.68,1.679V15.562a1.681,1.681,0,0,0,1.68,1.679h4.394V19.9a.925.925,0,0,1-.923.923H44.419a2.558,2.558,0,0,0-1.6-1.6v-1.98h4.394a1.681,1.681,0,0,0,1.679-1.679V5.15a.811.811,0,0,0-.238-.574L44.314.238A.811.811,0,0,0,43.74,0H36.8A1.681,1.681,0,0,0,35.12,1.679V15.562A1.681,1.681,0,0,0,36.8,17.241h4.394v1.98a2.558,2.558,0,0,0-1.6,1.6H24.652a.925.925,0,0,1-.923-.923V17.241h4.394a1.681,1.681,0,0,0,1.68-1.679V5.15a.811.811,0,0,0-.238-.574L25.226.238A.811.811,0,0,0,24.652,0H17.711a1.681,1.681,0,0,0-1.679,1.679V15.562a1.681,1.681,0,0,0,1.679,1.679h4.394V19.9a2.55,2.55,0,0,0,2.547,2.547H39.592a2.558,2.558,0,0,0,1.6,1.6v5.443a1.776,1.776,0,0,1-1.112-.517l-1.946-1.946a3.392,3.392,0,0,0-2.415-1h-7.6a3.418,3.418,0,0,0-3.415,3.415V52a3.418,3.418,0,0,0,3.414,3.415H56.614a3.41,3.41,0,0,0,3.24-2.335l5.967-17.9a1.679,1.679,0,0,0-1.593-2.211H59.3v-.056A3.418,3.418,0,0,0,55.887,29.5H45.476a.812.812,0,1,0,0,1.624H55.887a1.793,1.793,0,0,1,1.791,1.791v.056H42.817V24.048a2.558,2.558,0,0,0,1.6-1.6H59.358A2.55,2.55,0,0,0,61.905,19.9V17.241H66.3a1.681,1.681,0,0,0,1.679-1.679V5.15a.812.812,0,0,0-.238-.574Zm-23.188-1.8,1.567,1.567H44.608a.056.056,0,0,1-.056-.056Zm-7.809,12.79V1.679a.056.056,0,0,1,.056-.056h6.129V4.282a1.681,1.681,0,0,0,1.679,1.679h2.659v9.6a.056.056,0,0,1-.056.056H36.8A.056.056,0,0,1,36.744,15.562ZM25.464,2.771l1.567,1.567H25.52a.056.056,0,0,1-.056-.056Zm-7.809,12.79V1.679a.056.056,0,0,1,.056-.056h6.129V4.282A1.681,1.681,0,0,0,25.52,5.962h2.659v9.6a.056.056,0,0,1-.056.056H17.711A.056.056,0,0,1,17.656,15.562Zm24.35,5.15a.924.924,0,0,1,.923.922v0a.923.923,0,1,1-.923-.925ZM64.273,34.617a.051.051,0,0,1,.008.05l-5.967,17.9a1.789,1.789,0,0,1-1.7,1.225H28.123a1.785,1.785,0,0,1-1.292-.554l5.807-17.421a1.789,1.789,0,0,1,1.7-1.225h29.89A.051.051,0,0,1,64.273,34.617ZM34.337,32.97a3.41,3.41,0,0,0-3.24,2.335L26.332,49.6V29.444a1.793,1.793,0,0,1,1.791-1.791h7.6a1.779,1.779,0,0,1,1.266.525l1.946,1.946a3.39,3.39,0,0,0,2.26,1V32.97Zm29.3-30.2,1.567,1.567H63.7a.056.056,0,0,1-.056-.056ZM66.3,15.618H55.888a.056.056,0,0,1-.056-.056V1.679a.056.056,0,0,1,.056-.056h6.129V4.282A1.681,1.681,0,0,0,63.7,5.962h2.659v9.6a.056.056,0,0,1-.056.056Z"/>
      <path id="Trazado_1227131" data-name="Trazado 1227131" d="M405.956,72.145h-4.338a.812.812,0,1,0,0,1.624h4.338a.812.812,0,1,0,0-1.624Z" transform="translate(-343.127 -64.336)"/>
      <path id="Trazado_1227132" data-name="Trazado 1227132" d="M405.956,104.209h-4.338a.812.812,0,1,0,0,1.624h4.338a.812.812,0,1,0,0-1.624Z" transform="translate(-343.127 -92.93)"/>
    </g>
  </g>
</svg>
