<svg xmlns="http://www.w3.org/2000/svg" xmlns:xlink="http://www.w3.org/1999/xlink" width="113" height="113" viewBox="0 0 113 113">
  <defs>
    <filter id="Trazado_982547" x="0" y="0" width="113" height="113" filterUnits="userSpaceOnUse">
      <feOffset dy="3" input="SourceAlpha"/>
      <feGaussianBlur stdDeviation="3" result="blur"/>
      <feFlood flood-opacity="0.161"/>
      <feComposite operator="in" in2="blur"/>
      <feComposite in="SourceGraphic"/>
    </filter>
  </defs>
  <g id="Grupo_1236969" data-name="Grupo 1236969" transform="translate(-695.281 -6924.285)">
    <g id="Grupo_1236232" data-name="Grupo 1236232" transform="translate(704.281 6930.285)">
      <g id="Grupo_1235107" data-name="Grupo 1235107" transform="translate(0 0)">
        <g id="Grupo_1223796" data-name="Grupo 1223796" transform="translate(0 0)">
          <g id="Grupo_1208038" data-name="Grupo 1208038">
            <g id="Grupo_1202104" data-name="Grupo 1202104" transform="translate(0 0)">
              <g id="Grupo_1201923" data-name="Grupo 1201923" transform="translate(0 0)">
                <g id="Grupo_1176928" data-name="Grupo 1176928">
                  <g id="Grupo_1172322" data-name="Grupo 1172322">
                    <g id="Grupo_1164700" data-name="Grupo 1164700">
                      <g id="Grupo_1160931" data-name="Grupo 1160931">
                        <g id="Grupo_1160749" data-name="Grupo 1160749">
                          <g id="Grupo_1158891" data-name="Grupo 1158891">
                            <g id="Grupo_1157406" data-name="Grupo 1157406">
                              <g id="Grupo_1155793" data-name="Grupo 1155793">
                                <g id="Grupo_1154704" data-name="Grupo 1154704">
                                  <g id="Grupo_1150790" data-name="Grupo 1150790">
                                    <g id="Grupo_1154214" data-name="Grupo 1154214">
                                      <g id="Grupo_1152583" data-name="Grupo 1152583">
                                        <g id="Grupo_1146973" data-name="Grupo 1146973">
                                          <g id="Grupo_1146954" data-name="Grupo 1146954">
                                            <g transform="matrix(1, 0, 0, 1, -9, -6)" filter="url(#Trazado_982547)">
                                              <g id="Trazado_982547-2" data-name="Trazado 982547" transform="translate(9 6)" fill="#e1daf7">
                                                <path d="M 47.5000114440918 93.49987030029297 C 41.28938293457031 93.49987030029297 35.26534652709961 92.28384399414062 29.5951976776123 89.88558959960938 C 24.11773109436035 87.56881713867188 19.19814491271973 84.25183868408203 14.97310447692871 80.02680206298828 C 10.74805164337158 75.80176544189453 7.43107795715332 70.88218688964844 5.114304542541504 65.40472412109375 C 2.716038227081299 59.73458862304688 1.500011444091797 53.71054840087891 1.500011444091797 47.49993515014648 C 1.500011444091797 41.28932189941406 2.716038227081299 35.26528167724609 5.114304542541504 29.59514808654785 C 7.43107795715332 24.1176815032959 10.74805164337158 19.1981086730957 14.97310447692871 14.97306823730469 C 19.19814491271973 10.74802875518799 24.11773109436035 7.431055068969727 29.5951976776123 5.11428165435791 C 35.26534652709961 2.716028451919556 41.28938293457031 1.500001788139343 47.5000114440918 1.500001788139343 C 53.71063995361328 1.500001788139343 59.73467636108398 2.716028451919556 65.40482330322266 5.11428165435791 C 70.88229370117188 7.431055068969727 75.8018798828125 10.74802875518799 80.02691650390625 14.97306823730469 C 84.25196838378906 19.1981086730957 87.56894683837891 24.1176815032959 89.88571929931641 29.59514808654785 C 92.28398132324219 35.26528167724609 93.50001525878906 41.28932189941406 93.50001525878906 47.49993515014648 C 93.50001525878906 53.71054840087891 92.28398132324219 59.73458862304688 89.88571929931641 65.40472412109375 C 87.56894683837891 70.88218688964844 84.25196838378906 75.80176544189453 80.02691650390625 80.02680206298828 C 75.8018798828125 84.25183868408203 70.88229370117188 87.56881713867188 65.40482330322266 89.88558959960938 C 59.73467636108398 92.28384399414062 53.71063995361328 93.49987030029297 47.5000114440918 93.49987030029297 Z" stroke="none"/>
                                                <path d="M 47.5000114440918 3 C 41.49122619628906 3 35.66378021240234 4.1761474609375 30.17951965332031 6.495796203613281 C 24.880859375 8.7369384765625 20.12153625488281 11.94596862792969 16.03376770019531 16.03373718261719 C 11.94598388671875 20.12149047851562 8.736968994140625 24.88081359863281 6.495811462402344 30.17947387695312 C 4.176162719726562 35.66371917724609 3.000007629394531 41.49116516113281 3.000007629394531 47.49993515014648 C 3.000007629394531 53.50870513916016 4.176162719726562 59.33615112304688 6.495811462402344 64.82039642333984 C 8.736968994140625 70.11905670166016 11.94598388671875 74.87837982177734 16.03376770019531 78.96613311767578 C 20.12153625488281 83.05390167236328 24.880859375 86.26293182373047 30.17951965332031 88.50407409667969 C 35.66378021240234 90.82372283935547 41.49122619628906 91.99987030029297 47.5000114440918 91.99987030029297 C 53.50879669189453 91.99987030029297 59.33624267578125 90.82372283935547 64.82050323486328 88.50407409667969 C 70.11916351318359 86.26293182373047 74.87848663330078 83.05390167236328 78.96625518798828 78.96613311767578 C 83.05403900146484 74.87837982177734 86.2630615234375 70.11905670166016 88.50421142578125 64.82039642333984 C 90.82386016845703 59.33615112304688 92.00001525878906 53.50870513916016 92.00001525878906 47.49993515014648 C 92.00001525878906 41.49116516113281 90.82386016845703 35.66371917724609 88.50421142578125 30.17947387695312 C 86.2630615234375 24.88081359863281 83.05403900146484 20.12149047851562 78.96625518798828 16.03373718261719 C 74.87848663330078 11.94596862792969 70.11916351318359 8.7369384765625 64.82050323486328 6.495796203613281 C 59.33624267578125 4.1761474609375 53.50879669189453 3 47.5000114440918 3 M 47.5000114440918 0 C 73.73353576660156 0 95.00001525878906 21.26644134521484 95.00001525878906 47.49993515014648 C 95.00001525878906 73.73342895507812 73.73353576660156 94.99987030029297 47.5000114440918 94.99987030029297 C 21.26648712158203 94.99987030029297 7.62939453125e-06 73.73342895507812 7.62939453125e-06 47.49993515014648 C 7.62939453125e-06 21.26644134521484 21.26648712158203 0 47.5000114440918 0 Z" stroke="none" fill="#6c4dd8"/>
                                              </g>
                                            </g>
                                          </g>
                                        </g>
                                      </g>
                                    </g>
                                  </g>
                                </g>
                              </g>
                            </g>
                          </g>
                        </g>
                      </g>
                    </g>
                  </g>
                </g>
              </g>
            </g>
          </g>
        </g>
      </g>
    </g>
    <g id="centro-de-datos" transform="translate(720 6940)">
      <g id="Grupo_1236967" data-name="Grupo 1236967">
        <g id="Grupo_1236951" data-name="Grupo 1236951">
          <path id="Trazado_1227133" data-name="Trazado 1227133" d="M50.93,14H49l-.66,2.4a9.434,9.434,0,0,0-1.54.64l-2.16-1.23-2.83,2.83,1.23,2.16a9.434,9.434,0,0,0-.64,1.54L40,23v3H28V24a2.006,2.006,0,0,0-2-2H15.25A8.239,8.239,0,0,1,15,20a7.984,7.984,0,0,1,5.03-7.42c-.01-.2-.03-.39-.03-.58A10,10,0,0,1,39.16,7.98,8,8,0,0,1,50.93,14Z" fill="#e6e9ed"/>
        </g>
        <g id="Grupo_1236952" data-name="Grupo 1236952">
          <path id="Trazado_1227134" data-name="Trazado 1227134" d="M62,23v4l-2.4.66a9.434,9.434,0,0,1-.64,1.54l1.23,2.16L57.56,34H48V29a5,5,0,1,0-2-4,4.712,4.712,0,0,0,.1,1H40V23l2.4-.66a9.434,9.434,0,0,1,.64-1.54l-1.23-2.16,2.83-2.83,2.16,1.23a9.434,9.434,0,0,1,1.54-.64L49,14h4l.66,2.4a9.434,9.434,0,0,1,1.54.64l2.16-1.23,2.83,2.83L58.96,20.8a9.434,9.434,0,0,1,.64,1.54Z" fill="#fcd770"/>
        </g>
        <g id="Grupo_1236953" data-name="Grupo 1236953">
          <path id="Trazado_1227135" data-name="Trazado 1227135" d="M60,34H48V60a2.006,2.006,0,0,1-2,2H60a2.006,2.006,0,0,0,2-2V36A2.006,2.006,0,0,0,60,34Z" fill="#ccd1d9"/>
        </g>
        <g id="Grupo_1236954" data-name="Grupo 1236954">
          <path id="Trazado_1227136" data-name="Trazado 1227136" d="M46.1,26H28V60a2.006,2.006,0,0,1-2,2H46a2.006,2.006,0,0,0,2-2V28A2.007,2.007,0,0,0,46.1,26Z" fill="#aab2bd"/>
        </g>
        <g id="Grupo_1236955" data-name="Grupo 1236955">
          <path id="Trazado_1227137" data-name="Trazado 1227137" d="M28,58v2a2.006,2.006,0,0,1-2,2H4a2.006,2.006,0,0,1-2-2V24a2.006,2.006,0,0,1,2-2H26a2.006,2.006,0,0,1,2,2V58Z" fill="#969faa"/>
        </g>
        <g id="Grupo_1236956" data-name="Grupo 1236956">
          <path id="Trazado_1227138" data-name="Trazado 1227138" d="M6,50H24v8H6Z" fill="#ff826e"/>
        </g>
        <g id="Grupo_1236957" data-name="Grupo 1236957">
          <path id="Trazado_1227139" data-name="Trazado 1227139" d="M28,54H44v4H28Z" fill="#ff826e"/>
        </g>
        <g id="Grupo_1236958" data-name="Grupo 1236958">
          <path id="Trazado_1227140" data-name="Trazado 1227140" d="M48,54H58v4H48Z" fill="#fcd770"/>
        </g>
        <g id="Grupo_1236959" data-name="Grupo 1236959">
          <path id="Trazado_1227141" data-name="Trazado 1227141" d="M48,46H58v4H48Z" fill="#fcd770"/>
        </g>
        <g id="Grupo_1236960" data-name="Grupo 1236960">
          <path id="Trazado_1227142" data-name="Trazado 1227142" d="M48,38H58v4H48Z" fill="#69d6f4"/>
        </g>
        <g id="Grupo_1236961" data-name="Grupo 1236961">
          <path id="Trazado_1227143" data-name="Trazado 1227143" d="M28,46H44v4H28Z" fill="#fcd770"/>
        </g>
        <g id="Grupo_1236962" data-name="Grupo 1236962">
          <path id="Trazado_1227144" data-name="Trazado 1227144" d="M28,38H44v4H28Z" fill="#fcd770"/>
        </g>
        <g id="Grupo_1236963" data-name="Grupo 1236963">
          <path id="Trazado_1227145" data-name="Trazado 1227145" d="M28,30H44v4H28Z" fill="#69d6f4"/>
        </g>
        <g id="Grupo_1236964" data-name="Grupo 1236964">
          <path id="Trazado_1227146" data-name="Trazado 1227146" d="M6,42H24v4H6Z" fill="#fcd770"/>
        </g>
        <g id="Grupo_1236965" data-name="Grupo 1236965">
          <path id="Trazado_1227147" data-name="Trazado 1227147" d="M6,34H24v4H6Z" fill="#fcd770"/>
        </g>
        <g id="Grupo_1236966" data-name="Grupo 1236966">
          <path id="Trazado_1227148" data-name="Trazado 1227148" d="M6,26H24v4H6Z" fill="#69d6f4"/>
        </g>
      </g>
      <g id="Grupo_1236968" data-name="Grupo 1236968">
        <path id="Trazado_1227149" data-name="Trazado 1227149" d="M63,27.763V22.237l-2.625-.718c-.086-.23-.182-.459-.286-.685l1.351-2.365-3.907-3.908-2.367,1.35c-.227-.1-.455-.2-.684-.286L53.764,13H51.77A9,9,0,0,0,39.614,6.661,11,11,0,0,0,19,11.941,8.9,8.9,0,0,0,14.063,21H4a3,3,0,0,0-3,3V60a3,3,0,0,0,3,3H60a3,3,0,0,0,3-3V36a3,3,0,0,0-3-3h-.029l1.469-1.469-1.351-2.365c.1-.226.2-.455.286-.685ZM16,20a6.969,6.969,0,0,1,4.4-6.5l.667-.267-.053-.9C21.009,12.226,21,12.114,21,12A9,9,0,0,1,38.24,8.387l.439,1,.957-.526A6.993,6.993,0,0,1,49.7,13H48.236l-.718,2.625q-.344.129-.684.286l-2.367-1.35L40.56,18.469l1.351,2.365c-.1.226-.2.455-.286.685L39,22.237V25H29V24a3,3,0,0,0-3-3H16.077A7.106,7.106,0,0,1,16,20ZM43,31v2H39V31Zm-6,2H33V31h4Zm-6,0H29V31h2ZM29,55H43v2H29Zm0-8H43v2H29Zm0-8H43v2H29ZM24,61H4a1,1,0,0,1-1-1V24a1,1,0,0,1,1-1H26a1,1,0,0,1,1,1V60a1,1,0,0,1-1,1Zm19,0H28.816A2.966,2.966,0,0,0,29,60V59H45V53H29V51H45V45H29V43H45V37H29V35H45V29H29V27H46a1,1,0,0,1,1,1V60a1,1,0,0,1-1,1Zm4-36a4,4,0,1,1,4,4,3.956,3.956,0,0,1-2-.547V28a3,3,0,0,0-1.981-2.81C47.016,25.127,47,25.063,47,25ZM57,39v2H53V39Zm-6,2H49V39h2ZM49,55h8v2H49Zm0-8h8v2H49ZM61,36V60a1,1,0,0,1-1,1H48.816A2.966,2.966,0,0,0,49,60V59H59V53H49V51H59V45H49V43H59V37H49V35H60A1,1,0,0,1,61,36Zm-2.055-4.8-1.8,1.8H49V30.651A6,6,0,1,0,45,25H41V23.763l2.193-.6.161-.525a8.007,8.007,0,0,1,.572-1.369l.258-.486L43.054,18.8l1.749-1.75,1.979,1.129.485-.256a8.006,8.006,0,0,1,1.371-.572l.524-.162.6-2.193h2.473l.6,2.193.524.162a8.006,8.006,0,0,1,1.371.572l.485.256L57.2,17.054l1.749,1.75-1.13,1.979.258.486a7.928,7.928,0,0,1,.572,1.369l.161.525,2.193.6v2.474l-2.193.6-.161.525a8.007,8.007,0,0,1-.572,1.369l-.258.486Z"/>
        <path id="Trazado_1227150" data-name="Trazado 1227150" d="M5,31H25V25H5Zm8-2V27h4v2Zm10,0H19V27h4ZM7,27h4v2H7Z"/>
        <path id="Trazado_1227151" data-name="Trazado 1227151" d="M5,39H25V33H5Zm2-4H23v2H7Z"/>
        <path id="Trazado_1227152" data-name="Trazado 1227152" d="M5,47H25V41H5Zm2-4H23v2H7Z"/>
        <path id="Trazado_1227153" data-name="Trazado 1227153" d="M5,59H25V49H5Zm2-8H23v6H7Z"/>
        <path id="Trazado_1227154" data-name="Trazado 1227154" d="M17,53h2v2H17Z"/>
        <path id="Trazado_1227155" data-name="Trazado 1227155" d="M13,53h2v2H13Z"/>
        <path id="Trazado_1227156" data-name="Trazado 1227156" d="M9,53h2v2H9Z"/>
        <path id="Trazado_1227157" data-name="Trazado 1227157" d="M40,13h2v2H40Z"/>
        <path id="Trazado_1227158" data-name="Trazado 1227158" d="M32,13h2v2H32Z"/>
        <path id="Trazado_1227159" data-name="Trazado 1227159" d="M36,13h2v2H36Z"/>
        <path id="Trazado_1227160" data-name="Trazado 1227160" d="M28,13h2v2H28Z"/>
        <path id="Trazado_1227161" data-name="Trazado 1227161" d="M24,13h2v2H24Z"/>
      </g>
    </g>
  </g>
</svg>
