<svg xmlns="http://www.w3.org/2000/svg" xmlns:xlink="http://www.w3.org/1999/xlink" width="113" height="113" viewBox="0 0 113 113">
  <defs>
    <filter id="Trazado_982547" x="0" y="0" width="113" height="113" filterUnits="userSpaceOnUse">
      <feOffset dy="3" input="SourceAlpha"/>
      <feGaussianBlur stdDeviation="3" result="blur"/>
      <feFlood flood-opacity="0.161"/>
      <feComposite operator="in" in2="blur"/>
      <feComposite in="SourceGraphic"/>
    </filter>
  </defs>
  <g id="Grupo_1236971" data-name="Grupo 1236971" transform="translate(-10296 -6941.956)">
    <g id="Grupo_1236233" data-name="Grupo 1236233" transform="translate(9499 4148.837)">
      <g id="Grupo_1235105" data-name="Grupo 1235105" transform="translate(3.131 2004.79)">
        <g id="Grupo_1223793" data-name="Grupo 1223793" transform="translate(0.869 -700.672)">
          <g id="Grupo_1208028" data-name="Grupo 1208028" transform="translate(-0.49 -4138.425)">
            <g id="Grupo_1177675" data-name="Grupo 1177675" transform="translate(-4493 3707.152)">
              <g id="Grupo_1176928" data-name="Grupo 1176928" transform="translate(5295.49 1926.273)">
                <g id="Grupo_1172322" data-name="Grupo 1172322" transform="translate(0 0)">
                  <g id="Grupo_1164700" data-name="Grupo 1164700">
                    <g id="Grupo_1160931" data-name="Grupo 1160931">
                      <g id="Grupo_1160749" data-name="Grupo 1160749">
                        <g id="Grupo_1158891" data-name="Grupo 1158891">
                          <g id="Grupo_1157406" data-name="Grupo 1157406">
                            <g id="Grupo_1155793" data-name="Grupo 1155793">
                              <g id="Grupo_1154704" data-name="Grupo 1154704">
                                <g id="Grupo_1150790" data-name="Grupo 1150790">
                                  <g id="Grupo_1154214" data-name="Grupo 1154214">
                                    <g id="Grupo_1152583" data-name="Grupo 1152583">
                                      <g id="Grupo_1146973" data-name="Grupo 1146973">
                                        <g id="Grupo_1146954" data-name="Grupo 1146954">
                                          <g transform="matrix(1, 0, 0, 1, -9, -6)" filter="url(#Trazado_982547)">
                                            <g id="Trazado_982547-2" data-name="Trazado 982547" transform="translate(9 6)" fill="#e1daf7">
                                              <path d="M 47.5000114440918 93.49987030029297 C 41.28938293457031 93.49987030029297 35.26534652709961 92.28384399414062 29.5951976776123 89.88558959960938 C 24.11773109436035 87.56881713867188 19.19814491271973 84.25183868408203 14.97310447692871 80.02680206298828 C 10.74805164337158 75.80176544189453 7.43107795715332 70.88218688964844 5.114304542541504 65.40472412109375 C 2.716038227081299 59.73458862304688 1.500011444091797 53.71054840087891 1.500011444091797 47.49993515014648 C 1.500011444091797 41.28932189941406 2.716038227081299 35.26528167724609 5.114304542541504 29.59514808654785 C 7.43107795715332 24.1176815032959 10.74805164337158 19.1981086730957 14.97310447692871 14.97306823730469 C 19.19814491271973 10.74802875518799 24.11773109436035 7.431055068969727 29.5951976776123 5.11428165435791 C 35.26534652709961 2.716028451919556 41.28938293457031 1.500001788139343 47.5000114440918 1.500001788139343 C 53.71063995361328 1.500001788139343 59.73467636108398 2.716028451919556 65.40482330322266 5.11428165435791 C 70.88229370117188 7.431055068969727 75.8018798828125 10.74802875518799 80.02691650390625 14.97306823730469 C 84.25196838378906 19.1981086730957 87.56894683837891 24.1176815032959 89.88571929931641 29.59514808654785 C 92.28398132324219 35.26528167724609 93.50001525878906 41.28932189941406 93.50001525878906 47.49993515014648 C 93.50001525878906 53.71054840087891 92.28398132324219 59.73458862304688 89.88571929931641 65.40472412109375 C 87.56894683837891 70.88218688964844 84.25196838378906 75.80176544189453 80.02691650390625 80.02680206298828 C 75.8018798828125 84.25183868408203 70.88229370117188 87.56881713867188 65.40482330322266 89.88558959960938 C 59.73467636108398 92.28384399414062 53.71063995361328 93.49987030029297 47.5000114440918 93.49987030029297 Z" stroke="none"/>
                                              <path d="M 47.5000114440918 3 C 41.49122619628906 3 35.66378021240234 4.1761474609375 30.17951965332031 6.495796203613281 C 24.880859375 8.7369384765625 20.12153625488281 11.94596862792969 16.03376770019531 16.03373718261719 C 11.94598388671875 20.12149047851562 8.736968994140625 24.88081359863281 6.495811462402344 30.17947387695312 C 4.176162719726562 35.66371917724609 3.000007629394531 41.49116516113281 3.000007629394531 47.49993515014648 C 3.000007629394531 53.50870513916016 4.176162719726562 59.33615112304688 6.495811462402344 64.82039642333984 C 8.736968994140625 70.11905670166016 11.94598388671875 74.87837982177734 16.03376770019531 78.96613311767578 C 20.12153625488281 83.05390167236328 24.880859375 86.26293182373047 30.17951965332031 88.50407409667969 C 35.66378021240234 90.82372283935547 41.49122619628906 91.99987030029297 47.5000114440918 91.99987030029297 C 53.50879669189453 91.99987030029297 59.33624267578125 90.82372283935547 64.82050323486328 88.50407409667969 C 70.11916351318359 86.26293182373047 74.87848663330078 83.05390167236328 78.96625518798828 78.96613311767578 C 83.05403900146484 74.87837982177734 86.2630615234375 70.11905670166016 88.50421142578125 64.82039642333984 C 90.82386016845703 59.33615112304688 92.00001525878906 53.50870513916016 92.00001525878906 47.49993515014648 C 92.00001525878906 41.49116516113281 90.82386016845703 35.66371917724609 88.50421142578125 30.17947387695312 C 86.2630615234375 24.88081359863281 83.05403900146484 20.12149047851562 78.96625518798828 16.03373718261719 C 74.87848663330078 11.94596862792969 70.11916351318359 8.7369384765625 64.82050323486328 6.495796203613281 C 59.33624267578125 4.1761474609375 53.50879669189453 3 47.5000114440918 3 M 47.5000114440918 0 C 73.73353576660156 0 95.00001525878906 21.26644134521484 95.00001525878906 47.49993515014648 C 95.00001525878906 73.73342895507812 73.73353576660156 94.99987030029297 47.5000114440918 94.99987030029297 C 21.26648712158203 94.99987030029297 7.62939453125e-06 73.73342895507812 7.62939453125e-06 47.49993515014648 C 7.62939453125e-06 21.26644134521484 21.26648712158203 0 47.5000114440918 0 Z" stroke="none" fill="#6c4dd8"/>
                                            </g>
                                          </g>
                                        </g>
                                      </g>
                                    </g>
                                  </g>
                                </g>
                              </g>
                            </g>
                          </g>
                        </g>
                      </g>
                    </g>
                  </g>
                </g>
              </g>
            </g>
          </g>
        </g>
      </g>
    </g>
    <g id="FILLED_OUTLINE" data-name="FILLED OUTLINE" transform="translate(10306.405 6953.631)">
      <path id="Trazado_1227162" data-name="Trazado 1227162" d="M297.079,24H274.006A2.006,2.006,0,0,0,272,26.006V40.051a2.006,2.006,0,0,0,2.006,2.006h18.057v4.013l4.013-4.013h1a2.006,2.006,0,0,0,2.006-2.006V26.006A2.006,2.006,0,0,0,297.079,24Z" transform="translate(-223.899 -6.997)" fill="#5dc691"/>
      <g id="Grupo_1236970" data-name="Grupo 1236970" transform="translate(51.111 21.016)">
        <path id="Trazado_1227163" data-name="Trazado 1227163" d="M296,56h21.066v2.006H296Z" transform="translate(-296 -56)" fill="#4aa071"/>
        <path id="Trazado_1227164" data-name="Trazado 1227164" d="M296,88h21.066v2.006H296Z" transform="translate(-296 -83.987)" fill="#4aa071"/>
        <path id="Trazado_1227165" data-name="Trazado 1227165" d="M312,120h11.035v2.006H312Z" transform="translate(-309.994 -111.975)" fill="#4aa071"/>
      </g>
      <path id="Trazado_1227166" data-name="Trazado 1227166" d="M49.079,24H26.006A2.006,2.006,0,0,0,24,26.006V40.051a2.006,2.006,0,0,0,2.006,2.006h1l4.013,4.013V42.057H49.079a2.006,2.006,0,0,0,2.006-2.006V26.006A2.006,2.006,0,0,0,49.079,24Z" transform="translate(-6.997 -6.997)" fill="#5dc691"/>
      <path id="Trazado_1227167" data-name="Trazado 1227167" d="M48,56H69.066v2.006H48Z" transform="translate(-27.987 -34.984)" fill="#4aa071"/>
      <path id="Trazado_1227168" data-name="Trazado 1227168" d="M48,88H69.066v2.006H48Z" transform="translate(-27.987 -62.972)" fill="#4aa071"/>
      <path id="Trazado_1227169" data-name="Trazado 1227169" d="M48,120H63.047v2.006H48Z" transform="translate(-27.987 -90.959)" fill="#4aa071"/>
      <path id="Trazado_1227170" data-name="Trazado 1227170" d="M125.343,144.464l-1.486-3.586L125.8,136l-3.616-3.616-4.875,1.939-3.586-1.486-2.071-4.812h-5.114l-2.071,4.812-3.586,1.486L96,132.388,92.387,136l1.939,4.875-1.486,3.586-4.812,2.071V151.1h42.125v-4.563Z" transform="translate(-62.997 -97.982)" fill="#f29d35"/>
      <path id="Trazado_1227171" data-name="Trazado 1227171" d="M153.935,213.041h-1.7A13.041,13.041,0,0,0,139.2,200h0a13.037,13.037,0,0,0-13.037,13.037v0h-1.7a2.006,2.006,0,0,0-1.986,2.29l.5,3.5a2.006,2.006,0,0,0,1.352,1.62l.615.205a2.006,2.006,0,0,1,1.36,1.682l.456,4.107a5.016,5.016,0,0,0,4,4.364l.613.123a1,1,0,0,1,.806.984v5.2h14.044v-5.2a1,1,0,0,1,.806-.984l.613-.123a5.016,5.016,0,0,0,4-4.364l.456-4.107a2.006,2.006,0,0,1,1.36-1.682l.615-.205a2.006,2.006,0,0,0,1.352-1.62l.5-3.5a2.006,2.006,0,0,0-1.986-2.29Z" transform="translate(-93.1 -160.927)" fill="#1c3b54"/>
      <path id="Trazado_1227172" data-name="Trazado 1227172" d="M73.18,16H50.107A3.013,3.013,0,0,0,47.1,19.009V29.045H45.092V19.009A3.013,3.013,0,0,0,42.082,16H19.009A3.013,3.013,0,0,0,16,19.009V33.054a3.013,3.013,0,0,0,3.009,3.009H19.6l5.431,5.431V36.063h3.009V34.057H23.022v2.594l-2.594-2.594H19.009a1,1,0,0,1-1-1V19.009a1,1,0,0,1,1-1H42.082a1,1,0,0,1,1,1V29.045h-.208l-2.171,5.044-2.833,1.174-5.11-2.033-4.549,4.549,2.033,5.11-1.174,2.833-5.044,2.171v5.223h2.006v-3.9l4.579-1.971,1.8-4.339-1.846-4.64,2.682-2.682,4.64,1.846,4.339-1.8L44.2,31.051h3.793l1.971,4.579,4.339,1.8,4.64-1.846,2.682,2.682L59.777,42.9l1.8,4.339,4.579,1.971v3.9h2.006V47.893l-5.044-2.171-1.174-2.833,2.033-5.11L59.426,33.23l-5.11,2.033-2.833-1.174-2.171-5.044H49.1V19.009a1,1,0,0,1,1-1H73.18a1,1,0,0,1,1,1V33.054a1,1,0,0,1-1,1H71.761l-2.594,2.594V34.057H64.152v2.006h3.009v5.431l5.431-5.431h.588a3.013,3.013,0,0,0,3.009-3.009V19.009A3.013,3.013,0,0,0,73.18,16Z"/>
      <path id="Trazado_1227173" data-name="Trazado 1227173" d="M296,56h21.066v2.006H296Z" transform="translate(-244.889 -34.984)"/>
      <path id="Trazado_1227174" data-name="Trazado 1227174" d="M296,88h21.066v2.006H296Z" transform="translate(-244.889 -62.972)"/>
      <path id="Trazado_1227175" data-name="Trazado 1227175" d="M312,120h11.035v2.006H312Z" transform="translate(-258.883 -90.959)"/>
      <path id="Trazado_1227176" data-name="Trazado 1227176" d="M146.938,205.043h-.732a14.045,14.045,0,0,0-28.018,0h-.732a3.01,3.01,0,0,0-2.979,3.435l.5,3.5a2.993,2.993,0,0,0,2.027,2.43l.615.205a1.006,1.006,0,0,1,.68.841l.456,4.107a6,6,0,0,0,4.8,5.237l.613.123v5.2h2.006v-5.2a2.012,2.012,0,0,0-1.613-1.967l-.613-.123a4,4,0,0,1-3.2-3.492l-.456-4.107a3.018,3.018,0,0,0-2.039-2.523l-.615-.205a1,1,0,0,1-.676-.81l-.5-3.5a1,1,0,0,1,.993-1.145h1.7l1,0v-1a12.038,12.038,0,0,1,24.076,0v1.005h2.7a1,1,0,0,1,.993,1.145l-.5,3.5a1,1,0,0,1-.676.81l-.615.205a3.018,3.018,0,0,0-2.039,2.523l-.456,4.107a4,4,0,0,1-3.2,3.492l-.613.123a2.012,2.012,0,0,0-1.613,1.967v5.2h2.006v-5.2l.613-.123a6,6,0,0,0,4.8-5.237l.456-4.108a1.006,1.006,0,0,1,.68-.841l.615-.205a2.993,2.993,0,0,0,2.028-2.429l.5-3.5a3.009,3.009,0,0,0-2.979-3.435Z" transform="translate(-86.103 -153.932)"/>
      <path id="Trazado_1227177" data-name="Trazado 1227177" d="M48,56H69.066v2.006H48Z" transform="translate(-27.987 -34.984)"/>
      <path id="Trazado_1227178" data-name="Trazado 1227178" d="M48,88H69.066v2.006H48Z" transform="translate(-27.987 -62.972)"/>
      <path id="Trazado_1227179" data-name="Trazado 1227179" d="M48,120H63.047v2.006H48Z" transform="translate(-27.987 -90.959)"/>
    </g>
  </g>
</svg>
