<svg xmlns="http://www.w3.org/2000/svg" xmlns:xlink="http://www.w3.org/1999/xlink" width="113" height="113" viewBox="0 0 113 113">
  <defs>
    <filter id="Trazado_982547" x="0" y="0" width="113" height="113" filterUnits="userSpaceOnUse">
      <feOffset dy="3" input="SourceAlpha"/>
      <feGaussianBlur stdDeviation="3" result="blur"/>
      <feFlood flood-opacity="0.161"/>
      <feComposite operator="in" in2="blur"/>
      <feComposite in="SourceGraphic"/>
    </filter>
  </defs>
  <g id="Grupo_1236996" data-name="Grupo 1236996" transform="translate(-10611 -6941.956)">
    <g id="Grupo_1236234" data-name="Grupo 1236234" transform="translate(9499 4148.837)">
      <g id="Grupo_1235107" data-name="Grupo 1235107" transform="translate(-0.869 2004.79)">
        <g id="Grupo_1223796" data-name="Grupo 1223796" transform="translate(0.869 -700.672)">
          <g id="Grupo_1208038" data-name="Grupo 1208038" transform="translate(0 -4138.425)">
            <g id="Grupo_1202104" data-name="Grupo 1202104" transform="translate(0 -1149.226)">
              <g id="Grupo_1201923" data-name="Grupo 1201923" transform="translate(-4174.49 4856.378)">
                <g id="Grupo_1176928" data-name="Grupo 1176928" transform="translate(5295.49 1926.273)">
                  <g id="Grupo_1172322" data-name="Grupo 1172322" transform="translate(0 0)">
                    <g id="Grupo_1164700" data-name="Grupo 1164700">
                      <g id="Grupo_1160931" data-name="Grupo 1160931">
                        <g id="Grupo_1160749" data-name="Grupo 1160749">
                          <g id="Grupo_1158891" data-name="Grupo 1158891">
                            <g id="Grupo_1157406" data-name="Grupo 1157406">
                              <g id="Grupo_1155793" data-name="Grupo 1155793">
                                <g id="Grupo_1154704" data-name="Grupo 1154704">
                                  <g id="Grupo_1150790" data-name="Grupo 1150790">
                                    <g id="Grupo_1154214" data-name="Grupo 1154214">
                                      <g id="Grupo_1152583" data-name="Grupo 1152583">
                                        <g id="Grupo_1146973" data-name="Grupo 1146973">
                                          <g id="Grupo_1146954" data-name="Grupo 1146954">
                                            <g transform="matrix(1, 0, 0, 1, -9, -6)" filter="url(#Trazado_982547)">
                                              <g id="Trazado_982547-2" data-name="Trazado 982547" transform="translate(9 6)" fill="#e1daf7">
                                                <path d="M 47.5000114440918 93.49987030029297 C 41.28938293457031 93.49987030029297 35.26534652709961 92.28384399414062 29.5951976776123 89.88558959960938 C 24.11773109436035 87.56881713867188 19.19814491271973 84.25183868408203 14.97310447692871 80.02680206298828 C 10.74805164337158 75.80176544189453 7.43107795715332 70.88218688964844 5.114304542541504 65.40472412109375 C 2.716038227081299 59.73458862304688 1.500011444091797 53.71054840087891 1.500011444091797 47.49993515014648 C 1.500011444091797 41.28932189941406 2.716038227081299 35.26528167724609 5.114304542541504 29.59514808654785 C 7.43107795715332 24.1176815032959 10.74805164337158 19.1981086730957 14.97310447692871 14.97306823730469 C 19.19814491271973 10.74802875518799 24.11773109436035 7.431055068969727 29.5951976776123 5.11428165435791 C 35.26534652709961 2.716028451919556 41.28938293457031 1.500001788139343 47.5000114440918 1.500001788139343 C 53.71063995361328 1.500001788139343 59.73467636108398 2.716028451919556 65.40482330322266 5.11428165435791 C 70.88229370117188 7.431055068969727 75.8018798828125 10.74802875518799 80.02691650390625 14.97306823730469 C 84.25196838378906 19.1981086730957 87.56894683837891 24.1176815032959 89.88571929931641 29.59514808654785 C 92.28398132324219 35.26528167724609 93.50001525878906 41.28932189941406 93.50001525878906 47.49993515014648 C 93.50001525878906 53.71054840087891 92.28398132324219 59.73458862304688 89.88571929931641 65.40472412109375 C 87.56894683837891 70.88218688964844 84.25196838378906 75.80176544189453 80.02691650390625 80.02680206298828 C 75.8018798828125 84.25183868408203 70.88229370117188 87.56881713867188 65.40482330322266 89.88558959960938 C 59.73467636108398 92.28384399414062 53.71063995361328 93.49987030029297 47.5000114440918 93.49987030029297 Z" stroke="none"/>
                                                <path d="M 47.5000114440918 3 C 41.49122619628906 3 35.66378021240234 4.1761474609375 30.17951965332031 6.495796203613281 C 24.880859375 8.7369384765625 20.12153625488281 11.94596862792969 16.03376770019531 16.03373718261719 C 11.94598388671875 20.12149047851562 8.736968994140625 24.88081359863281 6.495811462402344 30.17947387695312 C 4.176162719726562 35.66371917724609 3.000007629394531 41.49116516113281 3.000007629394531 47.49993515014648 C 3.000007629394531 53.50870513916016 4.176162719726562 59.33615112304688 6.495811462402344 64.82039642333984 C 8.736968994140625 70.11905670166016 11.94598388671875 74.87837982177734 16.03376770019531 78.96613311767578 C 20.12153625488281 83.05390167236328 24.880859375 86.26293182373047 30.17951965332031 88.50407409667969 C 35.66378021240234 90.82372283935547 41.49122619628906 91.99987030029297 47.5000114440918 91.99987030029297 C 53.50879669189453 91.99987030029297 59.33624267578125 90.82372283935547 64.82050323486328 88.50407409667969 C 70.11916351318359 86.26293182373047 74.87848663330078 83.05390167236328 78.96625518798828 78.96613311767578 C 83.05403900146484 74.87837982177734 86.2630615234375 70.11905670166016 88.50421142578125 64.82039642333984 C 90.82386016845703 59.33615112304688 92.00001525878906 53.50870513916016 92.00001525878906 47.49993515014648 C 92.00001525878906 41.49116516113281 90.82386016845703 35.66371917724609 88.50421142578125 30.17947387695312 C 86.2630615234375 24.88081359863281 83.05403900146484 20.12149047851562 78.96625518798828 16.03373718261719 C 74.87848663330078 11.94596862792969 70.11916351318359 8.7369384765625 64.82050323486328 6.495796203613281 C 59.33624267578125 4.1761474609375 53.50879669189453 3 47.5000114440918 3 M 47.5000114440918 0 C 73.73353576660156 0 95.00001525878906 21.26644134521484 95.00001525878906 47.49993515014648 C 95.00001525878906 73.73342895507812 73.73353576660156 94.99987030029297 47.5000114440918 94.99987030029297 C 21.26648712158203 94.99987030029297 7.62939453125e-06 73.73342895507812 7.62939453125e-06 47.49993515014648 C 7.62939453125e-06 21.26644134521484 21.26648712158203 0 47.5000114440918 0 Z" stroke="none" fill="#6c4dd8"/>
                                              </g>
                                            </g>
                                          </g>
                                        </g>
                                      </g>
                                    </g>
                                  </g>
                                </g>
                              </g>
                            </g>
                          </g>
                        </g>
                      </g>
                    </g>
                  </g>
                </g>
              </g>
            </g>
          </g>
        </g>
      </g>
    </g>
    <g id="usabilidad" transform="translate(10578.881 6964.947)">
      <g id="Grupo_1236973" data-name="Grupo 1236973" transform="translate(67.434 45.158)">
        <g id="Grupo_1236972" data-name="Grupo 1236972">
          <path id="Trazado_1227180" data-name="Trazado 1227180" d="M74.7,378.925l-.66,1.894V387.3a2.378,2.378,0,0,0,2.378,2.378h28.122a2.378,2.378,0,0,0,2.378-2.378v-6.491l-.66-1.887Z" transform="translate(-74.038 -378.925)" fill="#736e6e"/>
        </g>
      </g>
      <g id="Grupo_1236975" data-name="Grupo 1236975" transform="translate(67.434 0.894)">
        <g id="Grupo_1236974" data-name="Grupo 1236974">
          <path id="Trazado_1227181" data-name="Trazado 1227181" d="M106.255,17.763l.66-3.359V9.876A2.378,2.378,0,0,0,104.538,7.5H76.416a2.378,2.378,0,0,0-2.378,2.378V14.4l.66,3.359h31.556Z" transform="translate(-74.038 -7.498)" fill="#736e6e"/>
        </g>
      </g>
      <g id="Grupo_1236977" data-name="Grupo 1236977" transform="translate(67.434 45.158)">
        <g id="Grupo_1236976" data-name="Grupo 1236976">
          <path id="Trazado_1227182" data-name="Trazado 1227182" d="M106.255,378.925H101.83v3.293a2.378,2.378,0,0,1-2.378,2.378H74.038V387.3a2.378,2.378,0,0,0,2.378,2.378h28.122a2.378,2.378,0,0,0,2.378-2.378v-6.491Z" transform="translate(-74.038 -378.925)" fill="#595454"/>
        </g>
      </g>
      <g id="Grupo_1236979" data-name="Grupo 1236979" transform="translate(95.225 0.894)">
        <g id="Grupo_1236978" data-name="Grupo 1236978">
          <path id="Trazado_1227183" data-name="Trazado 1227183" d="M309.947,7.5h-2.708V17.763h4.425l.66-3.359V9.876A2.378,2.378,0,0,0,309.947,7.5Z" transform="translate(-307.239 -7.498)" fill="#595454"/>
        </g>
      </g>
      <g id="Grupo_1236980" data-name="Grupo 1236980" transform="translate(67.434 7.806)">
        <path id="Trazado_1227184" data-name="Trazado 1227184" d="M74.038,65.5h32.877v39.247H74.038Z" transform="translate(-74.038 -65.498)" fill="#ddeafb"/>
      </g>
      <g id="Grupo_1236981" data-name="Grupo 1236981" transform="translate(67.434 7.806)">
        <path id="Trazado_1227185" data-name="Trazado 1227185" d="M101.83,65.5V97.149a2.51,2.51,0,0,1-2.51,2.51H74.038v5.086h32.877V65.5Z" transform="translate(-74.038 -65.498)" fill="#cbe2ff"/>
      </g>
      <g id="Grupo_1236982" data-name="Grupo 1236982" transform="translate(72.881 12.874)">
        <path id="Trazado_1227186" data-name="Trazado 1227186" d="M140.664,117.249H121.18a1.43,1.43,0,0,1-1.43-1.43v-6.361a1.43,1.43,0,0,1,1.43-1.43h19.484a1.43,1.43,0,0,1,1.43,1.43v6.361A1.43,1.43,0,0,1,140.664,117.249Z" transform="translate(-119.75 -108.028)" fill="#f6f1f1"/>
      </g>
      <g id="Grupo_1236994" data-name="Grupo 1236994" transform="translate(78.123 17.449)">
        <g id="Grupo_1236984" data-name="Grupo 1236984">
          <g id="Grupo_1236983" data-name="Grupo 1236983">
            <path id="Trazado_1227187" data-name="Trazado 1227187" d="M196.413,162.521a2.246,2.246,0,0,0-2.246-2.246h-1.154a2.074,2.074,0,0,0-2.033,1.452.112.112,0,0,1-.213-.049v-.792a2.246,2.246,0,0,0-2.246-2.246h-1.154a2.247,2.247,0,0,0-2.136,1.55.115.115,0,0,1-.22,0,2.247,2.247,0,0,0-2.136-1.55h-1.154a2.246,2.246,0,0,0-2.246,2.246v-12.21a2.264,2.264,0,0,0-2.264-2.264h-1.2a2.185,2.185,0,0,0-2.185,2.185l-.021,22.834h-.045l-3.259-4.167a4.416,4.416,0,0,0-6.2-.758,1.246,1.246,0,0,0-.34,1.755l6.093,7.791a2.473,2.473,0,0,1,.525,1.523,5,5,0,0,0,3.918,4.881l3.052.676v4.825a1.123,1.123,0,0,0,1.123,1.123l14.476.006a1.123,1.123,0,0,0,1.123-1.123v-7.371a1.356,1.356,0,0,1,.551-1.086,3.923,3.923,0,0,0,1.586-3.153Z" transform="translate(-163.732 -146.413)" fill="#ffcbbe"/>
          </g>
        </g>
        <g id="Grupo_1236986" data-name="Grupo 1236986" transform="translate(2.107 19.157)">
          <g id="Grupo_1236985" data-name="Grupo 1236985">
            <path id="Trazado_1227188" data-name="Trazado 1227188" d="M189.381,313.022h-.04l-3.259-4.167a4.416,4.416,0,0,0-4.666-1.533,4.414,4.414,0,0,1,2.214,1.512l2.68,3.427a1.983,1.983,0,0,0,1.562.761Z" transform="translate(-181.416 -307.16)" fill="#fdad9d"/>
          </g>
        </g>
        <g id="Grupo_1236989" data-name="Grupo 1236989" transform="translate(11.945 0)">
          <g id="Grupo_1236988" data-name="Grupo 1236988">
            <g id="Grupo_1236987" data-name="Grupo 1236987">
              <path id="Trazado_1227189" data-name="Trazado 1227189" d="M265.5,146.413H264.36a2.254,2.254,0,0,0-.4.037,2.245,2.245,0,0,1,1.847,2.208v12.089a1.532,1.532,0,0,0,1.532,1.532h.419v-13.6A2.264,2.264,0,0,0,265.5,146.413Z" transform="translate(-263.961 -146.413)" fill="#fdad9d"/>
            </g>
          </g>
        </g>
        <g id="Grupo_1236993" data-name="Grupo 1236993" transform="translate(27.379 13.863)">
          <g id="Grupo_1236992" data-name="Grupo 1236992">
            <g id="Grupo_1236991" data-name="Grupo 1236991">
              <g id="Grupo_1236990" data-name="Grupo 1236990">
                <path id="Trazado_1227190" data-name="Trazado 1227190" d="M396.526,262.734h-1.154a3.051,3.051,0,0,0-.436.046,2.246,2.246,0,0,1,1.793,2.2v13.833a3.923,3.923,0,0,1-1.586,3.153,1.355,1.355,0,0,0-.551,1.086v7.371a1.123,1.123,0,0,1-1.123,1.123h2.042a1.123,1.123,0,0,0,1.123-1.123v-7.371a1.356,1.356,0,0,1,.551-1.086,3.923,3.923,0,0,0,1.586-3.153V264.98A2.246,2.246,0,0,0,396.526,262.734Z" transform="translate(-393.47 -262.734)" fill="#fdad9d"/>
              </g>
            </g>
          </g>
        </g>
      </g>
      <g id="Grupo_1236995" data-name="Grupo 1236995" transform="translate(66.54 0)">
        <path id="Trazado_1227191" data-name="Trazado 1227191" d="M120.953,217.174h7.4a.894.894,0,1,0,0-1.787h-7.4a.894.894,0,1,0,0,1.787Z" transform="translate(-113.681 -189.718)"/>
        <path id="Trazado_1227192" data-name="Trazado 1227192" d="M129.245,251.132a.894.894,0,0,0-.894-.894h-7.4a.894.894,0,1,0,0,1.787h7.4A.894.894,0,0,0,129.245,251.132Z" transform="translate(-113.681 -220.416)"/>
        <path id="Trazado_1227193" data-name="Trazado 1227193" d="M111.7,40.427a.894.894,0,0,0-1.787,0V47.39a3.012,3.012,0,0,1-1.226,2.437,2.26,2.26,0,0,0-.911,1.8V59a.23.23,0,0,1-.229.229l-14.476-.006a.23.23,0,0,1-.229-.229V54.17a.894.894,0,0,0-.7-.872l-3.052-.676a4.081,4.081,0,0,1-3.218-4.009,3.381,3.381,0,0,0-.715-2.074l-6.093-7.791c-.13-.167.067-.4.194-.507a3.522,3.522,0,0,1,4.937.611l3.259,4.167a.893.893,0,0,0,.7.343H88.2a.894.894,0,0,0,.894-.893l.021-22.835a1.293,1.293,0,0,1,1.292-1.292h1.2a1.372,1.372,0,0,1,1.37,1.37v12.21a.894.894,0,1,0,1.787,0,1.354,1.354,0,0,1,1.352-1.352h1.154a1.349,1.349,0,0,1,1.286.933,1.009,1.009,0,0,0,1.919,0,1.349,1.349,0,0,1,1.286-.933h1.154a1.354,1.354,0,0,1,1.352,1.352v.792a1.006,1.006,0,0,0,1.91.439l.011-.024c.279-.575.433-.893,1.234-.925h1.138a1.354,1.354,0,0,1,1.352,1.352v2.7a.894.894,0,1,0,1.787,0v-2.7a3.143,3.143,0,0,0-3.139-3.139h-1.185a3.2,3.2,0,0,0-1.521.4,3.145,3.145,0,0,0-2.939-2.036h-1.154a3.164,3.164,0,0,0-.554.05V3.271A3.275,3.275,0,0,0,97.933,0H69.811A3.275,3.275,0,0,0,66.54,3.271V53.537a3.275,3.275,0,0,0,3.271,3.271H91.052v2.186a2.019,2.019,0,0,0,2.016,2.016l14.476.007A2.019,2.019,0,0,0,109.561,59V51.63a.46.46,0,0,1,.191-.369,4.847,4.847,0,0,0,1.946-3.87ZM91.6,16.555h-1.2a3.082,3.082,0,0,0-3.079,3.078V21.2H74.311a.537.537,0,0,1-.536-.536V14.3a.537.537,0,0,1,.536-.536H93.8a.537.537,0,0,1,.536.536v3.824A3.158,3.158,0,0,0,91.6,16.555ZM69.811,55.022a1.486,1.486,0,0,1-1.484-1.484V47.946H79.191a.894.894,0,0,0,0-1.787H68.327V8.7h7.1a.894.894,0,1,0,0-1.787h-7.1V3.271a1.486,1.486,0,0,1,1.484-1.484H97.933a1.486,1.486,0,0,1,1.484,1.484V6.912H79.6a.894.894,0,0,0,0,1.787H99.417V29.634a3.133,3.133,0,0,0-2.151-.85H96.112a3.122,3.122,0,0,0-1.352.306V22.779l.02-.008a2.333,2.333,0,0,0,1.339-2.1V14.3A2.326,2.326,0,0,0,93.8,11.981H74.311A2.326,2.326,0,0,0,71.988,14.3v6.362a2.326,2.326,0,0,0,2.323,2.323H87.324l-.016,16.946L85.6,37.751a5.309,5.309,0,0,0-7.453-.912l-.013.01a2.132,2.132,0,0,0-.48,3l6.093,7.791a1.586,1.586,0,0,1,.335.973A5.857,5.857,0,0,0,88.7,54.366l2.352.521v.134H69.811Z" transform="translate(-66.54 0)"/>
      </g>
    </g>
  </g>
</svg>
