<svg xmlns="http://www.w3.org/2000/svg" xmlns:xlink="http://www.w3.org/1999/xlink" width="295" height="317" viewBox="0 0 295 317">
  <defs>
    <clipPath id="clip-path">
      <rect id="Rectángulo_423992" data-name="Rectángulo 423992" width="295" height="317" transform="translate(1125 8135)" fill="#fff" stroke="#707070" stroke-width="1"/>
    </clipPath>
    <clipPath id="clip-path-2">
      <path id="Trazado_1227281" data-name="Trazado 1227281" d="M77.912,77.912a147.5,147.5,0,0,0,0,208.6l208.6-208.6A147.5,147.5,0,0,0,77.912,77.912Z" transform="translate(-34.71 -34.71)"/>
    </clipPath>
    <clipPath id="clip-path-3">
      <path id="Trazado_1227358" data-name="Trazado 1227358" d="M306.364,306.364a147.5,147.5,0,0,0,0-208.6l-208.6,208.6A147.5,147.5,0,0,0,306.364,306.364Z" transform="translate(-97.767 -97.767)"/>
    </clipPath>
  </defs>
  <g id="Enmascarar_grupo_1208509" data-name="Enmascarar grupo 1208509" transform="translate(-1125 -8135)" clip-path="url(#clip-path)">
    <g id="_7456195_3659130" data-name="7456195_3659130" transform="translate(1776.29 8137.29)">
      <g id="OBJECT" transform="translate(-651.29 8.71)">
        <g id="Grupo_1237100" data-name="Grupo 1237100" transform="translate(0)">
          <g id="Grupo_1237078" data-name="Grupo 1237078">
            <g id="Grupo_1237072" data-name="Grupo 1237072">
              <g id="Grupo_1237042" data-name="Grupo 1237042">
                <g id="Grupo_1237041" data-name="Grupo 1237041" clip-path="url(#clip-path-2)">
                  <path id="Trazado_1227220" data-name="Trazado 1227220" d="M77.912,77.912a147.5,147.5,0,0,0,0,208.6l208.6-208.6A147.5,147.5,0,0,0,77.912,77.912Z" transform="translate(-34.71 -34.71)" fill="#0c1a3c"/>
                  <g id="Grupo_1237019" data-name="Grupo 1237019" transform="translate(2.024 62.135)">
                    <path id="Trazado_1227221" data-name="Trazado 1227221" d="M243.446,166.557l-52.482,50.21-3.078,2.943L110.55,293.691l-4.492,4.3L65.02,337.242l-4.544,4.351C35.346,344.387,39.8,324.532,39.8,324.532c-4.493-11.491-.512-16.644-.512-16.644a28.529,28.529,0,0,1,1.03-19.336,24.31,24.31,0,0,1,1.269-20.215,24.955,24.955,0,0,1,6.021-22.252C42.564,226,53.665,219.8,53.665,219.8s-2.556-17.086,6.058-21.679c.2-.109.395-.2.589-.286,8.093-3.647,9.535,9.978,9.535,9.978,6.141,1.613,7.14,12.477,7.14,12.477,7.047,2.129,9.2,17.515,9.2,17.515,6.733,1.862,6.655,18.265,6.655,18.265,6.973,4.669,9.682,17.612,10.2,20.376,0,.008.009.015,0,.024.014.087.027.158.039.229a1.75,1.75,0,0,1,.027.174.429.429,0,0,0,.014.1c1.268-20.222,12.923-26.733,12.923-26.733-.65-14.34,8.152-16.067,8.152-16.067,2.029-17.386,9.628-19.9,9.628-19.9.8-14.14,9.436-18.446,9.436-18.446s-.625-18.363,7.012-20.3a5.55,5.55,0,0,1,1.909-.157c6.031.653,7.524,12.484,7.524,12.484,6.509-10.491,13.948,6.563,13.948,6.563,7.315-3.556,11.5,7.236,11.721,7.836l.01.023c.2-18.993,8.058-17.493,8.058-17.493-.3-22.127,10.389-17.077,10.389-17.077.49-23.322,12.725-20.963,12.725-20.963s-1.048-19.584,12.984-21.268a8.91,8.91,0,0,1,1.219-.072c9.494.067,4.529,16.2,4.529,16.2,8.6-.314,4.618,14.993,4.618,14.993C245.3,159.272,243.446,166.557,243.446,166.557Z" transform="translate(-37.665 -125.403)" fill="#80aa74"/>
                    <path id="Trazado_1227222" data-name="Trazado 1227222" d="M293.616,150.334s-10.58-1.515-13.735,19.934c0,0-6.763-2.18-8.467,11.866,0,0-9.14-.641-10.323,19.3l-2.236,15.336-3.078,2.943-2.5-17.434c.2-18.993,8.058-17.493,8.058-17.493-.3-22.127,10.389-17.077,10.389-17.077.49-23.322,12.725-20.963,12.725-20.963s-1.048-19.584,12.984-21.268a8.909,8.909,0,0,1,1.219-.072C296.181,130.012,291.827,139.97,293.616,150.334Z" transform="translate(-105.557 -125.402)" fill="#5c8951"/>
                    <path id="Trazado_1227223" data-name="Trazado 1227223" d="M62.646,254.849s-11.689,6.968-6.633,29.4c0,0-5.774,4.511-1.841,20.4,0,0-6.421,7.319,1.689,21.548,0,0-5.484,9.049,1.609,16.172,0,0-5.854,7.554,3.852,14.643,0,0-1.738,9,3.7,13.526l-4.544,4.351C35.346,377.678,39.8,357.822,39.8,357.822c-4.493-11.491-.512-16.644-.512-16.644a28.529,28.529,0,0,1,1.03-19.336,24.31,24.31,0,0,1,1.269-20.215,24.955,24.955,0,0,1,6.021-22.252c-5.047-20.089,6.053-26.283,6.053-26.283s-2.556-17.086,6.058-21.679c.2-.109.395-.2.589-.286C59.725,236.1,59.741,244.046,62.646,254.849Z" transform="translate(-37.665 -158.693)" fill="#5c8951"/>
                    <path id="Trazado_1227224" data-name="Trazado 1227224" d="M182.269,198.324c-1.5,4.4-2.859,12.275-1.892,25.972,0,0-10.949-2.874-9.026,20.178,0,0-8.924,2.79-7.828,19.548,0,0-7.321-.209-7.477,18.558,0,0-15.336,5.967-15.4,32.323,0,.592,0,1.176-.006,1.743l-4.492,4.3-2.933-21.019c1.268-20.222,12.923-26.733,12.923-26.733-.65-14.34,8.152-16.067,8.152-16.067,2.029-17.386,9.628-19.9,9.628-19.9.8-14.14,9.436-18.446,9.436-18.446s-.625-18.363,7.012-20.3A5.529,5.529,0,0,1,182.269,198.324Z" transform="translate(-67.75 -148.356)" fill="#5c8951"/>
                  </g>
                  <g id="Grupo_1237040" data-name="Grupo 1237040" transform="translate(16.577 47.686)">
                    <g id="Grupo_1237020" data-name="Grupo 1237020" transform="translate(53.371 43.209)">
                      <path id="Trazado_1227225" data-name="Trazado 1227225" d="M161.045,201.472c-.9,6.577-4,12.764-10.448,12.764-3.768,0-7.625-4.762-10.181-8.715a54.652,54.652,0,0,1-2.967-5.207l-.288-14.689-.322-16.491-.034-1.754s3.227,1.994,6.317,11.147,6.385,17.4,6.385,17.4-.452-3.905,3.247-5.008a6.842,6.842,0,0,1,1.713-.274,5.755,5.755,0,0,1,5.419,2.391C161.188,194.949,161.531,197.909,161.045,201.472Z" transform="translate(-136.805 -167.38)" fill="#65a4c5"/>
                      <path id="Trazado_1227226" data-name="Trazado 1227226" d="M161.208,209.857c-.9,6.577-4,12.764-10.448,12.764S137.613,208.7,137.613,208.7l-.288-14.689c3.172,7.392,5.762,15.148,9.551,22.232.2.363.5.788.911.726.308-.041.5-.329.658-.6a29.179,29.179,0,0,0,3.213-8.3,29.759,29.759,0,0,0,.891,8.66,10.477,10.477,0,0,0,1.206-5.851c1.192.192,2.069-1.069,2.617-2.158q1.84-3.648,3.679-7.3C161.352,203.334,161.695,206.294,161.208,209.857Z" transform="translate(-136.969 -175.765)" fill="#326c92" opacity="0.4"/>
                      <path id="Trazado_1227227" data-name="Trazado 1227227" d="M161.324,212.81a16.515,16.515,0,0,0-.121-5.971c-.5-.477-1.019-.967-1.553-1.446q-1.487,2.95-2.973,5.9c1.163,1.753,2.174,3.2,2.122,4.372-.114,2.611-6.052,13.489-12.1,6.819s-6.685-19.1-6.685-19.1l-2.318,6.417.036,1.846s6.707,13.922,13.147,13.922S160.42,219.388,161.324,212.81Z" transform="translate(-137.084 -178.719)" fill="#326c92" opacity="0.4"/>
                    </g>
                    <g id="Grupo_1237021" data-name="Grupo 1237021" transform="translate(0 114.855)">
                      <path id="Trazado_1227228" data-name="Trazado 1227228" d="M122.683,370.122H102.856s-9-89.73-9.811-88.915-16.354,89.737-16.559,90.347c-.1.295-4.076-.014-8.221-.425-4.577-.445-9.359-1.007-9.359-1.007s1.843-12.668,2.453-22.075c.486-7.461,5.227-50.343,7.16-67.711.5-4.515.815-7.3.815-7.3,1.631-2.042,46.191-.815,47.013.61a52.95,52.95,0,0,1,.63,6.036C118.655,300.822,122.683,370.122,122.683,370.122Z" transform="translate(-58.905 -271.953)" fill="#ffab2f"/>
                      <path id="Trazado_1227229" data-name="Trazado 1227229" d="M117.221,367.676c.069.808.137,1.631.185,2.446H107.157s-9-89.73-9.811-88.915-16.354,89.737-16.559,90.347c-.1.295-4.076-.014-8.221-.425q.021-19.022.048-38.038c2.131,2.158,6.05,1.24,8.016-1.062s2.521-5.467,2.987-8.468q2.908-18.735,5.563-37.517-6.248.185-12.5.363,6.2-2.179,12.394-4.364l-16.258-1.706c.5-4.515.815-7.3.815-7.3,1.631-2.042,46.191-.815,47.013.61a52.956,52.956,0,0,1,.63,6.036l-17.347,4.131c3.378,1.857,7.584,2.521,12.291,3.015l-10.989.349A761.712,761.712,0,0,1,117.221,367.676Z" transform="translate(-63.206 -271.953)" fill="#f88f00"/>
                      <path id="Trazado_1227230" data-name="Trazado 1227230" d="M84.519,345.275c-.343,4.106-2.947,7.24-5.816,7s-4.916-3.763-4.573-7.869,2.947-7.24,5.816-7S84.862,341.169,84.519,345.275Z" transform="translate(-63.687 -292.559)" fill="#f88f00"/>
                      <path id="Trazado_1227231" data-name="Trazado 1227231" d="M140.478,347.5c.482,4.092-1.444,7.683-4.3,8.019s-5.567-2.707-6.05-6.8,1.444-7.683,4.3-8.019S140,343.411,140.478,347.5Z" transform="translate(-81.307 -293.593)" fill="#f88f00"/>
                      <path id="Trazado_1227232" data-name="Trazado 1227232" d="M91.172,283.074,103.2,284.66l14.82-1.746" transform="translate(-69.065 -275.405)" fill="none" stroke="#ffab2f" stroke-linecap="round" stroke-linejoin="round" stroke-miterlimit="10" stroke-width="0.75"/>
                      <path id="Trazado_1227233" data-name="Trazado 1227233" d="M82.074,373.829c0-1.278,13.869-88.953,13.869-88.953" transform="translate(-66.2 -276.022)" fill="none" stroke="#ffab2f" stroke-linecap="round" stroke-linejoin="round" stroke-miterlimit="10" stroke-width="0.75"/>
                      <path id="Trazado_1227234" data-name="Trazado 1227234" d="M114.562,285.125s9.546,85.266,9.386,85.905" transform="translate(-76.43 -276.101)" fill="none" stroke="#ffab2f" stroke-linecap="round" stroke-linejoin="round" stroke-miterlimit="10" stroke-width="0.75"/>
                    </g>
                    <g id="Grupo_1237023" data-name="Grupo 1237023" transform="translate(8.557 32.795)">
                      <g id="Grupo_1237022" data-name="Grupo 1237022">
                        <path id="Trazado_1227235" data-name="Trazado 1227235" d="M121.587,239.533c-18.93,2.953-50.192-1.74-50.192-1.74l3.378-17.409c.322-1.946.6-3.987.843-6.1.507-4.46.85-9.229,1.062-14,.671-15.025.11-30.118-.151-35.832-.075-1.535-.123-2.391-.123-2.391a154.84,154.84,0,0,0,15.463-8.043c1.891-1.117,2.994-1.829,2.994-1.829l9.188,1.384,2.973,2.206,9.187,6.824s.144.774.377,2.09c.582,3.432,1.72,10.578,2.227,17.361.089,1.185.2,2.98.322,5.221.2,3.59.432,8.317.685,13.469.082,1.631.158,3.309.24,5C120.82,221.775,121.587,239.533,121.587,239.533Z" transform="translate(-71.395 -152.18)" fill="#65a4c5"/>
                        <path id="Trazado_1227236" data-name="Trazado 1227236" d="M134.46,186.128a22.477,22.477,0,0,1-.911,5.906c-1.261,2.323-3.193,2.323-5.9-6.673-2.425-8.043-4.768-16.546-8.763-20.677-.116-.116-.226-.233-.343-.336a9.15,9.15,0,0,0-1.151-.945c-4.933-3.384-12.668-10.249-16.539-10.058-3.289.164-17.765,8.585-22.027,11.1-.075-1.535-.123-2.391-.123-2.391a154.84,154.84,0,0,0,15.463-8.043c1.891-1.117,2.994-1.829,2.994-1.829l9.187,1.384,2.973,2.206,9.187,6.824s3.227,1.994,6.317,11.147,6.385,17.4,6.385,17.4S130.761,187.231,134.46,186.128Z" transform="translate(-73.697 -152.18)" fill="#6ebee9"/>
                        <path id="Trazado_1227237" data-name="Trazado 1227237" d="M122.728,257.4c-4.583,2.825-9.507,4.282-17.76,4.213a31.593,31.593,0,0,1-16.983-5.7A89.99,89.99,0,0,0,122.728,257.4Z" transform="translate(-76.619 -184.843)" fill="#326c92" opacity="0.4"/>
                        <path id="Trazado_1227238" data-name="Trazado 1227238" d="M122,219.786c-1.788-1.1-3.631-2.131-5.467-3.152-2.192-1.213-4.46-2.446-6.954-2.686-3.494-.343-6.838,1.322-9.955,2.939q-11.037,5.724-22.068,11.442c.507-4.46.85-9.229,1.062-14,1.192-.576,2.377-1.185,3.556-1.788Q97,204.9,111.845,197.279a3.387,3.387,0,0,1,1.425-.48,3.454,3.454,0,0,1,1.987.856,64.738,64.738,0,0,0,5.817,3.659C121.334,206.042,121.663,212.749,122,219.786Z" transform="translate(-73.335 -166.229)" fill="#326c92" opacity="0.4"/>
                        <path id="Trazado_1227239" data-name="Trazado 1227239" d="M120.213,197.316h0l-2.6.106-.041.021q-10.722,5.509-21.439,11.024c-1.081,4.56-.3,8.045,7.09,3.878C118.092,203.957,120.213,197.316,120.213,197.316Z" transform="translate(-79.061 -166.392)" fill="#326c92" opacity="0.4"/>
                        <path id="Trazado_1227240" data-name="Trazado 1227240" d="M137.355,170.43c.582,3.432,1.72,10.578,2.227,17.361.089,1.185.2,2.98.322,5.221.177,3.2.382,7.315.6,11.825" transform="translate(-92.164 -157.926)" fill="none" stroke="#326c92" stroke-linecap="round" stroke-linejoin="round" stroke-miterlimit="10" stroke-width="0.889"/>
                        <path id="Trazado_1227241" data-name="Trazado 1227241" d="M116.43,155.77c-.493,2.864-2.062,5.885-6.461,5.885-6.543,0-8.256-5.31-8.694-7.646,1.891-1.117,2.994-1.829,2.994-1.829l9.187,1.384Z" transform="translate(-80.804 -152.18)" fill="#fff"/>
                      </g>
                      <path id="Trazado_1227242" data-name="Trazado 1227242" d="M76.029,273.588s26.428,3.352,44.218,1.676" transform="translate(-72.854 -190.409)" fill="none" stroke="#326c92" stroke-linecap="round" stroke-linejoin="round" stroke-miterlimit="10" stroke-width="0.889"/>
                    </g>
                    <g id="Grupo_1237029" data-name="Grupo 1237029" transform="translate(27.439)">
                      <path id="Trazado_1227243" data-name="Trazado 1227243" d="M115.583,144.2v7.283A4.751,4.751,0,0,1,110.678,156a6.406,6.406,0,0,1-3.926-1.37,8.377,8.377,0,0,1-2.9-4c.082-.3,1.932-11.633,1.932-11.633Z" transform="translate(-100.497 -115.235)" fill="#ffad91"/>
                      <g id="Grupo_1237024" data-name="Grupo 1237024" transform="translate(3.355 23.765)">
                        <path id="Trazado_1227244" data-name="Trazado 1227244" d="M115.583,144.2v4.583a83.16,83.16,0,0,1-8.831,5.851,8.377,8.377,0,0,1-2.9-4c.082-.3,1.932-11.633,1.932-11.633Z" transform="translate(-103.852 -139)" fill="#d23d1e" opacity="0.5"/>
                      </g>
                      <path id="Trazado_1227245" data-name="Trazado 1227245" d="M116.429,144.212l-9.747-5.173c-.618,5.72.8,10.056,3.4,12.749a3.35,3.35,0,0,0,.274.267,9.831,9.831,0,0,0,3.316,2.158,6.383,6.383,0,0,0,1.449.381,5.48,5.48,0,0,0,1.305-3.1Z" transform="translate(-101.343 -115.247)" fill="#d23d1e" opacity="0.2"/>
                      <g id="Grupo_1237028" data-name="Grupo 1237028">
                        <g id="Grupo_1237025" data-name="Grupo 1237025" transform="translate(5.019 3.959)">
                          <path id="Trazado_1227246" data-name="Trazado 1227246" d="M124.09,132.418c-1.8,6.625-5.865,10.907-10.667,9a9.831,9.831,0,0,1-3.316-2.158,3.346,3.346,0,0,1-.274-.267c-2.658-2.754-4.09-7.221-3.364-13.134.877-7.1,3.46-12.435,7.447-14.641a9.406,9.406,0,0,1,6.474-.925c3.686.692,5.364,3.124,5.919,6.228C127.221,121.539,125.207,128.328,124.09,132.418Z" transform="translate(-106.281 -110.09)" fill="#ffad91"/>
                          <path id="Trazado_1227247" data-name="Trazado 1227247" d="M110.018,138.32c.027.486.055.966.089,1.452a3.353,3.353,0,0,1-.274-.267c-2.658-2.754-4.09-7.221-3.364-13.134.877-7.1,3.46-12.435,7.447-14.641A68.975,68.975,0,0,0,110.018,138.32Z" transform="translate(-106.281 -110.607)" fill="#d23d1e" opacity="0.2"/>
                        </g>
                        <path id="Trazado_1227248" data-name="Trazado 1227248" d="M125.722,135.372c-1.8,6.625-5.865,10.907-10.667,9a10.068,10.068,0,0,1-3.59-2.425,8.759,8.759,0,0,0,1.165.425,9.09,9.09,0,0,0,8.975-2.521c1.754-1.891,2.59-4.433,3.3-6.913a120.593,120.593,0,0,0,3.035-13.463C128.853,124.492,126.839,131.282,125.722,135.372Z" transform="translate(-102.894 -109.085)" fill="#ff8b61" opacity="0.3"/>
                        <g id="Grupo_1237026" data-name="Grupo 1237026" transform="translate(10.921 15.149)">
                          <path id="Trazado_1227249" data-name="Trazado 1227249" d="M119.532,130.224c-.108.577-.553.977-.993.895a.963.963,0,0,1-.6-1.194c.108-.577.553-.977.993-.895A.963.963,0,0,1,119.532,130.224Z" transform="translate(-115.846 -127.241)" fill="#0c1a3c"/>
                          <path id="Trazado_1227250" data-name="Trazado 1227250" d="M129.078,132.017c-.108.577-.553.977-.993.895a.963.963,0,0,1-.6-1.194c.108-.577.553-.977.993-.895A.963.963,0,0,1,129.078,132.017Z" transform="translate(-118.852 -127.805)" fill="#0c1a3c"/>
                          <path id="Trazado_1227251" data-name="Trazado 1227251" d="M123.4,132.368a22.8,22.8,0,0,0,.95,4.332c.587,1.419-2,1.844-2,1.844" transform="translate(-117.244 -128.295)" fill="none" stroke="#d23d1e" stroke-linecap="round" stroke-linejoin="round" stroke-miterlimit="10" stroke-width="0.945"/>
                          <path id="Trazado_1227252" data-name="Trazado 1227252" d="M114.9,144.383s4.183,2.265,6.9,1.126" transform="translate(-114.896 -132.079)" fill="none" stroke="#96152e" stroke-linecap="round" stroke-linejoin="round" stroke-miterlimit="10" stroke-width="0.945"/>
                          <path id="Trazado_1227253" data-name="Trazado 1227253" d="M117.118,127.068a4.1,4.1,0,0,1,3.813-.308" transform="translate(-115.596 -126.424)" fill="none" stroke="#96152e" stroke-linecap="round" stroke-linejoin="round" stroke-miterlimit="10" stroke-width="2"/>
                          <path id="Trazado_1227254" data-name="Trazado 1227254" d="M127.146,127.919a4.114,4.114,0,0,1,3.132,1.5" transform="translate(-118.753 -126.894)" fill="none" stroke="#96152e" stroke-linecap="round" stroke-linejoin="round" stroke-miterlimit="10" stroke-width="2"/>
                        </g>
                        <path id="Trazado_1227255" data-name="Trazado 1227255" d="M130.207,113.478a10.032,10.032,0,0,1-1.959,6.029,13.574,13.574,0,0,1-3.638,3.5l.363-1.637c-3.83-3.85-3.885-11.14-3.885-11.14-4.145,9.345-12.654,8.605-12.654,8.605a15.311,15.311,0,0,0,12.181-8.811c-4.289,7.386-12.778,8.352-12.778,8.352s-2.309,7.619-2.453,7.619a15.229,15.229,0,0,1-2-14.525,10.759,10.759,0,0,1,5.755-6.187c7.118-2.98,12.757,1.85,12.757,1.85S130.1,107.366,130.207,113.478Z" transform="translate(-100.035 -104.312)" fill="#ffab2f"/>
                        <path id="Trazado_1227256" data-name="Trazado 1227256" d="M128.248,121.191a13.574,13.574,0,0,1-3.638,3.5l.363-1.637c-3.83-3.85-3.885-11.14-3.885-11.14-4.145,9.345-12.654,8.605-12.654,8.605a15.311,15.311,0,0,0,12.181-8.811c-4.289,7.386-12.778,8.352-12.778,8.352s-2.309,7.619-2.453,7.619a15.229,15.229,0,0,1-2-14.525,1.866,1.866,0,0,0,.171-.075,15.8,15.8,0,0,0,3.172-2.391c-.233.891-.582,1.774-.9,2.638-.158.438-.507,2.124-.9,2.35,1.843-1.069,2.275-3.542,3.693-5.125a16.833,16.833,0,0,0,5.858.164c-1.13,2.2-2.439,4.563-4.727,5.515a7.135,7.135,0,0,0,4.748-2.391c1.281-1.288,2.281-2.83,3.5-4.179a13.3,13.3,0,0,0,5.878.733,16.64,16.64,0,0,0,1.158,8.365,26.052,26.052,0,0,1,.158-5.844,18.8,18.8,0,0,0,1.864,5.878A21.644,21.644,0,0,0,128.248,121.191Z" transform="translate(-100.035 -105.996)" fill="#cc8010"/>
                        <g id="Grupo_1237027" data-name="Grupo 1237027" transform="translate(0 16.815)">
                          <path id="Trazado_1227257" data-name="Trazado 1227257" d="M104.807,131.8s-.6-3.628-4.022-2.833-1.885,8.756,3.312,7.894Z" transform="translate(-98.955 -128.856)" fill="#ffad91"/>
                          <path id="Trazado_1227258" data-name="Trazado 1227258" d="M101.071,130.776s3.1.582,3.2,5.022" transform="translate(-99.621 -129.46)" fill="none" stroke="#d23d1e" stroke-linecap="round" stroke-linejoin="round" stroke-miterlimit="10" stroke-width="0.945"/>
                        </g>
                      </g>
                    </g>
                    <g id="Grupo_1237030" data-name="Grupo 1237030" transform="translate(48.671 48.243)">
                      <path id="Trazado_1227259" data-name="Trazado 1227259" d="M166.867,179.028l-.43-.853a1.047,1.047,0,0,0-.841-.688l-19.618-2.749c-.021,0-.04,0-.061,0l-.07-.011-.058.012a1.047,1.047,0,0,0-.393.086l-.02,0v0a1.056,1.056,0,0,0-.47.437l-14.829,26.509a1.048,1.048,0,0,0,.052,1.105l.458.948.044-.548a1.066,1.066,0,0,0,.223.06l19.618,2.749a1.059,1.059,0,0,0,1.071-.532l14.829-26.509c.016-.029.023-.061.037-.091Z" transform="translate(-129.945 -174.728)" fill="#0c1a3c"/>
                      <path id="Trazado_1227260" data-name="Trazado 1227260" d="M167.171,180.642l-.548.98L152.338,207.15a1.052,1.052,0,0,1-1.069.534l-19.615-2.747a1.062,1.062,0,0,1-.781-1.569l.651-1.165,14.182-25.343a1.063,1.063,0,0,1,1.069-.534l19.615,2.754A1.056,1.056,0,0,1,167.171,180.642Z" transform="translate(-130.194 -175.228)" fill="#ffe9e3"/>
                      <path id="Trazado_1227261" data-name="Trazado 1227261" d="M166.623,183.5l-14.285,25.528a1.052,1.052,0,0,1-1.069.534l-19.615-2.747a1.062,1.062,0,0,1-.781-1.569l.651-1.165a72.34,72.34,0,0,0,10.592-7.584c5.07-4.152,10.2-8.5,13.4-14.216Q161.046,183.04,166.623,183.5Z" transform="translate(-130.194 -177.106)" fill="#326c92" opacity="0.2"/>
                    </g>
                    <g id="Grupo_1237038" data-name="Grupo 1237038" transform="translate(1.227 42.635)">
                      <g id="Grupo_1237032" data-name="Grupo 1237032">
                        <g id="Grupo_1237031" data-name="Grupo 1237031">
                          <path id="Trazado_1227262" data-name="Trazado 1227262" d="M95.616,199.283C94.554,203,67.341,218.014,62.038,214.307c-2.22-1.555-1.439-10.058.541-19.464,2.754-13.093,7.845-27.946,10.455-28.268a3.524,3.524,0,0,1,1.761.2c6.42,2.542,3.323,25.089,3.323,25.089s9.564-5.652,13.737-4.748a2.548,2.548,0,0,1,1.11.507,7.206,7.206,0,0,1,.911.918C96.239,191.37,96.561,195.967,95.616,199.283Z" transform="translate(-60.696 -166.542)" fill="#65a4c5"/>
                          <path id="Trazado_1227263" data-name="Trazado 1227263" d="M100.356,188.646c-1-.391-3.35-.8-7.762.76a34.025,34.025,0,0,0-10.7,6.378l.6-2.336c3.076-14.175.164-23.315-1.213-26.569,6.42,2.542,3.323,25.089,3.323,25.089s9.564-5.652,13.737-4.748a2.549,2.549,0,0,1,1.11.507A7.207,7.207,0,0,1,100.356,188.646Z" transform="translate(-67.176 -166.649)" fill="#6ebee9"/>
                          <path id="Trazado_1227264" data-name="Trazado 1227264" d="M83.071,168.093c4.764,4.805,2.092,24.258,2.092,24.258s8.728-5.158,13.146-4.831" transform="translate(-67.741 -167.031)" fill="none" stroke="#326c92" stroke-linecap="round" stroke-linejoin="round" stroke-miterlimit="10" stroke-width="0.889"/>
                        </g>
                        <path id="Trazado_1227265" data-name="Trazado 1227265" d="M95.616,209.232c-1.062,3.713-28.275,18.731-33.578,15.025-2.22-1.555-1.439-10.058.541-19.464a60.626,60.626,0,0,0,1.665,12.051c1.946-6.146,6.885-11.051,12.634-13.963a24.258,24.258,0,0,0-7.756,13.792q4.563-2,9.126-3.994a70.233,70.233,0,0,0,11.195-5.707,40.149,40.149,0,0,1,1.685-8.8C91.3,197.622,96.671,205.526,95.616,209.232Z" transform="translate(-60.696 -176.492)" fill="#326c92" opacity="0.4"/>
                        <path id="Trazado_1227266" data-name="Trazado 1227266" d="M91.486,204.92c.134,4.08.99,5.707.99,5.707S73.035,222.1,66.013,224.5a11,11,0,0,1-4.6.613,2.552,2.552,0,0,0,.848,1.278c5.3,3.707,32.516-11.311,33.578-15.025a13.272,13.272,0,0,0,.463-2.815C94.589,207.589,92.345,206.8,91.486,204.92Z" transform="translate(-60.923 -178.627)" fill="#326c92" opacity="0.4"/>
                        <path id="Trazado_1227267" data-name="Trazado 1227267" d="M99.113,197.31c3.179,2.651,3.707,7.954,2.651,11.661-.679,2.374-12.044,9.368-21.542,13.136" transform="translate(-66.844 -176.23)" fill="none" stroke="#6ebee9" stroke-linecap="round" stroke-linejoin="round" stroke-miterlimit="10" stroke-width="0.889"/>
                        <path id="Trazado_1227268" data-name="Trazado 1227268" d="M80.34,203.306a29.32,29.32,0,0,0-13.315,16.8" transform="translate(-62.689 -178.118)" fill="none" stroke="#326c92" stroke-linecap="round" stroke-linejoin="round" stroke-miterlimit="10" stroke-width="0.889"/>
                        <path id="Trazado_1227269" data-name="Trazado 1227269" d="M70.421,209.55s5.6-4.836,10.759-6.05" transform="translate(-63.758 -178.179)" fill="none" stroke="#326c92" stroke-linecap="round" stroke-linejoin="round" stroke-miterlimit="10" stroke-width="0.889"/>
                      </g>
                      <g id="Grupo_1237034" data-name="Grupo 1237034" transform="translate(30.195 19.328)">
                        <g id="Grupo_1237033" data-name="Grupo 1237033">
                          <path id="Trazado_1227270" data-name="Trazado 1227270" d="M112.686,204.418l-2.962,2.1a1.226,1.226,0,0,1-1.568-.127,11.217,11.217,0,0,1-3.021-4.674,8.6,8.6,0,0,1-.343-3.172A10.239,10.239,0,0,1,105,197.1a37.645,37.645,0,0,1,4.022-2.323c.445-.178,1.267.61,2.055,1.843a13.766,13.766,0,0,1,1.768,4.234A5.7,5.7,0,0,1,112.686,204.418Z" transform="translate(-104.768 -194.753)" fill="#65a4c5"/>
                          <path id="Trazado_1227271" data-name="Trazado 1227271" d="M111.094,196.621a2.834,2.834,0,0,0-2.384-.37c-1.151.6-2.761,1.576-3.905,2.3a10.236,10.236,0,0,1,.212-1.446,37.646,37.646,0,0,1,4.022-2.323C109.484,194.6,110.307,195.388,111.094,196.621Z" transform="translate(-104.779 -194.753)" fill="#6ebee9"/>
                          <path id="Trazado_1227272" data-name="Trazado 1227272" d="M112.855,207.223l-3.208,2.276a.854.854,0,0,1-1.08-.068,11.465,11.465,0,0,1-3.262-4.908,15.634,15.634,0,0,0,7.714-.863A5.705,5.705,0,0,1,112.855,207.223Z" transform="translate(-104.937 -197.558)" fill="#326c92" opacity="0.4"/>
                        </g>
                      </g>
                      <g id="Grupo_1237037" data-name="Grupo 1237037" transform="translate(33.621 9.185)">
                        <g id="Grupo_1237035" data-name="Grupo 1237035" transform="translate(0.532 1.137)">
                          <path id="Trazado_1227273" data-name="Trazado 1227273" d="M120.466,182.521c-.829,1.288-2.919,3.59-3.6,4.453a56.512,56.512,0,0,0-3.282,6.07l-3.035-.562s.247-.432.63-1.1a73.785,73.785,0,0,1,4.166-6.735c.959-1.035,4.556-3.193,5.351-3.035C120.918,181.657,120.788,182.014,120.466,182.521Z" transform="translate(-110.545 -181.608)" fill="#ffad95"/>
                          <path id="Trazado_1227274" data-name="Trazado 1227274" d="M120.755,182.521A21.058,21.058,0,0,0,116.5,184.6c-1.254,1.028-4.837,6.776-5.008,6.947l-.027-.158a73.788,73.788,0,0,1,4.166-6.735c.959-1.035,4.556-3.193,5.351-3.035C121.207,181.657,121.077,182.014,120.755,182.521Z" transform="translate(-110.835 -181.608)" fill="#ff8b61" opacity="0.5"/>
                        </g>
                        <g id="Grupo_1237036" data-name="Grupo 1237036">
                          <path id="Trazado_1227275" data-name="Trazado 1227275" d="M128.566,187.006a6.058,6.058,0,0,1-.206.959c-.48,1.439-8.633,8.071-9.749,8.872s-6.235,1.857-6.235,1.857c-2.117-1.569-2.747-3.96-2.583-6.8,0,0,.6-.569,1.459-1.363.555-.514,1.213-1.13,1.884-1.747l.007-.007c1.672-1.555,3.391-3.131,3.631-3.289.48-.322,8.948-5.995,10.064-5.515.178.075.158.288-.014.6v.007c-.829,1.5-5.043,5.193-5.659,5.728.692-.459,5.974-4.015,6.8-3.933.315.027.521.576.623,1.329A13.323,13.323,0,0,1,128.566,187.006Z" transform="translate(-109.769 -179.948)" fill="#ffad91"/>
                          <path id="Trazado_1227276" data-name="Trazado 1227276" d="M128.377,180.573v.007c-2.042.836-6.5,3.391-8.53,4.577-1.22.713-3.371,2.288-5.152,3.624,1.672-1.555,3.391-3.131,3.631-3.289.48-.322,8.948-5.995,10.064-5.515C128.569,180.052,128.548,180.265,128.377,180.573Z" transform="translate(-111.32 -179.948)" fill="#ff8b61" opacity="0.5"/>
                          <path id="Trazado_1227277" data-name="Trazado 1227277" d="M133.8,184.818a1.47,1.47,0,0,0-1.651-.3,56.611,56.611,0,0,0-5.817,2.946l.034-.027c.644-.432,5.981-4.029,6.81-3.946C133.495,183.517,133.7,184.065,133.8,184.818Z" transform="translate(-114.985 -181.063)" fill="#ff8b61" opacity="0.8"/>
                          <path id="Trazado_1227278" data-name="Trazado 1227278" d="M128.566,190.25a6.059,6.059,0,0,1-.206.959c-.48,1.439-8.633,8.071-9.749,8.872s-6.235,1.857-6.235,1.857c-2.117-1.569-2.747-3.96-2.583-6.8,0,0,.6-.569,1.459-1.363a19.129,19.129,0,0,0,7.523-.349A47.948,47.948,0,0,0,128.566,190.25Z" transform="translate(-109.769 -183.192)" fill="#d23d1e" opacity="0.2"/>
                        </g>
                        <line id="Línea_3877" data-name="Línea 3877" x1="5.853" y2="4.287" transform="translate(12.088 4.734)" fill="none" stroke="#96152e" stroke-linecap="round" stroke-linejoin="round" stroke-miterlimit="10" stroke-width="0.945"/>
                        <line id="Línea_3878" data-name="Línea 3878" x1="5.853" y2="4.287" transform="translate(12.088 6.877)" fill="none" stroke="#96152e" stroke-linecap="round" stroke-linejoin="round" stroke-miterlimit="10" stroke-width="0.945"/>
                      </g>
                    </g>
                    <g id="Grupo_1237039" data-name="Grupo 1237039" transform="translate(69.656 58.794)">
                      <path id="Trazado_1227279" data-name="Trazado 1227279" d="M172.928,198.09a.651.651,0,0,1-.048.349c-.808,1.85-5.269,9.393-6.3,9.153s-5.988-7.379-6-8.4a3.879,3.879,0,0,1,.027-.418c.219-1.733,1.507-7,2.158-6.762a51.214,51.214,0,0,1,4.858,3.864c.021.014.034.034.055.048s.034.027.048.041-1.315-2.042-2.206-3.707c-.6-1.124-1-2.076-.671-2.131C165.617,190.013,172.839,195.891,172.928,198.09Z" transform="translate(-160.575 -190.128)" fill="#ffad91"/>
                      <path id="Trazado_1227280" data-name="Trazado 1227280" d="M172.928,199.07a.651.651,0,0,1-.048.349c-.808,1.85-5.269,9.393-6.3,9.153s-5.988-7.379-6-8.4a3.879,3.879,0,0,1,.027-.418q2.4,2.117,4.9,4.1c.178.144.418.3.623.2.3-.137.206-.582.069-.884-1.021-2.151-1.644-4.508-2.665-6.659a38.165,38.165,0,0,0,3.6,3.967,4.159,4.159,0,0,0,2.713,1.233.62.62,0,0,0,.528-.254.632.632,0,0,0,.034-.391c-.281-1.822-1.329-2.871-2.686-4.124,0,0-1.315-2.042-2.206-3.707q.411.432.945.9a43.626,43.626,0,0,0,4.494,3.768A12.707,12.707,0,0,0,172.928,199.07Z" transform="translate(-160.575 -191.108)" fill="#d23d1e" opacity="0.2"/>
                      <line id="Línea_3879" data-name="Línea 3879" x2="3.547" y2="4.054" transform="translate(2.185 4.527)" fill="none" stroke="#96152e" stroke-linecap="round" stroke-linejoin="round" stroke-miterlimit="10" stroke-width="0.945"/>
                      <line id="Línea_3880" data-name="Línea 3880" x2="2.84" y2="3.745" transform="translate(1.534 7.31)" fill="none" stroke="#96152e" stroke-linecap="round" stroke-linejoin="round" stroke-miterlimit="10" stroke-width="0.945"/>
                    </g>
                  </g>
                </g>
              </g>
              <g id="Grupo_1237071" data-name="Grupo 1237071" transform="translate(43.202 43.202)">
                <g id="Grupo_1237070" data-name="Grupo 1237070" clip-path="url(#clip-path-3)">
                  <path id="Trazado_1227282" data-name="Trazado 1227282" d="M306.364,306.364a147.5,147.5,0,0,0,0-208.6l-208.6,208.6A147.5,147.5,0,0,0,306.364,306.364Z" transform="translate(-97.767 -97.767)" fill="#ffe7b3"/>
                  <g id="Grupo_1237043" data-name="Grupo 1237043" transform="translate(-14.177 130.525)">
                    <path id="Trazado_1227283" data-name="Trazado 1227283" d="M394.15,335.93s-.445.9-1.391,2.521c-6.837,11.777-39.8,61.832-117.409,84.4-88.292,25.672-140.094,13.963-152.255,7.207-9.427-5.241-31.892-42.306-41.512-58.708-2.8-4.755-4.508-7.776-4.508-7.776s51.473-47.061,83.832-47.061,53.823,28.241,71.767,29.419,48.534-57.653,79.714-57.653S394.15,335.93,394.15,335.93Z" transform="translate(-77.075 -288.28)" fill="#65a4c5"/>
                    <path id="Trazado_1227284" data-name="Trazado 1227284" d="M394.15,335.93s-.445.9-1.391,2.521c-14.7-11.709-60.633-46.349-83.345-40.84-27.261,6.611-54.522,54.933-73.932,56.584S191.7,322.8,160.31,325.283c-22.7,1.8-59.893,30.385-78.727,46.068-2.8-4.755-4.508-7.776-4.508-7.776s51.473-47.061,83.832-47.061,53.823,28.241,71.767,29.419,48.534-57.653,79.714-57.653S394.15,335.93,394.15,335.93Z" transform="translate(-77.075 -288.28)" fill="#0c1a3c"/>
                  </g>
                  <g id="Grupo_1237044" data-name="Grupo 1237044" transform="translate(-10.957 110.252)">
                    <path id="Trazado_1227285" data-name="Trazado 1227285" d="M474.919,306.34s-.171.343-.521.993c-4.385,8-36.613,62.175-118.28,85.928C267.82,418.94,192.141,431.1,179.98,424.346c-8.927-4.967-57.68-17.7-82.968-24.109-9.153-2.329-15.237-3.823-15.237-3.823s111.8-100.007,144.157-100.007,70.348,28.111,88.292,29.282,47.746-67,78.926-67S474.919,306.34,474.919,306.34Z" transform="translate(-81.775 -258.69)" fill="#65a4c5"/>
                    <path id="Trazado_1227286" data-name="Trazado 1227286" d="M368.211,406.747c57.284-16.661,90.24-48.291,106.329-68.453-17-14.064-47.775-36.777-69.3-36.777-31.18,0-60.983,74.588-78.926,73.409s-55.94-35.693-88.292-35.693c-22.375,0-82.73,47.815-117.844,77.32,26.371,6.8,64.143,16.964,71.893,21.277C204.234,444.587,279.913,432.426,368.211,406.747Z" transform="translate(-93.868 -272.176)" fill="#326c92" opacity="0.4"/>
                    <path id="Trazado_1227287" data-name="Trazado 1227287" d="M474.919,306.34s-.171.343-.521.993c-23.726-19.012-68.293-45.972-89.408-38.84-23.006,7.776-48.281,63.189-68.053,65.463s-75.829-33.057-99.274-23.705c-20.239,8.071-99.37,72.493-120.65,89.984-9.153-2.329-15.237-3.823-15.237-3.823s111.8-100.007,144.157-100.007,70.348,28.111,88.292,29.282,47.746-67,78.926-67S474.919,306.34,474.919,306.34Z" transform="translate(-81.775 -258.69)" fill="#6ebee9"/>
                  </g>
                  <g id="Grupo_1237069" data-name="Grupo 1237069" transform="translate(120.972 76.822)">
                    <g id="Grupo_1237045" data-name="Grupo 1237045" transform="translate(39.144)">
                      <path id="Trazado_1227288" data-name="Trazado 1227288" d="M359.712,285.679c-18.861.6-30.746-11.1-27.793-22.96q.214-.844.427-1.623c2.961-10.562,7.188-13.971,6.455-23.807-.6-8.078-.7-18.9-.719-23.216v-1.9s11.3-5.359,18.384.363c6.348,5.125,5.43,15.046,6.22,19.109a4.418,4.418,0,0,0,.349,1.16,28.73,28.73,0,0,0,1.665,2.648,18.414,18.414,0,0,1,3.374,11.053c0,7.765,3.245,10.925,7.167,16.469S378.573,285.081,359.712,285.679Z" transform="translate(-331.471 -209.895)" fill="#442a16"/>
                      <path id="Trazado_1227289" data-name="Trazado 1227289" d="M365.726,231.646a18.917,18.917,0,0,1-.954-5.43c-.263-4.533-2.164-14.042-11.807-15.288a15.158,15.158,0,0,0-11.843,3.146v-1.9s11.3-5.359,18.384.363C365.854,217.66,364.936,227.582,365.726,231.646Z" transform="translate(-334.51 -209.895)" fill="#613c1f"/>
                      <path id="Trazado_1227290" data-name="Trazado 1227290" d="M359.712,292.329c-18.861.6-30.746-11.1-27.793-22.96q.214-.844.427-1.623a13.376,13.376,0,0,0,3.245,8.946,2.7,2.7,0,0,0,2.541,1.124,2.487,2.487,0,0,0,1.174-.89c2.491-3.025,2.2-7.388,1.779-11.281a19.125,19.125,0,0,0,10.9-.235,20.8,20.8,0,0,0,2.313,12.5,3.139,3.139,0,0,0,1.281,1.445c1.424.655,2.9-.876,3.43-2.349,1.2-3.367.413-7.1-.74-10.476s-2.676-6.69-2.961-10.249c-.412-5.1,1.63-10.861-1.395-14.989a17.518,17.518,0,0,1,5.345,11.195c.178,2.185-.064,4.405.363,6.555.939,4.683,4.932,8.6,4.775,13.38,1.865-2.1,1.85-5.288,1.132-8s-2.014-5.281-2.4-8.057c-.584-4.256,1-8.839-.782-12.74-.882-1.943-2.5-3.438-3.665-5.217a12.943,12.943,0,0,1-2.107-7.4,22.71,22.71,0,0,0,6.8,10.043c.434.363.876.712,1.331,1.046a18.415,18.415,0,0,1,3.374,11.053c0,7.765,3.245,10.925,7.167,16.469S378.573,291.731,359.712,292.329Z" transform="translate(-331.471 -216.545)" fill="#261407" opacity="0.5"/>
                    </g>
                    <g id="Grupo_1237050" data-name="Grupo 1237050" transform="translate(0 52.275)">
                      <g id="Grupo_1237046" data-name="Grupo 1237046" transform="translate(5.615)">
                        <path id="Trazado_1227291" data-name="Trazado 1227291" d="M320.282,295.648c-.932,6.163-8.6,17.43-15.572,27.074s-10.569,12.661-15.452,9.644c-2.228-1.381-4.434-4.754-5.687-8.405-1.481-4.342-1.616-9.074,1.16-11.345a7.387,7.387,0,0,1,5.615-1.815,8.77,8.77,0,0,1,4.37,1.815s2.562-1.63,6.042-6.854c3.459-5.2,12.391-20.227,16.868-19.544l.1.021a1.225,1.225,0,0,1,.214.057C320.553,286.965,321.194,289.656,320.282,295.648Z" transform="translate(-282.533 -286.195)" fill="#79c4bd"/>
                        <path id="Trazado_1227292" data-name="Trazado 1227292" d="M321.532,286.3c-3.979,2.22-8.833,7.608-13.288,15.473-5.544,9.779-9.886,12.1-9.886,12.1a10.793,10.793,0,0,0-4.42-3.067,8.77,8.77,0,0,1,4.37,1.815s2.562-1.63,6.042-6.854c3.459-5.2,12.391-20.227,16.868-19.544l.1.021A1.217,1.217,0,0,1,321.532,286.3Z" transform="translate(-286.124 -286.195)" fill="#79c4bd" opacity="0.5"/>
                        <path id="Trazado_1227293" data-name="Trazado 1227293" d="M320.76,295.658c-.932,6.163-8.6,17.43-15.572,27.074s-10.569,12.661-15.452,9.644c-2.228-1.381-4.434-4.754-5.686-8.405q2.071,1.836,4.242,3.559c1.431,1.132,3.11,2.292,4.918,2.035a4.787,4.787,0,0,0,3.594-3.594,14.043,14.043,0,0,0,.086-5.345c-.214-1.857-.42-3.715-.634-5.573a16.6,16.6,0,0,1,3.43,8.555,13.025,13.025,0,0,0,.128-6.754,3.258,3.258,0,0,1-.171-1.274,2.885,2.885,0,0,1,.6-1.21,201.884,201.884,0,0,0,13.274-21.664,25.035,25.035,0,0,1,3.274-5.2,12.351,12.351,0,0,1,1.317-1.274l.1.021C321,286.833,321.693,289.5,320.76,295.658Z" transform="translate(-283.01 -286.206)" fill="#5c8951" opacity="0.2"/>
                      </g>
                      <g id="Grupo_1237047" data-name="Grupo 1237047" transform="translate(5.99 25.168)">
                        <path id="Trazado_1227294" data-name="Trazado 1227294" d="M289.574,334.232c-8.021,2.214-7.053-6.228-5.238-8.676a7.03,7.03,0,0,1,1.074-1.174,6.232,6.232,0,0,1,5.886-1.2,5.01,5.01,0,0,1,3.067,3.345C295.3,329.257,294.541,332.858,289.574,334.232Z" transform="translate(-283.08 -322.93)" fill="#ffab2f"/>
                        <path id="Trazado_1227295" data-name="Trazado 1227295" d="M289.574,334.9c-8.021,2.214-7.053-6.228-5.238-8.676a7.033,7.033,0,0,1,1.074-1.174,8.456,8.456,0,0,0,3.865,4.54,2.9,2.9,0,0,0,2.214.4,2.991,2.991,0,0,0,1.039-.669,10.9,10.9,0,0,0,1.836-2.128C295.3,329.924,294.541,333.525,289.574,334.9Z" transform="translate(-283.08 -323.598)" fill="#f88f00"/>
                      </g>
                      <path id="Trazado_1227296" data-name="Trazado 1227296" d="M283.147,308.431c-.069.208,7.047,7.807,7.53,8.567s-.76,5.388-1.451,5.665-4.076,4.629-4.076,4.629-4.283-13.817-4.214-15.337S283.147,308.431,283.147,308.431Z" transform="translate(-276.415 -293.197)" fill="#d23d1e"/>
                      <g id="Grupo_1237048" data-name="Grupo 1237048" transform="translate(10.809 16.356)">
                        <path id="Trazado_1227297" data-name="Trazado 1227297" d="M294.223,322.167c-2.2,2.37-3.857.413-4.092-1.124a15.437,15.437,0,0,1,.932-4.449c.647-2.121,1.4-4.2,1.495-4.455a13.829,13.829,0,0,1,1.957-2.071,8.526,8.526,0,0,0,.712,4.206,9.727,9.727,0,0,1,.691,2.854A6.4,6.4,0,0,1,294.223,322.167Z" transform="translate(-290.114 -310.068)" fill="#ff8b61"/>
                        <path id="Trazado_1227298" data-name="Trazado 1227298" d="M294.223,325.167c-2.2,2.37-3.857.413-4.092-1.124a15.437,15.437,0,0,1,.932-4.448,7.617,7.617,0,0,0,.626.961,2.834,2.834,0,0,0,1.794,1.246,2.613,2.613,0,0,0,2.42-1.644c.007-.007.007-.021.014-.028A6.4,6.4,0,0,1,294.223,325.167Z" transform="translate(-290.114 -313.067)" fill="#d23d1e" opacity="0.5"/>
                      </g>
                      <path id="Trazado_1227299" data-name="Trazado 1227299" d="M291.684,318.08l-2.878.565-5.466-27.835a.944.944,0,0,1,.745-1.109l1.024-.2a.944.944,0,0,1,1.109.745Z" transform="translate(-277.166 -287.23)" fill="#0c1a3c"/>
                      <g id="Grupo_1237049" data-name="Grupo 1237049" transform="translate(0 9.102)">
                        <path id="Trazado_1227300" data-name="Trazado 1227300" d="M284.814,322.35c-.064,1.395-.591,2.434-2.029,2.356-3.2-.171-8.384-11.729-8.448-14.64a1.652,1.652,0,0,1,.042-.413c.569-1.964,4.113-8.163,6.135-10.071,1.231-1.153,4.228,7.865,4.05,10.056s-1.6,4.626-.826,6.94A17.979,17.979,0,0,1,284.814,322.35Z" transform="translate(-274.337 -299.481)" fill="#ff8b61"/>
                        <path id="Trazado_1227301" data-name="Trazado 1227301" d="M284.814,327.215c-.064,1.395-.591,2.434-2.029,2.356-3.2-.171-8.384-11.729-8.448-14.64,1.63,1.3,5.3,3.865,6.7,4.121S284.195,323.813,284.814,327.215Z" transform="translate(-274.337 -304.346)" fill="#d23d1e" opacity="0.2"/>
                        <path id="Trazado_1227302" data-name="Trazado 1227302" d="M281.5,303.242a38.047,38.047,0,0,0-4.111,7.708" transform="translate(-275.298 -300.665)" fill="none" stroke="#96152e" stroke-linecap="round" stroke-linejoin="round" stroke-miterlimit="10" stroke-width="0.945"/>
                        <path id="Trazado_1227303" data-name="Trazado 1227303" d="M283.711,306.576a41.619,41.619,0,0,0-3.238,6.908" transform="translate(-276.269 -301.715)" fill="none" stroke="#96152e" stroke-linecap="round" stroke-linejoin="round" stroke-miterlimit="10" stroke-width="0.945"/>
                        <path id="Trazado_1227304" data-name="Trazado 1227304" d="M285.858,310.659s-1.142,2.8-1.884,5.082" transform="translate(-277.371 -303.001)" fill="none" stroke="#96152e" stroke-linecap="round" stroke-linejoin="round" stroke-miterlimit="10" stroke-width="0.945"/>
                      </g>
                      <path id="Trazado_1227305" data-name="Trazado 1227305" d="M292.015,309.085s-1.6,2.313-.475,4.152,2.56-1.159,3.144-2.017C295.693,309.737,293.914,306.415,292.015,309.085Z" transform="translate(-279.627 -293.086)" fill="#ff8b61"/>
                    </g>
                    <g id="Grupo_1237053" data-name="Grupo 1237053" transform="translate(16.611 111.3)">
                      <path id="Trazado_1227306" data-name="Trazado 1227306" d="M323.211,403.635c-1.075,6.89-6.028,43.706-6.028,43.706L313.2,447.1l-10.228-.619s0-9.031.178-20.013c.014-.641.021-1.3.036-1.951.214-11.843,3.658-41.336,3.658-41.336S324.293,396.745,323.211,403.635Z" transform="translate(-299.966 -375.759)" fill="#ff8b61"/>
                      <path id="Trazado_1227307" data-name="Trazado 1227307" d="M323.294,403.635c-1.075,6.89-6.028,43.706-6.028,43.706l-3.978-.242c.6-5.168,1.415-12.05,1.73-17.615q-5.893-1.505-11.779-3.017c.014-.641.021-1.3.036-1.951.214-11.843,3.658-41.336,3.658-41.336S324.375,396.745,323.294,403.635Z" transform="translate(-300.049 -375.759)" fill="#d23d1e" opacity="0.2"/>
                      <g id="Grupo_1237051" data-name="Grupo 1237051" transform="translate(27.373 10.709)">
                        <path id="Trazado_1227308" data-name="Trazado 1227308" d="M363.361,448.041l-10.961,1.9-3.067.534s-2.327-9.85-4.847-21.422-5.95-41.073-5.95-41.073,20.1,9.188,20.632,16.141c.235,3.06,1.075,11.907,1.943,20.874C362.214,436.426,363.361,448.041,363.361,448.041Z" transform="translate(-338.536 -387.98)" fill="#ff8b61"/>
                        <path id="Trazado_1227309" data-name="Trazado 1227309" d="M349.29,431.587q1.559,9.181,3.11,18.355l-3.067.534s-2.327-9.85-4.847-21.422-5.95-41.073-5.95-41.073,20.1,9.188,20.632,16.141c.235,3.06,1.075,11.907,1.943,20.874q-5.6,2.712-11.224,5.445a.845.845,0,0,0-.6,1.146Z" transform="translate(-338.536 -387.98)" fill="#d23d1e" opacity="0.2"/>
                      </g>
                      <g id="Grupo_1237052" data-name="Grupo 1237052">
                        <path id="Trazado_1227310" data-name="Trazado 1227310" d="M350.823,417.775A79.659,79.659,0,0,1,339.9,420.9h-.007a79.978,79.978,0,0,1-39.216-1.609c-1.359-.427-2.092-.719-2.092-.719C300.013,390.537,304,375.25,304,375.25a1.493,1.493,0,0,1,.562-.641,7,7,0,0,1,1.985-.84c8.661-2.484,36.105-1.7,36.789,2.277C344.133,380.667,350.823,417.775,350.823,417.775Z" transform="translate(-298.583 -372.348)" fill="#cb1c3e"/>
                        <path id="Trazado_1227311" data-name="Trazado 1227311" d="M306.547,374.423a268.9,268.9,0,0,0-5.871,45.522c-1.359-.427-2.092-.719-2.092-.719C300.014,391.191,304,375.9,304,375.9a1.493,1.493,0,0,1,.562-.641A7.009,7.009,0,0,1,306.547,374.423Z" transform="translate(-298.583 -373.002)" fill="#cb4963"/>
                      </g>
                      <path id="Trazado_1227312" data-name="Trazado 1227312" d="M353.571,417.775a79.658,79.658,0,0,1-10.925,3.124h-.007c-.142-.619-10.242-33.906-11.159-38.319a101.909,101.909,0,0,1-24.17-7.971c4.932-3.452,38.02-2.932,38.774,1.437C346.881,380.667,353.571,417.775,353.571,417.775Z" transform="translate(-301.331 -372.349)" fill="#326c92" opacity="0.2"/>
                    </g>
                    <g id="Grupo_1237054" data-name="Grupo 1237054" transform="translate(20.5 49.698)">
                      <path id="Trazado_1227313" data-name="Trazado 1227313" d="M346.656,375.095c-.412.818-6.491,3.174-16.2,3.922-1.566.121-3.231.2-4.982.221-12.583.157-20.547-3.829-20.391-5.1.071-.555.327-1.722.591-2.875.342-1.494.7-2.954.7-2.954l38.525.9S347.133,374.134,346.656,375.095Z" transform="translate(-304.518 -309.473)" fill="#ffab2f"/>
                      <path id="Trazado_1227314" data-name="Trazado 1227314" d="M346.929,375.094c-.412.818-6.491,3.174-16.2,3.922-.178-.655-.384-1.338-.647-2.079a1.683,1.683,0,0,0-.527-.868,2,2,0,0,0-1.267-.157c-9.11.235-15.793-1.416-22.34-4.655.342-1.494.7-2.954.7-2.954l38.525.9S347.406,374.134,346.929,375.094Z" transform="translate(-304.791 -309.473)" fill="#f88f00"/>
                      <path id="Trazado_1227315" data-name="Trazado 1227315" d="M354.417,296.229v.007c-.284,7.245-4.833,16.035-5.338,22.861-.7,9.416,3.836,17.779-2.555,24.17-5.63,5.63-32.333,5.487-39.977-.256a4.807,4.807,0,0,1-1.964-2.647,11.229,11.229,0,0,1-.227-1.317c-.519-4.292,1.117-9.416,2.9-13.921.541-1.359,1.1-2.662,1.6-3.872a34.44,34.44,0,0,0,2.114-5.758c.811-4.413-2.555-6.74,4.178-19.288,3.772-7.025,7.509-11.209,12.391-12.9,3.844-1.331,8.391-1.124,14.22.462,0,0,7.075.192,10.7,5.089A11.248,11.248,0,0,1,354.417,296.229Z" transform="translate(-304.258 -282.434)" fill="#79c4bd"/>
                      <path id="Trazado_1227316" data-name="Trazado 1227316" d="M346.57,349.61c-6.392,6.391-39.97,5.345-41.941-2.9a11.228,11.228,0,0,1-.227-1.317c1.267.093,2.541.271,3.787.456,3.352.484,6.89.954,10.021-.334s5.523-5,4.149-8.1c-1.025-2.292-3.615-3.387-6.014-4.107a52.851,52.851,0,0,0-9.039-1.836c.541-1.359,1.1-2.662,1.6-3.872q2.2-.726,4.4-1.395a25,25,0,0,1,6.89-1.381c4.505-.064,8.676,2.206,12.6,4.405a22,22,0,0,0-9.814-8.484c4.462-1.067,9.153.6,13.715.064,4.818-.569,9.1-3.609,12.092-7.43a39.832,39.832,0,0,0,5.672-10.8c-.284,7.245-4.833,16.035-5.338,22.86C348.427,334.855,352.961,343.218,346.57,349.61Z" transform="translate(-304.303 -288.778)" fill="#5c8951" opacity="0.2"/>
                      <path id="Trazado_1227317" data-name="Trazado 1227317" d="M347.772,357.22c6.391-6.391,1.857-14.753,2.555-24.17.016-.213.047-.434.07-.65l-3.276-5.65a15.805,15.805,0,0,1-10.791,3.939c-5.481-.171,3.758,4.892,2.051,9.9s-4.605-3.58-13.7-5.339a12.059,12.059,0,0,0-12.324,4.425,52.714,52.714,0,0,1,5.186,1.243c2.4.719,4.989,1.815,6.014,4.107,1.374,3.1-1.018,6.811-4.149,8.1s-6.669.819-10.021.334c-.386-.058-.779-.109-1.17-.163.013.039,1.269,3.7,9.729,7.2C328.861,362.325,343.736,361.255,347.772,357.22Z" transform="translate(-305.506 -296.388)" fill="#5c8951" opacity="0.2"/>
                      <path id="Trazado_1227318" data-name="Trazado 1227318" d="M327.543,283.714a26.224,26.224,0,0,0-9.394,10.612c-4.84,9.459-6.733,11.986-5.573,18.185,1.067,5.743-10.455,20.561-6.028,30.9a4.807,4.807,0,0,1-1.964-2.647,11.228,11.228,0,0,1-.227-1.317c-.519-4.292,1.117-9.416,2.9-13.921.541-1.359,1.1-2.662,1.6-3.872a34.438,34.438,0,0,0,2.114-5.758c.811-4.413-2.555-6.74,4.178-19.288C318.924,289.586,322.661,285.4,327.543,283.714Z" transform="translate(-304.258 -282.837)" fill="#79c4bd" opacity="0.5"/>
                      <path id="Trazado_1227319" data-name="Trazado 1227319" d="M307.734,328.174q.3-.815.619-1.609c.541-1.359,1.1-2.662,1.6-3.872a34.429,34.429,0,0,0,2.114-5.758c.811-4.413-2.555-6.74,4.178-19.288,2.62-4.879,5.223-8.388,8.2-10.641" transform="translate(-305.353 -283.874)" fill="none" stroke="#2fa098" stroke-linecap="round" stroke-linejoin="round" stroke-miterlimit="10" stroke-width="0.918"/>
                      <path id="Trazado_1227320" data-name="Trazado 1227320" d="M347.577,371.108c-5.627,5.627-32.325,5.489-39.978-.253" transform="translate(-305.31 -310.276)" fill="none" stroke="#2fa098" stroke-linecap="round" stroke-linejoin="round" stroke-miterlimit="10" stroke-width="0.918"/>
                    </g>
                    <g id="Grupo_1237056" data-name="Grupo 1237056" transform="translate(46.381 52.737)">
                      <path id="Trazado_1227321" data-name="Trazado 1227321" d="M361.358,287.1a.8.8,0,0,0-.6-.225c-7.414.461-13.866,9.455-16.944,21.724-3.126,12.46-1.706,28.224.956,38.272l2.773-1.153s-5.088-20.084-1.395-36.642c3.485-15.624,13.375-20.277,16.254-20.545a.187.187,0,0,0,.106-.322Z" transform="translate(-342.035 -286.87)" fill="#0c1a3c"/>
                      <g id="Grupo_1237055" data-name="Grupo 1237055" transform="translate(1.798 52.768)">
                        <path id="Trazado_1227322" data-name="Trazado 1227322" d="M372.448,408.713c-.491.548-13.152,6.363-13.608,6.22-.349-.107-8.7-23.472-12.427-34.853-1.167-3.594-1.879-5.985-1.737-6.092.6-.427,2.285-1.729,2.285-1.729l2.491-1.139a.38.38,0,0,0,.029.057c.213.32,1.267,1.985,2.811,4.441C358.534,385.5,372.832,408.278,372.448,408.713Z" transform="translate(-344.659 -366.167)" fill="#0c1a3c"/>
                        <path id="Trazado_1227323" data-name="Trazado 1227323" d="M350.863,379.675c-.45.153,12.789,31.747,13.493,31.552S352.039,379.274,350.863,379.675Z" transform="translate(-346.609 -368.859)" fill="#326c92" opacity="0.4"/>
                        <path id="Trazado_1227324" data-name="Trazado 1227324" d="M395.96,396.685c-.029.456-21.309,9.751-21.309,9.751s-14.284-23.195-20.334-33.145c-1.481-2.427-2.462-4.064-2.634-4.391a.418.418,0,0,1-.029-.057s19.429-4.882,20.241-4.953c.256,0,2.505,2.875,5.537,6.925C384.544,380.338,395.96,396.344,395.96,396.685Z" transform="translate(-346.862 -363.89)" fill="#ffe9e3"/>
                        <path id="Trazado_1227325" data-name="Trazado 1227325" d="M375.231,370.815l-.277.214a21,21,0,0,1-11.572,3.737,37.765,37.765,0,0,1-11.089-1.424c-.057-.014-.114-.029-.178-.05-.3-.078-.6-.156-.9-.242a1.661,1.661,0,0,0-1.21-.036,1.69,1.69,0,0,0-.534.541l-3.054,4.249c-1.167-3.594-1.879-5.985-1.737-6.092.6-.427,2.285-1.729,2.285-1.729l2.491-1.139s19.429-4.882,20.241-4.953C369.95,363.89,372.2,366.765,375.231,370.815Z" transform="translate(-344.659 -363.89)" fill="#326c92" opacity="0.2"/>
                        <path id="Trazado_1227326" data-name="Trazado 1227326" d="M373.025,395.155s17.408-5.911,17.754-5.892S384.3,393.894,373.025,395.155Z" transform="translate(-353.591 -371.879)" fill="#326c92" opacity="0.2"/>
                      </g>
                    </g>
                    <g id="Grupo_1237059" data-name="Grupo 1237059" transform="translate(36.238 55.564)">
                      <g id="Grupo_1237058" data-name="Grupo 1237058" transform="translate(1.952)">
                        <path id="Trazado_1227327" data-name="Trazado 1227327" d="M339.161,361.022s-6.491-.6-8.22-2.427-.691-10.121,1.644-10.555c.292-.057.6-.1.932-.142a35.2,35.2,0,0,1,3.808-.206c.811-.014,1.395,0,1.494,0Z" transform="translate(-330.079 -308.846)" fill="#ffab2f"/>
                        <path id="Trazado_1227328" data-name="Trazado 1227328" d="M339.161,361.022s-6.491-.6-8.22-2.427-.691-10.121,1.644-10.555c.292-.057.6-.1.932-.142a14.5,14.5,0,0,0-.9,7.018,9.628,9.628,0,0,0,2.021.086,13.627,13.627,0,0,1,2.69-7.31c.811-.014,1.395,0,1.494,0Z" transform="translate(-330.079 -308.846)" fill="#f88f00"/>
                        <path id="Trazado_1227329" data-name="Trazado 1227329" d="M339.557,366.036s-6.491-.6-8.22-2.427" transform="translate(-330.475 -313.86)" fill="none" stroke="#2fa098" stroke-linecap="round" stroke-linejoin="round" stroke-miterlimit="10" stroke-width="0.918"/>
                        <g id="Grupo_1237057" data-name="Grupo 1237057" transform="translate(5.43)">
                          <path id="Trazado_1227330" data-name="Trazado 1227330" d="M369.456,322.027c-.178,6.363-.456,11.751-1.352,15.9-.968,4.477-2.662,7.516-5.765,8.768-5.978,2.413-20.22.384-23.138-3.181a7,7,0,0,1-1.2-4.313,18.993,18.993,0,0,1,1.053-6.228c.847-2.456,2.114-4.405,3.445-4.712,3.309-.761,10.967.057,10.967.057s.776-10.256.584-16.248.576-21.138,5.409-21.074a3.864,3.864,0,0,1,.413.021C368.1,291.679,369.833,309.024,369.456,322.027Z" transform="translate(-338.004 -290.996)" fill="#79c4bd"/>
                          <path id="Trazado_1227331" data-name="Trazado 1227331" d="M356.077,310.475c.1,9.309-.206,19.43-.206,19.43s-11.835-1.317-13.451-.107a16.016,16.016,0,0,0-2.875,3.174c.847-2.456,2.114-4.405,3.445-4.712,3.309-.761,10.967.057,10.967.057s.776-10.256.584-16.248.576-21.138,5.409-21.074a3.865,3.865,0,0,1,.413.021C356.675,292.363,355.984,301.814,356.077,310.475Z" transform="translate(-338.489 -290.996)" fill="#79c4bd" opacity="0.5"/>
                          <path id="Trazado_1227332" data-name="Trazado 1227332" d="M339.543,333.328c.847-2.455,2.114-4.405,3.445-4.712,3.309-.761,10.967.057,10.967.057s.776-10.256.584-16.248c-.172-5.169.382-17.147,3.638-20.3" transform="translate(-338.489 -291.351)" fill="none" stroke="#2fa098" stroke-linecap="round" stroke-linejoin="round" stroke-miterlimit="10" stroke-width="0.918"/>
                          <path id="Trazado_1227333" data-name="Trazado 1227333" d="M360.579,345.471s7.081,2.9,11.629,11.742" transform="translate(-345.112 -308.149)" fill="none" stroke="#2fa098" stroke-linecap="round" stroke-linejoin="round" stroke-miterlimit="10" stroke-width="0.918"/>
                          <path id="Trazado_1227334" data-name="Trazado 1227334" d="M360.579,345.471s3.453,3.365,5.987,11.994" transform="translate(-345.112 -308.149)" fill="none" stroke="#2fa098" stroke-linecap="round" stroke-linejoin="round" stroke-miterlimit="10" stroke-width="0.918"/>
                          <path id="Trazado_1227335" data-name="Trazado 1227335" d="M368.105,356.974c-.968,4.477-2.662,7.516-5.765,8.768-5.978,2.413-20.22.384-23.138-3.181a7,7,0,0,1-1.2-4.313,14.84,14.84,0,0,1,4.107-6.762,12.164,12.164,0,0,0,5,8.861q.022-2.733-.214-5.452a17.265,17.265,0,0,0,9.629,5.544,13.285,13.285,0,0,0,10.647-2.619C367.507,357.55,367.813,357.266,368.105,356.974Z" transform="translate(-338.005 -310.043)" fill="#5c8951" opacity="0.2"/>
                          <path id="Trazado_1227336" data-name="Trazado 1227336" d="M367.017,363.717a8.616,8.616,0,0,1-4.678,5.133c-5.978,2.413-20.22.384-23.138-3.181a7,7,0,0,1-1.2-4.313" transform="translate(-338.005 -313.151)" fill="none" stroke="#2fa098" stroke-linecap="round" stroke-linejoin="round" stroke-miterlimit="10" stroke-width="0.918"/>
                        </g>
                      </g>
                      <path id="Trazado_1227337" data-name="Trazado 1227337" d="M333.766,346.307s-4.846,4.933-2.423,14.366l-3.548-.606s-2.423-8.913,2.769-13.5Z" transform="translate(-327.23 -308.412)" fill="#79c4bd"/>
                    </g>
                    <g id="Grupo_1237060" data-name="Grupo 1237060" transform="translate(48.575 30.433)">
                      <path id="Trazado_1227338" data-name="Trazado 1227338" d="M356.808,272.87a17.641,17.641,0,0,1-11.572-.363,71.751,71.751,0,0,0,.584-10.534v-.164l10.4-7.495c-.107,3.11.029,7.644.2,11.452C356.6,269.71,356.808,272.87,356.808,272.87Z" transform="translate(-345.236 -254.315)" fill="#ff8b61"/>
                      <path id="Trazado_1227339" data-name="Trazado 1227339" d="M356.692,265.767a26.206,26.206,0,0,1-10.6-3.794v-.164l10.4-7.495C356.387,257.425,356.522,261.96,356.692,265.767Z" transform="translate(-345.504 -254.315)" fill="#d23d1e" opacity="0.5"/>
                      <path id="Trazado_1227340" data-name="Trazado 1227340" d="M352.438,263.038a33.786,33.786,0,0,0,1.733-6.336l-8.135,5.859v.164c.014.628.038,2.932-.113,5.654A11.734,11.734,0,0,0,352.438,263.038Z" transform="translate(-345.452 -255.067)" fill="#ff8b61" opacity="0.4"/>
                    </g>
                    <g id="Grupo_1237061" data-name="Grupo 1237061" transform="translate(44.503 45.06)">
                      <path id="Trazado_1227341" data-name="Trazado 1227341" d="M356.119,283.8c-4.007,1.381-16.882,1.153-16.825-3a6.267,6.267,0,0,1,.7-3.039v-.007a3.78,3.78,0,0,1,3.509-1.879c7.352,2.477,11.281-.214,11.281-.214a5.112,5.112,0,0,1,3.089,2.164C359.258,279.941,358.838,282.859,356.119,283.8Z" transform="translate(-339.294 -275.664)" fill="#ffab2f"/>
                      <path id="Trazado_1227342" data-name="Trazado 1227342" d="M356.119,284.763c-4.007,1.381-16.882,1.153-16.825-3a6.267,6.267,0,0,1,.7-3.039c-.284,2.6,3.544,4.612,10.064,4.256,6.1-.334,7.793-2.42,7.814-4.192C359.258,280.906,358.838,283.824,356.119,284.763Z" transform="translate(-339.294 -276.629)" fill="#f88f00"/>
                    </g>
                    <g id="Grupo_1237068" data-name="Grupo 1237068" transform="translate(36.772 1.376)">
                      <g id="Grupo_1237064" data-name="Grupo 1237064" transform="translate(2.819 2.795)">
                        <g id="Grupo_1237062" data-name="Grupo 1237062">
                          <path id="Trazado_1227343" data-name="Trazado 1227343" d="M352.217,230.73c-.911,10.028-2.868,14.462-2.868,14.462-3.5,5.793-9.644,7.031-13.558,4.555l-.029-.014c-.107-.071-.214-.143-.32-.221a8.353,8.353,0,0,1-3.288-6.932c-.121-9.046-.306-23.9,8.4-26.269a8.6,8.6,0,0,1,1.822-.306,8.3,8.3,0,0,1,6.548,2.377C351.342,220.773,352.744,224.922,352.217,230.73Z" transform="translate(-332.123 -215.983)" fill="#ff8b61"/>
                          <path id="Trazado_1227344" data-name="Trazado 1227344" d="M333.171,234.318c-.926,11.416,1.366,14.562,2.271,15.345a8.353,8.353,0,0,1-3.288-6.932c-.121-9.046-.306-23.9,8.4-26.269C337.819,219.066,333.976,224.426,333.171,234.318Z" transform="translate(-332.123 -216.133)" fill="#ff8b61"/>
                          <path id="Trazado_1227345" data-name="Trazado 1227345" d="M353.9,231.833c-.911,10.028-2.868,14.462-2.868,14.462-3.5,5.793-9.644,7.031-13.558,4.555,3.993.512,9.551-.449,11.452-8.32,1.808-7.487,1.9-16.761,1.679-23.045C353.027,221.876,354.43,226.025,353.9,231.833Z" transform="translate(-333.809 -217.085)" fill="#d23d1e" opacity="0.2"/>
                        </g>
                        <g id="Grupo_1237063" data-name="Grupo 1237063" transform="translate(0.998 12.33)">
                          <path id="Trazado_1227346" data-name="Trazado 1227346" d="M333.579,240.694a2.345,2.345,0,0,0,2.41.219" transform="translate(-333.579 -236.093)" fill="none" stroke="#d23d1e" stroke-linecap="round" stroke-linejoin="round" stroke-miterlimit="10" stroke-width="0.945"/>
                          <path id="Trazado_1227347" data-name="Trazado 1227347" d="M342.772,241.253s1.205,1.753,4.546,1.041" transform="translate(-336.474 -236.269)" fill="none" stroke="#d23d1e" stroke-linecap="round" stroke-linejoin="round" stroke-miterlimit="10" stroke-width="0.945"/>
                          <path id="Trazado_1227348" data-name="Trazado 1227348" d="M337.405,243.332a24.255,24.255,0,0,1-1.424,3.505c-.6.986.547,1.643,1.588,1.753" transform="translate(-334.283 -236.924)" fill="none" stroke="#d23d1e" stroke-linecap="round" stroke-linejoin="round" stroke-miterlimit="10" stroke-width="0.945"/>
                          <path id="Trazado_1227349" data-name="Trazado 1227349" d="M334.881,253.181s1.537,1.931,6.333.561" transform="translate(-333.989 -240.025)" fill="none" stroke="#96152e" stroke-linecap="round" stroke-linejoin="round" stroke-miterlimit="10" stroke-width="0.945"/>
                          <path id="Trazado_1227350" data-name="Trazado 1227350" d="M333.659,234.581a8.975,8.975,0,0,1,2.136-.6" transform="translate(-333.604 -233.979)" fill="none" stroke="#96152e" stroke-linecap="round" stroke-linejoin="round" stroke-miterlimit="10" stroke-width="2"/>
                          <path id="Trazado_1227351" data-name="Trazado 1227351" d="M343.971,235.018a8.3,8.3,0,0,1,4.82,2.3" transform="translate(-336.851 -234.306)" fill="none" stroke="#96152e" stroke-linecap="round" stroke-linejoin="round" stroke-miterlimit="10" stroke-width="2"/>
                        </g>
                      </g>
                      <g id="Grupo_1237065" data-name="Grupo 1237065">
                        <path id="Trazado_1227352" data-name="Trazado 1227352" d="M352.871,233c-2.021,4.405-3.1,5.416-3.1,5.416s-.235-6.726-2.321-11.01a38.546,38.546,0,0,1-2.676-6.669,27.345,27.345,0,0,0,1.836,6.953,28.549,28.549,0,0,1-5.566-5.025,16.1,16.1,0,0,1-2.22-3.416s.456,4.683,3.145,6.989c.021.021.042.036.057.05-.563-.37-4.74-3.2-6.577-7.046-.156-.342-.285-.641-.378-.889a7.383,7.383,0,0,0-1.089,1.573,25.907,25.907,0,0,0-2.455,6.9,4.439,4.439,0,0,1-2.527-1.445c-.832-1-1.381-2.647-.669-5.395a16.469,16.469,0,0,1,.911-2.626c1.787-3.915,4.569-4.733,6.96-4.533,1.708.142,5.409-1.452,9.231-.74a9.313,9.313,0,0,1,3.857,1.694c1.964,1.473,3.252,4.121,3.964,7.06C354.337,225.268,354.089,230.357,352.871,233Z" transform="translate(-328.008 -211.904)" fill="#442a16"/>
                        <path id="Trazado_1227353" data-name="Trazado 1227353" d="M358.865,235.65c-2.021,4.405-3.1,5.416-3.1,5.416s-.235-6.726-2.32-11.01a38.546,38.546,0,0,1-2.676-6.669,27.2,27.2,0,0,0,1.844,6.961,28.732,28.732,0,0,1-5.573-5.032q1.783,1.185,3.644,2.227a32.278,32.278,0,0,1-1.943-7.238,14.813,14.813,0,0,0,4.833,3.245c.256.79.5,1.58.754,2.363a22.07,22.07,0,0,1,1.4,6.733,17.961,17.961,0,0,0-.271-8.776c.7,2.356,2.321,4.477,2.405,6.94a8.619,8.619,0,0,0,.171,2.647,35.061,35.061,0,0,0-.441-9.644,11.815,11.815,0,0,0,1.659-.327C360.331,227.913,360.082,233,358.865,235.65Z" transform="translate(-334.002 -214.549)" fill="#261407" opacity="0.5"/>
                        <path id="Trazado_1227354" data-name="Trazado 1227354" d="M333.99,222.438a25.9,25.9,0,0,0-2.456,6.9s-4.8-.662-3.2-6.84a16.463,16.463,0,0,1,.911-2.626,18.842,18.842,0,0,0-.456,4.327c.8-1.395,1.609-2.783,2.405-4.178A7.441,7.441,0,0,0,333.99,222.438Z" transform="translate(-328.009 -214.412)" fill="#261407" opacity="0.5"/>
                        <path id="Trazado_1227355" data-name="Trazado 1227355" d="M336.539,218.826c1.032,3.772,4.747,6.868,5.437,7.416.021.021.043.036.057.05-.562-.37-4.74-3.2-6.577-7.046-.156-.342-.285-.641-.378-.889a11.011,11.011,0,0,1-.562-4.64s-2.819.876-4.975,4.775a9.679,9.679,0,0,0-.534,6.89c-.832-1-1.381-2.647-.669-5.395a16.469,16.469,0,0,1,.911-2.626c1.787-3.915,4.569-4.733,6.96-4.533,1.708.143,5.409-1.452,9.231-.74C338.417,211.7,335.407,214.7,336.539,218.826Z" transform="translate(-328.009 -211.904)" fill="#613c1f"/>
                      </g>
                      <g id="Grupo_1237067" data-name="Grupo 1237067" transform="translate(19.472 21.944)">
                        <path id="Trazado_1227356" data-name="Trazado 1227356" d="M357.908,246.764s1.381-3.648,4.24-2.662-1.381,10.452-5.719,9.072Z" transform="translate(-356.429 -243.932)" fill="#ff8b61"/>
                        <g id="Grupo_1237066" data-name="Grupo 1237066" transform="translate(1.203 2.022)">
                          <path id="Trazado_1227357" data-name="Trazado 1227357" d="M358.185,252.723s1.156-6.713,4.625-5.743" transform="translate(-358.185 -246.884)" fill="none" stroke="#d23d1e" stroke-linecap="round" stroke-linejoin="round" stroke-miterlimit="10" stroke-width="0.945"/>
                        </g>
                      </g>
                    </g>
                  </g>
                </g>
              </g>
            </g>
            <g id="Grupo_1237077" data-name="Grupo 1237077" transform="translate(78.168 39.434)">
              <g id="Grupo_1237073" data-name="Grupo 1237073" transform="translate(132.419 60.286)" opacity="0.2">
                <path id="Trazado_1227359" data-name="Trazado 1227359" d="M413.941,195.337a4.092,4.092,0,0,1-1.851-.443l-9.334-4.719a5.26,5.26,0,0,0-4.726,0l-5.116,2.586a13.5,13.5,0,0,1-12.145,0l-5.114-2.586a5.26,5.26,0,0,0-4.727,0l-5.112,2.586a13.507,13.507,0,0,1-12.147,0l-9.331-4.718a4.111,4.111,0,0,1,3.71-7.337l9.331,4.718a5.255,5.255,0,0,0,4.725,0l5.113-2.586a13.514,13.514,0,0,1,12.147,0l5.114,2.586a5.257,5.257,0,0,0,4.725,0l5.116-2.587a13.506,13.506,0,0,1,12.144,0l9.334,4.719a4.112,4.112,0,0,1-1.857,7.781Z" transform="translate(-342.082 -180.261)" fill="#5c8951"/>
              </g>
              <g id="Grupo_1237074" data-name="Grupo 1237074" transform="translate(167.677 96.325)" opacity="0.1">
                <path id="Trazado_1227360" data-name="Trazado 1227360" d="M429.473,240.4a2.042,2.042,0,0,1-.926-.222l-4.667-2.36a2.63,2.63,0,0,0-2.363,0l-2.558,1.294a6.754,6.754,0,0,1-6.072,0l-2.557-1.293a2.632,2.632,0,0,0-2.364,0l-2.556,1.293a6.755,6.755,0,0,1-6.073,0l-4.666-2.359a2.055,2.055,0,1,1,1.855-3.669l4.666,2.359a2.628,2.628,0,0,0,2.363,0l2.556-1.293a6.757,6.757,0,0,1,6.074,0l2.557,1.293a2.628,2.628,0,0,0,2.363,0l2.558-1.294a6.754,6.754,0,0,1,6.072,0l4.667,2.36a2.056,2.056,0,0,1-.93,3.891Z" transform="translate(-393.544 -232.864)" fill="#326c92"/>
              </g>
              <g id="Grupo_1237075" data-name="Grupo 1237075" transform="translate(16.119 44.263)" opacity="0.2">
                <path id="Trazado_1227361" data-name="Trazado 1227361" d="M192.763,161.16a1.161,1.161,0,0,1-.526-.126l-2.654-1.342a1.5,1.5,0,0,0-1.344,0l-1.455.736a3.84,3.84,0,0,1-3.453,0l-1.454-.735a1.5,1.5,0,0,0-1.344,0l-1.454.735a3.841,3.841,0,0,1-3.454,0l-2.653-1.341A1.169,1.169,0,0,1,174.027,157l2.653,1.341a1.5,1.5,0,0,0,1.344,0l1.454-.735a3.841,3.841,0,0,1,3.454,0l1.454.735a1.494,1.494,0,0,0,1.344,0l1.455-.736a3.84,3.84,0,0,1,3.453,0l2.654,1.342a1.169,1.169,0,0,1-.528,2.212Z" transform="translate(-172.331 -156.874)" fill="#fff"/>
              </g>
              <g id="Grupo_1237076" data-name="Grupo 1237076" transform="translate(0)" opacity="0.2">
                <path id="Trazado_1227362" data-name="Trazado 1227362" d="M184.732,99.8a2.05,2.05,0,0,1-.926-.221l-4.667-2.36a2.63,2.63,0,0,0-2.363,0l-2.558,1.294a6.754,6.754,0,0,1-6.072,0l-2.557-1.293a2.629,2.629,0,0,0-2.364,0l-2.556,1.293a6.755,6.755,0,0,1-6.073,0l-4.665-2.359a2.055,2.055,0,1,1,1.855-3.669l4.666,2.359a2.628,2.628,0,0,0,2.363,0l2.556-1.293a6.757,6.757,0,0,1,6.074,0L170,94.848a2.628,2.628,0,0,0,2.363,0l2.558-1.294a6.754,6.754,0,0,1,6.072,0l4.667,2.36a2.056,2.056,0,0,1-.93,3.89Z" transform="translate(-148.804 -92.268)" fill="#fff"/>
              </g>
            </g>
          </g>
          <g id="Grupo_1237099" data-name="Grupo 1237099" transform="translate(53.062 16.642)">
            <g id="Grupo_1237084" data-name="Grupo 1237084">
              <g id="Grupo_1237080" data-name="Grupo 1237080" transform="translate(0 197.378)">
                <path id="Trazado_1227363" data-name="Trazado 1227363" d="M237.74,372.8,221.028,388v19.479a16.311,16.311,0,0,1-16.311,16.311H128.463a16.3,16.3,0,0,1-16.3-16.3V363.4a16.3,16.3,0,0,1,16.3-16.3h76.254a16.311,16.311,0,0,1,16.311,16.3v6.215h15.478A1.834,1.834,0,0,1,237.74,372.8Z" transform="translate(-112.159 -347.092)" fill="#fff"/>
                <g id="Grupo_1237079" data-name="Grupo 1237079" transform="translate(13.238 14.242)">
                  <path id="Trazado_1227364" data-name="Trazado 1227364" d="M151.291,388.149H133.833a2.352,2.352,0,0,1-2.352-2.352V370.232a2.352,2.352,0,0,1,2.352-2.352h17.458a2.352,2.352,0,0,1,2.352,2.352V385.8A2.352,2.352,0,0,1,151.291,388.149Z" transform="translate(-131.481 -367.88)" fill="#0c1a3c"/>
                  <path id="Trazado_1227365" data-name="Trazado 1227365" d="M223.334,374.178H173.685a2.352,2.352,0,0,1-2.352-2.352v-1.594a2.352,2.352,0,0,1,2.352-2.352h49.649a2.352,2.352,0,0,1,2.352,2.352v1.594A2.352,2.352,0,0,1,223.334,374.178Z" transform="translate(-144.03 -367.88)" fill="#65a4c5"/>
                  <path id="Trazado_1227366" data-name="Trazado 1227366" d="M223.334,394.57H173.685a2.352,2.352,0,0,1-2.352-2.352v-1.594a2.352,2.352,0,0,1,2.352-2.352h49.649a2.352,2.352,0,0,1,2.352,2.352v1.594A2.352,2.352,0,0,1,223.334,394.57Z" transform="translate(-144.03 -374.301)" fill="#65a4c5"/>
                  <path id="Trazado_1227367" data-name="Trazado 1227367" d="M210.786,414.963H133.833a2.352,2.352,0,0,1-2.352-2.352v-1.594a2.352,2.352,0,0,1,2.352-2.352h76.953a2.352,2.352,0,0,1,2.352,2.352v1.594A2.352,2.352,0,0,1,210.786,414.963Z" transform="translate(-131.481 -380.722)" fill="#ffab2f"/>
                  <path id="Trazado_1227368" data-name="Trazado 1227368" d="M210.786,435.355H133.833A2.352,2.352,0,0,1,131.481,433v-1.594a2.352,2.352,0,0,1,2.352-2.352h76.953a2.352,2.352,0,0,1,2.352,2.352V433A2.352,2.352,0,0,1,210.786,435.355Z" transform="translate(-131.481 -387.143)" fill="#ffab2f"/>
                </g>
              </g>
              <g id="Grupo_1237083" data-name="Grupo 1237083" transform="translate(52.026)">
                <g id="Grupo_1237082" data-name="Grupo 1237082">
                  <path id="Trazado_1227369" data-name="Trazado 1227369" d="M188.664,110.655l17.1-15.547V75.457A16.457,16.457,0,0,1,222.219,59H299.15A16.449,16.449,0,0,1,315.6,75.448v44.478a16.449,16.449,0,0,1-16.448,16.448H222.219a16.456,16.456,0,0,1-16.457-16.448v-6.271H189.824A1.724,1.724,0,0,1,188.664,110.655Z" transform="translate(-188.096 -59)" fill="#fff"/>
                  <g id="Grupo_1237081" data-name="Grupo 1237081" transform="translate(31.605 14.368)">
                    <path id="Trazado_1227370" data-name="Trazado 1227370" d="M254.205,100.419h-17.6a2.38,2.38,0,0,1-2.379-2.379V82.35a2.379,2.379,0,0,1,2.379-2.379h17.6a2.38,2.38,0,0,1,2.379,2.379V98.04A2.379,2.379,0,0,1,254.205,100.419Z" transform="translate(-234.227 -79.971)" fill="#0c1a3c"/>
                    <path id="Trazado_1227371" data-name="Trazado 1227371" d="M254.205,140.975h-17.6a2.38,2.38,0,0,1-2.379-2.379V122.906a2.379,2.379,0,0,1,2.379-2.379h17.6a2.38,2.38,0,0,1,2.379,2.379V138.6A2.38,2.38,0,0,1,254.205,140.975Z" transform="translate(-234.227 -92.741)" fill="#ffab2f"/>
                    <path id="Trazado_1227372" data-name="Trazado 1227372" d="M327.664,86.324H279.275a2.379,2.379,0,0,1-2.379-2.379V82.35a2.379,2.379,0,0,1,2.379-2.379h48.388a2.379,2.379,0,0,1,2.379,2.379v1.594A2.38,2.38,0,0,1,327.664,86.324Z" transform="translate(-247.663 -79.971)" fill="#79c4bd"/>
                    <path id="Trazado_1227373" data-name="Trazado 1227373" d="M301.09,106.9H279.275a2.38,2.38,0,0,1-2.379-2.379v-1.594a2.38,2.38,0,0,1,2.379-2.379H301.09a2.38,2.38,0,0,1,2.379,2.379v1.594A2.379,2.379,0,0,1,301.09,106.9Z" transform="translate(-247.663 -86.449)" fill="#79c4bd"/>
                    <path id="Trazado_1227374" data-name="Trazado 1227374" d="M327.664,126.88H279.275A2.379,2.379,0,0,1,276.9,124.5v-1.594a2.379,2.379,0,0,1,2.379-2.379h48.388a2.379,2.379,0,0,1,2.379,2.379V124.5A2.38,2.38,0,0,1,327.664,126.88Z" transform="translate(-247.663 -92.741)" fill="#65a4c5"/>
                    <path id="Trazado_1227375" data-name="Trazado 1227375" d="M301.09,147.453H279.275a2.38,2.38,0,0,1-2.379-2.379v-1.594a2.38,2.38,0,0,1,2.379-2.379H301.09a2.379,2.379,0,0,1,2.379,2.379v1.594A2.379,2.379,0,0,1,301.09,147.453Z" transform="translate(-247.663 -99.219)" fill="#65a4c5"/>
                    <path id="Trazado_1227376" data-name="Trazado 1227376" d="M342.305,106.9h-16.53a2.379,2.379,0,0,1-2.379-2.379v-1.594a2.379,2.379,0,0,1,2.379-2.379h16.53a2.38,2.38,0,0,1,2.379,2.379v1.594A2.379,2.379,0,0,1,342.305,106.9Z" transform="translate(-262.304 -86.449)" fill="#0c1a3c"/>
                    <path id="Trazado_1227377" data-name="Trazado 1227377" d="M342.305,147.453h-16.53a2.379,2.379,0,0,1-2.379-2.379v-1.594a2.379,2.379,0,0,1,2.379-2.379h16.53a2.38,2.38,0,0,1,2.379,2.379v1.594A2.38,2.38,0,0,1,342.305,147.453Z" transform="translate(-262.304 -99.219)" fill="#ffab2f"/>
                  </g>
                </g>
              </g>
            </g>
            <g id="Grupo_1237098" data-name="Grupo 1237098" transform="translate(50.584 82.742)">
              <g id="Grupo_1237085" data-name="Grupo 1237085" transform="translate(32.092)">
                <circle id="Elipse_12909" data-name="Elipse 12909" cx="8.21" cy="8.21" r="8.21" fill="#ffab2f"/>
                <path id="Trazado_1227378" data-name="Trazado 1227378" d="M239.155,192.805v-5.864a1.155,1.155,0,0,1,1.672-1.033l7.1,3.55a.463.463,0,0,1,0,.828l-7.1,3.55A1.154,1.154,0,0,1,239.155,192.805Z" transform="translate(-234.823 -181.663)" fill="#cb1c3e"/>
              </g>
              <g id="Grupo_1237087" data-name="Grupo 1237087" transform="translate(5.334 35.359)">
                <g id="Grupo_1237086" data-name="Grupo 1237086">
                  <circle id="Elipse_12910" data-name="Elipse 12910" cx="13.857" cy="13.857" r="13.857" fill="#ffab2f"/>
                </g>
                <path id="Trazado_1227379" data-name="Trazado 1227379" d="M218.831,252.872a3.677,3.677,0,0,1-2.556,1.838c-.68.145-1.57.26-4.562-.98-3.828-1.586-6.292-5.476-6.485-5.728a7.441,7.441,0,0,1-1.546-3.928,4.158,4.158,0,0,1,1.332-3.17,1.894,1.894,0,0,1,1.332-.467c.161,0,.306.008.436.014.382.016.575.039.827.643.314.757,1.08,2.626,1.171,2.818a.777.777,0,0,1,.055.705,2.239,2.239,0,0,1-.422.6c-.192.221-.375.391-.567.628-.176.207-.374.428-.153.811a11.559,11.559,0,0,0,2.113,2.626,9.568,9.568,0,0,0,3.054,1.883.823.823,0,0,0,.918-.145,15.711,15.711,0,0,0,1.017-1.348.727.727,0,0,1,.934-.284c.351.122,2.212,1.042,2.6,1.233s.635.283.728.445A3.254,3.254,0,0,1,218.831,252.872Z" transform="translate(-196.895 -234.231)" fill="#0c1a3c"/>
              </g>
              <g id="Grupo_1237090" data-name="Grupo 1237090" transform="translate(21.77 53.95)">
                <g id="Grupo_1237088" data-name="Grupo 1237088" transform="translate(0 0)">
                  <circle id="Elipse_12911" data-name="Elipse 12911" cx="16.329" cy="16.329" r="16.329" transform="translate(0 30.172) rotate(-67.5)" fill="#0c1a3c"/>
                </g>
                <g id="Grupo_1237089" data-name="Grupo 1237089" transform="translate(14.771 16.492)">
                  <rect id="Rectángulo_423995" data-name="Rectángulo 423995" width="13.114" height="9.686" fill="#ffe9e3"/>
                  <path id="Trazado_1227380" data-name="Trazado 1227380" d="M244.6,288.46l-5.271-5.874H252.44l-5.271,5.874A1.727,1.727,0,0,1,244.6,288.46Z" transform="translate(-239.326 -282.586)" fill="#326c92" opacity="0.2"/>
                </g>
              </g>
              <g id="Grupo_1237094" data-name="Grupo 1237094" transform="translate(42.555 26.392)">
                <g id="Grupo_1237091" data-name="Grupo 1237091">
                  <circle id="Elipse_12912" data-name="Elipse 12912" cx="12.85" cy="12.85" r="12.85" fill="#0c1a3c"/>
                </g>
                <g id="Grupo_1237093" data-name="Grupo 1237093" transform="translate(5.956 5.325)">
                  <path id="Trazado_1227381" data-name="Trazado 1227381" d="M264.079,226.063h0a7.211,7.211,0,0,0-6.94,5.032,7.35,7.35,0,0,0,.7,5.991,1.446,1.446,0,0,1,.118,1.205l-.542,1.616a.217.217,0,0,0,.272.276l1.75-.559a1.433,1.433,0,0,1,1.129.092,7.279,7.279,0,1,0,3.515-13.653Z" transform="translate(-256.798 -226.063)" fill="#fff"/>
                  <g id="Grupo_1237092" data-name="Grupo 1237092" transform="translate(3.721 6.422)">
                    <circle id="Elipse_12913" data-name="Elipse 12913" cx="0.856" cy="0.856" r="0.856" fill="#326c92" opacity="0.4"/>
                    <circle id="Elipse_12914" data-name="Elipse 12914" cx="0.856" cy="0.856" r="0.856" transform="translate(2.701)" fill="#326c92" opacity="0.4"/>
                    <circle id="Elipse_12915" data-name="Elipse 12915" cx="0.856" cy="0.856" r="0.856" transform="translate(5.403)" fill="#326c92" opacity="0.4"/>
                  </g>
                </g>
              </g>
              <g id="Grupo_1237095" data-name="Grupo 1237095" transform="translate(59.427 69.013)">
                <circle id="Elipse_12916" data-name="Elipse 12916" cx="1.97" cy="1.97" r="1.97" transform="translate(5.808)" fill="none" stroke="#0c1a3c" stroke-linecap="round" stroke-linejoin="round" stroke-miterlimit="10" stroke-width="1.002"/>
                <line id="Línea_3881" data-name="Línea 3881" x1="5.856" y2="3.874" transform="translate(0 2.398)" fill="none" stroke="#0c1a3c" stroke-linecap="round" stroke-linejoin="round" stroke-miterlimit="10" stroke-width="1.002"/>
              </g>
              <line id="Línea_3882" data-name="Línea 3882" y1="7.327" x2="10.991" transform="translate(45.655 51.828)" fill="none" stroke="#0c1a3c" stroke-linecap="round" stroke-linejoin="round" stroke-miterlimit="10" stroke-width="1.002"/>
              <line id="Línea_3883" data-name="Línea 3883" x1="22.317" y2="20.024" transform="translate(18.67 15.735)" fill="none" stroke="#ffab2f" stroke-linecap="round" stroke-linejoin="round" stroke-miterlimit="10" stroke-width="1"/>
              <g id="Grupo_1237096" data-name="Grupo 1237096" transform="translate(0 2.923)">
                <circle id="Elipse_12917" data-name="Elipse 12917" cx="1.97" cy="1.97" r="1.97" fill="none" stroke="#ffab2f" stroke-miterlimit="10" stroke-width="1"/>
                <line id="Línea_3884" data-name="Línea 3884" x2="28.865" y2="3.026" transform="translate(3.912 2.262)" fill="none" stroke="#ffab2f" stroke-linecap="round" stroke-linejoin="round" stroke-miterlimit="10" stroke-width="1"/>
              </g>
              <g id="Grupo_1237097" data-name="Grupo 1237097" transform="translate(33.048 39.242)">
                <circle id="Elipse_12918" data-name="Elipse 12918" cx="1.97" cy="1.97" r="1.97" transform="translate(2.566 3.245)" fill="#0c1a3c"/>
                <line id="Línea_3885" data-name="Línea 3885" x1="4.971" y2="5.215" transform="translate(4.536)" fill="none" stroke="#0c1a3c" stroke-linecap="round" stroke-linejoin="round" stroke-miterlimit="10" stroke-width="1.002"/>
                <line id="Línea_3886" data-name="Línea 3886" x1="4.536" y2="4.759" transform="translate(0 5.215)" fill="none" stroke="#ffab2f" stroke-linecap="round" stroke-linejoin="round" stroke-miterlimit="10" stroke-width="1"/>
              </g>
            </g>
          </g>
        </g>
      </g>
    </g>
  </g>
</svg>
