<svg xmlns="http://www.w3.org/2000/svg" xmlns:xlink="http://www.w3.org/1999/xlink" width="295" height="314" viewBox="0 0 295 314">
  <defs>
    <clipPath id="clip-path">
      <rect id="Rectángulo_423847" data-name="Rectángulo 423847" width="295" height="314" transform="translate(180 935)" fill="#fff" stroke="#707070" stroke-width="1"/>
    </clipPath>
    <clipPath id="clip-path-2">
      <rect id="Rectángulo_423904" data-name="Rectángulo 423904" width="349.318" height="352.646" fill="none"/>
    </clipPath>
    <clipPath id="clip-path-4">
      <rect id="Rectángulo_423865" data-name="Rectángulo 423865" width="259.992" height="171.843" fill="none"/>
    </clipPath>
    <clipPath id="clip-path-5">
      <rect id="Rectángulo_423867" data-name="Rectángulo 423867" width="165.933" height="219.174" fill="none"/>
    </clipPath>
    <clipPath id="clip-path-6">
      <rect id="Rectángulo_423869" data-name="Rectángulo 423869" width="165.933" height="149.367" fill="none"/>
    </clipPath>
    <clipPath id="clip-path-7">
      <rect id="Rectángulo_423891" data-name="Rectángulo 423891" width="108.904" height="81.556" fill="none"/>
    </clipPath>
    <clipPath id="clip-path-8">
      <rect id="Rectángulo_423894" data-name="Rectángulo 423894" width="240.171" height="11.837" fill="none"/>
    </clipPath>
    <clipPath id="clip-path-9">
      <rect id="Rectángulo_423899" data-name="Rectángulo 423899" width="30.404" height="30.404" fill="none"/>
    </clipPath>
    <clipPath id="clip-path-10">
      <rect id="Rectángulo_423900" data-name="Rectángulo 423900" width="62.407" height="62.407" fill="none"/>
    </clipPath>
  </defs>
  <g id="Enmascarar_grupo_1208500" data-name="Enmascarar grupo 1208500" transform="translate(-180 -935)" clip-path="url(#clip-path)">
    <g id="Grupo_1236419" data-name="Grupo 1236419" transform="translate(150.682 952.063)">
      <g id="Grupo_1236418" data-name="Grupo 1236418" clip-path="url(#clip-path-2)">
        <g id="Grupo_1236415" data-name="Grupo 1236415">
          <g id="Grupo_1236414" data-name="Grupo 1236414" clip-path="url(#clip-path-2)">
            <circle id="Elipse_12791" data-name="Elipse 12791" cx="66.548" cy="66.548" r="66.548" transform="translate(187.513 146.551) rotate(-89.712)" fill="none" stroke="#f4cd58" stroke-miterlimit="10" stroke-width="3" stroke-dasharray="11 11"/>
            <g id="Grupo_1236395" data-name="Grupo 1236395" transform="translate(35.198 90.363)" opacity="0.61" style="mix-blend-mode: multiply;isolation: isolate">
              <g id="Grupo_1236394" data-name="Grupo 1236394">
                <g id="Grupo_1236393" data-name="Grupo 1236393" clip-path="url(#clip-path-4)">
                  <path id="Trazado_1225806" data-name="Trazado 1225806" d="M299.659,115.988V259.525c0,7.818-5.661,14.153-12.645,14.153H52.312c-6.983,0-12.645-6.336-12.645-14.153V115.988c0-7.818,5.661-14.153,12.645-14.153h234.7c6.983,0,12.645,6.336,12.645,14.153" transform="translate(-39.667 -101.835)" fill="#939598"/>
                </g>
              </g>
            </g>
            <g id="Grupo_1236398" data-name="Grupo 1236398" transform="translate(99.108 13.457)" opacity="0.61" style="mix-blend-mode: multiply;isolation: isolate">
              <g id="Grupo_1236397" data-name="Grupo 1236397">
                <g id="Grupo_1236396" data-name="Grupo 1236396" clip-path="url(#clip-path-5)">
                  <rect id="Rectángulo_423866" data-name="Rectángulo 423866" width="165.933" height="219.174" transform="translate(0)" fill="#939598"/>
                </g>
              </g>
            </g>
            <path id="Trazado_1225807" data-name="Trazado 1225807" d="M308.659,107.988V251.525c0,7.818-5.661,14.153-12.645,14.153H61.312c-6.983,0-12.645-6.336-12.645-14.153V107.988c0-7.818,5.661-14.153,12.645-14.153h234.7c6.983,0,12.645,6.336,12.645,14.153" transform="translate(-5.483 -10.571)" fill="#fff"/>
            <path id="Trazado_1225808" data-name="Trazado 1225808" d="M308.659,107.988v12.662H48.667V107.988c0-7.818,5.661-14.153,12.645-14.153h234.7c6.983,0,12.645,6.336,12.645,14.153" transform="translate(-5.483 -10.571)" fill="#239ea1"/>
            <g id="Grupo_1236401" data-name="Grupo 1236401" transform="translate(99.105 83.264)" opacity="0.61" style="mix-blend-mode: multiply;isolation: isolate">
              <g id="Grupo_1236400" data-name="Grupo 1236400">
                <g id="Grupo_1236399" data-name="Grupo 1236399" clip-path="url(#clip-path-6)">
                  <rect id="Rectángulo_423868" data-name="Rectángulo 423868" width="165.933" height="149.367" transform="translate(0)" fill="#939598"/>
                </g>
              </g>
            </g>
            <rect id="Rectángulo_423870" data-name="Rectángulo 423870" width="29.136" height="29.136" transform="translate(58.713 123.907)" fill="#f4cd58"/>
            <rect id="Rectángulo_423871" data-name="Rectángulo 423871" width="29.136" height="29.136" transform="translate(58.713 163.837)" fill="#f48558"/>
            <rect id="Rectángulo_423872" data-name="Rectángulo 423872" width="29.136" height="29.136" transform="translate(58.713 203.768)" fill="#c17ad6"/>
            <line id="Línea_3812" data-name="Línea 3812" x1="31.203" transform="translate(64.037 87.403)" fill="none" stroke="#fff" stroke-linecap="round" stroke-linejoin="round" stroke-width="2"/>
            <rect id="Rectángulo_423873" data-name="Rectángulo 423873" width="165.933" height="219.174" transform="translate(107.982 4.583)" fill="#ebebeb"/>
            <rect id="Rectángulo_423874" data-name="Rectángulo 423874" width="149.03" height="219.174" transform="translate(116.434 4.583)" fill="#fff"/>
            <rect id="Rectángulo_423875" data-name="Rectángulo 423875" width="148.143" height="47.618" transform="translate(116.434 83.264)" fill="#f4cd58"/>
            <rect id="Rectángulo_423876" data-name="Rectángulo 423876" width="165.933" height="13.31" transform="translate(107.982 4.583)" fill="#239ea1"/>
            <rect id="Rectángulo_423877" data-name="Rectángulo 423877" width="165.933" height="17.155" transform="translate(107.982 17.893)" fill="#bcbec0"/>
            <rect id="Rectángulo_423878" data-name="Rectángulo 423878" width="121.862" height="7.691" transform="translate(124.376 22.625)" fill="#fff"/>
            <rect id="Rectángulo_423879" data-name="Rectángulo 423879" width="7.56" height="7.56" transform="translate(248.604 22.625)" fill="#939598"/>
            <rect id="Rectángulo_423880" data-name="Rectángulo 423880" width="7.56" height="7.56" transform="translate(112.653 22.625)" fill="#939598"/>
            <rect id="Rectángulo_423881" data-name="Rectángulo 423881" width="7.56" height="7.56" transform="translate(258.725 22.625)" fill="#939598"/>
            <path id="Trazado_1225809" data-name="Trazado 1225809" d="M169.651,62.513a13.678,13.678,0,1,1-13.678-13.678,13.679,13.679,0,0,1,13.678,13.678" transform="translate(-16.03 -5.502)" fill="#f48558"/>
            <rect id="Rectángulo_423882" data-name="Rectángulo 423882" width="19.226" height="5.324" transform="translate(160.756 54.274)" fill="#bcbec0"/>
            <rect id="Rectángulo_423883" data-name="Rectángulo 423883" width="19.226" height="5.324" transform="translate(185.624 54.274)" fill="#bcbec0"/>
            <rect id="Rectángulo_423884" data-name="Rectángulo 423884" width="19.226" height="5.324" transform="translate(210.491 54.274)" fill="#bcbec0"/>
            <rect id="Rectángulo_423885" data-name="Rectángulo 423885" width="19.226" height="5.324" transform="translate(235.358 54.274)" fill="#f48558"/>
            <rect id="Rectángulo_423886" data-name="Rectángulo 423886" width="29.355" height="30.171" transform="translate(158.023 91.099)" fill="#fff"/>
            <line id="Línea_3813" data-name="Línea 3813" x2="24.954" transform="translate(126.264 93.763)" fill="none" stroke="#fff" stroke-miterlimit="10" stroke-width="2"/>
            <line id="Línea_3814" data-name="Línea 3814" x2="24.954" transform="translate(126.264 99.972)" fill="none" stroke="#fff" stroke-miterlimit="10" stroke-width="2"/>
            <line id="Línea_3815" data-name="Línea 3815" x2="24.954" transform="translate(126.264 106.182)" fill="none" stroke="#fff" stroke-miterlimit="10" stroke-width="2"/>
            <line id="Línea_3816" data-name="Línea 3816" x2="24.954" transform="translate(126.264 112.392)" fill="none" stroke="#fff" stroke-miterlimit="10" stroke-width="2"/>
            <line id="Línea_3817" data-name="Línea 3817" x2="24.954" transform="translate(126.264 118.602)" fill="none" stroke="#fff" stroke-miterlimit="10" stroke-width="2"/>
            <line id="Línea_3818" data-name="Línea 3818" x2="59.043" transform="translate(126.264 142.121)" fill="none" stroke="#bcbec0" stroke-miterlimit="10" stroke-width="2"/>
            <line id="Línea_3819" data-name="Línea 3819" x2="59.043" transform="translate(126.264 149.812)" fill="none" stroke="#bcbec0" stroke-miterlimit="10" stroke-width="2"/>
            <line id="Línea_3820" data-name="Línea 3820" x2="59.043" transform="translate(126.264 157.502)" fill="none" stroke="#bcbec0" stroke-miterlimit="10" stroke-width="2"/>
            <line id="Línea_3821" data-name="Línea 3821" x2="35.229" transform="translate(129.907 197.728)" fill="none" stroke="#bcbec0" stroke-miterlimit="10" stroke-width="2"/>
            <line id="Línea_3822" data-name="Línea 3822" x2="35.229" transform="translate(129.907 204.679)" fill="none" stroke="#bcbec0" stroke-miterlimit="10" stroke-width="2"/>
            <line id="Línea_3823" data-name="Línea 3823" x2="35.229" transform="translate(129.907 211.63)" fill="none" stroke="#bcbec0" stroke-miterlimit="10" stroke-width="2"/>
            <line id="Línea_3824" data-name="Línea 3824" x2="35.229" transform="translate(172.691 197.728)" fill="none" stroke="#bcbec0" stroke-miterlimit="10" stroke-width="2"/>
            <line id="Línea_3825" data-name="Línea 3825" x2="35.229" transform="translate(172.691 204.679)" fill="none" stroke="#bcbec0" stroke-miterlimit="10" stroke-width="2"/>
            <line id="Línea_3826" data-name="Línea 3826" x2="35.229" transform="translate(172.691 211.63)" fill="none" stroke="#bcbec0" stroke-miterlimit="10" stroke-width="2"/>
            <line id="Línea_3827" data-name="Línea 3827" x2="35.229" transform="translate(216.362 197.728)" fill="none" stroke="#bcbec0" stroke-miterlimit="10" stroke-width="2"/>
            <line id="Línea_3828" data-name="Línea 3828" x2="35.229" transform="translate(216.362 204.679)" fill="none" stroke="#bcbec0" stroke-miterlimit="10" stroke-width="2"/>
            <line id="Línea_3829" data-name="Línea 3829" x2="35.229" transform="translate(216.362 211.63)" fill="none" stroke="#bcbec0" stroke-miterlimit="10" stroke-width="2"/>
            <rect id="Rectángulo_423887" data-name="Rectángulo 423887" width="35.704" height="21.274" transform="translate(129.432 169.924)" fill="#c17ad6"/>
            <rect id="Rectángulo_423888" data-name="Rectángulo 423888" width="35.704" height="21.274" transform="translate(173.016 169.924)" fill="#c17ad6"/>
            <rect id="Rectángulo_423889" data-name="Rectángulo 423889" width="35.704" height="21.274" transform="translate(216.599 169.924)" fill="#f48558"/>
            <line id="Línea_3830" data-name="Línea 3830" x1="11.515" transform="translate(153.621 9.317)" fill="none" stroke="#fff" stroke-linecap="round" stroke-linejoin="round" stroke-width="2"/>
            <line id="Línea_3831" data-name="Línea 3831" x1="89.557" transform="translate(176.729 9.317)" fill="none" stroke="#fff" stroke-linecap="round" stroke-linejoin="round" stroke-width="2"/>
            <g id="Grupo_1236404" data-name="Grupo 1236404" transform="translate(192.081 75.6)" opacity="0.61" style="mix-blend-mode: multiply;isolation: isolate">
              <g id="Grupo_1236403" data-name="Grupo 1236403">
                <g id="Grupo_1236402" data-name="Grupo 1236402" clip-path="url(#clip-path-7)">
                  <rect id="Rectángulo_423890" data-name="Rectángulo 423890" width="108.904" height="81.556" transform="translate(0)" fill="#939598"/>
                </g>
              </g>
            </g>
            <rect id="Rectángulo_423892" data-name="Rectángulo 423892" width="108.904" height="81.556" transform="translate(199.943 71.184)" fill="#ebebeb"/>
            <rect id="Rectángulo_423893" data-name="Rectángulo 423893" width="93.179" height="67.321" transform="translate(207.805 78.302)" fill="#fff"/>
            <path id="Trazado_1225810" data-name="Trazado 1225810" d="M234.188,137.053l31.926-21.888,25.733,21.888,18.338-9.909,17.183,9.909V158.6H234.188Z" transform="translate(-26.383 -12.974)" fill="#c17ad6"/>
            <path id="Trazado_1225811" data-name="Trazado 1225811" d="M312.031,112.924a9.771,9.771,0,1,1-9.771-9.771,9.771,9.771,0,0,1,9.771,9.771" transform="translate(-32.951 -11.621)" fill="#f4cd58"/>
            <line id="Línea_3832" data-name="Línea 3832" x1="4.88" transform="translate(34.841 30.391)" fill="none" stroke="#f4cd58" stroke-miterlimit="10" stroke-width="3"/>
            <path id="Trazado_1225812" data-name="Trazado 1225812" d="M6.38,34.25H1.5v4.88" transform="translate(33.341 -3.858)" fill="none" stroke="#f4cd58" stroke-miterlimit="10" stroke-width="3"/>
            <line id="Línea_3833" data-name="Línea 3833" y2="124.428" transform="translate(36.929 44.489)" fill="none" stroke="#f4cd58" stroke-miterlimit="10" stroke-width="3" stroke-dasharray="10.387 10.387"/>
            <path id="Trazado_1225813" data-name="Trazado 1225813" d="M1.5,195.555v4.88H6.38" transform="translate(33.341 -22.031)" fill="none" stroke="#f4cd58" stroke-miterlimit="10" stroke-width="3"/>
            <line id="Línea_3835" data-name="Línea 3835" x2="4.88" transform="translate(34.841 178.405)" fill="none" stroke="#f4cd58" stroke-miterlimit="10" stroke-width="3"/>
            <g id="Grupo_1236407" data-name="Grupo 1236407" transform="translate(80.704 275.516)" opacity="0.61" style="mix-blend-mode: multiply;isolation: isolate">
              <g id="Grupo_1236406" data-name="Grupo 1236406">
                <g id="Grupo_1236405" data-name="Grupo 1236405" clip-path="url(#clip-path-8)">
                  <path id="Trazado_1225814" data-name="Trazado 1225814" d="M351.825,314.71l-16.762-4.215v11.837l16.762-4.215,6.8-1.7Z" transform="translate(-118.451 -310.495)" fill="#939598"/>
                  <path id="Trazado_1225815" data-name="Trazado 1225815" d="M212.084,310.5H96.866a5.915,5.915,0,1,0,0,11.831H202.281v0h2.478v0h7.325v0h2.478v0h93V310.5H212.084Z" transform="translate(-90.95 -310.495)" fill="#939598"/>
                </g>
              </g>
            </g>
            <rect id="Rectángulo_423895" data-name="Rectángulo 423895" width="200.342" height="11.831" transform="translate(100.521 271.083)" fill="#c17ad6"/>
            <rect id="Rectángulo_423896" data-name="Rectángulo 423896" width="200.342" height="5.916" transform="translate(100.521 276.998)" fill="#af57c9"/>
            <path id="Trazado_1225816" data-name="Trazado 1225816" d="M339.063,305.495v11.837l16.762-4.215,6.8-1.7-6.8-1.7Z" transform="translate(-38.198 -34.416)" fill="#f4cd58"/>
            <path id="Trazado_1225817" data-name="Trazado 1225817" d="M357.953,310.245v3.407l6.8-1.7Z" transform="translate(-40.326 -34.951)" fill="#a367b5"/>
            <path id="Trazado_1225818" data-name="Trazado 1225818" d="M100.865,317.33h10.353V305.5H100.865a5.915,5.915,0,1,0,0,11.831" transform="translate(-10.697 -34.416)" fill="#f4cd58"/>
            <rect id="Rectángulo_423897" data-name="Rectángulo 423897" width="2.478" height="11.834" transform="translate(205.387 271.082)" fill="#f4cd58"/>
            <rect id="Rectángulo_423898" data-name="Rectángulo 423898" width="2.478" height="11.834" transform="translate(195.584 271.082)" fill="#f4cd58"/>
            <line id="Línea_3836" data-name="Línea 3836" x1="66.637" transform="translate(228.996 273.519)" fill="none" stroke="#fff" stroke-linecap="round" stroke-linejoin="round" stroke-width="2"/>
            <path id="Trazado_1225819" data-name="Trazado 1225819" d="M386.667,311.547h4.88v-4.88" transform="translate(-81.183 -36.031)" fill="none" stroke="#f4cd58" stroke-miterlimit="10" stroke-width="3"/>
            <line id="Línea_3838" data-name="Línea 3838" y1="84.544" transform="translate(310.364 176.221)" fill="none" stroke="#f4cd58" stroke-miterlimit="10" stroke-width="3" stroke-dasharray="11.124 11.124"/>
            <path id="Trazado_1225820" data-name="Trazado 1225820" d="M391.547,205.936v-4.88h-4.88" transform="translate(-81.183 -34.65)" fill="none" stroke="#f4cd58" stroke-miterlimit="10" stroke-width="3"/>
            <line id="Línea_3839" data-name="Línea 3839" x1="14.69" transform="translate(295.831 166.405)" fill="none" stroke="#f4cd58" stroke-miterlimit="10" stroke-width="3" stroke-dasharray="11.036 11.036"/>
            <line id="Línea_3840" data-name="Línea 3840" x1="4.88" transform="translate(295.988 166.405)" fill="none" stroke="#f4cd58" stroke-miterlimit="10" stroke-width="3"/>
            <g id="Grupo_1236410" data-name="Grupo 1236410" transform="translate(46.173 20.438)" opacity="0.61" style="mix-blend-mode: multiply;isolation: isolate">
              <g id="Grupo_1236409" data-name="Grupo 1236409">
                <g id="Grupo_1236408" data-name="Grupo 1236408" clip-path="url(#clip-path-9)">
                  <path id="Trazado_1225821" data-name="Trazado 1225821" d="M67.237,23.033a15.2,15.2,0,1,0,15.2,15.2,15.2,15.2,0,0,0-15.2-15.2m0,21.191a5.989,5.989,0,1,1,5.989-5.989,5.989,5.989,0,0,1-5.989,5.989" transform="translate(-52.035 -23.033)" fill="#939598"/>
                </g>
              </g>
            </g>
            <g id="Grupo_1236413" data-name="Grupo 1236413" transform="translate(30.171 4.437)" opacity="0.61" style="mix-blend-mode: multiply;isolation: isolate">
              <g id="Grupo_1236412" data-name="Grupo 1236412">
                <g id="Grupo_1236411" data-name="Grupo 1236411" clip-path="url(#clip-path-10)">
                  <path id="Trazado_1225822" data-name="Trazado 1225822" d="M96.408,40.853v-9.3H89.819A24.913,24.913,0,0,0,85.9,22.086l4.659-4.659-6.576-6.575-4.659,4.659a24.906,24.906,0,0,0-9.467-3.919V5h-9.3v6.591a24.9,24.9,0,0,0-9.467,3.919l-4.659-4.659-6.575,6.575,4.659,4.659a24.91,24.91,0,0,0-3.919,9.468H34v9.3h6.591a24.91,24.91,0,0,0,3.919,9.468L39.854,54.98l6.575,6.576L51.089,56.9a24.9,24.9,0,0,0,9.467,3.919v6.591h9.3V60.816A24.906,24.906,0,0,0,79.322,56.9l4.659,4.659,6.576-6.576L85.9,50.321a24.913,24.913,0,0,0,3.921-9.468ZM83.534,36.2A18.328,18.328,0,1,1,65.2,17.875,18.328,18.328,0,0,1,83.534,36.2" transform="translate(-34.002 -5)" fill="#939598"/>
                </g>
              </g>
            </g>
            <path id="Trazado_1225823" data-name="Trazado 1225823" d="M70.237,18.033a15.2,15.2,0,1,0,15.2,15.2,15.2,15.2,0,0,0-15.2-15.2m0,21.191a5.989,5.989,0,1,1,5.989-5.989,5.989,5.989,0,0,1-5.989,5.989" transform="translate(-6.2 -2.032)" fill="#c17ad6"/>
            <path id="Trazado_1225824" data-name="Trazado 1225824" d="M99.408,35.853v-9.3H92.819A24.914,24.914,0,0,0,88.9,17.086l4.659-4.659L86.981,5.852l-4.659,4.659a24.906,24.906,0,0,0-9.467-3.919V0h-9.3V6.591a24.9,24.9,0,0,0-9.466,3.919L49.429,5.852l-6.575,6.575,4.659,4.659a24.91,24.91,0,0,0-3.919,9.468H37v9.3h6.591a24.91,24.91,0,0,0,3.919,9.468L42.854,49.98l6.575,6.576L54.089,51.9a24.9,24.9,0,0,0,9.466,3.919v6.591h9.3V55.816A24.906,24.906,0,0,0,82.322,51.9l4.659,4.659,6.576-6.576L88.9,45.321a24.914,24.914,0,0,0,3.921-9.468ZM86.534,31.2A18.328,18.328,0,1,1,68.2,12.875,18.328,18.328,0,0,1,86.534,31.2" transform="translate(-4.169)" fill="#c17ad6"/>
            <path id="Trazado_1225825" data-name="Trazado 1225825" d="M62.733,10.511A24.911,24.911,0,0,1,72.2,6.591V0H66.213V6.591a24.923,24.923,0,0,0-5.626,1.773Z" transform="translate(-6.826)" fill="#af57c9"/>
            <path id="Trazado_1225826" data-name="Trazado 1225826" d="M44.335,27.3h5.989a24.912,24.912,0,0,1,3.92-9.468l-4.659-4.659,3.581-3.58L50.171,6.594,43.6,13.169l4.659,4.659A24.911,24.911,0,0,0,44.335,27.3" transform="translate(-4.911 -0.743)" fill="#af57c9"/>
            <path id="Trazado_1225827" data-name="Trazado 1225827" d="M94.338,11.253,96,9.589,93.008,6.594,90.5,9.107a24.918,24.918,0,0,1,3.843,2.146" transform="translate(-10.195 -0.743)" fill="#af57c9"/>
            <rect id="Rectángulo_423901" data-name="Rectángulo 423901" width="5.989" height="9.299" transform="translate(32.833 26.554)" fill="#af57c9"/>
            <path id="Trazado_1225828" data-name="Trazado 1225828" d="M94.338,58.485A24.918,24.918,0,0,1,90.5,60.631l2.513,2.513L96,60.15Z" transform="translate(-10.195 -6.589)" fill="#af57c9"/>
            <path id="Trazado_1225829" data-name="Trazado 1225829" d="M62.733,58.485l-2.146,2.146A24.923,24.923,0,0,0,66.213,62.4V69H72.2V62.4a24.911,24.911,0,0,1-9.468-3.919" transform="translate(-6.826 -6.589)" fill="#af57c9"/>
            <path id="Trazado_1225830" data-name="Trazado 1225830" d="M49.585,54.531l4.659-4.659a24.9,24.9,0,0,1-3.92-9.468H44.335a24.9,24.9,0,0,0,3.919,9.468L43.6,54.531l6.575,6.575,2.995-2.994Z" transform="translate(-4.911 -4.552)" fill="#af57c9"/>
            <path id="Trazado_1225831" data-name="Trazado 1225831" d="M73.026,53.527a21.033,21.033,0,0,0,0-42.066m-.859,12.071a8.962,8.962,0,0,1,8.962,8.962" transform="translate(-8.13 -1.291)" fill="none" stroke="#fff" stroke-linecap="round" stroke-linejoin="round" stroke-width="2"/>
          </g>
        </g>
      </g>
    </g>
  </g>
</svg>
