<svg xmlns="http://www.w3.org/2000/svg" xmlns:xlink="http://www.w3.org/1999/xlink" width="113" height="113" viewBox="0 0 113 113">
  <defs>
    <filter id="Trazado_982547" x="0" y="0" width="113" height="113" filterUnits="userSpaceOnUse">
      <feOffset dy="3" input="SourceAlpha"/>
      <feGaussianBlur stdDeviation="3" result="blur"/>
      <feFlood flood-opacity="0.161"/>
      <feComposite operator="in" in2="blur"/>
      <feComposite in="SourceGraphic"/>
    </filter>
  </defs>
  <g id="Grupo_1236386" data-name="Grupo 1236386" transform="translate(-325.651 -1383.264)">
    <g id="Grupo_1223803" data-name="Grupo 1223803" transform="translate(334.651 1389.264)">
      <g id="Grupo_1211531" data-name="Grupo 1211531" transform="translate(0)">
        <g id="Grupo_1210969" data-name="Grupo 1210969" transform="translate(0 0)">
          <g id="Grupo_1210937" data-name="Grupo 1210937">
            <g id="Grupo_1174742" data-name="Grupo 1174742">
              <g id="Grupo_1163948" data-name="Grupo 1163948">
                <g id="Grupo_1158168" data-name="Grupo 1158168">
                  <g id="Grupo_1152576" data-name="Grupo 1152576">
                    <g id="Grupo_1148633" data-name="Grupo 1148633">
                      <g id="Grupo_1148525" data-name="Grupo 1148525">
                        <g transform="matrix(1, 0, 0, 1, -9, -6)" filter="url(#Trazado_982547)">
                          <g id="Trazado_982547-2" data-name="Trazado 982547" transform="translate(9 6)" fill="#fbe7b2">
                            <path d="M 47.5 93.5 C 41.28937149047852 93.5 35.26533508300781 92.28397369384766 29.59518623352051 89.88570404052734 C 24.11771965026855 87.56893157958984 19.19813346862793 84.25196075439453 14.97309303283691 80.02691650390625 C 10.74804019927979 75.80186462402344 7.431066513061523 70.88229370117188 5.114293098449707 65.40481567382812 C 2.716026782989502 59.73468017578125 1.5 53.71062850952148 1.5 47.5 C 1.5 41.28937149047852 2.716026782989502 35.26533508300781 5.114293098449707 29.59518623352051 C 7.431066513061523 24.11771965026855 10.74804019927979 19.19813346862793 14.97309303283691 14.97309303283691 C 19.19813346862793 10.74804019927979 24.11771965026855 7.431066513061523 29.59518623352051 5.114293098449707 C 35.26533508300781 2.716026782989502 41.28937149047852 1.5 47.5 1.5 C 53.71062850952148 1.5 59.73468017578125 2.716026782989502 65.40481567382812 5.114293098449707 C 70.88229370117188 7.431066513061523 75.80186462402344 10.74804019927979 80.02691650390625 14.97309303283691 C 84.25196075439453 19.19813346862793 87.56893157958984 24.11771965026855 89.88570404052734 29.59518623352051 C 92.28397369384766 35.26533508300781 93.5 41.28937149047852 93.5 47.5 C 93.5 53.71062850952148 92.28397369384766 59.73468017578125 89.88570404052734 65.40481567382812 C 87.56893157958984 70.88229370117188 84.25196075439453 75.80186462402344 80.02691650390625 80.02691650390625 C 75.80186462402344 84.25196075439453 70.88229370117188 87.56893157958984 65.40481567382812 89.88570404052734 C 59.73468017578125 92.28397369384766 53.71062850952148 93.5 47.5 93.5 Z" stroke="none"/>
                            <path d="M 47.5 3 C 41.49121475219727 3 35.66376876831055 4.176155090332031 30.17950439453125 6.495796203613281 C 24.88084411621094 8.736953735351562 20.12152099609375 11.94598388671875 16.03375244140625 16.03375244140625 C 11.94598388671875 20.12152099609375 8.736953735351562 24.88084411621094 6.495796203613281 30.17950439453125 C 4.176155090332031 35.66376876831055 3 41.49121475219727 3 47.5 C 3 53.50878524780273 4.176155090332031 59.33623123168945 6.495796203613281 64.82049560546875 C 8.736953735351562 70.11915588378906 11.94598388671875 74.87847900390625 16.03375244140625 78.96624755859375 C 20.12152099609375 83.05401611328125 24.88084411621094 86.26304626464844 30.17950439453125 88.50419616699219 C 35.66376876831055 90.82384490966797 41.49121475219727 92 47.5 92 C 53.50878524780273 92 59.33623123168945 90.82384490966797 64.82049560546875 88.50419616699219 C 70.11915588378906 86.26304626464844 74.87847900390625 83.05401611328125 78.96624755859375 78.96624755859375 C 83.05401611328125 74.87847900390625 86.26304626464844 70.11915588378906 88.50419616699219 64.82049560546875 C 90.82384490966797 59.33623123168945 92 53.50878524780273 92 47.5 C 92 41.49121475219727 90.82384490966797 35.66376876831055 88.50419616699219 30.17950439453125 C 86.26304626464844 24.88084411621094 83.05401611328125 20.12152099609375 78.96624755859375 16.03375244140625 C 74.87847900390625 11.94598388671875 70.11915588378906 8.736953735351562 64.82049560546875 6.495796203613281 C 59.33623123168945 4.176155090332031 53.50878524780273 3 47.5 3 M 47.5 0 C 73.7335205078125 0 95 21.2664794921875 95 47.5 C 95 73.7335205078125 73.7335205078125 95 47.5 95 C 21.2664794921875 95 0 73.7335205078125 0 47.5 C 0 21.2664794921875 21.2664794921875 0 47.5 0 Z" stroke="none" fill="#f5b104"/>
                          </g>
                        </g>
                      </g>
                    </g>
                  </g>
                </g>
              </g>
            </g>
          </g>
        </g>
      </g>
    </g>
    <g id="wireframe" transform="translate(347.798 1402.196)">
      <path id="Trazado_1225722" data-name="Trazado 1225722" d="M61.566,28V67.268a2.61,2.61,0,0,1-2.616,2.616H10.616A2.616,2.616,0,0,1,8,67.268V28Z" transform="translate(-0.43 -8.818)" fill="#f4f6f8"/>
      <g id="Grupo_1236381" data-name="Grupo 1236381" transform="translate(55.773 19.182)" opacity="0.1">
        <path id="Trazado_1225723" data-name="Trazado 1225723" d="M97.952,28V67.268a2.61,2.61,0,0,1-2.616,2.616H92.59a2.616,2.616,0,0,0,2.621-2.616V28Z" transform="translate(-92.59 -28)"/>
      </g>
      <path id="Trazado_1225724" data-name="Trazado 1225724" d="M58.52,70.023H10.185A3.191,3.191,0,0,1,7,66.838V27.57A.57.57,0,0,1,7.57,27H61.135a.57.57,0,0,1,.57.57V66.838A3.191,3.191,0,0,1,58.52,70.023ZM8.14,28.14v38.7a2.046,2.046,0,0,0,2.046,2.046H58.52a2.046,2.046,0,0,0,2.046-2.046V28.14Z" transform="translate(0 -8.388)"/>
      <path id="Trazado_1225725" data-name="Trazado 1225725" d="M61.566,11.116v8.5H8v-8.5A2.621,2.621,0,0,1,10.616,8.5H58.95A2.616,2.616,0,0,1,61.566,11.116Z" transform="translate(-0.43 -0.43)" fill="#aab2bd"/>
      <g id="Grupo_1236382" data-name="Grupo 1236382" transform="translate(55.648 8.07)" opacity="0.1">
        <path id="Trazado_1225726" data-name="Trazado 1225726" d="M97.858,11.116v8.5H95.008v-8.5A2.616,2.616,0,0,0,92.37,8.5h2.849a2.616,2.616,0,0,1,2.638,2.616Z" transform="translate(-92.37 -8.5)"/>
      </g>
      <path id="Trazado_1225727" data-name="Trazado 1225727" d="M61.135,19.752H7.57a.57.57,0,0,1-.57-.57v-8.5A3.191,3.191,0,0,1,10.185,7.5H58.52a3.191,3.191,0,0,1,3.185,3.185v8.5A.57.57,0,0,1,61.135,19.752Zm-53-1.14H60.566V10.685A2.046,2.046,0,0,0,58.52,8.64H10.185A2.046,2.046,0,0,0,8.14,10.685Z"/>
      <path id="Trazado_1225728" data-name="Trazado 1225728" d="M18.851,16.41A2.41,2.41,0,1,1,16.44,14,2.41,2.41,0,0,1,18.851,16.41Z" transform="translate(-3.024 -2.796)" fill="#434a54"/>
      <path id="Trazado_1225729" data-name="Trazado 1225729" d="M16.01,18.961a2.98,2.98,0,1,1,2.98-2.98,2.98,2.98,0,0,1-2.98,2.98Zm0-4.821a1.841,1.841,0,1,0,1.841,1.841A1.841,1.841,0,0,0,16.01,14.14Z" transform="translate(-2.594 -2.366)"/>
      <path id="Trazado_1225730" data-name="Trazado 1225730" d="M32.692,16.41a2.41,2.41,0,1,1-.708-1.706,2.416,2.416,0,0,1,.708,1.706Z" transform="translate(-8.973 -2.796)" fill="#434a54"/>
      <path id="Trazado_1225731" data-name="Trazado 1225731" d="M29.855,18.961a2.98,2.98,0,1,1,2.986-2.98A2.98,2.98,0,0,1,29.855,18.961Zm0-4.821a1.841,1.841,0,1,0,1.305.537A1.841,1.841,0,0,0,29.855,14.14Z" transform="translate(-8.551 -2.366)"/>
      <path id="Trazado_1225732" data-name="Trazado 1225732" d="M46.532,16.41A2.416,2.416,0,1,1,44.15,14,2.416,2.416,0,0,1,46.532,16.41Z" transform="translate(-14.926 -2.796)" fill="#434a54"/>
      <path id="Trazado_1225733" data-name="Trazado 1225733" d="M43.75,18.961a2.98,2.98,0,1,1,2.98-2.98,2.98,2.98,0,0,1-2.98,2.98Zm0-4.821a1.841,1.841,0,1,0,1.841,1.841A1.841,1.841,0,0,0,43.75,14.14Z" transform="translate(-14.526 -2.366)"/>
      <path id="Trazado_1225734" data-name="Trazado 1225734" d="M16.69,34.7H31.854V49.864H16.69Z" transform="translate(-4.168 -11.7)" fill="#b3a4ee"/>
      <g id="Grupo_1236383" data-name="Grupo 1236383" transform="translate(24.939 23)" opacity="0.1">
        <path id="Trazado_1225735" data-name="Trazado 1225735" d="M38.48,34.7h2.747V49.864H38.48Z" transform="translate(-38.48 -34.7)"/>
      </g>
      <path id="Trazado_1225736" data-name="Trazado 1225736" d="M31.463,50.04a.57.57,0,0,1-.4-.165L15.906,34.711a.57.57,0,0,1,.8-.8L31.861,49.066a.576.576,0,0,1-.4.974Z" transform="translate(-3.777 -11.307)"/>
      <path id="Trazado_1225737" data-name="Trazado 1225737" d="M16.266,50.029a.578.578,0,0,1-.393-.986L31.025,33.9a.57.57,0,0,1,.8.8L16.671,49.852A.57.57,0,0,1,16.266,50.029Z" transform="translate(-3.744 -11.296)"/>
      <path id="Trazado_1225738" data-name="Trazado 1225738" d="M33.7,69.85H16.26a.57.57,0,1,1,0-1.14H33.7a.57.57,0,1,1,0,1.14Z" transform="translate(-3.738 -26.33)"/>
      <path id="Trazado_1225739" data-name="Trazado 1225739" d="M33.7,78.26H16.26a.57.57,0,1,1,0-1.14H33.7a.57.57,0,1,1,0,1.14Z" transform="translate(-3.738 -29.947)"/>
      <path id="Trazado_1225740" data-name="Trazado 1225740" d="M33.7,86.66H16.26a.57.57,0,1,1,0-1.14H33.7a.57.57,0,1,1,0,1.14Z" transform="translate(-3.738 -33.561)"/>
      <path id="Trazado_1225741" data-name="Trazado 1225741" d="M33.7,95.07H16.26a.57.57,0,1,1,0-1.14H33.7a.57.57,0,1,1,0,1.14Z" transform="translate(-3.738 -37.178)"/>
      <path id="Trazado_1225742" data-name="Trazado 1225742" d="M57.08,68.32H77.726V83.484H57.08Z" transform="translate(-21.542 -26.162)" fill="#b3a4ee"/>
      <g id="Grupo_1236384" data-name="Grupo 1236384" transform="translate(53.437 42.158)" opacity="0.1">
        <path id="Trazado_1225743" data-name="Trazado 1225743" d="M88.49,68.32h2.747V83.484H88.49Z" transform="translate(-88.49 -68.32)"/>
      </g>
      <path id="Trazado_1225744" data-name="Trazado 1225744" d="M77.3,83.623a.57.57,0,0,1-.336-.114L56.315,68.345a.569.569,0,0,1,.672-.917L77.633,82.591a.57.57,0,0,1-.336,1.031Z" transform="translate(-21.113 -25.731)"/>
      <path id="Trazado_1225745" data-name="Trazado 1225745" d="M56.651,83.605a.572.572,0,0,1-.336-1.031L76.961,67.41a.57.57,0,1,1,.672.917L56.988,83.491A.57.57,0,0,1,56.651,83.605Z" transform="translate(-21.113 -25.714)"/>
      <path id="Trazado_1225746" data-name="Trazado 1225746" d="M57.08,34.7H77.726V48.416H57.08Z" transform="translate(-21.542 -11.7)" fill="#fbd277"/>
      <g id="Grupo_1236385" data-name="Grupo 1236385" transform="translate(53.437 23)" opacity="0.1">
        <path id="Trazado_1225747" data-name="Trazado 1225747" d="M88.49,34.7h2.747V48.416H88.49Z" transform="translate(-88.49 -34.7)"/>
      </g>
      <path id="Trazado_1225748" data-name="Trazado 1225748" d="M31.423,50H16.26a.57.57,0,0,1-.57-.57V34.27a.57.57,0,0,1,.57-.57H31.423a.57.57,0,0,1,.57.57V49.433A.57.57,0,0,1,31.423,50ZM16.83,48.864H30.854V34.84H16.83Z" transform="translate(-3.738 -11.27)"/>
      <path id="Trazado_1225749" data-name="Trazado 1225749" d="M77.3,83.623H56.65a.57.57,0,0,1-.57-.57V67.89a.57.57,0,0,1,.57-.57H77.3a.57.57,0,0,1,.57.57V83.053A.57.57,0,0,1,77.3,83.623ZM57.22,82.484H76.726V68.46H57.22Z" transform="translate(-21.112 -25.732)"/>
      <path id="Trazado_1225750" data-name="Trazado 1225750" d="M77.3,48.556H56.65a.57.57,0,0,1-.57-.57V34.27a.57.57,0,0,1,.57-.57H77.3a.57.57,0,0,1,.57.57V47.986A.57.57,0,0,1,77.3,48.556ZM57.22,47.416H76.726V34.84H57.22Z" transform="translate(-21.112 -11.27)"/>
      <path id="Trazado_1225751" data-name="Trazado 1225751" d="M76.2,52.01H64.51a.57.57,0,1,1,0-1.14H76.2a.57.57,0,0,1,0,1.14Z" transform="translate(-24.493 -18.656)"/>
      <path id="Trazado_1225752" data-name="Trazado 1225752" d="M76.2,41.74H64.51a.57.57,0,1,1,0-1.14H76.2a.57.57,0,0,1,0,1.14Z" transform="translate(-24.493 -14.238)"/>
    </g>
  </g>
</svg>
