<svg xmlns="http://www.w3.org/2000/svg" xmlns:xlink="http://www.w3.org/1999/xlink" width="113" height="113" viewBox="0 0 113 113">
  <defs>
    <filter id="Trazado_982547" x="0" y="0" width="113" height="113" filterUnits="userSpaceOnUse">
      <feOffset dy="3" input="SourceAlpha"/>
      <feGaussianBlur stdDeviation="3" result="blur"/>
      <feFlood flood-opacity="0.161"/>
      <feComposite operator="in" in2="blur"/>
      <feComposite in="SourceGraphic"/>
    </filter>
  </defs>
  <g id="Grupo_1236388" data-name="Grupo 1236388" transform="translate(-743.5 -1384.175)">
    <g id="Grupo_1223811" data-name="Grupo 1223811" transform="translate(752.5 1390.175)">
      <g id="Grupo_1211532" data-name="Grupo 1211532" transform="translate(0)">
        <g id="Grupo_1210969" data-name="Grupo 1210969" transform="translate(0 0)">
          <g id="Grupo_1210937" data-name="Grupo 1210937">
            <g id="Grupo_1174742" data-name="Grupo 1174742">
              <g id="Grupo_1163948" data-name="Grupo 1163948">
                <g id="Grupo_1158168" data-name="Grupo 1158168">
                  <g id="Grupo_1152576" data-name="Grupo 1152576">
                    <g id="Grupo_1148633" data-name="Grupo 1148633">
                      <g id="Grupo_1148525" data-name="Grupo 1148525">
                        <g transform="matrix(1, 0, 0, 1, -9, -6)" filter="url(#Trazado_982547)">
                          <g id="Trazado_982547-2" data-name="Trazado 982547" transform="translate(9 6)" fill="#fbe7b2">
                            <path d="M 47.5 93.5 C 41.28937149047852 93.5 35.26533508300781 92.28397369384766 29.59518623352051 89.88570404052734 C 24.11771965026855 87.56893157958984 19.19813346862793 84.25196075439453 14.97309303283691 80.02691650390625 C 10.74804019927979 75.80186462402344 7.431066513061523 70.88229370117188 5.114293098449707 65.40481567382812 C 2.716026782989502 59.73468017578125 1.5 53.71062850952148 1.5 47.5 C 1.5 41.28937149047852 2.716026782989502 35.26533508300781 5.114293098449707 29.59518623352051 C 7.431066513061523 24.11771965026855 10.74804019927979 19.19813346862793 14.97309303283691 14.97309303283691 C 19.19813346862793 10.74804019927979 24.11771965026855 7.431066513061523 29.59518623352051 5.114293098449707 C 35.26533508300781 2.716026782989502 41.28937149047852 1.5 47.5 1.5 C 53.71062850952148 1.5 59.73468017578125 2.716026782989502 65.40481567382812 5.114293098449707 C 70.88229370117188 7.431066513061523 75.80186462402344 10.74804019927979 80.02691650390625 14.97309303283691 C 84.25196075439453 19.19813346862793 87.56893157958984 24.11771965026855 89.88570404052734 29.59518623352051 C 92.28397369384766 35.26533508300781 93.5 41.28937149047852 93.5 47.5 C 93.5 53.71062850952148 92.28397369384766 59.73468017578125 89.88570404052734 65.40481567382812 C 87.56893157958984 70.88229370117188 84.25196075439453 75.80186462402344 80.02691650390625 80.02691650390625 C 75.80186462402344 84.25196075439453 70.88229370117188 87.56893157958984 65.40481567382812 89.88570404052734 C 59.73468017578125 92.28397369384766 53.71062850952148 93.5 47.5 93.5 Z" stroke="none"/>
                            <path d="M 47.5 3 C 41.49121475219727 3 35.66376876831055 4.176155090332031 30.17950439453125 6.495796203613281 C 24.88084411621094 8.736953735351562 20.12152099609375 11.94598388671875 16.03375244140625 16.03375244140625 C 11.94598388671875 20.12152099609375 8.736953735351562 24.88084411621094 6.495796203613281 30.17950439453125 C 4.176155090332031 35.66376876831055 3 41.49121475219727 3 47.5 C 3 53.50878524780273 4.176155090332031 59.33623123168945 6.495796203613281 64.82049560546875 C 8.736953735351562 70.11915588378906 11.94598388671875 74.87847900390625 16.03375244140625 78.96624755859375 C 20.12152099609375 83.05401611328125 24.88084411621094 86.26304626464844 30.17950439453125 88.50419616699219 C 35.66376876831055 90.82384490966797 41.49121475219727 92 47.5 92 C 53.50878524780273 92 59.33623123168945 90.82384490966797 64.82049560546875 88.50419616699219 C 70.11915588378906 86.26304626464844 74.87847900390625 83.05401611328125 78.96624755859375 78.96624755859375 C 83.05401611328125 74.87847900390625 86.26304626464844 70.11915588378906 88.50419616699219 64.82049560546875 C 90.82384490966797 59.33623123168945 92 53.50878524780273 92 47.5 C 92 41.49121475219727 90.82384490966797 35.66376876831055 88.50419616699219 30.17950439453125 C 86.26304626464844 24.88084411621094 83.05401611328125 20.12152099609375 78.96624755859375 16.03375244140625 C 74.87847900390625 11.94598388671875 70.11915588378906 8.736953735351562 64.82049560546875 6.495796203613281 C 59.33623123168945 4.176155090332031 53.50878524780273 3 47.5 3 M 47.5 0 C 73.7335205078125 0 95 21.2664794921875 95 47.5 C 95 73.7335205078125 73.7335205078125 95 47.5 95 C 21.2664794921875 95 0 73.7335205078125 0 47.5 C 0 21.2664794921875 21.2664794921875 0 47.5 0 Z" stroke="none" fill="#f5b104"/>
                          </g>
                        </g>
                      </g>
                    </g>
                  </g>
                </g>
              </g>
            </g>
          </g>
        </g>
      </g>
    </g>
    <g id="satisfaccion" transform="translate(769.773 1409.759)">
      <path id="Trazado_1225753" data-name="Trazado 1225753" d="M65.592,37.106H55.2v2.541a1,1,0,0,1-1,1H25.367a4.671,4.671,0,0,1-1.88-.478L18.84,37.635c-.265-.145-.384-.34-.358-.53H8.09a.592.592,0,0,0-.59.59V86.14a.592.592,0,0,0,.59.59h57.5a.592.592,0,0,0,.59-.59V37.7a.592.592,0,0,0-.59-.59Zm0,0" transform="translate(-6.614 -32.284)" fill="#e6e9ed"/>
      <path id="Trazado_1225754" data-name="Trazado 1225754" d="M212.666,310.176a6.7,6.7,0,1,1-6.7-6.766A6.731,6.731,0,0,1,212.666,310.176Zm0,0" transform="translate(-175.744 -267.145)" fill="#ffc502"/>
      <path id="Trazado_1225755" data-name="Trazado 1225755" d="M70.123,310.176a6.7,6.7,0,1,1-6.7-6.766A6.731,6.731,0,0,1,70.123,310.176Zm0,0" transform="translate(-50.032 -267.145)" fill="#89c947"/>
      <path id="Trazado_1225756" data-name="Trazado 1225756" d="M355.237,310.176a6.7,6.7,0,1,1-6.7-6.766A6.732,6.732,0,0,1,355.237,310.176Zm0,0" transform="translate(-301.482 -267.145)" fill="#ef5050"/>
      <g id="Grupo_1236387" data-name="Grupo 1236387" transform="translate(6.698 13.164)">
        <path id="Trazado_1225757" data-name="Trazado 1225757" d="M63.579,114.272a.355.355,0,0,1-.354.354H57.085a.355.355,0,0,1-.354-.354v-6.164a.355.355,0,0,1,.354-.354h6.139a.355.355,0,0,1,.354.354Zm0,0" transform="translate(-56.731 -107.754)" fill="#fcdb67"/>
        <path id="Trazado_1225758" data-name="Trazado 1225758" d="M63.579,209.53a.355.355,0,0,1-.354.354H57.085a.355.355,0,0,1-.354-.354v-6.164a.355.355,0,0,1,.354-.354h6.139a.355.355,0,0,1,.354.354Zm0,0" transform="translate(-56.731 -191.765)" fill="#fcdb67"/>
        <path id="Trazado_1225759" data-name="Trazado 1225759" d="M283.692,114.272a.355.355,0,0,1-.354.354H277.2a.355.355,0,0,1-.354-.354v-6.164a.355.355,0,0,1,.354-.354h6.139a.355.355,0,0,1,.354.354Zm0,0" transform="translate(-250.854 -107.754)" fill="#fcdb67"/>
        <path id="Trazado_1225760" data-name="Trazado 1225760" d="M283.692,209.53a.355.355,0,0,1-.354.354H277.2a.355.355,0,0,1-.354-.354v-6.164a.355.355,0,0,1,.354-.354h6.139a.355.355,0,0,1,.354.354Zm0,0" transform="translate(-250.854 -191.765)" fill="#fcdb67"/>
      </g>
      <path id="Trazado_1225761" data-name="Trazado 1225761" d="M136.2,8a1,1,0,0,1,1,1v4.981a1,1,0,0,1-1,1H107.366a4.664,4.664,0,0,1-1.88-.479l-4.647-2.531c-.483-.263-.483-.694,0-.957l4.647-2.531A4.664,4.664,0,0,1,107.366,8Zm0,0" transform="translate(-88.613 -6.615)" fill="#ffc502"/>
      <path id="Trazado_1225762" data-name="Trazado 1225762" d="M107.769,8h-.4a4.664,4.664,0,0,0-1.88.479l-4.647,2.531c-.483.263-.483.694,0,.957l4.647,2.531a4.664,4.664,0,0,0,1.88.479h.4Zm0,0" transform="translate(-88.613 -6.615)" fill="#ffd5b3"/>
      <path id="Trazado_1225763" data-name="Trazado 1225763" d="M103.963,19.082l-3.123,1.7c-.483.263-.483.694,0,.957l3.123,1.7Zm0,0" transform="translate(-88.613 -16.388)" fill="#775436"/>
      <path id="Trazado_1225764" data-name="Trazado 1225764" d="M368.15,13.978V9a1,1,0,0,0-1-1h-4.805v6.976h4.805a1,1,0,0,0,1-1Zm0,0" transform="translate(-319.56 -6.615)" fill="#fb8276"/>
      <path id="Trazado_1225765" data-name="Trazado 1225765" d="M149.375,29.609h-3.247a.886.886,0,0,0,0,1.771h2.952V79.234H103.386a.886.886,0,0,0,0,1.771h45.989a1.478,1.478,0,0,0,1.476-1.476V31.085A1.477,1.477,0,0,0,149.375,29.609Zm0,0" transform="translate(-90.397 -25.673)"/>
      <path id="Trazado_1225766" data-name="Trazado 1225766" d="M8.737,53.561H1.771V5.708h9.513a1.732,1.732,0,0,0,.519.422L16.45,8.661a5.518,5.518,0,0,0,2.3.587H47.589a1.888,1.888,0,0,0,1.887-1.884V5.708H51.6a.886.886,0,0,0,0-1.771H49.475V2.383A1.887,1.887,0,0,0,47.589.5H18.753a5.518,5.518,0,0,0-2.3.587L11.8,3.617a1.8,1.8,0,0,0-.428.32h-9.9A1.477,1.477,0,0,0,0,5.413V53.857a1.478,1.478,0,0,0,1.476,1.476H8.737a.886.886,0,1,0,0-1.771ZM43.669,2.271h3.92a.117.117,0,0,1,.116.112V7.364a.117.117,0,0,1-.116.113h-3.92Zm-23.627,0H41.9V3.988H20.042Zm0,3.488H41.9V7.476H20.042ZM16.235,3.22,17.3,2.642a3.694,3.694,0,0,1,.974-.317v5.1a3.72,3.72,0,0,1-.975-.317l-1.061-.578Zm-1.771.965V5.563L13.2,4.873Zm0,0"/>
      <path id="Trazado_1225767" data-name="Trazado 1225767" d="M199.356,311.217a7.553,7.553,0,0,0,7.243-5.386.886.886,0,0,0-1.693-.519,5.791,5.791,0,0,1-5.55,4.134,5.88,5.88,0,1,1,5.482-7.835.886.886,0,0,0,1.673-.582,7.6,7.6,0,1,0-7.154,10.188Zm0,0" transform="translate(-169.13 -260.534)"/>
      <path id="Trazado_1225768" data-name="Trazado 1225768" d="M226.115,340.395v-.7a.886.886,0,1,0-1.771,0v.7a.886.886,0,1,0,1.771,0Zm0,0" transform="translate(-197.855 -298.367)"/>
      <path id="Trazado_1225769" data-name="Trazado 1225769" d="M274.4,340.395v-.7a.886.886,0,1,0-1.771,0v.7a.886.886,0,1,0,1.771,0Zm0,0" transform="translate(-240.442 -298.367)"/>
      <path id="Trazado_1225770" data-name="Trazado 1225770" d="M232.749,373.591h3.926a.886.886,0,1,0,0-1.771h-3.926a.886.886,0,1,0,0,1.771Zm0,0" transform="translate(-204.486 -327.477)"/>
      <path id="Trazado_1225771" data-name="Trazado 1225771" d="M56.812,311.213a7.652,7.652,0,1,0-7.582-7.651A7.625,7.625,0,0,0,56.812,311.213Zm0-13.532A5.881,5.881,0,1,1,51,303.562a5.852,5.852,0,0,1,5.811-5.881Zm0,0" transform="translate(-43.417 -260.531)"/>
      <path id="Trazado_1225772" data-name="Trazado 1225772" d="M82.686,341.28a.885.885,0,0,0,.886-.886v-.7a.886.886,0,1,0-1.771,0v.7A.886.886,0,0,0,82.686,341.28Zm0,0" transform="translate(-72.142 -298.367)"/>
      <path id="Trazado_1225773" data-name="Trazado 1225773" d="M130.976,341.28a.885.885,0,0,0,.886-.886v-.7a.886.886,0,1,0-1.771,0v.7A.885.885,0,0,0,130.976,341.28Zm0,0" transform="translate(-114.73 -298.367)"/>
      <path id="Trazado_1225774" data-name="Trazado 1225774" d="M87.891,367.8a3.026,3.026,0,0,0,6.035,0,.886.886,0,1,0-1.771,0,1.268,1.268,0,0,1-2.493,0,.886.886,0,1,0-1.771,0Zm0,0" transform="translate(-77.513 -323.151)"/>
      <path id="Trazado_1225775" data-name="Trazado 1225775" d="M341.926,311.213a7.652,7.652,0,1,0-7.582-7.651A7.625,7.625,0,0,0,341.926,311.213Zm0-13.532a5.881,5.881,0,1,1-5.81,5.881A5.853,5.853,0,0,1,341.926,297.682Zm0,0" transform="translate(-294.867 -260.531)"/>
      <path id="Trazado_1225776" data-name="Trazado 1225776" d="M367.8,341.28a.885.885,0,0,0,.886-.886v-.7a.886.886,0,1,0-1.771,0v.7A.886.886,0,0,0,367.8,341.28Zm0,0" transform="translate(-323.588 -298.367)"/>
      <path id="Trazado_1225777" data-name="Trazado 1225777" d="M416.089,341.28a.885.885,0,0,0,.886-.886v-.7a.886.886,0,1,0-1.771,0v.7A.885.885,0,0,0,416.089,341.28Zm0,0" transform="translate(-366.179 -298.367)"/>
      <path id="Trazado_1225778" data-name="Trazado 1225778" d="M373,366.515a.886.886,0,0,0,1.771,0,1.269,1.269,0,0,1,2.493,0,.886.886,0,0,0,1.771,0,3.026,3.026,0,0,0-6.036,0Zm0,0" transform="translate(-328.959 -320.326)"/>
      <path id="Trazado_1225779" data-name="Trazado 1225779" d="M50.47,108.9H56.61a1.241,1.241,0,0,0,1.24-1.24V102.55l.349-.351a.885.885,0,0,0-.651-1.509,1.236,1.236,0,0,0-.938-.432H50.47a1.241,1.241,0,0,0-1.24,1.24v6.164A1.241,1.241,0,0,0,50.47,108.9ZM51,102.028h4.869L53.7,104.216l-.715-.721a.886.886,0,1,0-1.257,1.248l1.094,1.1a1.227,1.227,0,0,0,.878.366h0a1.227,1.227,0,0,0,.878-.365l1.5-1.512v2.8H51Zm0,0" transform="translate(-43.418 -87.979)"/>
      <path id="Trazado_1225780" data-name="Trazado 1225780" d="M139.183,118.849h10.551a.886.886,0,0,0,0-1.771H139.183a.886.886,0,0,0,0,1.771Zm0,0" transform="translate(-121.968 -102.814)"/>
      <path id="Trazado_1225781" data-name="Trazado 1225781" d="M139.183,143.412h6.008a.886.886,0,0,0,0-1.771h-6.008a.886.886,0,0,0,0,1.771Zm0,0" transform="translate(-121.968 -124.476)"/>
      <path id="Trazado_1225782" data-name="Trazado 1225782" d="M49.23,202.916a1.241,1.241,0,0,0,1.24,1.24H56.61a1.241,1.241,0,0,0,1.24-1.24v-6.164a1.241,1.241,0,0,0-1.24-1.24H50.47a1.241,1.241,0,0,0-1.24,1.24ZM51,197.283h5.077v5.1H51Zm0,0" transform="translate(-43.418 -171.987)"/>
      <path id="Trazado_1225783" data-name="Trazado 1225783" d="M139.183,214.107h10.551a.886.886,0,1,0,0-1.771H139.183a.886.886,0,1,0,0,1.771Zm0,0" transform="translate(-121.968 -186.824)"/>
      <path id="Trazado_1225784" data-name="Trazado 1225784" d="M146.077,237.781a.885.885,0,0,0-.886-.886h-6.008a.886.886,0,0,0,0,1.771h6.008A.886.886,0,0,0,146.077,237.781Zm0,0" transform="translate(-121.968 -208.483)"/>
      <path id="Trazado_1225785" data-name="Trazado 1225785" d="M270.584,108.9h6.139a1.241,1.241,0,0,0,1.24-1.24v-6.164a1.241,1.241,0,0,0-1.24-1.24h-6.139a1.241,1.241,0,0,0-1.24,1.24v6.164A1.241,1.241,0,0,0,270.584,108.9Zm.531-6.873h5.077v5.1h-5.077Zm0,0" transform="translate(-237.542 -87.976)"/>
      <path id="Trazado_1225786" data-name="Trazado 1225786" d="M358.406,117.964a.885.885,0,0,0,.886.886h10.551a.886.886,0,1,0,0-1.771H359.292A.885.885,0,0,0,358.406,117.964Zm0,0" transform="translate(-316.088 -102.814)"/>
      <path id="Trazado_1225787" data-name="Trazado 1225787" d="M359.292,143.412H365.3a.886.886,0,0,0,0-1.771h-6.009a.886.886,0,0,0,0,1.771Zm0,0" transform="translate(-316.088 -124.476)"/>
      <path id="Trazado_1225788" data-name="Trazado 1225788" d="M277.963,202.916v-6.164a1.241,1.241,0,0,0-1.24-1.24h-6.139a1.241,1.241,0,0,0-1.24,1.24v6.164a1.241,1.241,0,0,0,1.24,1.24h6.139A1.241,1.241,0,0,0,277.963,202.916Zm-1.771-.531h-5.077v-5.1h5.077Zm0,0" transform="translate(-237.542 -171.987)"/>
      <path id="Trazado_1225789" data-name="Trazado 1225789" d="M369.847,212.336H359.3a.886.886,0,1,0,0,1.771h10.551a.886.886,0,1,0,0-1.771Zm0,0" transform="translate(-316.092 -186.824)"/>
      <path id="Trazado_1225790" data-name="Trazado 1225790" d="M365.3,238.666a.886.886,0,0,0,0-1.771h-6.009a.886.886,0,0,0,0,1.771Zm0,0" transform="translate(-316.088 -208.483)"/>
    </g>
  </g>
</svg>
