<svg xmlns="http://www.w3.org/2000/svg" xmlns:xlink="http://www.w3.org/1999/xlink" width="295" height="350" viewBox="0 0 295 350">
  <defs>
    <clipPath id="clip-path">
      <rect id="Rect치ngulo_423952" data-name="Rect치ngulo 423952" width="295" height="350" transform="translate(180 4395)" fill="#fff" stroke="#707070" stroke-width="1"/>
    </clipPath>
    <clipPath id="clip-path-2">
      <path id="Trazado_1226089" data-name="Trazado 1226089" d="M282.051,194.832l-23.289-19.865L233.9,173.825a21.752,21.752,0,0,0-4.407.025l-20.346,1.008-19.492,23.778,14.03,5.176-8.362,37.4h63.452l-6.635-14.93Z" transform="translate(-189.656 -173.725)"/>
    </clipPath>
  </defs>
  <g id="Enmascarar_grupo_1208503" data-name="Enmascarar grupo 1208503" transform="translate(-180 -4395)" clip-path="url(#clip-path)">
    <g id="_14140667_5426599" data-name="14140667_5426599" transform="translate(147 4335)">
      <g id="BACKGROUND">
        <rect id="Rect치ngulo_423954" data-name="Rect치ngulo 423954" width="410" height="410" fill="#ffeea4" opacity="0.1"/>
      </g>
      <g id="OBJECTS" transform="translate(40.343 62.803)">
        <g id="Grupo_1236547" data-name="Grupo 1236547">
          <path id="Trazado_1226062" data-name="Trazado 1226062" d="M148.479,467.245l26.011-2.854a11.77,11.77,0,0,0,10.416-12.982l-4.7-42.824a11.769,11.769,0,0,0-12.982-10.416l-26.011,2.854A11.77,11.77,0,0,0,130.8,414.005l4.7,42.824A11.768,11.768,0,0,0,148.479,467.245Z" transform="translate(-63.874 -134.461)" fill="#361f63"/>
          <path id="Trazado_1226063" data-name="Trazado 1226063" d="M165.052,465.427l26.011-2.854a11.769,11.769,0,0,0,10.416-12.982l-4.7-42.824A11.77,11.77,0,0,0,183.8,396.351L157.788,399.2a11.77,11.77,0,0,0-10.416,12.982l4.7,42.824A11.769,11.769,0,0,0,165.052,465.427Z" transform="translate(-66.857 -134.133)" fill="#48297a"/>
          <path id="Trazado_1226064" data-name="Trazado 1226064" d="M61.976,327.236A16.778,16.778,0,0,1,75.93,323.78c11.6,2.237,38.977,9.722,39.9,30.636,1.169,26.561-51.441,11.442-57.871-8.18C54.742,336.424,57.957,330.6,61.976,327.236Z" transform="translate(-50.539 -121.026)" fill="#eab9bc"/>
          <path id="Trazado_1226065" data-name="Trazado 1226065" d="M294.682,360.987s19.213-28.406,29.355-64.163-9.335-93.037-6.319-124.9-37.922-31.8-42,4.121-9.347,89.7-9.347,89.7L154.721,295.721l21.04,140.623H327.375Z" transform="translate(-68.193 -89.541)" fill="#eab9bc"/>
          <path id="Trazado_1226066" data-name="Trazado 1226066" d="M253.871,254.618S117.068,66.124,90.785,88.6C56.3,118.091,195.673,270.245,195.673,270.245Z" transform="translate(-55.696 -78.416)" fill="#eab9bc"/>
          <g id="Grupo_1236543" data-name="Grupo 1236543" transform="translate(51.55)">
            <g id="Grupo_1236527" data-name="Grupo 1236527">
              <path id="Trazado_1226067" data-name="Trazado 1226067" d="M263.432,326.873H123.249a11.184,11.184,0,0,1-11.184-11.184V87.773a11.184,11.184,0,0,1,11.184-11.184H263.432a11.184,11.184,0,0,1,11.184,11.184V315.69A11.184,11.184,0,0,1,263.432,326.873Z" transform="translate(-112.065 -76.589)" fill="#5e67b7"/>
              <path id="Trazado_1226068" data-name="Trazado 1226068" d="M280.51,326.873H140.328a11.184,11.184,0,0,1-11.184-11.184V87.773a11.184,11.184,0,0,1,11.184-11.184H280.511A11.184,11.184,0,0,1,291.7,87.773V315.69A11.185,11.185,0,0,1,280.51,326.873Z" transform="translate(-115.139 -76.589)" fill="#777dd8"/>
              <path id="Trazado_1226069" data-name="Trazado 1226069" d="M273.483,305.454H152.288a9.442,9.442,0,0,1-9.441-9.441V107.892a9.441,9.441,0,0,1,9.441-9.441H273.483a9.442,9.442,0,0,1,9.441,9.441v188.12A9.442,9.442,0,0,1,273.483,305.454Z" transform="translate(-117.606 -80.524)" fill="#fff"/>
              <path id="Trazado_1226070" data-name="Trazado 1226070" d="M219.3,87.987h18.862a2.322,2.322,0,0,0,2.322-2.322h0a2.322,2.322,0,0,0-2.322-2.322H219.3a2.322,2.322,0,0,0-2.322,2.322h0A2.322,2.322,0,0,0,219.3,87.987Z" transform="translate(-130.949 -77.805)" fill="#fff"/>
              <path id="Trazado_1226071" data-name="Trazado 1226071" d="M300.128,98.451h-9.253a9.441,9.441,0,0,1,9.441,9.441v188.12a9.441,9.441,0,0,1-9.441,9.441h9.253a9.441,9.441,0,0,0,9.441-9.441V107.892A9.441,9.441,0,0,0,300.128,98.451Z" transform="translate(-144.251 -80.524)" fill="#5e67b7"/>
            </g>
            <g id="Grupo_1236528" data-name="Grupo 1236528" transform="translate(41.013 46.858)">
              <path id="Trazado_1226072" data-name="Trazado 1226072" d="M253.212,234.281H171.5a9.417,9.417,0,0,1-9.417-9.417V143.15a9.417,9.417,0,0,1,9.417-9.417h81.714a9.417,9.417,0,0,1,9.417,9.417v81.714A9.417,9.417,0,0,1,253.212,234.281Z" transform="translate(-162.081 -133.733)" fill="#e563a7"/>
              <path id="Trazado_1226073" data-name="Trazado 1226073" d="M166.434,261.207h0a4.353,4.353,0,0,0,4.134-2.992l6.518-19.806h-15v18.446A4.351,4.351,0,0,0,166.434,261.207Z" transform="translate(-162.081 -152.575)" fill="#e563a7"/>
            </g>
            <g id="Grupo_1236542" data-name="Grupo 1236542" transform="translate(39.741 30.178)">
              <g id="Grupo_1236541" data-name="Grupo 1236541">
                <path id="Trazado_1226074" data-name="Trazado 1226074" d="M257.56,134.6s2.181-16.3-12.826-20.484-26.822,10.228-28.666,31.233-25.1,11.537-44.161,19.6-18.785,57.955,37.2,44.643S257.56,134.6,257.56,134.6Z" transform="translate(-160.529 -113.391)" fill="#2d2235"/>
                <path id="Trazado_1226075" data-name="Trazado 1226075" d="M267.36,217.55,303.15,232.7a8.179,8.179,0,0,0,13.107-.928L340.7,193.412l-8.81-5.615-20.707,24.534-28.436-18.6Z" transform="translate(-179.759 -126.784)" fill="#efa5a5"/>
                <path id="Trazado_1226076" data-name="Trazado 1226076" d="M346.06,186.442l14.311-6.635a1.013,1.013,0,0,1,1.284,1.459l-6.785,10.792Z" transform="translate(-193.925 -125.328)" fill="#efa5a5"/>
                <path id="Trazado_1226077" data-name="Trazado 1226077" d="M260.02,241.213H196.568l10.63-47.544c2.613-11.684,16.033-21.026,27.947-19.843l24.862,1.142L283.3,194.833l-29.91,31.452Z" transform="translate(-167.016 -124.251)" fill="#0ab8df"/>
                <path id="Trazado_1226078" data-name="Trazado 1226078" d="M260.02,241.213H196.568l10.63-47.544c2.613-11.684,16.033-21.026,27.947-19.843l24.862,1.142L283.3,194.833l-29.91,31.452Z" transform="translate(-167.016 -124.251)" fill="#46598e"/>
                <g id="Grupo_1236533" data-name="Grupo 1236533" transform="translate(23.884 49.473)">
                  <g id="Grupo_1236532" data-name="Grupo 1236532" clip-path="url(#clip-path-2)">
                    <g id="Grupo_1236529" data-name="Grupo 1236529" transform="translate(5.665 25.938)">
                      <path id="Trazado_1226079" data-name="Trazado 1226079" d="M208.624,225.157c-.007,0-.013,0,0,0l-.328.14a.654.654,0,0,1-.3.057l-.4-.026a.162.162,0,0,1-.14-.066.175.175,0,0,0-.158-.071,1.583,1.583,0,0,0-.187,0,.534.534,0,0,1-.318-.07,1.106,1.106,0,0,0-.371-.121c-.1-.015-.189-.043-.284-.065a.447.447,0,0,0-.363-.318c-.047-.055-.033-.146-.131-.157-.232-.025-.379-.7-.585-.784a.3.3,0,0,0-.061-.013c-.157-.024-.247-.406-.383-.467a.27.27,0,0,1-.1-.09l-.266-.39c-.048-.072-.077-.155-.181-.19-.027-.009-.041-.047-.064-.07-.051-.049-.1-.1-.155-.146-.149-.121-.207-1.129-.266-1.305l-.037-.121-.171-.08c.012-.047.022-.086.032-.125a.177.177,0,0,0-.055-.215.141.141,0,0,1-.049-.077.634.634,0,0,1-.037-.335.133.133,0,0,0-.007-.1c-.066-.107-.026-.226-.07-.335a.111.111,0,0,1,.008-.087.183.183,0,0,0-.088-.28.19.19,0,0,1-.091-.206,1.716,1.716,0,0,0-.006-.394.633.633,0,0,1,0-.283.3.3,0,0,0-.067-.307.123.123,0,0,1-.019-.166.17.17,0,0,0,.012-.052.268.268,0,0,0-.043-.039c-.115-.06-.168-.136-.129-.256a.153.153,0,0,0-.1-.2.161.161,0,0,1-.108-.194c.016-.116.033-.234.051-.369a.79.79,0,0,1-.225-.606.391.391,0,0,0,.065-.545.148.148,0,0,1,.009-.2,1.708,1.708,0,0,1,.121-.13.454.454,0,0,1-.042-.15.265.265,0,0,0-.136-.265c-.016-.1-.03-.184-.043-.266a.181.181,0,0,1,.021-.156.46.46,0,0,0,.077-.273.493.493,0,0,1,.064-.276.1.1,0,0,0-.028-.132l-.074-.063c-.076-.072-.072-.133.01-.2.106-.08.111-.082.04-.189a.14.14,0,0,1,0-.169l.107-.149c-.025-.037-.043-.07-.065-.1-.131-.171-.13-.182.039-.326.009-.007.011-.021.021-.044a3.352,3.352,0,0,1-.024-.435c-.018-.12.007-.248,0-.372a.267.267,0,0,1,.016-.07l.04-.21a1.444,1.444,0,0,1,.061-.279,1,1,0,0,0,.057-.6.286.286,0,0,1,.09-.324c-.014-.034-.029-.062-.037-.089a.267.267,0,0,1,.052-.317c.066-.057.055-.123,0-.2a.4.4,0,0,1-.1-.289,1.73,1.73,0,0,1,.075-.3.349.349,0,0,0,.016-.227.753.753,0,0,1-.053-.281,1.006,1.006,0,0,0-.12-.466.275.275,0,0,1-.019-.19l.075-.241a.177.177,0,0,0-.089-.22,2.294,2.294,0,0,1-.23-.178.1.1,0,0,1-.039-.115.184.184,0,0,0-.059-.183,1.439,1.439,0,0,0-.215-.242.4.4,0,0,1-.166-.314.159.159,0,0,0-.1-.129.3.3,0,0,1-.127-.113.311.311,0,0,0-.274-.159c-.073-.012-.147-.02-.221-.025a.224.224,0,0,1-.175-.08.3.3,0,0,0-.216-.115,1.4,1.4,0,0,1-.234-.055.263.263,0,0,1-.134-.072c-.076-.124-.211-.142-.338-.177-.089-.025-.176-.061-.267-.078s-.184-.011-.276-.019c-.026,0-.051-.018-.077-.02a2.177,2.177,0,0,0-.378-.015,1.64,1.64,0,0,1-.317.013c-.148-.013-.157-.008-.19.118a.141.141,0,0,1-.162.122.307.307,0,0,0-.216.074,2.683,2.683,0,0,0-.238.235c-.03.03-.048.077-.084.093a.165.165,0,0,0-.094.212.225.225,0,0,1-.052.218.113.113,0,0,0,0,.164.541.541,0,0,1,.043.081c-.025.039-.065.073-.067.11a.353.353,0,0,1-.14.225.4.4,0,0,0-.117.2.935.935,0,0,1-.1.267.308.308,0,0,0-.052.22.241.241,0,0,1-.06.218.137.137,0,0,0-.034.1,1.831,1.831,0,0,1-.055.531.333.333,0,0,1-.084.155.535.535,0,0,0-.1.186,1.121,1.121,0,0,0-.017.5,2.129,2.129,0,0,1,0,.462.218.218,0,0,0,0,.122.765.765,0,0,1,.058.458.969.969,0,0,1-.1.342.545.545,0,0,0-.045.365.553.553,0,0,1,.009.248.446.446,0,0,0,.036.3.311.311,0,0,1,.006.245c-.01.034-.038.063-.051.1-.032.078-.023.119.061.168.108.064.144.143.1.247a.21.21,0,0,0,.019.233.459.459,0,0,0-.127.353.656.656,0,0,1-.021.158.433.433,0,0,0-.02.1.751.751,0,0,1-.075.505.449.449,0,0,1-.186.371c-.091.086-.062.194.06.257a.169.169,0,0,1,.107.194c-.008.071-.016.142-.019.213a1.787,1.787,0,0,1-.013.393,2.073,2.073,0,0,0,0,.391l-.006.053a5.663,5.663,0,0,0-.014.59.32.32,0,0,1-.053.252.1.1,0,0,0,.023.162.242.242,0,0,1,.086.16.42.42,0,0,0,.145.271c0,.108,0,.2,0,.287,0,.028.008.069.03.082.09.055.087.149.139.216a.269.269,0,0,1,.05.239c-.009.047-.011.094-.016.133a.386.386,0,0,1,.123.456.18.18,0,0,0,.033.187.545.545,0,0,1,.074.166c.032.107,0,.23.122.315a.024.024,0,0,1,.007.016c.016.123.092.24.058.371a.232.232,0,0,0,.006.158.534.534,0,0,0,.189.235.211.211,0,0,1,.1.115.5.5,0,0,0,.066.133.36.36,0,0,1,.12.28c0,.02.02.044.034.065a1,1,0,0,1,.176.344.279.279,0,0,0,.055.135.173.173,0,0,1,.012.239c.067.157.2.271.254.422a.205.205,0,0,0,.076.084.161.161,0,0,1,.08.159.254.254,0,0,0,.119.256.2.2,0,0,1,.093.173.253.253,0,0,0,.056.188c.08.066.106.157.178.221a.322.322,0,0,1,.111.229.2.2,0,0,0,.051.116c.066.069.145.13.218.194a.308.308,0,0,1,.049.054.851.851,0,0,1,.069.107c.063.128.176.229.25.353a.773.773,0,0,0,.294.347,3,3,0,0,1,.153.368c.048.18-.026.294.072.437.011.016.052.012.077.024a.416.416,0,0,1,.082.051c.045.038.182.394.224.435a1.229,1.229,0,0,0-.049-.258,1.449,1.449,0,0,0,.171.56c.066.061.252.64.348.679.025.011.038.048.055.074a.363.363,0,0,0,.049.079,2.482,2.482,0,0,0,.467.367.884.884,0,0,1,.373.338.612.612,0,0,0,.126.144c.066.063.139.121.209.18a.574.574,0,0,0,.1.067,1.3,1.3,0,0,1,.5.349.456.456,0,0,0,.07.068.448.448,0,0,0,.275.123.281.281,0,0,1,.1.02c.134.065.048.772.181.837a.7.7,0,0,0,.188.077.706.706,0,0,1,.4.249,3.18,3.18,0,0,0,.209.291.353.353,0,0,1,.24.221c.157,0,.271.126.437.106.025,0,.065.025.085.048a.3.3,0,0,0,.206.078,1.232,1.232,0,0,1,.286.037c.032.143.07.181.215.216a.666.666,0,0,0,.144.02,2.265,2.265,0,0,1,.52.066.5.5,0,0,0,.144.024,1.655,1.655,0,0,1,.5.06l.074.109a.292.292,0,0,1,.253.062.305.305,0,0,0,.232.061,1.184,1.184,0,0,1,.432.052l.526-5.736A1.919,1.919,0,0,1,208.624,225.157Z" transform="translate(-196.565 -205.356)" fill="#fff"/>
                      <path id="Trazado_1226080" data-name="Trazado 1226080" d="M212.1,210.648a.286.286,0,0,0-.182-.132,2.911,2.911,0,0,1-.339-.138.3.3,0,0,0-.313,0,.21.21,0,0,1-.1.039,2.916,2.916,0,0,1-.369,0,.385.385,0,0,0-.283.093,1.234,1.234,0,0,1-.246.193c-.1.042-.119.166-.252.169-.02,0-.045.038-.054.061-.02.051-.028.1-.045.156a.375.375,0,0,1-.044.1c-.042.059-.05-.334-.1-.276a2.977,2.977,0,0,1-.19.27c-.042.043-.1.076-.11.144,0,.021-.037.043-.063.054a.365.365,0,0,0-.124.092.533.533,0,0,1-.446.216c-.03.042-.047.093-.084.111-.082.038-.061-.433-.124-.383-.106.085-.171.217-.349.233-.007.166-.188.264-.2.431,0,.014-.016.03-.03.039a.969.969,0,0,0-.216.28.764.764,0,0,1-.356.339c-.01,0-.015.016-.022.025a.7.7,0,0,0-.034.241c.031.147-.044.3.03.439a.386.386,0,0,0,.048.267l-.077.14a2.042,2.042,0,0,0,.174.135c.116.072.122.071.075.177a.109.109,0,0,0,.023.137c.017.016.03.037.048.052a.144.144,0,0,1,.052.18.111.111,0,0,0,.025.138.056.056,0,0,1,.019.045c-.032.116.068.194.116.286a.307.307,0,0,0,.088.107c.121.086.018.229.117.32.011.011,0,.043-.006.062a.122.122,0,0,0,.034.165.209.209,0,0,1,.053.1.861.861,0,0,1,.074.288.115.115,0,0,0,.041.09.3.3,0,0,1,.1.24.833.833,0,0,0,.188.478.106.106,0,0,1,.025.091c-.055.14.033.2.166.248a.531.531,0,0,1,.07.034.549.549,0,0,0-.009.113c0,.038.032.075.03.112a.261.261,0,0,0,.145.253c.024.015.052.04.055.062a.49.49,0,0,0,.151.227.538.538,0,0,1,.111.241.608.608,0,0,1,.024.13c0,.118.089.175.2.222.034.015.069.025.092.033a1.357,1.357,0,0,1,.171.55.364.364,0,0,0,.042.109.855.855,0,0,1,.1.247,1.71,1.71,0,0,0,.154.629,1.9,1.9,0,0,1,.033.69,1.307,1.307,0,0,0,0,.564l.093.058a.536.536,0,0,1-.066.37c.041.057.072.118.146.132a.378.378,0,0,1,.241.118.568.568,0,0,1,.319.291.18.18,0,0,0,.04.055.412.412,0,0,0,.186.07l1.077-11.737A.285.285,0,0,1,212.1,210.648Z" transform="translate(-198.52 -206.252)" fill="#fff"/>
                    </g>
                    <g id="Grupo_1236530" data-name="Grupo 1236530" transform="translate(17.444 28.172)">
                      <path id="Trazado_1226081" data-name="Trazado 1226081" d="M276.575,227.57a1.412,1.412,0,0,1-.313-.037.482.482,0,0,0-.134-.025.446.446,0,0,1-.377-.139l-.48,0a.225.225,0,0,1-.207-.066.189.189,0,0,0-.155-.057h-.119c-.1,0-.125-.019-.146-.1a.131.131,0,0,0-.1-.107.525.525,0,0,1-.236-.138.358.358,0,0,0-.216-.1.207.207,0,0,1-.1-.039.685.685,0,0,0-.23-.147.065.065,0,0,1-.039-.034.292.292,0,0,0-.237-.194.14.14,0,0,1-.06-.04.574.574,0,0,0-.2-.125.2.2,0,0,1-.153-.155c0-.034-.046-.062-.069-.093a1.23,1.23,0,0,1-.216-.3c-.032-.093-.043-.2-.157-.253-.018-.009-.025-.038-.031-.058a.182.182,0,0,0-.112-.125.189.189,0,0,1-.117-.158.265.265,0,0,0-.051-.139.893.893,0,0,1-.2-.522.3.3,0,0,0-.013-.113.652.652,0,0,1-.066-.367c0-.01-.011-.019-.018-.031l-.049-.021c-.13-.052-.13-.061-.121-.171a2.916,2.916,0,0,0,0-.294c0-.032-.019-.069-.006-.1a.5.5,0,0,0-.015-.353.288.288,0,0,0-.257-.244c0-.051,0-.084,0-.116,0-.055.025-.116,0-.162a.7.7,0,0,1-.03-.242.8.8,0,0,0-.13-.453.228.228,0,0,1-.036-.174.309.309,0,0,0,0-.129.844.844,0,0,1-.03-.293l-.007-.164,0-.162c.006-.119.031-.239-.072-.344-.058-.058-.034-.164-.139-.2,0,0,0-.01-.007-.021.013-.041.029-.088.043-.13a.425.425,0,0,1-.072-.121,1.136,1.136,0,0,1-.03-.455.471.471,0,0,0-.014-.338.248.248,0,0,1-.012-.209.172.172,0,0,0-.016-.143c-.048-.109-.043-.125.05-.2.021-.016.047-.029.08-.049l-.221-.167a.154.154,0,0,0,.032-.224.107.107,0,0,1-.009-.048.554.554,0,0,0-.065-.217.283.283,0,0,1,.018-.328.219.219,0,0,0,.025-.055c-.009-.016-.012-.028-.02-.034-.089-.068-.155-.139-.1-.255.011-.02-.006-.052-.014-.078a.5.5,0,0,0-.139-.208c-.048-.046-.087-.106-.039-.162a.257.257,0,0,0,.043-.2.882.882,0,0,1,.008-.18.617.617,0,0,0-.034-.307.679.679,0,0,1-.056-.239,1.709,1.709,0,0,0-.04-.456c.062-.037.127-.08.1-.146-.043-.1-.043-.215-.13-.3a.351.351,0,0,1-.107-.218.559.559,0,0,0-.08-.179.136.136,0,0,1,.021-.194.155.155,0,0,0,.027-.038,6.04,6.04,0,0,1-.111-.664.061.061,0,0,0-.007-.032.171.171,0,0,1,.012-.187.151.151,0,0,0-.028-.21.108.108,0,0,1-.039-.1.31.31,0,0,0-.118-.262.171.171,0,0,1-.061-.129.346.346,0,0,0-.08-.277c-.017-.016-.016-.051-.021-.077a.318.318,0,0,0-.02-.1.813.813,0,0,1-.089-.38.6.6,0,0,0-.154-.386.231.231,0,0,1-.062-.2l.037-.278a.388.388,0,0,0-.265-.476.543.543,0,0,1-.21-.144.585.585,0,0,0-.276-.222.1.1,0,0,1-.043-.029c-.124-.139-.255-.272-.367-.418a.352.352,0,0,0-.279-.149,2.217,2.217,0,0,0-.266.011.271.271,0,0,1-.2-.03.371.371,0,0,0-.3-.058.268.268,0,0,1-.18-.01l-.059-.148a.13.13,0,0,0-.145-.094.176.176,0,0,1-.194-.106c-.057-.094-.107-.1-.221-.075a.409.409,0,0,1-.137.013.242.242,0,0,0-.293.157l-.153-.054-.13-.051a.574.574,0,0,0-.3,0,.52.52,0,0,1-.211.017.465.465,0,0,0-.106.006l-.212,0a.936.936,0,0,0-.193.016c-.042.011-.073.057-.116.071s-.094,0-.134.014a.871.871,0,0,0-.133.083c-.064.039-.126.08-.194.114a.092.092,0,0,1-.144-.066c-.01-.04.009-.09-.049-.111-.054.016-.065.055-.044.092a.236.236,0,0,1-.076.324.114.114,0,0,0-.03.041c-.059.139-.207.229-.242.38a.043.043,0,0,1-.025.023c-.09.039-.1.116-.116.192,0,.026-.007.066-.025.075-.09.048-.094.132-.124.207a.225.225,0,0,1-.112.142c-.078.034-.1.073-.085.134a.321.321,0,0,0,.04.091.127.127,0,0,1-.007.155l-.094.12a.817.817,0,0,0-.05.093l.118.121c-.007.108-.013.189-.019.27a.54.54,0,0,1,0,.115c-.015.057-.058.111-.06.167s.04.125.043.189c.011.207.022.416.014.623a1.306,1.306,0,0,0,.092.548.285.285,0,0,1,.023.144c-.02.13.031.262-.021.392a.111.111,0,0,0,.008.08.4.4,0,0,1,.016.248.423.423,0,0,1,.154.389c-.01.048-.006.1-.018.147-.021.084-.039.162.06.219.015.009.019.039.02.061a.331.331,0,0,1-.011.114.361.361,0,0,0,.059.344.3.3,0,0,1,.042.123c.015.09,0,.187.075.264s.018.182.071.266a.374.374,0,0,1,.039.157.172.172,0,0,0,.047.121.293.293,0,0,1,.082.276l-.017.163a.161.161,0,0,0,.055.151.138.138,0,0,1,.039.18.248.248,0,0,0,.011.239.669.669,0,0,1,.075.266.151.151,0,0,1-.1.19c-.015.007-.024.025-.039.042a1.74,1.74,0,0,1,.129.2c.057.115.178.22.09.363a.023.023,0,0,0,0,.016c.048.121.034.267.192.332a.425.425,0,0,0,.02.136.231.231,0,0,1,.011.19.119.119,0,0,0,.03.1.14.14,0,0,1,.028.153.687.687,0,0,0-.039.16.122.122,0,0,0,.036.1.192.192,0,0,1,.089.2,3.031,3.031,0,0,1-.03.311.365.365,0,0,0,.027.224c.052.109.053.232.114.34.013.023,0,.054.01.081a.217.217,0,0,0,.022.079.8.8,0,0,1,.1.43.359.359,0,0,0,.237.337c.077.036.093.061.076.13l-.011.031a.357.357,0,0,0,.02.349.114.114,0,0,1,.013.08.219.219,0,0,0,.07.2.1.1,0,0,1,.025.149c-.039.056-.02.1.037.144a.239.239,0,0,1,.041.034.1.1,0,0,1,0,.161l-.077.075c.028.02.044.039.066.045.1.027.1.1.1.172,0,.031-.023.065-.02.1s.013.085.041.1a.517.517,0,0,1,.2.308.15.15,0,0,0,.058.08.311.311,0,0,1,.077.087c.018.028.021.065.042.09a.148.148,0,0,1,.02.185c-.034.061-.011.112.027.169a1.441,1.441,0,0,1,.218.361.469.469,0,0,0,.119.226.134.134,0,0,1-.01.042c-.07.131-.066.149.06.229s.214.173.183.318c0,.01.007.02.013.037l.078.038c.074.039.112.094.089.166-.033.1.03.166.113.224a.847.847,0,0,0,.094.057.124.124,0,0,1,.075.139c-.008.053-.01.108-.016.172.116.043.189.107.124.214a.569.569,0,0,0,.09.074.285.285,0,0,1,.141.164,1.709,1.709,0,0,0,.194.371.307.307,0,0,1,.066.293.177.177,0,0,0,.077.208,2.2,2.2,0,0,1,.253.221c.066.058.107.107.081.184s.006.1.076.131c.127.048.136.183.252.241.011.006.014.03.013.046a.479.479,0,0,0,.253.4c.092.062.093.081.042.167-.017.03-.038.058-.052.089a.072.072,0,0,0,.036.1l.2.113a.707.707,0,0,0-.013.1c0,.027,0,.061.015.079a.993.993,0,0,0,.235.211.712.712,0,0,1,.275.267.277.277,0,0,0,.08.089.466.466,0,0,1,.223.288.327.327,0,0,1,.253.185c.011.027.052.047.084.065a.4.4,0,0,1,.205.21.14.14,0,0,0,.123.093l.135.026a.272.272,0,0,1,.175.117.9.9,0,0,0,.548.344.247.247,0,0,1,.183.107.286.286,0,0,0,.144.107,1.409,1.409,0,0,1,.186.093c.109.068.257.087.348.177.118.01.18.088.261.143a1.983,1.983,0,0,0,.289.146.243.243,0,0,1,.054.022.6.6,0,0,0,.352.133c.021,0,.041.025.063.037l.1.049c.1.048.209.1.317.139a.5.5,0,0,0,.146.051.359.359,0,0,1,.243.1.2.2,0,0,0,.246.05.2.2,0,0,1,.117-.006c.109.029.215.062.321.1a1.393,1.393,0,0,1,.329.121.474.474,0,0,0,.4.069.255.255,0,0,1,.254.064.2.2,0,0,0,.139.052.933.933,0,0,1,.377.059.626.626,0,0,0,.437,0,.251.251,0,0,1,.27.016.165.165,0,0,0,.1.02.4.4,0,0,1,.16.023.384.384,0,0,0,.16.018l.327-.033-.479-5.866C276.791,227.586,276.683,227.571,276.575,227.57Z" transform="translate(-220.326 -208.273)" fill="#fff"/>
                      <path id="Trazado_1226082" data-name="Trazado 1226082" d="M256.925,228.82a.129.129,0,0,1-.006-.081.306.306,0,0,0-.1-.289.112.112,0,0,1-.015-.166.091.091,0,0,0-.019-.135.2.2,0,0,1-.057-.168.889.889,0,0,0-.062-.5.043.043,0,0,1,0-.032.273.273,0,0,0-.027-.16.329.329,0,0,1-.007-.144.433.433,0,0,1,.034-.1c-.025-.066-.049-.123-.065-.18-.022-.085-.037-.172-.054-.257-.01-.048-.036-.1-.023-.145.039-.13-.09-.259,0-.385,0-.006-.006-.02-.011-.03l-.1-.172c-.011-.019-.028-.044-.02-.059.038-.075-.01-.139-.026-.207a.527.527,0,0,1-.021-.162.327.327,0,0,0-.043-.191.215.215,0,0,1-.042-.107.5.5,0,0,0-.035-.241.24.24,0,0,1,0-.146c.034-.114.067-.223-.068-.308a.907.907,0,0,0-.063-.2c-.039-.068-.11-.121-.125-.2l-.015-.065a3.561,3.561,0,0,1-.039-.705c0-.032,0-.063,0-.083l-.307-.123c-.016-.139-.027-.265-.048-.389a2.221,2.221,0,0,1-.028-.376.68.68,0,0,0-.084-.4.123.123,0,0,1-.016-.064.364.364,0,0,0-.067-.168c-.074-.138-.138-.28-.205-.421a.05.05,0,0,1-.006-.032.434.434,0,0,0-.093-.294.225.225,0,0,1-.038-.123.446.446,0,0,0-.136-.348.518.518,0,0,1-.042-.057c0-.109.006-.191,0-.272s-.018-.162-.031-.244a.99.99,0,0,0-.029-.128c-.025-.08-.049-.159-.08-.236a.189.189,0,0,1-.007-.174.1.1,0,0,0-.031-.121c-.027-.03-.064-.052-.089-.083a.322.322,0,0,1-.084-.124.609.609,0,0,0-.107-.339c-.013-.015-.008-.043-.007-.064.006-.1.011-.205.017-.314-.194-.017-.213-.187-.307-.3-.012-.014-.006-.043,0-.063.021-.1.04-.2.054-.272a1.323,1.323,0,0,1-.148-.225,1.274,1.274,0,0,1-.1-.613.174.174,0,0,0-.033-.142.124.124,0,0,1-.011-.14.084.084,0,0,0,0-.075.133.133,0,0,1-.009-.17c.048-.087.006-.147-.066-.2l-.157-.116a.134.134,0,0,1-.057-.116.479.479,0,0,0-.121-.364.169.169,0,0,1-.052-.165.146.146,0,0,0-.1-.178l-.042-.02a.269.269,0,0,1,0-.062.324.324,0,0,0-.072-.339.518.518,0,0,1-.1-.241.456.456,0,0,0-.191-.356c.009-.049.016-.091.025-.143l-.312-.253c-.039-.034-.1-.071-.1-.11-.006-.086-.071-.165-.034-.256a.082.082,0,0,0-.024-.074,1.321,1.321,0,0,0-.391-.294.56.56,0,0,1-.21-.154.787.787,0,0,0-.233-.2.377.377,0,0,1-.132-.132c-.016-.025.007-.069.011-.093l-.181-.125a.326.326,0,0,0-.059-.034l-.329-.146a.253.253,0,0,1-.1-.074.647.647,0,0,0-.356-.244.168.168,0,0,1-.062-.033c-.1-.086-.207-.169-.3-.263a1.526,1.526,0,0,0-.342-.3.149.149,0,0,1-.052-.045,2.59,2.59,0,0,0-.507-.471.4.4,0,0,1-.13-.173.235.235,0,0,0-.14-.142.926.926,0,0,1-.285-.173.321.321,0,0,0-.108-.059l-.54-.2a1.718,1.718,0,0,0-.291-.1,1.515,1.515,0,0,1-.4-.156.414.414,0,0,0-.276-.056.2.2,0,0,1-.186-.048.4.4,0,0,0-.385-.1.41.41,0,0,1-.266-.026.362.362,0,0,0-.125-.022l-.582-.054a.237.237,0,0,1-.089-.019,1.829,1.829,0,0,0-.5-.156,1.365,1.365,0,0,0-.29-.024c-.159,0-.317.009-.476.016a.557.557,0,0,0-.144.018.732.732,0,0,1-.38.013.75.75,0,0,0-.377.023.46.46,0,0,1-.234.008.4.4,0,0,0-.2,0,.729.729,0,0,1-.342.039.583.583,0,0,0-.394.107.828.828,0,0,1-.426.115c-.055,0-.111,0-.165.011a.254.254,0,0,0-.112.045.456.456,0,0,1-.371.1l-.325-.033a.174.174,0,0,0-.035.018.381.381,0,0,1-.289.148c-.021,0-.043.019-.065.027a1.225,1.225,0,0,1-.116.04l-.212.047c-.048.01-.1.018-.143.025l-.273.03a.152.152,0,0,0-.134.075.142.142,0,0,1-.133.073,2.186,2.186,0,0,1-.22,0c-.148-.011-.194.009-.215.135a.112.112,0,0,1-.112.107.612.612,0,0,0-.271.1.3.3,0,0,1-.118.043,1.26,1.26,0,0,0-.352.136.4.4,0,0,1-.226.053.221.221,0,0,0-.137.029c-.088.068-.226.054-.294.148l-.218.03a.247.247,0,0,0-.143.058,1.907,1.907,0,0,1-.385.266,2.226,2.226,0,0,0-.333.169.71.71,0,0,1-.239.115.29.29,0,0,0-.18.125.687.687,0,0,1-.213.192,1.158,1.158,0,0,1-.289.1.182.182,0,0,0-.117.071c-.075.11-.213.179-.251.312,0,.014-.022.026-.035.037l-.178.14c-.018.014-.051.034-.048.044.025.087-.048.109-.107.147a.1.1,0,0,0-.027.089c.018.093-.024.144-.121.173a.227.227,0,0,0-.17.23.922.922,0,0,1-.015.093.291.291,0,0,1-.062.009.208.208,0,0,0-.18.063c-.057.06-.144.1-.144.2a.311.311,0,0,1-.079.212.533.533,0,0,0-.153.291.194.194,0,0,1-.038.089l-.226.235c0,.075-.008.134-.012.194-.109.091-.141.248-.329.276a1.368,1.368,0,0,1,0,.152c-.008.121.039.255-.088.353-.015.011-.011.041-.017.062s-.01.07-.031.092a.161.161,0,0,0-.015.2.1.1,0,0,1,0,.045l-.135.048a.28.28,0,0,1-.02.367.347.347,0,0,0-.1.3.514.514,0,0,1-.066.285.246.246,0,0,1-.18.171.065.065,0,0,0-.057.089,1.1,1.1,0,0,1,.011.471.105.105,0,0,1-.03.075.209.209,0,0,0-.069.164,2.065,2.065,0,0,1-.154.654.129.129,0,0,0-.017.063c.016.188-.085.362-.077.549a1.035,1.035,0,0,0,.01.194.512.512,0,0,1-.034.384c-.035.062-.061.129-.094.2.011.06.059.125.012.187a.689.689,0,0,0-.09.347,1.3,1.3,0,0,1-.052.223.246.246,0,0,0-.02.176.456.456,0,0,1,.014.227l-.029.326a.218.218,0,0,1-.025.094.316.316,0,0,0-.039.222.527.527,0,0,1-.116.4.287.287,0,0,0-.062.168l-.007.1c-.013.117.008.242-.1.336-.022.019-.022.061-.022.093a.53.53,0,0,1-.1.359.093.093,0,0,0,.014.136.225.225,0,0,0,.055.035,3.9,3.9,0,0,0-.057.568c.006.148-.089.271-.087.412a.51.51,0,0,0-.08.332.273.273,0,0,1-.153.275c-.015.007-.022.025-.029.034.011.157.022.31.033.462a.335.335,0,0,1-.017.113,1.673,1.673,0,0,0-.1.514.253.253,0,0,1-.018.08,4.189,4.189,0,0,0-.166.787c-.007.052-.018.1-.084.116a.09.09,0,0,0-.066.107.2.2,0,0,1-.064.165.315.315,0,0,0-.039.076.283.283,0,0,1,.086.278.647.647,0,0,0,.014.228.65.65,0,0,1,0,.416l.117.118c-.024.061-.063.112-.059.162a.42.42,0,0,1-.033.191.133.133,0,0,0,.029.17.15.15,0,0,1,.057.177.323.323,0,0,0,.083.325c.007.006,0,.02,0,.039-.034.031-.076.064-.112.1s-.029.076.007.088c.107.034.138.125.208.184s.072.151.163.2c.015.007.014.04.016.062,0,.038.007.075.009.1l.287.243a.086.086,0,0,1,.027.043c.018.089.1.135.163.2.106.111.281.163.344.307a.048.048,0,0,0,.028.022,1.074,1.074,0,0,1,.283.136.185.185,0,0,0,.093.014,2.058,2.058,0,0,0,.247-.024.385.385,0,0,1,.207.007c.059.02.123.03.185.047a.821.821,0,0,0,.374-.025c.03-.006.057-.041.076-.067l.109-.153a.178.178,0,0,1,.067-.056.473.473,0,0,1,.1-.017l.069-.155c.01-.019.025-.047.043-.05.054-.009.113,0,.166-.013s.065-.084.137-.076l.172.015a1.671,1.671,0,0,0,.192.011.345.345,0,0,1,.218.049.227.227,0,0,0,.282-.01,1.463,1.463,0,0,0,.319-.3.38.38,0,0,1,.276-.228c-.007-.037-.012-.063-.018-.089a.234.234,0,0,1,.062-.259.162.162,0,0,0,.038-.171.191.191,0,0,1,.015-.159.86.86,0,0,0,.12-.392c.027-.25.034-.5.052-.754a.906.906,0,0,1,.038-.158l.04-.141.048-.241c.018-.094.08-.189-.019-.28a.035.035,0,0,1-.011-.03c.025-.082-.034-.15-.065-.219a.446.446,0,0,1-.033-.257l.026-.262a.573.573,0,0,1,.01-.13.38.38,0,0,0-.065-.362.106.106,0,0,1-.006-.125.444.444,0,0,1,.065-.1.356.356,0,0,0,.107-.224c.009-.129.083-.254.027-.387a.124.124,0,0,1,0-.049c0-.1,0-.207,0-.325.064-.1.234-.114.338-.216a.243.243,0,0,1-.073-.333.8.8,0,0,0,.063-.387.34.34,0,0,1,.06-.235.28.28,0,0,0,.04-.107l.091-.5a.35.35,0,0,0-.006-.113,1.5,1.5,0,0,0-.042-.177.2.2,0,0,1,.031-.2.129.129,0,0,0,.027-.107.472.472,0,0,1,.029-.306.685.685,0,0,0,.013-.514.255.255,0,0,1,0-.222.2.2,0,0,0-.019-.234.083.083,0,0,1,0-.121.306.306,0,0,0,.06-.186.527.527,0,0,1,.02-.13,1.623,1.623,0,0,0,.068-.5.185.185,0,0,1,.045-.152.267.267,0,0,0,.074-.276.164.164,0,0,1,.034-.17.2.2,0,0,0,.034-.185c-.02-.152-.021-.305-.029-.458a.218.218,0,0,1,.013-.048l.117-.529a.274.274,0,0,0-.008-.176c-.058-.107-.025-.173.07-.239a.379.379,0,0,0,.162-.3l.006-.115a.167.167,0,0,1,.128-.178c.08-.028.091-.062.07-.13-.015-.047-.037-.093-.056-.139a.259.259,0,0,0,.083-.2.222.222,0,0,1,.061-.184.112.112,0,0,0,.027-.059.629.629,0,0,1,.224-.326.768.768,0,0,0,.171-.228.255.255,0,0,1,.126-.13c.071-.035.162-.079.163-.165a.281.281,0,0,1,.144-.233.471.471,0,0,0,.089-.083.244.244,0,0,0,.053-.081.631.631,0,0,0,.043-.208c-.016-.212.191-.3.293-.45a.136.136,0,0,1,.082-.032.358.358,0,0,0,.22-.114.338.338,0,0,1,.206-.1.46.46,0,0,0,.279-.148.244.244,0,0,1,.192-.084c.1,0,.148-.043.156-.126a.163.163,0,0,1,.158-.137.415.415,0,0,0,.283-.127c.022-.022.066-.026.1-.04a.187.187,0,0,0,.075-.043.223.223,0,0,1,.289-.071.229.229,0,0,0,.237-.046l.066-.063.185.009c.037,0,.085,0,.108-.013a.431.431,0,0,1,.333-.058.14.14,0,0,0,.055-.008.349.349,0,0,1,.216,0,.268.268,0,0,0,.209-.035.726.726,0,0,1,.243-.068c.121-.013.246-.011.369-.012a.544.544,0,0,1,.147.013.54.54,0,0,0,.291,0,.638.638,0,0,1,.164-.011c.056,0,.112.01.166.008a2.564,2.564,0,0,1,.733.089,1.727,1.727,0,0,0,.458.049l.112,0a.327.327,0,0,1,.187.061c.132.089.265.177.4.259a.578.578,0,0,0,.308.1.187.187,0,0,1,.052.011.8.8,0,0,0,.156.157,2.485,2.485,0,0,0,.458.216.478.478,0,0,1,.312.227c.029.052.091.09.124.143a.243.243,0,0,0,.151.114.831.831,0,0,1,.419.312.286.286,0,0,0,.13.107.437.437,0,0,1,.278.292.445.445,0,0,0,.219.251.507.507,0,0,1,.114.1c.045.052.084.107.126.161a.948.948,0,0,1,.11.152c.044.1.075.194.112.292-.069.12.1.179.094.284a.119.119,0,0,0,.011.048.806.806,0,0,0,.033.094,1.783,1.783,0,0,1,.213.428.092.092,0,0,0,.027.043.6.6,0,0,1,.1.212c.066.158.145.312.22.467.1.071.084.166.063.257a.3.3,0,0,0,.028.214c.065.04.152.066.185.148.045.107.094.212.147.317s.072.225.18.3a.193.193,0,0,1,.079.206.46.46,0,0,0,.015.244.392.392,0,0,1,.038.289.326.326,0,0,1,.179.291.22.22,0,0,0,.027.1.2.2,0,0,1,0,.215.254.254,0,0,1,.076.28.281.281,0,0,0,0,.178c.03.088.061.176.1.276-.011.034-.028.081-.044.128a.1.1,0,0,0,.049.143.142.142,0,0,1,.08.139.461.461,0,0,0,.021.13.174.174,0,0,0,.064.093.11.11,0,0,1,.056.156l-.089.236a.337.337,0,0,1,.171.316.812.812,0,0,0,.016.148,1.311,1.311,0,0,0,.062.205,1.856,1.856,0,0,1,.13.462c.009.063-.013.134.078.17.012,0,.02.029.02.043-.007.186.021.371.031.556.011.207-.025.415-.024.622,0,.11-.025.234.1.319a.081.081,0,0,1,.03.074.294.294,0,0,0,.045.279c.009.011,0,.032,0,.048a.369.369,0,0,0,.052.2.512.512,0,0,1,.085.4.22.22,0,0,0,.029.2.188.188,0,0,1,.015.221.452.452,0,0,0-.077.266.475.475,0,0,1-.034.144.216.216,0,0,0,.086.307.375.375,0,0,0-.1.2.191.191,0,0,0,.041.038.24.24,0,0,1,.146.321.19.19,0,0,0,0,.128.349.349,0,0,1,.008.194.876.876,0,0,0,.03.471.234.234,0,0,1,0,.194.539.539,0,0,0-.039.322.281.281,0,0,1-.074.263.12.12,0,0,0-.031.09c.01.108.028.216.042.317.056.056.156.054.172.1l-.038.317a1.638,1.638,0,0,1-.038.209.1.1,0,0,0,.055.142.137.137,0,0,1,.073.21.3.3,0,0,0,.012.3c.048.085.122.187.047.3a.057.057,0,0,0,0,.048.642.642,0,0,0,.065.153.822.822,0,0,0,.125.117.567.567,0,0,1-.006.065l-.029.112c-.03.107.034.183.166.185a.337.337,0,0,1,.356.2.226.226,0,0,0,.121.125l.225.1c.017-.008.04-.013.05-.025a.261.261,0,0,1,.213-.094.48.48,0,0,0,.2-.055.33.33,0,0,1,.344,0c.154.081.34.1.5.184a.13.13,0,0,0,.057.011l.668,0a.052.052,0,0,0,.02,0,.7.7,0,0,1,.437-.017c.011,0,.024-.008.046-.016a.42.42,0,0,1,.293-.235.248.248,0,0,0,.074-.048l.172-.154c.026-.024.08-.047.078-.068-.006-.07.053-.094.1-.132a.187.187,0,0,0,.066-.079.292.292,0,0,1,.216-.2c-.036-.234.142-.407.213-.608a.039.039,0,0,1,.01-.014.642.642,0,0,0,.175-.315.4.4,0,0,1,.108-.224.591.591,0,0,0,.16-.308,2.209,2.209,0,0,0,.013-.36.253.253,0,0,1,.1-.237.093.093,0,0,0,.04-.117.833.833,0,0,1,0-.419C256.941,229.093,257.014,228.96,256.925,228.82Z" transform="translate(-214.425 -208.283)" fill="#fff"/>
                      <path id="Trazado_1226083" data-name="Trazado 1226083" d="M225.509,210.724a.219.219,0,0,1-.128-.253.649.649,0,0,0,.022-.145.45.45,0,0,1,.078-.321.584.584,0,0,0-.034-.1c-.046-.081-.124-.151-.109-.253,0-.016-.021-.041-.04-.053-.154-.1-.129-.294-.266-.405a.055.055,0,0,1-.009-.048.227.227,0,0,0-.108-.232.248.248,0,0,1-.069-.078.677.677,0,0,0-.216-.223c-.027-.021-.069-.043-.073-.069-.011-.07-.082-.078-.126-.113a1.17,1.17,0,0,0-.149-.122.311.311,0,0,0-.267-.012.7.7,0,0,0-.1.055,1.265,1.265,0,0,1-.292-.139.666.666,0,0,0-.459-.127,1.475,1.475,0,0,0-.418.048.4.4,0,0,0-.329.275c0,.016-.016.03-.019.046a.174.174,0,0,1-.148.13c-.064.016-.132.023-.2.034a4.08,4.08,0,0,1-.627.566c-.03.074-.054.14-.085.2a.156.156,0,0,1-.158.093.2.2,0,0,0-.185.086.508.508,0,0,1-.107.087c-.023.017-.054.03-.069.052l-.171.265c.012.048.024.1.037.146-.136.106-.145.262-.193.4a1.423,1.423,0,0,0-.03.389.911.911,0,0,1-.014.2.305.305,0,0,0,.039.3.408.408,0,0,0-.132.379v.1a.2.2,0,0,1-.073.177.227.227,0,0,0-.1.2c0,.03-.019.062-.025.094a.191.191,0,0,0-.007.1.419.419,0,0,1-.075.358.32.32,0,0,0-.055.28.089.089,0,0,1-.022.088.447.447,0,0,0-.186.256.736.736,0,0,0-.063.615s0,.011-.006.029a.345.345,0,0,0-.175.3.742.742,0,0,1-.08.3c-.034.067-.066.135-.107.2a.279.279,0,0,0,.016.351c-.177.047-.108.185-.157.286a5.633,5.633,0,0,0-.144.544c-.076.322-.178.749-.28,1.176s-.2.854-.279,1.176c-.04.161-.073.294-.1.39a.867.867,0,0,1-.046.153c-.007.02-.016.032-.013.041.039.125-.016.209-.139.272a.176.176,0,0,0-.1.182.226.226,0,0,1-.047.2.29.29,0,0,0-.075.276c0,.044.011.09-.031.122a.174.174,0,0,0-.062.164.348.348,0,0,1-.043.207c-.035.056-.061.117-.1.184a.14.14,0,0,0-.139.166.2.2,0,0,1,0,.066.224.224,0,0,1-.046.1.654.654,0,0,0-.2.43.186.186,0,0,1-.038.106.291.291,0,0,0-.071.2c0,.084-.055.164-.057.252a.059.059,0,0,1-.028.04c-.116.066-.117.171-.112.28a.213.213,0,0,0-.127.22.658.658,0,0,1-.024.194.118.118,0,0,1-.033.075.228.228,0,0,0-.106.2c0,.029-.028.059-.048.085a.5.5,0,0,1-.283.2.231.231,0,0,0-.191.214l-.013.065a.687.687,0,0,1-.345.477c-.042.025-.085.047-.125.073a.494.494,0,0,0-.092.078.373.373,0,0,0-.109.335c-.042.015-.078.025-.11.039a.272.272,0,0,0-.18.172.293.293,0,0,1-.184.2.216.216,0,0,0-.123.116.64.64,0,0,1-.317.263.252.252,0,0,1-.158.039.183.183,0,0,0-.154.047.233.233,0,0,1-.21.043c-.075-.012-.152-.018-.227-.026a.2.2,0,0,0-.185.061.8.8,0,0,1-.276.187.828.828,0,0,0-.231.162c-.06.066-.3-.1-.4-.1-.23.018-.223-.306-.365-.132-.021.026-.053.045-.078.07a.2.2,0,0,1-.185.057,1.223,1.223,0,0,0-.379.007,1.722,1.722,0,0,1-.389.021l-.534,5.824a.725.725,0,0,1,.092.025.433.433,0,0,0,.13.03l.576.04a1.861,1.861,0,0,1,.3.04.246.246,0,0,0,.2-.015.754.754,0,0,1,.429-.041.112.112,0,0,1,.064.033.336.336,0,0,0,.265.075c.089,0,.179-.015.268-.011a.808.808,0,0,0,.3-.044.49.49,0,0,1,.368-.025.165.165,0,0,0,.112,0,.362.362,0,0,1,.225.006l.214.047a.407.407,0,0,1,.4-.089.218.218,0,0,0,.076,0,.51.51,0,0,0,.371-.169.439.439,0,0,1,.4-.194c.034-.035.056-.082.089-.088a.84.84,0,0,0,.364-.2.354.354,0,0,1,.14-.08.211.211,0,0,0,.174-.153.446.446,0,0,1,.4-.276.366.366,0,0,0,.191-.06,1.3,1.3,0,0,1,.366-.222c.032-.01.052-.045.079-.068a.863.863,0,0,1,.382-.229,1.015,1.015,0,0,0,.384-.229c.1-.08.238-.145.28-.276.008-.027.052-.045.08-.066l.266-.207c.018-.015.048-.03.049-.047.012-.093.1-.132.166-.19l.1-.094c.057-.057.109-.118.169-.173s.138-.087.174-.146a.484.484,0,0,1,.208-.18.132.132,0,0,0,.066-.075.62.62,0,0,1,.182-.28.227.227,0,0,0,.07-.113c.01-.1.077-.141.171-.175a.21.21,0,0,0,.145-.137.3.3,0,0,1,.173-.185.624.624,0,0,0,.279-.232.2.2,0,0,1,.1-.075.456.456,0,0,0,.285-.286c.01-.025.021-.059.044-.069.079-.034.08-.093.075-.154a.432.432,0,0,1,.08-.231,1.814,1.814,0,0,1,.1-.154l.178-.266a.638.638,0,0,0,.109-.307c.014-.177.034-.369.273-.434.041-.129.048-.26.192-.331a.141.141,0,0,0,.051-.067.162.162,0,0,1,.1-.09.138.138,0,0,0,.107-.139.136.136,0,0,1,.1-.127.342.342,0,0,0,.065-.039c.035-.179.066-.335.1-.49a.8.8,0,0,0,.028-.144.282.282,0,0,1,.109-.233.231.231,0,0,0,.1-.218.133.133,0,0,1,.028-.107.165.165,0,0,0,.06-.162.174.174,0,0,1,.029-.092c.02-.039.048-.075.07-.115a.378.378,0,0,0,.062-.34.1.1,0,0,1,.016-.123.22.22,0,0,0,.057-.168.256.256,0,0,1,.009-.1.289.289,0,0,0,.019-.239.108.108,0,0,1,.063-.141.175.175,0,0,0,.094-.134c.011-.037.021-.074.031-.106a.256.256,0,0,1,.034-.025.305.305,0,0,0,.2-.288,1.239,1.239,0,0,1,.063-.254l.049-.173.091-.317a.317.317,0,0,1,.13-.219.608.608,0,0,1-.081-.172c-.008-.1.683-3.581.727-3.681a.216.216,0,0,0,.029-.094.556.556,0,0,1,.052-.262c-.113-.129-.117-.131-.034-.252a.328.328,0,0,0,.094-.271.114.114,0,0,1,.025-.077c.089-.13.024-.3.121-.423.01-.013-.009-.042-.011-.063a.258.258,0,0,1,.072-.259.141.141,0,0,0,.035-.1l-.028-.441a.231.231,0,0,1,.032-.141.323.323,0,0,0,.016-.386.992.992,0,0,1-.071-.153.689.689,0,0,1,.01-.356c0-.017.031-.032.048-.047a.231.231,0,0,0,.078-.335.538.538,0,0,1-.061-.222c0-.084-.048-.161-.059-.238a.71.71,0,0,1,.062-.252.11.11,0,0,0,0-.033.46.46,0,0,1,.052-.206,1.163,1.163,0,0,0,.152-.4.137.137,0,0,1,.056-.1c.109-.075.1-.18.1-.284A.1.1,0,0,0,225.509,210.724Z" transform="translate(-210.929 -208.081)" fill="#fff"/>
                      <path id="Trazado_1226084" data-name="Trazado 1226084" d="M249.918,221.39c-.154,0-.239-.075-.23-.213l.006-.148a.124.124,0,0,0-.015-.043l-.125-.087a2.732,2.732,0,0,0,.068-.282,1.864,1.864,0,0,0,.007-.262.487.487,0,0,0-.011-.1.125.125,0,0,0-.112-.1l-.093-.007-.57-.09a.444.444,0,0,1-.085-.034.45.45,0,0,0-.1-.039,1.031,1.031,0,0,1-.277-.1.477.477,0,0,0-.209-.061.39.39,0,0,1-.312-.124.544.544,0,0,0-.232-.128,1.09,1.09,0,0,1-.393-.217,1.059,1.059,0,0,0-.368-.22c-.08-.024-.143-.07-.133-.158.006-.055-.031-.09-.077-.124a.361.361,0,0,0-.24-.073.351.351,0,0,1-.322-.131.486.486,0,0,0-.237-.157.722.722,0,0,1-.4-.274c-.075-.006-.155.008-.2-.063-.007-.01-.034-.012-.052-.014a1.665,1.665,0,0,0-.221-.011.7.7,0,0,0-.407.09.257.257,0,0,1-.135.048.184.184,0,0,0-.164.115.264.264,0,0,1-.075.11.3.3,0,0,0-.1.122,1.232,1.232,0,0,0-.194.1c-.064.05-.106.123-.173.168a1.341,1.341,0,0,1-.226.1c-.039.155-.039.156-.183.257-.048.033-.1.058-.153.088a.181.181,0,0,0-.057.039,2.743,2.743,0,0,1-.4.378c-.048.048-.091.085-.08.153a.43.43,0,0,1,0,.084l-.3.2a.125.125,0,0,0-.071.125.225.225,0,0,1-.074.194,1.024,1.024,0,0,0-.1.157c-.03.047-.05.112-.1.135-.116.057-.089.128-.056.21a.4.4,0,0,1,.015.081l-.123.08c-.121.085-.3.116-.352.267a.026.026,0,0,1-.013.011.88.88,0,0,0-.315.244.166.166,0,0,0-.128.208.091.091,0,0,1-.008.048c-.082.181-.058.388-.171.563a.241.241,0,0,0-.026.144.485.485,0,0,1-.038.256.207.207,0,0,0,.1.276l.047.029c.091.048.1.1.029.175a.2.2,0,0,0-.073.159l.137.121c-.019.059-.059.113-.043.149a2.056,2.056,0,0,1,.05.22.491.491,0,0,1,.016.243.251.251,0,0,0,0,.082c.014.089.066.129.168.107a.211.211,0,0,1,.189.048l.182.142c-.011.055-.022.107-.034.164a.453.453,0,0,1,.262.348.834.834,0,0,0,.236.46.213.213,0,0,1,.056.1,3.025,3.025,0,0,1,.067.339.249.249,0,0,0,.083.178.161.161,0,0,1,.045.167.332.332,0,0,0,.03.175.139.139,0,0,0,.133.1c.063,0,.075.056.075.1a.222.222,0,0,0,.1.2.7.7,0,0,1,.121.146l.142.174a1.56,1.56,0,0,1,.221.286c.05.107.166.184.176.306,0,.017.033.033.048.049.037.038.077.075.109.115a.193.193,0,0,1,.041.23.486.486,0,0,0-.033.085c.073.082.133.162.206.23a.458.458,0,0,1,.15.279.205.205,0,0,0,.078.147.175.175,0,0,1,.071.192.312.312,0,0,0,.217.352.232.232,0,0,1,.038.025l.074.226a.249.249,0,0,1,.026.112.508.508,0,0,0,.057.3c.085.216.135.246.408.224a.428.428,0,0,1,.366.109.248.248,0,0,0,.188.068c.108,0,.217.009.326,0a.276.276,0,0,0,.116-.045c.126-.07.143-.219.275-.287.057-.156.216-.282.18-.466,0-.023.018-.051.032-.075.062-.107.061-.236.162-.328-.009-.085.048-.141.111-.2.021-.018.024-.05.039-.074a.659.659,0,0,1,.125-.2c.088-.073.074-.172.126-.252s.143-.139.158-.239a.2.2,0,0,1,.035-.093,1.87,1.87,0,0,1,.133-.135c.046-.047.008-.118.072-.163a.191.191,0,0,0,.069-.212.2.2,0,0,1,.029-.14,2.663,2.663,0,0,1,.279-.347.41.41,0,0,0,.112-.3.323.323,0,0,1,.08-.279.181.181,0,0,0,.042-.121.293.293,0,0,1,.114-.257,1.474,1.474,0,0,1,0-.189.739.739,0,0,1,.046-.176.266.266,0,0,0-.015-.253.178.178,0,0,1,.008-.189,3.967,3.967,0,0,1,.31-.46.132.132,0,0,0,.032-.136.273.273,0,0,1,.035-.221.307.307,0,0,1,.149-.142c.074-.037.112-.084.088-.162a.254.254,0,0,1,.107-.294,2.364,2.364,0,0,1,.2-.14c.084-.05.065-.152.145-.2a.708.708,0,0,0,.085-.076.372.372,0,0,0-.017-.057c-.062-.126-.062-.127.072-.2.071-.042.127-.089.112-.173a.161.161,0,0,1,.126-.191c0-.089,0-.17.007-.253l.154-.071a.41.41,0,0,1,.116-.271.176.176,0,0,0,.043-.107.418.418,0,0,1,.177-.262.513.513,0,0,1,.132-.092c.134-.06.131-.184.153-.281a.636.636,0,0,0-.042-.29C250.135,221.418,250.075,221.386,249.918,221.39Z" transform="translate(-216.297 -209.891)" fill="#fff"/>
                      <path id="Trazado_1226085" data-name="Trazado 1226085" d="M212.335,222.7a.6.6,0,0,1,.3-.214.138.138,0,0,0,.107-.125c0-.05-.081.235-.1.136a.357.357,0,0,0,.185-.183.22.22,0,0,1,.244-.114.924.924,0,0,0,.1,0c.049-.109.169-.181.164-.314,0-.023.027-.049.047-.07.082-.086.187-.157.206-.284a.155.155,0,0,1,.1-.091.166.166,0,0,0,.129-.148c.01-.066.012-.132.019-.2l.112-.056a1.323,1.323,0,0,0,.144-.076.111.111,0,0,0,.017-.189c-.031-.033-.067-.061-.106-.1.074-.027.08-.08.093-.129a.246.246,0,0,1,.138-.188.093.093,0,0,0,.053-.1.28.28,0,0,1,.081-.233.177.177,0,0,0,.036-.093.429.429,0,0,1,.063-.136c.072-.127.21-.223.225-.378,0-.02.025-.037.04-.055l.25-.311a.161.161,0,0,0,.042-.074c.007-.06.017-.1.1-.114a.167.167,0,0,0,.11-.145c0-.044.008-.088.011-.127a.379.379,0,0,0,.225-.26c.018-.1.048-.208.058-.314s.014-.178.111-.235c.022-.013.028-.048.041-.072l.049-.087a1.823,1.823,0,0,0,.111-.209.16.16,0,0,1,.083-.1.135.135,0,0,0,.082-.17.148.148,0,0,1,.054-.153c.057-.046.051-.111.075-.166s.113-.07.124-.139a.051.051,0,0,1,.006-.016c.042-.09.129-.163.13-.271,0-.019.027-.036.04-.055a.586.586,0,0,0,.146-.248c0-.02.025-.037.041-.054a.51.51,0,0,1,.224-.148c.009-.109.018-.215.027-.321a.393.393,0,0,1,.071-.222.563.563,0,0,0,.126-.327.19.19,0,0,1,.045-.122.239.239,0,0,0,.071-.216,1.039,1.039,0,0,1,.007-.167c0-.043.007-.088.011-.128-.2-.117-.426-.184-.474-.422a.178.178,0,0,0,.055-.293.391.391,0,0,1-.038-.129.136.136,0,0,0-.109-.1c-.066-.015-.134-.027-.2-.035a.475.475,0,0,1-.3-.154l-.2-.207a.61.61,0,0,0-.137-.115,1.266,1.266,0,0,0-.426-.207c-.021,0-.039-.026-.06-.039a1.627,1.627,0,0,0-.142-.081.288.288,0,0,1-.177-.165.141.141,0,0,0-.144-.09.453.453,0,0,0-.075,0,.3.3,0,0,1-.312-.143.3.3,0,0,0-.116-.107,2.032,2.032,0,0,1-.389-.262.5.5,0,0,1-.117-.13.537.537,0,0,0-.217-.183l-.311-.168a.319.319,0,0,0-.239-.291.425.425,0,0,1-.039-.02l-1.077,11.733a.345.345,0,0,0,.078.009C212.148,222.771,212.261,222.794,212.335,222.7Z" transform="translate(-211.116 -208.613)" fill="#fff"/>
                      <path id="Trazado_1226086" data-name="Trazado 1226086" d="M277.586,213.155a.47.47,0,0,0-.368.112.249.249,0,0,1-.154.064c-.046,0-.092.01-.138.016-.135.015-.15.03-.184.157a.573.573,0,0,1-.217.345.306.306,0,0,0-.094.116,1.58,1.58,0,0,1-.266.4.479.479,0,0,0-.17.313.139.139,0,0,1-.053.1.531.531,0,0,0-.165.247c-.012.025-.017.06-.038.073-.089.057-.1.145-.123.23-.029.1-.065.138-.173.135a.269.269,0,0,0-.207.081c-.077.078-.2.1-.263.192-.164.074-.259.223-.409.313a.075.075,0,0,0-.016.073.1.1,0,0,0,.061.048c.039.009.084,0,.12.009a.117.117,0,0,1,.062.071c.012.043-.034.048-.068.059-.008,0-.012.016-.022.033l.1.065a.292.292,0,0,0-.056.341.3.3,0,0,1,.014.1l.029.41a.379.379,0,0,0,.066.267c.013.014.011.042.012.063a.318.318,0,0,0,.079.213.184.184,0,0,1,.033.09c.028.168.06.192.246.183a.38.38,0,0,1,.06.007.247.247,0,0,0,.148.131.284.284,0,0,1,.173.16.921.921,0,0,1,.058.255.512.512,0,0,0,.061.217.527.527,0,0,1,.087.44c-.025.068.017.128.08.171l.1.061a.181.181,0,0,0,.057.235.384.384,0,0,1,.072.131.679.679,0,0,0,.069.133.208.208,0,0,1,.054.2c-.047.148.15.221.125.361,0,.02.028.046.044.069a.044.044,0,0,0,.013.011.133.133,0,0,1,.066.144.118.118,0,0,0,.061.13.389.389,0,0,1,.17.225.9.9,0,0,1,.051.223c.016.108.039.215.063.322a.083.083,0,0,0,.038.052.108.108,0,0,1,.064.125.106.106,0,0,0,.028.076.283.283,0,0,1,.05.235.384.384,0,0,0,.078.281.413.413,0,0,1,.074.166.371.371,0,0,0,.254.33c.007.107.01.206.023.3a.382.382,0,0,1-.038.3.084.084,0,0,0,.027.132c.059.03.065.072.08.121a.922.922,0,0,0,.081.164c.027.049.061.1.086.144a.246.246,0,0,0,.162.149.953.953,0,0,1,.305.157.229.229,0,0,1,.122.174.212.212,0,0,0,.059.1c.025.03.066.052.085.084a.2.2,0,0,0,.188.092l.07,0-.957-11.723A.693.693,0,0,1,277.586,213.155Z" transform="translate(-222.38 -208.993)" fill="#fff"/>
                    </g>
                    <g id="Grupo_1236531" data-name="Grupo 1236531" transform="translate(72.773 27.836)">
                      <path id="Trazado_1226087" data-name="Trazado 1226087" d="M288.875,213.746a.293.293,0,0,0-.01-.191c-.03-.077-.057-.156-.094-.23a1.044,1.044,0,0,1-.079-.216c-.048-.192-.106-.382-.159-.572a.819.819,0,0,1-.035-.144.23.23,0,0,0-.113-.189.28.28,0,0,1-.047-.047.32.32,0,0,1,.006-.065.58.58,0,0,0-.05-.482,1.337,1.337,0,0,1-.141-.37,1.135,1.135,0,0,0-.056-.155l-.066-.169c-.03-.082-.062-.165-.088-.248a.791.791,0,0,1-.053-.222.776.776,0,0,0-.08-.326l-.132-.088c-.04-.11.064-.11.067-.181a.463.463,0,0,1-.037-.14,1.18,1.18,0,0,0-.093-.446.388.388,0,0,0-.2-.273c-.054-.024-.068-.07-.061-.134,0-.016.009-.029.011-.044a.208.208,0,0,0-.153-.249.229.229,0,0,1-.13-.081.309.309,0,0,0-.241-.13c-.067,0-.131-.062-.188-.119a.13.13,0,0,1-.02-.061c0-.027,0-.055,0-.081a.469.469,0,0,0-.117-.244c-.052-.049-.1-.013-.154.009a.161.161,0,0,1-.181-.027.154.154,0,0,0-.132-.045.065.065,0,0,1-.049-.007.233.233,0,0,0-.174-.018.446.446,0,0,1-.28-.058.21.21,0,0,0-.18-.021.318.318,0,0,1-.107.031c-.148-.013-.28.075-.431.044a.586.586,0,0,0-.161.011.2.2,0,0,0-.015.034c-.012.124-.011.129-.1.148a.124.124,0,0,0-.107.107,1,1,0,0,0-.027.108.13.13,0,0,1-.06.1.278.278,0,0,0-.128.266.183.183,0,0,1-.049.148.427.427,0,0,0-.1.267.182.182,0,0,1-.036.1.3.3,0,0,0-.06.26.248.248,0,0,1-.058.212.916.916,0,0,0-.087.134.453.453,0,0,1-.062.111.39.39,0,0,1-.12.052c.1.167.194.33.023.486a.369.369,0,0,1-.006.29.38.38,0,0,0,0,.114c0,.037.007.075.01.114l-.127.07a.337.337,0,0,0,.006.216,1.661,1.661,0,0,1,.039.751.207.207,0,0,0,.021.108.573.573,0,0,0,.05.088.229.229,0,0,0-.058.217,1.964,1.964,0,0,1,.031.194.253.253,0,0,1-.006.127.258.258,0,0,0-.015.176l.03.212a1.093,1.093,0,0,0,.079.353.345.345,0,0,1,.016.129c.007.11.006.22.018.329l.06.376a.3.3,0,0,1-.007.162c-.043.083-.043.183-.124.252a.094.094,0,0,0,0,.124c.014.023.042.039.055.061a.582.582,0,0,1,.1.219,1.076,1.076,0,0,0,.04.239.888.888,0,0,0,.06.238.161.161,0,0,1,.006.143l-.048.142a.157.157,0,0,0,.017.173.653.653,0,0,1,.108.284c-.038.069-.12.114-.087.2l.139.09c-.022.063-.043.12-.062.174a.423.423,0,0,0,.033.046l.039.032c.065.07.072.107.006.187s-.043.159-.055.239c-.007.054.038.089.078.122a.27.27,0,0,1,.04.057.287.287,0,0,0,.013.269,1.491,1.491,0,0,1,.075.27.554.554,0,0,0,.034.161.277.277,0,0,1,0,.285.2.2,0,0,0-.009.032.187.187,0,0,0,.037.216.138.138,0,0,1,.035.1.545.545,0,0,0,.086.331.166.166,0,0,1,.025.158.291.291,0,0,0,.022.292c-.022.062-.043.115-.058.168a1.075,1.075,0,0,0,.014.59c.014.05.027.1-.017.141-.1.093-.061.177.012.252a.824.824,0,0,1,.184.4.15.15,0,0,1-.058.182.1.1,0,0,0-.031.137.531.531,0,0,1,.088.411c0,.027.007.055,0,.083a1.084,1.084,0,0,1-.046.412.4.4,0,0,0-.039.229c.01.086-.034.176.011.262.01.018-.007.057-.026.076a.2.2,0,0,0-.048.206.159.159,0,0,1-.049.186.136.136,0,0,0-.04.092.357.357,0,0,0,.039.241.214.214,0,0,1,.014.223,1.233,1.233,0,0,1-.059.162.216.216,0,0,0,0,.266.149.149,0,0,1,.018.063.158.158,0,0,1-.069.2.144.144,0,0,0-.066.1.806.806,0,0,1-.046.325c-.011.023,0,.054.011.08l.035.128a.156.156,0,0,1-.029.158.938.938,0,0,0-.165.39.685.685,0,0,1-.154.372.273.273,0,0,0-.092.164.153.153,0,0,1-.11.134.363.363,0,0,0-.224.192.392.392,0,0,0-.308.148.523.523,0,0,1-.061.046.4.4,0,0,1-.317.091.387.387,0,0,0-.3.068.3.3,0,0,1-.3.033.3.3,0,0,0-.415.086l-.024.027a.209.209,0,0,1-.174.071,4.055,4.055,0,0,0-.622.036,1.319,1.319,0,0,1-.261,0,.917.917,0,0,0-.377.033.7.7,0,0,1-.316.023l-.091-.008.481,5.9.367-.036a.19.19,0,0,1,.081,0,.44.44,0,0,0,.207.007,1.322,1.322,0,0,1,.377,0,.36.36,0,0,0,.346-.083.289.289,0,0,1,.228-.075.27.27,0,0,0,.208-.061.377.377,0,0,1,.411,0v-.093c.162-.072.2-.089.307-.074a.547.547,0,0,0,.457-.1c.068-.056.1-.045.2.017a.214.214,0,0,1,.225-.122h.433a1.03,1.03,0,0,0,.138-.021l.028-.116.373-.109c.071-.13.07-.134.227-.172.07-.017.124-.04.143-.093.034-.093.124-.134.231-.169.028-.009.071-.009.083-.024a.465.465,0,0,1,.318-.111c.034-.006.094-.025.1-.037,0-.088.13-.093.175-.153a.187.187,0,0,1,.155-.059c.043,0,.087-.008.114-.011.069-.071.112-.148.188-.187.145-.075.239-.2.412-.243a.107.107,0,0,0,.052-.052.545.545,0,0,1,.3-.243c.075-.028.157-.055.189-.118a.257.257,0,0,1,.175-.126c.157-.044.224-.128.22-.248,0-.009.015-.019.025-.032a.181.181,0,0,1,.056-.02.3.3,0,0,0,.231-.136c.066-.087.152-.167.212-.255a.277.277,0,0,1,.172-.11c.162-.045.2-.084.193-.2a.219.219,0,0,1,.145-.222.338.338,0,0,0,.177-.179.2.2,0,0,1,.08-.082.231.231,0,0,0,.141-.208.229.229,0,0,1,.111-.184l.219-.184c.071-.057.1-.118.072-.186a.184.184,0,0,1,.043-.194c.049-.065.11-.125.162-.189a.351.351,0,0,0,.051-.092,1.151,1.151,0,0,0,.04-.131.579.579,0,0,0,.039-.18c-.007-.092.031-.148.143-.2a.353.353,0,0,0,.062-.039c.011-.056.022-.1.027-.145,0-.025.009-.06-.008-.075-.051-.041-.03-.089-.016-.141a1.025,1.025,0,0,0,.016-.149.378.378,0,0,1,.017-.1c.025-.061.057-.121.084-.179-.006-.014-.006-.027-.015-.034a.261.261,0,0,1-.089-.239.31.31,0,0,1,.14-.266.159.159,0,0,0,.059-.207c-.019-.044-.048-.1-.027-.142a.56.56,0,0,0,.023-.366.277.277,0,0,0-.164-.226.252.252,0,0,1-.092-.1c-.052-.082.025-.149.089-.2-.023-.1-.048-.18-.062-.266a.246.246,0,0,1,0-.165.342.342,0,0,0,.012-.294,2.178,2.178,0,0,1-.067-.339.27.27,0,0,0-.092-.223.115.115,0,0,1-.025-.168.3.3,0,0,0,.019-.247,2.034,2.034,0,0,0-.075-.271.263.263,0,0,1,.05-.273c.076-.1.057-.136-.056-.2a.128.128,0,0,1-.024-.023,1.052,1.052,0,0,1,.089-.259.845.845,0,0,0,.121-.356,1.614,1.614,0,0,0,.012-.581.129.129,0,0,1,0-.05.643.643,0,0,0-.036-.391.1.1,0,0,1,.022-.111c.059-.062.143-.132.108-.208-.047-.1.061-.152.084-.227a.036.036,0,0,0,0-.016c-.017-.14.007-.29-.126-.412l-.057-.011c-.11-.026-.122-.045-.09-.139l.035-.1-.134-.123a1.609,1.609,0,0,1,.006-.294.365.365,0,0,0-.036-.238,1.029,1.029,0,0,1-.075-.483,1.338,1.338,0,0,0-.046-.373c-.034-.132-.1-.257-.139-.389a2.184,2.184,0,0,1-.07-.371.477.477,0,0,0-.042-.191.218.218,0,0,1-.012-.206.245.245,0,0,0-.017-.251.65.65,0,0,1-.047-.157.969.969,0,0,0-.065-.187.584.584,0,0,1-.071-.235,1,1,0,0,0-.084-.3.894.894,0,0,1-.066-.237.958.958,0,0,0-.081-.285.458.458,0,0,1-.049-.172,3.49,3.49,0,0,0-.1-.449.676.676,0,0,1-.1-.342A.465.465,0,0,1,288.875,213.746Z" transform="translate(-278.674 -207.672)" fill="#fff"/>
                      <path id="Trazado_1226088" data-name="Trazado 1226088" d="M279.852,224.4a.2.2,0,0,0,.007-.144.265.265,0,0,0-.036-.086l.052-.242a.562.562,0,0,0,.1-.112c.052-.1.093-.209.244-.234,0,0,.01-.007.013-.011a.681.681,0,0,1,.261-.169.317.317,0,0,0,.193-.285l.039-.393c0-.028,0-.056-.046-.053a.135.135,0,0,0-.016.03c-.007.035,0,.089-.067.073-.054-.012-.045-.059-.036-.1a.07.07,0,0,1,.016-.03.124.124,0,0,0,.017-.141c-.036-.082,0-.139.054-.211a.523.523,0,0,0,.025-.443.021.021,0,0,0-.012-.012c-.067-.033-.056-.089-.057-.143a.445.445,0,0,1,.142-.314c-.021-.052-.039-.1-.056-.146.048-.131.211-.2.188-.352,0,0,.006-.01.01-.014a.248.248,0,0,0,.073-.232l.083-.048c.09-.049.113-.089.1-.175,0-.021-.015-.042-.02-.063a.65.65,0,0,1,.141-.593.529.529,0,0,0,.132-.253.155.155,0,0,1,.046-.088.132.132,0,0,0,.046-.119,1.741,1.741,0,0,1,.016-.293c.021-.118.068-.232.089-.349.018-.1.015-.206.025-.308a.523.523,0,0,1,.029-.111.782.782,0,0,0,.04-.108.164.164,0,0,1,.1-.128.172.172,0,0,0,.123-.168.158.158,0,0,1,.039-.089,1.13,1.13,0,0,0,.18-.509.324.324,0,0,0-.042-.284.076.076,0,0,1-.008-.063.34.34,0,0,0-.042-.206.12.12,0,0,0-.094-.088.753.753,0,0,1-.289-.15.162.162,0,0,1-.066-.071,1.008,1.008,0,0,0-.034-.175.754.754,0,0,0-.132-.145c-.007-.007-.008-.02-.015-.03l-.107-.148a1.576,1.576,0,0,1-.248-.378.73.73,0,0,1-.143-.089.462.462,0,0,0-.185-.115,1.2,1.2,0,0,1-.131-.061.148.148,0,0,0-.048-.182c-.157-.122-.3-.266-.474-.379a.274.274,0,0,1-.064-.054l-.233-.28c-.023-.093-.05-.187-.069-.284a.211.211,0,0,0-.116-.152.329.329,0,0,1-.177-.266.249.249,0,0,0-.14-.213,1.14,1.14,0,0,1-.242-.184l-.221-.207a.161.161,0,0,0-.175-.034.656.656,0,0,0-.1.039.359.359,0,0,1-.139.041l.957,11.723a2.494,2.494,0,0,0,.332-.024A2.246,2.246,0,0,1,279.852,224.4Z" transform="translate(-278.404 -208.627)" fill="#fff"/>
                    </g>
                  </g>
                </g>
                <path id="Trazado_1226090" data-name="Trazado 1226090" d="M245.993,243.709l17.3,8.532a1.013,1.013,0,0,1-.54,1.867l-12.748.08Z" transform="translate(-175.913 -136.849)" fill="#efa5a5"/>
                <path id="Trazado_1226091" data-name="Trazado 1226091" d="M190.358,204.943l-9.621,31.713a8.18,8.18,0,0,0,7.828,10.554h45.485V236.762l-31.818-4.274,7.6-20.9Z" transform="translate(-164.102 -129.871)" fill="#efa5a5"/>
                <path id="Trazado_1226092" data-name="Trazado 1226092" d="M245.339,151.711l-2.157,18.678,4.863,3.445a11.955,11.955,0,0,0,13,.41l3.121-1.887-4.764-22.31Z" transform="translate(-175.407 -119.989)" fill="#efa5a5"/>
                <path id="Trazado_1226093" data-name="Trazado 1226093" d="M263.673,168.879c-6.125,0-21.458-6.756-18.029-17.417l16.517,7.434Z" transform="translate(-175.761 -120.244)" fill="#e09999"/>
                <g id="Grupo_1236539" data-name="Grupo 1236539" transform="translate(62.291 9.18)">
                  <path id="Trazado_1226094" data-name="Trazado 1226094" d="M274.948,147.439s-1.722,2.265-3.189.562" transform="translate(-242.842 -128.7)" fill="none" stroke="#2d2235" stroke-linecap="round" stroke-miterlimit="10" stroke-width="0.76"/>
                  <path id="Trazado_1226095" data-name="Trazado 1226095" d="M263.784,149.4s-1.722,2.265-3.188.562" transform="translate(-240.832 -129.054)" fill="none" stroke="#2d2235" stroke-linecap="round" stroke-miterlimit="10" stroke-width="0.76"/>
                  <path id="Trazado_1226096" data-name="Trazado 1226096" d="M274,142.906c.967,10.106-2.552,14.042-8.983,15.385-9.029,1.885-18.363.937-20.2-9.5s3.294-22.426,12.378-24.025S272.99,132.36,274,142.906Z" transform="translate(-237.925 -124.586)" fill="#efa5a5"/>
                  <g id="Grupo_1236537" data-name="Grupo 1236537" transform="translate(0 15.79)">
                    <g id="Grupo_1236536" data-name="Grupo 1236536">
                      <path id="Trazado_1226097" data-name="Trazado 1226097" d="M236.573,147.532a4.526,4.526,0,1,0,5.283-3.611A4.526,4.526,0,0,0,236.573,147.532Z" transform="translate(-236.494 -143.842)" fill="#efa5a5"/>
                      <g id="Grupo_1236535" data-name="Grupo 1236535" transform="translate(2.485 3.255)">
                        <path id="Trazado_1226098" data-name="Trazado 1226098" d="M239.524,147.85a4.688,4.688,0,0,1,4.46,2.157" transform="translate(-239.524 -147.811)" fill="none" stroke="#2d2235" stroke-linecap="round" stroke-miterlimit="10" stroke-width="0.76"/>
                        <path id="Trazado_1226099" data-name="Trazado 1226099" d="M240.426,149.934s.793-1.264,1.845-1.334" transform="translate(-239.686 -147.953)" fill="none" stroke="#2d2235" stroke-linecap="round" stroke-miterlimit="10" stroke-width="0.76"/>
                      </g>
                    </g>
                  </g>
                  <path id="Trazado_1226100" data-name="Trazado 1226100" d="M276.369,150.722a1.54,1.54,0,0,0-.352,2.121c.5.55.941.021,1.631-.6s1.362-1.1.866-1.65A1.54,1.54,0,0,0,276.369,150.722Z" transform="translate(-243.556 -129.199)" fill="#ffbade"/>
                  <g id="Grupo_1236538" data-name="Grupo 1236538" transform="translate(24.85 18.086)">
                    <path id="Trazado_1226101" data-name="Trazado 1226101" d="M267.4,147.226s-1.425,4.881.107,6.217,1.5-.573,1.5-.573Z" transform="translate(-266.799 -146.747)" fill="#2d2235"/>
                    <path id="Trazado_1226102" data-name="Trazado 1226102" d="M269.162,150.107c.345,1.96.909,3.5.093,3.642s-1.306-1.53-1.651-3.49-.415-3.464.4-3.607S268.817,148.147,269.162,150.107Z" transform="translate(-266.9 -146.642)" fill="#66409b"/>
                  </g>
                  <path id="Trazado_1226103" data-name="Trazado 1226103" d="M257,152.516a1.539,1.539,0,0,1,1.055,1.873c-.278.686-.877.341-1.738-.007s-1.656-.568-1.378-1.255A1.54,1.54,0,0,1,257,152.516Z" transform="translate(-239.805 -129.586)" fill="#ffbade"/>
                  <path id="Trazado_1226104" data-name="Trazado 1226104" d="M275.084,141.638c.456.75-.792.562-2.032,1.314s-2,2.162-2.458,1.411.18-1.97,1.42-2.722S274.629,140.887,275.084,141.638Z" transform="translate(-242.605 -127.554)" fill="#2d2235"/>
                  <path id="Trazado_1226105" data-name="Trazado 1226105" d="M259.645,143.5c-.316.819.878.413,2.232.936s2.352,1.776,2.668.957-.524-1.907-1.877-2.43S259.961,142.679,259.645,143.5Z" transform="translate(-240.652 -127.844)" fill="#2d2235"/>
                  <path id="Trazado_1226106" data-name="Trazado 1226106" d="M274.246,148.124s-1.2,1.676-2.341.168" transform="translate(-242.868 -128.823)" fill="none" stroke="#2d2235" stroke-linecap="round" stroke-miterlimit="10" stroke-width="0.76"/>
                  <path id="Trazado_1226107" data-name="Trazado 1226107" d="M263.567,149.282s-1.2,1.676-2.341.168" transform="translate(-240.946 -129.031)" fill="none" stroke="#2d2235" stroke-linecap="round" stroke-miterlimit="10" stroke-width="0.76"/>
                </g>
                <path id="Trazado_1226108" data-name="Trazado 1226108" d="M245.83,243.746l13.287,8.5a1.013,1.013,0,0,1-.54,1.867l-12.748.08Z" transform="translate(-175.883 -136.855)" fill="#efa5a5"/>
                <line id="L칤nea_3842" data-name="L칤nea 3842" x1="10.134" y1="5.324" transform="translate(73.1 110.068)" fill="none" stroke="#2d2235" stroke-linecap="round" stroke-miterlimit="10" stroke-width="0.637"/>
                <path id="Trazado_1226109" data-name="Trazado 1226109" d="M231.911,173.732l-22.762,1.127-19.491,23.778,28.477,10.507Z" transform="translate(-165.772 -124.253)" fill="#46598e"/>
                <path id="Trazado_1226110" data-name="Trazado 1226110" d="M189.657,204.1l28.477,10.507,3.378-7.655" transform="translate(-165.772 -129.72)" fill="none" stroke="#2d2235" stroke-linecap="round" stroke-miterlimit="10" stroke-width="0.637"/>
                <line id="L칤nea_3843" data-name="L칤nea 3843" x1="6.921" y2="22.531" transform="translate(86.369 79.5)" fill="none" stroke="#2d2235" stroke-linecap="round" stroke-miterlimit="10" stroke-width="0.637"/>
                <path id="Trazado_1226111" data-name="Trazado 1226111" d="M263.118,124.579s-5.021,7.9-10.6,11.467-8.371,3.608-9.6,3.551S240.7,108.152,263.118,124.579Z" transform="translate(-175.264 -114.549)" fill="#2d2235"/>
                <path id="Trazado_1226112" data-name="Trazado 1226112" d="M262.654,158.338c0,.719.933,1.3,2.085,1.3s2.085-.583,2.085-1.3-.933-1.3-2.085-1.3S262.654,157.619,262.654,158.338Z" transform="translate(-178.912 -121.247)" fill="#2d2235"/>
                <path id="Trazado_1226113" data-name="Trazado 1226113" d="M352.948,206.7h0a2.68,2.68,0,0,0,2.68-2.68V159.512a2.68,2.68,0,0,0-2.68-2.68h0a2.68,2.68,0,0,0-2.68,2.68v44.505A2.68,2.68,0,0,0,352.948,206.7Z" transform="translate(-194.682 -121.211)" fill="#66409b"/>
                <path id="Trazado_1226114" data-name="Trazado 1226114" d="M355.122,184.026l6.845-1.9a1.615,1.615,0,0,0,1.125-1.987h0a1.615,1.615,0,0,0-1.987-1.125l-6.845,1.9a1.615,1.615,0,0,0-1.125,1.987h0A1.615,1.615,0,0,0,355.122,184.026Z" transform="translate(-195.188 -125.194)" fill="#efa5a5"/>
                <path id="Trazado_1226115" data-name="Trazado 1226115" d="M355.473,180.982l6.845-1.9a1.615,1.615,0,0,0,1.125-1.987h0a1.615,1.615,0,0,0-1.987-1.125l-6.845,1.9a1.615,1.615,0,0,0-1.125,1.987h0A1.614,1.614,0,0,0,355.473,180.982Z" transform="translate(-195.251 -124.646)" fill="#efa5a5"/>
                <path id="Trazado_1226116" data-name="Trazado 1226116" d="M355.473,177.318l6.845-1.9a1.615,1.615,0,0,0,1.125-1.987h0a1.615,1.615,0,0,0-1.987-1.125l-6.845,1.9a1.615,1.615,0,0,0-1.125,1.987h0A1.615,1.615,0,0,0,355.473,177.318Z" transform="translate(-195.251 -123.986)" fill="#efa5a5"/>
                <path id="Trazado_1226117" data-name="Trazado 1226117" d="M355.473,173.557l6.845-1.9a1.615,1.615,0,0,0,1.125-1.987h0a1.615,1.615,0,0,0-1.987-1.125l-6.845,1.9a1.615,1.615,0,0,0-1.125,1.987h0A1.615,1.615,0,0,0,355.473,173.557Z" transform="translate(-195.251 -123.309)" fill="#efa5a5"/>
                <path id="Trazado_1226118" data-name="Trazado 1226118" d="M349.366,186.436l2.021-6.078a1.963,1.963,0,0,0-1.243-2.482l-.694-.23a1.963,1.963,0,0,0-2.482,1.243l-2.021,6.078a1.963,1.963,0,0,0,1.243,2.482l.694.23A1.964,1.964,0,0,0,349.366,186.436Z" transform="translate(-193.706 -124.939)" fill="#efa5a5"/>
                <path id="Trazado_1226119" data-name="Trazado 1226119" d="M326.387,160.226H367.57a2.991,2.991,0,0,0,2.991-2.991V133.451a2.991,2.991,0,0,0-2.991-2.991H326.387a2.991,2.991,0,0,0-2.991,2.991v23.785A2.99,2.99,0,0,0,326.387,160.226Z" transform="translate(-189.845 -116.464)" fill="#ce659c"/>
                <path id="Trazado_1226120" data-name="Trazado 1226120" d="M328.4,160.226H369.58a2.991,2.991,0,0,0,2.991-2.991V133.451a2.991,2.991,0,0,0-2.991-2.991H328.4a2.991,2.991,0,0,0-2.991,2.991v23.785A2.989,2.989,0,0,0,328.4,160.226Z" transform="translate(-190.207 -116.464)" fill="#e288b3"/>
                <path id="Trazado_1226121" data-name="Trazado 1226121" d="M338.823,142.009l1.1,2.233a.777.777,0,0,0,.585.425l2.464.358a.776.776,0,0,1,.43,1.323l-1.784,1.738a.776.776,0,0,0-.223.687l.421,2.454a.776.776,0,0,1-1.126.818l-2.2-1.159a.776.776,0,0,0-.722,0l-2.2,1.159a.776.776,0,0,1-1.126-.818l.421-2.454a.776.776,0,0,0-.223-.687l-1.783-1.738a.776.776,0,0,1,.43-1.323l2.464-.358a.777.777,0,0,0,.585-.425l1.1-2.233A.776.776,0,0,1,338.823,142.009Z" transform="translate(-191.505 -118.465)" fill="#66409b"/>
                <path id="Trazado_1226122" data-name="Trazado 1226122" d="M353.968,142.009l1.1,2.233a.777.777,0,0,0,.584.425l2.465.358a.776.776,0,0,1,.43,1.323l-1.784,1.738a.775.775,0,0,0-.223.687l.421,2.454a.776.776,0,0,1-1.126.818l-2.2-1.159a.776.776,0,0,0-.722,0l-2.2,1.159a.776.776,0,0,1-1.126-.818l.421-2.454a.776.776,0,0,0-.223-.687l-1.783-1.738a.776.776,0,0,1,.43-1.323l2.464-.358a.777.777,0,0,0,.585-.425l1.1-2.233A.776.776,0,0,1,353.968,142.009Z" transform="translate(-194.231 -118.465)" fill="#fff"/>
                <path id="Trazado_1226123" data-name="Trazado 1226123" d="M369.112,142.009l1.1,2.233a.777.777,0,0,0,.584.425l2.464.358a.776.776,0,0,1,.431,1.323l-1.784,1.738a.775.775,0,0,0-.223.687l.421,2.454a.776.776,0,0,1-1.126.818l-2.2-1.159a.776.776,0,0,0-.722,0l-2.2,1.159a.776.776,0,0,1-1.126-.818l.421-2.454a.776.776,0,0,0-.223-.687l-1.783-1.738a.776.776,0,0,1,.43-1.323l2.465-.358a.774.774,0,0,0,.584-.425l1.1-2.233A.776.776,0,0,1,369.112,142.009Z" transform="translate(-196.957 -118.465)" fill="#fff"/>
                <line id="L칤nea_3844" data-name="L칤nea 3844" y1="1.896" x2="6.844" transform="translate(159.36 48.323)" fill="none" stroke="#2d2235" stroke-linecap="round" stroke-miterlimit="10" stroke-width="0.637"/>
                <line id="L칤nea_3845" data-name="L칤nea 3845" y1="1.586" x2="5.724" transform="translate(159.36 51.638)" fill="none" stroke="#2d2235" stroke-linecap="round" stroke-miterlimit="10" stroke-width="0.637"/>
                <line id="L칤nea_3846" data-name="L칤nea 3846" y1="1.334" x2="5.772" transform="translate(158.781 54.994)" fill="none" stroke="#2d2235" stroke-linecap="round" stroke-miterlimit="10" stroke-width="0.637"/>
                <line id="L칤nea_3847" data-name="L칤nea 3847" x2="1.126" y2="0.721" transform="translate(154.46 55.607)" fill="none" stroke="#2d2235" stroke-linecap="round" stroke-miterlimit="10" stroke-width="0.637"/>
              </g>
            </g>
            <path id="Trazado_1226124" data-name="Trazado 1226124" d="M172.866,279.387A5.392,5.392,0,1,1,167.473,274,5.392,5.392,0,0,1,172.866,279.387Z" transform="translate(-121.068 -112.122)" fill="#777dd8"/>
            <path id="Trazado_1226125" data-name="Trazado 1226125" d="M193.865,279.387A5.392,5.392,0,1,1,188.472,274,5.392,5.392,0,0,1,193.865,279.387Z" transform="translate(-124.848 -112.122)" fill="#777dd8"/>
            <path id="Trazado_1226126" data-name="Trazado 1226126" d="M214.865,279.387A5.392,5.392,0,1,1,209.472,274,5.392,5.392,0,0,1,214.865,279.387Z" transform="translate(-128.628 -112.122)" fill="#777dd8"/>
            <path id="Trazado_1226127" data-name="Trazado 1226127" d="M235.865,279.387A5.392,5.392,0,1,1,230.472,274,5.392,5.392,0,0,1,235.865,279.387Z" transform="translate(-132.408 -112.122)" fill="#777dd8"/>
            <path id="Trazado_1226128" data-name="Trazado 1226128" d="M256.865,279.387A5.392,5.392,0,1,1,251.472,274,5.392,5.392,0,0,1,256.865,279.387Z" transform="translate(-136.188 -112.122)" fill="#777dd8"/>
            <path id="Trazado_1226129" data-name="Trazado 1226129" d="M277.865,279.387A5.392,5.392,0,1,1,272.472,274,5.392,5.392,0,0,1,277.865,279.387Z" transform="translate(-139.968 -112.122)" fill="#777dd8"/>
            <path id="Trazado_1226130" data-name="Trazado 1226130" d="M213.71,333.414H164.719a2.638,2.638,0,0,1-2.638-2.638V296.222a2.638,2.638,0,0,1,2.638-2.638H213.71a2.638,2.638,0,0,1,2.638,2.638v34.554A2.638,2.638,0,0,1,213.71,333.414Z" transform="translate(-121.068 -115.648)" fill="#e563a7"/>
            <path id="Trazado_1226131" data-name="Trazado 1226131" d="M210.917,305.788H171.236a1.269,1.269,0,0,1-1.269-1.269h0a1.269,1.269,0,0,1,1.269-1.269h39.681a1.269,1.269,0,0,1,1.269,1.269h0A1.269,1.269,0,0,1,210.917,305.788Z" transform="translate(-122.487 -117.388)" fill="#fff"/>
            <path id="Trazado_1226132" data-name="Trazado 1226132" d="M210.917,314.565H171.236a1.269,1.269,0,0,1-1.269-1.269h0a1.269,1.269,0,0,1,1.269-1.269h39.681a1.269,1.269,0,0,1,1.269,1.269h0A1.27,1.27,0,0,1,210.917,314.565Z" transform="translate(-122.487 -118.968)" fill="#fff"/>
            <path id="Trazado_1226133" data-name="Trazado 1226133" d="M210.917,323.341H171.236a1.269,1.269,0,0,1-1.269-1.269h0a1.269,1.269,0,0,1,1.269-1.269h39.681a1.269,1.269,0,0,1,1.269,1.269h0A1.269,1.269,0,0,1,210.917,323.341Z" transform="translate(-122.487 -120.547)" fill="#fff"/>
            <path id="Trazado_1226134" data-name="Trazado 1226134" d="M210.917,332.117H171.236a1.269,1.269,0,0,1-1.269-1.269h0a1.269,1.269,0,0,1,1.269-1.269h39.681a1.269,1.269,0,0,1,1.269,1.269h0A1.269,1.269,0,0,1,210.917,332.117Z" transform="translate(-122.487 -122.127)" fill="#fff"/>
            <circle id="Elipse_12813" data-name="Elipse 12813" cx="19.915" cy="19.915" r="19.915" transform="translate(102.644 177.937)" fill="#66409b"/>
            <text id="_5.0" data-name="5.0" transform="translate(111.084 205.698)" fill="#fff" font-size="19" font-family="SegoeUI, Segoe UI"><tspan x="0" y="0">5.0</tspan></text>
            <ellipse id="Elipse_12814" data-name="Elipse 12814" cx="7.366" cy="7.365" rx="7.366" ry="7.365" transform="translate(86.2 230.634) rotate(-9.242)" fill="#5e67b7"/>
            <path id="Trazado_1226135" data-name="Trazado 1226135" d="M231.107,364.259a4.607,4.607,0,1,0-4.607,4.607A4.606,4.606,0,0,0,231.107,364.259Z" transform="translate(-131.834 -127.54)" fill="#fff"/>
            <circle id="Elipse_12815" data-name="Elipse 12815" cx="3.046" cy="3.046" r="3.046" transform="translate(78.229 5.276)" fill="#e563a7"/>
          </g>
          <path id="Trazado_1226136" data-name="Trazado 1226136" d="M101.668,374.253" transform="translate(-58.643 -130.169)" fill="#efa5a5"/>
          <path id="Trazado_1226137" data-name="Trazado 1226137" d="M83.6,242.213a16.778,16.778,0,0,1,13.954-3.456c11.6,2.237,38.977,9.722,39.9,30.636,1.169,26.561-51.441,11.442-57.871-8.18C76.367,251.4,79.582,245.581,83.6,242.213Z" transform="translate(-54.431 -105.722)" fill="#eab9bc"/>
          <g id="Grupo_1236544" data-name="Grupo 1236544" transform="translate(41.532 145.57)">
            <path id="Trazado_1226138" data-name="Trazado 1226138" d="M127.837,258.149c1.686-1.758,3.419-2.107,4.719-1.113,3.057,2.339,10.768,4.9,7.5,18.331-4.149,17.058-18.042,7.643-16.626-5.4C124.139,263.451,126.076,259.985,127.837,258.149Z" transform="translate(-104.074 -254.541)" fill="#ffd4d8"/>
            <path id="Trazado_1226139" data-name="Trazado 1226139" d="M99.926,267.289s-1.019-5.724,4.28-13.175" transform="translate(-99.847 -254.114)" fill="none" stroke="#ffd4d8" stroke-linecap="round" stroke-miterlimit="10" stroke-width="2"/>
          </g>
          <path id="Trazado_1226140" data-name="Trazado 1226140" d="M62.277,273.956A16.778,16.778,0,0,1,76.231,270.5c11.6,2.237,38.977,9.722,39.9,30.636,1.169,26.561-51.441,11.442-57.871-8.18C55.043,283.144,58.258,277.323,62.277,273.956Z" transform="translate(-50.593 -111.436)" fill="#eab9bc"/>
          <g id="Grupo_1236545" data-name="Grupo 1236545" transform="translate(21.612 170.193)">
            <path id="Trazado_1226141" data-name="Trazado 1226141" d="M103.543,288.177c1.686-1.758,3.419-2.107,4.719-1.113,3.057,2.339,10.768,4.9,7.5,18.331-4.149,17.058-18.042,7.642-16.626-5.4C99.845,293.479,101.782,290.013,103.543,288.177Z" transform="translate(-79.781 -284.569)" fill="#ffd4d8"/>
            <path id="Trazado_1226142" data-name="Trazado 1226142" d="M75.633,297.317s-1.019-5.724,4.28-13.175" transform="translate(-75.554 -284.142)" fill="none" stroke="#ffd4d8" stroke-linecap="round" stroke-miterlimit="10" stroke-width="2"/>
          </g>
          <path id="Trazado_1226143" data-name="Trazado 1226143" d="M54.53,310.12a16.778,16.778,0,0,1,13.954-3.456c11.6,2.237,38.977,9.722,39.9,30.636,1.169,26.561-51.441,11.442-57.871-8.18C47.3,319.308,50.511,313.488,54.53,310.12Z" transform="translate(-49.199 -117.945)" fill="#eab9bc"/>
          <g id="Grupo_1236546" data-name="Grupo 1236546" transform="translate(16.666 199.292)">
            <path id="Trazado_1226144" data-name="Trazado 1226144" d="M97.513,323.663c1.686-1.758,3.419-2.107,4.719-1.113,3.057,2.339,10.768,4.9,7.5,18.331-4.149,17.058-18.042,7.642-16.626-5.4C93.815,328.965,95.752,325.5,97.513,323.663Z" transform="translate(-73.75 -320.055)" fill="#ffd4d8"/>
            <path id="Trazado_1226145" data-name="Trazado 1226145" d="M69.6,332.8s-1.019-5.724,4.28-13.175" transform="translate(-69.523 -319.628)" fill="none" stroke="#ffd4d8" stroke-linecap="round" stroke-miterlimit="10" stroke-width="2"/>
          </g>
          <path id="Trazado_1226146" data-name="Trazado 1226146" d="M172.923,456.561H312.274a15.878,15.878,0,0,0,15.878-15.878h0a15.878,15.878,0,0,0-15.878-15.878H172.923a15.878,15.878,0,0,0-15.878,15.878h0A15.877,15.877,0,0,0,172.923,456.561Z" transform="translate(-68.611 -139.268)" fill="#66409b"/>
          <path id="Trazado_1226147" data-name="Trazado 1226147" d="M169.464,456.561H249.3a12.419,12.419,0,0,0,12.419-12.419v-6.918A12.419,12.419,0,0,0,249.3,424.805H169.464a12.419,12.419,0,0,0-12.419,12.419v6.918A12.418,12.418,0,0,0,169.464,456.561Z" transform="translate(-68.611 -139.268)" fill="#502f84"/>
          <path id="Trazado_1226148" data-name="Trazado 1226148" d="M306.757,458.3h0a4.423,4.423,0,0,1-4.423-4.423V425.44a4.423,4.423,0,0,1,4.423-4.423h0a4.423,4.423,0,0,1,4.423,4.423v28.433A4.423,4.423,0,0,1,306.757,458.3Z" transform="translate(-94.763 -138.586)" fill="#7c57b5"/>
        </g>
      </g>
    </g>
  </g>
</svg>
