<svg xmlns="http://www.w3.org/2000/svg" xmlns:xlink="http://www.w3.org/1999/xlink" width="113" height="113" viewBox="0 0 113 113">
  <defs>
    <filter id="Trazado_982547" x="0" y="0" width="113" height="113" filterUnits="userSpaceOnUse">
      <feOffset dy="3" input="SourceAlpha"/>
      <feGaussianBlur stdDeviation="3" result="blur"/>
      <feFlood flood-opacity="0.161"/>
      <feComposite operator="in" in2="blur"/>
      <feComposite in="SourceGraphic"/>
    </filter>
  </defs>
  <g id="Grupo_1236694" data-name="Grupo 1236694" transform="translate(-375 -3257.365)">
    <g id="Grupo_1236225" data-name="Grupo 1236225" transform="translate(384 3263.365)">
      <g id="Grupo_1235105" data-name="Grupo 1235105" transform="translate(0)">
        <g id="Grupo_1223793" data-name="Grupo 1223793">
          <g id="Grupo_1208028" data-name="Grupo 1208028">
            <g id="Grupo_1177675" data-name="Grupo 1177675" transform="translate(0 0)">
              <g id="Grupo_1176928" data-name="Grupo 1176928" transform="translate(0)">
                <g id="Grupo_1172322" data-name="Grupo 1172322">
                  <g id="Grupo_1164700" data-name="Grupo 1164700">
                    <g id="Grupo_1160931" data-name="Grupo 1160931">
                      <g id="Grupo_1160749" data-name="Grupo 1160749">
                        <g id="Grupo_1158891" data-name="Grupo 1158891">
                          <g id="Grupo_1157406" data-name="Grupo 1157406">
                            <g id="Grupo_1155793" data-name="Grupo 1155793">
                              <g id="Grupo_1154704" data-name="Grupo 1154704">
                                <g id="Grupo_1150790" data-name="Grupo 1150790">
                                  <g id="Grupo_1154214" data-name="Grupo 1154214" transform="translate(0)">
                                    <g id="Grupo_1152583" data-name="Grupo 1152583">
                                      <g id="Grupo_1146973" data-name="Grupo 1146973">
                                        <g id="Grupo_1146954" data-name="Grupo 1146954">
                                          <g transform="matrix(1, 0, 0, 1, -9, -6)" filter="url(#Trazado_982547)">
                                            <g id="Trazado_982547-2" data-name="Trazado 982547" transform="translate(9 6)" fill="#e1daf7">
                                              <path d="M 47.50000762939453 93.49986267089844 C 41.28937911987305 93.49986267089844 35.26534271240234 92.28383636474609 29.59519386291504 89.88558197021484 C 24.11772727966309 87.56880950927734 19.19814109802246 84.25183868408203 14.97310066223145 80.02679443359375 C 10.74804782867432 75.8017578125 7.431074142456055 70.88218688964844 5.114300727844238 65.40471649169922 C 2.716034412384033 59.73458480834961 1.500007629394531 53.71054458618164 1.500007629394531 47.49993133544922 C 1.500007629394531 41.2893180847168 2.716034412384033 35.26527786254883 5.114300727844238 29.59514427185059 C 7.431074142456055 24.11767768859863 10.74804782867432 19.19810485839844 14.97310066223145 14.97306442260742 C 19.19814109802246 10.74802494049072 24.11772727966309 7.431051254272461 29.59519386291504 5.114277839660645 C 35.26534271240234 2.71602463722229 41.28937911987305 1.499997973442078 47.50000762939453 1.499997973442078 C 53.71063613891602 1.499997973442078 59.73467254638672 2.71602463722229 65.40482330322266 5.114277839660645 C 70.88228607177734 7.431051254272461 75.80187225341797 10.74802494049072 80.02691650390625 14.97306442260742 C 84.25196838378906 19.19810485839844 87.56893920898438 24.11767768859863 89.88571166992188 29.59514427185059 C 92.28398132324219 35.26527786254883 93.50000762939453 41.2893180847168 93.50000762939453 47.49993133544922 C 93.50000762939453 53.71054458618164 92.28398132324219 59.73458480834961 89.88571166992188 65.40471649169922 C 87.56893920898438 70.88218688964844 84.25196838378906 75.8017578125 80.02691650390625 80.02679443359375 C 75.80187225341797 84.25183868408203 70.88228607177734 87.56880950927734 65.40482330322266 89.88558197021484 C 59.73467254638672 92.28383636474609 53.71063613891602 93.49986267089844 47.50000762939453 93.49986267089844 Z" stroke="none"/>
                                              <path d="M 47.50000762939453 2.999992370605469 C 41.4912223815918 2.999992370605469 35.66377639770508 4.1761474609375 30.17951202392578 6.495796203613281 C 24.88085174560547 8.736930847167969 20.12152862548828 11.94596099853516 16.03376007080078 16.03372955322266 C 11.94597625732422 20.12148284912109 8.736961364746094 24.88080596923828 6.495803833007812 30.17946624755859 C 4.176162719726562 35.66371536254883 3.000007629394531 41.49116134643555 3.000007629394531 47.49993133544922 C 3.000007629394531 53.50870132446289 4.176162719726562 59.33614730834961 6.495803833007812 64.82038879394531 C 8.736961364746094 70.11905670166016 11.94597625732422 74.87836456298828 16.03376007080078 78.96613311767578 C 20.12152862548828 83.05390167236328 24.88085174560547 86.26291656494141 30.17951202392578 88.50406646728516 C 35.66377639770508 90.82369995117188 41.4912223815918 91.99985504150391 47.50000762939453 91.99985504150391 C 53.50879287719727 91.99985504150391 59.33623886108398 90.82369995117188 64.82049560546875 88.50406646728516 C 70.11916351318359 86.26291656494141 74.87848663330078 83.05390167236328 78.96625518798828 78.96613311767578 C 83.05403900146484 74.87836456298828 86.26305389404297 70.11905670166016 88.50421142578125 64.82038879394531 C 90.8238525390625 59.33614730834961 92.00000762939453 53.50870132446289 92.00000762939453 47.49993133544922 C 92.00000762939453 41.49116134643555 90.8238525390625 35.66371536254883 88.50421142578125 30.17946624755859 C 86.26305389404297 24.88080596923828 83.05403900146484 20.12148284912109 78.96625518798828 16.03372955322266 C 74.87848663330078 11.94596099853516 70.11916351318359 8.736930847167969 64.82049560546875 6.495796203613281 C 59.33623886108398 4.1761474609375 53.50879287719727 2.999992370605469 47.50000762939453 2.999992370605469 M 47.50000762939453 -7.62939453125e-06 C 73.73352813720703 -7.62939453125e-06 95.00000762939453 21.26644134521484 95.00000762939453 47.49993133544922 C 95.00000762939453 73.73342132568359 73.73352813720703 94.99985504150391 47.50000762939453 94.99985504150391 C 21.26648712158203 94.99985504150391 7.62939453125e-06 73.73342132568359 7.62939453125e-06 47.49993133544922 C 7.62939453125e-06 21.26644134521484 21.26648712158203 -7.62939453125e-06 47.50000762939453 -7.62939453125e-06 Z" stroke="none" fill="#6c4dd8"/>
                                            </g>
                                          </g>
                                        </g>
                                      </g>
                                    </g>
                                  </g>
                                </g>
                              </g>
                            </g>
                          </g>
                        </g>
                      </g>
                    </g>
                  </g>
                </g>
              </g>
            </g>
          </g>
        </g>
      </g>
    </g>
    <g id="desarrollo-web_1_" data-name="desarrollo-web (1)" transform="translate(398.877 3285.854)">
      <path id="Trazado_1226483" data-name="Trazado 1226483" d="M67.809,312H8v4.35a2.182,2.182,0,0,0,2.175,2.175H68.9a2.182,2.182,0,0,0,2.175-2.175V312Zm0,0" transform="translate(-6.913 -269.59)" fill="#acabb1"/>
      <path id="Trazado_1226484" data-name="Trazado 1226484" d="M84.2,8H36.35A4.35,4.35,0,0,0,32,12.35V16.7H88.547V12.35A4.35,4.35,0,0,0,84.2,8Zm0,0" transform="translate(-27.65 -6.913)" fill="#ff6243"/>
      <path id="Trazado_1226485" data-name="Trazado 1226485" d="M82.022,72H32v32.623H88.547V72Zm0,0" transform="translate(-27.65 -62.213)" fill="#5aaae7"/>
      <path id="Trazado_1226486" data-name="Trazado 1226486" d="M239.924,65.787v4.35l-2.556.511a9.091,9.091,0,0,1-.859,2.066l1.446,2.164-3.078,3.078-2.164-1.446a9.091,9.091,0,0,1-2.066.859l-.511,2.556h-4.35l-.511-2.556a9.091,9.091,0,0,1-2.066-.859l-2.164,1.446-3.078-3.078,1.446-2.164a9.089,9.089,0,0,1-.859-2.066L216,70.137v-4.35l2.556-.511a9.089,9.089,0,0,1,.859-2.066l-1.446-2.164,3.078-3.078,2.164,1.446a9.091,9.091,0,0,1,2.066-.859L225.787,56h4.35l.511,2.556a9.09,9.09,0,0,1,2.066.859l2.164-1.446,3.078,3.078-1.446,2.164a9.092,9.092,0,0,1,.859,2.066Zm0,0" transform="translate(-186.639 -48.388)" fill="#00ccb3"/>
      <path id="Trazado_1226487" data-name="Trazado 1226487" d="M274.874,109.437A5.437,5.437,0,1,1,269.437,104,5.437,5.437,0,0,1,274.874,109.437Zm0,0" transform="translate(-228.115 -89.863)" fill="#ff6243"/>
      <path id="Trazado_1226488" data-name="Trazado 1226488" d="M109.368,118.648a9.089,9.089,0,0,1-.859,2.066l1.446,2.164-3.078,3.078-2.164-1.446a9.09,9.09,0,0,1-2.066.859l-.511,2.556h-4.35l-.511-2.556a9.09,9.09,0,0,1-2.066-.859l-2.164,1.446-3.078-3.078,1.446-2.164a9.089,9.089,0,0,1-.859-2.066L88,118.137v-4.35l2.556-.511a9.089,9.089,0,0,1,.859-2.066l-1.446-2.164,3.078-3.078,2.164,1.446a9.091,9.091,0,0,1,2.066-.859L97.787,104h4.35l.511,2.556a9.091,9.091,0,0,1,2.066.859l2.164-1.446,3.078,3.078-1.446,2.164a9.089,9.089,0,0,1,.859,2.066l2.556.511v4.35l-2.305.468Zm0,0" transform="translate(-76.038 -89.864)" fill="#ff9811"/>
      <path id="Trazado_1226489" data-name="Trazado 1226489" d="M146.874,157.437A5.437,5.437,0,1,1,141.437,152,5.437,5.437,0,0,1,146.874,157.437Zm0,0" transform="translate(-117.514 -131.339)" fill="#ffd422"/>
      <path id="Trazado_1226490" data-name="Trazado 1226490" d="M200,312h10.874v2.175a1.087,1.087,0,0,1-1.087,1.087h-8.7A1.087,1.087,0,0,1,200,314.175Zm0,0" transform="translate(-172.814 -269.59)" fill="#898890"/>
      <path id="Trazado_1226491" data-name="Trazado 1226491" d="M64.159,41.323H61.984V5.437A5.444,5.444,0,0,0,56.547,0H8.7A5.444,5.444,0,0,0,3.262,5.437V41.323H1.087A1.087,1.087,0,0,0,0,42.41v4.35a3.262,3.262,0,0,0,3.262,3.262H61.984a3.262,3.262,0,0,0,3.262-3.262V42.41A1.087,1.087,0,0,0,64.159,41.323ZM5.437,10.874H29.361V8.7H5.437V5.437A3.262,3.262,0,0,1,8.7,2.175H56.547a3.262,3.262,0,0,1,3.262,3.262V8.7H53.284v2.175h6.525V41.323H5.437ZM28.273,43.5h8.7v1.087h-8.7Zm34.8,3.262a1.087,1.087,0,0,1-1.087,1.087H3.262A1.087,1.087,0,0,1,2.175,46.76V43.5H26.1v1.087a2.175,2.175,0,0,0,2.175,2.175h8.7a2.175,2.175,0,0,0,2.175-2.175V43.5H63.071Zm0,0"/>
      <path id="Trazado_1226492" data-name="Trazado 1226492" d="M72,32h2.175v2.175H72Zm0,0" transform="translate(-62.213 -27.65)"/>
      <path id="Trazado_1226493" data-name="Trazado 1226493" d="M104,32h2.175v2.175H104Zm0,0" transform="translate(-89.863 -27.65)"/>
      <path id="Trazado_1226494" data-name="Trazado 1226494" d="M136,32h2.175v2.175H136Zm0,0" transform="translate(-117.514 -27.65)"/>
      <path id="Trazado_1226495" data-name="Trazado 1226495" d="M134.525,144a6.525,6.525,0,1,0,6.525,6.525A6.525,6.525,0,0,0,134.525,144Zm0,10.874a4.35,4.35,0,1,1,4.35-4.35A4.35,4.35,0,0,1,134.525,154.874Zm0,0" transform="translate(-110.601 -124.426)"/>
      <path id="Trazado_1226496" data-name="Trazado 1226496" d="M105.229,105.809l-1.93-.386a10.555,10.555,0,0,0-.435-1.056l1.087-1.631a1.087,1.087,0,0,0-.136-1.372l-3.078-3.08a1.086,1.086,0,0,0-1.371-.136l-1.631,1.087a10.852,10.852,0,0,0-1.055-.435L96.29,96.87A1.088,1.088,0,0,0,95.225,96h-4.35a1.088,1.088,0,0,0-1.066.87l-.387,1.93a10.849,10.849,0,0,0-1.055.435l-1.631-1.087a1.086,1.086,0,0,0-1.371.136l-3.081,3.078a1.087,1.087,0,0,0-.136,1.372l1.087,1.631a10.56,10.56,0,0,0-.435,1.056l-1.931.389a1.088,1.088,0,0,0-.87,1.066v4.35a1.088,1.088,0,0,0,.87,1.066l1.93.386a10.553,10.553,0,0,0,.435,1.056l-1.087,1.631a1.087,1.087,0,0,0,.136,1.372l3.078,3.08a1.086,1.086,0,0,0,1.371.136l1.631-1.087a10.855,10.855,0,0,0,1.055.435l.391,1.931a1.088,1.088,0,0,0,1.066.87h4.35a1.088,1.088,0,0,0,1.066-.87l.387-1.93a10.854,10.854,0,0,0,1.055-.435l1.631,1.087a1.086,1.086,0,0,0,1.371-.136l3.081-3.078a1.086,1.086,0,0,0,.136-1.372l-1.087-1.631a10.561,10.561,0,0,0,.435-1.056l1.931-.389a1.088,1.088,0,0,0,.87-1.066v-4.35A1.088,1.088,0,0,0,105.229,105.809Zm-1.305,4.524-1.683.337a1.086,1.086,0,0,0-.832.767,8.634,8.634,0,0,1-.761,1.838,1.087,1.087,0,0,0,.046,1.13l.949,1.425-1.815,1.816L98.4,116.7a1.087,1.087,0,0,0-1.133-.045,8.63,8.63,0,0,1-1.836.761,1.088,1.088,0,0,0-.768.832l-.332,1.679H91.765l-.336-1.683a1.086,1.086,0,0,0-.767-.832,8.6,8.6,0,0,1-1.836-.761,1.088,1.088,0,0,0-1.133.045l-1.425.95-1.81-1.812.949-1.425a1.087,1.087,0,0,0,.046-1.13,8.634,8.634,0,0,1-.761-1.838,1.086,1.086,0,0,0-.832-.767l-1.685-.337v-2.567l1.683-.337a1.086,1.086,0,0,0,.832-.767,8.635,8.635,0,0,1,.761-1.838,1.087,1.087,0,0,0-.046-1.13l-.949-1.425,1.815-1.816,1.425.95a1.087,1.087,0,0,0,1.133.045,8.628,8.628,0,0,1,1.836-.761,1.088,1.088,0,0,0,.768-.832l.332-1.679h2.569l.336,1.683a1.086,1.086,0,0,0,.767.832,8.6,8.6,0,0,1,1.836.761,1.088,1.088,0,0,0,1.133-.045l1.425-.95,1.815,1.816L100.7,103.7a1.087,1.087,0,0,0-.046,1.131,8.645,8.645,0,0,1,.761,1.838,1.088,1.088,0,0,0,.832.768l1.68.332Zm0,0" transform="translate(-69.126 -82.951)"/>
      <path id="Trazado_1226497" data-name="Trazado 1226497" d="M265.981,98.167a4.35,4.35,0,1,1-1.74,8.337l-.87,1.993A6.525,6.525,0,1,0,260,99.907l1.992.87a4.348,4.348,0,0,1,3.989-2.61Zm0,0" transform="translate(-224.658 -82.943)"/>
      <path id="Trazado_1226498" data-name="Trazado 1226498" d="M247.746,57.808l-1.93-.386a10.563,10.563,0,0,0-.435-1.056l1.087-1.631a1.087,1.087,0,0,0-.136-1.372l-3.078-3.08a1.086,1.086,0,0,0-1.371-.136l-1.631,1.087A10.85,10.85,0,0,0,239.2,50.8l-.391-1.931a1.088,1.088,0,0,0-1.066-.87h-4.35a1.088,1.088,0,0,0-1.066.87l-.387,1.93a10.852,10.852,0,0,0-1.055.435l-1.631-1.087a1.086,1.086,0,0,0-1.371.136L224.8,53.36l1.538,1.537,2.446-2.445,1.425.95a1.087,1.087,0,0,0,1.133.045,8.63,8.63,0,0,1,1.836-.761,1.087,1.087,0,0,0,.767-.832l.337-1.679h2.569l.336,1.683a1.086,1.086,0,0,0,.767.832,8.6,8.6,0,0,1,1.836.761,1.088,1.088,0,0,0,1.133-.045l1.425-.95,1.815,1.816-.949,1.425a1.087,1.087,0,0,0-.046,1.131,8.643,8.643,0,0,1,.761,1.838,1.088,1.088,0,0,0,.832.768l1.68.332v2.567l-1.683.337a1.086,1.086,0,0,0-.832.767,8.638,8.638,0,0,1-.761,1.838,1.087,1.087,0,0,0,.046,1.13l.949,1.425-1.815,1.816-1.425-.95a1.087,1.087,0,0,0-1.133-.045,8.627,8.627,0,0,1-1.836.761,1.088,1.088,0,0,0-.768.832l-.332,1.679h-2.569l-.336-1.683-2.132.427.512,2.561a1.088,1.088,0,0,0,1.066.87h4.35a1.088,1.088,0,0,0,1.066-.87l.387-1.93a10.854,10.854,0,0,0,1.055-.435l1.631,1.087a1.086,1.086,0,0,0,1.371-.136l3.081-3.078a1.087,1.087,0,0,0,.136-1.372l-1.087-1.631a10.556,10.556,0,0,0,.435-1.056l1.931-.389a1.088,1.088,0,0,0,.87-1.066v-4.35a1.088,1.088,0,0,0-.87-1.066Zm0,0" transform="translate(-194.244 -41.475)"/>
    </g>
  </g>
</svg>
